<svg version="1.1" xmlns="http://www.w3.org/2000/svg" xmlns:xlink="http://www.w3.org/1999/xlink" width="78.32121" height="39.82565" viewBox="0,0,78.32121,39.82565"><g transform="translate(-202.62202,-154.05732)"><g data-paper-data="{&quot;isPaintingLayer&quot;:true}" fill-rule="nonzero" stroke-linecap="butt" stroke-linejoin="miter" stroke-miterlimit="10" stroke-dasharray="" stroke-dashoffset="0" style="mix-blend-mode: normal"><path d="M239.42506,183.89265l0.03509,0.03008l0.02182,0.00614zM239.21168,183.75542h-0.04762l0.15475,0.07737zM244.51217,179.3754l0.15062,-0.03012l0.12539,-0.12539v-1.94242l-0.10139,-0.40556l-0.03335,-0.05558l-0.1552,-0.24389l-0.66994,-0.66994l-0.09831,-0.06256l-0.37038,-0.15595l-0.09524,-0.07143h-2.48357l-1.37053,0.22842l-0.86386,0.24682l-0.14383,0.00479l-0.13198,0.05738l-0.25583,0.04264l-0.0525,0.03937l-0.57567,0.46054l-0.15562,0.15562l-0.07948,0.11922l0.0167,0.08348l-0.01184,0.24872l0.06039,0.24157v0.16071l0.20014,0.05003l0.56075,0.12461l0.06231,0.03115l0.06966,0.01742l0.01169,0.02045l0.24317,0.08106l0.06342,0.04036l0.07449,0.01016l0.64607,0.25843l0.78745,0.26248l0.25882,0.1647c0.14884,0.01132 0.29403,0.03567 0.43445,0.07192l0.03622,-0.00988l0.06266,0.0376c0.15815,0.04789 0.30967,0.11102 0.45286,0.18769l0.07157,0.01789l0.01883,0.03296c0.14916,0.08803 0.28838,0.19111 0.41557,0.30715l0.24407,0.09763l0.29823,0.21539l0.17084,0.00949l0.02133,0.02489h0.98765l0.10825,-0.02706l0.55675,-0.2227l0.22916,-0.03125zM256.99924,175.86176l-0.12843,0.51371l-0.08264,0.41321v2.16228l0.3075,0.61499l0.05078,0.22849l0.11697,0.20274l0.28571,1l0.01162,0.34851l0.08457,0.33829v0.71429l-0.11484,0.45934l-0.06397,0.46914l-0.28571,0.71429l-0.22992,0.31835l-0.17072,0.35364l-0.60517,0.72621l-2.04793,3.27668l-1.13095,1.83779l-0.84992,1.41653l-0.31339,0.31339l-0.2686,0.35254l-0.71429,0.57143l-0.00055,0.00025l-0.01439,0.03631l-0.58355,0.23774l-0.57282,0.26254l-0.03632,-0.01438l-0.00056,0.00023l-1,0.14286l-0.3154,-0.03263l-0.31423,0.04246l-1.28571,-0.14286l-0.05519,-0.0205l-0.05864,0.0052l-2.71429,-0.42857l-0.03397,-0.01443l-0.03684,0.0022l-2.28571,-0.42857l-0.1358,-0.06233l-0.14917,-0.00865l-2.27208,-0.71002l-2.84346,-0.85304l-0.06765,-0.04022l-0.07825,-0.00848l-2.71429,-1l-0.00615,-0.00419l-0.00739,-0.00085l-2.28571,-0.85714l-0.26441,-0.18235l-0.29949,-0.11605l-2.35272,-1.66074l-0.63467,-0.3808l-0.34028,-0.34028l-0.37348,-0.30346l-1.71429,-2.28571l-0.06716,-0.15951l-0.11823,-0.12639l-0.71429,-1.28571l-0.06065,-0.22607l-0.12566,-0.19747l-0.85714,-2.57143l-0.03082,-0.40069l-0.09747,-0.38988v-2.42857l0.07464,-0.29857v-0.30776l0.28571,-1.14286l0.04613,-0.08649l0.00752,-0.09774l0.28571,-0.85714l0.13368,-0.21007l0.06742,-0.2397l0.57143,-1l0.13634,-0.14226l0.0821,-0.17913l0.57143,-0.71429l0.20193,-0.15385l0.14978,-0.20496l0.85714,-0.71429l0.08567,-0.04136l0.06169,-0.07242l1,-0.71429l0.26396,-0.10398l0.2276,-0.16937l1.68725,-0.70302l1.25895,-0.55953l0.37879,-0.06629l0.36048,-0.13389l1.28571,-0.14286l0.13951,0.01885l0.13657,-0.03414h4.14286l0.07744,0.01936l0.0785,-0.01449l2.28571,0.14286l0.17958,0.05701l0.1883,-0.00638l1.85262,0.39699l1.30839,0.11894h1.74374l0.12315,0.03079l0.12561,-0.01838l1.42857,0.14286l0.15196,0.05455l0.16143,-0.00294l1.85714,0.42857l0.0504,0.02571l0.05656,0.00147l2.57143,0.71429l0.21153,0.11997l0.23739,0.05275l1.33556,0.66778l0.61774,0.24709l0.086,0.06211l0.10356,0.02301l0.28571,0.14286l0.04606,0.03948l0.97116,0.05395l0.06932,-0.02311l0.03306,0.02879l0.73134,0.04063l0.83853,0.97828l0.14286,0.28571l0.05156,0.232l0.10254,0.08931l0.02255,0.47362l0.10286,0.46286l-0.07543,0.11314l0.0113,0.23739l-0.14286,0.71429l-0.14295,0.30178l-0.07244,0.32597l-0.1176,0.2352l-0.08106,0.48634l-0.04063,0.09345z" fill="#b38061" stroke="none" stroke-width="0.5"/><path d="M235.64532,176.62554c0.14899,-0.50438 0.3767,-0.93463 0.6655,-1.2967c2.0603,-2.58308 7.22972,-1.6966 9.10731,0.49584c0.76317,0.89115 0.80248,4.32019 -1.06453,3.94679c-2.47911,-0.49582 -0.69834,-2.846 -3.40177,-2.82677c-0.84228,0.00599 -3.36239,1.57826 -3.82043,1.2729z" fill="#99694b" stroke="none" stroke-width="0.5"/><path d="M255.14532,179.18399c1.44204,0.82402 2.17477,1.94008 2.40505,3.18478c0.67422,3.64424 -2.95858,8.39119 -5.70689,10.14012c-5.08283,3.23453 -13.87813,-0.30472 -19.11886,-2.24339c-2.03263,-0.75192 -10.60154,-3.23766 -6.63278,-7.20642c1.44067,-1.44067 2.42875,-0.75504 3.53553,0c2.59524,1.77044 8.24258,5.09674 11.6608,5.12491c0.38213,0.00315 5.60547,0.2428 7.625,-0.14286c0.16979,-0.03242 3.71156,-3.85753 3.73214,-4.04815c0.12863,-1.19123 -0.69483,-2.98337 0.34546,-3.57783z" fill="#99694b" stroke="none" stroke-width="0.5"/><path d="M255.82858,171.30197c0.1591,0.18561 0.30524,0.36573 0.43674,0.54107c0.49706,0.45693 0.80857,1.11257 0.80857,1.84096c0,1.38071 -1.11929,2.5 -2.5,2.5c-0.26357,0 -0.51761,-0.04079 -0.75616,-0.11639c-0.21516,-0.06819 -0.41771,-0.16471 -0.60328,-0.28518c-1.76299,-0.50925 -4.09003,-1.5292 -5.87476,-2.30317c-4.29364,-1.86199 -10.4239,-2.58792 -15.15172,-2.29526c-4.44241,0.27499 -4.18076,7.21846 -5.14087,8.17857c-1.75336,1.75336 -4.47319,1.46869 -4.6875,-1.25c-0.34734,-4.40624 3.76645,-11.60325 8.78571,-11.92857c6.77777,-0.4393 12.66963,1.3631 18.75935,3.04147c1.99157,0.54889 4.21636,0.71271 5.79938,2.06959z" fill="#d4c7be" stroke="none" stroke-width="0.5"/><path d="M241.91064,179.21973c1.24055,0.03791 3.19735,-0.68494 3.94331,0.80697c0.81574,1.63149 -0.83033,2.83151 -2.17182,2.87363c-1.74577,0.05482 -6.47832,-0.25582 -7.5591,-2.14718c-0.54241,-0.32012 -0.90629,-0.91057 -0.90629,-1.586c0,-1.01637 0.82393,-1.8403 1.8403,-1.8403c0.386,0 0.74423,0.11884 1.04013,0.32192c1.06911,0.44705 2.2341,1.5227 3.81347,1.57096z" fill="#d4c7be" stroke="none" stroke-width="0.5"/><path d="M256.93995,166.42157c-0.46926,1.9273 -6.55913,2.09956 -13.60211,0.38475c-7.04298,-1.71481 -12.37204,-4.66733 -11.90279,-6.59463c0.46926,-1.9273 6.55913,-2.09956 13.60211,-0.38475c7.04298,1.71481 12.37204,4.66733 11.90279,6.59463z" fill="none" stroke="#ffe100" stroke-width="5"/><path d="M223.36965,170.52942c-6.17244,-1.63002 -12.26871,-7.6714 -12.504,-14.06033c-0.0156,-0.42355 -0.66327,0.52791 -0.99122,0.7964c-0.33693,0.27584 -0.60592,0.62602 -0.92372,0.9237c-0.89077,0.83437 -1.68002,1.54111 -2.41341,2.52094c-0.74513,1.66244 -0.91782,3.44468 -1.09956,5.25127c-0.10434,1.0372 -0.87553,2.93415 0.14953,3.12373c1.65511,0.3061 4.5816,-0.98285 6.07383,-1.62774l1.03104,-0.68658c0.2441,-0.16439 0.54689,-0.24374 0.86159,-0.20216c0.68441,0.09042 1.16593,0.71855 1.07551,1.40295c-0.02992,0.2265 -0.11874,0.43077 -0.24899,0.59945l-0.75343,1.01521l-0.0133,-0.00987c-0.60545,2.62132 -0.8626,5.6466 2.69412,3.3341c0.29253,-0.1902 0.52141,-0.46357 0.7801,-0.698l0.8391,-0.95795c0.26579,-0.31251 0.67981,-0.48792 1.11678,-0.43019c0.60915,0.08048 1.05757,0.5869 1.08508,1.17985l0.0826,1.24887l-0.1455,0.00962c0.26395,0.69696 0.54563,1.30964 0.76054,1.44463c2.63275,1.65383 2.42094,-3.15601 2.54332,-4.17793zM225.91751,170.61585l-0.06744,0.22516c-0.4121,3.01601 -1.49887,8.97262 -6.36361,5.97697c-0.5707,-0.35143 -1.36299,-1.26836 -1.62214,-2.10474c-2.36663,1.51323 -5.94719,2.32487 -7.25533,-1.02195c-0.25415,-0.65023 -0.31088,-1.94611 -0.10373,-3.07488c-2.00378,0.74555 -4.44493,1.41371 -5.84368,0.79102c-3.66303,-1.63069 -1.51793,-9.21949 -0.2805,-11.96251c1.30404,-1.76777 5.27873,-6.86031 7.9849,-4.97559c0.67988,0.4735 1.78134,5.02536 2.09275,5.76246c1.68541,3.98937 6.61095,7.60344 10.83495,8.14007c0,0 1.23923,0.16372 1.07551,1.40295c-0.0559,0.4231 -0.23717,0.68266 -0.45168,0.84103z" fill="#848484" stroke="none" stroke-width="0.5"/><path d="M220.85592,174.74765c-0.2149,-0.135 -0.55679,-0.82751 -0.82074,-1.52447l0.14501,-0.00924l-0.08572,-1.24617c-0.02751,-0.59295 -0.4074,-1.02655 -1.01655,-1.10702c-0.43697,-0.05773 -0.8575,0.12287 -1.12329,0.43538l-0.84671,0.96213c-0.25869,0.23443 -0.49381,0.51007 -0.78635,0.70027c-3.55672,2.3125 -3.3212,-0.71139 -2.71575,-3.33271l0.02849,-0.08897l0.74306,-1.0157c0.13025,-0.16868 0.21296,-0.37223 0.24288,-0.59872c0.09042,-0.68441 -0.41256,-1.22368 -1.09697,-1.3141c-0.3147,-0.04158 -0.62804,0.02674 -0.87213,0.19113l-1.0313,0.68621c-1.49223,0.64489 -4.42403,1.9238 -6.07915,1.6177c-1.02505,-0.18958 -0.25729,-2.10331 -0.15295,-3.14051c0.18174,-1.80659 0.3625,-3.61756 1.10763,-5.28c0.73339,-0.97983 1.53587,-1.70026 2.42664,-2.53463c0.3178,-0.29768 0.59261,-0.65137 0.92953,-0.92721c0.32795,-0.26849 0.98144,-1.2225 0.99704,-0.79894c0.23529,6.38893 6.39284,12.50062 12.56528,14.13064c-0.12238,1.02192 0.0748,5.84875 -2.55796,4.19492z" data-paper-data="{&quot;noHover&quot;:false,&quot;origItem&quot;:[&quot;Path&quot;,{&quot;applyMatrix&quot;:true,&quot;segments&quot;:[[[223.36965,170.52942],[-0.12238,1.02192],[-6.17244,-1.63002]],[[210.86565,156.46909],[0.23529,6.38893],[-0.0156,-0.42355]],[[209.87443,157.26549],[0.32795,-0.26849],[-0.33693,0.27584]],[[208.95071,158.18918],[0.3178,-0.29768],[-0.89077,0.83437]],[[206.5373,160.71013],[0.73339,-0.97983],[-0.74513,1.66244]],[[205.43774,165.9614],[0.18174,-1.80659],[-0.10434,1.0372]],[[205.58726,169.08513],[-1.02505,-0.18958],[1.65511,0.3061]],[[211.6611,167.45739],[-1.49223,0.64489],[0,0]],[[212.69214,166.77081],[0,0],[0.2441,-0.16439]],[[213.55373,166.56866],[-0.3147,-0.04158],[0.68441,0.09042]],[[214.62924,167.97161],[0.09042,-0.68441],[-0.02992,0.2265]],[[214.38025,168.57106],[0.13025,-0.16868],[0,0]],[213.62681,169.58628],[[213.61351,169.57641],[0,0],[-0.60545,2.62132]],[[216.30763,172.91051],[-3.55672,2.3125],[0.29253,-0.1902]],[[217.08773,172.21251],[-0.25869,0.23443],[0,0]],[[217.92683,171.25456],[0,0],[0.26579,-0.31251]],[[219.04362,170.82437],[-0.43697,-0.05773],[0.60915,0.08048]],[[220.1287,172.00422],[-0.02751,-0.59295],[0,0]],[220.21129,173.25309],[[220.06579,173.26271],[0,0],[0.26395,0.69696]],[[220.82632,174.70735],[-0.2149,-0.135],[2.63275,1.65383]]],&quot;closed&quot;:true}]}" fill="#c6c6c6" stroke="none" stroke-width="0.5"/><path d="M259.67696,180.01072c0.2514,-0.03469 0.76009,-0.47737 1.28727,-1.00416l-0.12868,-0.0686l0.58879,-1.10446c0.26888,-0.52919 0.88587,-0.80645 1.47423,-0.62934c0.42206,0.12704 0.72734,0.45718 0.84113,0.85133l0.371,1.21824c0.13941,0.32006 0.23565,0.66336 0.42411,0.95702c2.29132,3.5704 3.30083,0.70696 3.82674,-1.93147l-0.01618,0.00353l-0.26937,-1.23522c-0.04938,-0.20732 -0.04634,-0.43004 0.01951,-0.64881c0.19899,-0.66106 0.89619,-1.03564 1.55724,-0.83665c0.30396,0.09149 0.54735,0.28832 0.70227,0.53854l0.65755,1.04979c1.09509,1.20141 3.23277,3.57966 4.86737,3.98117c1.01234,0.24866 1.08933,-1.79761 1.42069,-2.78597c0.57716,-1.72154 1.15255,-3.41716 1.15687,-5.23895c-0.26565,-1.19473 -0.6945,-2.16348 -1.16342,-3.29031c-0.16729,-0.40202 -0.26851,-0.83183 -0.46222,-1.22181c-0.18855,-0.37959 -0.38773,-1.5132 -0.5761,-1.13353c-2.84143,5.72713 -10.88257,8.72758 -17.17933,7.6755c-0.30863,0.98186 -2.47939,5.27921 0.60053,4.85417zM256.65244,173.23537c0.3603,-1.19695 1.55724,-0.83665 1.55724,-0.83665c4.07106,1.24763 10.04699,-0.02157 13.22365,-2.96511c0.58694,-0.54387 3.46259,-4.24025 4.27702,-4.39233c3.24178,-0.60533 4.77103,5.6711 5.23288,7.81871c0.00014,3.00921 -1.16479,10.80884 -5.17435,10.78918c-1.53108,-0.00751 -3.48159,-1.62031 -5.00161,-3.12382c-0.27528,1.11412 -0.85983,2.27205 -1.35886,2.76028c-2.56857,2.51295 -5.49873,0.30087 -7.03385,-2.05163c-0.58013,0.65585 -1.67937,1.16591 -2.34409,1.25161c-5.66621,0.73046 -4.20768,-5.14618 -3.34323,-8.06489l0.03111,-0.23298c-0.13042,-0.23257 -0.18894,-0.5437 -0.06593,-0.95236z" data-paper-data="{&quot;index&quot;:null}" fill="#848484" stroke="none" stroke-width="0.5"/><path d="M259.02651,175.15929c6.29676,1.05208 14.42506,-1.98447 17.26649,-7.7116c0.18837,-0.37968 0.3912,0.75852 0.57975,1.13812c0.19371,0.38998 0.29817,0.82506 0.46546,1.22708c0.46892,1.12684 0.90309,2.1117 1.16874,3.30642c-0.00432,1.82178 -0.5829,3.54378 -1.16006,5.26532c-0.33136,0.98837 -0.41654,3.04808 -1.42889,2.79942c-1.63459,-0.40151 -3.84729,-2.84586 -4.94238,-4.04728l-0.66161,-1.04471c-0.15491,-0.25022 -0.31562,-0.39082 -0.61958,-0.48232c-0.66106,-0.19899 -1.40435,0.19778 -1.60333,0.85884c-0.06585,0.21877 -0.06085,0.34182 -0.01147,0.54914l0.26446,1.2351l0.01897,0.09644c-0.52591,2.63843 -1.56465,5.4935 -3.85597,1.9231c-0.18846,-0.29366 -0.29034,-0.64134 -0.42975,-0.96139l-0.37756,-1.22537c-0.11379,-0.39415 -0.42429,-0.73288 -0.84635,-0.85993c-0.58836,-0.1771 -1.11489,0.05753 -1.38377,0.58673l-0.59082,1.10056l0.12831,0.06797c-0.52718,0.52679 -1.12119,1.02159 -1.3726,1.05629c-3.07992,0.42504 -0.91668,-3.89607 -0.60805,-4.87792z" data-paper-data="{&quot;noHover&quot;:false,&quot;origItem&quot;:[&quot;Path&quot;,{&quot;applyMatrix&quot;:true,&quot;segments&quot;:[[[259.67696,180.01072],[-3.07992,0.42504],[0.2514,-0.03469]],[[260.96423,179.00657],[-0.52718,0.52679],[0,0]],[260.83555,178.93797],[[261.42435,177.83351],[0,0],[0.26888,-0.52919]],[[262.89858,177.20417],[-0.58836,-0.1771],[0.42206,0.12704]],[[263.73971,178.0555],[-0.11379,-0.39415],[0,0]],[[264.11072,179.27374],[0,0],[0.13941,0.32006]],[[264.53482,180.23076],[-0.18846,-0.29366],[2.29132,3.5704]],[[268.36156,178.29929],[-0.52591,2.63843],[0,0]],[268.34538,178.30281],[[268.07601,177.06759],[0,0],[-0.04938,-0.20732]],[[268.09552,176.41878],[-0.06585,0.21877],[0.19899,-0.66106]],[[269.65276,175.58213],[-0.66106,-0.19899],[0.30396,0.09149]],[[270.35503,176.12067],[-0.15491,-0.25022],[0,0]],[[271.01258,177.17046],[0,0],[1.09509,1.20141]],[[275.87995,181.15163],[-1.63459,-0.40151],[1.01234,0.24866]],[[277.30064,178.36565],[-0.33136,0.98837],[0.57716,-1.72154]],[[278.45751,173.1267],[-0.00432,1.82178],[-0.26565,-1.19473]],[[277.29409,169.83639],[0.46892,1.12684],[-0.16729,-0.40202]],[[276.83187,168.61458],[0.19371,0.38998],[-0.18855,-0.37959]],[[276.25576,167.48105],[0.18837,-0.37968],[-2.84143,5.72713]],[[259.07644,175.15655],[6.29676,1.05208],[-0.30863,0.98186]]],&quot;closed&quot;:true}]}" fill="#c6c6c6" stroke="none" stroke-width="0.5"/></g></g></svg>