<svg version="1.1" xmlns="http://www.w3.org/2000/svg" xmlns:xlink="http://www.w3.org/1999/xlink" width="35.3218" height="33.14077" viewBox="0,0,35.3218,33.14077"><g transform="translate(-222.3391,-160.74221)"><g data-paper-data="{&quot;isPaintingLayer&quot;:true}" fill-rule="nonzero" stroke="none" stroke-width="0.5" stroke-linecap="butt" stroke-linejoin="miter" stroke-miterlimit="10" stroke-dasharray="" stroke-dashoffset="0" style="mix-blend-mode: normal"><path d="M239.42506,183.89265l0.03509,0.03008l0.02182,0.00614zM239.21168,183.75542h-0.04762l0.15475,0.07737zM244.51217,179.3754l0.15062,-0.03012l0.12539,-0.12539v-1.94242l-0.10139,-0.40556l-0.03335,-0.05558l-0.1552,-0.24389l-0.66994,-0.66994l-0.09831,-0.06256l-0.37038,-0.15595l-0.09524,-0.07143h-2.48357l-1.37053,0.22842l-0.86386,0.24682l-0.14383,0.00479l-0.13198,0.05738l-0.25583,0.04264l-0.0525,0.03937l-0.57567,0.46054l-0.15562,0.15562l-0.07948,0.11922l0.0167,0.08348l-0.01184,0.24872l0.06039,0.24157v0.16071l0.20014,0.05003l0.56075,0.12461l0.06231,0.03115l0.06966,0.01742l0.01169,0.02045l0.24317,0.08106l0.06342,0.04036l0.07449,0.01016l0.64607,0.25843l0.78745,0.26248l0.25882,0.1647c0.14884,0.01132 0.29403,0.03567 0.43445,0.07192l0.03622,-0.00988l0.06266,0.0376c0.15815,0.04789 0.30967,0.11102 0.45286,0.18769l0.07157,0.01789l0.01883,0.03296c0.14916,0.08803 0.28838,0.19111 0.41557,0.30715l0.24407,0.09763l0.29823,0.21539l0.17084,0.00949l0.02133,0.02489h0.98765l0.10825,-0.02706l0.55675,-0.2227l0.22916,-0.03125zM256.99925,175.86176l-0.12843,0.51371l-0.08264,0.41321v2.16228l0.3075,0.61499l0.05078,0.22849l0.11697,0.20274l0.28571,1l0.01162,0.34851l0.08457,0.33829v0.71429l-0.11484,0.45934l-0.06397,0.46914l-0.28571,0.71429l-0.22992,0.31835l-0.17072,0.35364l-0.60517,0.72621l-2.04793,3.27668l-1.13095,1.83779l-0.84992,1.41653l-0.31339,0.31339l-0.2686,0.35254l-0.71429,0.57143l-0.00055,0.00025l-0.01439,0.03631l-0.58355,0.23774l-0.57282,0.26254l-0.03632,-0.01438l-0.00056,0.00023l-1,0.14286l-0.3154,-0.03263l-0.31423,0.04246l-1.28571,-0.14286l-0.05519,-0.0205l-0.05864,0.0052l-2.71429,-0.42857l-0.03397,-0.01443l-0.03684,0.0022l-2.28571,-0.42857l-0.1358,-0.06233l-0.14917,-0.00865l-2.27208,-0.71002l-2.84346,-0.85304l-0.06765,-0.04022l-0.07825,-0.00848l-2.71429,-1l-0.00615,-0.00419l-0.00739,-0.00085l-2.28571,-0.85714l-0.26441,-0.18235l-0.29949,-0.11605l-2.35272,-1.66074l-0.63467,-0.3808l-0.34028,-0.34028l-0.37348,-0.30346l-1.71429,-2.28571l-0.06716,-0.15951l-0.11823,-0.12639l-0.71429,-1.28571l-0.06065,-0.22607l-0.12566,-0.19747l-0.85714,-2.57143l-0.03082,-0.40069l-0.09747,-0.38988v-2.42857l0.07464,-0.29857v-0.30776l0.28571,-1.14286l0.04613,-0.08649l0.00752,-0.09774l0.28571,-0.85714l0.13368,-0.21007l0.06742,-0.2397l0.57143,-1l0.13634,-0.14226l0.0821,-0.17913l0.57143,-0.71429l0.20193,-0.15385l0.14978,-0.20496l0.85714,-0.71429l0.08567,-0.04136l0.06169,-0.07242l1,-0.71429l0.26396,-0.10398l0.2276,-0.16937l1.68725,-0.70302l1.25895,-0.55953l0.37879,-0.06629l0.36048,-0.13389l1.28571,-0.14286l0.13951,0.01885l0.13657,-0.03414h4.14286l0.07744,0.01936l0.0785,-0.01449l2.28571,0.14286l0.17958,0.05701l0.1883,-0.00638l1.85262,0.39699l1.30839,0.11894h1.74374l0.12315,0.03079l0.12561,-0.01838l1.42857,0.14286l0.15196,0.05455l0.16143,-0.00294l1.85714,0.42857l0.0504,0.02571l0.05656,0.00147l2.57143,0.71429l0.21153,0.11997l0.23739,0.05275l1.33556,0.66778l0.61774,0.24709l0.086,0.06211l0.10356,0.02301l0.28571,0.14286l0.04606,0.03948l0.97116,0.05395l0.06932,-0.02311l0.03306,0.02879l0.73134,0.04063l0.83853,0.97828l0.14286,0.28571l0.05156,0.232l0.10254,0.08931l0.02255,0.47362l0.10286,0.46286l-0.07543,0.11314l0.0113,0.23739l-0.14286,0.71429l-0.14295,0.30178l-0.07244,0.32597l-0.1176,0.2352l-0.08106,0.48634l-0.04063,0.09345z" fill="#da4d4d"/><path d="M235.64532,176.62554c0.14899,-0.50438 0.3767,-0.93463 0.6655,-1.2967c2.0603,-2.58308 7.22972,-1.6966 9.10731,0.49584c0.76317,0.89115 0.80248,4.32019 -1.06453,3.94679c-2.47911,-0.49582 -0.69834,-2.846 -3.40177,-2.82677c-0.84228,0.00599 -3.36239,1.57826 -3.82043,1.2729z" fill="#b71111"/><path d="M255.14532,179.18399c1.44204,0.82402 2.17477,1.94008 2.40505,3.18478c0.67422,3.64424 -2.95858,8.39119 -5.70689,10.14012c-5.08283,3.23453 -13.87813,-0.30472 -19.11886,-2.24339c-2.03263,-0.75192 -10.60154,-3.23766 -6.63278,-7.20642c1.44067,-1.44067 2.42875,-0.75504 3.53553,0c2.59524,1.77044 8.24258,5.09674 11.6608,5.12491c0.38213,0.00315 5.60547,0.2428 7.625,-0.14286c0.16979,-0.03242 3.71156,-3.85753 3.73214,-4.04815c0.12863,-1.19123 -0.69483,-2.98337 0.34546,-3.57783z" fill="#b71111"/><path d="M241.91064,179.21973c1.24055,0.03791 3.19735,-0.68494 3.94331,0.80697c0.81574,1.63149 -0.83033,2.83151 -2.17182,2.87363c-1.74577,0.05482 -6.47832,-0.25582 -7.5591,-2.14718c-0.54241,-0.32012 -0.90629,-0.91057 -0.90629,-1.586c0,-1.01637 0.82393,-1.8403 1.8403,-1.8403c0.386,0 0.74423,0.11884 1.04013,0.32192c1.06911,0.44705 2.2341,1.5227 3.81347,1.57096z" fill="#e99292"/><path d="M249.27956,163.73671c0.40556,0.68749 1.00031,1.29531 1.06419,2.12578c0.0261,0.33926 -0.12129,0.30049 -0.36464,0.63813c-0.93639,1.29917 -2.64183,0.05709 -4.02273,0.7891c-0.58408,0.30962 -4.02199,3.25487 -4.28753,0.68801c-0.04859,-0.13344 -0.0751,-0.27749 -0.0751,-0.42774c0,-0.07396 0.00642,-0.14643 0.01874,-0.21686c0.5125,-5.44615 4.06772,-9.69793 7.66706,-3.59642z" fill="#70450a"/><path d="M242.59375,166.86249c0,0.45878 -0.24716,0.85983 -0.61558,1.07727l-0.00942,0.01648l-0.03578,0.00895c-0.15994,0.08564 -0.34067,0.1375 -0.53267,0.14605l0.06681,0.33404l-0.9388,0.83998l-0.64234,-0.04941l-0.15,-0.05l-0.1625,-0.0125l-0.5625,-0.1875l-0.04876,-0.03103l-0.05698,-0.00963l-0.9039,-0.39546l-0.64824,-0.16206l-0.09344,-0.04983l-0.10442,-0.01765l-1,-0.4375l-0.08784,-0.06781l-0.10451,-0.03732l-0.09201,-0.06134l-0.76951,-0.32979l-0.09207,-0.06997l-0.10891,-0.03889l-0.52668,-0.35112l-0.40012,-0.22864l-0.08012,-0.07678l-0.09994,-0.04825l-0.27185,-0.22655l-0.02416,0.00095l-0.21993,-0.21208l-0.23197,-0.19884l-0.00146,-0.02626l-0.01038,-0.01001l-0.3125,-0.5l-0.01866,-0.05755l-0.03937,-0.04593l-0.25,-0.5l-0.01448,-0.06516l-0.0379,-0.05495l-0.375,-1l-0.02538,-0.22207l-0.05421,-0.21684v-0.375l0.03732,-0.14929v-0.15388l0.0625,-0.25l0.06478,-0.12147l0.00168,-0.00755l-0.00662,-0.02427l0.01908,-0.0318l0.01572,-0.07076l0.0625,-0.125l0.1217,-0.14198l0.02433,-0.04562l0.00693,-0.00195l0.08119,-0.13532l0.125,-0.125l0.05445,-0.03267l0.00566,-0.0066l0.00589,-0.00033l0.14546,-0.08728l0.04742,-0.08299l0.15582,-0.03895l0.13773,-0.08264l0.09222,0.02515l0.23924,-0.05981h0.3125l0.19494,0.04873l0.17895,0.01377l0.18861,0l0.12078,0.0302l0.12436,-0.00592l0.27848,0.0557l0.75271,0.10753h0.03617l0.04822,0.01206l0.00356,0.00051l0.00242,0.00099l0.00738,0.00184l0.0628,-0.00919l0.625,0.0625l0.21335,0.07659l0.22128,0.04917l0.33649,0.16825l0.71026,0.29594l0.19485,0.145l0.17282,0.10369l0.68169,0.36706l0.07813,0.07118l0.09667,0.04272l0.5625,0.4375l0.05915,0.07547l0.08086,0.05154l1.125,1.1875l0.03587,0.06362l0.05669,0.04606l0.17907,0.23877l0.66771,0.84982l0.00445,0.00534c0.03867,0.01595 0.07637,0.03378 0.11298,0.05338l0.03578,0.00895l0.00942,0.01648c0.36843,0.21744 0.61558,0.61849 0.61558,1.07727z" fill="#c3ff6b"/><path d="M233.75341,164.44395c-0.51267,-2.95219 6.88265,0.58633 7.59976,1.84127c0.36843,0.21744 0.61558,0.61849 0.61558,1.07727c0,0.69036 -0.55964,1.25 -1.25,1.25c-0.50324,0 -0.93702,-0.29738 -1.1352,-0.72599c-2.40794,-0.48763 -5.66665,-2.50108 -5.83014,-3.44255z" fill="#9ac35d"/><path d="M255.82858,171.30197c0.1591,0.18561 0.30524,0.36573 0.43674,0.54107c0.49706,0.45693 0.80857,1.11257 0.80857,1.84096c0,1.38071 -1.11929,2.5 -2.5,2.5c-0.26357,0 -0.51761,-0.04079 -0.75616,-0.11639c-0.21516,-0.06819 -0.41771,-0.16471 -0.60328,-0.28518c-1.76299,-0.50925 -4.09003,-1.5292 -5.87476,-2.30317c-4.29364,-1.86199 -10.4239,-2.58792 -15.15172,-2.29526c-4.44241,0.27499 -4.18076,7.21846 -5.14087,8.17857c-1.75336,1.75336 -4.47319,1.46869 -4.6875,-1.25c-0.34734,-4.40624 3.76645,-11.60325 8.78571,-11.92857c6.77777,-0.4393 12.66963,1.3631 18.75935,3.04147c1.99157,0.54889 4.21636,0.71271 5.79938,2.06959z" fill="#e99292"/></g></g></svg>