<svg version="1.1" xmlns="http://www.w3.org/2000/svg" xmlns:xlink="http://www.w3.org/1999/xlink" width="35.3218" height="27.76596" viewBox="0,0,35.3218,27.76596"><g transform="translate(-222.3391,-166.11701)"><g data-paper-data="{&quot;isPaintingLayer&quot;:true}" fill-rule="nonzero" stroke="none" stroke-width="0.5" stroke-linecap="butt" stroke-linejoin="miter" stroke-miterlimit="10" stroke-dasharray="" stroke-dashoffset="0" style="mix-blend-mode: normal"><path d="M240.57494,176.10734l-0.03509,-0.03008l-0.02182,-0.00614zM240.78832,176.24457h0.04762l-0.15475,-0.07737zM235.48783,180.62459l-0.15062,0.03012l-0.12539,0.12539v1.94242l0.10139,0.40556l0.03335,0.05558l0.1552,0.24389l0.66994,0.66994l0.09831,0.06256l0.37038,0.15595l0.09524,0.07143h2.48357l1.37053,-0.22842l0.86386,-0.24682l0.14383,-0.00479l0.13198,-0.05738l0.25583,-0.04264l0.0525,-0.03937l0.57567,-0.46054l0.15562,-0.15562l0.07948,-0.11922l-0.0167,-0.08348l0.01184,-0.24872l-0.06039,-0.24157v-0.16071l-0.20014,-0.05003l-0.56075,-0.12461l-0.06231,-0.03115l-0.06966,-0.01742l-0.01169,-0.02045l-0.24317,-0.08106l-0.06342,-0.04036l-0.07449,-0.01016l-0.64607,-0.25843l-0.78745,-0.26248l-0.25882,-0.1647c-0.14884,-0.01132 -0.29403,-0.03567 -0.43445,-0.07192l-0.03622,0.00988l-0.06266,-0.0376c-0.15815,-0.04789 -0.30967,-0.11102 -0.45286,-0.18769l-0.07157,-0.01789l-0.01883,-0.03296c-0.14916,-0.08803 -0.28838,-0.19111 -0.41557,-0.30715l-0.24407,-0.09763l-0.29823,-0.21539l-0.17084,-0.00949l-0.02133,-0.02489h-0.98765l-0.10825,0.02706l-0.55675,0.2227l-0.22916,0.03125zM223.00075,184.13823l0.12843,-0.51371l0.08264,-0.41321v-2.16228l-0.3075,-0.61499l-0.05078,-0.22849l-0.11697,-0.20274l-0.28571,-1l-0.01162,-0.34851l-0.08457,-0.33829v-0.71429l0.11484,-0.45934l0.06397,-0.46914l0.28571,-0.71429l0.22992,-0.31835l0.17072,-0.35364l0.60517,-0.72621l2.04793,-3.27668l1.13095,-1.83779l0.84992,-1.41653l0.31339,-0.31339l0.2686,-0.35254l0.71429,-0.57143l0.00055,-0.00025l0.01439,-0.03631l0.58355,-0.23774l0.57282,-0.26254l0.03632,0.01438l0.00056,-0.00023l1,-0.14286l0.3154,0.03263l0.31423,-0.04246l1.28571,0.14286l0.05519,0.0205l0.05864,-0.0052l2.71429,0.42857l0.03397,0.01443l0.03684,-0.0022l2.28571,0.42857l0.1358,0.06233l0.14917,0.00865l2.27208,0.71002l2.84346,0.85304l0.06765,0.04022l0.07825,0.00848l2.71429,1l0.00615,0.00419l0.00739,0.00085l2.28571,0.85714l0.26441,0.18235l0.29949,0.11605l2.35272,1.66074l0.63467,0.3808l0.34028,0.34028l0.37348,0.30346l1.71429,2.28571l0.06716,0.15951l0.11823,0.12639l0.71429,1.28571l0.06065,0.22607l0.12566,0.19747l0.85714,2.57143l0.03082,0.40069l0.09747,0.38988v2.42857l-0.07464,0.29857v0.30776l-0.28571,1.14286l-0.04613,0.08649l-0.00752,0.09774l-0.28571,0.85714l-0.13368,0.21007l-0.06742,0.2397l-0.57143,1l-0.13634,0.14226l-0.0821,0.17913l-0.57143,0.71429l-0.20193,0.15385l-0.14978,0.20496l-0.85714,0.71429l-0.08567,0.04136l-0.06169,0.07242l-1,0.71429l-0.26396,0.10398l-0.2276,0.16937l-1.68725,0.70302l-1.25895,0.55953l-0.37879,0.06629l-0.36048,0.13389l-1.28571,0.14286l-0.13951,-0.01885l-0.13657,0.03414h-4.14286l-0.07744,-0.01936l-0.0785,0.01449l-2.28571,-0.14286l-0.17958,-0.05701l-0.1883,0.00638l-1.85262,-0.39699l-1.30839,-0.11894h-1.74374l-0.12315,-0.03079l-0.12561,0.01838l-1.42857,-0.14286l-0.15196,-0.05455l-0.16143,0.00294l-1.85714,-0.42857l-0.0504,-0.02571l-0.05656,-0.00147l-2.57143,-0.71429l-0.21153,-0.11997l-0.23739,-0.05275l-1.33556,-0.66778l-0.61774,-0.24709l-0.086,-0.06211l-0.10356,-0.02301l-0.28571,-0.14286l-0.04606,-0.03948l-0.97116,-0.05395l-0.06932,0.02311l-0.03306,-0.02879l-0.73134,-0.04063l-0.83853,-0.97828l-0.14286,-0.28571l-0.05156,-0.232l-0.10254,-0.08931l-0.02255,-0.47362l-0.10286,-0.46286l0.07543,-0.11314l-0.0113,-0.23739l0.14286,-0.71429l0.14295,-0.30178l0.07244,-0.32597l0.1176,-0.2352l0.08106,-0.48634l0.04063,-0.09345z" data-paper-data="{&quot;index&quot;:null}" fill="#b37046"/><path d="M244.35468,183.37445c-0.14899,0.50438 -0.3767,0.93463 -0.6655,1.2967c-2.0603,2.58308 -7.22972,1.6966 -9.10731,-0.49584c-0.76317,-0.89115 -0.80248,-4.32019 1.06453,-3.94679c2.47911,0.49582 0.69834,2.846 3.40177,2.82677c0.84228,-0.00599 3.36239,-1.57826 3.82043,-1.2729z" data-paper-data="{&quot;index&quot;:null}" fill="#985933"/><path d="M224.85468,180.816c-1.44204,-0.82402 -2.17477,-1.94008 -2.40505,-3.18478c-0.67422,-3.64424 2.95858,-8.39119 5.70689,-10.14012c5.08283,-3.23453 13.87813,0.30472 19.11886,2.24339c2.03263,0.75192 10.60154,3.23766 6.63278,7.20642c-1.44067,1.44067 -2.42875,0.75504 -3.53553,0c-2.59524,-1.77044 -8.24258,-5.09674 -11.6608,-5.12491c-0.38213,-0.00315 -5.60547,-0.2428 -7.625,0.14286c-0.16979,0.03242 -3.71156,3.85753 -3.73214,4.04815c-0.12863,1.19123 0.69483,2.98337 -0.34546,3.57783z" data-paper-data="{&quot;index&quot;:null}" fill="#985933"/><path d="M224.17142,188.69802c-0.1591,-0.18561 -0.30524,-0.36573 -0.43674,-0.54107c-0.49706,-0.45693 -0.80857,-1.11257 -0.80857,-1.84096c0,-1.38071 1.11929,-2.5 2.5,-2.5c0.26357,0 0.51761,0.04079 0.75616,0.11639c0.21516,0.06819 0.41771,0.16471 0.60328,0.28518c1.76299,0.50925 4.09003,1.5292 5.87476,2.30317c4.29364,1.86199 10.4239,2.58792 15.15172,2.29526c4.44241,-0.27499 4.18076,-7.21846 5.14087,-8.17857c1.75336,-1.75336 4.47319,-1.46869 4.6875,1.25c0.34734,4.40624 -3.76645,11.60325 -8.78571,11.92857c-6.77777,0.4393 -12.66963,-1.3631 -18.75935,-3.04147c-1.99157,-0.54889 -4.21636,-0.71271 -5.79938,-2.06959z" data-paper-data="{&quot;index&quot;:null}" fill="#d3a689"/><path d="M238.08936,180.78026c-1.24055,-0.03791 -3.19735,0.68494 -3.94331,-0.80697c-0.81574,-1.63149 0.83033,-2.83151 2.17182,-2.87363c1.74577,-0.05482 6.47832,0.25582 7.5591,2.14718c0.54241,0.32012 0.90629,0.91057 0.90629,1.586c0,1.01637 -0.82393,1.8403 -1.8403,1.8403c-0.386,0 -0.74423,-0.11884 -1.04013,-0.32192c-1.06911,-0.44705 -2.2341,-1.5227 -3.81347,-1.57096z" data-paper-data="{&quot;index&quot;:null}" fill="#d3a689"/></g></g></svg>