<svg version="1.1" xmlns="http://www.w3.org/2000/svg" xmlns:xlink="http://www.w3.org/1999/xlink" width="61.46767" height="43.76356" viewBox="0,0,61.46767,43.76356"><defs><radialGradient cx="239.54686" cy="180.1765" r="28.33397" gradientUnits="userSpaceOnUse" id="color-1"><stop offset="0" stop-color="#923214"/><stop offset="1" stop-color="#4e1503"/></radialGradient></defs><g transform="translate(-209.26616,-158.11822)"><g stroke="none" stroke-width="0.5" stroke-miterlimit="10"><path d="M267.5559,169.89731c1.17898,0.67371 1.95808,1.72493 2.44966,3.00164c1.52103,3.95032 0.28958,10.05944 -0.3653,13.82412c-3.37639,19.40985 -19.63999,14.94399 -33.58191,14.17424c-4.59877,-0.25391 -8.85487,-1.73686 -12.74042,-3.99174c-0.80529,-0.46732 -3.33908,-1.74945 -3.51549,-2.63153c-0.46225,-2.31125 0.11556,-3.17797 2.42681,-3.64022c0.19114,-0.03823 8.10001,4.24205 8.93311,4.51349c2.60219,0.84781 5.45184,0.49737 8.13384,0.92355c7.28305,1.15732 15.92008,3.05484 21.96485,-2.53922c4.15503,-3.84523 4.11555,-11.65331 4.04486,-16.67742c-0.01498,-1.06468 -0.90973,-5.15134 0.09546,-5.72574z" fill="#985933"/><path d="M225.1809,173.39731c-1.5798,0 -4.05433,-6.21895 -2.65454,-7.01883c0.43488,-0.73685 1.23699,-1.23117 2.15454,-1.23117c1.38071,0 2.5,1.11929 2.5,2.5c0,0.15827 -0.0147,0.3131 -0.04282,0.4632c1.28361,2.39092 1.68925,5.2868 -1.95718,5.2868z" fill="#985933"/><path d="M241.5559,162.02231c1.58712,0.90693 2.24007,1.59022 2.49999,2.50709c0.24525,0.86509 0.14059,1.93814 0.14059,3.60316c0,1.75322 -2.12125,3.56146 -3.75862,2.62582c-1.41253,-0.80716 -2.55118,-6.63938 -1.0365,-7.50491z" fill="#985933"/><path d="M258.38236,170.53202c0.47252,2.97358 -1.68651,6.68951 -4.76396,3.74029c-0.69815,-0.66905 -0.27719,-3.55097 -0.47426,-4.33927c-0.05753,-0.21047 -0.08824,-0.43202 -0.08824,-0.66073c0,-0.34049 0.06807,-0.66508 0.19134,-0.96091c0.3859,-1.3078 1.15129,-1.69038 1.97761,-1.51736c0.10832,-0.01433 0.21882,-0.02173 0.33105,-0.02173c1.38071,0 2.5,1.11929 2.5,2.5c0,0.06229 -0.00228,0.12404 -0.00675,0.18518c0.16062,0.35395 0.27651,0.71772 0.33321,1.07453z" fill="#985933"/><path d="M261.02276,170.79504c-1.59848,0 -1.7581,1.38552 -3.46686,1.72727c-1.02495,0.20499 -2.42343,-1.67482 -2.5,-2.5c-0.54471,-5.86973 11.33019,-4.73467 13.01883,-1.77954c0.73685,0.43488 1.23117,1.23699 1.23117,2.15454c0,1.38071 -1.11929,2.5 -2.5,2.5c-0.60946,0 -1.16797,-0.21808 -1.60178,-0.58047c-1.08999,-0.58934 -2.34902,-1.52181 -4.18137,-1.52181z" fill="#d3a689"/><path d="M254.4309,162.39731c-0.5393,0.72178 -0.78717,1.87392 -1.52588,2.30311c-0.08963,0.05208 -0.1865,0.09351 -0.29199,0.12224c-1.38802,0.37803 -2.88636,-0.60688 -4.21283,-0.80035c-2.41647,-0.35246 -2.19384,2.87358 -4.4693,3c-2.81866,0.15659 -2.51337,-3.15379 -1.9375,-4.875c0.92541,-2.76593 5.93957,-3.43911 8.26198,-2.77707c0.72821,0.20759 3.22713,0.52675 3.42924,1.24536z" fill="#d3a689"/><path d="M238.8059,160.89731c-0.36153,0.63268 -0.48569,1.50433 -0.99036,1.99291c-0.07697,0.07451 -0.16278,0.14011 -0.25964,0.19459c-0.09154,0.05149 -0.20157,0.09675 -0.32659,0.13644c-0.27777,0.11047 -0.58003,0.17257 -0.89638,0.17593c-1.63206,0.19269 -3.99818,-0.00167 -4.05189,0.00014c-0.89809,0.03027 -3.67871,0.19747 -4.31726,0.69294c-0.41148,0.31928 0.42058,1.08533 0.18766,1.55117c-0.37558,0.75116 -0.88324,1.61203 -1.67996,1.8776c-3.52837,1.17613 -4.32904,-4.40714 -3.02663,-6.36474c1.69634,-2.54971 5.46235,-2.29629 8.14777,-2.67239c0.37991,-0.05321 5.29772,-0.93681 5.98212,0.26089z" fill="#d3a689"/><path d="M214.4309,179.29085c0.18916,4.02863 4.77559,8.38051 6.33012,12.21971c0.97564,2.40951 -0.49951,4.18169 -3.20686,3.64022c-1.67289,-0.33458 -2.83512,-4.93215 -3.43077,-6.14529c-3.59613,-7.32409 -8.24702,-10.552 -1.16381,-19.13073c0.72304,-0.8757 6.4968,-7.33911 8.11515,-4.507c0.73685,0.43488 1.23117,1.23699 1.23117,2.15454c0,1.19806 -0.84273,2.19928 -1.96774,2.44322c-2.64098,2.61063 -6.12142,4.76422 -5.90726,9.32533z" fill="#d3a689"/><path d="M211.06984,176.15427c1.10238,-4.40953 8.27893,-10.96089 12.73606,-10.06947c0.56382,0.11276 0.24634,-1.12351 0.38894,-1.68053c0.22625,-0.88375 1.29023,-1.42545 2.07049,-1.75367c3.51334,-1.47791 8.2575,-1.86705 12.04057,-1.5033c1.25456,0.12063 2.35556,2.35402 2.54924,2.36703c2.98824,0.20084 8.16407,-2.19422 11.4733,-0.08835c0.80885,0.51472 2.73031,5.813 2.76895,5.8047c2.80653,-0.60305 8.40808,0.31419 10.97026,1.5865c1.89376,0.94039 1.50259,3.01545 1.2886,4.7537c-0.54469,4.42455 0.12703,10.46919 -1.8778,14.65579c0.42201,4.59257 -9.32999,8.02694 -12.51155,8.38663c-2.56912,0.29045 -4.95799,1.63968 -7.536,1.90901c-5.27793,0.5514 -11.48941,0.11159 -16.74475,-2.02111c-7.16589,-0.90892 -19.51466,-14.75353 -17.61631,-22.34692z" fill="url(#color-1)"/></g></g></svg>