<svg version="1.1" xmlns="http://www.w3.org/2000/svg" xmlns:xlink="http://www.w3.org/1999/xlink" width="61.46767" height="43.76356" viewBox="0,0,61.46767,43.76356"><g transform="translate(-209.26616,-158.11824)"><g stroke="none" stroke-width="0.5" stroke-miterlimit="10"><path d="M211.06983,176.15429c1.10238,-4.40953 8.27893,-10.96089 12.73606,-10.06947c0.56382,0.11276 0.24634,-1.12351 0.38894,-1.68053c0.22625,-0.88375 1.29023,-1.42545 2.07049,-1.75367c3.51334,-1.47791 8.2575,-1.86705 12.04057,-1.5033c1.25456,0.12063 2.35556,2.35402 2.54924,2.36703c2.98824,0.20084 8.16407,-2.19422 11.4733,-0.08835c0.80885,0.51472 2.73031,5.813 2.76895,5.8047c2.80653,-0.60305 8.40808,0.31419 10.97026,1.5865c1.89376,0.94039 1.50259,3.01545 1.2886,4.7537c-0.54469,4.42455 0.12703,10.46919 -1.8778,14.65579c0.42201,4.59257 -9.32999,8.02694 -12.51155,8.38663c-2.56912,0.29045 -4.95799,1.63968 -7.536,1.90901c-5.27793,0.5514 -11.48941,0.11159 -16.74475,-2.02111c-7.16589,-0.90892 -19.51466,-14.75353 -17.61631,-22.34692z" fill="#b37046"/><path d="M267.55589,169.89733c1.17898,0.67371 1.95808,1.72493 2.44966,3.00164c1.52103,3.95032 0.28958,10.05944 -0.3653,13.82412c-3.37639,19.40985 -19.63999,14.94399 -33.58191,14.17424c-4.59877,-0.25391 -8.85487,-1.73686 -12.74042,-3.99174c-0.80529,-0.46732 -3.33908,-1.74945 -3.51549,-2.63153c-0.46225,-2.31125 0.11556,-3.17797 2.42681,-3.64022c0.19114,-0.03823 8.10001,4.24205 8.93311,4.51349c2.60219,0.84781 5.45184,0.49737 8.13384,0.92355c7.28305,1.15732 15.92008,3.05484 21.96485,-2.53922c4.15503,-3.84523 4.11555,-11.65331 4.04486,-16.67742c-0.01498,-1.06468 -0.90973,-5.15134 0.09546,-5.72574z" fill="#985933"/><path d="M225.18089,173.39733c-1.5798,0 -4.05433,-6.21895 -2.65454,-7.01883c0.43488,-0.73685 1.23699,-1.23117 2.15454,-1.23117c1.38071,0 2.5,1.11929 2.5,2.5c0,0.15827 -0.0147,0.3131 -0.04282,0.4632c1.28361,2.39092 1.68925,5.2868 -1.95718,5.2868z" fill="#985933"/><path d="M241.55589,162.02233c1.58712,0.90693 2.24007,1.59022 2.49999,2.50709c0.24525,0.86509 0.14059,1.93814 0.14059,3.60316c0,1.75322 -2.12125,3.56146 -3.75862,2.62582c-1.41253,-0.80716 -2.55118,-6.63938 -1.0365,-7.50491z" fill="#985933"/><path d="M258.38235,170.53204c0.47252,2.97358 -1.68651,6.68951 -4.76396,3.74029c-0.69815,-0.66905 -0.27719,-3.55097 -0.47426,-4.33927c-0.05753,-0.21047 -0.08824,-0.43202 -0.08824,-0.66073c0,-0.34049 0.06807,-0.66508 0.19134,-0.96091c0.3859,-1.3078 1.15129,-1.69038 1.97761,-1.51736c0.10832,-0.01433 0.21882,-0.02173 0.33105,-0.02173c1.38071,0 2.5,1.11929 2.5,2.5c0,0.06229 -0.00228,0.12404 -0.00675,0.18518c0.16062,0.35395 0.27651,0.71772 0.33321,1.07453z" fill="#985933"/><path d="M261.02275,170.79506c-1.59848,0 -1.7581,1.38552 -3.46686,1.72727c-1.02495,0.20499 -2.42343,-1.67482 -2.5,-2.5c-0.54471,-5.86973 11.33019,-4.73467 13.01883,-1.77954c0.73685,0.43488 1.23117,1.23699 1.23117,2.15454c0,1.38071 -1.11929,2.5 -2.5,2.5c-0.60946,0 -1.16797,-0.21808 -1.60178,-0.58047c-1.08999,-0.58934 -2.34902,-1.52181 -4.18137,-1.52181z" fill="#d3a689"/><path d="M254.43089,162.39733c-0.5393,0.72178 -0.78717,1.87392 -1.52588,2.30311c-0.08963,0.05208 -0.1865,0.09351 -0.29199,0.12224c-1.38802,0.37803 -2.88636,-0.60688 -4.21283,-0.80035c-2.41647,-0.35246 -2.19384,2.87358 -4.4693,3c-2.81866,0.15659 -2.51337,-3.15379 -1.9375,-4.875c0.92541,-2.76593 5.93957,-3.43911 8.26198,-2.77707c0.72821,0.20759 3.22713,0.52675 3.42924,1.24536z" fill="#d3a689"/><path d="M238.80589,160.89733c-0.36153,0.63268 -0.48569,1.50433 -0.99036,1.99291c-0.07697,0.07451 -0.16278,0.14011 -0.25964,0.19459c-0.09154,0.05149 -0.20157,0.09675 -0.32659,0.13644c-0.27777,0.11047 -0.58003,0.17257 -0.89638,0.17593c-1.63206,0.19269 -3.99818,-0.00167 -4.05189,0.00014c-0.89809,0.03027 -3.67871,0.19747 -4.31726,0.69294c-0.41148,0.31928 0.42058,1.08533 0.18766,1.55117c-0.37558,0.75116 -0.88324,1.61203 -1.67996,1.8776c-3.52837,1.17613 -4.32904,-4.40714 -3.02663,-6.36474c1.69634,-2.54971 5.46235,-2.29629 8.14777,-2.67239c0.37991,-0.05321 5.29772,-0.93681 5.98212,0.26089z" fill="#d3a689"/><path d="M214.43089,179.29087c0.18916,4.02863 4.77559,8.38051 6.33012,12.21971c0.97564,2.40951 -0.49951,4.18169 -3.20686,3.64022c-1.67289,-0.33458 -2.83512,-4.93215 -3.43077,-6.14529c-3.59613,-7.32409 -8.24702,-10.552 -1.16381,-19.13073c0.72304,-0.8757 6.4968,-7.33911 8.11515,-4.507c0.73685,0.43488 1.23117,1.23699 1.23117,2.15454c0,1.19806 -0.84273,2.19928 -1.96774,2.44322c-2.64098,2.61063 -6.12142,4.76422 -5.90726,9.32533z" fill="#d3a689"/><path d="M225.45272,194.52759c-0.97609,0.78087 -1.75695,-0.19522 -1.75695,-0.19522l-0.61661,-0.79882c-0.46076,-0.86422 -0.858,-1.43137 -1.25146,-2.01865l-0.24829,0.20314l-1.1193,-1.36804c-0.18001,-0.21656 -0.28825,-0.4949 -0.28825,-0.79851c0,-0.69036 0.55964,-1.25 1.25,-1.25c0.12135,0 0.23867,0.01729 0.34961,0.04955l1.84747,0.49266l-0.00025,0.00095l0.00366,-0.00003c2.85961,0.78209 5.69724,1.83196 8.46446,2.90808c-1.28237,-1.19092 -2.68316,-2.23787 -4.28615,-3.11559c-3.43141,-1.87889 -7.05388,-3.0714 -9.26092,-5.96896l-0.35457,0.27577l-0.86816,-1.11621c-0.16914,-0.21322 -0.27015,-0.48292 -0.27015,-0.77622c0,-0.69036 0.55964,-1.25 1.25,-1.25c0.12387,0 0.24354,0.01802 0.35652,0.05158l1.34738,0.36747l-0.00151,0.00553l0.01812,-0.00087c11.48253,3.47399 21.79047,9.69344 33.1233,13.45483c0.84296,0.52381 -1.00403,-2.99664 -1.80402,-3.66696c-2.21245,-1.85384 -4.78044,-3.12638 -7.39484,-4.29829c-5.10953,-2.29037 -10.39199,-4.14876 -15.5216,-6.39335c-2.52128,-1.10325 -4.61647,-1.92354 -6.47366,-3.47774l-0.16781,0.27969l-1.23035,-0.73821c-0.37447,-0.21591 -0.62653,-0.62035 -0.62653,-1.08365c0,-0.69036 0.55964,-1.25 1.25,-1.25c0.11464,0 0.22568,0.01543 0.33114,0.04433l1.49207,0.37402l-0.00285,0.01137l0.03205,-0.00368c9.63017,2.91446 18.75997,6.90214 27.89956,11.05418c2.9611,1.3452 6.14511,2.18564 9.16774,3.37624c-7.6463,-5.58085 -15.86908,-10.79028 -24.26681,-15.10249c-2.78349,-1.42932 -5.64818,-2.74458 -8.3744,-4.28047c-0.79927,-0.45029 -1.89162,-0.62815 -2.35899,-1.41755c-0.0757,-0.12786 -0.13786,-0.26057 -0.18906,-0.39719l-0.03264,0.01166l-0.61524,-1.72266c-0.05335,-0.13901 -0.08259,-0.28997 -0.08259,-0.44776c0,-0.69036 0.55964,-1.25 1.25,-1.25c0.18032,0 0.35173,0.03818 0.50657,0.10691l1.46802,0.61167c0.75344,0.30137 3.63223,1.41899 4.16787,1.79476c0.81708,0.57321 1.03568,1.82116 1.90649,2.30891c1.33741,0.74909 2.92949,0.92327 4.33465,1.5359c3.9817,1.73598 7.90015,3.69859 11.78526,5.64137c1.95695,0.91308 3.90747,1.81394 5.89928,2.64948c2.2132,0.92842 4.4983,1.89 6.82502,2.50511c0.22449,0.05935 0.58922,0.06609 0.95047,0.06828c-1.36078,-0.74455 -3.57155,-2.4817 -4.06198,-2.79743c-3.16103,-2.03496 -6.56891,-3.72709 -9.65147,-5.86325c-0.73923,-0.51227 -3.79863,-2.53018 -4.23706,-3.28813c-0.04244,-0.07337 -0.08113,-0.14821 -0.11651,-0.22436l-0.01963,0.00982l-0.73875,-1.47751c-0.09145,-0.1737 -0.14321,-0.37156 -0.14321,-0.58151c0,-0.69036 0.55964,-1.25 1.25,-1.25c0.14845,0 0.29086,0.02588 0.42297,0.07337l1.45888,0.48629c5.67344,1.7033 13.27737,3.97887 17.9097,7.72289c0,0 0.96745,0.79155 0.1759,1.75899c-0.79155,0.96745 -1.75899,0.1759 -1.75899,0.1759c-3.42456,-2.84364 -8.89364,-4.7717 -13.65692,-6.24211c0.66503,0.56609 1.2998,1.12479 1.86268,1.46574c3.97848,2.40984 8.06802,4.60917 11.89909,7.26631c0.66143,0.45875 3.17694,2.12666 2.93179,3.27824c-0.79958,3.75602 -5.54107,1.7005 -7.51841,1.03254c-1.60582,-0.54246 -3.18732,-1.1583 -4.75044,-1.81371c-1.09716,-0.46003 -2.18202,-0.93967 -3.26221,-1.43029c3.99244,2.55363 7.88524,5.25517 11.62342,8.04784l0.06145,0.104l0.02254,-0.02066l1.37232,1.49708c0.20562,0.22278 0.33124,0.52051 0.33124,0.84758c0,0.65803 -0.50847,1.19731 -1.15394,1.24636l-2.47838,0.21551l-0.00148,-0.01702c-0.08211,0.00684 -0.16453,0.01152 -0.2473,0.0138c-0.47276,0.01304 -4.4891,-1.5038 -5.01641,-1.6973c-1.06796,-0.39189 -2.11379,-0.80622 -3.14787,-1.23606c0.13004,0.10906 0.25888,0.21957 0.38648,0.33156c1.10679,0.97137 3.88293,5.65412 2.69994,7.21005c-0.57997,0.76281 -1.8399,0.53638 -2.75985,0.80458c-9.08305,-2.713 -17.46381,-7.34358 -26.26461,-10.91073c3.89387,2.18589 7.23455,4.37359 10.2052,8.00304l0.00246,0.00683l0.00185,-0.00148l0.99378,1.24222c0.17514,0.21512 0.28013,0.48962 0.28013,0.78864c0,0.69036 -0.55964,1.25 -1.25,1.25c-0.19837,0 -0.38594,-0.04621 -0.55254,-0.12844l-1.85106,-0.86383l0.10633,-0.22785c-3.24446,-0.93961 -6.36835,-2.36997 -9.60463,-3.44927c0.07814,0.14115 0.15887,0.28743 0.2446,0.43734l0.38339,0.45118c0,0 0.78087,0.97609 -0.19522,1.75695z" fill="#ffffff"/></g></g></svg>