<svg version="1.1" xmlns="http://www.w3.org/2000/svg" xmlns:xlink="http://www.w3.org/1999/xlink" width="36.41275" height="32.47859" viewBox="0,0,36.41275,32.47859"><defs><radialGradient cx="239.78571" cy="179.11429" r="17.36493" gradientUnits="userSpaceOnUse" id="color-1"><stop offset="0" stop-color="#b30000"/><stop offset="1" stop-color="#ff0000"/></radialGradient></defs><g transform="translate(-222.24253,-167.18401)"><g data-paper-data="{&quot;isPaintingLayer&quot;:true}" fill-rule="nonzero" stroke="none" stroke-width="0.5" stroke-linecap="butt" stroke-linejoin="miter" stroke-miterlimit="10" stroke-dasharray="" stroke-dashoffset="0" style="mix-blend-mode: normal"><path d="M235.64533,176.62554c0.14899,-0.50438 0.3767,-0.93463 0.6655,-1.2967c2.0603,-2.58308 7.22972,-1.6966 9.10731,0.49584c0.76317,0.89115 0.80248,4.32019 -1.06453,3.94679c-2.47911,-0.49582 -0.69834,-2.846 -3.40177,-2.82677c-0.84228,0.00599 -3.36239,1.57826 -3.82043,1.2729z" fill="#985933"/><path d="M255.14533,179.18399c1.44204,0.82402 2.17477,1.94008 2.40505,3.18478c0.67422,3.64424 -2.95858,8.39119 -5.70689,10.14012c-5.08283,3.23453 -13.87813,-0.30472 -19.11886,-2.24339c-2.03263,-0.75192 -10.60154,-3.23766 -6.63278,-7.20642c1.44067,-1.44067 2.42875,-0.75504 3.53553,0c2.59524,1.77044 8.24258,5.09674 11.6608,5.12491c0.38213,0.00315 5.60547,0.2428 7.625,-0.14286c0.16979,-0.03242 3.71156,-3.85753 3.73214,-4.04815c0.12863,-1.19123 -0.69483,-2.98337 0.34546,-3.57783z" fill="#985933"/><path d="M241.91065,179.21973c1.24055,0.03791 3.19735,-0.68494 3.94331,0.80697c0.81574,1.63149 -0.83033,2.83151 -2.17182,2.87363c-1.74577,0.05482 -6.47832,-0.25582 -7.5591,-2.14718c-0.54241,-0.32012 -0.90629,-0.91057 -0.90629,-1.586c0,-1.01637 0.82393,-1.8403 1.8403,-1.8403c0.386,0 0.74423,0.11884 1.04013,0.32192c1.06911,0.44705 2.2341,1.5227 3.81347,1.57096z" fill="#d3a689"/><path d="M239.42507,183.89265l0.03509,0.03008l0.02182,0.00614zM239.21169,183.75542h-0.04762l0.15475,0.07737zM244.51218,179.3754l0.15062,-0.03012l0.12539,-0.12539v-1.94242l-0.10139,-0.40556l-0.03335,-0.05558l-0.1552,-0.24389l-0.66994,-0.66994l-0.09831,-0.06256l-0.37038,-0.15595l-0.09524,-0.07143h-2.48357l-1.37053,0.22842l-0.86386,0.24682l-0.14383,0.00479l-0.13198,0.05738l-0.25583,0.04264l-0.0525,0.03937l-0.57567,0.46054l-0.15562,0.15562l-0.07948,0.11922l0.0167,0.08348l-0.01184,0.24872l0.06039,0.24157v0.16071l0.20014,0.05003l0.56075,0.12461l0.06231,0.03115l0.06966,0.01742l0.01169,0.02045l0.24317,0.08106l0.06342,0.04036l0.07449,0.01016l0.64607,0.25843l0.78745,0.26248l0.25882,0.1647c0.14884,0.01132 0.29403,0.03567 0.43445,0.07192l0.03622,-0.00988l0.06266,0.0376c0.15815,0.04789 0.30967,0.11102 0.45286,0.18769l0.07157,0.01789l0.01883,0.03296c0.14916,0.08803 0.28838,0.19111 0.41557,0.30715l0.24407,0.09763l0.29823,0.21539l0.17084,0.00949l0.02133,0.02489h0.98765l0.10825,-0.02706l0.55675,-0.2227l0.22916,-0.03125zM256.99926,175.86176l-0.12843,0.51371l-0.08264,0.41321v2.16228l0.3075,0.61499l0.05078,0.22849l0.11697,0.20274l0.28571,1l0.01162,0.34851l0.08457,0.33829v0.71429l-0.11484,0.45934l-0.06397,0.46914l-0.28571,0.71429l-0.22992,0.31835l-0.17072,0.35364l-0.60517,0.72621l-2.04793,3.27668l-1.13095,1.83779l-0.84992,1.41653l-0.31339,0.31339l-0.2686,0.35254l-0.71429,0.57143l-0.00055,0.00025l-0.01439,0.03631l-0.58355,0.23774l-0.57282,0.26254l-0.03632,-0.01438l-0.00056,0.00023l-1,0.14286l-0.3154,-0.03263l-0.31423,0.04246l-1.28571,-0.14286l-0.05519,-0.0205l-0.05864,0.0052l-2.71429,-0.42857l-0.03397,-0.01443l-0.03684,0.0022l-2.28571,-0.42857l-0.1358,-0.06233l-0.14917,-0.00865l-2.27208,-0.71002l-2.84346,-0.85304l-0.06765,-0.04022l-0.07825,-0.00848l-2.71429,-1l-0.00615,-0.00419l-0.00739,-0.00085l-2.28571,-0.85714l-0.26441,-0.18235l-0.29949,-0.11605l-2.35272,-1.66074l-0.63467,-0.3808l-0.34028,-0.34028l-0.37348,-0.30346l-1.71429,-2.28571l-0.06716,-0.15951l-0.11823,-0.12639l-0.71429,-1.28571l-0.06065,-0.22607l-0.12566,-0.19747l-0.85714,-2.57143l-0.03082,-0.40069l-0.09747,-0.38988v-2.42857l0.07464,-0.29857v-0.30776l0.28571,-1.14286l0.04613,-0.08649l0.00752,-0.09774l0.28571,-0.85714l0.13368,-0.21007l0.06742,-0.2397l0.57143,-1l0.13634,-0.14226l0.0821,-0.17913l0.57143,-0.71429l0.20193,-0.15385l0.14978,-0.20496l0.85714,-0.71429l0.08567,-0.04136l0.06169,-0.07242l1,-0.71429l0.26396,-0.10398l0.2276,-0.16937l1.68725,-0.70302l1.25895,-0.55953l0.37879,-0.06629l0.36048,-0.13389l1.28571,-0.14286l0.13951,0.01885l0.13657,-0.03414h4.14286l0.07744,0.01936l0.0785,-0.01449l2.28571,0.14286l0.17958,0.05701l0.1883,-0.00638l1.85262,0.39699l1.30839,0.11894h1.74374l0.12315,0.03079l0.12561,-0.01838l1.42857,0.14286l0.15196,0.05455l0.16143,-0.00294l1.85714,0.42857l0.0504,0.02571l0.05656,0.00147l2.57143,0.71429l0.21153,0.11997l0.23739,0.05275l1.33556,0.66778l0.61774,0.24709l0.086,0.06211l0.10356,0.02301l0.28571,0.14286l0.04606,0.03948l0.97116,0.05395l0.06932,-0.02311l0.03306,0.02879l0.73134,0.04063l0.83853,0.97828l0.14286,0.28571l0.05156,0.232l0.10254,0.08931l0.02255,0.47362l0.10286,0.46286l-0.07543,0.11314l0.0113,0.23739l-0.14286,0.71429l-0.14295,0.30178l-0.07244,0.32597l-0.1176,0.2352l-0.08106,0.48634l-0.04063,0.09345z" fill="url(#color-1)"/><path d="M248.21429,192.29286c0.4515,0 0.84709,0.23938 1.06678,0.59814c0.15149,-0.03931 0.32804,-0.04961 0.53332,-0.01617c0.06714,-0.90017 0.38909,-1.72009 1.48991,-2.24954c0.43896,-0.21113 0.81256,0.59829 1.29242,0.68194c0.35863,0.06251 0.51713,-3.42777 0.5179,-3.61506c0.23112,-0.69321 0.1176,-1.62968 0.69337,-2.07962c0.48943,-0.38246 1.6913,-0.44824 2.34942,-0.19139c-0.06824,-0.23043 -0.12728,-0.46322 -0.16401,-0.61015c-0.21549,-0.86204 -0.51982,-1.70124 -0.71362,-2.56842l-0.10554,-0.00636c0,0 -0.69338,-1.04006 0.34668,-1.73344c1.04006,-0.69338 1.73344,0.34669 1.73344,0.34669l0.46589,0.85079c0.41584,1.88306 2.1058,5.37281 -0.43979,6.75633c-1.30961,0.71177 -2.03611,-1.92483 -1.68076,-0.49162c0.00952,2.09022 -0.71613,6.92768 -3.61377,5.06976c0.07213,0.04941 0.2698,0.19435 0.28433,0.29073c0.11937,0.79145 0.03053,1.61006 -0.10492,2.39892c-0.1836,1.06924 -0.89724,3.17155 -1.98827,3.66287c-2.78352,1.2535 -4.18014,-2.09952 -5.67389,-3.50302c-0.511,-0.48012 -1.06291,-0.92933 -1.4874,-1.48739c-0.15828,-0.20808 0.04349,-0.77278 -0.21725,-0.75362c-0.35487,0.02607 -0.34221,0.71984 -0.6837,0.81983c-1.55181,0.45437 -4.78101,-0.3788 -6.24122,-0.79207c-1.32755,-2.6857 -3.12734,1.27516 -5.76402,-0.89808c-0.47249,-0.38944 -1.18747,-4.24908 -1.56415,-4.28906c-0.70865,-0.07521 -0.94558,1.18868 -1.63166,1.38142c-0.69499,0.19523 -1.48713,0.10196 -2.15973,-0.16021c-3.31411,-1.2918 -2.66007,-7.27247 -1.87989,-9.94994c0,0 0.35918,-1.19728 1.55647,-0.8381c1.19728,0.35918 0.8381,1.55647 0.8381,1.55647c-0.17513,0.563 -0.33438,1.3154 -0.43768,2.1282c0.0778,-0.01515 0.15817,-0.02309 0.2404,-0.02309c0.49697,0 0.92622,0.29003 1.12769,0.71006l0.15803,-0.0672c0.41918,0.56687 1.60071,1.94557 1.74408,3.05102c0.35786,-0.17831 0.68119,-0.29061 0.92478,-0.24199c1.9873,0.39664 1.99257,1.67154 2.06875,2.89915c0.19793,-0.13154 0.4355,-0.20817 0.69097,-0.20817c0.15055,0 0.29489,0.02662 0.42857,0.0754c0.13368,-0.04879 0.27802,-0.0754 0.42857,-0.0754c0.69036,0 1.25,0.55964 1.25,1.25c0,0.12012 -0.01694,0.23627 -0.04856,0.34622c0.24799,-0.15855 0.45274,-0.28172 0.57404,-0.29017c2.43625,-0.16984 2.24754,0.19705 2.99379,1.67298c1.03821,0.04522 3.15336,0.61407 4.0445,0.35079c0.58654,-0.17329 1.00098,-1.00768 1.60201,-0.89446c0.77,0.14506 1.20626,1.00143 1.78275,1.53209c0.38361,0.35311 0.73859,0.69417 1.07364,1.03539c0.11,-0.26811 0.34024,-0.52732 0.79722,-0.66441c0.13703,-0.04111 0.26309,-0.06183 0.37888,-0.06629c0.20333,-0.41498 0.62988,-0.70071 1.12316,-0.70071z" fill="#ff0000"/></g></g></svg>