<svg version="1.1" xmlns="http://www.w3.org/2000/svg" xmlns:xlink="http://www.w3.org/1999/xlink" width="49.30878" height="38.99538" viewBox="0,0,49.30878,38.99538"><g transform="translate(-215.34561,-160.50231)"><g stroke="none" stroke-width="0.5" stroke-miterlimit="10"><path d="M229.77939,194.40859h-0.375l-0.29857,-0.07464h-0.30776l-0.40314,-0.10079l-0.65152,-0.10859l-0.03795,-0.0165l-0.04134,0.00197l-0.625,-0.125l-0.14277,-0.06763l-0.15751,-0.01212l-0.28391,-0.09464l-0.40685,-0.10171l-0.15174,-0.08093l-0.1704,-0.02324l-1.03689,-0.41475l-0.39993,-0.07999l-0.14277,-0.06763l-0.15751,-0.01212l-0.22025,-0.07342l-0.02709,0.00739l-0.06157,-0.03694l-0.06609,-0.02203l-0.48463,-0.3084l-0.30823,-0.18494l-0.03461,-0.01731l-0.01346,-0.01154l-0.13627,-0.08176l-0.04926,-0.04926l-0.06058,-0.03855l-0.00551,-0.02754l-0.07216,-0.07216l-0.3125,-0.1875l-0.19996,-0.19996l-0.16903,-0.11268l-0.1675,-0.18425l-0.21352,-0.12811l-0.25,-0.25l-0.23252,-0.38753l-0.00319,-0.0035l0.00011,-0.00162l-0.01816,-0.03027l-0.16598,-0.09485l-0.07791,-0.31164l-0.16527,-0.27545l0.0503,-0.18443l-0.11962,-0.47848v-0.71188l-0.01558,-0.02336l0.01558,-0.07009v-0.06966l0.13932,-0.55728l0.06824,-0.30708l-0.01324,-0.04855l0.03816,-0.06361l0.03145,-0.14152l0.03115,-0.06231l0.01742,-0.06966l0.02438,-0.01393l0.05205,-0.1041l0.26154,-0.30513l0.20676,-0.34461l0.25,-0.25l0.10891,-0.06535l0.01132,-0.0132l0.01178,-0.00065l0.29092,-0.17455l0.09485,-0.16598l0.31164,-0.07791l0.27545,-0.16527l0.11912,0.03249l0.21037,-0.10518l0.16026,-0.09616l0.30513,-0.26154l0.02026,-0.01013l0.00146,-0.02635l0.12975,-0.11122l0.02906,-0.11624l0.0625,-0.03571v-0.58929l0.09747,-0.38988l0.02753,-0.3579v-1.09653l-0.12171,-0.36512l-0.025,-0.325l-0.04382,-0.13145l-0.17054,-0.34109l-0.03903,-0.17566l-0.09661,-0.15181l-0.0608,-0.18239l-0.14762,-0.22143l-0.11231,-0.31447l-0.17927,-0.28172l-0.06882,-0.20645l-0.09759,-0.19519l-0.02438,-0.01393l-0.01742,-0.06966l-0.03115,-0.06231l-0.1244,-0.5598l-0.01124,-0.01766l-0.0527,-0.15809l-0.0131,-0.00748l-0.01742,-0.06966l-0.03115,-0.06231l-0.12461,-0.56075l-0.01799,-0.07195l-0.13609,0.03024l-0.707,-0.47133l-0.83321,-0.16664l-0.42976,-0.67534l-0.12635,-0.08423l0.00584,-0.10514l-0.14148,-0.22233l-0.125,-0.375l-0.03082,-0.40069l-0.09747,-0.38988v-1l0.07464,-0.29857v-0.30776l0.125,-0.5l0.60634,-1.13689l0.37549,-0.10561l0.19352,-0.33867l0.6917,-0.17292l0.01773,-0.01128l0.375,-0.125l0.40069,-0.03082l0.38988,-0.09747h2.625l0.47112,0.11778l0.17254,-0.04314h0.30776l0.29857,-0.07464h0.06724l0.20143,-0.05036h0.30776l0.29857,-0.07464h1.83688l0.02336,-0.01558l0.07009,0.01558h0.06966l0.55728,0.13932l0.56075,0.12461l0.06231,0.03115l0.06966,0.01742l0.01393,0.02438l0.16641,0.0832l0.31966,0.07992h0.56966l0.11296,-0.0251l0.15181,-0.09661l0.43239,-0.14413l0.0387,-0.0258l1.30235,-0.97676l0.12437,-0.12437l0.34461,-0.20676l0.30513,-0.26154l0.00464,-0.00232l0.00232,-0.00464l0.26154,-0.30513l0.20676,-0.34461l1.375,-1.375l0.3125,-0.1875l0.1875,-0.1875l0.13627,-0.08176l0.01346,-0.01154l0.03461,-0.01731l0.16026,-0.09616l0.26984,-0.23129l-0.09668,-0.16918l0.29715,-0.52002l-0.03322,-0.59801l0.60568,-0.40379l0.38039,-0.66568l0.98901,-0.24725l0.12124,-0.08082l0.10697,0.02377l0.03278,-0.0082h1.125l0.45934,0.11484l0.46914,0.06397l1.09247,0.43699l0.3354,0.08385l0.05097,0.02718l0.14997,0.03749l0.56075,0.12461l0.06231,0.03115l0.20954,0.05238l0.40069,0.03082l0.675,0.225l0.325,0.025l0.28391,0.09464l0.40685,0.10171l0.15174,0.08093l0.1704,0.02324l0.17798,0.07119h0.01854l0.09758,0.0244l0.07576,-0.03788l0.53033,0.1894l0.54632,0.13658l0.02596,0.04544l0.26461,0.02035l0.375,0.125l0.15181,0.09661l0.17566,0.03903l0.09109,0.04554l0.20645,0.06882l0.15181,0.09661l0.17566,0.03903l0.25454,0.12727l0.23376,0.05844l0.24293,0.12956l0.26876,0.05973l0.59109,0.29554l0.58145,0.19382l0.15181,0.09661l0.17566,0.03903l0.5,0.25l0.30513,0.26154l0.34461,0.20676l0.02019,0.02019l0.00262,0.00087l0.15181,0.09661l0.17566,0.03903l0.5,0.25l0.97828,0.83853l0.00548,0.09857l0.08571,0.04898l0.3125,1.25v1l-0.09747,0.38988l-0.01826,0.23744l0.38061,0.09515l0.3579,0.02753h0.0891l0.02336,-0.01558l0.07009,0.01558h0.06966l0.55728,0.13932l0.39618,0.08804l0.33711,0.02593l0.375,0.125l0.15181,0.09661l0.17566,0.03903l0.5,0.25l0.37447,0.32097l0.18746,0.03749l0.17246,0.27101l0.24389,0.20905l0.0106,0.19087l0.26479,0.4161l0.06882,0.20645l0.22259,0.44519l0.02438,0.01393l0.01742,0.06966l0.03115,0.06231l0.12461,0.56075l0.10863,0.4345l0.0274,0.08221l0.00304,0.03958l0.00025,0.00099v0.00222l0.00793,0.10314l0.00764,0.03439l-0.00448,0.00672l0.01154,0.15006l0.08783,0.39523l0.01124,0.01766l0.125,0.375l0.03082,0.40069l0.09747,0.38988v0.5l0.125,0.5v0.06966l0.01558,0.07009l-0.01558,0.02336v1.83688l-0.09747,0.38988l-0.02753,0.3579v0.00222l-0.00025,0.00099l-0.00304,0.03958l-0.0274,0.08221l-0.04395,0.1758v0.30776l-0.05036,0.20143v0.31724l-0.09747,0.38988l-0.02753,0.3579v0.00222l-0.00025,0.00099l-0.00304,0.03958l-0.0274,0.08221l-0.06678,0.2671l-0.02753,0.3579v0.0891l0.01558,0.02336l-0.01558,0.07009v0.06966l-0.125,0.5v0.5l-0.07464,0.29857v0.30776l-0.05036,0.20143v0.44224l-0.09747,0.38988l-0.03082,0.40069l-0.1,0.3l-0.01923,0.25002l0.0131,0.01965l-0.01558,0.07009v0.06966l-0.13932,0.55728l-0.12461,0.56075l-0.03115,0.06231l-0.05238,0.20954l-0.03082,0.40069l-0.125,0.375l-0.17927,0.28172l-0.04001,0.11203l0.02825,0.1036l-0.16527,0.27545l-0.07791,0.31164l-0.16598,0.09485l-0.00278,0.00464l-0.02203,0.06609l-0.12759,0.20051l0.00936,0.13566l-0.31895,0.35084l-0.25456,0.40002l-0.13334,0.02667l-0.15987,0.17586l-0.31726,0.21151l-0.44449,0.33337l-0.06547,0.02757l-0.04778,0.05256l-0.75,0.5l-0.09473,0.03383l-0.04202,0.07354l-0.54632,0.13658l-0.04084,0.01458l-0.14891,0.07445l-0.01393,0.02438l-0.06966,0.01742l-0.06231,0.03115l-0.56075,0.12461l-0.55728,0.13932h-0.06966l-0.07009,0.01558l-0.02336,-0.01558h-0.05619l-0.36512,0.12171l-0.09774,0.00752l-0.08649,0.04613l-0.5,0.125h-0.30776l-0.29857,0.07464h-0.50245l-0.38226,0.07645l-0.1105,-0.00526l-0.10371,0.03852l-1.125,0.125l-0.13951,-0.01885l-0.13657,0.03414h-2.48654l-0.98738,0.10971l-0.13951,-0.01885l-0.13657,0.03414h-4.375l-0.15326,-0.03831l-0.15683,0.01901l-1,-0.125l-0.02103,-0.00814l-0.02243,0.00232l-0.69912,-0.09987h-1.44733l-0.17457,-0.04364l-0.17899,0.01852l-0.69912,-0.09987h-2.07233l-0.29857,-0.07464h-0.30776l-0.20143,-0.05036h-0.90412l-0.02336,0.01558l-0.07009,-0.01558h-0.06966l-0.55728,-0.13932l-0.49806,-0.11068h-0.19466l-0.4881,-0.12202l-0.4967,-0.08011l-0.24675,-0.10575l-0.01845,-0.00461l-0.00249,-0.00436l-0.6073,-0.26027l-0.05985,-0.04549l-0.07338,-0.01631l-0.43731,-0.21865l-0.10575,-0.02644c-0.07051,0.00597 -0.14185,0.00902 -0.21391,0.00902z" fill="#b37046"/><path d="M262.15439,181.40859c0.63268,0.36153 1.50434,0.48569 1.99291,0.99036c0.07451,0.07697 0.14011,0.16278 0.19459,0.25964c0.02488,0.04422 0.04689,0.09995 0.06612,0.16645c0.1579,0.32781 0.24638,0.69535 0.24638,1.08355c0,0.32176 -0.06079,0.62933 -0.17151,0.91184c-0.22434,3.84739 -1.75643,11.30988 -3.58527,12.40717c-5.76504,3.45902 -23.42274,2.15921 -29.39265,1.30598c-2.90376,-0.41501 -8.02063,-0.66118 -9.08664,-4.13196c-0.45335,-1.47607 -0.88306,-3.38023 1.32049,-4.11474c0.87823,-0.29274 3.86989,2.80723 5.97333,2.9967c5.4386,0.4899 11.06186,0.96116 16.56968,0.875c0.63955,-0.01001 10.96749,-0.60563 11.20505,-0.87106c1.49773,-1.67348 1.99008,-6.27078 2.1675,-8.1867c0.03823,-0.41281 -0.16231,-2.17092 0.34546,-2.46107z" fill="#985933"/><path d="M262.34899,174.66888c-3.70974,2.89701 -11.01566,0.4084 -14.19459,1.98971c-0.68238,0.33944 2.12061,9.06907 -2.125,7.875c-4.07514,-1.14613 -4.18807,-9.55427 -1.64754,-12.22132c1.53226,-1.60856 11.68873,-0.48774 15.62251,-2.06125l0.11201,-0.056c0.34741,-0.18291 0.74312,-0.28643 1.16302,-0.28643c1.38071,0 2.5,1.11929 2.5,2.5c0,1.38071 -1.11929,2.5 -2.5,2.5c-1.38071,0 -2.5,-1.11929 -2.5,-2.5c0,-0.96082 0.54202,-1.79504 1.33698,-2.21357c2.89781,-0.71366 4.68321,2.56015 2.23261,4.47386z" fill="#d3a689"/><path d="M251.27939,162.90859c2.93023,0.43062 3.06006,3.98166 0.44488,4.96054c-2.75031,1.02946 -6.78588,-1.22848 -9.51709,-1.75086c-0.95485,-0.18263 -2.3668,-1.35576 -2.86911,-0.52343c-1.12494,1.86405 -5.36441,11.20802 -7.69925,4.20351c-0.35565,-1.06696 1.50634,-3.23135 1.95074,-4.06172c0.55321,-1.03368 1.05775,-2.24173 1.76929,-3.17849c4.01744,-5.28913 10.3401,1.41705 15.37964,0.40914c0.17418,-0.03842 0.35518,-0.05868 0.54091,-0.05868c1.38071,0 2.5,1.11929 2.5,2.5c0,1.38071 -1.11929,2.5 -2.5,2.5c-1.38071,0 -2.5,-1.11929 -2.5,-2.5c0,-1.19498 0.83841,-2.19414 1.95909,-2.44132z" fill="#d3a689"/><path d="M226.15439,172.90859c-1.13314,0.07327 -2.58154,-0.77446 -3.4065,0.00581c-1.35829,1.28471 4.88935,6.99366 4.01756,8.73723c-1.39838,2.79676 -4.4374,0.78999 -5.73607,-0.61804c-2.42404,-2.62816 -4.25233,-7.77648 -3.1875,-11.25c0.70855,-2.31134 7.09467,-1.94969 8.3125,-1.875c0.06247,0.00383 0.12852,0.00585 0.19652,0.00761c1.28886,0.10022 2.30348,1.17782 2.30348,2.49239c0,0.91226 -0.48862,1.7104 -1.21843,2.14697c-0.16612,0.12769 -0.37735,0.21833 -0.6723,0.27826c-0.17205,0.03495 -0.37258,0.05946 -0.60927,0.07476z" fill="#d3a689"/><path d="M221.22939,188.72734c-0.09886,0.56072 1.22004,1.40313 1.175,2.05625c-0.20072,2.91041 -3.4452,2.85246 -5.125,1.375c-2.34655,-2.06391 -2.71187,-4.34017 -0.23847,-6.48534c0.21085,-0.18286 2.73242,-2.49735 3.38348,-2.23964c0.11596,-0.01648 0.23448,-0.02501 0.35499,-0.02501c1.38071,0 2.5,1.11929 2.5,2.5c0,0.48548 -0.13838,0.93865 -0.37786,1.32219c-0.30371,0.48643 -0.77001,0.86089 -1.32283,1.0473c-0.19134,0.1641 -0.32558,0.31462 -0.34931,0.44925z" fill="#d3a689"/><path d="M241.40439,184.78359c-0.96491,1.68859 -2.04389,2.25143 -3.07921,2.43256c-1.5519,0.27151 -3.00571,-0.31463 -3.83024,0.74745c-0.51303,0.66083 3.51428,2.29639 0.1712,4.52511c-2.9596,1.97307 -9.6983,-6.33952 -6.19171,-8.95773c1.52539,-1.13894 4.20041,-0.33207 5.94427,-0.59677c0.55088,-0.08362 5.15216,-1.35931 5.75453,-0.30517z" fill="#d3a689"/><path d="M220.90439,173.53359c0,-0.69036 0.55964,-1.25 1.25,-1.25c0.69036,0 1.25,0.55964 1.25,1.25c0,0.69036 -0.55964,1.25 -1.25,1.25c-0.69036,0 -1.25,-0.55964 -1.25,-1.25z" fill="#c78359"/><path d="M233.15439,174.15859c0,-0.69036 0.55964,-1.25 1.25,-1.25c0.69036,0 1.25,0.55964 1.25,1.25c0,0.69036 -0.55964,1.25 -1.25,1.25c-0.69036,0 -1.25,-0.55964 -1.25,-1.25z" fill="#c78359"/><path d="M226.15439,172.03359c0,-0.69036 0.55964,-1.25 1.25,-1.25c0.69036,0 1.25,0.55964 1.25,1.25c0,0.69036 -0.55964,1.25 -1.25,1.25c-0.69036,0 -1.25,-0.55964 -1.25,-1.25z" fill="#c78359"/><path d="M227.40439,178.90859c0,-0.69036 0.55964,-1.25 1.25,-1.25c0.69036,0 1.25,0.55964 1.25,1.25c0,0.69036 -0.55964,1.25 -1.25,1.25c-0.69036,0 -1.25,-0.55964 -1.25,-1.25z" fill="#c78359"/><path d="M232.02939,178.78359c0,-0.69036 0.55964,-1.25 1.25,-1.25c0.69036,0 1.25,0.55964 1.25,1.25c0,0.69036 -0.55964,1.25 -1.25,1.25c-0.69036,0 -1.25,-0.55964 -1.25,-1.25z" fill="#c78359"/><path d="M224.02939,182.53359c0,-0.69036 0.55964,-1.25 1.25,-1.25c0.69036,0 1.25,0.55964 1.25,1.25c0,0.69036 -0.55964,1.25 -1.25,1.25c-0.69036,0 -1.25,-0.55964 -1.25,-1.25z" fill="#c78359"/><path d="M223.52939,177.03359c0,-0.69036 0.55964,-1.25 1.25,-1.25c0.69036,0 1.25,0.55964 1.25,1.25c0,0.69036 -0.55964,1.25 -1.25,1.25c-0.69036,0 -1.25,-0.55964 -1.25,-1.25z" fill="#c78359"/><path d="M232.02939,185.28359c0,-0.69036 0.55964,-1.25 1.25,-1.25c0.69036,0 1.25,0.55964 1.25,1.25c0,0.69036 -0.55964,1.25 -1.25,1.25c-0.69036,0 -1.25,-0.55964 -1.25,-1.25z" fill="#c78359"/><path d="M223.77939,187.40859c0,-0.69036 0.55964,-1.25 1.25,-1.25c0.69036,0 1.25,0.55964 1.25,1.25c0,0.69036 -0.55964,1.25 -1.25,1.25c-0.69036,0 -1.25,-0.55964 -1.25,-1.25z" fill="#c78359"/><path d="M229.27939,194.53359c0,-0.69036 0.55964,-1.25 1.25,-1.25c0.69036,0 1.25,0.55964 1.25,1.25c0,0.69036 -0.55964,1.25 -1.25,1.25c-0.69036,0 -1.25,-0.55964 -1.25,-1.25z" fill="#c78359"/><path d="M218.77939,191.28359c0,-0.69036 0.55964,-1.25 1.25,-1.25c0.69036,0 1.25,0.55964 1.25,1.25c0,0.69036 -0.55964,1.25 -1.25,1.25c-0.69036,0 -1.25,-0.55964 -1.25,-1.25z" fill="#c78359"/><path d="M226.02939,191.90859c0,-0.69036 0.55964,-1.25 1.25,-1.25c0.69036,0 1.25,0.55964 1.25,1.25c0,0.69036 -0.55964,1.25 -1.25,1.25c-0.69036,0 -1.25,-0.55964 -1.25,-1.25z" fill="#c78359"/><path d="M230.90439,190.03359c0,-0.69036 0.55964,-1.25 1.25,-1.25c0.69036,0 1.25,0.55964 1.25,1.25c0,0.69036 -0.55964,1.25 -1.25,1.25c-0.69036,0 -1.25,-0.55964 -1.25,-1.25z" fill="#c78359"/><path d="M239.40439,193.90859c0,-0.69036 0.55964,-1.25 1.25,-1.25c0.69036,0 1.25,0.55964 1.25,1.25c0,0.69036 -0.55964,1.25 -1.25,1.25c-0.69036,0 -1.25,-0.55964 -1.25,-1.25z" fill="#c78359"/><path d="M235.02939,195.28359c0,-0.69036 0.55964,-1.25 1.25,-1.25c0.69036,0 1.25,0.55964 1.25,1.25c0,0.69036 -0.55964,1.25 -1.25,1.25c-0.69036,0 -1.25,-0.55964 -1.25,-1.25z" fill="#c78359"/><path d="M237.02939,188.90859c0,-0.69036 0.55964,-1.25 1.25,-1.25c0.69036,0 1.25,0.55964 1.25,1.25c0,0.69036 -0.55964,1.25 -1.25,1.25c-0.69036,0 -1.25,-0.55964 -1.25,-1.25z" fill="#c78359"/><path d="M243.77939,190.65859c0,-0.69036 0.55964,-1.25 1.25,-1.25c0.69036,0 1.25,0.55964 1.25,1.25c0,0.69036 -0.55964,1.25 -1.25,1.25c-0.69036,0 -1.25,-0.55964 -1.25,-1.25z" fill="#c78359"/><path d="M243.77939,195.03359c0,-0.69036 0.55964,-1.25 1.25,-1.25c0.69036,0 1.25,0.55964 1.25,1.25c0,0.69036 -0.55964,1.25 -1.25,1.25c-0.69036,0 -1.25,-0.55964 -1.25,-1.25z" fill="#c78359"/><path d="M253.77939,193.78359c0,-0.69036 0.55964,-1.25 1.25,-1.25c0.69036,0 1.25,0.55964 1.25,1.25c0,0.69036 -0.55964,1.25 -1.25,1.25c-0.69036,0 -1.25,-0.55964 -1.25,-1.25z" fill="#c78359"/><path d="M261.15439,190.40859c0,-0.69036 0.55964,-1.25 1.25,-1.25c0.69036,0 1.25,0.55964 1.25,1.25c0,0.69036 -0.55964,1.25 -1.25,1.25c-0.69036,0 -1.25,-0.55964 -1.25,-1.25z" fill="#c78359"/><path d="M251.90439,186.28359c0,-0.69036 0.55964,-1.25 1.25,-1.25c0.69036,0 1.25,0.55964 1.25,1.25c0,0.69036 -0.55964,1.25 -1.25,1.25c-0.69036,0 -1.25,-0.55964 -1.25,-1.25z" fill="#c78359"/><path d="M249.27939,191.78359c0,-0.69036 0.55964,-1.25 1.25,-1.25c0.69036,0 1.25,0.55964 1.25,1.25c0,0.69036 -0.55964,1.25 -1.25,1.25c-0.69036,0 -1.25,-0.55964 -1.25,-1.25z" fill="#c78359"/><path d="M257.40439,188.15859c0,-0.69036 0.55964,-1.25 1.25,-1.25c0.69036,0 1.25,0.55964 1.25,1.25c0,0.69036 -0.55964,1.25 -1.25,1.25c-0.69036,0 -1.25,-0.55964 -1.25,-1.25z" fill="#c78359"/><path d="M245.02939,183.90859c0,-0.69036 0.55964,-1.25 1.25,-1.25c0.69036,0 1.25,0.55964 1.25,1.25c0,0.69036 -0.55964,1.25 -1.25,1.25c-0.69036,0 -1.25,-0.55964 -1.25,-1.25z" fill="#c78359"/><path d="M248.02939,187.90859c0,-0.69036 0.55964,-1.25 1.25,-1.25c0.69036,0 1.25,0.55964 1.25,1.25c0,0.69036 -0.55964,1.25 -1.25,1.25c-0.69036,0 -1.25,-0.55964 -1.25,-1.25z" fill="#c78359"/><path d="M239.52939,185.03359c0,-0.69036 0.55964,-1.25 1.25,-1.25c0.69036,0 1.25,0.55964 1.25,1.25c0,0.69036 -0.55964,1.25 -1.25,1.25c-0.69036,0 -1.25,-0.55964 -1.25,-1.25z" fill="#c78359"/><path d="M243.40439,180.15859c0,-0.69036 0.55964,-1.25 1.25,-1.25c0.69036,0 1.25,0.55964 1.25,1.25c0,0.69036 -0.55964,1.25 -1.25,1.25c-0.69036,0 -1.25,-0.55964 -1.25,-1.25z" fill="#c78359"/><path d="M236.90439,179.53359c0,-0.69036 0.55964,-1.25 1.25,-1.25c0.69036,0 1.25,0.55964 1.25,1.25c0,0.69036 -0.55964,1.25 -1.25,1.25c-0.69036,0 -1.25,-0.55964 -1.25,-1.25z" fill="#c78359"/><path d="M237.15439,173.28359c0,-0.69036 0.55964,-1.25 1.25,-1.25c0.69036,0 1.25,0.55964 1.25,1.25c0,0.69036 -0.55964,1.25 -1.25,1.25c-0.69036,0 -1.25,-0.55964 -1.25,-1.25z" fill="#c78359"/><path d="M240.65439,176.78359c0,-0.69036 0.55964,-1.25 1.25,-1.25c0.69036,0 1.25,0.55964 1.25,1.25c0,0.69036 -0.55964,1.25 -1.25,1.25c-0.69036,0 -1.25,-0.55964 -1.25,-1.25z" fill="#c78359"/><path d="M241.02939,166.53359c0,-0.69036 0.55964,-1.25 1.25,-1.25c0.69036,0 1.25,0.55964 1.25,1.25c0,0.69036 -0.55964,1.25 -1.25,1.25c-0.69036,0 -1.25,-0.55964 -1.25,-1.25z" fill="#c78359"/><path d="M235.02939,168.40859c0,-0.69036 0.55964,-1.25 1.25,-1.25c0.69036,0 1.25,0.55964 1.25,1.25c0,0.69036 -0.55964,1.25 -1.25,1.25c-0.69036,0 -1.25,-0.55964 -1.25,-1.25z" fill="#c78359"/><path d="M242.40439,171.40859c0,-0.69036 0.55964,-1.25 1.25,-1.25c0.69036,0 1.25,0.55964 1.25,1.25c0,0.69036 -0.55964,1.25 -1.25,1.25c-0.69036,0 -1.25,-0.55964 -1.25,-1.25z" fill="#c78359"/><path d="M246.77939,165.78359c0,-0.69036 0.55964,-1.25 1.25,-1.25c0.69036,0 1.25,0.55964 1.25,1.25c0,0.69036 -0.55964,1.25 -1.25,1.25c-0.69036,0 -1.25,-0.55964 -1.25,-1.25z" fill="#c78359"/><path d="M236.65439,162.65859c0,-0.69036 0.55964,-1.25 1.25,-1.25c0.69036,0 1.25,0.55964 1.25,1.25c0,0.69036 -0.55964,1.25 -1.25,1.25c-0.69036,0 -1.25,-0.55964 -1.25,-1.25z" fill="#c78359"/><path d="M247.15439,169.40859c0,-0.69036 0.55964,-1.25 1.25,-1.25c0.69036,0 1.25,0.55964 1.25,1.25c0,0.69036 -0.55964,1.25 -1.25,1.25c-0.69036,0 -1.25,-0.55964 -1.25,-1.25z" fill="#c78359"/><path d="M252.27939,171.90859c0,-0.69036 0.55964,-1.25 1.25,-1.25c0.69036,0 1.25,0.55964 1.25,1.25c0,0.69036 -0.55964,1.25 -1.25,1.25c-0.69036,0 -1.25,-0.55964 -1.25,-1.25z" fill="#c78359"/><path d="M247.40439,175.53359c0,-0.69036 0.55964,-1.25 1.25,-1.25c0.69036,0 1.25,0.55964 1.25,1.25c0,0.69036 -0.55964,1.25 -1.25,1.25c-0.69036,0 -1.25,-0.55964 -1.25,-1.25z" fill="#c78359"/><path d="M250.52939,181.53359c0,-0.69036 0.55964,-1.25 1.25,-1.25c0.69036,0 1.25,0.55964 1.25,1.25c0,0.69036 -0.55964,1.25 -1.25,1.25c-0.69036,0 -1.25,-0.55964 -1.25,-1.25z" fill="#c78359"/><path d="M255.90439,176.40859c0,-0.69036 0.55964,-1.25 1.25,-1.25c0.69036,0 1.25,0.55964 1.25,1.25c0,0.69036 -0.55964,1.25 -1.25,1.25c-0.69036,0 -1.25,-0.55964 -1.25,-1.25z" fill="#c78359"/><path d="M256.02939,181.40859c0,-0.69036 0.55964,-1.25 1.25,-1.25c0.69036,0 1.25,0.55964 1.25,1.25c0,0.69036 -0.55964,1.25 -1.25,1.25c-0.69036,0 -1.25,-0.55964 -1.25,-1.25z" fill="#c78359"/></g></g></svg>