<svg version="1.1" xmlns="http://www.w3.org/2000/svg" xmlns:xlink="http://www.w3.org/1999/xlink" width="43.14091" height="39.44584" viewBox="0,0,43.14091,39.44584"><g transform="translate(-218.51051,-160.19294)"><g data-paper-data="{&quot;isPaintingLayer&quot;:true}" fill-rule="nonzero" stroke="none" stroke-width="0.5" stroke-linecap="butt" stroke-linejoin="miter" stroke-miterlimit="10" stroke-dasharray="" stroke-dashoffset="0" style="mix-blend-mode: normal"><path d="M239.42506,183.89265l0.03509,0.03008l0.02182,0.00614zM239.21168,183.75542h-0.04762l0.15475,0.07737zM244.51217,179.3754l0.15062,-0.03012l0.12539,-0.12539v-1.94242l-0.10139,-0.40556l-0.03335,-0.05558l-0.1552,-0.24389l-0.66994,-0.66994l-0.09831,-0.06256l-0.37038,-0.15595l-0.09524,-0.07143h-2.48357l-1.37053,0.22842l-0.86386,0.24682l-0.14383,0.00479l-0.13198,0.05738l-0.25583,0.04264l-0.0525,0.03937l-0.57567,0.46054l-0.15562,0.15562l-0.07948,0.11922l0.0167,0.08348l-0.01184,0.24872l0.06039,0.24157v0.16071l0.20014,0.05003l0.56075,0.12461l0.06231,0.03115l0.06966,0.01742l0.01169,0.02045l0.24317,0.08106l0.06342,0.04036l0.07449,0.01016l0.64607,0.25843l0.78745,0.26248l0.25882,0.1647c0.14884,0.01132 0.29403,0.03567 0.43445,0.07192l0.03622,-0.00988l0.06266,0.0376c0.15815,0.04789 0.30967,0.11102 0.45286,0.18769l0.07157,0.01789l0.01883,0.03296c0.14916,0.08803 0.28838,0.19111 0.41557,0.30715l0.24407,0.09763l0.29823,0.21539l0.17084,0.00949l0.02133,0.02489h0.98765l0.10825,-0.02706l0.55675,-0.2227l0.22916,-0.03125zM256.99924,175.86176l-0.12843,0.51371l-0.08264,0.41321v2.16228l0.3075,0.61499l0.05078,0.22849l0.11697,0.20274l0.28571,1l0.01162,0.34851l0.08457,0.33829v0.71429l-0.11484,0.45934l-0.06397,0.46914l-0.28571,0.71429l-0.22992,0.31835l-0.17072,0.35364l-0.60517,0.72621l-2.04793,3.27668l-1.13095,1.83779l-0.84992,1.41653l-0.31339,0.31339l-0.2686,0.35254l-0.71429,0.57143l-0.00055,0.00025l-0.01439,0.03631l-0.58355,0.23774l-0.57282,0.26254l-0.03632,-0.01438l-0.00056,0.00023l-1,0.14286l-0.3154,-0.03263l-0.31423,0.04246l-1.28571,-0.14286l-0.05519,-0.0205l-0.05864,0.0052l-2.71429,-0.42857l-0.03397,-0.01443l-0.03684,0.0022l-2.28571,-0.42857l-0.1358,-0.06233l-0.14917,-0.00865l-2.27208,-0.71002l-2.84346,-0.85304l-0.06765,-0.04022l-0.07825,-0.00848l-2.71429,-1l-0.00615,-0.00419l-0.00739,-0.00085l-2.28571,-0.85714l-0.26441,-0.18235l-0.29949,-0.11605l-2.35272,-1.66074l-0.63467,-0.3808l-0.34028,-0.34028l-0.37348,-0.30346l-1.71429,-2.28571l-0.06716,-0.15951l-0.11823,-0.12639l-0.71429,-1.28571l-0.06065,-0.22607l-0.12566,-0.19747l-0.85714,-2.57143l-0.03082,-0.40069l-0.09747,-0.38988v-2.42857l0.07464,-0.29857v-0.30776l0.28571,-1.14286l0.04613,-0.08649l0.00752,-0.09774l0.28571,-0.85714l0.13368,-0.21007l0.06742,-0.2397l0.57143,-1l0.13634,-0.14226l0.0821,-0.17913l0.57143,-0.71429l0.20193,-0.15385l0.14978,-0.20496l0.85714,-0.71429l0.08567,-0.04136l0.06169,-0.07242l1,-0.71429l0.26396,-0.10398l0.2276,-0.16937l1.68725,-0.70302l1.25895,-0.55953l0.37879,-0.06629l0.36048,-0.13389l1.28571,-0.14286l0.13951,0.01885l0.13657,-0.03414h4.14286l0.07744,0.01936l0.0785,-0.01449l2.28571,0.14286l0.17958,0.05701l0.1883,-0.00638l1.85262,0.39699l1.30839,0.11894h1.74374l0.12315,0.03079l0.12561,-0.01838l1.42857,0.14286l0.15196,0.05455l0.16143,-0.00294l1.85714,0.42857l0.0504,0.02571l0.05656,0.00147l2.57143,0.71429l0.21153,0.11997l0.23739,0.05275l1.33556,0.66778l0.61774,0.24709l0.086,0.06211l0.10356,0.02301l0.28571,0.14286l0.04606,0.03948l0.97116,0.05395l0.06932,-0.02311l0.03306,0.02879l0.73134,0.04063l0.83853,0.97828l0.14286,0.28571l0.05156,0.232l0.10254,0.08931l0.02255,0.47362l0.10286,0.46286l-0.07543,0.11314l0.0113,0.23739l-0.14286,0.71429l-0.14295,0.30178l-0.07244,0.32597l-0.1176,0.2352l-0.08106,0.48634l-0.04063,0.09345z" fill="#1f9e00"/><path d="M235.64532,176.62554c0.14899,-0.50438 0.3767,-0.93463 0.6655,-1.2967c2.0603,-2.58308 7.22972,-1.6966 9.10731,0.49584c0.76317,0.89115 0.80248,4.32019 -1.06453,3.94679c-2.47911,-0.49582 -0.69834,-2.846 -3.40177,-2.82677c-0.84228,0.00599 -3.36239,1.57826 -3.82043,1.2729z" fill="#156700"/><path d="M255.14532,179.18399c1.44204,0.82402 2.17477,1.94008 2.40505,3.18478c0.67422,3.64424 -2.95858,8.39119 -5.70689,10.14012c-5.08283,3.23453 -13.87813,-0.30472 -19.11886,-2.24339c-2.03263,-0.75192 -10.60154,-3.23766 -6.63278,-7.20642c1.44067,-1.44067 2.42875,-0.75504 3.53553,0c2.59524,1.77044 8.24258,5.09674 11.6608,5.12491c0.38213,0.00315 5.60547,0.2428 7.625,-0.14286c0.16979,-0.03242 3.71156,-3.85753 3.73214,-4.04815c0.12863,-1.19123 -0.69483,-2.98337 0.34546,-3.57783z" fill="#156700"/><path d="M255.82858,171.30197c0.1591,0.18561 0.30524,0.36573 0.43674,0.54107c0.49706,0.45693 0.80857,1.11257 0.80857,1.84096c0,1.38071 -1.11929,2.5 -2.5,2.5c-0.26357,0 -0.51761,-0.04079 -0.75616,-0.11639c-0.21516,-0.06819 -0.41771,-0.16471 -0.60328,-0.28518c-1.76299,-0.50925 -4.09003,-1.5292 -5.87476,-2.30317c-4.29364,-1.86199 -10.4239,-2.58792 -15.15172,-2.29526c-4.44241,0.27499 -4.18076,7.21846 -5.14087,8.17857c-1.75336,1.75336 -4.47319,1.46869 -4.6875,-1.25c-0.34734,-4.40624 3.76645,-11.60325 8.78571,-11.92857c6.77777,-0.4393 12.66963,1.3631 18.75935,3.04147c1.99157,0.54889 4.21636,0.71271 5.79938,2.06959z" fill="#24b400"/><path d="M241.91064,179.21973c1.24055,0.03791 3.19735,-0.68494 3.94331,0.80697c0.81574,1.63149 -0.83033,2.83151 -2.17182,2.87363c-1.74577,0.05482 -6.47832,-0.25582 -7.5591,-2.14718c-0.54241,-0.32012 -0.90629,-0.91057 -0.90629,-1.586c0,-1.01637 0.82393,-1.8403 1.8403,-1.8403c0.386,0 0.74423,0.11884 1.04013,0.32192c1.06911,0.44705 2.2341,1.5227 3.81347,1.57096z" fill="#24b400"/><path d="M218.51591,172.92966c-0.21631,-3.89359 6.12752,-2.17268 7.1855,-0.32121c0.73685,0.43488 1.23117,1.23698 1.23117,2.15454c0,1.38071 -1.11929,2.5 -2.5,2.5c-0.43634,0 -0.84657,-0.11178 -1.20361,-0.30828c-2.29249,-0.02885 -4.58927,-1.79684 -4.71306,-4.02506z" fill="#000000"/><path d="M232.28586,168.19467c-2.8077,-0.905 -2.40725,-11.92315 3.00089,-6.51501c0.60802,0.60802 0.42321,2.68962 0.75526,3.4644c0.1438,0.31554 0.22391,0.66621 0.22391,1.0356c0,0.27899 -0.0457,0.5473 -0.13002,0.79786c-0.08973,0.28847 -0.22142,0.52721 -0.38521,0.72244c-0.78165,0.93167 -2.29424,0.87203 -3.46483,0.49471z" fill="#000000"/><path d="M245.4196,164.03212c1.89518,-2.52691 6.43037,0.2955 4.35929,2.71175c-0.98127,1.14482 -1.55552,2.29391 -2.09719,3.70226c0.00058,0.02222 0.00088,0.0445 0.00088,0.06686c0,1.38071 -1.11929,2.5 -2.5,2.5c-0.22987,0 -0.45249,-0.03102 -0.66391,-0.08911c-1.15322,0.42925 -1.61913,-0.26612 -1.64735,-1.45625c-0.12163,-0.29414 -0.18873,-0.61655 -0.18873,-0.95464c0,-0.59316 0.20658,-1.13807 0.55171,-1.56672c0.46952,-1.80509 1.32784,-3.77086 2.18531,-4.91416z" fill="#000000"/><path d="M251.26591,175.34633c0.50827,-1.03377 1.64151,-1.87756 2.98041,-2.45389c3.33547,-1.43574 7.9473,-1.21155 7.35292,1.87055c-0.43703,2.26617 -8.07931,3.87304 -8.82484,2.879z" fill="#000000"/><path d="M256.89053,184.95884c2.0969,1.80487 5.42508,3.98236 3.47648,6.90526c-1.53786,2.3068 -5.79815,-1.75037 -7.61606,-3.86224c-0.34852,-0.26588 -0.62507,-0.62129 -0.79535,-1.03191c-0.12223,-0.29476 -0.18969,-0.61798 -0.18969,-0.95695c0,-1.38071 1.11929,-2.5 2.5,-2.5c0.59849,-0.50843 2.38569,1.24018 2.62462,1.44584z" fill="#000000"/><path d="M249.84924,197.263c-0.42521,2.60797 -2.80171,3.13579 -4.6875,1.25c-0.71441,-0.71441 -0.82627,-4.39224 -0.88952,-5.40435c-0.00418,-0.05912 -0.00631,-0.1188 -0.00631,-0.17898c0,-0.48406 0.13758,-0.936 0.37576,-1.31883c0.72362,-1.92874 1.77624,-1.96699 2.74995,-1.10223c1.07791,0.27777 1.87429,1.25641 1.87429,2.42106c0,0.16477 -0.01594,0.32582 -0.04636,0.48169c0.52242,1.33112 0.8033,2.78685 0.6297,3.85164z" fill="#000000"/><path d="M239.85792,189.36357c0.20187,2.4123 -3.41528,9.30834 -6.27726,7.76728c-2.19866,-1.18389 0.93847,-9.45185 2.33258,-9.5812c0.40634,-0.28562 0.90159,-0.45331 1.436,-0.45331c1.19543,0 2.19489,0.83904 2.4416,1.96035c0.03493,0.09608 0.05797,0.19804 0.06708,0.30689z" fill="#000000"/><path d="M222.09924,190.11716c-3.07581,-2.44255 3.84748,-8.69567 5.1445,-8.23245c0.14247,-0.02523 0.28912,-0.03839 0.43883,-0.03839c1.38071,0 2.5,1.11929 2.5,2.5c0.11794,0.16506 0.0098,0.38171 -0.07076,0.59304c-0.01797,0.07388 -0.03923,0.14647 -0.0636,0.21762c-0.24283,1.61611 -5.76112,6.69758 -7.94897,4.96017z" fill="#000000"/></g></g></svg>