<svg version="1.1" xmlns="http://www.w3.org/2000/svg" xmlns:xlink="http://www.w3.org/1999/xlink" width="35.3218" height="27.76596" viewBox="0,0,35.3218,27.76596"><g transform="translate(-222.3391,-166.11702)"><g data-paper-data="{&quot;isPaintingLayer&quot;:true}" fill-rule="nonzero" stroke="none" stroke-width="0.5" stroke-linecap="butt" stroke-linejoin="miter" stroke-miterlimit="10" stroke-dasharray="" stroke-dashoffset="0" style="mix-blend-mode: normal"><path d="M239.42506,183.89265l0.03509,0.03008l0.02182,0.00614zM239.21168,183.75542h-0.04762l0.15475,0.07737zM244.51217,179.3754l0.15062,-0.03012l0.12539,-0.12539v-1.94242l-0.10139,-0.40556l-0.03335,-0.05558l-0.1552,-0.24389l-0.66994,-0.66994l-0.09831,-0.06256l-0.37038,-0.15595l-0.09524,-0.07143h-2.48357l-1.37053,0.22842l-0.86386,0.24682l-0.14383,0.00479l-0.13198,0.05738l-0.25583,0.04264l-0.0525,0.03937l-0.57567,0.46054l-0.15562,0.15562l-0.07948,0.11922l0.0167,0.08348l-0.01184,0.24872l0.06039,0.24157v0.16071l0.20014,0.05003l0.56075,0.12461l0.06231,0.03115l0.06966,0.01742l0.01169,0.02045l0.24317,0.08106l0.06342,0.04036l0.07449,0.01016l0.64607,0.25843l0.78745,0.26248l0.25882,0.1647c0.14884,0.01132 0.29403,0.03567 0.43445,0.07192l0.03622,-0.00988l0.06266,0.0376c0.15815,0.04789 0.30967,0.11102 0.45286,0.18769l0.07157,0.01789l0.01883,0.03296c0.14916,0.08803 0.28838,0.19111 0.41557,0.30715l0.24407,0.09763l0.29823,0.21539l0.17084,0.00949l0.02133,0.02489h0.98765l0.10825,-0.02706l0.55675,-0.2227l0.22916,-0.03125zM256.99925,175.86176l-0.12843,0.51371l-0.08264,0.41321v2.16228l0.3075,0.61499l0.05078,0.22849l0.11697,0.20274l0.28571,1l0.01162,0.34851l0.08457,0.33829v0.71429l-0.11484,0.45934l-0.06397,0.46914l-0.28571,0.71429l-0.22992,0.31835l-0.17072,0.35364l-0.60517,0.72621l-2.04793,3.27668l-1.13095,1.83779l-0.84992,1.41653l-0.31339,0.31339l-0.2686,0.35254l-0.71429,0.57143l-0.00055,0.00025l-0.01439,0.03631l-0.58355,0.23774l-0.57282,0.26254l-0.03632,-0.01438l-0.00056,0.00023l-1,0.14286l-0.3154,-0.03263l-0.31423,0.04246l-1.28571,-0.14286l-0.05519,-0.0205l-0.05864,0.0052l-2.71429,-0.42857l-0.03397,-0.01443l-0.03684,0.0022l-2.28571,-0.42857l-0.1358,-0.06233l-0.14917,-0.00865l-2.27208,-0.71002l-2.84346,-0.85304l-0.06765,-0.04022l-0.07825,-0.00848l-2.71429,-1l-0.00615,-0.00419l-0.00739,-0.00085l-2.28571,-0.85714l-0.26441,-0.18235l-0.29949,-0.11605l-2.35272,-1.66074l-0.63467,-0.3808l-0.34028,-0.34028l-0.37348,-0.30346l-1.71429,-2.28571l-0.06716,-0.15951l-0.11823,-0.12639l-0.71429,-1.28571l-0.06065,-0.22607l-0.12566,-0.19747l-0.85714,-2.57143l-0.03082,-0.40069l-0.09747,-0.38988v-2.42857l0.07464,-0.29857v-0.30776l0.28571,-1.14286l0.04613,-0.08649l0.00752,-0.09774l0.28571,-0.85714l0.13368,-0.21007l0.06742,-0.2397l0.57143,-1l0.13634,-0.14226l0.0821,-0.17913l0.57143,-0.71429l0.20193,-0.15385l0.14978,-0.20496l0.85714,-0.71429l0.08567,-0.04136l0.06169,-0.07242l1,-0.71429l0.26396,-0.10398l0.2276,-0.16937l1.68725,-0.70302l1.25895,-0.55953l0.37879,-0.06629l0.36048,-0.13389l1.28571,-0.14286l0.13951,0.01885l0.13657,-0.03414h4.14286l0.07744,0.01936l0.0785,-0.01449l2.28571,0.14286l0.17958,0.05701l0.1883,-0.00638l1.85262,0.39699l1.30839,0.11894h1.74374l0.12315,0.03079l0.12561,-0.01838l1.42857,0.14286l0.15196,0.05455l0.16143,-0.00294l1.85714,0.42857l0.0504,0.02571l0.05656,0.00147l2.57143,0.71429l0.21153,0.11997l0.23739,0.05275l1.33556,0.66778l0.61774,0.24709l0.086,0.06211l0.10356,0.02301l0.28571,0.14286l0.04606,0.03948l0.97116,0.05395l0.06932,-0.02311l0.03306,0.02879l0.73134,0.04063l0.83853,0.97828l0.14286,0.28571l0.05156,0.232l0.10254,0.08931l0.02255,0.47362l0.10286,0.46286l-0.07543,0.11314l0.0113,0.23739l-0.14286,0.71429l-0.14295,0.30178l-0.07244,0.32597l-0.1176,0.2352l-0.08106,0.48634l-0.04063,0.09345z" fill="#b37046"/><path d="M235.64532,176.62554c0.14899,-0.50438 0.3767,-0.93463 0.6655,-1.2967c2.0603,-2.58308 7.22972,-1.6966 9.10731,0.49584c0.76317,0.89115 0.80248,4.32019 -1.06453,3.94679c-2.47911,-0.49582 -0.69834,-2.846 -3.40177,-2.82677c-0.84228,0.00599 -3.36239,1.57826 -3.82043,1.2729z" fill="#985933"/><path d="M255.14532,179.18399c1.44204,0.82402 2.17477,1.94008 2.40505,3.18478c0.67422,3.64424 -2.95858,8.39119 -5.70689,10.14012c-5.08283,3.23453 -13.87813,-0.30472 -19.11886,-2.24339c-2.03263,-0.75192 -10.60154,-3.23766 -6.63278,-7.20642c1.44067,-1.44067 2.42875,-0.75504 3.53553,0c2.59524,1.77044 8.24258,5.09674 11.6608,5.12491c0.38213,0.00315 5.60547,0.2428 7.625,-0.14286c0.16979,-0.03242 3.71156,-3.85753 3.73214,-4.04815c0.12863,-1.19123 -0.69483,-2.98337 0.34546,-3.57783z" fill="#985933"/><path d="M255.82858,171.30197c0.1591,0.18561 0.30524,0.36573 0.43674,0.54107c0.49706,0.45693 0.80857,1.11257 0.80857,1.84096c0,1.38071 -1.11929,2.5 -2.5,2.5c-0.26357,0 -0.51761,-0.04079 -0.75616,-0.11639c-0.21516,-0.06819 -0.41771,-0.16471 -0.60328,-0.28518c-1.76299,-0.50925 -4.09003,-1.5292 -5.87476,-2.30317c-4.29364,-1.86199 -10.4239,-2.58792 -15.15172,-2.29526c-4.44241,0.27499 -4.18076,7.21846 -5.14087,8.17857c-1.75336,1.75336 -4.47319,1.46869 -4.6875,-1.25c-0.34734,-4.40624 3.76645,-11.60325 8.78571,-11.92857c6.77777,-0.4393 12.66963,1.3631 18.75935,3.04147c1.99157,0.54889 4.21636,0.71271 5.79938,2.06959z" fill="#d3a689"/><path d="M241.91064,179.21973c1.24055,0.03791 3.19735,-0.68494 3.94331,0.80697c0.81574,1.63149 -0.83033,2.83151 -2.17182,2.87363c-1.74577,0.05482 -6.47832,-0.25582 -7.5591,-2.14718c-0.54241,-0.32012 -0.90629,-0.91057 -0.90629,-1.586c0,-1.01637 0.82393,-1.8403 1.8403,-1.8403c0.386,0 0.74423,0.11884 1.04013,0.32192c1.06911,0.44705 2.2341,1.5227 3.81347,1.57096z" fill="#d3a689"/><path d="M239.41051,181.7728l0.02453,0.02103l0.01526,0.00429zM239.26131,181.67685h-0.0333l0.1082,0.0541zM242.96738,178.61436l0.10531,-0.02106l0.08767,-0.08767v-1.35813l-0.07089,-0.28357l-0.02332,-0.03886l-0.10851,-0.17053l-0.46842,-0.46842l-0.06874,-0.04374l-0.25897,-0.10904l-0.06659,-0.04994h-1.7365l-0.95827,0.15971l-0.60401,0.17258l-0.10057,0.00335l-0.09228,0.04012l-0.17887,0.02981l-0.03671,0.02753l-0.40251,0.32201l-0.10881,0.10881l-0.05557,0.08336l0.01168,0.05837l-0.00828,0.1739l0.04222,0.1689v0.11237l0.13994,0.03498l0.39207,0.08713l0.04357,0.02178l0.04871,0.01218l0.00817,0.0143l0.17002,0.05668l0.04434,0.02822l0.05208,0.0071l0.45173,0.18069l0.55058,0.18352l0.18097,0.11516c0.10407,0.00791 0.20558,0.02494 0.30376,0.05029l0.02532,-0.00691l0.04381,0.02629c0.11058,0.03348 0.21652,0.07762 0.31664,0.13123l0.05004,0.01251l0.01317,0.02305c0.10429,0.06155 0.20163,0.13362 0.29056,0.21476l0.17065,0.06826l0.20852,0.1506l0.11945,0.00664l0.01491,0.0174h0.69056l0.07569,-0.01892l0.38928,-0.15571l0.16023,-0.02185zM251.69828,176.15765l-0.0898,0.35918l-0.05778,0.28891v1.51185l0.215,0.43l0.03551,0.15976l0.08178,0.14175l0.19977,0.69919l0.00812,0.24368l0.05913,0.23653v0.49943l-0.0803,0.32117l-0.04473,0.32802l-0.19977,0.49943l-0.16076,0.22259l-0.11937,0.24726l-0.42313,0.50776l-1.4319,2.29104l-0.79075,1.28497l-0.59426,0.99043l-0.21912,0.21912l-0.1878,0.24649l-0.49943,0.39954l-0.00038,0.00017l-0.01006,0.02539l-0.40801,0.16623l-0.40051,0.18357l-0.02539,-0.01005l-0.00039,0.00016l-0.69919,0.09989l-0.22053,-0.02281l-0.21971,0.02969l-0.89896,-0.09989l-0.03859,-0.01433l-0.041,0.00364l-1.89782,-0.29965l-0.02375,-0.01009l-0.02576,0.00154l-1.59816,-0.29965l-0.09495,-0.04358l-0.1043,-0.00605l-1.58863,-0.49644l-1.98813,-0.59644l-0.0473,-0.02812l-0.05471,-0.00593l-1.89782,-0.69919l-0.0043,-0.00293l-0.00517,-0.00059l-1.59816,-0.59931l-0.18487,-0.1275l-0.2094,-0.08114l-1.64501,-1.16118l-0.44376,-0.26625l-0.23792,-0.23792l-0.26114,-0.21218l-1.19862,-1.59816l-0.04696,-0.11153l-0.08267,-0.08837l-0.49943,-0.89896l-0.04241,-0.15807l-0.08786,-0.13807l-0.59931,-1.79793l-0.02155,-0.28016l-0.06815,-0.2726v-1.69804l0.05219,-0.20876v-0.21518l0.19977,-0.79908l0.03225,-0.06047l0.00526,-0.06834l0.19977,-0.59931l0.09347,-0.14688l0.04714,-0.1676l0.39954,-0.69919l0.09533,-0.09947l0.0574,-0.12525l0.39954,-0.49943l0.14119,-0.10757l0.10473,-0.14331l0.59931,-0.49943l0.0599,-0.02892l0.04313,-0.05064l0.69919,-0.49943l0.18456,-0.0727l0.15914,-0.11842l1.17972,-0.49155l0.88025,-0.39122l0.26485,-0.04635l0.25205,-0.09362l0.89896,-0.09989l0.09754,0.01318l0.09549,-0.02387h2.89666l0.05415,0.01354l0.05489,-0.01013l1.59816,0.09989l0.12556,0.03986l0.13166,-0.00446l1.29534,0.27757l0.91482,0.08316h1.21921l0.08611,0.02153l0.08783,-0.01285l0.99885,0.09989l0.10625,0.03814l0.11287,-0.00206l1.2985,0.29965l0.03524,0.01798l0.03955,0.00103l1.79793,0.49943l0.1479,0.08388l0.16598,0.03688l0.93382,0.46691l0.43192,0.17276l0.06013,0.04343l0.07241,0.01609l0.19977,0.09989l0.0322,0.0276l0.67903,0.03772l0.04847,-0.01616l0.02312,0.02013l0.51135,0.02841l0.5863,0.68401l0.09989,0.19977l0.03605,0.16221l0.0717,0.06245l0.01577,0.33115l0.07192,0.32363l-0.05274,0.07911l0.0079,0.16598l-0.09989,0.49943l-0.09995,0.211l-0.05065,0.22792l-0.08223,0.16445l-0.05668,0.34005l-0.02841,0.06534z" fill="#b37046"/><path d="M236.76773,176.69168c0.10417,-0.35266 0.26339,-0.65349 0.46531,-0.90665c1.44055,-1.80607 5.05498,-1.18625 6.36778,0.34669c0.5336,0.62309 0.56109,3.02065 -0.74431,2.75957c-1.73338,-0.34667 -0.48828,-1.98991 -2.3785,-1.97646c-0.58892,0.00419 -2.35096,1.10351 -2.67122,0.89z" fill="#985933"/><path d="M250.40202,178.48053c1.00827,0.57615 1.52059,1.35649 1.6816,2.22678c0.47141,2.54803 -2.06862,5.86707 -3.99022,7.08991c-3.55389,2.26156 -9.70351,-0.21306 -13.3678,-1.56857c-1.4212,-0.52574 -7.41254,-2.26375 -4.6376,-5.03869c1.00731,-1.00731 1.69817,-0.52792 2.47202,0c1.81458,1.23788 5.76316,3.56361 8.15316,3.58331c0.26718,0.0022 3.91931,0.16976 5.33136,-0.09989c0.11872,-0.02267 2.5951,-2.69716 2.60949,-2.83044c0.08994,-0.8329 -0.48582,-2.08596 0.24154,-2.5016z" fill="#985933"/><path d="M250.87975,172.96947c0.11124,0.12978 0.21342,0.25572 0.30537,0.37831c0.34754,0.31948 0.56535,0.7779 0.56535,1.28719c0,0.96538 -0.7826,1.74799 -1.74799,1.74799c-0.18429,0 -0.36191,-0.02852 -0.5287,-0.08138c-0.15044,-0.04768 -0.29206,-0.11516 -0.42181,-0.1994c-1.23267,-0.35606 -2.85973,-1.06921 -4.1076,-1.61036c-3.00209,-1.30189 -7.28833,-1.80946 -10.594,-1.60483c-3.10611,0.19227 -2.92316,5.04711 -3.59447,5.71841c-1.22594,1.22594 -3.12763,1.0269 -3.27747,-0.87399c-0.24286,-3.08082 2.63348,-8.11293 6.14292,-8.34039c4.73898,-0.30716 8.85853,0.95307 13.11643,2.12658c1.39249,0.38378 2.94805,0.49832 4.05489,1.44705z" fill="#d3a689"/><path d="M241.14841,178.50552c0.86739,0.02651 2.23557,-0.47891 2.75714,0.56423c0.57036,1.14073 -0.58056,1.97978 -1.51852,2.00923c-1.22063,0.03833 -4.5296,-0.17887 -5.28528,-1.5013c-0.37925,-0.22383 -0.63367,-0.63667 -0.63367,-1.10892c0,-0.71064 0.57609,-1.28673 1.28673,-1.28673c0.26989,0 0.52036,0.08309 0.72725,0.22508c0.74752,0.31257 1.56207,1.06466 2.66636,1.09841z" fill="#d3a689"/><path d="M239.31689,180.94711l0.0169,0.01449l0.01051,0.00296zM239.21413,180.88103h-0.02293l0.07452,0.03726zM241.7666,178.77182l0.07253,-0.0145l0.06038,-0.06038v-0.93538l-0.04882,-0.1953l-0.01606,-0.02676l-0.07474,-0.11745l-0.32261,-0.32261l-0.04734,-0.03013l-0.17836,-0.0751l-0.04586,-0.0344h-1.19597l-0.65998,0.11l-0.41599,0.11886l-0.06926,0.00231l-0.06356,0.02763l-0.1232,0.02053l-0.02528,0.01896l-0.27722,0.22177l-0.07494,0.07494l-0.03827,0.05741l0.00804,0.0402l-0.0057,0.11977l0.02908,0.11633v0.07739l0.09638,0.02409l0.27003,0.06001l0.03001,0.015l0.03354,0.00839l0.00563,0.00985l0.1171,0.03903l0.03054,0.01944l0.03587,0.00489l0.31112,0.12445l0.3792,0.1264l0.12464,0.07931c0.07167,0.00545 0.14159,0.01718 0.20921,0.03463l0.01744,-0.00476l0.03017,0.01811c0.07616,0.02306 0.14912,0.05346 0.21808,0.09038l0.03446,0.00861l0.00907,0.01587c0.07183,0.04239 0.13887,0.09203 0.20012,0.14791l0.11753,0.04701l0.14361,0.10372l0.08227,0.00457l0.01027,0.01199h0.47561l0.05213,-0.01303l0.2681,-0.10724l0.11035,-0.01505zM247.77978,177.07982l-0.06185,0.24738l-0.0398,0.19898v1.04125l0.14808,0.29615l0.02445,0.11003l0.05633,0.09763l0.13758,0.48155l0.0056,0.16783l0.04072,0.1629v0.34397l-0.0553,0.2212l-0.0308,0.22592l-0.13758,0.34397l-0.11072,0.1533l-0.08221,0.1703l-0.29142,0.34971l-0.98619,1.57789l-0.54461,0.88499l-0.40928,0.68213l-0.15091,0.15091l-0.12934,0.16977l-0.34397,0.27517l-0.00026,0.00012l-0.00693,0.01749l-0.28101,0.11448l-0.27584,0.12643l-0.01749,-0.00692l-0.00027,0.00011l-0.48155,0.06879l-0.15188,-0.01571l-0.15132,0.02045l-0.61914,-0.06879l-0.02658,-0.00987l-0.02824,0.0025l-1.30707,-0.20638l-0.01636,-0.00695l-0.01774,0.00106l-1.10069,-0.20638l-0.06539,-0.03002l-0.07183,-0.00417l-1.09413,-0.34191l-1.36928,-0.41078l-0.03258,-0.01937l-0.03768,-0.00408l-1.30707,-0.48155l-0.00296,-0.00202l-0.00356,-0.00041l-1.10069,-0.41276l-0.12733,-0.08781l-0.14422,-0.05588l-1.13296,-0.79973l-0.30563,-0.18338l-0.16386,-0.16386l-0.17985,-0.14613l-0.82552,-1.10069l-0.03234,-0.07681l-0.05693,-0.06086l-0.34397,-0.61914l-0.02921,-0.10886l-0.06051,-0.09509l-0.41276,-1.23828l-0.01484,-0.19295l-0.04694,-0.18775v-1.16948l0.03594,-0.14378v-0.1482l0.13758,-0.55035l0.02221,-0.04165l0.00362,-0.04707l0.13758,-0.41276l0.06437,-0.10116l0.03247,-0.11543l0.27517,-0.48155l0.06565,-0.06851l0.03954,-0.08626l0.27517,-0.34397l0.09724,-0.07409l0.07213,-0.0987l0.41276,-0.34397l0.04125,-0.01992l0.02971,-0.03487l0.48155,-0.34397l0.12711,-0.05007l0.1096,-0.08156l0.8125,-0.33854l0.60625,-0.26944l0.18241,-0.03192l0.17359,-0.06448l0.61914,-0.06879l0.06718,0.00908l0.06577,-0.01644h1.995l0.03729,0.00932l0.0378,-0.00698l1.10069,0.06879l0.08648,0.02745l0.09068,-0.00307l0.89213,0.19117l0.63006,0.05728h0.8397l0.0593,0.01483l0.06049,-0.00885l0.68793,0.06879l0.07318,0.02627l0.07774,-0.00142l0.89431,0.20638l0.02427,0.01238l0.02724,0.00071l1.23828,0.34397l0.10186,0.05777l0.11432,0.0254l0.64314,0.32157l0.29747,0.11899l0.04141,0.02991l0.04987,0.01108l0.13758,0.06879l0.02218,0.01901l0.46766,0.02598l0.03338,-0.01113l0.01592,0.01386l0.35218,0.01957l0.4038,0.47109l0.06879,0.13758l0.02483,0.11172l0.04938,0.04301l0.01086,0.22807l0.04953,0.22289l-0.03632,0.05448l0.00544,0.11432l-0.06879,0.34397l-0.06884,0.14532l-0.03488,0.15697l-0.05663,0.11326l-0.03903,0.2342l-0.01957,0.045z" fill="#b37046"/><path d="M237.49674,177.44762c0.07175,-0.24289 0.1814,-0.45007 0.32047,-0.62443c0.99214,-1.24389 3.48149,-0.817 4.38565,0.23877c0.36751,0.42914 0.38644,2.0804 -0.51263,1.90059c-1.19382,-0.23876 -0.33629,-1.3705 -1.63813,-1.36124c-0.4056,0.00288 -1.61917,0.76001 -1.83974,0.61297z" fill="#985933"/><path d="M246.88702,178.67965c0.69442,0.39681 1.04727,0.93425 1.15816,1.53364c0.32467,1.75489 -1.42471,4.0408 -2.74817,4.883c-2.44765,1.5576 -6.68305,-0.14674 -9.20673,-1.08031c-0.97882,-0.36209 -5.1052,-1.5591 -3.19403,-3.47027c0.69376,-0.69376 1.16957,-0.36359 1.70254,0c1.24974,0.85256 3.96923,2.45435 5.61529,2.46791c0.18402,0.00152 2.69933,0.11692 3.67184,-0.06879c0.08176,-0.01561 1.78731,-1.8576 1.79722,-1.9494c0.06194,-0.57364 -0.3346,-1.43665 0.16636,-1.72291z" fill="#985933"/><path d="M247.21604,174.88404c0.07661,0.08938 0.14699,0.17612 0.21031,0.26055c0.23936,0.22004 0.38937,0.53576 0.38937,0.88652c0,0.66488 -0.539,1.20388 -1.20388,1.20388c-0.12692,0 -0.24926,-0.01964 -0.36413,-0.05605c-0.10361,-0.03284 -0.20115,-0.07932 -0.29051,-0.13733c-0.84897,-0.24523 -1.96956,-0.73639 -2.829,-1.1091c-2.06761,-0.89665 -5.01965,-1.24622 -7.29635,-1.10529c-2.13925,0.13242 -2.01326,3.47607 -2.4756,3.93841c-0.84433,0.84433 -2.15408,0.70725 -2.25728,-0.60194c-0.16726,-2.12184 1.81374,-5.58757 4.23078,-5.74423c3.26385,-0.21155 6.10109,0.6564 9.03361,1.46463c0.95905,0.26432 2.0304,0.34321 2.79271,0.99662z" fill="#d3a689"/><path d="M240.51382,178.69686c0.59739,0.01826 1.53969,-0.32983 1.89891,0.3886c0.39282,0.78565 -0.39985,1.36352 -1.04585,1.3838c-0.84068,0.0264 -3.11965,-0.12319 -3.6401,-1.03398c-0.2612,-0.15415 -0.43643,-0.43849 -0.43643,-0.76374c0,-0.48944 0.39677,-0.8862 0.8862,-0.8862c0.18588,0 0.35839,0.05723 0.50088,0.15502c0.51483,0.21528 1.07584,0.73326 1.83639,0.7565z" fill="#d3a689"/></g></g></svg>