<svg version="1.1" xmlns="http://www.w3.org/2000/svg" xmlns:xlink="http://www.w3.org/1999/xlink" width="35.3218" height="28.07607" viewBox="0,0,35.3218,28.07607"><defs><radialGradient cx="240.29597" cy="180.5335" r="17.36493" gradientUnits="userSpaceOnUse" id="color-1"><stop offset="0" stop-color="#923214"/><stop offset="1" stop-color="#4e1503"/></radialGradient></defs><g transform="translate(-222.3391,-165.83247)"><g stroke="none" stroke-width="0.5" stroke-miterlimit="10"><path d="M235.64532,176.62554c0.14899,-0.50438 0.3767,-0.93463 0.6655,-1.2967c2.0603,-2.58308 7.22972,-1.6966 9.10731,0.49584c0.76317,0.89115 0.80248,4.32019 -1.06453,3.94679c-2.47911,-0.49582 -0.69834,-2.846 -3.40177,-2.82677c-0.84228,0.00599 -3.36239,1.57826 -3.82043,1.2729z" fill="#985933"/><path d="M255.14532,179.18399c1.44204,0.82402 2.17477,1.94008 2.40505,3.18478c0.67422,3.64424 -2.95858,8.39119 -5.70689,10.14012c-5.08283,3.23453 -13.87813,-0.30472 -19.11886,-2.24339c-2.03263,-0.75192 -10.60154,-3.23766 -6.63278,-7.20642c1.44067,-1.44067 2.42875,-0.75504 3.53553,0c2.59524,1.77044 8.24258,5.09674 11.6608,5.12491c0.38213,0.00315 5.60547,0.2428 7.625,-0.14286c0.16979,-0.03242 3.71156,-3.85753 3.73214,-4.04815c0.12863,-1.19123 -0.69483,-2.98337 0.34546,-3.57783z" fill="#985933"/><path d="M255.82858,171.30197c0.1591,0.18561 0.30524,0.36573 0.43674,0.54107c0.49706,0.45693 0.80857,1.11257 0.80857,1.84096c0,1.38071 -1.11929,2.5 -2.5,2.5c-0.26357,0 -0.51761,-0.04079 -0.75616,-0.11639c-0.21516,-0.06819 -0.41771,-0.16471 -0.60328,-0.28518c-1.76299,-0.50925 -4.09003,-1.5292 -5.87476,-2.30317c-4.29364,-1.86199 -10.4239,-2.58792 -15.15172,-2.29526c-4.44241,0.27499 -4.18076,7.21846 -5.14087,8.17857c-1.75336,1.75336 -4.47319,1.46869 -4.6875,-1.25c-0.34734,-4.40624 3.76645,-11.60325 8.78571,-11.92857c6.77777,-0.4393 12.66963,1.3631 18.75935,3.04147c1.99157,0.54889 4.21636,0.71271 5.79938,2.06959z" fill="#d3a689"/><path d="M241.91064,179.21973c1.24055,0.03791 3.19735,-0.68494 3.94331,0.80697c0.81574,1.63149 -0.83033,2.83151 -2.17182,2.87363c-1.74577,0.05482 -6.47832,-0.25582 -7.5591,-2.14718c-0.54241,-0.32012 -0.90629,-0.91057 -0.90629,-1.586c0,-1.01637 0.82393,-1.8403 1.8403,-1.8403c0.386,0 0.74423,0.11884 1.04013,0.32192c1.06911,0.44705 2.2341,1.5227 3.81347,1.57096z" fill="#d3a689"/><path d="M239.42506,183.89265l0.03509,0.03008l0.02182,0.00614zM239.21168,183.75542h-0.04762l0.15475,0.07737zM244.51217,179.3754l0.15062,-0.03012l0.12539,-0.12539v-1.94242l-0.10139,-0.40556l-0.03335,-0.05558l-0.1552,-0.24389l-0.66994,-0.66994l-0.09831,-0.06256l-0.37038,-0.15595l-0.09524,-0.07143h-2.48357l-1.37053,0.22842l-0.86386,0.24682l-0.14383,0.00479l-0.13198,0.05738l-0.25583,0.04264l-0.0525,0.03937l-0.57567,0.46054l-0.15562,0.15562l-0.07948,0.11922l0.0167,0.08348l-0.01184,0.24872l0.06039,0.24157v0.16071l0.20014,0.05003l0.56075,0.12461l0.06231,0.03115l0.06966,0.01742l0.01169,0.02045l0.24317,0.08106l0.06342,0.04036l0.07449,0.01016l0.64607,0.25843l0.78745,0.26248l0.25882,0.1647c0.14884,0.01132 0.29403,0.03567 0.43445,0.07192l0.03622,-0.00988l0.06266,0.0376c0.15815,0.04789 0.30967,0.11102 0.45286,0.18769l0.07157,0.01789l0.01883,0.03296c0.14916,0.08803 0.28838,0.19111 0.41557,0.30715l0.24407,0.09763l0.29823,0.21539l0.17084,0.00949l0.02133,0.02489h0.98765l0.10825,-0.02706l0.55675,-0.2227l0.22916,-0.03125zM256.99925,175.86176l-0.12843,0.51371l-0.08264,0.41321v2.16228l0.3075,0.61499l0.05078,0.22849l0.11697,0.20274l0.28571,1l0.01162,0.34851l0.08457,0.33829v0.71429l-0.11484,0.45934l-0.06397,0.46914l-0.28571,0.71429l-0.22992,0.31835l-0.17072,0.35364l-0.60517,0.72621l-2.04793,3.27668l-1.13095,1.83779l-0.84992,1.41653l-0.31339,0.31339l-0.2686,0.35254l-0.71429,0.57143l-0.00055,0.00025l-0.01439,0.03631l-0.58355,0.23774l-0.57282,0.26254l-0.03632,-0.01438l-0.00056,0.00023l-1,0.14286l-0.3154,-0.03263l-0.31423,0.04246l-1.28571,-0.14286l-0.05519,-0.0205l-0.05864,0.0052l-2.71429,-0.42857l-0.03397,-0.01443l-0.03684,0.0022l-2.28571,-0.42857l-0.1358,-0.06233l-0.14917,-0.00865l-2.27208,-0.71002l-2.84346,-0.85304l-0.06765,-0.04022l-0.07825,-0.00848l-2.71429,-1l-0.00615,-0.00419l-0.00739,-0.00085l-2.28571,-0.85714l-0.26441,-0.18235l-0.29949,-0.11605l-2.35272,-1.66074l-0.63467,-0.3808l-0.34028,-0.34028l-0.37348,-0.30346l-1.71429,-2.28571l-0.06716,-0.15951l-0.11823,-0.12639l-0.71429,-1.28571l-0.06065,-0.22607l-0.12566,-0.19747l-0.85714,-2.57143l-0.03082,-0.40069l-0.09747,-0.38988v-2.42857l0.07464,-0.29857v-0.30776l0.28571,-1.14286l0.04613,-0.08649l0.00752,-0.09774l0.28571,-0.85714l0.13368,-0.21007l0.06742,-0.2397l0.57143,-1l0.13634,-0.14226l0.0821,-0.17913l0.57143,-0.71429l0.20193,-0.15385l0.14978,-0.20496l0.85714,-0.71429l0.08567,-0.04136l0.06169,-0.07242l1,-0.71429l0.26396,-0.10398l0.2276,-0.16937l1.68725,-0.70302l1.25895,-0.55953l0.37879,-0.06629l0.36048,-0.13389l1.28571,-0.14286l0.13951,0.01885l0.13657,-0.03414h4.14286l0.07744,0.01936l0.0785,-0.01449l2.28571,0.14286l0.17958,0.05701l0.1883,-0.00638l1.85262,0.39699l1.30839,0.11894h1.74374l0.12315,0.03079l0.12561,-0.01838l1.42857,0.14286l0.15196,0.05455l0.16143,-0.00294l1.85714,0.42857l0.0504,0.02571l0.05656,0.00147l2.57143,0.71429l0.21153,0.11997l0.23739,0.05275l1.33556,0.66778l0.61774,0.24709l0.086,0.06211l0.10356,0.02301l0.28571,0.14286l0.04606,0.03948l0.97116,0.05395l0.06932,-0.02311l0.03306,0.02879l0.73134,0.04063l0.83853,0.97828l0.14286,0.28571l0.05156,0.232l0.10254,0.08931l0.02255,0.47362l0.10286,0.46286l-0.07543,0.11314l0.0113,0.23739l-0.14286,0.71429l-0.14295,0.30178l-0.07244,0.32597l-0.1176,0.2352l-0.08106,0.48634l-0.04063,0.09345z" fill="url(#color-1)"/><g><path d="M226.82222,180.9613c-1.04006,0.69338 -1.73344,-0.34669 -1.73344,-0.34669l-0.59165,-1.46157c0.19076,-1.09357 0.67679,-2.17663 1.39258,-3.0251c0,0 0.83621,-0.92912 1.76533,-0.09292c0.92912,0.83621 0.09291,1.76533 0.09291,1.76533c-0.44341,0.44019 -0.72019,1.08394 -0.77595,1.70624l0.1969,-0.27873c0,0 0.69338,1.04006 -0.34669,1.73343z" fill="#f3d3c0"/><path d="M229.80734,182.77977c0,-0.61248 0.30011,-0.92486 0.60622,-1.08417c0.03292,-0.14655 0.00138,-0.32712 -0.10057,-0.391c0,0 -0.69338,-1.04006 0.34669,-1.73343c1.04006,-0.69338 1.73343,0.34668 1.73343,0.34668c0.3308,0.66646 1.06229,1.25863 0.99242,1.99939c-0.06902,0.73167 -0.89715,1.16428 -1.34573,1.74641l-0.98246,0.36612c0,0 -1.25,0 -1.25,-1.25zM230.29733,181.88408l-0.02531,0.0118c0.0088,-0.00316 0.01724,-0.00713 0.02531,-0.0118z" fill="#d4b39f"/><path d="M231.62208,175.99033c-1.19473,0.3676 -1.56233,-0.82711 -1.56233,-0.82711l-0.40436,-1.98212c0.45143,-0.49438 0.90287,-0.98876 1.3543,-1.48314c0,0 0.92911,-0.83621 1.76532,0.09291c0.83621,0.92912 -0.09291,1.76532 -0.09291,1.76532c-0.2057,0.09704 -0.4114,0.19408 -0.6171,0.29112l0.3842,0.58069c0,0 0.36761,1.19473 -0.82712,1.56233z" fill="#f3d3c0"/><path d="M223.90079,173.25796c-0.13804,-1.24236 1.10431,-1.38039 1.10431,-1.38039l0.46616,0.02576c0.24682,-0.02081 0.42248,-0.45731 0.30728,-0.67659c0,0 -0.17678,-1.23744 1.06066,-1.41421c1.23744,-0.17677 1.41422,1.06066 1.41422,1.06066c0.02231,0.7123 0.39044,1.5019 0.06692,2.13689c-0.31277,0.61387 -1.15403,0.75288 -1.73104,1.12932l-1.30811,0.22289c0,0 -1.24236,0.13804 -1.38039,-1.10432z" fill="#d4b39f"/><path d="M237.46438,172.00425c-1.25,0 -1.25,-1.25 -1.25,-1.25l0.14941,-0.2945c-0.10686,-0.42108 -0.7709,-0.63562 -1.19169,-0.52761c0,0 -1.24784,0.0734 -1.32125,-1.17445c-0.07341,-1.24785 1.17444,-1.32125 1.17444,-1.32125c0.78609,0.01925 1.66043,-0.30461 2.35827,0.05777c0.63207,0.32822 0.78759,1.18686 1.18139,1.78029l0.14941,1.47975c0,0 0,1.25 -1.25,1.25z" fill="#f3d3c0"/><path d="M236.00146,179.8311c-1.09269,0.60706 -1.69975,-0.48564 -1.69975,-0.48564l-0.56684,-1.9429c0.26207,-0.62841 0.38745,-1.34125 0.31465,-2.01822c0,0 -0.09588,-1.24632 1.15044,-1.34219c1.24632,-0.09587 1.34219,1.15045 1.34219,1.15045c0.05981,1.04607 -0.11605,2.12264 -0.47392,3.10741l0.41887,-0.16865c0,0 0.60705,1.09269 -0.48565,1.69975z" fill="#ffe6d7"/><path d="M234.06157,185.8921c0.83046,0.93426 -0.10381,1.76471 -0.10381,1.76471l-1.99865,1.07229c-1.04674,-0.28626 -2.05257,-0.89995 -2.76498,-1.71853c0,0 -0.78087,-0.97608 0.19522,-1.75695c0.97609,-0.78087 1.75696,0.19521 1.75696,0.19521c0.3008,0.44584 0.84318,0.76376 1.37495,0.84429l-0.2244,-0.50483c0,0 0.93427,-0.83046 1.76472,0.1038z" fill="#ffe6d7"/><path d="M226.5796,186.09008c-1.24034,0.15505 -1.39539,-1.08531 -1.39539,-1.08531l0.02375,-1.50262c0.19714,-0.39428 0.39428,-0.78856 0.59142,-1.18284c0,0 0.55901,-1.11803 1.67705,-0.55901c1.11803,0.55901 0.55902,1.67705 0.55902,1.67705c-0.19714,0.39428 -0.39428,0.78855 -0.59142,1.18283l0.22088,0.0745c0,0 0.15504,1.24035 -1.0853,1.39539z" fill="#f3d3c0"/><path d="M236.60965,188.23487c-1.11803,-0.55901 -0.55901,-1.67705 -0.55901,-1.67705l0.37542,-0.23661c0.04906,-0.31417 -0.36717,-0.65616 -0.68506,-0.66386c0,0 -1.20191,-0.3434 -0.85851,-1.5453c0.3434,-1.20191 1.54531,-0.85851 1.54531,-0.85851c0.65807,0.25652 1.49635,0.24944 1.97421,0.76954c0.44672,0.48621 0.32998,1.27865 0.49497,1.91798l-0.61028,1.73478c0,0 -0.55902,1.11803 -1.67705,0.55902z" fill="#f3d3c0"/><path d="M240.5566,188.95819c1.01717,0.72655 0.29062,1.74372 0.29062,1.74372l-0.9862,1.09839c-2.34736,1.00427 -3.39267,0.79548 -5.25192,-0.94106c0,0 -0.88388,-0.88388 0,-1.76776c0.88388,-0.88388 1.76776,0 1.76776,0c0.98778,1.11004 1.13085,1.11698 2.43652,0.43892l-0.0005,-0.28159c0,0 0.72655,-1.01717 1.74371,-0.29062z" fill="#d4b39f"/><path d="M240.52004,185.11403c-1.25,0 -1.25,-1.25 -1.25,-1.25l0.00277,-0.11399c-0.03369,-0.77935 -0.25579,-1.57267 -0.64192,-2.25048c0,0 -0.59262,-1.10058 0.50797,-1.69321c1.10059,-0.59262 1.69321,0.50796 1.69321,0.50796c0.52084,1.00678 0.84141,2.1398 0.9352,3.26943l0.00277,0.28029c0,0 0,1.25 -1.25,1.25z" fill="#f3d3c0"/><path d="M242.41323,170.89679c1.23744,-0.17677 1.41421,1.06066 1.41421,1.06066l-0.16278,1.64763c-0.72724,0.82179 -1.78079,1.41795 -2.85598,1.63744c0,0 -1.23547,0.19007 -1.42554,-1.04539c-0.19007,-1.23547 1.0454,-1.42554 1.0454,-1.42554c0.49138,-0.02542 1.01863,-0.31387 1.28395,-0.72824l-0.35992,0.26766c0,0 -0.17677,-1.23744 1.06066,-1.41422z" fill="#ffe6d7"/><path d="M246.72724,173.67625c-1.24632,0.09587 -1.34219,-1.15045 -1.34219,-1.15045l-0.08031,-1.14411c-0.04139,-0.43985 -0.60557,-0.74151 -1.04005,-0.82157c0,0 -1.18585,-0.39529 -0.79057,-1.58114c0.39529,-1.18586 1.58114,-0.79057 1.58114,-0.79057c1.18592,0.4829 2.25187,1.52956 2.7056,2.72694l0.11683,1.4187c0,0 0.09587,1.24632 -1.15045,1.34219z" fill="#d4b39f"/><path d="M229.09363,170.94177c-0.97609,-0.78087 -0.19522,-1.75695 -0.19522,-1.75695l0.14464,0.04287c0.15175,-0.38042 0.05791,-0.99314 -0.30047,-1.19141c0,0 -0.92912,-0.83621 -0.09291,-1.76532c0.83621,-0.92912 1.76532,-0.09291 1.76532,-0.09291c0.84445,0.8993 1.22783,2.31526 1.07951,3.53994l-0.64392,1.02857c0,0 -0.78087,0.97609 -1.75695,0.19522z" fill="#ffe6d7"/><path d="M252.27425,176.91926c-1.13796,0.51725 -1.65521,-0.6207 -1.65521,-0.6207l0.83518,-0.36606c-0.80686,0.12186 -1.606,0.30863 -2.38528,0.55068c0,0 -1.19472,0.36761 -1.56233,-0.82712c-0.36761,-1.19472 0.82712,-1.56233 0.82712,-1.56233c0.89662,-0.27361 1.81416,-0.4874 2.74035,-0.63216l1.82088,1.80248c0,0 0.51725,1.13796 -0.6207,1.65521z" fill="#ffe6d7"/><path d="M255.36754,172.14882c-0.11317,1.24487 -1.35804,1.1317 -1.35804,1.1317l-1.45187,-0.18959c-0.92461,-0.39509 -1.79439,-0.93618 -2.57788,-1.56638c0,0 -0.96745,-0.79155 -0.1759,-1.75899c0.79155,-0.96745 1.75899,-0.1759 1.75899,-0.1759c0.58595,0.4901 1.24772,0.90825 1.95633,1.19358l0.71667,0.00755c0,0 1.24487,0.11317 1.1317,1.35804z" fill="#ffe6d7"/><path d="M256.03201,178.94387c0.32318,0.1867 0.8383,0.63009 0.55792,1.47122c-0.39528,1.18585 -1.58114,0.79057 -1.58114,0.79057l-1.01846,-0.72541c-0.44405,-0.93623 -0.7013,-1.9873 -0.72338,-3.02326c0,0 0,-1.25 1.25,-1.25c1.25,0 1.25,1.25 1.25,1.25c-0.01682,0.50024 0.07935,1.01505 0.26506,1.48688z" fill="#ffe6d7"/><path d="M250.32134,181.54636c-0.24515,1.22573 -1.47087,0.98058 -1.47087,0.98058l-0.77631,-0.19157c-2.39168,-1.2898 -2.7825,-2.1206 -2.04609,-4.75314c0,0 0.36761,-1.19472 1.56233,-0.82712c1.19472,0.36761 0.82712,1.56233 0.82712,1.56233c-0.21074,0.59451 0.11521,1.55377 0.71386,1.75247l0.20939,0.00557c0,0 1.22573,0.24515 0.98058,1.47087z" fill="#f3d3c0"/><path d="M251.26076,184.90409c-1.04006,-0.69338 -0.34669,-1.73344 -0.34669,-1.73344l0.38148,-0.19375c0.00487,-0.80478 -0.09506,-1.61347 -0.26796,-2.39947c0,0 -0.26191,-1.22225 0.96034,-1.48416c1.22225,-0.26191 1.48416,0.96034 1.48416,0.96034c0.20109,0.95953 0.31863,1.94293 0.32346,2.9233l-0.80136,1.5805c0,0 -0.69338,1.04006 -1.73344,0.34669z" fill="#ffe6d7"/><path d="M252.3913,190.2205c-0.24515,1.22573 -1.47087,0.98058 -1.47087,0.98058l-0.2477,-0.0743c-2.26311,-0.06593 -3.20428,-0.67166 -4.27227,-2.66238c0,0 -0.55902,-1.11803 0.55902,-1.67705c1.11803,-0.55902 1.67705,0.55902 1.67705,0.55902c0.52016,1.18128 0.74644,1.34518 2.0362,1.28041l0.23672,0.0394c-0.34647,-0.64052 0.13234,-1.29887 0.13234,-1.29887c0.57688,-0.78101 1.25086,-1.50125 2.00431,-2.1137l1.12746,-0.42296c0,0 1.2019,-0.3434 1.54531,0.8585c0.3434,1.2019 -0.8585,1.54531 -0.8585,1.54531l-0.25252,-0.02868c-0.58953,0.46187 -1.10948,1.02213 -1.54421,1.63196c0,0 -0.29962,0.41198 -0.77932,0.51867c0.12061,0.21175 0.18122,0.49297 0.107,0.86409z" fill="#d4b39f"/><path d="M249.95133,184.65259c0,1.25 -1.25,1.25 -1.25,1.25l-0.576,-0.00277c-2.06995,-0.16756 -2.98325,-0.56217 -4.39448,-2.08671c0,0 -0.83621,-0.92912 0.09291,-1.76532c0.92912,-0.83621 1.76532,0.09291 1.76532,0.09291c0.9541,1.10364 1.22967,1.19584 2.70254,1.26466l0.4097,-0.00277c0,0 1.25,0 1.25,1.25z" fill="#ffe6d7"/><path d="M241.89663,192.00112c-1.04006,-0.69338 -0.34669,-1.73344 -0.34669,-1.73344l0.2556,-0.31407c0.47985,-1.31151 1.09341,-1.81197 -0.05175,-2.59765c0,0 -0.92912,-0.83621 -0.09291,-1.76532c0.83621,-0.92912 1.76532,-0.09291 1.76532,-0.09291c1.84084,1.86411 1.5601,2.88645 0.73681,5.28794l-0.53295,0.86877c0,0 -0.69338,1.04006 -1.73344,0.34669z" fill="#ffe6d7"/><path d="M248.69172,193.41761c-0.78087,0.97609 -1.75695,0.19522 -1.75695,0.19522l0.19896,-0.12354c-0.45999,-0.03286 -0.91998,-0.06571 -1.37998,-0.09857c0,0 -1.24682,-0.08906 -1.15776,-1.33588c0.08906,-1.24682 1.33588,-1.15776 1.33588,-1.15776c0.45999,0.03286 0.91998,0.06571 1.37998,0.09857l1.18466,0.66502c0,0 0.97609,0.78087 0.19522,1.75695z" fill="#ffe6d7"/></g></g></g></svg>