<svg version="1.1" xmlns="http://www.w3.org/2000/svg" xmlns:xlink="http://www.w3.org/1999/xlink" width="83.55409" height="49.27542" viewBox="0,0,83.55409,49.27542"><defs><radialGradient cx="236.35714" cy="185.4" r="40.85818" gradientUnits="userSpaceOnUse" id="color-1"><stop offset="0" stop-color="#923214"/><stop offset="1" stop-color="#4e1503"/></radialGradient></defs><g transform="translate(-198.22296,-155.36229)"><g data-paper-data="{&quot;isPaintingLayer&quot;:true}" fill-rule="nonzero" stroke-linejoin="miter" stroke-miterlimit="10" stroke-dasharray="" stroke-dashoffset="0" style="mix-blend-mode: normal"><path d="M273.29478,163.9548c3.7154,-1.01439 6.01587,-0.95722 7.26776,-0.20523c3.66532,2.20167 -1.65778,10.35938 -6.77483,15.0182c-9.46367,8.61622 -31.24509,16.02385 -44.12297,20.57751c-4.99472,1.76614 -25.64606,9.77335 -19.11054,1.86067c2.37241,-2.87232 4.98979,-3.46802 7.91393,-4.1459c6.85668,-1.58957 21.46571,-5.48065 29.13372,-9.46586c0.85722,-0.44552 12.69093,-6.37384 16.98327,-9.05869c0.36088,-0.22573 6.02562,-7.51976 5.95891,-7.70041c-0.41688,-1.12896 -3.32044,-1.63486 -1.34357,-3.34286z" fill="#985933" stroke="none" stroke-width="0.5" stroke-linecap="butt"/><path d="M270.16073,156.68164c0.46594,-0.03416 0.89963,-0.05764 1.29772,-0.06787c1.38297,-0.20768 2.46817,-0.03463 2.89912,0.56346c0.81691,1.1337 -1.02628,3.36528 -4.11686,4.98435c-0.58997,0.30908 -1.18275,0.57348 -1.76145,0.79113c-0.52196,0.19631 -1.03246,0.35458 -1.51911,0.47327c-4.24758,1.64921 -10.05989,3.54051 -14.51275,4.99785c-10.71254,3.50601 -24.86401,10.09854 -35.27361,15.88288c-9.78119,5.43515 -5.08736,10.82962 -6.66842,12.74383c-2.88734,3.49575 -9.14382,6.4514 -11.23207,4.47038c-3.38447,-3.21067 1.56568,-13.94415 12.60831,-20.09706c14.91145,-8.3086 29.16618,-13.73768 43.79043,-19.50062c4.78268,-1.8847 9.85957,-4.35907 14.20582,-5.10125z" fill="#d3a689" stroke="none" stroke-width="0.5" stroke-linecap="butt"/><path d="M275.47899,159.05292l0.01646,0.57242l0.0595,0.43619l1.27933,1.77545l1.05217,0.14438l0.24885,0.12807l0.38178,0.0293l1.23119,0.48606l0.23221,0.27254l0.38945,0.1786l0.42261,0.5865l0.01471,0.51183l0.13438,0.46023l-0.21691,0.92154l-0.3263,0.53101l-0.17291,0.49057l-0.92494,1.30594l-2.64542,5.09198l-1.44418,2.83521l-1.06436,2.15976l-0.51607,0.62482l-0.39265,0.60444l-1.26078,1.3068l-0.00108,0.00085l-0.01073,0.04669l-1.16556,0.87951l-1.12687,0.88728l-0.0898,0.03079l-0.00112,0.00084l-2.15388,1.28995l-0.72529,0.34306l-0.67825,0.40334l-2.96246,1.39038l-0.13567,0.04788l-0.12818,0.07304l-6.32923,2.83098l-0.08458,0.02799l-0.08116,0.04501l-5.3699,2.32842l-0.34086,0.10807l-0.33902,0.16782l-5.50591,2.08133l-6.86951,2.63393l-0.17522,0.0463l-0.18018,0.0848l-6.66732,2.36178l-0.01624,0.00377l-0.01704,0.00797l-5.62347,1.97652l-0.69975,0.16033l-0.73904,0.25591l-6.24892,1.39526l-1.64595,0.43157l-0.96301,0.11962l-1.01555,0.18879l-5.18962,0.13344l-0.24471,-0.05222l-0.33943,0.03486l-2.35957,-0.21809l-0.26951,-0.11451l-0.39811,-0.01479l-3.44002,-1.10629l-0.30606,-0.29287l-0.44886,-0.20583l-1.43688,-1.99411l-0.00958,-0.33268l-0.18209,-0.25271l-0.03664,-1.27344l0.05209,-0.12511l-0.041,-0.08907l0.1324,-1.03884l0.17494,-0.32925l0.0091,-0.27587l0.68743,-1.49119l0.22101,-0.27669l0.07779,-0.24336l0.85648,-1.25659l0.36097,-0.36311l0.21401,-0.34394l1.496,-1.59162l0.16729,-0.13442l0.09524,-0.13181l1.81579,-1.75914l0.52933,-0.39491l0.40925,-0.40597l3.36079,-2.55578l2.48698,-1.93573l0.80867,-0.49862l0.72768,-0.53265l2.79341,-1.62498l0.32343,-0.14812l0.2855,-0.18818l9.27337,-4.85809l0.1848,-0.07492l0.16714,-0.10395l5.20085,-2.56301l0.4357,-0.16378l0.41772,-0.22604l4.38179,-1.84649l2.99907,-1.43661l3.90319,-2.04478l0.29388,-0.11913l0.27029,-0.16239l3.28224,-1.5579l0.37242,-0.13341l0.35961,-0.19171l4.41058,-1.82586l0.12803,-0.03799l0.12747,-0.06512l6.1785,-2.42886l0.54447,-0.14954l0.56258,-0.23506l3.38461,-1.01782l1.52895,-0.5215l0.22925,-0.04985l0.24542,-0.10254l0.72406,-0.21774l0.12646,-0.02159l2.20576,-1.09452l0.14149,-0.10026l0.09104,-0.01513l1.66107,-0.82424l2.45577,-0.18003l0.48882,0.06707l0.25268,0.13003l0.28236,-0.04691l0.33069,0.36245l0.5041,0.25944l-0.1019,0.18135l0.16575,0.18167l0.10284,0.75403l-0.14143,0.41542l0.03071,0.3526l-0.12408,0.33103l0.1063,0.49438l-0.03565,0.12438z" fill="url(#color-1)" stroke="none" stroke-width="0.5" stroke-linecap="butt"/><g fill="none" stroke-width="2.5" stroke-linecap="round"><path d="M207.35547,191.5949l-1.52801,5.0922" stroke="#ff0000"/><path d="M220.2176,183.84403l-4.836,-0.40511" stroke="#ff0000"/><path d="M230.04275,193.05233l-2.03759,-6.85946" stroke="#ff0000"/><path d="M213.81689,199.0444l6.49316,-0.53639" stroke="#ff0000"/><path d="M211.62332,193.49273l-0.91045,7.2413" stroke="#1dff00"/><path d="M209.98944,186.65021l2.77511,1.32969" stroke="#1dff00"/><path d="M226.324,182.887l-0.91116,-4.79013" stroke="#1dff00"/><path d="M226.42987,194.82172l-3.20777,-3.06661" stroke="#1dff00"/><path d="M218.35787,201.66142l1.46166,-8.3303" stroke="#0067ff"/><path d="M208.9957,191.0571l-5.39568,0.88575" stroke="#0067ff"/><path d="M219.44899,180.47534l-3.96719,5.39427" stroke="#0067ff"/><path d="M222.98072,183.05003l7.75722,5.48179" stroke="#0067ff"/></g><g data-paper-data="{&quot;index&quot;:null}" fill="none" stroke-width="2.5" stroke-linecap="round"><path d="M243.22478,180.35691l-1.52801,5.0922" stroke="#ff0000"/><path d="M228.83464,193.19998l4.83601,0.40511" stroke="#ff0000"/><path d="M221.04708,190.85114l-2.03759,-6.85946" stroke="#ff0000"/><path d="M235.23535,177.99961l-6.49317,0.53639" stroke="#ff0000"/><path d="M238.33937,176.30998l-0.91045,7.2413" stroke="#1dff00"/><path d="M239.0628,190.3938l-2.77511,-1.32969" stroke="#1dff00"/><path d="M222.72824,194.15701l0.91117,4.79012" stroke="#1dff00"/><path d="M225.83014,185.2889l-3.20777,-3.06661" stroke="#1dff00"/><path d="M230.69437,175.38259l-1.46166,8.3303" stroke="#0067ff"/><path d="M240.05654,185.98691l5.39569,-0.88575" stroke="#0067ff"/><path d="M233.57044,191.1744l-3.96719,5.39427" stroke="#0067ff"/><path d="M218.3143,188.51219l7.75722,5.48179" stroke="#0067ff"/></g><g data-paper-data="{&quot;index&quot;:null}" fill="none" stroke-width="2.5" stroke-linecap="round"><g><path d="M272.98249,172.44911l1.52801,-5.0922" stroke="#ff0000"/><path d="M264.95637,180.60509l-4.83601,-0.40511" stroke="#ff0000"/><path d="M250.2952,170.99168l2.03759,6.85947" stroke="#ff0000"/><path d="M260.0279,165.536l6.49317,-0.53639" stroke="#ff0000"/><path d="M269.62509,163.30998l-0.91045,7.2413" stroke="#1dff00"/><path d="M270.34851,177.3938l-2.77511,-1.32969" stroke="#1dff00"/><path d="M254.01396,181.15701l0.91116,4.79013" stroke="#1dff00"/><path d="M253.90808,169.22229l3.20777,3.06661" stroke="#1dff00"/><path d="M260.51842,170.71289l1.46166,-8.3303" stroke="#0067ff"/><path d="M271.34225,172.98691l5.39569,-0.88575" stroke="#0067ff"/><path d="M260.88896,183.56867l3.96719,-5.39427" stroke="#0067ff"/><path d="M257.35724,180.99398l-7.75722,-5.48179" stroke="#0067ff"/></g><g data-paper-data="{&quot;index&quot;:null}"><path d="M237.11317,183.6871l1.52801,-5.0922" stroke="#ff0000"/><path d="M246.66731,170.43892l4.83601,0.40511" stroke="#ff0000"/><path d="M261.32847,180.05234l-2.03759,-6.85947" stroke="#ff0000"/><path d="M251.59577,185.50801l-6.49317,0.53639" stroke="#ff0000"/><path d="M241.99858,187.73403l0.91045,-7.2413" stroke="#1dff00"/><path d="M244.05027,174.9799l-2.77511,-1.32969" stroke="#1dff00"/><path d="M257.60971,169.887l-0.91117,-4.79012" stroke="#1dff00"/><path d="M257.71558,181.82172l-3.20777,-3.0666" stroke="#1dff00"/><path d="M249.64358,188.66142l1.46167,-8.3303" stroke="#0067ff"/><path d="M240.28142,178.0571l-5.39569,0.88575" stroke="#0067ff"/><path d="M250.73471,167.47534l-3.96719,5.39427" stroke="#0067ff"/><path d="M254.26643,170.05003l7.75722,5.48179" stroke="#0067ff"/></g></g></g></g></svg>