<svg version="1.1" xmlns="http://www.w3.org/2000/svg" xmlns:xlink="http://www.w3.org/1999/xlink" width="90.96881" height="33.03615" viewBox="0,0,90.96881,33.03615"><defs><radialGradient cx="202.4375" cy="173" r="5.68549" gradientUnits="userSpaceOnUse" id="color-1"><stop offset="0" stop-color="#b97d61"/><stop offset="1" stop-color="#985933"/></radialGradient><radialGradient cx="200.3125" cy="170.625" r="8.17296" gradientUnits="userSpaceOnUse" id="color-2"><stop offset="0" stop-color="#b97d61"/><stop offset="1" stop-color="#b37046"/></radialGradient><radialGradient cx="208.6875" cy="181.875" r="14.22481" gradientUnits="userSpaceOnUse" id="color-3"><stop offset="0" stop-color="#b97d61"/><stop offset="1" stop-color="#b37046"/></radialGradient><radialGradient cx="216.4375" cy="179.5" r="14.15607" gradientUnits="userSpaceOnUse" id="color-4"><stop offset="0" stop-color="#b97d61"/><stop offset="1" stop-color="#985933"/></radialGradient><radialGradient cx="201.4375" cy="177.875" r="12.74369" gradientUnits="userSpaceOnUse" id="color-5"><stop offset="0" stop-color="#b97d61"/><stop offset="1" stop-color="#d3a689"/></radialGradient><radialGradient cx="232.9375" cy="182.125" r="14.88555" gradientUnits="userSpaceOnUse" id="color-6"><stop offset="0" stop-color="#b97d61"/><stop offset="1" stop-color="#b37046"/></radialGradient><radialGradient cx="244.1875" cy="183.25" r="16.32827" gradientUnits="userSpaceOnUse" id="color-7"><stop offset="0" stop-color="#b97d61"/><stop offset="1" stop-color="#985933"/></radialGradient><radialGradient cx="221.9375" cy="181" r="14.79686" gradientUnits="userSpaceOnUse" id="color-8"><stop offset="0" stop-color="#b97d61"/><stop offset="1" stop-color="#d3a689"/></radialGradient><radialGradient cx="255.3125" cy="181.375" r="14.91656" gradientUnits="userSpaceOnUse" id="color-9"><stop offset="0" stop-color="#b97d61"/><stop offset="1" stop-color="#b37046"/></radialGradient><radialGradient cx="260.8125" cy="181.75" r="16.45001" gradientUnits="userSpaceOnUse" id="color-10"><stop offset="0" stop-color="#b97d61"/><stop offset="1" stop-color="#985933"/></radialGradient><radialGradient cx="242.8125" cy="181.625" r="14.75252" gradientUnits="userSpaceOnUse" id="color-11"><stop offset="0" stop-color="#b97d61"/><stop offset="1" stop-color="#d3a689"/></radialGradient><radialGradient cx="279.0625" cy="190" r="4.61466" gradientUnits="userSpaceOnUse" id="color-12"><stop offset="0" stop-color="#b97d61"/><stop offset="1" stop-color="#b37046"/></radialGradient><radialGradient cx="282.3125" cy="191" r="10.51783" gradientUnits="userSpaceOnUse" id="color-13"><stop offset="0" stop-color="#b97d61"/><stop offset="1" stop-color="#985933"/></radialGradient><radialGradient cx="270.5625" cy="184" r="10.66879" gradientUnits="userSpaceOnUse" id="color-14"><stop offset="0" stop-color="#b97d61"/><stop offset="1" stop-color="#b37046"/></radialGradient><radialGradient cx="276.3125" cy="184.75" r="14.74289" gradientUnits="userSpaceOnUse" id="color-15"><stop offset="0" stop-color="#b97d61"/><stop offset="1" stop-color="#985933"/></radialGradient><radialGradient cx="265.5625" cy="182.625" r="13.87452" gradientUnits="userSpaceOnUse" id="color-16"><stop offset="0" stop-color="#b97d61"/><stop offset="1" stop-color="#d3a689"/></radialGradient></defs><g transform="translate(-194.5156,-163.48193)"><g stroke="none" stroke-width="0.5" stroke-miterlimit="10"><path d="M203.93819,167.60109c3.72379,-0.93095 5.42584,3.0315 4.36085,6.01348c-0.72041,2.01715 -3.94269,2.72005 -5.65587,3.14834c-0.39102,0.87046 -1.26553,1.47666 -2.28163,1.47666c-1.1058,0 -2.04392,-0.71794 -2.37366,-1.71312c-2.56452,-3.26338 1.98344,-7.93364 5.95031,-8.92536z" fill="url(#color-1)"/><path d="M209.63408,168.14326c0.13968,0.16296 0.26956,0.322 0.38822,0.47762c0.51488,0.45792 0.83923,1.12543 0.83923,1.86869c0,1.38071 -1.11929,2.5 -2.5,2.5c-0.17741,0.0887 -0.46669,0.01441 -0.84089,-0.14494c-0.1387,-0.04953 -0.27174,-0.11096 -0.39789,-0.18306c-1.7055,-0.82631 -4.62151,-2.59717 -7.03576,-0.36191c-1.60253,1.48371 0.99177,12.71964 -4.91296,6.81492c-0.47539,-0.47539 -0.30686,-2.97776 -0.3125,-3.2193c-0.03865,-1.65632 -0.97396,-4.33432 0.40369,-5.80324c3.09803,-3.30326 10.73975,-6.12024 14.3126,-1.9519z" fill="url(#color-2)"/><path d="M212.00537,191.26911c-0.48709,0.85241 -3.42901,0.11739 -4.2604,0.03507c-3.32505,-0.32924 -8.64901,-3.88136 -8.64901,-7.57936c0,-2.34591 0.07046,-3.95931 1.95384,-5.68742c3.28454,-3.01375 6.35102,-3.31709 10.36816,-4.68362c2.9406,-1.00032 5.13711,-2.99303 8.21224,-3.91457c0.85512,-0.25626 1.67142,-0.41294 2.51925,-0.13032c0.10671,0.03557 1.03038,0.72824 1.10732,0.66538c1.05513,-0.86204 2.44018,-0.58237 3.49753,0.12253c2.03077,1.35385 -0.37184,3.94113 -1.36963,5.01975c-1.88601,2.03878 -4.15203,3.80018 -6.08033,5.84074c-2.30812,2.44249 -3.3564,6.37373 -6.08116,8.4173z" fill="url(#color-3)"/><path d="M214.23653,169.36457c0.36153,-0.63268 0.48569,-1.50433 0.99036,-1.9929c0.07697,-0.07451 0.16278,-0.14011 0.25964,-0.1946c3.0806,-1.73288 14.43398,-2.02391 15.24671,2.02193c1.35196,6.73013 -7.54384,9.56304 -10.90412,13.65863c-1.56414,1.90641 -2.33193,4.09214 -3.63745,6.14369c-1.49739,2.35306 -3.10557,5.70346 -6.45513,5.23825c-1.31651,-0.18285 -2.5,-0.5914 -2.5,-2.5c0,-1.31857 2.25143,-1.52367 2.93669,-2.65019c2.58211,-4.24481 4.48216,-8.71193 8.53207,-11.82637c1.57032,-1.2076 3.10188,-2.43388 4.63847,-3.6662c0.56302,-0.45153 1.07697,-0.94355 1.56264,-1.49398c0.14044,-0.15917 0.6211,-0.48663 0.40883,-0.48825c-2.05194,-0.01566 -4.10773,-0.02244 -6.15485,0.11902c-0.48779,0.0337 -3.32088,0.43619 -3.69269,-0.21447z" fill="url(#color-4)"/><path d="M210.61153,190.36457c-0.74111,1.29693 -2.00596,2.01216 -3.50043,2.29179c-3.28281,0.61425 -7.67356,-0.87336 -10.05453,-2.91419c-3.19706,-2.74033 -2.27537,-9.46102 0.05496,-12.37761c2.37625,-2.97405 6.28213,-3.96201 9.59998,-5.53257c1.60234,-0.7585 5.76074,-4.52311 7.36212,-4.52311c2.70246,0 4.18535,2.81316 2.18068,4.44845c-3.64211,2.97102 -7.77355,4.16558 -11.77979,6.49049c-1.34477,0.7804 -3.3304,1.29812 -3.96287,2.93412c-1.55358,4.01863 1.10863,6.51296 5.03266,6.68262c1.28267,0.05545 3.1991,-0.76924 3.83607,0.34546z" fill="url(#color-5)"/><path d="M231.125,192.61457c-2.38676,0.10474 -10.72278,0.83063 -11.95097,-2.5c-1.86966,-5.0702 2.97758,-7.16397 5.96205,-9.93508c4.01555,-3.72846 13.84684,-16.30111 20.38836,-14.1206c3.07097,1.02365 3.2926,5.7147 2.80307,8.21668c-0.75594,3.8636 -8.35265,14.43645 -12.3473,15.768c-0.03949,0.55823 -0.26226,1.06585 -0.6085,1.46303c-0.23946,1.19731 -3.63822,1.08127 -4.24672,1.10797z" fill="url(#color-6)"/><path d="M251.98324,167.199c1.59489,7.93943 -5.66691,13.62739 -10.18515,19.12183c-1.71175,2.08158 -2.64529,4.67654 -4.41879,6.68651c-1.98314,2.24756 -7.79306,4.89575 -10.64277,2.66973c-1.27634,-0.997 -1.41966,-3.38247 0,-4.375c1.53364,-1.07221 4.02389,0.255 5.83705,-0.68508c1.99111,-1.03233 3.00233,-4.1159 4.14422,-5.91366c1.72559,-2.7167 4.25358,-4.89785 6.25,-7.375c0.56669,-0.70315 5.95606,-6.60227 4.19258,-8.21376c-1.48473,-1.35676 -5.75267,1.24712 -8.2713,2.31981c-0.39994,0.27154 -0.88272,0.43019 -1.40256,0.43019c-1.38071,0 -2.5,-1.11929 -2.5,-2.5c0,-1.03321 0.62678,-1.92002 1.52085,-2.30097c4.02057,-3.49122 14.43698,-5.03621 15.47587,0.1354z" fill="url(#color-7)"/><path d="M230.86153,193.36457c-0.72556,1.26973 -1.85752,2.03651 -3.19458,2.40225c-4.23837,1.15936 -10.53766,-1.71101 -12.4861,-5.36433c-4.61187,-8.64726 8.80933,-14.77053 13.70366,-18.55786c1.20376,-0.93149 5.02849,-5.41074 6.43911,-5.41074c4.51706,0 3.0809,3.87951 1.05568,5.69845c-3.88935,3.4932 -15.10686,9.4954 -16.50857,13.87818c-2.03221,6.35422 8.99851,3.86754 9.75963,5.19951z" fill="url(#color-8)"/><path d="M240.23983,186.449c0.68677,-3.2049 3.80352,-4.08005 5.43083,-6.56368c2.31357,-3.53098 9.28609,-11.56382 13.3664,-12.79782c2.94201,-0.88975 8.64977,-1.75546 10.32119,1.2365c2.60657,4.66593 -4.18415,10.80488 -6.35587,14.27375c-1.0541,1.68371 -1.54576,3.65573 -2.55603,5.33951c0.33821,0.42641 0.54019,0.96577 0.54019,1.5523c0,1.30593 -1.00133,2.37798 -2.27809,2.49029c-5.81831,3.2877 -20.09128,2.04161 -18.46861,-5.53085z" fill="url(#color-9)"/><path d="M254.98653,168.23957c0.25297,-0.95324 1.01651,-1.78149 2.09778,-2.46781c4.41625,-2.80313 14.13296,-3.23851 16.01329,-0.15022c3.53165,5.80044 -2.87901,10.52696 -5.92885,14.67346c-4.03579,5.48698 -2.16475,15.6033 -11.05722,16.06957c-1.80347,0.09456 -4.23358,-0.22026 -6,-0.375c-2.70797,-0.23722 -3.01721,-2.92029 -1.25,-4.6875c2.11553,-2.11553 6.77789,1.32422 9.28228,-0.75531c1.57301,-1.30616 1.41457,-6.18873 2.09602,-8.09776c1.70492,-4.7762 7.95747,-8.07424 8.85431,-12.81291c0.14563,-0.76947 -0.45281,-0.88429 -1.0645,-0.89652c-0.47113,-0.00942 -5.03756,-0.31856 -6.33397,0.31553c-0.73821,0.36106 -3.69289,2.00814 -4.24251,1.68426z" fill="url(#color-10)"/><path d="M249.30613,194.74986c-2.52629,1.97283 -12.74077,-1.11415 -13.62528,-4.34737c-2.28073,-8.33695 8.53975,-13.29506 13.46296,-17.73073c1.44153,-1.29878 4.47462,-6.80719 5.59272,-6.80719c4.76833,0 1.78641,5.47201 0.61107,7.24304c-3.59463,5.41648 -10.65757,7.76637 -14.33575,12.94716c-1.94798,2.74377 3.90493,4.62425 6.15619,4.17399c0.32398,-0.15339 0.68621,-0.23919 1.06848,-0.23919c0.03466,0 0.06917,0.00071 0.1035,0.00211c2.40671,0.06709 2.78356,1.37024 2.39249,2.64081c-0.25984,0.84421 -0.85869,1.67405 -1.42639,2.11738z" fill="url(#color-11)"/><path d="M281.5014,193.2671c-0.99843,0.1669 -1.98527,0.30601 -3.00517,0.17392c-7.53828,-0.97628 -0.01527,-11.97625 3.42025,-7.95406c0.83744,0.98044 0.796,2.14805 1.33887,3.09806c0.73685,0.43488 1.23117,1.23699 1.23117,2.15454c0,1.38071 -1.11929,2.5 -2.5,2.5c-0.09445,0 -0.18769,-0.00524 -0.27943,-0.01544c-0.06787,0.01702 -0.13644,0.0314 -0.20569,0.04297z" fill="url(#color-12)"/><path d="M273.23654,193.23957c1.0059,-1.76033 2.18516,-2.27259 3.29791,-2.36997c1.90069,-0.16633 3.60733,0.87783 3.92456,-1.01991c0.4519,-2.70335 -5.34091,-11.30418 -3.03496,-13.61012c1.66667,-1.66666 2.70833,-1.66666 4.375,0c0.68554,0.68553 0.48314,3.24302 0.77357,4.20697c1.11439,3.69876 3.69952,6.87795 2.67742,10.96638c-0.99942,3.99767 -4.25907,4.99526 -7.85178,4.49208c-0.59184,-0.08289 -2.66373,-0.04397 -2.93054,-0.51089z" fill="url(#color-13)"/><path d="M264.54902,190.48957c-4.03784,-6.72974 2.40104,-11.59217 6.68298,-15.28101c1.10354,-0.95068 2.04228,-3.56207 3.52319,-3.64435c6.54107,-0.36339 2.06414,15.0824 -0.96377,17.83504c0.04582,0.18928 0.0701,0.38696 0.0701,0.59031c0,1.32816 -1.0357,2.41442 -2.34352,2.49519c-2.33314,0.95571 -5.63711,0.22459 -6.96898,-1.99519z" fill="url(#color-14)"/><path d="M280.53689,172.88323c0.97205,6.85651 -0.17813,13.74158 -4.17536,19.35634c-1.21912,1.71245 -4.60555,5.67998 -6.89276,3.39277c-2.55853,-2.55853 4.07079,-7.43677 4.99078,-9.77345c1.91991,-4.87638 0.60163,-9.70021 0.60163,-14.63474c-0.43322,-0.44955 -0.69964,-1.06095 -0.69964,-1.73457c0,-1.27229 0.9504,-2.3226 2.17998,-2.47971c2.22494,-1.06895 3.60488,3.11892 3.99538,5.87337z" fill="url(#color-15)"/><path d="M272.98652,192.61457c-0.74714,1.3075 -1.83696,2.08632 -3.06985,2.43477c-3.46526,0.97937 -8.0609,-1.44114 -9.3555,-5.07843c-2.14936,-6.03875 2.1799,-12.22243 6.66361,-15.81146c1.04561,-0.83696 2.6438,-1.1028 3.5825,-2.06575c1.65425,-1.69699 3.20041,-5.24161 6.04728,-4.46519c1.99158,0.54316 1.15335,3.71217 0.36804,4.9791c-2.74202,4.42366 -8.38541,5.56237 -11.10281,10.24495c-0.3508,0.6045 -0.66397,1.48308 -0.87405,2.15796c-0.90992,2.92302 0.64121,5.05261 3.54346,5.35405c0.74542,0.07743 2.4151,-0.8689 2.96616,0.09546z" fill="url(#color-16)"/><g><g><path d="M232.43584,180.2799c0.32484,0.7311 -0.16324,1.47536 -1.09017,1.66235c-0.92693,0.18699 -1.94168,-0.2541 -2.26652,-0.9852c-0.32484,-0.7311 0.16325,-1.47535 1.09017,-1.66234c0.92693,-0.18699 1.94167,0.25409 2.26651,0.9852z" fill="#906036"/><path d="M232.73598,185.65936c0.32484,0.7311 -0.16325,1.47535 -1.09017,1.66234c-0.92693,0.18699 -1.94167,-0.25409 -2.26651,-0.9852c-0.32484,-0.7311 0.16324,-1.47536 1.09017,-1.66235c0.92693,-0.18699 1.94168,0.2541 2.26652,0.9852z" fill="#906036"/><path d="M225.74856,176.51864c0.32484,0.7311 -0.16324,1.47535 -1.09017,1.66234c-0.92693,0.18699 -1.94168,-0.25409 -2.26652,-0.9852c-0.32484,-0.7311 0.16325,-1.47535 1.09017,-1.66234c0.92693,-0.18699 1.94167,0.25409 2.26651,0.9852z" fill="#906036"/><path d="M216.91371,174.50938c0.32484,0.7311 -0.16324,1.47536 -1.09017,1.66235c-0.92693,0.18699 -1.94168,-0.2541 -2.26652,-0.9852c-0.32484,-0.7311 0.16325,-1.47535 1.09017,-1.66234c0.92693,-0.18699 1.94167,0.25409 2.26651,0.9852z" fill="#906036"/><path d="M210.20033,175.86367c0.32484,0.7311 -0.16324,1.47536 -1.09017,1.66235c-0.92693,0.18699 -1.94167,-0.2541 -2.26651,-0.9852c-0.32484,-0.7311 0.16324,-1.47535 1.09017,-1.66234c0.92693,-0.18699 1.94167,0.25409 2.26651,0.9852z" fill="#906036"/><path d="M207.37242,178.90687c0.32484,0.7311 -0.16324,1.47535 -1.09017,1.66234c-0.92693,0.18699 -1.94168,-0.25409 -2.26652,-0.9852c-0.32484,-0.7311 0.16325,-1.47536 1.09017,-1.66234c0.92693,-0.18699 1.94167,0.2541 2.26651,0.9852z" fill="#906036"/><path d="M208.19062,184.5115c0.32484,0.7311 -0.16324,1.47535 -1.09017,1.66234c-0.92693,0.18699 -1.94168,-0.25409 -2.26652,-0.9852c-0.32484,-0.7311 0.16325,-1.47535 1.09017,-1.66234c0.92693,-0.18699 1.94167,0.25409 2.26651,0.9852z" fill="#ba842c"/><path d="M211.07935,187.72027c0.32484,0.7311 -0.16324,1.47535 -1.09017,1.66234c-0.92693,0.18699 -1.94168,-0.25409 -2.26652,-0.9852c-0.32484,-0.7311 0.16325,-1.47535 1.09017,-1.66234c0.92693,-0.18699 1.94167,0.25409 2.26651,0.9852z" fill="#906036"/><path d="M204.25937,186.95303c0.32484,0.7311 -0.16325,1.47536 -1.09017,1.66234c-0.92693,0.18699 -1.94167,-0.2541 -2.26651,-0.9852c-0.32484,-0.7311 0.16324,-1.47535 1.09017,-1.66234c0.92693,-0.18699 1.94168,0.25409 2.26652,0.9852z" fill="#906036"/><path d="M229.84084,188.55127c0.32484,0.7311 -0.16324,1.47535 -1.09017,1.66234c-0.92693,0.18699 -1.94168,-0.25409 -2.26652,-0.9852c-0.32484,-0.7311 0.16325,-1.47535 1.09017,-1.66234c0.92693,-0.18699 1.94167,0.25409 2.26651,0.9852z" fill="#906036"/><path d="M226.38013,192.05182c0.32484,0.7311 -0.16325,1.47535 -1.09017,1.66234c-0.92693,0.18699 -1.94167,-0.25409 -2.26651,-0.9852c-0.32484,-0.7311 0.16324,-1.47536 1.09017,-1.66235c0.92693,-0.18699 1.94168,0.2541 2.26652,0.9852z" fill="#906036"/><path d="M219.95189,188.40313c0.32484,0.7311 -0.16324,1.47536 -1.09017,1.66235c-0.92693,0.18699 -1.94167,-0.2541 -2.26651,-0.9852c-0.32484,-0.7311 0.16324,-1.47535 1.09017,-1.66234c0.92693,-0.18699 1.94167,0.25409 2.26651,0.9852z" fill="#906036"/><path d="M215.71407,191.5659c0.32484,0.7311 -0.16325,1.47536 -1.09017,1.66234c-0.92693,0.18699 -1.94167,-0.2541 -2.26651,-0.9852c-0.32484,-0.7311 0.16324,-1.47535 1.09017,-1.66234c0.92693,-0.18699 1.94168,0.25409 2.26652,0.9852z" fill="#906036"/><path d="M235.4723,190.87705c0.32484,0.7311 -0.16325,1.47535 -1.09017,1.66234c-0.92693,0.18699 -1.94167,-0.25409 -2.26651,-0.9852c-0.32484,-0.7311 0.16324,-1.47535 1.09017,-1.66234c0.92693,-0.18699 1.94168,0.25409 2.26652,0.9852z" fill="#906036"/><path d="M240.5724,185.89185c0.32484,0.7311 -0.16325,1.47535 -1.09017,1.66234c-0.92693,0.18699 -1.94167,-0.25409 -2.26651,-0.9852c-0.32484,-0.7311 0.16324,-1.47536 1.09017,-1.66235c0.92693,-0.18699 1.94168,0.2541 2.26652,0.9852z" fill="#906036"/><path d="M238.00007,182.45441c0.32484,0.7311 -0.16324,1.47535 -1.09017,1.66234c-0.92693,0.18699 -1.94167,-0.25409 -2.26651,-0.9852c-0.32484,-0.7311 0.16324,-1.47536 1.09017,-1.66235c0.92693,-0.18699 1.94167,0.2541 2.26651,0.9852z" fill="#906036"/><path d="M240.3279,176.87452c0.32484,0.7311 -0.16325,1.47535 -1.09017,1.66234c-0.92693,0.18699 -1.94167,-0.25409 -2.26651,-0.9852c-0.32484,-0.7311 0.16324,-1.47535 1.09017,-1.66234c0.92693,-0.18699 1.94168,0.25409 2.26652,0.9852z" fill="#906036"/><path d="M234.08334,175.9912c0.32484,0.7311 -0.16324,1.47535 -1.09017,1.66234c-0.92693,0.18699 -1.94167,-0.25409 -2.26651,-0.9852c-0.32484,-0.7311 0.16324,-1.47535 1.09017,-1.66234c0.92693,-0.18699 1.94167,0.25409 2.26651,0.9852z" fill="#906036"/><path d="M233.02581,171.25909c0.32484,0.7311 -0.16324,1.47535 -1.09017,1.66234c-0.92693,0.18699 -1.94168,-0.25409 -2.26652,-0.9852c-0.32484,-0.7311 0.16325,-1.47535 1.09017,-1.66234c0.92693,-0.18699 1.94167,0.25409 2.26651,0.9852z" fill="#906036"/><path d="M225.5452,172.76815c0.32484,0.7311 -0.16325,1.47536 -1.09017,1.66234c-0.92693,0.18699 -1.94167,-0.2541 -2.26651,-0.9852c-0.32484,-0.7311 0.16325,-1.47535 1.09017,-1.66234c0.92693,-0.18699 1.94167,0.25409 2.26651,0.9852z" fill="#906036"/><path d="M219.11695,169.11947c0.32484,0.7311 -0.16325,1.47535 -1.09017,1.66234c-0.92693,0.18699 -1.94167,-0.25409 -2.26651,-0.9852c-0.32484,-0.7311 0.16324,-1.47536 1.09017,-1.66235c0.92693,-0.18699 1.94168,0.2541 2.26652,0.9852z" fill="#906036"/><path d="M211.71341,171.27238c0.32484,0.7311 -0.16324,1.47535 -1.09017,1.66234c-0.92693,0.18699 -1.94167,-0.25409 -2.26651,-0.9852c-0.32484,-0.7311 0.16324,-1.47536 1.09017,-1.66235c0.92693,-0.18699 1.94167,0.2541 2.26651,0.9852z" fill="#906036"/><path d="M206.68694,170.3082c0.32484,0.7311 -0.16325,1.47536 -1.09017,1.66234c-0.92693,0.18699 -1.94167,-0.2541 -2.26651,-0.9852c-0.32484,-0.7311 0.16324,-1.47535 1.09017,-1.66234c0.92693,-0.18699 1.94168,0.25409 2.26652,0.9852z" fill="#ba842c"/><path d="M202.19994,173.85093c0.32484,0.7311 -0.16324,1.47536 -1.09017,1.66235c-0.92693,0.18699 -1.94168,-0.2541 -2.26652,-0.9852c-0.32484,-0.7311 0.16325,-1.47535 1.09017,-1.66234c0.92693,-0.18699 1.94167,0.25409 2.26651,0.9852z" fill="#906036"/><path d="M199.42127,179.35692c0.32484,0.7311 -0.16324,1.47536 -1.09017,1.66235c-0.92693,0.18699 -1.94168,-0.2541 -2.26652,-0.9852c-0.32484,-0.7311 0.16325,-1.47535 1.09017,-1.66234c0.92693,-0.18699 1.94167,0.25409 2.26651,0.9852z" fill="#906036"/><path d="M206.23227,181.27991c-0.32484,-0.7311 0.16325,-1.47536 1.09017,-1.66234c0.92693,-0.18699 1.94167,0.2541 2.26651,0.9852c0.32484,0.7311 -0.16324,1.47535 -1.09017,1.66234c-0.92693,0.18699 -1.94168,-0.25409 -2.26652,-0.9852z" fill="#b98252"/><path d="M205.93214,175.90046c-0.32484,-0.7311 0.16324,-1.47536 1.09017,-1.66235c0.92693,-0.18699 1.94168,0.2541 2.26652,0.9852c0.32484,0.7311 -0.16325,1.47535 -1.09017,1.66234c-0.92693,0.18699 -1.94167,-0.25409 -2.26651,-0.9852z" fill="#b98252"/><path d="M212.91955,185.04118c-0.32484,-0.7311 0.16325,-1.47535 1.09017,-1.66234c0.92693,-0.18699 1.94167,0.25409 2.26651,0.9852c0.32484,0.7311 -0.16324,1.47536 -1.09017,1.66235c-0.92693,0.18699 -1.94168,-0.2541 -2.26652,-0.9852z" fill="#b98252"/><path d="M221.7544,187.05043c-0.32484,-0.7311 0.16325,-1.47536 1.09017,-1.66234c0.92693,-0.18699 1.94167,0.2541 2.26651,0.9852c0.32484,0.7311 -0.16324,1.47535 -1.09017,1.66234c-0.92693,0.18699 -1.94168,-0.25409 -2.26652,-0.9852z" fill="#b98252"/><path d="M228.46778,185.69615c-0.32484,-0.7311 0.16324,-1.47536 1.09017,-1.66235c0.92693,-0.18699 1.94168,0.2541 2.26652,0.9852c0.32484,0.7311 -0.16325,1.47535 -1.09017,1.66234c-0.92693,0.18699 -1.94167,-0.25409 -2.26651,-0.9852z" fill="#b98252"/><path d="M231.29569,182.65296c-0.32484,-0.7311 0.16325,-1.47536 1.09017,-1.66234c0.92693,-0.18699 1.94167,0.2541 2.26651,0.9852c0.32484,0.7311 -0.16325,1.47535 -1.09017,1.66234c-0.92693,0.18699 -1.94167,-0.25409 -2.26651,-0.9852z" fill="#b98252"/><path d="M230.47749,177.04832c-0.32484,-0.7311 0.16325,-1.47535 1.09017,-1.66234c0.92693,-0.18699 1.94167,0.25409 2.26651,0.9852c0.32484,0.7311 -0.16324,1.47536 -1.09017,1.66235c-0.92693,0.18699 -1.94168,-0.2541 -2.26652,-0.9852z" fill="#b98252"/><path d="M227.58876,173.83955c-0.32484,-0.7311 0.16325,-1.47535 1.09017,-1.66234c0.92693,-0.18699 1.94167,0.25409 2.26651,0.9852c0.32484,0.7311 -0.16324,1.47536 -1.09017,1.66235c-0.92693,0.18699 -1.94168,-0.2541 -2.26652,-0.9852z" fill="#b98252"/><path d="M237.5368,176.94303c-0.32484,-0.7311 0.16325,-1.47536 1.09017,-1.66234c0.92693,-0.18699 1.94167,0.2541 2.26651,0.9852c0.32484,0.7311 -0.16324,1.47535 -1.09017,1.66234c-0.92693,0.18699 -1.94168,-0.25409 -2.26652,-0.9852z" fill="#b98252"/><path d="M234.40875,174.60679c-0.32484,-0.7311 0.16324,-1.47535 1.09017,-1.66234c0.92693,-0.18699 1.94167,0.25409 2.26651,0.9852c0.32484,0.7311 -0.16324,1.47535 -1.09017,1.66234c-0.92693,0.18699 -1.94167,-0.25409 -2.26651,-0.9852z" fill="#b98252"/><path d="M208.82727,173.00855c-0.32484,-0.7311 0.16325,-1.47535 1.09017,-1.66234c0.92693,-0.18699 1.94167,0.25409 2.26651,0.9852c0.32484,0.7311 -0.16324,1.47536 -1.09017,1.66235c-0.92693,0.18699 -1.94168,-0.2541 -2.26652,-0.9852z" fill="#b98252"/><path d="M212.28799,169.508c-0.32484,-0.7311 0.16324,-1.47535 1.09017,-1.66234c0.92693,-0.18699 1.94168,0.25409 2.26652,0.9852c0.32484,0.7311 -0.16325,1.47536 -1.09017,1.66234c-0.92693,0.18699 -1.94167,-0.2541 -2.26651,-0.9852z" fill="#b98252"/><path d="M218.71622,173.15669c-0.32484,-0.7311 0.16324,-1.47535 1.09017,-1.66234c0.92693,-0.18699 1.94168,0.25409 2.26652,0.9852c0.32484,0.7311 -0.16325,1.47535 -1.09017,1.66234c-0.92693,0.18699 -1.94167,-0.25409 -2.26651,-0.9852z" fill="#b98252"/><path d="M222.95404,169.99392c-0.32484,-0.7311 0.16324,-1.47535 1.09017,-1.66234c0.92693,-0.18699 1.94168,0.25409 2.26652,0.9852c0.32484,0.7311 -0.16325,1.47535 -1.09017,1.66234c-0.92693,0.18699 -1.94167,-0.25409 -2.26651,-0.9852z" fill="#b98252"/><path d="M233.04464,170.59591c-0.32484,-0.7311 0.16324,-1.47535 1.09017,-1.66234c0.92693,-0.18699 1.94168,0.25409 2.26652,0.9852c0.32484,0.7311 -0.16325,1.47535 -1.09017,1.66234c-0.92693,0.18699 -1.94167,-0.25409 -2.26651,-0.9852z" fill="#b98252"/><path d="M226.57874,168.27361c-0.32484,-0.7311 0.16324,-1.47536 1.09017,-1.66235c0.92693,-0.18699 1.94167,0.2541 2.26651,0.9852c0.32484,0.7311 -0.16324,1.47535 -1.09017,1.66234c-0.92693,0.18699 -1.94167,-0.25409 -2.26651,-0.9852z" fill="#b98252"/><path d="M203.19582,170.68277c-0.32484,-0.7311 0.16324,-1.47535 1.09017,-1.66234c0.92693,-0.18699 1.94167,0.25409 2.26651,0.9852c0.32484,0.7311 -0.16324,1.47535 -1.09017,1.66234c-0.92693,0.18699 -1.94167,-0.25409 -2.26651,-0.9852z" fill="#b98252"/><path d="M198.09572,175.66797c-0.32484,-0.7311 0.16324,-1.47536 1.09017,-1.66235c0.92693,-0.18699 1.94168,0.2541 2.26652,0.9852c0.32484,0.7311 -0.16325,1.47535 -1.09017,1.66234c-0.92693,0.18699 -1.94167,-0.25409 -2.26651,-0.9852z" fill="#b98252"/><path d="M200.66804,179.10541c-0.32484,-0.7311 0.16324,-1.47535 1.09017,-1.66234c0.92693,-0.18699 1.94168,0.25409 2.26652,0.9852c0.32484,0.7311 -0.16325,1.47536 -1.09017,1.66234c-0.92693,0.18699 -1.94167,-0.2541 -2.26651,-0.9852z" fill="#b98252"/><path d="M198.34021,184.6853c-0.32484,-0.7311 0.16324,-1.47535 1.09017,-1.66234c0.92693,-0.18699 1.94167,0.25409 2.26651,0.9852c0.32484,0.7311 -0.16324,1.47536 -1.09017,1.66235c-0.92693,0.18699 -1.94167,-0.2541 -2.26651,-0.9852z" fill="#b98252"/><path d="M204.58477,185.56862c-0.32484,-0.7311 0.16324,-1.47535 1.09017,-1.66234c0.92693,-0.18699 1.94168,0.25409 2.26652,0.9852c0.32484,0.7311 -0.16325,1.47536 -1.09017,1.66234c-0.92693,0.18699 -1.94167,-0.2541 -2.26651,-0.9852z" fill="#b98252"/><path d="M205.6423,190.30072c-0.32484,-0.7311 0.16325,-1.47535 1.09017,-1.66234c0.92693,-0.18699 1.94167,0.25409 2.26651,0.9852c0.32484,0.7311 -0.16324,1.47536 -1.09017,1.66235c-0.92693,0.18699 -1.94168,-0.2541 -2.26652,-0.9852z" fill="#b98252"/><path d="M213.12291,188.79166c-0.32484,-0.7311 0.16325,-1.47536 1.09017,-1.66234c0.92693,-0.18699 1.94167,0.2541 2.26651,0.9852c0.32484,0.7311 -0.16324,1.47535 -1.09017,1.66234c-0.92693,0.18699 -1.94168,-0.25409 -2.26652,-0.9852z" fill="#b98252"/><path d="M219.55117,192.44034c-0.32484,-0.7311 0.16324,-1.47535 1.09017,-1.66234c0.92693,-0.18699 1.94167,0.25409 2.26651,0.9852c0.32484,0.7311 -0.16324,1.47536 -1.09017,1.66235c-0.92693,0.18699 -1.94167,-0.2541 -2.26651,-0.9852z" fill="#b98252"/><path d="M226.9547,190.28743c-0.32484,-0.7311 0.16324,-1.47535 1.09017,-1.66234c0.92693,-0.18699 1.94168,0.25409 2.26652,0.9852c0.32484,0.7311 -0.16325,1.47536 -1.09017,1.66234c-0.92693,0.18699 -1.94167,-0.2541 -2.26651,-0.9852z" fill="#b98252"/><path d="M231.98117,191.25162c-0.32484,-0.7311 0.16324,-1.47536 1.09017,-1.66235c0.92693,-0.18699 1.94167,0.2541 2.26651,0.9852c0.32484,0.7311 -0.16324,1.47535 -1.09017,1.66234c-0.92693,0.18699 -1.94167,-0.25409 -2.26651,-0.9852z" fill="#b98252"/><path d="M236.46817,187.70889c-0.32484,-0.7311 0.16325,-1.47535 1.09017,-1.66234c0.92693,-0.18699 1.94167,0.25409 2.26651,0.9852c0.32484,0.7311 -0.16324,1.47535 -1.09017,1.66234c-0.92693,0.18699 -1.94168,-0.25409 -2.26652,-0.9852z" fill="#b98252"/><path d="M241.45524,186.70285c-0.32484,-0.7311 0.16325,-1.47535 1.09017,-1.66234c0.92693,-0.18699 1.94167,0.25409 2.26651,0.9852c0.32484,0.7311 -0.16324,1.47535 -1.09017,1.66234c-0.92693,0.18699 -1.94168,-0.25409 -2.26652,-0.9852z" fill="#b98252"/><path d="M239.24684,182.2029c-0.32484,-0.7311 0.16325,-1.47535 1.09017,-1.66234c0.92693,-0.18699 1.94167,0.25409 2.26651,0.9852c0.32484,0.7311 -0.16324,1.47535 -1.09017,1.66234c-0.92693,0.18699 -1.94168,-0.25409 -2.26652,-0.9852z" fill="#b98252"/><path d="M237.12449,177.19104c0.32484,0.7311 -0.16324,1.47535 -1.09017,1.66234c-0.92693,0.18699 -1.94168,-0.25409 -2.26652,-0.9852c-0.32484,-0.7311 0.16325,-1.47536 1.09017,-1.66234c0.92693,-0.18699 1.94167,0.2541 2.26651,0.9852z" fill="#dba16e"/><path d="M237.42463,182.57049c0.32484,0.7311 -0.16325,1.47535 -1.09017,1.66234c-0.92693,0.18699 -1.94167,-0.25409 -2.26651,-0.9852c-0.32484,-0.7311 0.16324,-1.47535 1.09017,-1.66234c0.92693,-0.18699 1.94168,0.25409 2.26652,0.9852z" fill="#dba16e"/><path d="M230.43721,173.42977c0.32484,0.7311 -0.16324,1.47536 -1.09017,1.66235c-0.92693,0.18699 -1.94167,-0.2541 -2.26651,-0.9852c-0.32484,-0.7311 0.16324,-1.47535 1.09017,-1.66234c0.92693,-0.18699 1.94167,0.25409 2.26651,0.9852z" fill="#dba16e"/><path d="M221.60236,171.42052c0.32484,0.7311 -0.16324,1.47535 -1.09017,1.66234c-0.92693,0.18699 -1.94168,-0.25409 -2.26652,-0.9852c-0.32484,-0.7311 0.16325,-1.47536 1.09017,-1.66234c0.92693,-0.18699 1.94167,0.2541 2.26651,0.9852z" fill="#dba16e"/><path d="M214.88899,172.77481c0.32484,0.7311 -0.16325,1.47535 -1.09017,1.66234c-0.92693,0.18699 -1.94167,-0.25409 -2.26651,-0.9852c-0.32484,-0.7311 0.16324,-1.47536 1.09017,-1.66235c0.92693,-0.18699 1.94168,0.2541 2.26652,0.9852z" fill="#dba16e"/><path d="M212.06107,175.818c0.32484,0.7311 -0.16324,1.47535 -1.09017,1.66234c-0.92693,0.18699 -1.94167,-0.25409 -2.26651,-0.9852c-0.32484,-0.7311 0.16324,-1.47536 1.09017,-1.66235c0.92693,-0.18699 1.94167,0.2541 2.26651,0.9852z" fill="#dba16e"/><path d="M215.76801,184.6314c0.32484,0.7311 -0.16324,1.47536 -1.09017,1.66235c-0.92693,0.18699 -1.94167,-0.2541 -2.26651,-0.9852c-0.32484,-0.7311 0.16324,-1.47535 1.09017,-1.66234c0.92693,-0.18699 1.94167,0.25409 2.26651,0.9852z" fill="#dba16e"/><path d="M205.81996,181.52793c0.32484,0.7311 -0.16324,1.47535 -1.09017,1.66234c-0.92693,0.18699 -1.94167,-0.25409 -2.26651,-0.9852c-0.32484,-0.7311 0.16324,-1.47536 1.09017,-1.66235c0.92693,-0.18699 1.94167,0.2541 2.26651,0.9852z" fill="#dba16e"/><path d="M212.87928,181.42263c0.32484,0.7311 -0.16324,1.47536 -1.09017,1.66235c-0.92693,0.18699 -1.94167,-0.2541 -2.26651,-0.9852c-0.32484,-0.7311 0.16324,-1.47535 1.09017,-1.66234c0.92693,-0.18699 1.94167,0.25409 2.26651,0.9852z" fill="#dba16e"/><path d="M208.94802,183.86416c0.32484,0.7311 -0.16324,1.47536 -1.09017,1.66235c-0.92693,0.18699 -1.94168,-0.2541 -2.26652,-0.9852c-0.32484,-0.7311 0.16325,-1.47535 1.09017,-1.66234c0.92693,-0.18699 1.94167,0.25409 2.26651,0.9852z" fill="#dba16e"/><path d="M234.5295,185.4624c0.32484,0.7311 -0.16324,1.47536 -1.09017,1.66235c-0.92693,0.18699 -1.94167,-0.2541 -2.26651,-0.9852c-0.32484,-0.7311 0.16324,-1.47535 1.09017,-1.66234c0.92693,-0.18699 1.94167,0.25409 2.26651,0.9852z" fill="#dba16e"/><path d="M231.06878,188.96295c0.32484,0.7311 -0.16325,1.47535 -1.09017,1.66234c-0.92693,0.18699 -1.94167,-0.25409 -2.26651,-0.9852c-0.32484,-0.7311 0.16324,-1.47535 1.09017,-1.66234c0.92693,-0.18699 1.94168,0.25409 2.26652,0.9852z" fill="#dba16e"/><path d="M224.64054,185.31426c0.32484,0.7311 -0.16324,1.47536 -1.09017,1.66235c-0.92693,0.18699 -1.94167,-0.2541 -2.26651,-0.9852c-0.32484,-0.7311 0.16324,-1.47535 1.09017,-1.66234c0.92693,-0.18699 1.94167,0.25409 2.26651,0.9852z" fill="#dba16e"/><path d="M220.40273,188.47703c0.32484,0.7311 -0.16325,1.47536 -1.09017,1.66234c-0.92693,0.18699 -1.94167,-0.2541 -2.26651,-0.9852c-0.32484,-0.7311 0.16324,-1.47535 1.09017,-1.66234c0.92693,-0.18699 1.94168,0.25409 2.26652,0.9852z" fill="#dba16e"/><path d="M210.31212,187.87504c0.32484,0.7311 -0.16324,1.47536 -1.09017,1.66235c-0.92693,0.18699 -1.94167,-0.2541 -2.26651,-0.9852c-0.32484,-0.7311 0.16324,-1.47535 1.09017,-1.66234c0.92693,-0.18699 1.94167,0.25409 2.26651,0.9852z" fill="#dba16e"/><path d="M216.77803,190.19734c0.32484,0.7311 -0.16325,1.47535 -1.09017,1.66234c-0.92693,0.18699 -1.94167,-0.25409 -2.26651,-0.9852c-0.32484,-0.7311 0.16324,-1.47536 1.09017,-1.66235c0.92693,-0.18699 1.94168,0.2541 2.26652,0.9852z" fill="#dba16e"/><path d="M240.16095,187.78818c0.32484,0.7311 -0.16325,1.47536 -1.09017,1.66234c-0.92693,0.18699 -1.94167,-0.2541 -2.26651,-0.9852c-0.32484,-0.7311 0.16324,-1.47535 1.09017,-1.66234c0.92693,-0.18699 1.94168,0.25409 2.26652,0.9852z" fill="#dba16e"/><path d="M245.26105,182.80298c0.32484,0.7311 -0.16325,1.47535 -1.09017,1.66234c-0.92693,0.18699 -1.94167,-0.25409 -2.26651,-0.9852c-0.32484,-0.7311 0.16324,-1.47536 1.09017,-1.66235c0.92693,-0.18699 1.94168,0.2541 2.26652,0.9852z" fill="#dba16e"/><path d="M242.68873,179.36554c0.32484,0.7311 -0.16325,1.47535 -1.09017,1.66234c-0.92693,0.18699 -1.94167,-0.25409 -2.26651,-0.9852c-0.32484,-0.7311 0.16324,-1.47535 1.09017,-1.66234c0.92693,-0.18699 1.94168,0.25409 2.26652,0.9852z" fill="#dba16e"/><path d="M238.772,172.90233c0.32484,0.7311 -0.16325,1.47536 -1.09017,1.66234c-0.92693,0.18699 -1.94167,-0.2541 -2.26651,-0.9852c-0.32484,-0.7311 0.16324,-1.47535 1.09017,-1.66234c0.92693,-0.18699 1.94168,0.25409 2.26652,0.9852z" fill="#dba16e"/><path d="M237.71447,168.17022c0.32484,0.7311 -0.16324,1.47536 -1.09017,1.66235c-0.92693,0.18699 -1.94168,-0.2541 -2.26652,-0.9852c-0.32484,-0.7311 0.16325,-1.47535 1.09017,-1.66234c0.92693,-0.18699 1.94167,0.25409 2.26651,0.9852z" fill="#dba16e"/><path d="M230.23385,169.67929c0.32484,0.7311 -0.16324,1.47535 -1.09017,1.66234c-0.92693,0.18699 -1.94168,-0.25409 -2.26652,-0.9852c-0.32484,-0.7311 0.16325,-1.47536 1.09017,-1.66234c0.92693,-0.18699 1.94167,0.2541 2.26651,0.9852z" fill="#dba16e"/><path d="M216.40206,168.18351c0.32484,0.7311 -0.16324,1.47536 -1.09017,1.66235c-0.92693,0.18699 -1.94167,-0.2541 -2.26651,-0.9852c-0.32484,-0.7311 0.16324,-1.47535 1.09017,-1.66234c0.92693,-0.18699 1.94167,0.25409 2.26651,0.9852z" fill="#dba16e"/><path d="M206.8886,170.76206c0.32484,0.7311 -0.16324,1.47536 -1.09017,1.66235c-0.92693,0.18699 -1.94168,-0.2541 -2.26652,-0.9852c-0.32484,-0.7311 0.16325,-1.47535 1.09017,-1.66234c0.92693,-0.18699 1.94167,0.25409 2.26651,0.9852z" fill="#dba16e"/><path d="M201.90153,171.7681c0.32484,0.7311 -0.16324,1.47536 -1.09017,1.66235c-0.92693,0.18699 -1.94168,-0.2541 -2.26652,-0.9852c-0.32484,-0.7311 0.16325,-1.47535 1.09017,-1.66234c0.92693,-0.18699 1.94167,0.25409 2.26651,0.9852z" fill="#dba16e"/><path d="M204.10992,176.26806c0.32484,0.7311 -0.16324,1.47535 -1.09017,1.66234c-0.92693,0.18699 -1.94167,-0.2541 -2.26651,-0.9852c-0.32484,-0.7311 0.16324,-1.47535 1.09017,-1.66234c0.92693,-0.18699 1.94167,0.2541 2.26651,0.9852z" fill="#dba16e"/></g><g><path d="M270.30393,182.40254c0,0.83507 -0.84769,1.51201 -1.89338,1.51201c-1.04569,0 -1.89338,-0.67695 -1.89338,-1.51201c0,-0.83507 0.84769,-1.51201 1.89338,-1.51201c1.04569,0 1.89338,0.67695 1.89338,1.51201z" fill="#906036"/><path d="M268.14006,188.10499c0,0.83507 -0.8477,1.51201 -1.89339,1.51201c-1.04569,0 -1.89338,-0.67695 -1.89338,-1.51201c0,-0.83507 0.84769,-1.51201 1.89338,-1.51201c1.04569,0 1.89339,0.67695 1.89339,1.51201z" fill="#906036"/><path d="M265.11064,177.0457c0,0.83507 -0.84769,1.51201 -1.89338,1.51201c-1.04569,0 -1.89338,-0.67695 -1.89338,-1.51201c0,-0.83507 0.84769,-1.51201 1.89338,-1.51201c1.04569,0 1.89338,0.67695 1.89338,1.51201z" fill="#906036"/><path d="M256.88796,173.07127c0,0.83507 -0.84769,1.51201 -1.89338,1.51201c-1.04569,0 -1.89338,-0.67695 -1.89338,-1.51201c0,-0.83507 0.84769,-1.51201 1.89338,-1.51201c1.04569,0 1.89338,0.67695 1.89338,1.51201z" fill="#906036"/><path d="M249.31443,173.07127c0,0.83507 -0.84769,1.51201 -1.89338,1.51201c-1.04569,0 -1.89338,-0.67695 -1.89338,-1.51201c0,-0.83507 0.84769,-1.51201 1.89338,-1.51201c1.04569,0 1.89338,0.67695 1.89338,1.51201z" fill="#906036"/><path d="M244.9867,175.66328c0,0.83507 -0.84769,1.51201 -1.89338,1.51201c-1.04569,0 -1.89338,-0.67695 -1.89338,-1.51201c0,-0.83507 0.84769,-1.51201 1.89338,-1.51201c1.04569,0 1.89338,0.67695 1.89338,1.51201z" fill="#906036"/><path d="M243.25561,181.71133c0,0.83507 -0.84769,1.51201 -1.89338,1.51201c-1.04569,0 -1.89338,-0.67695 -1.89338,-1.51201c0,-0.83507 0.84769,-1.51201 1.89338,-1.51201c1.04569,0 1.89338,0.67695 1.89338,1.51201z" fill="#ba842c"/><path d="M244.77031,185.68577c0,0.83507 -0.84769,1.51201 -1.89338,1.51201c-1.04569,0 -1.89338,-0.67695 -1.89338,-1.51201c0,-0.83507 0.84769,-1.51201 1.89338,-1.51201c1.04569,0 1.89338,0.67695 1.89338,1.51201z" fill="#906036"/><path d="M238.06233,183.43934c0,0.83507 -0.84769,1.51201 -1.89338,1.51201c-1.04569,0 -1.89338,-0.67695 -1.89338,-1.51201c0,-0.83507 0.84769,-1.51201 1.89338,-1.51201c1.04569,0 1.89338,0.67695 1.89338,1.51201z" fill="#906036"/><path d="M263.81233,190.52421c0,0.83507 -0.84769,1.51201 -1.89338,1.51201c-1.04569,0 -1.89338,-0.67695 -1.89338,-1.51201c0,-0.83507 0.84769,-1.51201 1.89338,-1.51201c1.04569,0 1.89338,0.67695 1.89338,1.51201z" fill="#906036"/><path d="M258.61906,193.46183c0,0.83507 -0.84769,1.51201 -1.89338,1.51201c-1.04569,0 -1.89338,-0.67695 -1.89338,-1.51201c0,-0.83507 0.84769,-1.51201 1.89338,-1.51201c1.04569,0 1.89338,0.67695 1.89338,1.51201z" fill="#906036"/><path d="M253.64217,188.27778c0,0.83507 -0.84769,1.51201 -1.89338,1.51201c-1.04569,0 -1.89338,-0.67695 -1.89338,-1.51201c0,-0.83507 0.84769,-1.51201 1.89338,-1.51201c1.04569,0 1.89338,0.67695 1.89338,1.51201z" fill="#906036"/><path d="M247.79972,190.697c0,0.83507 -0.84769,1.51201 -1.89338,1.51201c-1.04569,0 -1.89338,-0.67695 -1.89338,-1.51201c0,-0.83507 0.84769,-1.51201 1.89338,-1.51201c1.04569,0 1.89338,0.67695 1.89338,1.51201z" fill="#906036"/><path d="M268.57284,194.15304c0,0.83507 -0.84769,1.51201 -1.89338,1.51201c-1.04569,0 -1.89338,-0.67695 -1.89338,-1.51201c0,-0.83507 0.84769,-1.51201 1.89338,-1.51201c1.04569,0 1.89338,0.67695 1.89338,1.51201z" fill="#906036"/><path d="M276.14637,190.00581c0,0.83507 -0.84769,1.51201 -1.89338,1.51201c-1.04569,0 -1.89339,-0.67695 -1.89339,-1.51201c0,-0.83507 0.8477,-1.51201 1.89339,-1.51201c1.04569,0 1.89338,0.67695 1.89338,1.51201z" fill="#906036"/><path d="M275.06444,185.85858c0,0.83507 -0.84769,1.51201 -1.89338,1.51201c-1.04569,0 -1.89339,-0.67695 -1.89339,-1.51201c0,-0.83507 0.8477,-1.51201 1.89339,-1.51201c1.04569,0 1.89338,0.67695 1.89338,1.51201z" fill="#906036"/><path d="M280.04132,180.50173c0,0.83507 -0.84769,1.51201 -1.89338,1.51201c-1.04569,0 -1.89338,-0.67695 -1.89338,-1.51201c0,-0.83507 0.84769,-1.51201 1.89338,-1.51201c1.04569,0 1.89338,0.67695 1.89338,1.51201z" fill="#906036"/><path d="M273.9825,178.25531c0,0.83507 -0.84769,1.51201 -1.89338,1.51201c-1.04569,0 -1.89338,-0.67695 -1.89338,-1.51201c0,-0.83507 0.84769,-1.51201 1.89338,-1.51201c1.04569,0 1.89338,0.67695 1.89338,1.51201z" fill="#906036"/><path d="M275.06444,173.07127c0,0.83507 -0.84769,1.51201 -1.89338,1.51201c-1.04569,0 -1.89339,-0.67695 -1.89339,-1.51201c0,-0.83507 0.8477,-1.51201 1.89339,-1.51201c1.04569,0 1.89338,0.67695 1.89338,1.51201z" fill="#906036"/><path d="M266.62537,173.07127c0,0.83507 -0.84769,1.51201 -1.89338,1.51201c-1.04569,0 -1.89338,-0.67695 -1.89338,-1.51201c0,-0.83507 0.84769,-1.51201 1.89338,-1.51201c1.04569,0 1.89338,0.67695 1.89338,1.51201z" fill="#906036"/><path d="M261.64847,167.88722c0,0.83507 -0.84769,1.51201 -1.89338,1.51201c-1.04569,0 -1.89338,-0.67695 -1.89338,-1.51201c0,-0.83507 0.84769,-1.51201 1.89338,-1.51201c1.04569,0 1.89338,0.67695 1.89338,1.51201z" fill="#906036"/><path d="M252.99301,168.57843c0,0.83507 -0.84769,1.51201 -1.89338,1.51201c-1.04569,0 -1.89338,-0.67695 -1.89338,-1.51201c0,-0.83507 0.84769,-1.51201 1.89338,-1.51201c1.04569,0 1.89338,0.67695 1.89338,1.51201z" fill="#906036"/><path d="M248.23251,166.50482c0,0.83507 -0.84769,1.51201 -1.89338,1.51201c-1.04569,0 -1.89338,-0.67695 -1.89338,-1.51201c0,-0.83507 0.84769,-1.51201 1.89338,-1.51201c1.04569,0 1.89338,0.67695 1.89338,1.51201z" fill="#ba842c"/><path d="M241.95729,169.26963c0,0.83507 -0.84769,1.51201 -1.89338,1.51201c-1.04569,0 -1.89338,-0.67695 -1.89338,-1.51201c0,-0.83507 0.84769,-1.51201 1.89338,-1.51201c1.04569,0 1.89338,0.67695 1.89338,1.51201z" fill="#906036"/><path d="M236.54763,174.45368c0,0.83507 -0.8477,1.51201 -1.89339,1.51201c-1.04569,0 -1.89338,-0.67695 -1.89338,-1.51201c0,-0.83507 0.84769,-1.51201 1.89338,-1.51201c1.04569,0 1.89339,0.67695 1.89339,1.51201z" fill="#906036"/><path d="M242.71464,177.90972c0,-0.83507 0.84769,-1.51201 1.89338,-1.51201c1.04569,0 1.89338,0.67695 1.89338,1.51201c0,0.83507 -0.84769,1.51201 -1.89338,1.51201c-1.04569,0 -1.89338,-0.67695 -1.89338,-1.51201z" fill="#b98252"/><path d="M244.87852,172.20727c0,-0.83507 0.84769,-1.51201 1.89338,-1.51201c1.04569,0 1.89338,0.67695 1.89338,1.51201c0,0.83507 -0.84769,1.51201 -1.89338,1.51201c-1.04569,0 -1.89338,-0.67695 -1.89338,-1.51201z" fill="#b98252"/><path d="M247.90793,183.26656c0,-0.83507 0.84769,-1.51201 1.89338,-1.51201c1.04569,0 1.89338,0.67695 1.89338,1.51201c0,0.83507 -0.84769,1.51201 -1.89338,1.51201c-1.04569,0 -1.89338,-0.67695 -1.89338,-1.51201z" fill="#b98252"/><path d="M256.13062,187.24099c0,-0.83507 0.84769,-1.51201 1.89338,-1.51201c1.04569,0 1.89338,0.67695 1.89338,1.51201c0,0.83507 -0.84769,1.51201 -1.89338,1.51201c-1.04569,0 -1.89338,-0.67695 -1.89338,-1.51201z" fill="#b98252"/><path d="M263.70415,187.24099c0,-0.83507 0.84769,-1.51201 1.89338,-1.51201c1.04569,0 1.89338,0.67695 1.89338,1.51201c0,0.83507 -0.84769,1.51201 -1.89338,1.51201c-1.04569,0 -1.89338,-0.67695 -1.89338,-1.51201z" fill="#b98252"/><path d="M268.03188,184.64898c0,-0.83507 0.84769,-1.51201 1.89338,-1.51201c1.04569,0 1.89339,0.67695 1.89339,1.51201c0,0.83507 -0.8477,1.51201 -1.89339,1.51201c-1.04569,0 -1.89338,-0.67695 -1.89338,-1.51201z" fill="#b98252"/><path d="M269.76297,178.60093c0,-0.83507 0.8477,-1.51201 1.89339,-1.51201c1.04569,0 1.89338,0.67695 1.89338,1.51201c0,0.83507 -0.84769,1.51201 -1.89338,1.51201c-1.04569,0 -1.89339,-0.67695 -1.89339,-1.51201z" fill="#b98252"/><path d="M268.24827,174.62649c0,-0.83507 0.84769,-1.51201 1.89338,-1.51201c1.04569,0 1.89339,0.67695 1.89339,1.51201c0,0.83507 -0.8477,1.51201 -1.89339,1.51201c-1.04569,0 -1.89338,-0.67695 -1.89338,-1.51201z" fill="#b98252"/><path d="M277.12011,179.98333c0,-0.83507 0.84769,-1.51201 1.89338,-1.51201c1.04569,0 1.89339,0.67695 1.89339,1.51201c0,0.83507 -0.8477,1.51201 -1.89339,1.51201c-1.04569,0 -1.89338,-0.67695 -1.89338,-1.51201z" fill="#b98252"/><path d="M274.95625,176.87292c0,-0.83507 0.84769,-1.51201 1.89338,-1.51201c1.04569,0 1.89338,0.67695 1.89338,1.51201c0,0.83507 -0.84769,1.51201 -1.89338,1.51201c-1.04569,0 -1.89338,-0.67695 -1.89338,-1.51201z" fill="#b98252"/><path d="M249.20625,169.78805c0,-0.83507 0.84769,-1.51201 1.89338,-1.51201c1.04569,0 1.89338,0.67695 1.89338,1.51201c0,0.83507 -0.84769,1.51201 -1.89338,1.51201c-1.04569,0 -1.89338,-0.67695 -1.89338,-1.51201z" fill="#b98252"/><path d="M254.39952,166.85043c0,-0.83507 0.84769,-1.51201 1.89339,-1.51201c1.04569,0 1.89338,0.67695 1.89338,1.51201c0,0.83507 -0.84769,1.51201 -1.89338,1.51201c-1.04569,0 -1.89339,-0.67695 -1.89339,-1.51201z" fill="#b98252"/><path d="M259.3764,172.03448c0,-0.83507 0.8477,-1.51201 1.89339,-1.51201c1.04569,0 1.89338,0.67695 1.89338,1.51201c0,0.83507 -0.84769,1.51201 -1.89338,1.51201c-1.04569,0 -1.89339,-0.67695 -1.89339,-1.51201z" fill="#b98252"/><path d="M265.21885,169.61526c0,-0.83507 0.84769,-1.51201 1.89338,-1.51201c1.04569,0 1.89339,0.67695 1.89339,1.51201c0,0.83507 -0.8477,1.51201 -1.89339,1.51201c-1.04569,0 -1.89338,-0.67695 -1.89338,-1.51201z" fill="#b98252"/><path d="M275.38901,172.38007c0,-0.83507 0.8477,-1.51201 1.89339,-1.51201c1.04569,0 1.89338,0.67695 1.89338,1.51201c0,0.83507 -0.84769,1.51201 -1.89338,1.51201c-1.04569,0 -1.89339,-0.67695 -1.89339,-1.51201z" fill="#b98252"/><path d="M269.76297,168.57844c0,-0.83507 0.8477,-1.51201 1.89339,-1.51201c1.04569,0 1.89338,0.67695 1.89338,1.51201c0,0.83507 -0.84769,1.51201 -1.89338,1.51201c-1.04569,0 -1.89339,-0.67695 -1.89339,-1.51201z" fill="#b98252"/><path d="M244.44574,166.15922c0,-0.83507 0.84769,-1.51201 1.89338,-1.51201c1.04569,0 1.89338,0.67695 1.89338,1.51201c0,0.83507 -0.84769,1.51201 -1.89338,1.51201c-1.04569,0 -1.89338,-0.67695 -1.89338,-1.51201z" fill="#b98252"/><path d="M236.87221,170.30645c0,-0.83507 0.84769,-1.51201 1.89338,-1.51201c1.04569,0 1.89338,0.67695 1.89338,1.51201c0,0.83507 -0.84769,1.51201 -1.89338,1.51201c-1.04569,0 -1.89338,-0.67695 -1.89338,-1.51201z" fill="#b98252"/><path d="M237.95414,174.45368c0,-0.83507 0.84769,-1.51201 1.89338,-1.51201c1.04569,0 1.89339,0.67695 1.89339,1.51201c0,0.83507 -0.8477,1.51201 -1.89339,1.51201c-1.04569,0 -1.89338,-0.67695 -1.89338,-1.51201z" fill="#b98252"/><path d="M232.97725,179.81053c0,-0.83507 0.84769,-1.51201 1.89338,-1.51201c1.04569,0 1.89338,0.67695 1.89338,1.51201c0,0.83507 -0.84769,1.51201 -1.89338,1.51201c-1.04569,0 -1.89338,-0.67695 -1.89338,-1.51201z" fill="#b98252"/><path d="M239.03608,182.05695c0,-0.83507 0.84769,-1.51201 1.89338,-1.51201c1.04569,0 1.89338,0.67695 1.89338,1.51201c0,0.83507 -0.84769,1.51201 -1.89338,1.51201c-1.04569,0 -1.89338,-0.67695 -1.89338,-1.51201z" fill="#b98252"/><path d="M237.95414,187.24099c0,-0.83507 0.84769,-1.51201 1.89338,-1.51201c1.04569,0 1.89339,0.67695 1.89339,1.51201c0,0.83507 -0.8477,1.51201 -1.89339,1.51201c-1.04569,0 -1.89338,-0.67695 -1.89338,-1.51201z" fill="#b98252"/><path d="M246.39321,187.24099c0,-0.83507 0.84769,-1.51201 1.89338,-1.51201c1.04569,0 1.89338,0.67695 1.89338,1.51201c0,0.83507 -0.84769,1.51201 -1.89338,1.51201c-1.04569,0 -1.89338,-0.67695 -1.89338,-1.51201z" fill="#b98252"/><path d="M251.37011,192.42504c0,-0.83507 0.84769,-1.51201 1.89338,-1.51201c1.04569,0 1.89339,0.67695 1.89339,1.51201c0,0.83507 -0.8477,1.51201 -1.89339,1.51201c-1.04569,0 -1.89338,-0.67695 -1.89338,-1.51201z" fill="#b98252"/><path d="M260.02557,191.73383c0,-0.83507 0.84769,-1.51201 1.89338,-1.51201c1.04569,0 1.89338,0.67695 1.89338,1.51201c0,0.83507 -0.84769,1.51201 -1.89338,1.51201c-1.04569,0 -1.89338,-0.67695 -1.89338,-1.51201z" fill="#b98252"/><path d="M264.78607,193.80744c0,-0.83507 0.84769,-1.51201 1.89338,-1.51201c1.04569,0 1.89338,0.67695 1.89338,1.51201c0,0.83507 -0.84769,1.51201 -1.89338,1.51201c-1.04569,0 -1.89338,-0.67695 -1.89338,-1.51201z" fill="#b98252"/><path d="M271.06129,191.04263c0,-0.83507 0.8477,-1.51201 1.89339,-1.51201c1.04569,0 1.89338,0.67695 1.89338,1.51201c0,0.83507 -0.84769,1.51201 -1.89338,1.51201c-1.04569,0 -1.89339,-0.67695 -1.89339,-1.51201z" fill="#b98252"/><path d="M276.68733,191.04263c0,-0.83507 0.8477,-1.51201 1.89339,-1.51201c1.04569,0 1.89338,0.67695 1.89338,1.51201c0,0.83507 -0.84769,1.51201 -1.89338,1.51201c-1.04569,0 -1.89339,-0.67695 -1.89339,-1.51201z" fill="#b98252"/><path d="M276.47095,185.85858c0,-0.83507 0.84769,-1.51201 1.89338,-1.51201c1.04569,0 1.89338,0.67695 1.89338,1.51201c0,0.83507 -0.84769,1.51201 -1.89338,1.51201c-1.04569,0 -1.89338,-0.67695 -1.89338,-1.51201z" fill="#b98252"/><path d="M276.57915,180.15612c0,0.83507 -0.84769,1.51201 -1.89338,1.51201c-1.04569,0 -1.89339,-0.67695 -1.89339,-1.51201c0,-0.83507 0.8477,-1.51201 1.89339,-1.51201c1.04569,0 1.89338,0.67695 1.89338,1.51201z" fill="#dba16e"/><path d="M274.41527,185.85858c0,0.83507 -0.8477,1.51201 -1.89339,1.51201c-1.04569,0 -1.89338,-0.67695 -1.89338,-1.51201c0,-0.83507 0.84769,-1.51201 1.89338,-1.51201c1.04569,0 1.89339,0.67695 1.89339,1.51201z" fill="#dba16e"/><path d="M271.38586,174.79928c0,0.83507 -0.84769,1.51201 -1.89338,1.51201c-1.04569,0 -1.89339,-0.67695 -1.89339,-1.51201c0,-0.83507 0.8477,-1.51201 1.89339,-1.51201c1.04569,0 1.89338,0.67695 1.89338,1.51201z" fill="#dba16e"/><path d="M263.16317,170.82485c0,0.83507 -0.84769,1.51201 -1.89338,1.51201c-1.04569,0 -1.89339,-0.67695 -1.89339,-1.51201c0,-0.83507 0.8477,-1.51201 1.89339,-1.51201c1.04569,0 1.89338,0.67695 1.89338,1.51201z" fill="#dba16e"/><path d="M255.58964,170.82485c0,0.83507 -0.84769,1.51201 -1.89338,1.51201c-1.04569,0 -1.89338,-0.67695 -1.89338,-1.51201c0,-0.83507 0.84769,-1.51201 1.89338,-1.51201c1.04569,0 1.89338,0.67695 1.89338,1.51201z" fill="#dba16e"/><path d="M251.26192,173.41687c0,0.83507 -0.84769,1.51201 -1.89338,1.51201c-1.04569,0 -1.89338,-0.67695 -1.89338,-1.51201c0,-0.83507 0.84769,-1.51201 1.89338,-1.51201c1.04569,0 1.89338,0.67695 1.89338,1.51201z" fill="#dba16e"/><path d="M251.04553,183.43936c0,0.83507 -0.84769,1.51201 -1.89338,1.51201c-1.04569,0 -1.89338,-0.67695 -1.89338,-1.51201c0,-0.83507 0.84769,-1.51201 1.89338,-1.51201c1.04569,0 1.89338,0.67695 1.89338,1.51201z" fill="#dba16e"/><path d="M242.17368,178.08251c0,0.83507 -0.84769,1.51201 -1.89338,1.51201c-1.04569,0 -1.89339,-0.67695 -1.89339,-1.51201c0,-0.83507 0.8477,-1.51201 1.89339,-1.51201c1.04569,0 1.89338,0.67695 1.89338,1.51201z" fill="#dba16e"/><path d="M249.53082,179.46492c0,0.83507 -0.84769,1.51201 -1.89338,1.51201c-1.04569,0 -1.89338,-0.67695 -1.89338,-1.51201c0,-0.83507 0.84769,-1.51201 1.89338,-1.51201c1.04569,0 1.89338,0.67695 1.89338,1.51201z" fill="#dba16e"/><path d="M244.33755,181.19293c0,0.83507 -0.84769,1.51201 -1.89338,1.51201c-1.04569,0 -1.89338,-0.67695 -1.89338,-1.51201c0,-0.83507 0.84769,-1.51201 1.89338,-1.51201c1.04569,0 1.89338,0.67695 1.89338,1.51201z" fill="#dba16e"/><path d="M270.08754,188.2778c0,0.83507 -0.84769,1.51201 -1.89338,1.51201c-1.04569,0 -1.89339,-0.67695 -1.89339,-1.51201c0,-0.83507 0.8477,-1.51201 1.89339,-1.51201c1.04569,0 1.89338,0.67695 1.89338,1.51201z" fill="#dba16e"/><path d="M264.89427,191.21542c0,0.83507 -0.84769,1.51201 -1.89338,1.51201c-1.04569,0 -1.89339,-0.67695 -1.89339,-1.51201c0,-0.83507 0.8477,-1.51201 1.89339,-1.51201c1.04569,0 1.89338,0.67695 1.89338,1.51201z" fill="#dba16e"/><path d="M259.91738,186.03137c0,0.83507 -0.84769,1.51201 -1.89338,1.51201c-1.04569,0 -1.89338,-0.67695 -1.89338,-1.51201c0,-0.83507 0.84769,-1.51201 1.89338,-1.51201c1.04569,0 1.89338,0.67695 1.89338,1.51201z" fill="#dba16e"/><path d="M254.07494,188.45059c0,0.83507 -0.84769,1.51201 -1.89338,1.51201c-1.04569,0 -1.89338,-0.67695 -1.89338,-1.51201c0,-0.83507 0.84769,-1.51201 1.89338,-1.51201c1.04569,0 1.89338,0.67695 1.89338,1.51201z" fill="#dba16e"/><path d="M243.90478,185.68577c0,0.83507 -0.84769,1.51201 -1.89338,1.51201c-1.04569,0 -1.89338,-0.67695 -1.89338,-1.51201c0,-0.83507 0.84769,-1.51201 1.89338,-1.51201c1.04569,0 1.89338,0.67695 1.89338,1.51201z" fill="#dba16e"/><path d="M249.53082,189.48741c0,0.83507 -0.84769,1.51201 -1.89338,1.51201c-1.04569,0 -1.89338,-0.67695 -1.89338,-1.51201c0,-0.83507 0.84769,-1.51201 1.89338,-1.51201c1.04569,0 1.89338,0.67695 1.89338,1.51201z" fill="#dba16e"/><path d="M274.84805,191.90663c0,0.83507 -0.84769,1.51201 -1.89338,1.51201c-1.04569,0 -1.89339,-0.67695 -1.89339,-1.51201c0,-0.83507 0.8477,-1.51201 1.89339,-1.51201c1.04569,0 1.89338,0.67695 1.89338,1.51201z" fill="#dba16e"/><path d="M282.42158,187.75939c0,0.83507 -0.8477,1.51201 -1.89339,1.51201c-1.04569,0 -1.89338,-0.67695 -1.89338,-1.51201c0,-0.83507 0.84769,-1.51201 1.89338,-1.51201c1.04569,0 1.89339,0.67695 1.89339,1.51201z" fill="#dba16e"/><path d="M281.33966,183.61216c0,0.83507 -0.84769,1.51201 -1.89338,1.51201c-1.04569,0 -1.89339,-0.67695 -1.89339,-1.51201c0,-0.83507 0.8477,-1.51201 1.89339,-1.51201c1.04569,0 1.89338,0.67695 1.89338,1.51201z" fill="#dba16e"/><path d="M280.25772,176.00889c0,0.83507 -0.84769,1.51201 -1.89338,1.51201c-1.04569,0 -1.89338,-0.67695 -1.89338,-1.51201c0,-0.83507 0.84769,-1.51201 1.89338,-1.51201c1.04569,0 1.89338,0.67695 1.89338,1.51201z" fill="#dba16e"/><path d="M281.33966,170.82485c0,0.83507 -0.84769,1.51201 -1.89338,1.51201c-1.04569,0 -1.89339,-0.67695 -1.89339,-1.51201c0,-0.83507 0.8477,-1.51201 1.89339,-1.51201c1.04569,0 1.89338,0.67695 1.89338,1.51201z" fill="#dba16e"/><path d="M272.90058,170.82485c0,0.83507 -0.84769,1.51201 -1.89338,1.51201c-1.04569,0 -1.89338,-0.67695 -1.89338,-1.51201c0,-0.83507 0.84769,-1.51201 1.89338,-1.51201c1.04569,0 1.89338,0.67695 1.89338,1.51201z" fill="#dba16e"/><path d="M259.26823,166.33201c0,0.83507 -0.84769,1.51201 -1.89338,1.51201c-1.04569,0 -1.89338,-0.67695 -1.89338,-1.51201c0,-0.83507 0.8477,-1.51201 1.89338,-1.51201c1.04569,0 1.89338,0.67695 1.89338,1.51201z" fill="#dba16e"/><path d="M248.23251,167.02322c0,0.83507 -0.84769,1.51201 -1.89338,1.51201c-1.04569,0 -1.89338,-0.67695 -1.89338,-1.51201c0,-0.83507 0.84769,-1.51201 1.89338,-1.51201c1.04569,0 1.89338,0.67695 1.89338,1.51201z" fill="#dba16e"/><path d="M242.60646,167.02322c0,0.83507 -0.84769,1.51201 -1.89338,1.51201c-1.04569,0 -1.89338,-0.67695 -1.89338,-1.51201c0,-0.83507 0.84769,-1.51201 1.89338,-1.51201c1.04569,0 1.89338,0.67695 1.89338,1.51201z" fill="#dba16e"/><path d="M242.82284,172.20727c0,0.83507 -0.84769,1.51201 -1.89338,1.51201c-1.04569,0 -1.89338,-0.67695 -1.89338,-1.51201c0,-0.83507 0.84769,-1.51201 1.89338,-1.51201c1.04569,0 1.89338,0.67695 1.89338,1.51201z" fill="#dba16e"/></g><g><path d="M253.88415,182.61564c0,0.72738 -0.97998,1.31703 -2.18886,1.31703c-1.20888,0 -2.18886,-0.58965 -2.18886,-1.31703c0,-0.72738 0.97998,-1.31703 2.18886,-1.31703c1.20888,0 2.18886,0.58965 2.18886,1.31703z" fill="#906036"/><path d="M251.38258,187.58272c0,0.72738 -0.97998,1.31703 -2.18886,1.31703c-1.20888,0 -2.18886,-0.58965 -2.18886,-1.31703c0,-0.72738 0.97998,-1.31703 2.18886,-1.31703c1.20888,0 2.18886,0.58965 2.18886,1.31703z" fill="#906036"/><path d="M247.8804,177.94961c0,0.72738 -0.97998,1.31703 -2.18886,1.31703c-1.20888,0 -2.18886,-0.58965 -2.18886,-1.31703c0,-0.72738 0.97998,-1.31703 2.18886,-1.31703c1.20888,0 2.18886,0.58965 2.18886,1.31703z" fill="#906036"/><path d="M238.37449,174.48771c0,0.72738 -0.97998,1.31703 -2.18886,1.31703c-1.20888,0 -2.18886,-0.58965 -2.18886,-1.31703c0,-0.72738 0.97998,-1.31703 2.18886,-1.31703c1.20888,0 2.18886,0.58965 2.18886,1.31703z" fill="#906036"/><path d="M229.61904,174.48771c0,0.72738 -0.97998,1.31703 -2.18886,1.31703c-1.20888,0 -2.18886,-0.58965 -2.18886,-1.31703c0,-0.72738 0.97998,-1.31703 2.18886,-1.31703c1.20888,0 2.18886,0.58965 2.18886,1.31703z" fill="#906036"/><path d="M224.61593,176.74547c0,0.72738 -0.97998,1.31703 -2.18886,1.31703c-1.20888,0 -2.18886,-0.58965 -2.18886,-1.31703c0,-0.72738 0.97998,-1.31703 2.18886,-1.31703c1.20888,0 2.18886,0.58965 2.18886,1.31703z" fill="#906036"/><path d="M222.61468,182.01357c0,0.72738 -0.97998,1.31703 -2.18886,1.31703c-1.20888,0 -2.18886,-0.58965 -2.18886,-1.31703c0,-0.72738 0.97998,-1.31703 2.18886,-1.31703c1.20888,0 2.18886,0.58965 2.18886,1.31703z" fill="#ba842c"/><path d="M224.36577,185.47548c0,0.72738 -0.97998,1.31703 -2.18886,1.31703c-1.20888,0 -2.18886,-0.58965 -2.18886,-1.31703c0,-0.72738 0.97998,-1.31703 2.18886,-1.31703c1.20888,0 2.18886,0.58965 2.18886,1.31703z" fill="#906036"/><path d="M216.61095,183.51874c0,0.72738 -0.97998,1.31703 -2.18886,1.31703c-1.20888,0 -2.18886,-0.58965 -2.18886,-1.31703c0,-0.72738 0.97998,-1.31703 2.18886,-1.31703c1.20888,0 2.18886,0.58965 2.18886,1.31703z" fill="#906036"/><path d="M246.37947,189.68996c0,0.72738 -0.97998,1.31703 -2.18886,1.31703c-1.20888,0 -2.18886,-0.58965 -2.18886,-1.31703c0,-0.72738 0.97998,-1.31703 2.18886,-1.31703c1.20888,0 2.18886,0.58965 2.18886,1.31703z" fill="#906036"/><path d="M240.37574,192.24875c0,0.72738 -0.97998,1.31703 -2.18886,1.31703c-1.20888,0 -2.18886,-0.58965 -2.18886,-1.31703c0,-0.72738 0.97998,-1.31703 2.18886,-1.31703c1.20888,0 2.18886,0.58965 2.18886,1.31703z" fill="#906036"/><path d="M234.62217,187.73323c0,0.72738 -0.97998,1.31703 -2.18886,1.31703c-1.20888,0 -2.18886,-0.58965 -2.18886,-1.31703c0,-0.72738 0.97998,-1.31703 2.18886,-1.31703c1.20888,0 2.18886,0.58965 2.18886,1.31703z" fill="#906036"/><path d="M227.86795,189.84047c0,0.72738 -0.97998,1.31703 -2.18886,1.31703c-1.20888,0 -2.18886,-0.58965 -2.18886,-1.31703c0,-0.72738 0.97998,-1.31703 2.18886,-1.31703c1.20888,0 2.18886,0.58965 2.18886,1.31703z" fill="#906036"/><path d="M251.8829,192.85082c0,0.72738 -0.97998,1.31703 -2.18886,1.31703c-1.20888,0 -2.18886,-0.58965 -2.18886,-1.31703c0,-0.72738 0.97998,-1.31703 2.18886,-1.31703c1.20888,0 2.18886,0.58965 2.18886,1.31703z" fill="#906036"/><path d="M260.63834,189.23841c0,0.72738 -0.97998,1.31703 -2.18886,1.31703c-1.20888,0 -2.18886,-0.58965 -2.18886,-1.31703c0,-0.72738 0.97998,-1.31703 2.18886,-1.31703c1.20888,0 2.18886,0.58965 2.18886,1.31703z" fill="#906036"/><path d="M259.38757,185.626c0,0.72738 -0.97998,1.31703 -2.18886,1.31703c-1.20888,0 -2.18886,-0.58965 -2.18886,-1.31703c0,-0.72738 0.97998,-1.31703 2.18886,-1.31703c1.20888,0 2.18886,0.58965 2.18886,1.31703z" fill="#906036"/><path d="M265.14115,180.95996c0,0.72738 -0.97998,1.31703 -2.18886,1.31703c-1.20888,0 -2.18886,-0.58965 -2.18886,-1.31703c0,-0.72738 0.97998,-1.31703 2.18886,-1.31703c1.20888,0 2.18886,0.58965 2.18886,1.31703z" fill="#906036"/><path d="M258.13679,179.00323c0,0.72738 -0.97998,1.31703 -2.18886,1.31703c-1.20888,0 -2.18886,-0.58965 -2.18886,-1.31703c0,-0.72738 0.97998,-1.31703 2.18886,-1.31703c1.20888,0 2.18886,0.58965 2.18886,1.31703z" fill="#906036"/><path d="M259.38757,174.48771c0,0.72738 -0.97998,1.31703 -2.18886,1.31703c-1.20888,0 -2.18886,-0.58965 -2.18886,-1.31703c0,-0.72738 0.97998,-1.31703 2.18886,-1.31703c1.20888,0 2.18886,0.58965 2.18886,1.31703z" fill="#906036"/><path d="M249.6315,174.48771c0,0.72738 -0.97998,1.31703 -2.18886,1.31703c-1.20888,0 -2.18886,-0.58965 -2.18886,-1.31703c0,-0.72738 0.97998,-1.31703 2.18886,-1.31703c1.20888,0 2.18886,0.58965 2.18886,1.31703z" fill="#906036"/><path d="M243.87791,169.97219c0,0.72738 -0.97998,1.31703 -2.18886,1.31703c-1.20888,0 -2.18886,-0.58965 -2.18886,-1.31703c0,-0.72738 0.97998,-1.31703 2.18886,-1.31703c1.20888,0 2.18886,0.58965 2.18886,1.31703z" fill="#906036"/><path d="M233.8717,170.57426c0,0.72738 -0.97998,1.31703 -2.18886,1.31703c-1.20888,0 -2.18886,-0.58965 -2.18886,-1.31703c0,-0.72738 0.97998,-1.31703 2.18886,-1.31703c1.20888,0 2.18886,0.58965 2.18886,1.31703z" fill="#906036"/><path d="M228.36827,168.76806c0,0.72738 -0.97998,1.31703 -2.18886,1.31703c-1.20888,0 -2.18886,-0.58965 -2.18886,-1.31703c0,-0.72738 0.97998,-1.31703 2.18886,-1.31703c1.20888,0 2.18886,0.58965 2.18886,1.31703z" fill="#ba842c"/><path d="M221.11376,171.17633c0,0.72738 -0.97998,1.31703 -2.18886,1.31703c-1.20888,0 -2.18886,-0.58965 -2.18886,-1.31703c0,-0.72738 0.97998,-1.31703 2.18886,-1.31703c1.20888,0 2.18886,0.58965 2.18886,1.31703z" fill="#906036"/><path d="M214.85986,175.69185c0,0.72738 -0.97998,1.31703 -2.18886,1.31703c-1.20888,0 -2.18886,-0.58965 -2.18886,-1.31703c0,-0.72738 0.97998,-1.31703 2.18886,-1.31703c1.20888,0 2.18886,0.58965 2.18886,1.31703z" fill="#906036"/><path d="M221.9893,178.70221c0,-0.72738 0.97998,-1.31703 2.18886,-1.31703c1.20888,0 2.18886,0.58965 2.18886,1.31703c0,0.72738 -0.97998,1.31703 -2.18886,1.31703c-1.20888,0 -2.18886,-0.58965 -2.18886,-1.31703z" fill="#b98252"/><path d="M224.49087,173.73513c0,-0.72738 0.97998,-1.31703 2.18886,-1.31703c1.20888,0 2.18886,0.58965 2.18886,1.31703c0,0.72738 -0.97998,1.31703 -2.18886,1.31703c-1.20888,0 -2.18886,-0.58965 -2.18886,-1.31703z" fill="#b98252"/><path d="M227.99305,183.36824c0,-0.72738 0.97998,-1.31703 2.18886,-1.31703c1.20888,0 2.18886,0.58965 2.18886,1.31703c0,0.72738 -0.97998,1.31703 -2.18886,1.31703c-1.20888,0 -2.18886,-0.58965 -2.18886,-1.31703z" fill="#b98252"/><path d="M237.49896,186.83014c0,-0.72738 0.97998,-1.31703 2.18886,-1.31703c1.20888,0 2.18886,0.58965 2.18886,1.31703c0,0.72738 -0.97998,1.31703 -2.18886,1.31703c-1.20888,0 -2.18886,-0.58965 -2.18886,-1.31703z" fill="#b98252"/><path d="M246.25441,186.83014c0,-0.72738 0.97998,-1.31703 2.18886,-1.31703c1.20888,0 2.18886,0.58965 2.18886,1.31703c0,0.72738 -0.97998,1.31703 -2.18886,1.31703c-1.20888,0 -2.18886,-0.58965 -2.18886,-1.31703z" fill="#b98252"/><path d="M251.25751,184.57238c0,-0.72738 0.97998,-1.31703 2.18886,-1.31703c1.20888,0 2.18886,0.58965 2.18886,1.31703c0,0.72738 -0.97998,1.31703 -2.18886,1.31703c-1.20888,0 -2.18886,-0.58965 -2.18886,-1.31703z" fill="#b98252"/><path d="M253.25876,179.30428c0,-0.72738 0.97998,-1.31703 2.18886,-1.31703c1.20888,0 2.18886,0.58965 2.18886,1.31703c0,0.72738 -0.97998,1.31703 -2.18886,1.31703c-1.20888,0 -2.18886,-0.58965 -2.18886,-1.31703z" fill="#b98252"/><path d="M251.50767,175.84237c0,-0.72738 0.97998,-1.31703 2.18886,-1.31703c1.20888,0 2.18886,0.58965 2.18886,1.31703c0,0.72738 -0.97998,1.31703 -2.18886,1.31703c-1.20888,0 -2.18886,-0.58965 -2.18886,-1.31703z" fill="#b98252"/><path d="M261.76405,180.50841c0,-0.72738 0.97998,-1.31703 2.18886,-1.31703c1.20888,0 2.18886,0.58965 2.18886,1.31703c0,0.72738 -0.97998,1.31703 -2.18886,1.31703c-1.20888,0 -2.18886,-0.58965 -2.18886,-1.31703z" fill="#b98252"/><path d="M259.26249,177.79911c0,-0.72738 0.97998,-1.31703 2.18886,-1.31703c1.20888,0 2.18886,0.58965 2.18886,1.31703c0,0.72738 -0.97998,1.31703 -2.18886,1.31703c-1.20888,0 -2.18886,-0.58965 -2.18886,-1.31703z" fill="#b98252"/><path d="M229.49398,171.62789c0,-0.72738 0.97998,-1.31703 2.18886,-1.31703c1.20888,0 2.18886,0.58965 2.18886,1.31703c0,0.72738 -0.97998,1.31703 -2.18886,1.31703c-1.20888,0 -2.18886,-0.58965 -2.18886,-1.31703z" fill="#b98252"/><path d="M235.49771,169.0691c0,-0.72738 0.97998,-1.31703 2.18886,-1.31703c1.20888,0 2.18886,0.58965 2.18886,1.31703c0,0.72738 -0.97998,1.31703 -2.18886,1.31703c-1.20888,0 -2.18886,-0.58965 -2.18886,-1.31703z" fill="#b98252"/><path d="M241.25128,173.58462c0,-0.72738 0.97998,-1.31703 2.18886,-1.31703c1.20888,0 2.18886,0.58965 2.18886,1.31703c0,0.72738 -0.97998,1.31703 -2.18886,1.31703c-1.20888,0 -2.18886,-0.58965 -2.18886,-1.31703z" fill="#b98252"/><path d="M248.00549,171.47738c0,-0.72738 0.97998,-1.31703 2.18886,-1.31703c1.20888,0 2.18886,0.58965 2.18886,1.31703c0,0.72738 -0.97998,1.31703 -2.18886,1.31703c-1.20888,0 -2.18886,-0.58965 -2.18886,-1.31703z" fill="#b98252"/><path d="M259.7628,173.88565c0,-0.72738 0.97998,-1.31703 2.18886,-1.31703c1.20888,0 2.18886,0.58965 2.18886,1.31703c0,0.72738 -0.97998,1.31703 -2.18886,1.31703c-1.20888,0 -2.18886,-0.58965 -2.18886,-1.31703z" fill="#b98252"/><path d="M253.25876,170.57427c0,-0.72738 0.97998,-1.31703 2.18886,-1.31703c1.20888,0 2.18886,0.58965 2.18886,1.31703c0,0.72738 -0.97998,1.31703 -2.18886,1.31703c-1.20888,0 -2.18886,-0.58965 -2.18886,-1.31703z" fill="#b98252"/><path d="M223.99055,168.46703c0,-0.72738 0.97998,-1.31703 2.18886,-1.31703c1.20888,0 2.18886,0.58965 2.18886,1.31703c0,0.72738 -0.97998,1.31703 -2.18886,1.31703c-1.20888,0 -2.18886,-0.58965 -2.18886,-1.31703z" fill="#b98252"/><path d="M215.2351,172.07944c0,-0.72738 0.97998,-1.31703 2.18886,-1.31703c1.20888,0 2.18886,0.58965 2.18886,1.31703c0,0.72738 -0.97998,1.31703 -2.18886,1.31703c-1.20888,0 -2.18886,-0.58965 -2.18886,-1.31703z" fill="#b98252"/><path d="M216.48587,175.69185c0,-0.72738 0.97998,-1.31703 2.18886,-1.31703c1.20888,0 2.18886,0.58965 2.18886,1.31703c0,0.72738 -0.97998,1.31703 -2.18886,1.31703c-1.20888,0 -2.18886,-0.58965 -2.18886,-1.31703z" fill="#b98252"/><path d="M210.7323,180.35789c0,-0.72738 0.97998,-1.31703 2.18886,-1.31703c1.20888,0 2.18886,0.58965 2.18886,1.31703c0,0.72738 -0.97998,1.31703 -2.18886,1.31703c-1.20888,0 -2.18886,-0.58965 -2.18886,-1.31703z" fill="#b98252"/><path d="M217.73666,182.31462c0,-0.72738 0.97998,-1.31703 2.18886,-1.31703c1.20888,0 2.18886,0.58965 2.18886,1.31703c0,0.72738 -0.97998,1.31703 -2.18886,1.31703c-1.20888,0 -2.18886,-0.58965 -2.18886,-1.31703z" fill="#b98252"/><path d="M216.48587,186.83014c0,-0.72738 0.97998,-1.31703 2.18886,-1.31703c1.20888,0 2.18886,0.58965 2.18886,1.31703c0,0.72738 -0.97998,1.31703 -2.18886,1.31703c-1.20888,0 -2.18886,-0.58965 -2.18886,-1.31703z" fill="#b98252"/><path d="M226.24194,186.83014c0,-0.72738 0.97998,-1.31703 2.18886,-1.31703c1.20888,0 2.18886,0.58965 2.18886,1.31703c0,0.72738 -0.97998,1.31703 -2.18886,1.31703c-1.20888,0 -2.18886,-0.58965 -2.18886,-1.31703z" fill="#b98252"/><path d="M231.99553,191.34566c0,-0.72738 0.97998,-1.31703 2.18886,-1.31703c1.20888,0 2.18886,0.58965 2.18886,1.31703c0,0.72738 -0.97998,1.31703 -2.18886,1.31703c-1.20888,0 -2.18886,-0.58965 -2.18886,-1.31703z" fill="#b98252"/><path d="M242.00175,190.74359c0,-0.72738 0.97998,-1.31703 2.18886,-1.31703c1.20888,0 2.18886,0.58965 2.18886,1.31703c0,0.72738 -0.97998,1.31703 -2.18886,1.31703c-1.20888,0 -2.18886,-0.58965 -2.18886,-1.31703z" fill="#b98252"/><path d="M247.50517,192.54979c0,-0.72738 0.97998,-1.31703 2.18886,-1.31703c1.20888,0 2.18886,0.58965 2.18886,1.31703c0,0.72738 -0.97998,1.31703 -2.18886,1.31703c-1.20888,0 -2.18886,-0.58965 -2.18886,-1.31703z" fill="#b98252"/><path d="M254.75969,190.14152c0,-0.72738 0.97998,-1.31703 2.18886,-1.31703c1.20888,0 2.18886,0.58965 2.18886,1.31703c0,0.72738 -0.97998,1.31703 -2.18886,1.31703c-1.20888,0 -2.18886,-0.58965 -2.18886,-1.31703z" fill="#b98252"/><path d="M261.26373,190.14152c0,-0.72738 0.97998,-1.31703 2.18886,-1.31703c1.20888,0 2.18886,0.58965 2.18886,1.31703c0,0.72738 -0.97998,1.31703 -2.18886,1.31703c-1.20888,0 -2.18886,-0.58965 -2.18886,-1.31703z" fill="#b98252"/><path d="M261.01358,185.626c0,-0.72738 0.97998,-1.31703 2.18886,-1.31703c1.20888,0 2.18886,0.58965 2.18886,1.31703c0,0.72738 -0.97998,1.31703 -2.18886,1.31703c-1.20888,0 -2.18886,-0.58965 -2.18886,-1.31703z" fill="#b98252"/><path d="M261.13866,180.65892c0,0.72738 -0.97998,1.31703 -2.18886,1.31703c-1.20888,0 -2.18886,-0.58965 -2.18886,-1.31703c0,-0.72738 0.97998,-1.31703 2.18886,-1.31703c1.20888,0 2.18886,0.58965 2.18886,1.31703z" fill="#dba16e"/><path d="M258.63709,185.626c0,0.72738 -0.97998,1.31703 -2.18886,1.31703c-1.20888,0 -2.18886,-0.58965 -2.18886,-1.31703c0,-0.72738 0.97998,-1.31703 2.18886,-1.31703c1.20888,0 2.18886,0.58965 2.18886,1.31703z" fill="#dba16e"/><path d="M255.13491,175.99288c0,0.72738 -0.97998,1.31703 -2.18886,1.31703c-1.20888,0 -2.18886,-0.58965 -2.18886,-1.31703c0,-0.72738 0.97998,-1.31703 2.18886,-1.31703c1.20888,0 2.18886,0.58965 2.18886,1.31703z" fill="#dba16e"/><path d="M245.629,172.53099c0,0.72738 -0.97998,1.31703 -2.18886,1.31703c-1.20888,0 -2.18886,-0.58965 -2.18886,-1.31703c0,-0.72738 0.97998,-1.31703 2.18886,-1.31703c1.20888,0 2.18886,0.58965 2.18886,1.31703z" fill="#dba16e"/><path d="M236.87356,172.53099c0,0.72738 -0.97998,1.31703 -2.18886,1.31703c-1.20888,0 -2.18886,-0.58965 -2.18886,-1.31703c0,-0.72738 0.97998,-1.31703 2.18886,-1.31703c1.20888,0 2.18886,0.58965 2.18886,1.31703z" fill="#dba16e"/><path d="M231.87045,174.78874c0,0.72738 -0.97998,1.31703 -2.18886,1.31703c-1.20888,0 -2.18886,-0.58965 -2.18886,-1.31703c0,-0.72738 0.97998,-1.31703 2.18886,-1.31703c1.20888,0 2.18886,0.58965 2.18886,1.31703z" fill="#dba16e"/><path d="M231.62029,183.51875c0,0.72738 -0.97998,1.31703 -2.18886,1.31703c-1.20888,0 -2.18886,-0.58965 -2.18886,-1.31703c0,-0.72738 0.97998,-1.31703 2.18886,-1.31703c1.20888,0 2.18886,0.58965 2.18886,1.31703z" fill="#dba16e"/><path d="M221.36392,178.85272c0,0.72738 -0.97998,1.31703 -2.18886,1.31703c-1.20888,0 -2.18886,-0.58965 -2.18886,-1.31703c0,-0.72738 0.97998,-1.31703 2.18886,-1.31703c1.20888,0 2.18886,0.58965 2.18886,1.31703z" fill="#dba16e"/><path d="M229.8692,180.05685c0,0.72738 -0.97998,1.31703 -2.18886,1.31703c-1.20888,0 -2.18886,-0.58965 -2.18886,-1.31703c0,-0.72738 0.97998,-1.31703 2.18886,-1.31703c1.20888,0 2.18886,0.58965 2.18886,1.31703z" fill="#dba16e"/><path d="M223.86547,181.56202c0,0.72738 -0.97998,1.31703 -2.18886,1.31703c-1.20888,0 -2.18886,-0.58965 -2.18886,-1.31703c0,-0.72738 0.97998,-1.31703 2.18886,-1.31703c1.20888,0 2.18886,0.58965 2.18886,1.31703z" fill="#dba16e"/><path d="M253.63399,187.73324c0,0.72738 -0.97998,1.31703 -2.18886,1.31703c-1.20888,0 -2.18886,-0.58965 -2.18886,-1.31703c0,-0.72738 0.97998,-1.31703 2.18886,-1.31703c1.20888,0 2.18886,0.58965 2.18886,1.31703z" fill="#dba16e"/><path d="M247.63025,190.29203c0,0.72738 -0.97998,1.31703 -2.18886,1.31703c-1.20888,0 -2.18886,-0.58965 -2.18886,-1.31703c0,-0.72738 0.97998,-1.31703 2.18886,-1.31703c1.20888,0 2.18886,0.58965 2.18886,1.31703z" fill="#dba16e"/><path d="M241.87668,185.77651c0,0.72738 -0.97998,1.31703 -2.18886,1.31703c-1.20888,0 -2.18886,-0.58965 -2.18886,-1.31703c0,-0.72738 0.97998,-1.31703 2.18886,-1.31703c1.20888,0 2.18886,0.58965 2.18886,1.31703z" fill="#dba16e"/><path d="M235.12247,187.88375c0,0.72738 -0.97998,1.31703 -2.18886,1.31703c-1.20888,0 -2.18886,-0.58965 -2.18886,-1.31703c0,-0.72738 0.97998,-1.31703 2.18886,-1.31703c1.20888,0 2.18886,0.58965 2.18886,1.31703z" fill="#dba16e"/><path d="M223.36517,185.47548c0,0.72738 -0.97998,1.31703 -2.18886,1.31703c-1.20888,0 -2.18886,-0.58965 -2.18886,-1.31703c0,-0.72738 0.97998,-1.31703 2.18886,-1.31703c1.20888,0 2.18886,0.58965 2.18886,1.31703z" fill="#dba16e"/><path d="M229.8692,188.78686c0,0.72738 -0.97998,1.31703 -2.18886,1.31703c-1.20888,0 -2.18886,-0.58965 -2.18886,-1.31703c0,-0.72738 0.97998,-1.31703 2.18886,-1.31703c1.20888,0 2.18886,0.58965 2.18886,1.31703z" fill="#dba16e"/><path d="M259.13741,190.8941c0,0.72738 -0.97998,1.31703 -2.18886,1.31703c-1.20888,0 -2.18886,-0.58965 -2.18886,-1.31703c0,-0.72738 0.97998,-1.31703 2.18886,-1.31703c1.20888,0 2.18886,0.58965 2.18886,1.31703z" fill="#dba16e"/><path d="M267.89286,187.28169c0,0.72738 -0.97998,1.31703 -2.18886,1.31703c-1.20888,0 -2.18886,-0.58965 -2.18886,-1.31703c0,-0.72738 0.97998,-1.31703 2.18886,-1.31703c1.20888,0 2.18886,0.58965 2.18886,1.31703z" fill="#dba16e"/><path d="M266.64209,183.66927c0,0.72738 -0.97998,1.31703 -2.18886,1.31703c-1.20888,0 -2.18886,-0.58965 -2.18886,-1.31703c0,-0.72738 0.97998,-1.31703 2.18886,-1.31703c1.20888,0 2.18886,0.58965 2.18886,1.31703z" fill="#dba16e"/><path d="M265.39131,177.04651c0,0.72738 -0.97998,1.31703 -2.18886,1.31703c-1.20888,0 -2.18886,-0.58965 -2.18886,-1.31703c0,-0.72738 0.97998,-1.31703 2.18886,-1.31703c1.20888,0 2.18886,0.58965 2.18886,1.31703z" fill="#dba16e"/><path d="M266.64209,172.53099c0,0.72738 -0.97998,1.31703 -2.18886,1.31703c-1.20888,0 -2.18886,-0.58965 -2.18886,-1.31703c0,-0.72738 0.97998,-1.31703 2.18886,-1.31703c1.20888,0 2.18886,0.58965 2.18886,1.31703z" fill="#dba16e"/><path d="M256.88602,172.53099c0,0.72738 -0.97998,1.31703 -2.18886,1.31703c-1.20888,0 -2.18886,-0.58965 -2.18886,-1.31703c0,-0.72738 0.97998,-1.31703 2.18886,-1.31703c1.20888,0 2.18886,0.58965 2.18886,1.31703z" fill="#dba16e"/><path d="M241.12622,168.61754c0,0.72738 -0.97998,1.31703 -2.18886,1.31703c-1.20888,0 -2.18886,-0.58965 -2.18886,-1.31703c0,-0.72738 0.97998,-1.31703 2.18886,-1.31703c1.20888,0 2.18886,0.58965 2.18886,1.31703z" fill="#dba16e"/><path d="M228.36827,169.21961c0,0.72738 -0.97998,1.31703 -2.18886,1.31703c-1.20888,0 -2.18886,-0.58965 -2.18886,-1.31703c0,-0.72738 0.97998,-1.31703 2.18886,-1.31703c1.20888,0 2.18886,0.58965 2.18886,1.31703z" fill="#dba16e"/><path d="M221.86424,169.21961c0,0.72738 -0.97998,1.31703 -2.18886,1.31703c-1.20888,0 -2.18886,-0.58965 -2.18886,-1.31703c0,-0.72738 0.97998,-1.31703 2.18886,-1.31703c1.20888,0 2.18886,0.58965 2.18886,1.31703z" fill="#dba16e"/><path d="M222.11438,173.73513c0,0.72738 -0.97998,1.31703 -2.18886,1.31703c-1.20888,0 -2.18886,-0.58965 -2.18886,-1.31703c0,-0.72738 0.97998,-1.31703 2.18886,-1.31703c1.20888,0 2.18886,0.58965 2.18886,1.31703z" fill="#dba16e"/></g></g></g></g></svg>