<svg version="1.1" xmlns="http://www.w3.org/2000/svg" xmlns:xlink="http://www.w3.org/1999/xlink" width="66.42074" height="51.63162" viewBox="0,0,66.42074,51.63162"><defs><radialGradient cx="239.26836" cy="180.8072" r="30.31246" gradientUnits="userSpaceOnUse" id="color-1"><stop offset="0" stop-color="#b97d61"/><stop offset="1" stop-color="#b37046"/></radialGradient><radialGradient cx="243.03171" cy="194.56541" r="15.86532" gradientUnits="userSpaceOnUse" id="color-2"><stop offset="0" stop-color="#b97d61"/><stop offset="1" stop-color="#985933"/></radialGradient><radialGradient cx="266.45818" cy="183.22055" r="13.40541" gradientUnits="userSpaceOnUse" id="color-3"><stop offset="0" stop-color="#b97d61"/><stop offset="1" stop-color="#985933"/></radialGradient><radialGradient cx="217.88032" cy="192.55358" r="6.91393" gradientUnits="userSpaceOnUse" id="color-4"><stop offset="0" stop-color="#b97d61"/><stop offset="1" stop-color="#985933"/></radialGradient><radialGradient cx="234.57547" cy="179.45771" r="9.3573" gradientUnits="userSpaceOnUse" id="color-5"><stop offset="0" stop-color="#b97d61"/><stop offset="1" stop-color="#d3a689"/></radialGradient><radialGradient cx="217.88032" cy="175.9988" r="11.09069" gradientUnits="userSpaceOnUse" id="color-6"><stop offset="0" stop-color="#b97d61"/><stop offset="1" stop-color="#d3a689"/></radialGradient><radialGradient cx="228.77766" cy="159.21352" r="9.09589" gradientUnits="userSpaceOnUse" id="color-7"><stop offset="0" stop-color="#b97d61"/><stop offset="1" stop-color="#d3a689"/></radialGradient><radialGradient cx="254.22682" cy="169.75057" r="5.10418" gradientUnits="userSpaceOnUse" id="color-8"><stop offset="0" stop-color="#b97d61"/><stop offset="1" stop-color="#d3a689"/></radialGradient><radialGradient cx="248.35376" cy="159.71443" r="8.52277" gradientUnits="userSpaceOnUse" id="color-9"><stop offset="0" stop-color="#b97d61"/><stop offset="1" stop-color="#d3a689"/></radialGradient></defs><g transform="translate(-206.78963,-154.18419)"><g stroke="none" stroke-width="0.5" stroke-miterlimit="10"><path d="M230.26849,192.94001l-0.08571,0.04898l-0.00548,0.09857l-0.37631,0.32255l-0.01488,0.04166l-0.23169,0.34753l-0.00213,0.03826l-0.49104,0.42089l-0.12915,0.11741l-0.00482,0.08671l-0.37626,0.32251l-0.32251,0.37626l-0.12453,0.00692l-0.15498,0.13284l-0.36079,0.18039l-0.2455,0.16366l-0.09473,0.03383l-0.04202,0.07354l-0.54632,0.13658l-0.04084,0.01458l-0.0448,0.0224l-0.04744,0.01054l-0.19017,0.06792l-0.08985,0.05718l-0.375,0.125l-0.40069,0.03082l-0.38988,0.09747h-1.25l-0.20271,-0.05068l-0.20829,0.01666l-0.75,-0.125l-0.09345,-0.04063h-0.1019l-0.87488,-0.21872l-0.74733,-0.10676l-0.12154,-0.04952h-0.13124l-1,-0.25l-0.03773,-0.02012l-0.04274,-0.00142l-0.875,-0.25l-0.04824,-0.02783l-0.05553,-0.00427l-0.75,-0.25l-0.0895,-0.05695l-0.10473,-0.01689l-0.77942,-0.33404l-0.65135,-0.21712l-0.06342,-0.04036l-0.07449,-0.01016l-0.55679,-0.22272l-0.15056,-0.05019l-0.02709,0.00739l-0.06157,-0.03694l-0.06609,-0.02203l-0.48463,-0.3084l-0.36057,-0.21634l-0.01178,-0.00065l-0.01132,-0.0132l-0.10891,-0.06535l-0.04926,-0.04926l-0.06058,-0.03855l-0.00551,-0.02754l-0.13466,-0.13466l-0.20676,-0.34461l-0.14373,-0.16769l-0.00674,-0.00548l-0.01432,-0.01909l-0.09675,-0.11287l-0.02419,-0.04837l-0.61475,-0.81966l-0.08818,-0.20943l-0.14789,-0.17253l-0.30539,-0.61079l-0.02635,-0.03952l-0.32496,-0.32496l-0.20676,-0.34461l-0.26154,-0.30513l-0.25,-0.5l-0.05973,-0.26876l-0.12956,-0.24293l-0.05844,-0.23376l-0.02646,-0.05292l-0.23975,-0.31966l-0.08818,-0.20943l-0.14789,-0.17253l-0.375,-0.75l-0.03903,-0.17566l-0.09661,-0.15181l-0.06882,-0.20645l-0.04554,-0.09109l-0.03903,-0.17566l-0.09661,-0.15181l-0.125,-0.375l-0.01212,-0.15751l-0.06763,-0.14277l-0.21948,-1.09738l-0.07578,-0.22734l-0.03082,-0.40069l-0.06678,-0.2671l-0.0274,-0.08221l-0.00304,-0.03958l-0.00025,-0.00099v-0.00222l-0.02753,-0.3579l-0.09747,-0.38988v-2.75l0.07464,-0.29857v-0.30776l0.17536,-0.70143v-0.06724l0.06039,-0.24157l-0.01184,-0.24872l0.125,-0.625l0.06763,-0.14277l0.00882,-0.11472v-0.00222l0.00025,-0.00099l0.00304,-0.03958l0.01984,-0.05953l-0.03662,-0.07324l0.1894,-0.53033l0.13658,-0.54632l0.05111,-0.0292l0.06231,-0.17447l0.13658,-0.54632l0.04434,-0.02534l-0.03752,-0.13757l0.16527,-0.27545l0.07791,-0.31164l0.16598,-0.09485l0.09653,-0.16089l0.05328,-0.15984l0.17927,-0.28172l0.11231,-0.31447l0.25,-0.375l0.18425,-0.1675l0.0175,-0.02917l0.14231,-0.28461l0.26154,-0.30513l0.20676,-0.34461l0.08813,-0.08813l0.06857,-0.13714l0.26154,-0.30513l0.12756,-0.2126l0.00065,-0.01178l0.0132,-0.01132l0.06535,-0.10891l0.25,-0.25l0.10891,-0.06535l0.01132,-0.0132l0.01178,-0.00065l0.2126,-0.12756l0.30513,-0.26154l0.6041,-0.30205l0.01393,-0.02438l0.06966,-0.01742l0.06231,-0.03115l0.45,-0.1l0.3,-0.15l0.26876,-0.05973l0.24293,-0.12956l1,-0.25h0.30776l0.29857,-0.07464h3.73977l0.01352,-0.04057l0.09661,-0.15181l0.03903,-0.17566l0.17054,-0.34109l0.06552,-0.19657v-0.09431l0.09747,-0.38988l0.02753,-0.3579v-1.7141l-0.01558,-0.02336l0.01558,-0.07009v-0.06966l0.13932,-0.55728l0.12461,-0.56075l0.00012,-0.00024l-0.02754,-0.05507l0.14188,-0.39725l0.01054,-0.04744l0.0224,-0.0448l0.01458,-0.04084l0.13658,-0.54632l0.07354,-0.04202l0.03383,-0.09473l0.16366,-0.2455l0.18039,-0.36079l0.26154,-0.30513l0.09616,-0.16026l0.14231,-0.28461l0.10281,-0.11994l0.05313,-0.14877l0.16366,-0.2455l0.05539,-0.11079l0.26154,-0.30513l0.20676,-0.34461l0.07496,-0.07496l0.09437,-0.14156l0.00213,-0.03826l0.49104,-0.42089l0.47854,-0.43504l0.03823,0.00264l0.25508,-0.12754l0.16026,-0.09616l0.30513,-0.26154l0.3541,-0.17705l0.01393,-0.02438l0.06966,-0.01742l0.06231,-0.03115l0.45,-0.1l0.1541,-0.07705l0.01393,-0.02438l0.06966,-0.01742l0.06231,-0.03115l0.56075,-0.12461l0.55728,-0.13932h0.06966l0.07009,-0.01558l0.02336,0.01558h1.33688l0.38988,0.09747l0.40069,0.03082l0.59525,0.19842l0.02709,-0.00739l0.06157,0.03694l0.06609,0.02203l0.48463,0.3084l0.02031,0.01219l0.45449,0.11362l0.04898,0.08571l0.09857,0.00548l0.26741,0.31197l0.2218,0.07922l0.375,0.25l0.04778,0.05256l0.06547,0.02757l0.09612,0.07209l0.01022,0.00256l0.24293,0.12956l0.26876,0.05973l0.18731,0.09365l0.12694,0.03174l0.56075,0.12461l0.06231,0.03115l0.06966,0.01742l0.00748,0.0131l0.15809,0.0527l0.15181,0.09661l0.17566,0.03903l0.06231,0.03115l0.31966,0.07992h0.08688l0.02336,-0.01558l0.07009,0.01558h0.06966l0.55728,0.13932l0.49806,0.11068h0.06966l0.24157,0.06039l0.24872,-0.01184l0.38226,0.07645h1.97176l0.05621,-0.01874l0.00464,-0.00278l0.09485,-0.16598l0.31164,-0.07791l0.27545,-0.16527l0.07985,0.02178l0.09003,-0.07717l1.04837,-0.52419l0.31966,-0.23975l0.37038,-0.15595l0.33905,-0.21576l0.75,-0.25l0.09774,-0.00752l0.08649,-0.04613l0.5,-0.125h0.30776l0.29857,-0.07464h0.19224l0.20143,-0.05036h0.30776l0.29857,-0.07464h2.875l0.29857,0.07464h0.30776l0.5,0.125l0.05097,0.02718l0.14997,0.03749l0.30708,0.06824l0.04855,-0.01324l0.06361,0.03816l0.14152,0.03145l0.06231,0.03115l0.06966,0.01742l0.01393,0.02438l0.1041,0.05205l0.30513,0.26154l0.34461,0.20676l0.625,0.625l0.12811,0.21352l0.18425,0.1675l1.25,1.875l0.11231,0.31447l0.17927,0.28172l0.14413,0.43239l0.31429,0.47143l0.05313,0.14877l0.10281,0.11994l0.05539,0.11079l0.16366,0.2455l0.05313,0.14877l0.10281,0.11994l0.18039,0.36079l0.02635,0.03952l0.07496,0.07496l0.1875,0.3125l0.47905,0.47905l0.08822,0.0049l0.32251,0.37626l0.28644,0.24552l0.13627,0.08176l0.5,0.5l0.20676,0.34461l0.26154,0.30513l0.25,0.5l0.03903,0.17566l0.09661,0.15181l0.125,0.375l0.00752,0.09774l0.04613,0.08649l0.05844,0.23376l0.00227,0.00454l0.00908,0.04088l0.03612,0.14447l0.09044,0.14212l0.06882,0.20645l0.08161,0.16322l0.22786,0.1709l0.11347,0.13965l0.1543,0.09258l0.07496,0.07496l0.03952,0.02635l0.70187,0.35094l0.20645,0.06882l0.15181,0.09661l0.17566,0.03903l0.34109,0.17054l0.20645,0.06882l0.4161,0.26479l0.19087,0.0106l0.09426,0.10997l0.00123,0.00027l0.06231,0.03115l0.06966,0.01742l0.01393,0.02438l0.1041,0.05205l0.15498,0.13284l0.12453,0.00692l0.31875,0.37187l0.05625,0.00313l0.14943,0.17434l0.17434,0.14943l0.00313,0.05625l0.37187,0.31875l0.0049,0.08822l0.04155,0.04155l0.08176,0.13627l0.01154,0.01346l0.01731,0.03461l0.0175,0.02917l0.18425,0.1675l0.12543,0.18814l0.04445,0.01111l0.01393,0.02438l0.6041,0.30205l0.17253,0.14789l0.20943,0.08818l0.5,0.375l0.11347,0.13965l0.1543,0.09258l1.125,1.125l0.12811,0.21352l0.18425,0.1675l0.25,0.375l0.0205,0.05741l0.0431,0.0431l0.375,0.625l0.02854,0.09378l0.06379,0.07443l0.375,0.75l0.02301,0.10356l0.06211,0.086l0.25,0.625l0.02324,0.1704l0.08093,0.15174l0.05844,0.23376l0.12727,0.25454l0.05973,0.26876l0.12956,0.24293l0.25,1v0.30776l0.07464,0.29857v0.19224l0.05036,0.20143v0.30776l0.07464,0.29857v0.41809l0.09098,0.54591l-0.01666,0.20829l0.05068,0.20271v2.125l-0.07464,0.29857v0.30776l-0.125,0.5l-0.04613,0.08649l-0.00752,0.09774l-0.25,0.75l-0.09661,0.15181l-0.01328,0.05974l0.04385,0.16079l-0.16527,0.27545l-0.07791,0.31164l-0.16598,0.09485l-0.09653,0.16089l-0.0017,0.00509l0.00739,0.02709l-0.03694,0.06157l-0.02203,0.06609l-0.3084,0.48463l-0.29554,0.49257l-0.04926,0.04926l-0.03855,0.06058l-0.02754,0.00551l-0.42872,0.42872l-0.00069,0.00498l-0.01542,0.01114l-0.18983,0.18983l-0.43142,0.25885l-0.40787,0.29457l-0.24925,0.0997l-0.01631,0.00979l-0.00485,-0.00132l-0.35459,0.14183l-0.46914,0.06397l-0.45934,0.11484h-0.19224l-0.70143,0.17536h-0.30776l-0.29857,0.07464h-0.75l-0.38988,-0.09747l-0.40069,-0.03082l-0.65891,-0.21964l-0.40685,-0.10171l-0.08649,-0.04613l-0.05494,-0.00423h-1.64713l-0.05782,0.06746l-0.02854,0.09378l-0.27194,0.45323l-0.06744,0.1686l0.00132,0.00485l-0.00979,0.01631l-0.0997,0.24925l-0.26273,0.36378l-0.01602,0.07211l0.01324,0.04855l-0.03816,0.06361l-0.03145,0.14152l-0.03115,0.06231l-0.01742,0.06966l-0.02438,0.01393l-0.05205,0.1041l-0.26154,0.30513l-0.09616,0.16026l-0.39231,0.78461l-0.06379,0.07443l-0.02854,0.09378l-0.7006,1.16767l-0.37761,0.75521l-0.01723,0.0517l0.00739,0.02709l-0.03694,0.06157l-0.02203,0.06609l-0.3084,0.48463l-0.04457,0.07429l-0.02203,0.06609l-0.17927,0.28172l-0.11231,0.31447l-0.25,0.375l-0.3632,0.33018l-0.24352,0.26787l-0.0021,0.03774l-0.49104,0.42089l-0.47854,0.43504l-0.03823,-0.00264l-0.08126,0.04063l-0.2455,0.16366l-0.14877,0.05313l-0.11994,0.10281l-0.5,0.25l-0.10356,0.02301l-0.086,0.06211l-1.15345,0.46138l-0.40699,0.2035l-0.26876,0.05973l-0.24293,0.12956l-0.5,0.125h-0.06096l-0.05509,0.0261l-0.29671,0.05934l-0.05465,0.02733l-0.01393,0.02438l-0.06966,0.01742l-0.06231,0.03115l-0.56075,0.12461l-0.16145,0.04036l-0.02083,0.03646l-0.54632,0.13658l-0.53033,0.1894l-0.07576,-0.03788l-0.09758,0.0244h-0.19224l-0.20143,0.05036h-0.30776l-0.29857,0.07464h-1.5l-0.24157,-0.06039l-0.24872,0.01184l-0.625,-0.125l-0.30178,-0.14295l-0.32597,-0.07244l-0.25454,-0.12727l-0.23376,-0.05844l-0.24293,-0.12956l-0.26876,-0.05973l-0.5,-0.25l-0.11994,-0.10281l-0.14877,-0.05313l-0.15841,-0.10561l-0.7952,-0.31808l-0.39993,-0.07999l-0.30178,-0.14295l-0.32597,-0.07244l-0.25454,-0.12727l-0.17605,-0.04401l-0.56667,-0.11333l-0.30178,-0.14295l-0.32597,-0.07244l-0.5,-0.25l-0.11994,-0.10281l-0.14877,-0.05313l-0.375,-0.25l-0.1675,-0.18425l-0.21352,-0.12811l-0.4375,-0.4375l-0.3125,-0.1875l-1,-1l-0.09258,-0.1543l-0.13965,-0.11347l-0.35157,-0.46876l-0.4756,-0.5945l-0.04609,-0.10057l-0.08186,-0.07442l-0.5,-0.75l-0.0205,-0.05741l-0.0431,-0.0431l-0.30865,-0.51441l-0.29762,-0.39683l-0.08818,-0.20943l-0.14789,-0.17253l-0.14231,-0.28461l-0.14315,-0.23858l-0.16598,-0.09485l-0.07791,-0.31164l-0.16527,-0.27545l0.0503,-0.18443l-0.01204,-0.04814l-0.34365,-0.68731l-0.04985,-0.22434z" fill="url(#color-1)"/><path d="M256.76095,183.93741c2.62088,2.38405 2.33052,10.53393 1.72385,13.06441c-3.13619,13.08143 -24.79229,10.1742 -30.90728,0.56493c-1.42098,-2.23297 1.01678,-10.04016 4.6215,-8.2378c3.40194,1.70097 -2.10805,5.42543 2.20163,8.22581c1.10555,0.71837 4.35658,3.25836 5.66179,3.26026c3.26981,0.00474 10.44005,0.43446 12.71133,-3.05543c2.03573,-3.12796 1.06823,-7.75581 -0.04604,-11.09864c-0.09499,-0.2642 -0.14674,-0.54902 -0.14674,-0.84593c0,-1.38071 1.11929,-2.5 2.5,-2.5c0.19231,0 0.37955,0.02172 0.55939,0.06283c0.39186,0.06777 0.77594,0.24608 1.12056,0.55957z" fill="url(#color-2)"/><path d="M269.72934,174.02153c2.80903,4.68526 5.26487,13.30796 1.72665,18.29348c-1.65398,2.33055 -11.75,7.6107 -11.75,1.375c0,-4.80115 5.15479,-1.03786 6.83929,-3.16071c1.9683,-2.4805 1.43524,-6.17034 0.94123,-9.15947c-0.24381,-1.47525 -0.88252,-4.2842 -2.241,-5.13562c-0.81748,-0.51236 -4.33925,-1.39909 -4.19936,-2.77801c-0.1383,-0.31048 -0.21516,-0.65436 -0.21516,-1.01618c0,-1.38071 1.11929,-2.5 2.5,-2.5c0.92597,-0.84805 5.66379,2.85634 6.39835,4.08152z" fill="url(#color-3)"/><path d="M219.32857,191.95622c0.79727,0.25717 3.59672,0.26558 4.12743,0.79629c3.72098,3.72098 -1.21626,4.92889 -3.91557,4.43421c-2.8183,-0.51648 -6.22633,-2.11123 -7.77274,-4.59652c-0.43976,-0.70676 -1.35553,-2.96443 -0.34123,-3.54403c0.43488,-0.73685 1.23699,-1.23117 2.15454,-1.23117c1.19332,0 2.19136,0.83608 2.44029,1.9544c0.92473,0.8747 1.84335,1.7146 3.30728,2.1868z" fill="url(#color-4)"/><path d="M232.51849,184.56501c0.04474,0.17897 0.08239,0.35159 0.11331,0.51792c0.20636,0.36364 0.32419,0.7841 0.32419,1.23208c0,1.38071 -1.11929,2.5 -2.5,2.5c-1.3256,0 -2.41023,-1.03171 -2.49471,-2.33596c-0.27144,-0.47857 -0.49048,-1.03489 -0.63029,-1.66404c-1.62387,-7.30742 1.62859,-12.23433 8.28215,-13.88691c1.1156,-0.27709 4.47398,-1.42668 5.59285,-0.42559c1.26092,1.12819 1.47264,3.43786 0,4.375c-4.19545,2.66983 -8.49367,-0.26332 -9,6.06005c-0.09169,1.14514 -0.07822,2.40764 0.17545,3.54913z" fill="url(#color-5)"/><path d="M210.10178,185.94001c-1.14616,-0.65495 -1.9603,-1.57797 -2.49455,-2.66637c-2.11971,-4.31835 0.16646,-11.24012 3.60179,-14.35139c2.68881,-2.43517 7.04758,-2.93465 10.51776,-2.85724c1.7986,0.04012 10.03824,1.8723 6.26777,5.64277c-1.69468,1.69468 -11.01699,-3.07671 -13.96055,1.53766c-1.91189,2.9971 -1.95814,4.05828 -1.93222,7.76181c0.00585,0.83652 1.26217,3.06866 0.15454,3.7016z" fill="url(#color-6)"/><path d="M231.81233,154.26466c1.39775,0.2163 7.19519,2.75747 5.86419,5.41946c-2.28895,4.57789 -5.04485,-1.14032 -8.29297,-0.32255c-2.52453,0.63559 -3.81265,3.84758 -5.81813,4.42687c-0.18557,0.12046 -0.38812,0.21698 -0.60328,0.28518c-0.26055,0.13439 -0.51792,0.23549 -0.75616,0.11639c-1.0652,0 -1.9748,-0.66619 -2.33489,-1.60465c-0.16002,-0.25268 -0.23114,-0.52858 -0.16426,-0.82952c-0.00056,-0.02187 -0.00085,-0.04382 -0.00085,-0.06584c0,-0.70388 0.2909,-1.33982 0.75902,-1.79415c2.1372,-3.55416 7.57804,-6.21449 11.34732,-5.6312z" fill="url(#color-7)"/><path d="M254.86169,171.94001c-1.28199,0.07676 -1.6846,1.43303 -3.17045,1.51558c-7.51003,0.41723 3.5572,-11.16005 6.40859,-6.17012c0.73685,0.43488 1.23117,1.23699 1.23117,2.15454c0,1.38071 -1.11929,2.5 -2.5,2.5c-0.31586,0 -0.61804,-0.05857 -0.89627,-0.16546c-0.35927,0.08848 -0.72074,0.14436 -1.07303,0.16546z" fill="url(#color-8)"/><path d="M239.83099,158.565c0.25476,-0.86245 0.64015,-1.55074 1.12606,-2.08895c3.42648,-3.79521 11.85158,-0.12707 14.72025,2.5664c1.92383,1.80633 1.54453,4.76822 -1.22131,5.52254c-1.1843,0.32299 -4.813,-4.02372 -6.47948,-4.44126c-1.23778,-0.31012 -5.39705,1.21565 -5.81736,0.93545z" fill="url(#color-9)"/><path d="M255.10373,183.35821c0,1.24837 -1.01199,2.26035 -2.26035,2.26035c-1.24836,0 -2.26034,-1.01198 -2.26034,-2.26035c0,-1.24837 1.01198,-2.26035 2.26034,-2.26035c1.24836,0 2.26035,1.01198 2.26035,2.26035z" fill="#906036"/><path d="M252.52046,191.88296c0,1.24837 -1.01199,2.26035 -2.26035,2.26035c-1.24836,0 -2.26035,-1.01198 -2.26035,-2.26035c0,-1.24837 1.01198,-2.26035 2.26035,-2.26035c1.24836,0 2.26035,1.01198 2.26035,2.26035z" fill="#906036"/><path d="M248.9039,175.35012c0,1.24837 -1.01198,2.26035 -2.26035,2.26035c-1.24836,0 -2.26035,-1.01198 -2.26035,-2.26035c0,-1.24837 1.01199,-2.26035 2.26035,-2.26035c1.24836,0 2.26035,1.01199 2.26035,2.26035z" fill="#906036"/><path d="M239.08754,169.40864c0,1.24837 -1.01199,2.26035 -2.26035,2.26035c-1.24837,0 -2.26035,-1.01199 -2.26035,-2.26035c0,-1.24837 1.01198,-2.26035 2.26035,-2.26035c1.24837,0 2.26035,1.01198 2.26035,2.26035z" fill="#906036"/><path d="M230.04614,169.40864c0,1.24837 -1.01199,2.26035 -2.26035,2.26035c-1.24837,0 -2.26035,-1.01199 -2.26035,-2.26035c0,-1.24837 1.01198,-2.26035 2.26035,-2.26035c1.24837,0 2.26035,1.01198 2.26035,2.26035z" fill="#906036"/><path d="M224.87964,173.28351c0,1.24837 -1.01199,2.26035 -2.26035,2.26035c-1.24837,0 -2.26035,-1.01198 -2.26035,-2.26035c0,-1.24837 1.01198,-2.26035 2.26035,-2.26035c1.24837,0 2.26035,1.01199 2.26035,2.26035z" fill="#906036"/><path d="M222.81303,182.32491c0,1.24837 -1.01198,2.26035 -2.26035,2.26035c-1.24837,0 -2.26035,-1.01198 -2.26035,-2.26035c0,-1.24837 1.01198,-2.26035 2.26035,-2.26035c1.24837,0 2.26035,1.01199 2.26035,2.26035z" fill="#ba842c"/><path d="M224.62131,188.2664c0,1.24837 -1.01199,2.26035 -2.26035,2.26035c-1.24837,0 -2.26035,-1.01198 -2.26035,-2.26035c0,-1.24837 1.01198,-2.26035 2.26035,-2.26035c1.24837,0 2.26035,1.01199 2.26035,2.26035z" fill="#906036"/><path d="M216.61322,184.90816c0,1.24837 -1.01198,2.26035 -2.26035,2.26035c-1.24837,0 -2.26035,-1.01198 -2.26035,-2.26035c0,-1.24837 1.01198,-2.26035 2.26035,-2.26035c1.24837,0 2.26035,1.01198 2.26035,2.26035z" fill="#906036"/><path d="M247.35396,195.49952c0,1.24837 -1.01199,2.26035 -2.26035,2.26035c-1.24836,0 -2.26035,-1.01198 -2.26035,-2.26035c0,-1.24837 1.01198,-2.26035 2.26035,-2.26035c1.24836,0 2.26035,1.01199 2.26035,2.26035z" fill="#906036"/><path d="M241.15415,199.89105c0,1.24837 -1.01199,2.26035 -2.26035,2.26035c-1.24837,0 -2.26035,-1.01199 -2.26035,-2.26035c0,-1.24837 1.01198,-2.26035 2.26035,-2.26035c1.24837,0 2.26035,1.01198 2.26035,2.26035z" fill="#906036"/><path d="M235.21267,192.14127c0,1.24837 -1.01198,2.26035 -2.26035,2.26035c-1.24837,0 -2.26035,-1.01199 -2.26035,-2.26035c0,-1.24837 1.01199,-2.26035 2.26035,-2.26035c1.24837,0 2.26035,1.01198 2.26035,2.26035z" fill="#906036"/><path d="M228.23786,195.75783c0,1.24837 -1.01198,2.26035 -2.26035,2.26035c-1.24837,0 -2.26035,-1.01198 -2.26035,-2.26035c0,-1.24837 1.01198,-2.26035 2.26035,-2.26035c1.24837,0 2.26035,1.01198 2.26035,2.26035z" fill="#906036"/><path d="M253.03712,200.92435c0,1.24837 -1.01199,2.26035 -2.26035,2.26035c-1.24836,0 -2.26035,-1.01198 -2.26035,-2.26035c0,-1.24837 1.01198,-2.26035 2.26035,-2.26035c1.24836,0 2.26035,1.01198 2.26035,2.26035z" fill="#906036"/><path d="M262.07852,194.72454c0,1.24837 -1.01198,2.26035 -2.26035,2.26035c-1.24836,0 -2.26035,-1.01199 -2.26035,-2.26035c0,-1.24837 1.01198,-2.26035 2.26035,-2.26035c1.24836,0 2.26035,1.01198 2.26035,2.26035z" fill="#906036"/><path d="M260.7869,188.52473c0,1.24837 -1.01198,2.26035 -2.26035,2.26035c-1.24836,0 -2.26035,-1.01198 -2.26035,-2.26035c0,-1.24837 1.01199,-2.26035 2.26035,-2.26035c1.24836,0 2.26035,1.01198 2.26035,2.26035z" fill="#906036"/><path d="M266.72837,180.51664c0,1.24837 -1.01198,2.26035 -2.26034,2.26035c-1.24836,0 -2.26035,-1.01198 -2.26035,-2.26035c0,-1.24837 1.01199,-2.26035 2.26035,-2.26035c1.24836,0 2.26034,1.01198 2.26034,2.26035z" fill="#906036"/><path d="M259.49526,177.1584c0,1.24837 -1.01198,2.26035 -2.26034,2.26035c-1.24836,0 -2.26035,-1.01198 -2.26035,-2.26035c0,-1.24837 1.01199,-2.26035 2.26035,-2.26035c1.24836,0 2.26034,1.01199 2.26034,2.26035z" fill="#906036"/><path d="M260.7869,169.40864c0,1.24837 -1.01198,2.26035 -2.26035,2.26035c-1.24836,0 -2.26035,-1.01199 -2.26035,-2.26035c0,-1.24837 1.01199,-2.26035 2.26035,-2.26035c1.24836,0 2.26035,1.01198 2.26035,2.26035z" fill="#906036"/><path d="M250.7122,169.40864c0,1.24837 -1.01199,2.26035 -2.26035,2.26035c-1.24836,0 -2.26035,-1.01199 -2.26035,-2.26035c0,-1.24837 1.01198,-2.26035 2.26035,-2.26035c1.24836,0 2.26035,1.01198 2.26035,2.26035z" fill="#906036"/><path d="M244.7707,161.65887c0,1.24837 -1.01198,2.26035 -2.26034,2.26035c-1.24837,0 -2.26035,-1.01198 -2.26035,-2.26035c0,-1.24837 1.01199,-2.26035 2.26035,-2.26035c1.24836,0 2.26034,1.01198 2.26034,2.26035z" fill="#906036"/><path d="M234.43769,162.69217c0,1.24837 -1.01199,2.26035 -2.26035,2.26035c-1.24837,0 -2.26035,-1.01198 -2.26035,-2.26035c0,-1.24837 1.01198,-2.26035 2.26035,-2.26035c1.24837,0 2.26035,1.01199 2.26035,2.26035z" fill="#906036"/><path d="M228.75453,159.59227c0,1.24837 -1.01199,2.26035 -2.26035,2.26035c-1.24837,0 -2.26035,-1.01199 -2.26035,-2.26035c0,-1.24837 1.01198,-2.26035 2.26035,-2.26035c1.24837,0 2.26035,1.01198 2.26035,2.26035z" fill="#ba842c"/><path d="M214.80494,171.47525c0,1.24837 -1.01198,2.26035 -2.26035,2.26035c-1.24837,0 -2.26035,-1.01198 -2.26035,-2.26035c0,-1.24837 1.01199,-2.26035 2.26035,-2.26035c1.24837,0 2.26035,1.01198 2.26035,2.26035z" fill="#906036"/><path d="M222.16722,176.64177c0,-1.24837 1.01198,-2.26035 2.26035,-2.26035c1.24837,0 2.26035,1.01198 2.26035,2.26035c0,1.24837 -1.01199,2.26035 -2.26035,2.26035c-1.24837,0 -2.26035,-1.01198 -2.26035,-2.26035z" fill="#b98252"/><path d="M224.75049,168.11702c0,-1.24837 1.01198,-2.26035 2.26035,-2.26035c1.24837,0 2.26035,1.01198 2.26035,2.26035c0,1.24837 -1.01199,2.26035 -2.26035,2.26035c-1.24837,0 -2.26035,-1.01198 -2.26035,-2.26035z" fill="#b98252"/><path d="M228.36705,184.64986c0,-1.24837 1.01199,-2.26035 2.26035,-2.26035c1.24837,0 2.26035,1.01198 2.26035,2.26035c0,1.24837 -1.01198,2.26035 -2.26035,2.26035c-1.24837,0 -2.26035,-1.01199 -2.26035,-2.26035z" fill="#b98252"/><path d="M238.18342,190.59134c0,-1.24837 1.01198,-2.26035 2.26035,-2.26035c1.24837,0 2.26035,1.01199 2.26035,2.26035c0,1.24837 -1.01198,2.26035 -2.26035,2.26035c-1.24837,0 -2.26035,-1.01198 -2.26035,-2.26035z" fill="#b98252"/><path d="M247.22481,190.59134c0,-1.24837 1.01199,-2.26035 2.26035,-2.26035c1.24836,0 2.26035,1.01199 2.26035,2.26035c0,1.24837 -1.01198,2.26035 -2.26035,2.26035c-1.24836,0 -2.26035,-1.01198 -2.26035,-2.26035z" fill="#b98252"/><path d="M252.39131,186.71647c0,-1.24837 1.01199,-2.26035 2.26035,-2.26035c1.24836,0 2.26035,1.01198 2.26035,2.26035c0,1.24837 -1.01199,2.26035 -2.26035,2.26035c-1.24836,0 -2.26035,-1.01199 -2.26035,-2.26035z" fill="#b98252"/><path d="M254.45792,177.67508c0,-1.24837 1.01199,-2.26035 2.26035,-2.26035c1.24836,0 2.26035,1.01198 2.26035,2.26035c0,1.24837 -1.01198,2.26035 -2.26035,2.26035c-1.24836,0 -2.26035,-1.01199 -2.26035,-2.26035z" fill="#b98252"/><path d="M252.64965,171.73358c0,-1.24837 1.01198,-2.26035 2.26034,-2.26035c1.24836,0 2.26035,1.01198 2.26035,2.26035c0,1.24837 -1.01199,2.26035 -2.26035,2.26035c-1.24836,0 -2.26034,-1.01199 -2.26034,-2.26035z" fill="#b98252"/><path d="M263.24099,179.74167c0,-1.24837 1.01198,-2.26035 2.26035,-2.26035c1.24836,0 2.26035,1.01199 2.26035,2.26035c0,1.24837 -1.01198,2.26035 -2.26035,2.26035c-1.24836,0 -2.26035,-1.01198 -2.26035,-2.26035z" fill="#b98252"/><path d="M260.65773,175.09183c0,-1.24837 1.01198,-2.26035 2.26035,-2.26035c1.24836,0 2.26035,1.01199 2.26035,2.26035c0,1.24837 -1.01199,2.26035 -2.26035,2.26035c-1.24836,0 -2.26035,-1.01198 -2.26035,-2.26035z" fill="#b98252"/><path d="M229.917,164.50047c0,-1.24837 1.01198,-2.26035 2.26035,-2.26035c1.24837,0 2.26035,1.01198 2.26035,2.26035c0,1.24837 -1.01199,2.26035 -2.26035,2.26035c-1.24837,0 -2.26035,-1.01199 -2.26035,-2.26035z" fill="#b98252"/><path d="M236.11681,160.10894c0,-1.24837 1.01198,-2.26035 2.26035,-2.26035c1.24837,0 2.26035,1.01199 2.26035,2.26035c0,1.24837 -1.01198,2.26035 -2.26035,2.26035c-1.24837,0 -2.26035,-1.01198 -2.26035,-2.26035z" fill="#b98252"/><path d="M242.05829,167.85871c0,-1.24837 1.01198,-2.26035 2.26035,-2.26035c1.24836,0 2.26035,1.01199 2.26035,2.26035c0,1.24837 -1.01199,2.26035 -2.26035,2.26035c-1.24837,0 -2.26035,-1.01198 -2.26035,-2.26035z" fill="#b98252"/><path d="M249.03308,164.24215c0,-1.24837 1.01199,-2.26035 2.26035,-2.26035c1.24836,0 2.26035,1.01198 2.26035,2.26035c0,1.24837 -1.01198,2.26035 -2.26035,2.26035c-1.24836,0 -2.26035,-1.01198 -2.26035,-2.26035z" fill="#b98252"/><path d="M224.23383,159.07563c0,-1.24837 1.01198,-2.26035 2.26035,-2.26035c1.24837,0 2.26035,1.01198 2.26035,2.26035c0,1.24837 -1.01199,2.26035 -2.26035,2.26035c-1.24837,0 -2.26035,-1.01198 -2.26035,-2.26035z" fill="#b98252"/><path d="M216.48405,171.47525c0,-1.24837 1.01198,-2.26035 2.26035,-2.26035c1.24837,0 2.26035,1.01198 2.26035,2.26035c0,1.24837 -1.01198,2.26035 -2.26035,2.26035c-1.24837,0 -2.26035,-1.01198 -2.26035,-2.26035z" fill="#b98252"/><path d="M210.54257,179.48334c0,-1.24837 1.01199,-2.26035 2.26035,-2.26035c1.24837,0 2.26035,1.01199 2.26035,2.26035c0,1.24837 -1.01198,2.26035 -2.26035,2.26035c-1.24837,0 -2.26035,-1.01198 -2.26035,-2.26035z" fill="#b98252"/><path d="M217.77569,182.84159c0,-1.24837 1.01198,-2.26035 2.26035,-2.26035c1.24837,0 2.26035,1.01199 2.26035,2.26035c0,1.24837 -1.01198,2.26034 -2.26035,2.26034c-1.24837,0 -2.26035,-1.01198 -2.26035,-2.26034z" fill="#b98252"/><path d="M216.48405,190.59134c0,-1.24837 1.01198,-2.26035 2.26035,-2.26035c1.24837,0 2.26035,1.01199 2.26035,2.26035c0,1.24837 -1.01198,2.26035 -2.26035,2.26035c-1.24837,0 -2.26035,-1.01198 -2.26035,-2.26035z" fill="#b98252"/><path d="M226.55875,190.59134c0,-1.24837 1.01198,-2.26035 2.26035,-2.26035c1.24837,0 2.26035,1.01199 2.26035,2.26035c0,1.24837 -1.01198,2.26035 -2.26035,2.26035c-1.24837,0 -2.26035,-1.01198 -2.26035,-2.26035z" fill="#b98252"/><path d="M232.50025,198.34112c0,-1.24837 1.01198,-2.26035 2.26035,-2.26035c1.24837,0 2.26035,1.01198 2.26035,2.26035c0,1.24837 -1.01198,2.26035 -2.26035,2.26035c-1.24837,0 -2.26035,-1.01198 -2.26035,-2.26035z" fill="#b98252"/><path d="M242.83326,197.30781c0,-1.24837 1.01198,-2.26035 2.26035,-2.26035c1.24836,0 2.26035,1.01198 2.26035,2.26035c0,1.24837 -1.01199,2.26035 -2.26035,2.26035c-1.24836,0 -2.26035,-1.01199 -2.26035,-2.26035z" fill="#b98252"/><path d="M248.51642,200.40771c0,-1.24837 1.01198,-2.26035 2.26035,-2.26035c1.24836,0 2.26035,1.01199 2.26035,2.26035c0,1.24837 -1.01199,2.26035 -2.26035,2.26035c-1.24836,0 -2.26035,-1.01198 -2.26035,-2.26035z" fill="#b98252"/><path d="M256.00787,196.27451c0,-1.24837 1.01199,-2.26035 2.26035,-2.26035c1.24836,0 2.26035,1.01198 2.26035,2.26035c0,1.24837 -1.01198,2.26035 -2.26035,2.26035c-1.24836,0 -2.26035,-1.01198 -2.26035,-2.26035z" fill="#b98252"/><path d="M262.46601,188.52473c0,-1.24837 1.01199,-2.26035 2.26035,-2.26035c1.24836,0 2.26034,1.01198 2.26034,2.26035c0,1.24837 -1.01198,2.26035 -2.26034,2.26035c-1.24836,0 -2.26035,-1.01198 -2.26035,-2.26035z" fill="#b98252"/><path d="M262.59518,179.99998c0,1.24837 -1.01198,2.26035 -2.26035,2.26035c-1.24836,0 -2.26035,-1.01198 -2.26035,-2.26035c0,-1.24837 1.01198,-2.26035 2.26035,-2.26035c1.24836,0 2.26035,1.01198 2.26035,2.26035z" fill="#dba16e"/><path d="M260.01191,188.52473c0,1.24837 -1.01199,2.26035 -2.26035,2.26035c-1.24836,0 -2.26034,-1.01198 -2.26034,-2.26035c0,-1.24837 1.01198,-2.26035 2.26034,-2.26035c1.24836,0 2.26035,1.01198 2.26035,2.26035z" fill="#dba16e"/><path d="M256.39535,171.99189c0,1.24837 -1.01199,2.26035 -2.26035,2.26035c-1.24836,0 -2.26035,-1.01199 -2.26035,-2.26035c0,-1.24837 1.01199,-2.26035 2.26035,-2.26035c1.24836,0 2.26035,1.01198 2.26035,2.26035z" fill="#dba16e"/><path d="M246.57898,166.05041c0,1.24837 -1.01199,2.26035 -2.26035,2.26035c-1.24837,0 -2.26035,-1.01198 -2.26035,-2.26035c0,-1.24837 1.01198,-2.26035 2.26035,-2.26035c1.24836,0 2.26035,1.01198 2.26035,2.26035z" fill="#dba16e"/><path d="M237.53759,166.05041c0,1.24837 -1.01198,2.26035 -2.26035,2.26035c-1.24837,0 -2.26035,-1.01198 -2.26035,-2.26035c0,-1.24837 1.01199,-2.26035 2.26035,-2.26035c1.24837,0 2.26035,1.01198 2.26035,2.26035z" fill="#dba16e"/><path d="M232.37108,169.92529c0,1.24837 -1.01199,2.26035 -2.26035,2.26035c-1.24837,0 -2.26035,-1.01198 -2.26035,-2.26035c0,-1.24837 1.01198,-2.26035 2.26035,-2.26035c1.24837,0 2.26035,1.01199 2.26035,2.26035z" fill="#dba16e"/><path d="M232.11275,184.90818c0,1.24837 -1.01199,2.26035 -2.26035,2.26035c-1.24837,0 -2.26035,-1.01198 -2.26035,-2.26035c0,-1.24837 1.01198,-2.26035 2.26035,-2.26035c1.24837,0 2.26035,1.01199 2.26035,2.26035z" fill="#dba16e"/><path d="M221.52141,176.90009c0,1.24837 -1.01199,2.26035 -2.26035,2.26035c-1.24837,0 -2.26035,-1.01199 -2.26035,-2.26035c0,-1.24837 1.01198,-2.26035 2.26035,-2.26035c1.24837,0 2.26035,1.01198 2.26035,2.26035z" fill="#dba16e"/><path d="M230.30447,178.96668c0,1.24837 -1.01198,2.26035 -2.26035,2.26035c-1.24837,0 -2.26035,-1.01198 -2.26035,-2.26035c0,-1.24837 1.01199,-2.26035 2.26035,-2.26035c1.24837,0 2.26035,1.01198 2.26035,2.26035z" fill="#dba16e"/><path d="M224.10466,181.54993c0,1.24837 -1.01198,2.26035 -2.26035,2.26035c-1.24837,0 -2.26035,-1.01198 -2.26035,-2.26035c0,-1.24837 1.01198,-2.26035 2.26035,-2.26035c1.24837,0 2.26035,1.01198 2.26035,2.26035z" fill="#dba16e"/><path d="M254.8454,192.14129c0,1.24837 -1.01198,2.26035 -2.26035,2.26035c-1.24836,0 -2.26035,-1.01198 -2.26035,-2.26035c0,-1.24837 1.01198,-2.26035 2.26035,-2.26035c1.24836,0 2.26035,1.01198 2.26035,2.26035z" fill="#dba16e"/><path d="M248.64559,196.53282c0,1.24837 -1.01198,2.26035 -2.26035,2.26035c-1.24836,0 -2.26035,-1.01199 -2.26035,-2.26035c0,-1.24837 1.01199,-2.26035 2.26035,-2.26035c1.24836,0 2.26035,1.01198 2.26035,2.26035z" fill="#dba16e"/><path d="M242.70411,188.78305c0,1.24837 -1.01198,2.26035 -2.26035,2.26035c-1.24837,0 -2.26035,-1.01198 -2.26035,-2.26035c0,-1.24837 1.01198,-2.26035 2.26035,-2.26035c1.24837,0 2.26035,1.01198 2.26035,2.26035z" fill="#dba16e"/><path d="M235.72931,192.3996c0,1.24837 -1.01198,2.26035 -2.26035,2.26035c-1.24837,0 -2.26035,-1.01199 -2.26035,-2.26035c0,-1.24837 1.01199,-2.26035 2.26035,-2.26035c1.24837,0 2.26035,1.01198 2.26035,2.26035z" fill="#dba16e"/><path d="M223.58802,188.2664c0,1.24837 -1.01199,2.26035 -2.26035,2.26035c-1.24837,0 -2.26035,-1.01198 -2.26035,-2.26035c0,-1.24837 1.01198,-2.26035 2.26035,-2.26035c1.24837,0 2.26035,1.01199 2.26035,2.26035z" fill="#dba16e"/><path d="M230.30447,193.94957c0,1.24837 -1.01198,2.26035 -2.26035,2.26035c-1.24837,0 -2.26035,-1.01198 -2.26035,-2.26035c0,-1.24837 1.01199,-2.26035 2.26035,-2.26035c1.24837,0 2.26035,1.01198 2.26035,2.26035z" fill="#dba16e"/><path d="M269.56996,191.36632c0,1.24837 -1.01198,2.26035 -2.26035,2.26035c-1.24836,0 -2.26035,-1.01199 -2.26035,-2.26035c0,-1.24837 1.01198,-2.26035 2.26035,-2.26035c1.24836,0 2.26035,1.01198 2.26035,2.26035z" fill="#dba16e"/><path d="M268.27835,185.16651c0,1.24837 -1.01199,2.26035 -2.26035,2.26035c-1.24836,0 -2.26035,-1.01198 -2.26035,-2.26035c0,-1.24837 1.01199,-2.26035 2.26035,-2.26035c1.24836,0 2.26035,1.01199 2.26035,2.26035z" fill="#dba16e"/><path d="M266.9867,173.80017c0,1.24837 -1.01198,2.26035 -2.26034,2.26035c-1.24836,0 -2.26035,-1.01198 -2.26035,-2.26035c0,-1.24837 1.01199,-2.26035 2.26035,-2.26035c1.24836,0 2.26034,1.01199 2.26034,2.26035z" fill="#dba16e"/><path d="M258.20365,166.05041c0,1.24837 -1.01199,2.26035 -2.26035,2.26035c-1.24836,0 -2.26034,-1.01198 -2.26034,-2.26035c0,-1.24837 1.01198,-2.26035 2.26034,-2.26035c1.24836,0 2.26035,1.01198 2.26035,2.26035z" fill="#dba16e"/><path d="M241.92914,159.33394c0,1.24837 -1.01199,2.26035 -2.26035,2.26035c-1.24837,0 -2.26035,-1.01199 -2.26035,-2.26035c0,-1.24837 1.01198,-2.26035 2.26035,-2.26035c1.24837,0 2.26035,1.01198 2.26035,2.26035z" fill="#dba16e"/><path d="M228.75453,160.36725c0,1.24837 -1.01199,2.26035 -2.26035,2.26035c-1.24837,0 -2.26035,-1.01198 -2.26035,-2.26035c0,-1.24837 1.01198,-2.26035 2.26035,-2.26035c1.24837,0 2.26035,1.01198 2.26035,2.26035z" fill="#dba16e"/><path d="M222.29638,168.11702c0,1.24837 -1.01198,2.26035 -2.26035,2.26035c-1.24837,0 -2.26035,-1.01198 -2.26035,-2.26035c0,-1.24837 1.01198,-2.26035 2.26035,-2.26035c1.24837,0 2.26035,1.01198 2.26035,2.26035z" fill="#dba16e"/><g><path d="M238.1506,176.57271c-0.88388,0.88157 -2.31504,0.8797 -3.19661,-0.00418c-0.88157,-0.88388 -0.8797,-2.31504 0.00418,-3.19661c0.88388,-0.88157 2.31504,-0.87971 3.19661,0.00418c0.88157,0.88388 0.8797,2.31504 -0.00418,3.19661z" fill="#906036"/><path d="M231.94148,175.46861c-0.88388,0.88157 -2.31504,0.8797 -3.19661,-0.00418c-0.88157,-0.88388 -0.8797,-2.31504 0.00418,-3.19661c0.88388,-0.88157 2.31504,-0.8797 3.19661,0.00418c0.88157,0.88388 0.8797,2.31504 -0.00418,3.19661z" fill="#906036"/><path d="M232.11388,183.32339c-0.88388,0.88157 -2.31504,0.8797 -3.19661,-0.00418c-0.88157,-0.88388 -0.8797,-2.31504 0.00418,-3.19661c0.88388,-0.88157 2.31504,-0.8797 3.19661,0.00418c0.88157,0.88388 0.87971,2.31504 -0.00418,3.19661z" fill="#906036"/><path d="M242.8884,185.34678c-0.88388,0.88157 -2.31504,0.8797 -3.19661,-0.00418c-0.88157,-0.88388 -0.8797,-2.31504 0.00418,-3.19661c0.88388,-0.88157 2.31504,-0.8797 3.19661,0.00418c0.88157,0.88388 0.87971,2.31504 -0.00418,3.19661z" fill="#906036"/><path d="M246.36594,180.05408c-0.88388,0.88157 -2.31504,0.87971 -3.19661,-0.00418c-0.88157,-0.88388 -0.8797,-2.31504 0.00418,-3.19661c0.88388,-0.88157 2.31504,-0.8797 3.19661,0.00418c0.88157,0.88388 0.8797,2.31504 -0.00418,3.19661z" fill="#906036"/><path d="M235.32541,171.91111c0.88388,-0.88157 2.31504,-0.8797 3.19661,0.00418c0.88157,0.88388 0.8797,2.31504 -0.00418,3.19661c-0.88388,0.88157 -2.31504,0.8797 -3.19661,-0.00418c-0.88157,-0.88388 -0.8797,-2.31504 0.00418,-3.19661z" fill="#b98252"/><path d="M241.71743,172.83279c0.88388,-0.88157 2.31504,-0.8797 3.19661,0.00418c0.88157,0.88388 0.8797,2.31504 -0.00418,3.19661c-0.88388,0.88157 -2.31504,0.8797 -3.19661,-0.00418c-0.88157,-0.88388 -0.8797,-2.31504 0.00418,-3.19661z" fill="#b98252"/><path d="M227.46872,173.5448c0.88388,-0.88157 2.31504,-0.8797 3.19661,0.00418c0.88157,0.88388 0.87971,2.31504 -0.00418,3.19661c-0.88388,0.88157 -2.31504,0.8797 -3.19661,-0.00418c-0.88157,-0.88388 -0.8797,-2.31504 0.00418,-3.19661z" fill="#b98252"/><path d="M229.28724,179.75776c0.88388,-0.88157 2.31504,-0.87971 3.19661,0.00418c0.88157,0.88388 0.8797,2.31504 -0.00418,3.19661c-0.88388,0.88157 -2.31504,0.8797 -3.19661,-0.00418c-0.88157,-0.88388 -0.8797,-2.31504 0.00418,-3.19661z" fill="#b98252"/><path d="M237.504,182.14314c0.88388,-0.88157 2.31504,-0.8797 3.19661,0.00418c0.88157,0.88388 0.8797,2.31504 -0.00418,3.19661c-0.88388,0.88157 -2.31504,0.8797 -3.19661,-0.00418c-0.88157,-0.88388 -0.87971,-2.31504 0.00418,-3.19661z" fill="#b98252"/><path d="M242.24703,186.89859c0.88388,-0.88157 2.31504,-0.87971 3.19661,0.00418c0.88157,0.88388 0.8797,2.31504 -0.00418,3.19661c-0.88388,0.88157 -2.31504,0.8797 -3.19661,-0.00418c-0.88157,-0.88388 -0.8797,-2.31504 0.00418,-3.19661z" fill="#b98252"/><path d="M247.5517,181.24294c0.88388,-0.88157 2.31504,-0.8797 3.19661,0.00418c0.88157,0.88388 0.8797,2.31504 -0.00418,3.19661c-0.88388,0.88157 -2.31504,0.87971 -3.19661,-0.00418c-0.88157,-0.88388 -0.8797,-2.31504 0.00418,-3.19661z" fill="#b98252"/><path d="M245.81865,179.50536c-0.88388,0.88157 -2.31504,0.8797 -3.19661,-0.00418c-0.88157,-0.88388 -0.8797,-2.31504 0.00418,-3.19661c0.88388,-0.88157 2.31504,-0.8797 3.19661,0.00418c0.88157,0.88388 0.87971,2.31504 -0.00418,3.19661z" fill="#dba16e"/><path d="M239.60953,178.40127c-0.88388,0.88157 -2.31504,0.8797 -3.19661,-0.00418c-0.88157,-0.88388 -0.8797,-2.31504 0.00418,-3.19661c0.88388,-0.88157 2.31504,-0.87971 3.19661,0.00418c0.88157,0.88388 0.8797,2.31504 -0.00418,3.19661z" fill="#dba16e"/><path d="M232.122,177.11283c-0.88388,0.88157 -2.31504,0.8797 -3.19661,-0.00418c-0.88157,-0.88388 -0.8797,-2.31504 0.00418,-3.19661c0.88388,-0.88157 2.31504,-0.8797 3.19661,0.00418c0.88157,0.88388 0.8797,2.31504 -0.00418,3.19661z" fill="#dba16e"/><path d="M239.78193,186.25604c-0.88388,0.88157 -2.31504,0.87971 -3.19661,-0.00418c-0.88157,-0.88388 -0.8797,-2.31504 0.00418,-3.19661c0.88388,-0.88157 2.31504,-0.8797 3.19661,0.00418c0.88157,0.88388 0.8797,2.31504 -0.00418,3.19661z" fill="#dba16e"/><path d="M250.55645,188.27943c-0.88388,0.88157 -2.31504,0.8797 -3.19661,-0.00418c-0.88157,-0.88388 -0.8797,-2.31504 0.00418,-3.19661c0.88388,-0.88157 2.31504,-0.87971 3.19661,0.00418c0.88157,0.88388 0.8797,2.31504 -0.00418,3.19661z" fill="#dba16e"/><path d="M254.03399,182.98674c-0.88388,0.88157 -2.31504,0.8797 -3.19661,-0.00418c-0.88157,-0.88388 -0.8797,-2.31504 0.00418,-3.19661c0.88388,-0.88157 2.31504,-0.8797 3.19661,0.00418c0.88157,0.88388 0.8797,2.31504 -0.00418,3.19661z" fill="#dba16e"/></g></g></g></svg>