<svg version="1.1" xmlns="http://www.w3.org/2000/svg" xmlns:xlink="http://www.w3.org/1999/xlink" width="43.12074" height="61.89052" viewBox="0,0,43.12074,61.89052"><g transform="translate(-220.56676,-135.83677)"><g data-paper-data="{&quot;isPaintingLayer&quot;:true}" fill-rule="nonzero" stroke-linejoin="miter" stroke-miterlimit="10" stroke-dasharray="" stroke-dashoffset="0" style="mix-blend-mode: normal"><path d="M239.42506,183.89265l0.03509,0.03008l0.02182,0.00614zM239.21168,183.75542h-0.04762l0.15475,0.07737zM244.51217,179.3754l0.15062,-0.03012l0.12539,-0.12539v-1.94242l-0.10139,-0.40556l-0.03335,-0.05558l-0.1552,-0.24389l-0.66994,-0.66994l-0.09831,-0.06256l-0.37038,-0.15595l-0.09524,-0.07143h-2.48357l-1.37053,0.22842l-0.86386,0.24682l-0.14383,0.00479l-0.13198,0.05738l-0.25583,0.04264l-0.0525,0.03937l-0.57567,0.46054l-0.15562,0.15562l-0.07948,0.11922l0.0167,0.08348l-0.01184,0.24872l0.06039,0.24157v0.16071l0.20014,0.05003l0.56075,0.12461l0.06231,0.03115l0.06966,0.01742l0.01169,0.02045l0.24317,0.08106l0.06342,0.04036l0.07449,0.01016l0.64607,0.25843l0.78745,0.26248l0.25882,0.1647c0.14884,0.01132 0.29403,0.03567 0.43445,0.07192l0.03622,-0.00988l0.06266,0.0376c0.15815,0.04789 0.30967,0.11102 0.45286,0.18769l0.07157,0.01789l0.01883,0.03296c0.14916,0.08803 0.28838,0.19111 0.41557,0.30715l0.24407,0.09763l0.29823,0.21539l0.17084,0.00949l0.02133,0.02489h0.98765l0.10825,-0.02706l0.55675,-0.2227l0.22916,-0.03125zM256.99924,175.86176l-0.12843,0.51371l-0.08264,0.41321v2.16228l0.3075,0.61499l0.05078,0.22849l0.11697,0.20274l0.28571,1l0.01162,0.34851l0.08457,0.33829v0.71429l-0.11484,0.45934l-0.06397,0.46914l-0.28571,0.71429l-0.22992,0.31835l-0.17072,0.35364l-0.60517,0.72621l-2.04793,3.27668l-1.13095,1.83779l-0.84992,1.41653l-0.31339,0.31339l-0.2686,0.35254l-0.71429,0.57143l-0.00055,0.00025l-0.01439,0.03631l-0.58355,0.23774l-0.57282,0.26254l-0.03632,-0.01438l-0.00056,0.00023l-1,0.14286l-0.3154,-0.03263l-0.31423,0.04246l-1.28571,-0.14286l-0.05519,-0.0205l-0.05864,0.0052l-2.71429,-0.42857l-0.03397,-0.01443l-0.03684,0.0022l-2.28571,-0.42857l-0.1358,-0.06233l-0.14917,-0.00865l-2.27208,-0.71002l-2.84346,-0.85304l-0.06765,-0.04022l-0.07825,-0.00848l-2.71429,-1l-0.00615,-0.00419l-0.00739,-0.00085l-2.28571,-0.85714l-0.26441,-0.18235l-0.29949,-0.11605l-2.35272,-1.66074l-0.63467,-0.3808l-0.34028,-0.34028l-0.37348,-0.30346l-1.71429,-2.28571l-0.06716,-0.15951l-0.11823,-0.12639l-0.71429,-1.28571l-0.06065,-0.22607l-0.12566,-0.19747l-0.85714,-2.57143l-0.03082,-0.40069l-0.09747,-0.38988v-2.42857l0.07464,-0.29857v-0.30776l0.28571,-1.14286l0.04613,-0.08649l0.00752,-0.09774l0.28571,-0.85714l0.13368,-0.21007l0.06742,-0.2397l0.57143,-1l0.13634,-0.14226l0.0821,-0.17913l0.57143,-0.71429l0.20193,-0.15385l0.14978,-0.20496l0.85714,-0.71429l0.08567,-0.04136l0.06169,-0.07242l1,-0.71429l0.26396,-0.10398l0.2276,-0.16937l1.68725,-0.70302l1.25895,-0.55953l0.37879,-0.06629l0.36048,-0.13389l1.28571,-0.14286l0.13951,0.01885l0.13657,-0.03414h4.14286l0.07744,0.01936l0.0785,-0.01449l2.28571,0.14286l0.17958,0.05701l0.1883,-0.00638l1.85262,0.39699l1.30839,0.11894h1.74374l0.12315,0.03079l0.12561,-0.01838l1.42857,0.14286l0.15196,0.05455l0.16143,-0.00294l1.85714,0.42857l0.0504,0.02571l0.05656,0.00147l2.57143,0.71429l0.21153,0.11997l0.23739,0.05275l1.33556,0.66778l0.61774,0.24709l0.086,0.06211l0.10356,0.02301l0.28571,0.14286l0.04606,0.03948l0.97116,0.05395l0.06932,-0.02311l0.03306,0.02879l0.73134,0.04063l0.83853,0.97828l0.14286,0.28571l0.05156,0.232l0.10254,0.08931l0.02255,0.47362l0.10286,0.46286l-0.07543,0.11314l0.0113,0.23739l-0.14286,0.71429l-0.14295,0.30178l-0.07244,0.32597l-0.1176,0.2352l-0.08106,0.48634l-0.04063,0.09345z" fill="#b37046" stroke="none" stroke-width="0.5" stroke-linecap="butt"/><path d="M235.64532,176.62554c0.14899,-0.50438 0.3767,-0.93463 0.6655,-1.2967c2.0603,-2.58308 7.22972,-1.6966 9.10731,0.49584c0.76317,0.89115 0.80248,4.32019 -1.06453,3.94679c-2.47911,-0.49582 -0.69834,-2.846 -3.40177,-2.82677c-0.84228,0.00599 -3.36239,1.57826 -3.82043,1.2729z" fill="#985933" stroke="none" stroke-width="0.5" stroke-linecap="butt"/><path d="M255.14532,179.18399c1.44204,0.82402 2.17477,1.94008 2.40505,3.18478c0.67422,3.64424 -2.95858,8.39119 -5.70689,10.14012c-5.08283,3.23453 -13.87813,-0.30472 -19.11886,-2.24339c-2.03263,-0.75192 -10.60154,-3.23766 -6.63278,-7.20642c1.44067,-1.44067 2.42875,-0.75504 3.53553,0c2.59524,1.77044 8.24258,5.09674 11.6608,5.12491c0.38213,0.00315 5.60547,0.2428 7.625,-0.14286c0.16979,-0.03242 3.71156,-3.85753 3.73214,-4.04815c0.12863,-1.19123 -0.69483,-2.98337 0.34546,-3.57783z" fill="#985933" stroke="none" stroke-width="0.5" stroke-linecap="butt"/><path d="M255.82858,171.30197c0.1591,0.18561 0.30524,0.36573 0.43674,0.54107c0.49706,0.45693 0.80857,1.11257 0.80857,1.84096c0,1.38071 -1.11929,2.5 -2.5,2.5c-0.26357,0 -0.51761,-0.04079 -0.75616,-0.11639c-0.21516,-0.06819 -0.41771,-0.16471 -0.60328,-0.28518c-1.76299,-0.50925 -4.09003,-1.5292 -5.87476,-2.30317c-4.29364,-1.86199 -10.4239,-2.58792 -15.15172,-2.29526c-4.44241,0.27499 -4.18076,7.21846 -5.14087,8.17857c-1.75336,1.75336 -4.47319,1.46869 -4.6875,-1.25c-0.34734,-4.40624 3.76645,-11.60325 8.78571,-11.92857c6.77777,-0.4393 12.66963,1.3631 18.75935,3.04147c1.99157,0.54889 4.21636,0.71271 5.79938,2.06959z" fill="#d3a689" stroke="none" stroke-width="0.5" stroke-linecap="butt"/><path d="M241.91064,179.21973c1.24055,0.03791 3.19735,-0.68494 3.94331,0.80697c0.81574,1.63149 -0.83033,2.83151 -2.17182,2.87363c-1.74577,0.05482 -6.47832,-0.25582 -7.5591,-2.14718c-0.54241,-0.32012 -0.90629,-0.91057 -0.90629,-1.586c0,-1.01637 0.82393,-1.8403 1.8403,-1.8403c0.386,0 0.74423,0.11884 1.04013,0.32192c1.06911,0.44705 2.2341,1.5227 3.81347,1.57096z" fill="#d3a689" stroke="none" stroke-width="0.5" stroke-linecap="butt"/><g stroke="#000000" stroke-width="2.5"><path d="M227.9375,163.35l34.5,10.125" fill="none" stroke-linecap="round"/><path d="M237.91623,164.9146l8.78289,-27.50684l14.88466,4.75265l-8.78289,27.50685z" fill="#000000" stroke-linecap="butt"/></g><path d="M234.4375,184.475c0,-0.69036 0.55964,-1.25 1.25,-1.25c0.06079,0 0.12056,0.00434 0.17903,0.01272c0.17115,-0.08803 0.36525,-0.13772 0.57097,-0.13772c0.12731,0 0.25017,0.01902 0.36589,0.0544c-0.14762,-0.0659 -0.26124,-0.11623 -0.33013,-0.1438c-4.41615,-1.76719 -8.87344,-2.94617 -13.14375,-5.05481c0.43508,2.35463 1.30313,5.943 2.53352,7.8418c2.02437,3.12411 8.90738,5.74984 12.69423,5.91979c-0.03234,-0.37667 -0.06468,-0.75334 -0.09702,-1.13001c-0.28761,-0.95724 -1.10937,-3.6619 -0.86282,-4.53077c0.04065,-0.14323 1.07666,-1.11038 2.05242,-1.78483c-0.88238,-0.25502 -1.90804,-0.69953 -2.56781,-0.99301c0.36283,0.21877 0.60547,0.61667 0.60547,1.07124c0,0.3376 -0.13384,0.64395 -0.35136,0.86887c-0.19147,0.44475 -0.63369,0.75613 -1.14864,0.75613c-0.30171,0 -0.57846,-0.1069 -0.79443,-0.28487c-0.54828,-0.13238 -0.95557,-0.62618 -0.95557,-1.21513zM250.00561,192.17698c2.38695,-0.89228 3.95423,-3.23905 5.16189,-5.49624c-4.77665,0.86826 -9.87524,0.60312 -14.67987,1.00098c-0.0577,0.04605 -0.14311,0.10736 -0.24958,0.16399c0.19803,0.78946 0.48852,1.63863 0.67671,2.26691c0.04754,0.49973 0.09507,0.99947 0.14261,1.49921l0.0046,0.54975c2.88159,0.22357 6.49083,0.93229 8.94364,0.0154zM258.18054,186.28401c-1.59681,3.19224 -3.72687,6.96014 -7.31115,8.239c-3.28146,1.17082 -7.75643,0.07329 -11.18189,0.07699h-0.25c0,0 -0.58173,0 -0.95149,-0.39686c-4.57317,-0.2813 -12.30185,-3.15292 -14.72404,-7.05074c-1.41837,-2.28246 -2.4391,-6.28956 -2.9273,-8.94302l-0.24789,-1.23924c0,0 -0.24515,-1.22573 0.98058,-1.47087c0.17227,-0.03446 0.32515,-0.03985 0.46072,-0.02369c0.60743,-0.70332 1.49766,-0.22853 1.49766,-0.22853c4.84502,2.58533 10.00935,3.99115 15.10753,5.93512c0.9009,0.34352 4.95505,1.236 5.12742,2.18663c0.13101,0.72258 0.12672,1.25186 0.02671,1.63806c4.353,-0.1458 8.83755,-0.11492 12.94621,-1.23783c0,0 1.20596,-0.3289 1.53485,0.87706c0.07684,0.28175 0.06991,0.51563 0.01414,0.70862c0.12534,0.47449 -0.10206,0.92929 -0.10206,0.92929z" fill="#000000" stroke="none" stroke-width="0.5" stroke-linecap="butt"/><path d="M241.01519,192.17922l-0.00579,-0.55328c-0.04754,-0.49973 -0.09699,-1.01024 -0.14453,-1.50997c-0.1882,-0.62828 -0.47738,-1.49259 -0.67541,-2.28205c0.10647,-0.05662 0.19224,-0.11935 0.24995,-0.1654c4.80463,-0.39786 9.99789,-0.13804 14.77454,-1.0063c-1.20766,2.25718 -2.78765,4.65938 -5.1746,5.55166c-2.45281,0.9169 -6.14257,0.18891 -9.02416,-0.03466z" data-paper-data="{&quot;noHover&quot;:false,&quot;origItem&quot;:[&quot;Path&quot;,{&quot;applyMatrix&quot;:true,&quot;segments&quot;:[[[500.01122,384.35395],[-4.90561,1.83379],[4.7739,-1.78456]],[[510.33499,373.36148],[-2.41532,4.51437],[-9.5533,1.73652]],[[480.97526,375.36344],[9.60926,-0.79572],[-0.11541,0.0921]],[[480.47609,375.69142],[0.21294,-0.11325],[0.39605,1.57892]],[[481.82951,380.22524],[-0.37639,-1.25656],[0.09507,0.99947]],[[482.11473,383.22365],[-0.09507,-0.99947],[0,0]],[[482.12394,384.32316],[0,0],[5.76318,0.44714]]],&quot;closed&quot;:true}]}" fill="#1e1e1e" stroke="none" stroke-width="0.5" stroke-linecap="butt"/><path d="M223.29129,177.92356c4.27032,2.10863 8.81278,3.30265 13.22893,5.06984c0.35677,0.14277 1.91641,0.90986 3.17951,1.27492c-0.97576,0.67445 -2.01263,1.65485 -2.05327,1.79808c-0.24655,0.86887 0.56475,3.59555 0.85237,4.55279c0.03234,0.37667 0.06193,0.7564 0.09427,1.13307c-3.78686,-0.16995 -10.75497,-2.82214 -12.77934,-5.94625c-1.23039,-1.8988 -2.08738,-5.52782 -2.52246,-7.88245z" data-paper-data="{&quot;noHover&quot;:false,&quot;origItem&quot;:[&quot;Path&quot;,{&quot;applyMatrix&quot;:true,&quot;segments&quot;:[[[451.72606,371.59517],[-2.46079,-3.7976],[4.04874,6.24821]],[[477.11452,383.43475],[-7.57371,-0.3399],[-0.06468,-0.75334]],[[476.92049,381.17473],[0.06468,0.75334],[-0.57523,-1.91448]],[[475.19484,372.1132],[-0.4931,1.73774],[0.08129,-0.28646]],[[479.29968,368.54354],[-1.95153,1.3489],[-2.52621,-0.73012]],[[472.94652,366.02118],[0.71355,0.28554],[-8.8323,-3.53438]],[[446.65902,355.91157],[8.54063,4.21727],[0.87017,4.70926]]],&quot;closed&quot;:true}]}" fill="#1e1e1e" stroke="none" stroke-width="0.5" stroke-linecap="butt"/><path d="M239.88478,186.49081c0.12647,0.42171 0.25296,0.84341 0.37944,1.26511c0.4029,1.48361 2.59485,4.62534 1.94798,6.08468c-0.37046,0.83576 -2.33617,1.66715 -3.19582,2.11727c-3.8696,2.02618 -7.34493,0.81467 -7.70074,-4.14427c-0.22185,-3.09194 3.07406,-5.31692 4.74036,-7.59608c-0.41264,-0.6719 -0.77716,-1.44715 -1.13146,-2.22528c0,0 -0.05528,-0.12162 -0.08994,-0.30342c-0.09387,-0.17546 -0.1471,-0.37593 -0.1471,-0.58883c0,-0.69036 0.55964,-1.25 1.25,-1.25c0.24259,0 0.46904,0.0691 0.66073,0.1887l1.0846,0.65076c1.83929,0.30817 5.74257,0.69552 5.32342,3.53131c-0.1089,0.73682 -1.23479,0.83351 -1.86181,1.23551c-0.46896,0.30067 -0.9009,0.50919 -1.30048,0.63793z" fill="#ff0000" stroke="none" stroke-width="0.5" stroke-linecap="butt"/><path d="M233.77691,196.93923c-0.46424,-1.1606 0.69636,-1.62484 0.69636,-1.62484l0.69395,-0.27525c0.82436,-0.27307 4.23975,-0.57089 4.71277,-1.35561c1.46087,-2.4235 -3.47223,-5.21284 -1.73424,-8.02437c1.00451,-1.62499 2.23538,-0.81023 2.88116,-2.64841c0,0 0.46424,-1.1606 1.62483,-0.69636c1.1606,0.46424 0.69636,1.62484 0.69636,1.62484c-0.82799,1.92339 -1.59279,1.98746 -3.11884,3.1016c-0.33828,0.24697 0.38026,0.7464 0.57285,1.11834c0.73972,1.42857 1.70021,3.29359 1.63523,4.96098c-0.14157,3.63308 -3.87637,3.41687 -6.47955,4.2907l-0.55605,0.22475c0,0 -1.16059,0.46424 -1.62483,-0.69636z" fill="#cc0000" stroke="none" stroke-width="0.5" stroke-linecap="butt"/><path d="M236.00141,185.39541c-1.17041,0.43891 -1.60932,-0.7315 -1.60932,-0.7315l-0.43031,-1.19376c-0.88993,-5.06747 2.85546,-3.89451 6.12101,-2.806c0,0 1.18586,0.39529 0.79057,1.58114c-0.39529,1.18586 -1.58114,0.79056 -1.58114,0.79056c-1.85804,-0.61935 -3.41212,-2.27694 -2.87899,-0.05599l0.31968,0.80624c0,0 0.43891,1.17041 -0.7315,1.60932z" fill="#ff6f6f" stroke="none" stroke-width="0.5" stroke-linecap="butt"/><path d="M231.3125,194.97499c-1.25,0 -1.25,-1.25 -1.25,-1.25v-0.125c0.00689,-2.39184 0.43792,-4.18122 1.875,-6.125c0,0 0.75,-1 1.75,-0.25c1,0.75 0.25,1.75 0.25,1.75c-1.13295,1.48317 -1.38117,2.78347 -1.375,4.625v0.125c0,0 0,1.25 -1.25,1.25z" fill="#ff6f6f" stroke="none" stroke-width="0.5" stroke-linecap="butt"/></g></g></svg>