<svg version="1.1" xmlns="http://www.w3.org/2000/svg" xmlns:xlink="http://www.w3.org/1999/xlink" width="35.50465" height="39.33957" viewBox="0,0,35.50465,39.33957"><g transform="translate(-222.3391,-154.54341)"><g data-paper-data="{&quot;isPaintingLayer&quot;:true}" fill-rule="nonzero" stroke="none" stroke-width="0.5" stroke-linecap="butt" stroke-linejoin="miter" stroke-miterlimit="10" stroke-dasharray="" stroke-dashoffset="0" style="mix-blend-mode: normal"><path d="M239.42506,183.89265l0.03509,0.03008l0.02182,0.00614zM239.21168,183.75542h-0.04762l0.15475,0.07737zM244.51217,179.3754l0.15062,-0.03012l0.12539,-0.12539v-1.94242l-0.10139,-0.40556l-0.03335,-0.05558l-0.1552,-0.24389l-0.66994,-0.66994l-0.09831,-0.06256l-0.37038,-0.15595l-0.09524,-0.07143h-2.48357l-1.37053,0.22842l-0.86386,0.24682l-0.14383,0.00479l-0.13198,0.05738l-0.25583,0.04264l-0.0525,0.03937l-0.57567,0.46054l-0.15562,0.15562l-0.07948,0.11922l0.0167,0.08348l-0.01184,0.24872l0.06039,0.24157v0.16071l0.20014,0.05003l0.56075,0.12461l0.06231,0.03115l0.06966,0.01742l0.01169,0.02045l0.24317,0.08106l0.06342,0.04036l0.07449,0.01016l0.64607,0.25843l0.78745,0.26248l0.25882,0.1647c0.14884,0.01132 0.29403,0.03567 0.43445,0.07192l0.03622,-0.00988l0.06266,0.0376c0.15815,0.04789 0.30967,0.11102 0.45286,0.18769l0.07157,0.01789l0.01883,0.03296c0.14916,0.08803 0.28838,0.19111 0.41557,0.30715l0.24407,0.09763l0.29823,0.21539l0.17084,0.00949l0.02133,0.02489h0.98765l0.10825,-0.02706l0.55675,-0.2227l0.22916,-0.03125zM256.99924,175.86176l-0.12843,0.51371l-0.08264,0.41321v2.16228l0.3075,0.61499l0.05078,0.22849l0.11697,0.20274l0.28571,1l0.01162,0.34851l0.08457,0.33829v0.71429l-0.11484,0.45934l-0.06397,0.46914l-0.28571,0.71429l-0.22992,0.31835l-0.17072,0.35364l-0.60517,0.72621l-2.04793,3.27668l-1.13095,1.83779l-0.84992,1.41653l-0.31339,0.31339l-0.2686,0.35254l-0.71429,0.57143l-0.00055,0.00025l-0.01439,0.03631l-0.58355,0.23774l-0.57282,0.26254l-0.03632,-0.01438l-0.00056,0.00023l-1,0.14286l-0.3154,-0.03263l-0.31423,0.04246l-1.28571,-0.14286l-0.05519,-0.0205l-0.05864,0.0052l-2.71429,-0.42857l-0.03397,-0.01443l-0.03684,0.0022l-2.28571,-0.42857l-0.1358,-0.06233l-0.14917,-0.00865l-2.27208,-0.71002l-2.84346,-0.85304l-0.06765,-0.04022l-0.07825,-0.00848l-2.71429,-1l-0.00615,-0.00419l-0.00739,-0.00085l-2.28571,-0.85714l-0.26441,-0.18235l-0.29949,-0.11605l-2.35272,-1.66074l-0.63467,-0.3808l-0.34028,-0.34028l-0.37348,-0.30346l-1.71429,-2.28571l-0.06716,-0.15951l-0.11823,-0.12639l-0.71429,-1.28571l-0.06065,-0.22607l-0.12566,-0.19747l-0.85714,-2.57143l-0.03082,-0.40069l-0.09747,-0.38988v-2.42857l0.07464,-0.29857v-0.30776l0.28571,-1.14286l0.04613,-0.08649l0.00752,-0.09774l0.28571,-0.85714l0.13368,-0.21007l0.06742,-0.2397l0.57143,-1l0.13634,-0.14226l0.0821,-0.17913l0.57143,-0.71429l0.20193,-0.15385l0.14978,-0.20496l0.85714,-0.71429l0.08567,-0.04136l0.06169,-0.07242l1,-0.71429l0.26396,-0.10398l0.2276,-0.16937l1.68725,-0.70302l1.25895,-0.55953l0.37879,-0.06629l0.36048,-0.13389l1.28571,-0.14286l0.13951,0.01885l0.13657,-0.03414h4.14286l0.07744,0.01936l0.0785,-0.01449l2.28571,0.14286l0.17958,0.05701l0.1883,-0.00638l1.85262,0.39699l1.30839,0.11894h1.74374l0.12315,0.03079l0.12561,-0.01838l1.42857,0.14286l0.15196,0.05455l0.16143,-0.00294l1.85714,0.42857l0.0504,0.02571l0.05656,0.00147l2.57143,0.71429l0.21153,0.11997l0.23739,0.05275l1.33556,0.66778l0.61774,0.24709l0.086,0.06211l0.10356,0.02301l0.28571,0.14286l0.04606,0.03948l0.97116,0.05395l0.06932,-0.02311l0.03306,0.02879l0.73134,0.04063l0.83853,0.97828l0.14286,0.28571l0.05156,0.232l0.10254,0.08931l0.02255,0.47362l0.10286,0.46286l-0.07543,0.11314l0.0113,0.23739l-0.14286,0.71429l-0.14295,0.30178l-0.07244,0.32597l-0.1176,0.2352l-0.08106,0.48634l-0.04063,0.09345z" fill="#ff0000"/><path d="M235.64532,176.62554c0.14899,-0.50438 0.3767,-0.93463 0.6655,-1.2967c2.0603,-2.58308 7.22972,-1.6966 9.10731,0.49584c0.76317,0.89115 0.80248,4.32019 -1.06453,3.94679c-2.47911,-0.49582 -0.69834,-2.846 -3.40177,-2.82677c-0.84228,0.00599 -3.36239,1.57826 -3.82043,1.2729z" fill="#ab0000"/><path d="M255.14532,179.18399c1.44204,0.82402 2.17477,1.94008 2.40505,3.18478c0.67422,3.64424 -2.95858,8.39119 -5.70689,10.14012c-5.08283,3.23453 -13.87813,-0.30472 -19.11886,-2.24339c-2.03263,-0.75192 -10.60154,-3.23766 -6.63278,-7.20642c1.44067,-1.44067 2.42875,-0.75504 3.53553,0c2.59524,1.77044 8.24258,5.09674 11.6608,5.12491c0.38213,0.00315 5.60547,0.2428 7.625,-0.14286c0.16979,-0.03242 3.71156,-3.85753 3.73214,-4.04815c0.12863,-1.19123 -0.69483,-2.98337 0.34546,-3.57783z" fill="#ab0000"/><path d="M255.82858,171.30197c0.1591,0.18561 0.30524,0.36573 0.43674,0.54107c0.49706,0.45693 0.80857,1.11257 0.80857,1.84096c0,1.38071 -1.11929,2.5 -2.5,2.5c-0.26357,0 -0.51761,-0.04079 -0.75616,-0.11639c-0.21516,-0.06819 -0.41771,-0.16471 -0.60328,-0.28518c-1.76299,-0.50925 -4.09003,-1.5292 -5.87476,-2.30317c-4.29364,-1.86199 -10.4239,-2.58792 -15.15172,-2.29526c-4.44241,0.27499 -4.18076,7.21846 -5.14087,8.17857c-1.75336,1.75336 -4.47319,1.46869 -4.6875,-1.25c-0.34734,-4.40624 3.76645,-11.60325 8.78571,-11.92857c6.77777,-0.4393 12.66963,1.3631 18.75935,3.04147c1.99157,0.54889 4.21636,0.71271 5.79938,2.06959z" fill="#ff7a7a"/><path d="M241.91064,179.21973c1.24055,0.03791 3.19735,-0.68494 3.94331,0.80697c0.81574,1.63149 -0.83033,2.83151 -2.17182,2.87363c-1.74577,0.05482 -6.47832,-0.25582 -7.5591,-2.14718c-0.54241,-0.32012 -0.90629,-0.91057 -0.90629,-1.586c0,-1.01637 0.82393,-1.8403 1.8403,-1.8403c0.386,0 0.74423,0.11884 1.04013,0.32192c1.06911,0.44705 2.2341,1.5227 3.81347,1.57096z" fill="#ff7a7a"/><path d="M236.88314,165.60055l0.05692,0.04879l0.00212,0.03811c0.02519,0.0388 0.04933,0.07834 0.07238,0.11858l0.35173,0.01954l0.26232,0.30604l0.13071,0.04357l0.15181,0.09661l0.17566,0.03903l0.90699,0.4535l1.65973,0.66389l1.62705,0.46487l0.04824,0.02783l0.05553,0.00427l0.53614,0.17871l0.63013,0.09002l0.97824,0.12228l0.14296,0.05534h0.15329l0.85354,0.21339l1.69576,0.21197l4.96936,0l0,-1.5l0.06039,-0.24157l-0.01184,-0.24872l0.07645,-0.38226v-1.37745l0.04364,-0.17457l-0.01852,-0.17899l0.08419,-0.58932l-0.00113,0.00038l-0.22143,0.14762l-0.31447,0.11231l-0.28172,0.17927l-0.08411,0.02804l-0.08146,0.10025l-0.05573,0.0418l-0.04673,0.05452l-0.02804,0.00156l-0.3695,0.27713l-0.20943,0.08818l-0.17253,0.14789l-0.25,0.125l-0.47768,0.10615l-0.07786,0.03278l-0.02365,-0.01023l-0.49452,0.10989l-0.04433,0.02533l-0.0195,-0.01115l-0.12025,0.02672l-1.00208,-0.66805l-0.56462,-0.32264l-0.11256,-0.03166l-0.02506,-0.04698l-0.34343,-0.19624l-0.02988,-0.1195l-0.01869,-0.01246l0.00283,-0.05098l-0.16494,-0.65975l-0.02718,-0.05097l-0.125,-0.5v-0.06096l-0.0261,-0.05509l-0.06514,-0.32572l-0.83671,0.73212l-0.76525,0.87457l-0.06989,0.04854l-0.04378,0.07297l-0.49937,0.49937l-0.2684,0.35786l-0.13965,0.11347l-0.09258,0.1543l-0.25,0.25l-1.10485,0.66291l-0.2809,-0.07661l-0.24226,0.16151l-1.00412,-0.22314l-0.04855,0.01324l-0.06361,-0.03816l-0.14152,-0.03145l-0.25,-0.125l-0.30513,-0.26154l-0.34461,-0.20676l-0.5,-0.5l-0.12811,-0.21352l-0.18425,-0.1675l-0.11268,-0.16903l-0.19996,-0.19996l-0.12811,-0.21352l-0.18425,-0.1675l-0.01246,-0.01869l-0.05424,-0.04068l-0.99392,-0.59635l-0.71905,-0.30816l-0.05985,-0.04549l-0.07338,-0.01631l-0.45834,-0.22917l0.01684,0.07577l-0.00072,0.02733l0.0117,0.02471l0.23833,1.19167l0.21229,0.84914l0.21964,0.65891l0.00308,0.04004c0.01344,0.01788 0.02664,0.03595 0.03961,0.0542zM233.68073,169.26045l-0.20502,-0.10251l-0.11235,-0.0963c-0.10015,-0.07371 -0.19461,-0.15471 -0.28259,-0.24222l-0.21736,-0.18631l-0.16955,-0.05652l-0.07082,-0.14952l-0.12561,-0.10767l-0.00991,-0.17845l-0.34522,-0.72881l-0.09448,-0.47238l-0.20078,-0.60234l-0.00752,-0.09774l-0.04613,-0.08649l-0.25,-1v-0.06096l-0.0261,-0.05509l-0.24478,-1.22392l-0.24423,-1.09904l0.00316,-0.12015l-0.04339,-0.11209l-0.12228,-0.97824l-0.1219,-0.85329l0.01852,-0.17899l-0.04364,-0.17457v-0.625l0.06039,-0.24157l-0.01184,-0.24872l0.125,-0.625l0.06763,-0.14277l0.01212,-0.15751l0.11092,-0.33275l-0.04489,-0.16459l0.16527,-0.27545l0.07791,-0.31164l0.16598,-0.09485l0.25375,-0.42292l0.25,-0.25l0.42292,-0.25375l0.09485,-0.16598l0.31164,-0.07791l0.27545,-0.16527l0.18443,0.0503l0.47848,-0.11962h0.08688l0.02336,-0.01558l0.07009,0.01558h0.06966l0.55728,0.13932l0.30708,0.06824l0.04855,-0.01324l0.06361,0.03816l0.14152,0.03145l0.06231,0.03115l0.06966,0.01742l0.01393,0.02438l0.1041,0.05205l0.30513,0.26154l0.34461,0.20676l0.57496,0.57496l0.16903,0.11268l0.04778,0.05256l0.06547,0.02757l0.31966,0.23975l0.29837,0.14919l0.07443,0.06379l0.09378,0.02854l0.54267,0.3256l0.59841,0.29921l0.80747,0.34606l0.13692,0.10406l0.16452,0.05007l1.25,0.75l0.0928,0.0928l0.12096,0.05093l0.5,0.375l0.06317,0.07775l0.30539,-0.34901l0.13879,-0.09639l0.09639,-0.13879l0.87457,-0.76525l0.76525,-0.87457l0.06989,-0.04854l0.04378,-0.07297l0.75,-0.75l0.12071,-0.07243l0.08532,-0.11198l0.48639,-0.38911l0.08928,-0.40175l0.03115,-0.06231l0.01742,-0.06966l0.02438,-0.01393l0.17705,-0.3541l0.83853,-0.97828l1.26266,-0.07015l1.26161,-0.08701l0.95339,0.86672l0.25,0.375l0.16338,0.45746l0.20795,0.439l0.125,0.625l-0.00338,0.07095l0.0268,0.06578l0.125,0.875l-0.01852,0.17899l0.04364,0.17457l0,0.46936l0.01745,0.1396l0.52343,-0.17448l0.34109,-0.17054l0.32597,-0.07244l0.30178,-0.14295l0.47238,-0.09448l0.22734,-0.07578l0.33711,-0.02593l0.01108,-0.00246l0.15181,-0.09661l0.375,-0.125l0.40069,-0.03082l0.38988,-0.09747h0.25l0.14758,0.0369l0.09652,-0.00742l0.04894,0.04379l0.95695,0.23924l0.34091,0.59659l0.59659,0.34091l0.3125,1.25v1l-0.05068,0.20271l0.01666,0.20829l-0.09098,0.54591v0.66809l-0.04364,0.17457l0.01852,0.17899l-0.22487,1.57412v1.44733l-0.06039,0.24157l0.01184,0.24872l-0.07645,0.38226l0,2.88461l0.14058,0.63259l-0.38082,0.57124l-0.00038,0.00153l-0.03806,0.68503l-0.97828,0.83853l-0.3541,0.17705l-0.01393,0.02438l-0.06966,0.01742l-0.06231,0.03115l-0.56075,0.12461l-0.55728,0.13932h-0.06966l-0.07009,0.01558l-0.02336,-0.01558l-0.0891,0l-0.3579,0.02753l-0.38988,0.09747h-6.25l-0.15326,-0.03831l-0.15683,0.01901l-2,-0.25l-0.14296,-0.05534h-0.15329l-0.85354,-0.21339l-0.8502,-0.10628l-0.02103,-0.00814l-0.02243,0.00232l-0.875,-0.125l-0.21045,-0.08574l-0.22657,-0.01743l-0.69847,-0.23282l-1.69777,-0.48508l-0.11273,-0.06503l-0.12895,-0.01758l-1.875,-0.75l-0.086,-0.06211l-0.10356,-0.02301l-0.84109,-0.42054l-0.20645,-0.06882l-0.15181,-0.09661l-0.17566,-0.03903l-0.5,-0.25l-0.15498,-0.13284l-0.12453,-0.00692l-0.32251,-0.37626l-0.37626,-0.32251l-0.00692,-0.12453l-0.06007,-0.07009c-0.08564,-0.03363 -0.16898,-0.07184 -0.24971,-0.11435z" fill="#000000"/><path d="M236.79355,165.54538l-0.00307,-0.04031l-0.21936,-0.66311l-0.21148,-0.85413l-0.23659,-1.19786l-0.01167,-0.02481l0.00077,-0.02747l-0.01671,-0.07613l0.55234,0.26326l0.07337,0.01636l0.0599,0.04536l0.71916,0.30785l0.99451,0.59455l0.0543,0.0405l0.01249,0.01858l0.1845,0.16662l0.12849,0.21207l0.20026,0.19866l0.11295,0.16773l0.18447,0.16625l0.12839,0.21162l0.50038,0.49511l0.34462,0.20434l0.30493,0.258l0.24977,0.12294l0.14141,0.03072l0.0635,0.03747l0.04856,-0.01316l1.00221,0.21534l0.24281,-0.15975l0.18619,0.10843l1.10156,-0.68093l0.25855,-0.27779l0.10558,-0.16746l0.15497,-0.1206l0.28869,-0.3591l0.51291,-0.4954l0.04406,-0.07284l0.07106,-0.04798l0.76989,-0.87196l0.84004,-0.72982l0.06777,0.32785l0.02667,0.05559l0.00042,0.06134l0.12945,0.50463l0.02772,0.05162l0.17043,0.66803l-0.00251,0.05161l0.01883,0.01274l0.03072,0.12127l0.34521,0.20074l0.02531,0.04773l0.11285,0.03256l0.56603,0.32855l1.00283,0.67663l0.02025,-0.02637l0.0195,0.01103l0.04433,-0.02508l0.49454,-0.10894l0.02364,0.01013l0.07786,-0.03251l0.47771,-0.10541l0.25005,-0.12411l0.17261,-0.14685l0.20948,-0.08767l0.36969,-0.27546l0.02804,-0.00157l0.04677,-0.05419l0.05576,-0.04157l0.08154,-0.09967l0.08413,-0.02794l0.28185,-0.17843l0.31453,-0.11196l0.22155,-0.147l0.09932,-0.01934l-0.08365,0.59271l0.01864,0.18008l-0.04355,0.1756l-0.00005,1.38591l-0.07672,0.38463l0.01162,0.2502l-0.06067,0.24307l-0.00242,1.50827l-4.98113,0.01775l-1.70985,-0.20235l-0.86573,-0.20962l-0.15607,0.0004l-0.14553,-0.05511l-0.99684,-0.12461l-0.64037,-0.09466l-0.54365,-0.1842l-0.05608,-0.00476l-0.0489,-0.02844l-1.63799,-0.48001l-1.66348,-0.6753l-0.90772,-0.45839l-0.1757,-0.03947l-0.15188,-0.09743l-0.13074,-0.04396l-0.26241,-0.30834l-0.35174,-0.01972c-0.02305,-0.04024 -0.0472,-0.08059 -0.07238,-0.11939l-0.00212,-0.03836l-0.05692,-0.04911c-0.01296,-0.01825 -0.02616,-0.03667 -0.0396,-0.05455z" data-paper-data="{&quot;noHover&quot;:false,&quot;origItem&quot;:[&quot;Path&quot;,{&quot;applyMatrix&quot;:true,&quot;segments&quot;:[[[236.88314,165.60055],[-0.01296,-0.01825],[0,0]],[236.94006,165.64933],[[236.94218,165.68744],[0,0],[0.02519,0.0388]],[[237.01456,165.80602],[-0.02305,-0.04024],[0,0]],[237.36629,165.82556],[237.62861,166.1316],[237.75932,166.17517],[237.91113,166.27177],[238.08678,166.31081],[238.99378,166.7643],[240.6535,167.42819],[242.28055,167.89307],[242.32879,167.9209],[242.38432,167.92517],[242.92046,168.10388],[243.5506,168.1939],[244.52884,168.31618],[244.67179,168.37152],[244.82509,168.37152],[245.67863,168.5849],[247.37439,168.79688],[252.34375,168.79688],[252.34375,167.29688],[252.40414,167.05531],[252.3923,166.80658],[252.46875,166.42433],[252.46875,165.04688],[252.51239,164.87231],[252.49388,164.69332],[252.57806,164.104],[252.57693,164.10438],[252.3555,164.252],[252.04103,164.36431],[251.75932,164.54358],[251.67521,164.57162],[251.59375,164.67188],[251.53802,164.71367],[251.49129,164.76819],[251.46325,164.76975],[251.09375,165.04688],[250.88432,165.13506],[250.71178,165.28294],[250.46178,165.40794],[249.98411,165.51409],[249.90625,165.54688],[249.8826,165.53665],[249.38808,165.64654],[249.34375,165.67188],[249.32425,165.66073],[249.204,165.68745],[248.20192,165.0194],[247.6373,164.69676],[247.52473,164.6651],[247.49968,164.61812],[247.15625,164.42188],[247.12637,164.30237],[247.10768,164.28991],[247.11051,164.23893],[246.94558,163.57918],[246.91839,163.52821],[246.79339,163.02821],[246.79339,162.96726],[246.7673,162.91217],[246.70215,162.58644],[245.86544,163.31857],[245.10019,164.19314],[245.0303,164.24167],[244.98652,164.31464],[244.48715,164.81401],[244.21875,165.17188],[244.0791,165.28534],[243.98652,165.43964],[243.73652,165.68964],[242.63166,166.35255],[242.35076,166.27595],[242.1085,166.43745],[241.10439,166.21431],[241.05584,166.22755],[240.99223,166.18939],[240.85072,166.15794],[240.60072,166.03294],[240.29559,165.77141],[239.95098,165.56464],[239.45098,165.06464],[239.32287,164.85112],[239.13862,164.68363],[239.02594,164.5146],[238.82598,164.31464],[238.69787,164.10112],[238.51362,163.93363],[238.50116,163.91494],[238.44692,163.87425],[237.453,163.2779],[236.73395,162.96974],[236.6741,162.92425],[236.60072,162.90794],[236.14238,162.67877],[236.15922,162.75455],[236.1585,162.78188],[236.1702,162.80658],[236.40853,163.99825],[236.62082,164.84739],[236.84046,165.50631],[[236.84354,165.54635],[0,0],[0.01344,0.01788]]],&quot;closed&quot;:true}]}" fill="#f7ff00"/></g></g></svg>