<svg version="1.1" xmlns="http://www.w3.org/2000/svg" xmlns:xlink="http://www.w3.org/1999/xlink" width="51.2632" height="38.75513" viewBox="0,0,51.2632,38.75513"><defs><radialGradient cx="232.84481" cy="176.47045" r="17.36493" gradientUnits="userSpaceOnUse" id="color-1"><stop offset="0" stop-color="#c7c7c7"/><stop offset="1" stop-color="#ffffff"/></radialGradient><radialGradient cx="248.26667" cy="186.02809" r="17.36493" gradientUnits="userSpaceOnUse" id="color-2"><stop offset="0" stop-color="#923214"/><stop offset="1" stop-color="#4e1503"/></radialGradient></defs><g transform="translate(-214.3684,-160.62243)"><g data-paper-data="{&quot;isPaintingLayer&quot;:true}" fill-rule="nonzero" stroke="none" stroke-width="0.5" stroke-linecap="butt" stroke-linejoin="miter" stroke-miterlimit="10" stroke-dasharray="" stroke-dashoffset="0" style="mix-blend-mode: normal"><path d="M226.95495,174.98376c-0.08605,-0.51884 -0.06893,-1.00533 0.03291,-1.45713c0.72652,-3.22324 5.76459,-4.68154 8.41073,-3.52825c1.07556,0.46877 2.60735,3.53691 0.76454,4.0157c-2.44697,0.63575 -1.87032,-2.25595 -4.29435,-1.05888c-0.75523,0.37296 -2.33658,2.88738 -2.88196,2.81252z" fill="#985933"/><path d="M245.61667,168.77603c1.65708,0.11212 2.8034,0.79654 3.55378,1.81597c2.19696,2.9847 0.99988,8.84113 -0.7097,11.61408c-3.16177,5.12841 -12.6199,5.78218 -18.1813,6.32488c-2.157,0.21049 -10.95169,1.71336 -9.11272,-3.5895c0.66755,-1.92495 1.85578,-1.73925 3.18111,-1.54289c3.10769,0.46041 9.6405,0.9888 12.72835,-0.47755c0.3452,-0.16393 5.14951,-2.22774 6.79829,-3.45605c0.13862,-0.10327 1.65609,-5.09054 1.59142,-5.27103c-0.40411,-1.12795 -1.92711,-2.38108 -1.25052,-3.36993z" fill="#985933"/><path d="M242.79176,161.38597c0.22415,0.09757 0.43424,0.19586 0.62908,0.29624c0.64663,0.19421 1.21304,0.64818 1.5309,1.30356c0.60254,1.2423 0.0839,2.73784 -1.1584,3.34038c-0.23715,0.11502 -0.48352,0.18918 -0.73115,0.22526c-0.22335,0.03254 -0.44772,0.03409 -0.66726,0.00668c-1.80849,0.31116 -4.34736,0.40896 -6.29094,0.49143c-4.67579,0.19839 -10.50831,2.22044 -14.63448,4.54696c-3.87708,2.18607 -0.61156,8.31931 -1.05644,9.60216c-0.81244,2.34275 -3.38385,3.27354 -4.7631,0.92091c-2.23538,-3.81296 -1.67472,-12.08374 2.69942,-14.56683c5.90662,-3.35305 11.99441,-4.30251 18.2061,-5.44991c2.03146,-0.37524 4.10471,-1.19873 6.12118,-0.6687z" fill="#d3a689"/><path d="M233.7243,174.58374c1.13273,-0.50726 2.57793,-2.01159 3.90017,-0.99477c1.44594,1.11196 0.48856,2.91002 -0.70007,3.53334c-1.54684,0.81117 -5.94054,2.59693 -7.73836,1.36682c-0.62773,-0.05132 -1.21281,-0.42379 -1.50756,-1.03151c-0.44354,-0.91448 -0.06176,-2.01538 0.85272,-2.45892c0.34731,-0.16845 0.72149,-0.21785 1.07635,-0.16426c1.15703,-0.06432 2.67464,0.39511 4.11675,-0.2507z" fill="#d3a689"/><path d="M233.52712,179.87292l0.0447,0.01175l0.02231,-0.004zM233.27525,179.84256l-0.04285,0.02078l0.173,0.00208zM236.13297,173.58851l0.12238,-0.09283l0.0581,-0.16754l-0.84766,-1.7477l-0.26821,-0.32066l-0.05426,-0.03545l-0.24607,-0.15171l-0.89514,-0.31042l-0.11576,-0.01339l-0.40131,0.02132l-0.11686,-0.02271l-2.2346,1.08382l-1.13346,0.80361l-0.66955,0.59906l-0.12732,0.06708l-0.09371,0.10922l-0.21158,0.15001l-0.03006,0.05833l-0.31698,0.66559l-0.07211,0.20793l-0.01949,0.14195l0.05146,0.06782l0.09789,0.22895l0.15976,0.191l0.07013,0.1446l0.20191,-0.04233l0.55892,-0.13259l0.06966,0.00084l0.07028,-0.01473l0.01944,0.0133l0.25417,-0.03318l0.07468,0.00864l0.07146,-0.02337l0.69408,-0.04942l0.82306,-0.10747l0.30475,0.03524c0.13886,-0.05477 0.28012,-0.09622 0.42228,-0.12488l0.02828,-0.0247l0.07279,0.00649c0.1632,-0.02593 0.32708,-0.03525 0.48937,-0.02875l0.0722,-0.01514l0.03133,0.02144c0.17262,0.01411 0.34287,0.0461 0.50795,0.09501l0.26221,-0.01867l0.36233,0.06365l0.15786,-0.06602l0.03005,0.01309l0.88864,-0.43101l0.08559,-0.07159l0.40375,-0.44334l0.19255,-0.12812zM245.83495,164.97779l0.10862,0.51826l0.10597,0.40785l0.94361,1.94552l0.54505,0.41915l0.1454,0.18342l0.19372,0.13137l0.69346,0.77507l0.16254,0.3085l0.22372,0.26747l0.31171,0.64269l0.09713,0.46341l0.14717,0.45003l0.05464,0.76737l-0.06795,0.38677l0.00072,0.39269l-0.22759,0.9175l-0.41271,3.84192l-0.21558,2.1471l-0.14655,1.64543l-0.14521,0.41874l-0.08783,0.43442l-0.39332,0.82586l-0.00039,0.00046l0.0029,0.03895l-0.4213,0.46857l-0.40083,0.4862l-0.03895,0.00291l-0.0004,0.00045l-0.83741,0.56493l-0.29802,0.10828l-0.2642,0.17533l-1.21917,0.43254l-0.0586,0.00564l-0.05049,0.03027l-2.62922,0.79889l-0.03686,0.00184l-0.03219,0.01806l-2.24361,0.61186l-0.14939,0.00318l-0.13799,0.05731l-2.35416,0.35268l-2.93068,0.47334l-0.07842,-0.00667l-0.07411,0.02652l-2.87859,0.28475l-0.00736,-0.00109l-0.00702,0.00246l-2.43063,0.22626l-0.31748,-0.04868l-0.32011,0.02628l-2.84161,-0.46754l-0.73723,-0.06566l-0.45467,-0.15767l-0.46847,-0.11005l-2.53991,-1.30847l-0.13004,-0.11421l-0.16153,-0.06213l-1.20376,-0.84511l-0.15323,-0.17694l-0.19924,-0.12284l-1.89338,-1.93961l-0.20259,-0.34707l-0.25784,-0.30826l-1.05982,-2.18512l-0.06314,-0.30121l-0.1343,-0.27691l-0.24167,-1.15298l0.00376,-0.09795l-0.03589,-0.09122l-0.11698,-0.8959l0.02861,-0.24735l-0.04394,-0.24509l0.07775,-1.14912l0.06059,-0.1875l-0.0043,-0.197l0.20243,-0.89206l0.11455,-0.22655l0.04532,-0.24978l0.4595,-1.01674l0.05903,-0.0746l0.0239,-0.09208l0.58804,-1.07908l0.19212,-0.20875l0.13087,-0.25172l1.21132,-1.36885l0.88857,-1.05284l0.31189,-0.22495l0.26591,-0.27778l1.09448,-0.68962l0.13375,-0.04392l0.10798,-0.09032l3.72756,-1.80792l0.07813,-0.01638l0.06431,-0.04729l2.11892,-0.86893l0.18646,-0.02707l0.16664,-0.08791l1.84015,-0.45128l1.22914,-0.46396l1.56894,-0.76096l0.12424,-0.02604l0.105,-0.07135l1.34771,-0.49488l0.16053,-0.01723l0.14396,-0.07309l1.858,-0.42484l0.05657,0.00114l0.05153,-0.02336l2.62537,-0.47947l0.24268,0.01563l0.23661,-0.05613l1.49309,0.01801l0.66364,-0.04726l0.10448,0.01835l0.10322,-0.02449l0.31941,0.00386l0.05867,0.01542l0.89735,-0.37527l0.05229,-0.05104l0.04231,0.01148l0.67576,-0.2826l1.18139,0.51428l0.25322,0.19473l0.14764,0.18624l0.13124,0.03561l0.22697,0.4163l0.29454,0.37157l-0.01849,0.13472l0.11376,0.20866l0.18317,0.70503l0.00308,0.33391l0.07707,0.32491l-0.00317,0.26294l0.1393,0.47296l0.00422,0.10181z" fill="url(#color-1)"/><path d="M243.61602,182.12013c0.14899,-0.50438 0.3767,-0.93463 0.6655,-1.2967c2.0603,-2.58308 7.22972,-1.6966 9.10731,0.49584c0.76317,0.89115 0.80248,4.32019 -1.06453,3.94679c-2.47911,-0.49582 -0.69834,-2.846 -3.40177,-2.82677c-0.84228,0.00599 -3.36239,1.57826 -3.82043,1.2729z" fill="#985933"/><path d="M263.11601,184.67858c1.44204,0.82402 2.17477,1.94008 2.40505,3.18478c0.67422,3.64424 -2.95858,8.39119 -5.70689,10.14012c-5.08283,3.23453 -13.87813,-0.30472 -19.11886,-2.24339c-2.03263,-0.75192 -10.60154,-3.23766 -6.63278,-7.20642c1.44067,-1.44067 2.42875,-0.75504 3.53553,0c2.59524,1.77044 8.24258,5.09674 11.6608,5.12491c0.38213,0.00315 5.60547,0.2428 7.625,-0.14286c0.16979,-0.03242 3.71156,-3.85753 3.73214,-4.04815c0.12863,-1.19123 -0.69483,-2.98337 0.34546,-3.57783z" fill="#985933"/><path d="M263.79927,176.79656c0.1591,0.18561 0.30524,0.36573 0.43674,0.54107c0.49706,0.45693 0.80857,1.11257 0.80857,1.84096c0,1.38071 -1.11929,2.5 -2.5,2.5c-0.26357,0 -0.51761,-0.04079 -0.75616,-0.11639c-0.21516,-0.06819 -0.41771,-0.16471 -0.60328,-0.28518c-1.76299,-0.50925 -4.09003,-1.5292 -5.87476,-2.30317c-4.29364,-1.86199 -10.4239,-2.58792 -15.15172,-2.29526c-4.44241,0.27499 -4.18076,7.21846 -5.14087,8.17857c-1.75336,1.75336 -4.47319,1.46869 -4.6875,-1.25c-0.34734,-4.40624 3.76645,-11.60325 8.78571,-11.92857c6.77777,-0.4393 12.66963,1.3631 18.75935,3.04147c1.99157,0.54889 4.21636,0.71271 5.79938,2.06959z" fill="#d3a689"/><path d="M249.88134,184.71432c1.24055,0.03791 3.19735,-0.68494 3.94331,0.80697c0.81574,1.63149 -0.83033,2.83151 -2.17182,2.87363c-1.74577,0.05482 -6.47832,-0.25582 -7.5591,-2.14718c-0.54241,-0.32012 -0.90629,-0.91057 -0.90629,-1.586c0,-1.01637 0.82393,-1.8403 1.8403,-1.8403c0.386,0 0.74423,0.11884 1.04013,0.32192c1.06911,0.44705 2.2341,1.5227 3.81347,1.57096z" fill="#d3a689"/><path d="M247.39576,189.38724l0.03509,0.03008l0.02182,0.00614zM247.18238,189.25001h-0.04762l0.15475,0.07737zM252.48287,184.86999l0.15062,-0.03012l0.12539,-0.12539v-1.94242l-0.10139,-0.40556l-0.03335,-0.05558l-0.1552,-0.24389l-0.66994,-0.66994l-0.09831,-0.06256l-0.37038,-0.15595l-0.09524,-0.07143h-2.48357l-1.37053,0.22842l-0.86386,0.24682l-0.14383,0.00479l-0.13198,0.05738l-0.25583,0.04264l-0.0525,0.03937l-0.57567,0.46054l-0.15562,0.15562l-0.07948,0.11922l0.0167,0.08348l-0.01184,0.24872l0.06039,0.24157v0.16071l0.20014,0.05003l0.56075,0.12461l0.06231,0.03115l0.06966,0.01742l0.01169,0.02045l0.24317,0.08106l0.06342,0.04036l0.07449,0.01016l0.64607,0.25843l0.78745,0.26248l0.25882,0.1647c0.14884,0.01132 0.29403,0.03567 0.43445,0.07192l0.03622,-0.00988l0.06266,0.0376c0.15815,0.04789 0.30967,0.11102 0.45286,0.18769l0.07157,0.01789l0.01883,0.03296c0.14916,0.08803 0.28838,0.19111 0.41557,0.30715l0.24407,0.09763l0.29823,0.21539l0.17084,0.00949l0.02133,0.02489h0.98765l0.10825,-0.02706l0.55675,-0.2227l0.22916,-0.03125zM264.96995,181.35635l-0.12843,0.51371l-0.08264,0.41321v2.16228l0.3075,0.61499l0.05078,0.22849l0.11697,0.20274l0.28571,1l0.01162,0.34851l0.08457,0.33829v0.71429l-0.11484,0.45934l-0.06397,0.46914l-0.28571,0.71429l-0.22992,0.31835l-0.17072,0.35364l-0.60517,0.72621l-2.04793,3.27668l-1.13095,1.83779l-0.84992,1.41653l-0.31339,0.31339l-0.2686,0.35254l-0.71429,0.57143l-0.00055,0.00025l-0.01439,0.03631l-0.58355,0.23774l-0.57282,0.26254l-0.03632,-0.01438l-0.00056,0.00023l-1,0.14286l-0.3154,-0.03263l-0.31423,0.04246l-1.28571,-0.14286l-0.05519,-0.0205l-0.05864,0.0052l-2.71429,-0.42857l-0.03397,-0.01443l-0.03684,0.0022l-2.28571,-0.42857l-0.1358,-0.06233l-0.14917,-0.00865l-2.27208,-0.71002l-2.84346,-0.85304l-0.06765,-0.04022l-0.07825,-0.00848l-2.71429,-1l-0.00615,-0.00419l-0.00739,-0.00085l-2.28571,-0.85714l-0.26441,-0.18235l-0.29949,-0.11605l-2.35272,-1.66074l-0.63467,-0.3808l-0.34028,-0.34028l-0.37348,-0.30346l-1.71429,-2.28571l-0.06716,-0.15951l-0.11823,-0.12639l-0.71429,-1.28571l-0.06065,-0.22607l-0.12566,-0.19747l-0.85714,-2.57143l-0.03082,-0.40069l-0.09747,-0.38988v-2.42857l0.07464,-0.29857v-0.30776l0.28571,-1.14286l0.04613,-0.08649l0.00752,-0.09774l0.28571,-0.85714l0.13368,-0.21007l0.06742,-0.2397l0.57143,-1l0.13634,-0.14226l0.0821,-0.17913l0.57143,-0.71429l0.20193,-0.15385l0.14978,-0.20496l0.85714,-0.71429l0.08567,-0.04136l0.06169,-0.07242l1,-0.71429l0.26396,-0.10398l0.2276,-0.16937l1.68725,-0.70302l1.25895,-0.55953l0.37879,-0.06629l0.36048,-0.13389l1.28571,-0.14286l0.13951,0.01885l0.13657,-0.03414h4.14286l0.07744,0.01936l0.0785,-0.01449l2.28571,0.14286l0.17958,0.05701l0.1883,-0.00638l1.85262,0.39699l1.30839,0.11894h1.74374l0.12315,0.03079l0.12561,-0.01838l1.42857,0.14286l0.15196,0.05455l0.16143,-0.00294l1.85714,0.42857l0.0504,0.02571l0.05656,0.00147l2.57143,0.71429l0.21153,0.11997l0.23739,0.05275l1.33556,0.66778l0.61774,0.24709l0.086,0.06211l0.10356,0.02301l0.28571,0.14286l0.04606,0.03948l0.97116,0.05395l0.06932,-0.02311l0.03306,0.02879l0.73134,0.04063l0.83853,0.97828l0.14286,0.28571l0.05156,0.232l0.10254,0.08931l0.02255,0.47362l0.10286,0.46286l-0.07543,0.11314l0.0113,0.23739l-0.14286,0.71429l-0.14295,0.30178l-0.07244,0.32597l-0.1176,0.2352l-0.08106,0.48634l-0.04063,0.09345z" fill="url(#color-2)"/></g></g></svg>