<svg version="1.1" xmlns="http://www.w3.org/2000/svg" xmlns:xlink="http://www.w3.org/1999/xlink" width="47.91207" height="40.05728" viewBox="0,0,47.91207,40.05728"><defs><radialGradient cx="234.48874" cy="174.18953" r="17.36493" gradientUnits="userSpaceOnUse" id="color-1"><stop offset="0" stop-color="#c7c7c7"/><stop offset="1" stop-color="#ffffff"/></radialGradient><radialGradient cx="246.59112" cy="186.67916" r="17.36493" gradientUnits="userSpaceOnUse" id="color-2"><stop offset="0" stop-color="#923214"/><stop offset="1" stop-color="#4e1503"/></radialGradient></defs><g transform="translate(-216.04396,-159.97136)"><g data-paper-data="{&quot;isPaintingLayer&quot;:true}" fill-rule="nonzero" stroke-linejoin="miter" stroke-miterlimit="10" stroke-dasharray="" stroke-dashoffset="0" style="mix-blend-mode: normal"><path d="M228.87325,171.87285c-0.01069,-0.52582 0.07608,-1.00481 0.24172,-1.43732c1.18164,-3.08559 6.37685,-3.80566 8.83006,-2.28451c0.99714,0.6183 2.07269,3.87453 0.18025,4.08386c-2.51288,0.27795 -1.52715,-2.50104 -4.0979,-1.6643c-0.80094,0.26069 -2.72682,2.52211 -3.25581,2.36974z" fill="#985933" stroke="none" stroke-width="0.5" stroke-linecap="butt"/><path d="M248.23275,168.40795c1.62383,0.3488 2.66005,1.19067 3.25633,2.30725c1.74581,3.26913 -0.27946,8.8931 -2.36935,11.39196c-3.86512,4.62149 -13.31915,3.91095 -18.90086,3.64979c-2.16488,-0.10129 -11.08421,0.1237 -8.50316,-4.8603c0.93693,-1.80921 2.08621,-1.45487 3.36963,-1.07032c3.00943,0.9017 9.39875,2.36228 12.6651,1.35432c0.36515,-0.11268 5.41594,-1.46555 7.22395,-2.4445c0.15201,-0.0823 2.36959,-4.80013 2.3315,-4.98803c-0.23803,-1.17427 -1.56539,-2.63303 -0.75388,-3.51452z" fill="#985933" stroke="none" stroke-width="0.5" stroke-linecap="butt"/><path d="M246.4978,160.68895c0.20782,0.12874 0.40164,0.25616 0.58005,0.38346c0.61206,0.28501 1.10744,0.81558 1.32795,1.50979c0.41799,1.31592 -0.30994,2.72153 -1.62586,3.13952c-0.2512,0.07979 -0.50567,0.11782 -0.75591,0.11799c-0.22571,0.00015 -0.44797,-0.03053 -0.6613,-0.08917c-1.83443,0.04836 -4.36105,-0.21926 -6.29633,-0.41661c-4.65585,-0.47479 -10.71821,0.68918 -15.13558,2.39937c-4.1507,1.60695 -1.79931,8.14539 -2.42371,9.3511c-1.14028,2.20188 -3.81867,2.75395 -4.84596,0.22772c-1.66496,-4.09433 0.07702,-12.199 4.76227,-14.02855c6.32674,-2.47054 12.48777,-2.53638 18.79983,-2.78032c2.06428,-0.07978 4.23427,-0.59717 6.15378,0.21681z" fill="#d3a689" stroke="none" stroke-width="0.5" stroke-linecap="butt"/><path d="M235.62992,172.44859c1.19381,-0.33942 2.83996,-1.62074 4.00257,-0.42467c1.27137,1.30798 0.06582,2.95001 -1.19997,3.39627c-1.64725,0.58075 -6.25177,1.71739 -7.85441,0.24196c-0.61387,-0.14089 -1.13942,-0.59348 -1.3439,-1.23721c-0.30769,-0.96868 0.22815,-2.00338 1.19683,-2.31106c0.36789,-0.11685 0.74528,-0.11204 1.08878,-0.00807c1.15428,0.10242 2.59024,0.77491 4.11011,0.34278z" fill="#d3a689" stroke="none" stroke-width="0.5" stroke-linecap="butt"/><path d="M234.67563,177.6547l0.04255,0.01805l0.02265,-0.00075zM234.43071,177.58851l-0.04539,0.01442l0.17091,0.02689zM238.1565,171.80939l0.13443,-0.0743l0.08155,-0.15747l-0.58803,-1.85127l-0.21941,-0.35584l-0.04861,-0.04288l-0.22175,-0.18546l-0.84132,-0.43569l-0.11264,-0.02986l-0.40021,-0.03651l-0.1124,-0.03925l-2.36703,0.75186l-1.23707,0.63261l-0.7486,0.49676l-0.13563,0.04811l-0.10842,0.09464l-0.23092,0.11809l-0.03812,0.05342l-0.40924,0.6132l-0.10121,0.19543l-0.03966,0.13769l0.04119,0.07451l0.06401,0.24063l0.13069,0.21195l0.04865,0.15317l0.20589,-0.01291l0.57216,-0.05099l0.06882,0.01083l0.07166,-0.00449l0.01733,0.01595l0.2563,0.00364l0.07266,0.01927l0.07407,-0.01287l0.69399,0.05072l0.82996,0.01178l0.29654,0.07862c0.14528,-0.03427 0.29103,-0.05502 0.43584,-0.06298l0.03153,-0.02038l0.0711,0.01687c0.16523,-0.00223 0.32875,0.01206 0.48843,0.04179l0.07363,-0.00462l0.02792,0.02571c0.16881,0.03874 0.3327,0.09484 0.48905,0.16693l0.26217,0.01916l0.34944,0.115l0.1657,-0.04267l0.02786,0.01726l0.9413,-0.29899l0.09498,-0.05856l0.46321,-0.3808l0.20895,-0.09916zM248.99394,164.68037l0.03311,0.52848l0.04633,0.41884l0.65459,2.06082l0.47925,0.49304l0.11757,0.2024l0.17286,0.15782l0.57504,0.86658l0.11658,0.32864l0.18301,0.29681l0.21624,0.68077l0.02961,0.47255l0.08106,0.46649l-0.05606,0.76727l-0.12276,0.37302l-0.05565,0.38873l-0.35692,0.87534l-0.95987,3.7429l-0.52152,2.09393l-0.38121,1.60736l-0.20381,0.39356l-0.14927,0.41731l-0.50778,0.76086l-0.00045,0.0004l-0.00272,0.03896l-0.4842,0.40324l-0.46646,0.42363l-0.03897,-0.00271l-0.00046,0.00039l-0.90983,0.43889l-0.31048,0.06438l-0.28663,0.1356l-1.26863,0.25307l-0.05881,-0.00283l-0.05431,0.02271l-2.71667,0.41325l-0.03674,-0.00347l-0.03445,0.01325l-2.3082,0.2835l-0.1483,-0.01829l-0.14479,0.03691l-2.38041,0.01113l-2.96828,0.0478l-0.07665,-0.01785l-0.07715,0.01561l-2.88966,-0.13137l-0.00713,-0.00213l-0.0073,0.00143l-2.43794,-0.12496l-0.30721,-0.09375l-0.32057,-0.01994l-2.74508,-0.87056l-0.72017,-0.1708l-0.42733,-0.2213l-0.44782,-0.17616l-2.32581,-1.65948l-0.1123,-0.13169l-0.15094,-0.08467l-1.07,-1.00914l-0.12624,-0.1971l-0.17954,-0.15016l-1.59538,-2.19128l-0.15068,-0.37256l-0.21093,-0.34208l-0.73521,-2.31461l-0.01925,-0.30716l-0.09317,-0.29332l-0.07368,-1.17573l0.01778,-0.0964l-0.02242,-0.09543l0.01282,-0.90341l0.06381,-0.24068l-0.00831,-0.24886l0.24188,-1.12607l0.08688,-0.17686l0.02402,-0.19558l0.32838,-0.85376l0.14588,-0.20776l0.0807,-0.24069l0.60068,-0.94026l0.06913,-0.06535l0.03687,-0.0877l0.73684,-0.98351l0.2201,-0.17901l0.16565,-0.23032l1.39525,-1.18082l1.03049,-0.9144l0.34095,-0.17785l0.30303,-0.23674l1.18213,-0.52538l0.13867,-0.02427l0.11983,-0.07388l3.94846,-1.25418l0.07967,-0.00499l0.07043,-0.03757l2.2217,-0.5558l0.18841,-0.00003l0.17753,-0.06309l1.88587,-0.18249l1.283,-0.28273l1.66192,-0.52789l0.12669,-0.00794l0.11415,-0.05554l1.40478,-0.29632l0.16134,0.00599l0.15296,-0.05167l1.89974,-0.15376l0.05582,0.00925l0.05435,-0.01572l2.66701,-0.09768l0.23792,0.0503l0.24222,-0.02159l1.47505,0.23213l0.66356,0.04849l0.10077,0.03316l0.10567,-0.00942l0.31555,0.04966l0.05585,0.02368l0.94192,-0.24258l0.05907,-0.04301l0.04022,0.01743l0.70932,-0.18268l1.09534,0.67852l0.22265,0.22905l0.11937,0.2055l0.12477,0.05408l0.16487,0.44457l0.23816,0.41l-0.03764,0.13067l0.08264,0.22283l0.08008,0.72402l-0.04488,0.33089l0.02964,0.3326l-0.04088,0.25976l0.06997,0.48806l-0.01043,0.10136z" fill="url(#color-1)" stroke="none" stroke-width="0.5" stroke-linecap="butt"/><path d="M220.47965,172.35376l3.53521,-3.97085" fill="none" stroke="#ff0000" stroke-width="2.5" stroke-linecap="round"/><path d="M238.9469,166.78765l-4.21273,-2.40915" fill="none" stroke="#ff0000" stroke-width="2.5" stroke-linecap="round"/><path d="M245.01447,172.20499l-1.04923,7.07836" fill="none" stroke="#ff0000" stroke-width="2.5" stroke-linecap="round"/><path d="M226.72665,177.86401l6.11246,2.25539" fill="none" stroke="#ff0000" stroke-width="2.5" stroke-linecap="round"/><path d="M227.0823,171.9053l-3.88282,6.17973" fill="none" stroke="#1dff00" stroke-width="2.5" stroke-linecap="round"/><path d="M230.44451,167.38985l-1.95417,-2.37709" fill="none" stroke="#1dff00" stroke-width="2.5" stroke-linecap="round"/><path d="M244.88636,168.49842l1.19659,-4.72691" fill="none" stroke="#1dff00" stroke-width="2.5" stroke-linecap="round"/><path d="M238.33013,175.22754l1.61299,4.13426" fill="none" stroke="#1dff00" stroke-width="2.5" stroke-linecap="round"/><path d="M234.58031,175.2195l-4.8423,6.93416" fill="none" stroke="#0067ff" stroke-width="2.5" stroke-linecap="round"/><path d="M220.46368,167.11266l5.26512,1.4753" fill="none" stroke="#0067ff" stroke-width="2.5" stroke-linecap="round"/><path d="M239.67253,163.40944l-5.87384,3.21477" fill="none" stroke="#0067ff" stroke-width="2.5" stroke-linecap="round"/><path d="M241.78688,167.23457l4.71724,8.24452" fill="none" stroke="#0067ff" stroke-width="2.5" stroke-linecap="round"/><path d="M241.94047,182.7712c0.14899,-0.50438 0.3767,-0.93463 0.6655,-1.2967c2.0603,-2.58308 7.22972,-1.6966 9.10731,0.49584c0.76317,0.89115 0.80248,4.32019 -1.06453,3.94679c-2.47911,-0.49582 -0.69834,-2.846 -3.40177,-2.82677c-0.84228,0.00599 -3.36239,1.57826 -3.82043,1.2729z" fill="#985933" stroke="none" stroke-width="0.5" stroke-linecap="butt"/><path d="M261.44047,185.32964c1.44204,0.82402 2.17477,1.94008 2.40505,3.18478c0.67422,3.64424 -2.95858,8.39119 -5.70689,10.14012c-5.08283,3.23453 -13.87813,-0.30472 -19.11886,-2.24339c-2.03263,-0.75192 -10.60154,-3.23766 -6.63278,-7.20642c1.44067,-1.44067 2.42875,-0.75504 3.53553,0c2.59524,1.77044 8.24258,5.09674 11.6608,5.12491c0.38213,0.00315 5.60547,0.2428 7.625,-0.14286c0.16979,-0.03242 3.71156,-3.85753 3.73214,-4.04815c0.12863,-1.19123 -0.69483,-2.98337 0.34546,-3.57783z" fill="#985933" stroke="none" stroke-width="0.5" stroke-linecap="butt"/><path d="M262.12373,177.44763c0.1591,0.18561 0.30524,0.36573 0.43674,0.54107c0.49706,0.45693 0.80857,1.11257 0.80857,1.84096c0,1.38071 -1.11929,2.5 -2.5,2.5c-0.26357,0 -0.51761,-0.04079 -0.75616,-0.11639c-0.21516,-0.06819 -0.41771,-0.16471 -0.60328,-0.28518c-1.76299,-0.50925 -4.09003,-1.5292 -5.87476,-2.30317c-4.29364,-1.86199 -10.4239,-2.58792 -15.15172,-2.29526c-4.44241,0.27499 -4.18076,7.21846 -5.14087,8.17857c-1.75336,1.75336 -4.47319,1.46869 -4.6875,-1.25c-0.34734,-4.40624 3.76645,-11.60325 8.78571,-11.92857c6.77777,-0.4393 12.66963,1.3631 18.75935,3.04147c1.99157,0.54889 4.21636,0.71271 5.79938,2.06959z" fill="#d3a689" stroke="none" stroke-width="0.5" stroke-linecap="butt"/><path d="M248.20579,185.36539c1.24055,0.03791 3.19735,-0.68494 3.94331,0.80697c0.81574,1.63149 -0.83033,2.83151 -2.17182,2.87363c-1.74577,0.05482 -6.47832,-0.25582 -7.5591,-2.14718c-0.54241,-0.32012 -0.90629,-0.91057 -0.90629,-1.586c0,-1.01637 0.82393,-1.8403 1.8403,-1.8403c0.386,0 0.74423,0.11884 1.04013,0.32192c1.06911,0.44705 2.2341,1.5227 3.81347,1.57096z" fill="#d3a689" stroke="none" stroke-width="0.5" stroke-linecap="butt"/><path d="M245.72021,190.03831l0.03509,0.03008l0.02182,0.00614zM245.50683,189.90108h-0.04762l0.15475,0.07737zM250.80732,185.52106l0.15062,-0.03012l0.12539,-0.12539v-1.94242l-0.10139,-0.40556l-0.03335,-0.05558l-0.1552,-0.24389l-0.66994,-0.66994l-0.09831,-0.06256l-0.37038,-0.15595l-0.09524,-0.07143h-2.48357l-1.37053,0.22842l-0.86386,0.24682l-0.14383,0.00479l-0.13198,0.05738l-0.25583,0.04264l-0.0525,0.03937l-0.57567,0.46054l-0.15562,0.15562l-0.07948,0.11922l0.0167,0.08348l-0.01184,0.24872l0.06039,0.24157v0.16071l0.20014,0.05003l0.56075,0.12461l0.06231,0.03115l0.06966,0.01742l0.01169,0.02045l0.24317,0.08106l0.06342,0.04036l0.07449,0.01016l0.64607,0.25843l0.78745,0.26248l0.25882,0.1647c0.14884,0.01132 0.29403,0.03567 0.43445,0.07192l0.03622,-0.00988l0.06266,0.0376c0.15815,0.04789 0.30967,0.11102 0.45286,0.18769l0.07157,0.01789l0.01883,0.03296c0.14916,0.08803 0.28838,0.19111 0.41557,0.30715l0.24407,0.09763l0.29823,0.21539l0.17084,0.00949l0.02133,0.02489h0.98765l0.10825,-0.02706l0.55675,-0.2227l0.22916,-0.03125zM263.29439,182.00742l-0.12843,0.51371l-0.08264,0.41321v2.16228l0.3075,0.61499l0.05078,0.22849l0.11697,0.20274l0.28571,1l0.01162,0.34851l0.08457,0.33829v0.71429l-0.11484,0.45934l-0.06397,0.46914l-0.28571,0.71429l-0.22992,0.31835l-0.17072,0.35364l-0.60517,0.72621l-2.04793,3.27668l-1.13095,1.83779l-0.84992,1.41653l-0.31339,0.31339l-0.2686,0.35254l-0.71429,0.57143l-0.00055,0.00025l-0.01439,0.03631l-0.58355,0.23774l-0.57282,0.26254l-0.03632,-0.01438l-0.00056,0.00023l-1,0.14286l-0.3154,-0.03263l-0.31423,0.04246l-1.28571,-0.14286l-0.05519,-0.0205l-0.05864,0.0052l-2.71429,-0.42857l-0.03397,-0.01443l-0.03684,0.0022l-2.28571,-0.42857l-0.1358,-0.06233l-0.14917,-0.00865l-2.27208,-0.71002l-2.84346,-0.85304l-0.06765,-0.04022l-0.07825,-0.00848l-2.71429,-1l-0.00615,-0.00419l-0.00739,-0.00085l-2.28571,-0.85714l-0.26441,-0.18235l-0.29949,-0.11605l-2.35272,-1.66074l-0.63467,-0.3808l-0.34028,-0.34028l-0.37348,-0.30346l-1.71429,-2.28571l-0.06716,-0.15951l-0.11823,-0.12639l-0.71429,-1.28571l-0.06065,-0.22607l-0.12566,-0.19747l-0.85714,-2.57143l-0.03082,-0.40069l-0.09747,-0.38988v-2.42857l0.07464,-0.29857v-0.30776l0.28571,-1.14286l0.04613,-0.08649l0.00752,-0.09774l0.28571,-0.85714l0.13368,-0.21007l0.06742,-0.2397l0.57143,-1l0.13634,-0.14226l0.0821,-0.17913l0.57143,-0.71429l0.20193,-0.15385l0.14978,-0.20496l0.85714,-0.71429l0.08567,-0.04136l0.06169,-0.07242l1,-0.71429l0.26396,-0.10398l0.2276,-0.16937l1.68725,-0.70302l1.25895,-0.55953l0.37879,-0.06629l0.36048,-0.13389l1.28571,-0.14286l0.13951,0.01885l0.13657,-0.03414h4.14286l0.07744,0.01936l0.0785,-0.01449l2.28571,0.14286l0.17958,0.05701l0.1883,-0.00638l1.85262,0.39699l1.30839,0.11894h1.74374l0.12315,0.03079l0.12561,-0.01838l1.42857,0.14286l0.15196,0.05455l0.16143,-0.00294l1.85714,0.42857l0.0504,0.02571l0.05656,0.00147l2.57143,0.71429l0.21153,0.11997l0.23739,0.05275l1.33556,0.66778l0.61774,0.24709l0.086,0.06211l0.10356,0.02301l0.28571,0.14286l0.04606,0.03948l0.97116,0.05395l0.06932,-0.02311l0.03306,0.02879l0.73134,0.04063l0.83853,0.97828l0.14286,0.28571l0.05156,0.232l0.10254,0.08931l0.02255,0.47362l0.10286,0.46286l-0.07543,0.11314l0.0113,0.23739l-0.14286,0.71429l-0.14295,0.30178l-0.07244,0.32597l-0.1176,0.2352l-0.08106,0.48634l-0.04063,0.09345z" fill="url(#color-2)" stroke="none" stroke-width="0.5" stroke-linecap="butt"/><path d="M238.36658,177.97423l-4.57143,2.71429" fill="none" stroke="#ff0000" stroke-width="2.5" stroke-linecap="round"/><path d="M253.08087,180.97424l-3.28572,-3.57143" fill="none" stroke="#ff0000" stroke-width="2.5" stroke-linecap="round"/><path d="M254.08087,194.40281l3.14285,-6.42857" fill="none" stroke="#ff0000" stroke-width="2.5" stroke-linecap="round"/><path d="M238.08087,187.83138l5.14285,4" fill="none" stroke="#ff0000" stroke-width="2.5" stroke-linecap="round"/><path d="M234.6523,186.97423l5.57143,-4.71429" fill="none" stroke="#1dff00" stroke-width="2.5" stroke-linecap="round"/><path d="M244.79515,178.97423l-1.14285,-2.85714" fill="none" stroke="#1dff00" stroke-width="2.5" stroke-linecap="round"/><path d="M258.22372,184.40281l2.57143,-4.14286" fill="none" stroke="#1dff00" stroke-width="2.5" stroke-linecap="round"/><path d="M249.93801,188.83137l0.28572,4.42857" fill="none" stroke="#1dff00" stroke-width="2.5" stroke-linecap="round"/><path d="M246.36658,187.68852l-6.71428,5.14285" fill="none" stroke="#0067ff" stroke-width="2.5" stroke-linecap="round"/><path d="M239.93801,178.68852l-4.57143,-3" fill="none" stroke="#0067ff" stroke-width="2.5" stroke-linecap="round"/><path d="M254.79515,177.97423l-6.57143,1.28571" fill="none" stroke="#0067ff" stroke-width="2.5" stroke-linecap="round"/><path d="M257.65229,191.54566l-2,-9.28571" fill="none" stroke="#0067ff" stroke-width="2.5" stroke-linecap="round"/></g></g></svg>