<svg version="1.1" xmlns="http://www.w3.org/2000/svg" xmlns:xlink="http://www.w3.org/1999/xlink" width="36.44215" height="27.76596" viewBox="0,0,36.44215,27.76596"><g transform="translate(-222.3391,-166.11701)"><g data-paper-data="{&quot;isPaintingLayer&quot;:true}" fill-rule="nonzero" stroke="none" stroke-width="0.5" stroke-linecap="butt" stroke-linejoin="miter" stroke-miterlimit="10" stroke-dasharray="" stroke-dashoffset="0" style="mix-blend-mode: normal"><path d="M239.42506,183.89265l0.03509,0.03008l0.02182,0.00614zM239.21168,183.75542h-0.04762l0.15475,0.07737zM244.51217,179.3754l0.15062,-0.03012l0.12539,-0.12539v-1.94242l-0.10139,-0.40556l-0.03335,-0.05558l-0.1552,-0.24389l-0.66994,-0.66994l-0.09831,-0.06256l-0.37038,-0.15595l-0.09524,-0.07143h-2.48357l-1.37053,0.22842l-0.86386,0.24682l-0.14383,0.00479l-0.13198,0.05738l-0.25583,0.04264l-0.0525,0.03937l-0.57567,0.46054l-0.15562,0.15562l-0.07948,0.11922l0.0167,0.08348l-0.01184,0.24872l0.06039,0.24157v0.16071l0.20014,0.05003l0.56075,0.12461l0.06231,0.03115l0.06966,0.01742l0.01169,0.02045l0.24317,0.08106l0.06342,0.04036l0.07449,0.01016l0.64607,0.25843l0.78745,0.26248l0.25882,0.1647c0.14884,0.01132 0.29403,0.03567 0.43445,0.07192l0.03622,-0.00988l0.06266,0.0376c0.15815,0.04789 0.30967,0.11102 0.45286,0.18769l0.07157,0.01789l0.01883,0.03296c0.14916,0.08803 0.28838,0.19111 0.41557,0.30715l0.24407,0.09763l0.29823,0.21539l0.17084,0.00949l0.02133,0.02489h0.98765l0.10825,-0.02706l0.55675,-0.2227l0.22916,-0.03125zM256.99925,175.86176l-0.12843,0.51371l-0.08264,0.41321v2.16228l0.3075,0.61499l0.05078,0.22849l0.11697,0.20274l0.28571,1l0.01162,0.34851l0.08457,0.33829v0.71429l-0.11484,0.45934l-0.06397,0.46914l-0.28571,0.71429l-0.22992,0.31835l-0.17072,0.35364l-0.60517,0.72621l-2.04793,3.27668l-1.13095,1.83779l-0.84992,1.41653l-0.31339,0.31339l-0.2686,0.35254l-0.71429,0.57143l-0.00055,0.00025l-0.01439,0.03631l-0.58355,0.23774l-0.57282,0.26254l-0.03632,-0.01438l-0.00056,0.00023l-1,0.14286l-0.3154,-0.03263l-0.31423,0.04246l-1.28571,-0.14286l-0.05519,-0.0205l-0.05864,0.0052l-2.71429,-0.42857l-0.03397,-0.01443l-0.03684,0.0022l-2.28571,-0.42857l-0.1358,-0.06233l-0.14917,-0.00865l-2.27208,-0.71002l-2.84346,-0.85304l-0.06765,-0.04022l-0.07825,-0.00848l-2.71429,-1l-0.00615,-0.00419l-0.00739,-0.00085l-2.28571,-0.85714l-0.26441,-0.18235l-0.29949,-0.11605l-2.35272,-1.66074l-0.63467,-0.3808l-0.34028,-0.34028l-0.37348,-0.30346l-1.71429,-2.28571l-0.06716,-0.15951l-0.11823,-0.12639l-0.71429,-1.28571l-0.06065,-0.22607l-0.12566,-0.19747l-0.85714,-2.57143l-0.03082,-0.40069l-0.09747,-0.38988v-2.42857l0.07464,-0.29857v-0.30776l0.28571,-1.14286l0.04613,-0.08649l0.00752,-0.09774l0.28571,-0.85714l0.13368,-0.21007l0.06742,-0.2397l0.57143,-1l0.13634,-0.14226l0.0821,-0.17913l0.57143,-0.71429l0.20193,-0.15385l0.14978,-0.20496l0.85714,-0.71429l0.08567,-0.04136l0.06169,-0.07242l1,-0.71429l0.26396,-0.10398l0.2276,-0.16937l1.68725,-0.70302l1.25895,-0.55953l0.37879,-0.06629l0.36048,-0.13389l1.28571,-0.14286l0.13951,0.01885l0.13657,-0.03414h4.14286l0.07744,0.01936l0.0785,-0.01449l2.28571,0.14286l0.17958,0.05701l0.1883,-0.00638l1.85262,0.39699l1.30839,0.11894h1.74374l0.12315,0.03079l0.12561,-0.01838l1.42857,0.14286l0.15196,0.05455l0.16143,-0.00294l1.85714,0.42857l0.0504,0.02571l0.05656,0.00147l2.57143,0.71429l0.21153,0.11997l0.23739,0.05275l1.33556,0.66778l0.61774,0.24709l0.086,0.06211l0.10356,0.02301l0.28571,0.14286l0.04606,0.03948l0.97116,0.05395l0.06932,-0.02311l0.03306,0.02879l0.73134,0.04063l0.83853,0.97828l0.14286,0.28571l0.05156,0.232l0.10254,0.08931l0.02255,0.47362l0.10286,0.46286l-0.07543,0.11314l0.0113,0.23739l-0.14286,0.71429l-0.14295,0.30178l-0.07244,0.32597l-0.1176,0.2352l-0.08106,0.48634l-0.04063,0.09345z" fill="#b37046"/><path d="M235.64532,176.62554c0.14899,-0.50438 0.3767,-0.93463 0.6655,-1.2967c2.0603,-2.58308 7.22972,-1.6966 9.10731,0.49584c0.76317,0.89115 0.80248,4.32019 -1.06453,3.94679c-2.47911,-0.49582 -0.69834,-2.846 -3.40177,-2.82677c-0.84228,0.00599 -3.36239,1.57826 -3.82043,1.2729z" fill="#985933"/><path d="M255.14532,179.18399c1.44204,0.82402 2.17477,1.94008 2.40505,3.18478c0.67422,3.64424 -2.95858,8.39119 -5.70689,10.14012c-5.08283,3.23453 -13.87813,-0.30472 -19.11886,-2.24339c-2.03263,-0.75192 -10.60154,-3.23766 -6.63278,-7.20642c1.44067,-1.44067 2.42875,-0.75504 3.53553,0c2.59524,1.77044 8.24258,5.09674 11.6608,5.12491c0.38213,0.00315 5.60547,0.2428 7.625,-0.14286c0.16979,-0.03242 3.71156,-3.85753 3.73214,-4.04815c0.12863,-1.19123 -0.69483,-2.98337 0.34546,-3.57783z" fill="#985933"/><path d="M255.82858,171.30197c0.1591,0.18561 0.30524,0.36573 0.43674,0.54107c0.49706,0.45693 0.80857,1.11257 0.80857,1.84096c0,1.38071 -1.11929,2.5 -2.5,2.5c-0.26357,0 -0.51761,-0.04079 -0.75616,-0.11639c-0.21516,-0.06819 -0.41771,-0.16471 -0.60328,-0.28518c-1.76299,-0.50925 -4.09003,-1.5292 -5.87476,-2.30317c-4.29364,-1.86199 -10.4239,-2.58792 -15.15172,-2.29526c-4.44241,0.27499 -4.18076,7.21846 -5.14087,8.17857c-1.75336,1.75336 -4.47319,1.46869 -4.6875,-1.25c-0.34734,-4.40624 3.76645,-11.60325 8.78571,-11.92857c6.77777,-0.4393 12.66963,1.3631 18.75935,3.04147c1.99157,0.54889 4.21636,0.71271 5.79938,2.06959z" fill="#d3a689"/><path d="M241.91064,179.21973c1.24055,0.03791 3.19735,-0.68494 3.94331,0.80697c0.81574,1.63149 -0.83033,2.83151 -2.17182,2.87363c-1.74577,0.05482 -6.47832,-0.25582 -7.5591,-2.14718c-0.54241,-0.32012 -0.90629,-0.91057 -0.90629,-1.586c0,-1.01637 0.82393,-1.8403 1.8403,-1.8403c0.386,0 0.74423,0.11884 1.04013,0.32192c1.06911,0.44705 2.2341,1.5227 3.81347,1.57096z" fill="#d3a689"/><path d="M236.70857,178.88713c-0.83472,1.47729 -1.58212,2.62336 -3.03204,3.51946c-4.62125,2.85609 -9.14274,-0.02063 -9.87619,-5.05216c-0.15628,-1.07209 -0.3415,-4.93204 0.79448,-5.93976c-0.00071,-0.0173 -0.00107,-0.03469 -0.00107,-0.05217c0,-0.56739 0.37804,-1.04649 0.89598,-1.19916l0.01295,-0.01352h0.03668c0.09743,-0.02438 0.1994,-0.03732 0.30439,-0.03732c0.11436,0 0.22513,0.01536 0.33036,0.04412l0.47281,0.1182l0.12147,0.06478l0.13438,0.02986l0.10689,0.05344l1.87595,0.39793l1.90719,0.30761l0.00872,0.00374l0.00947,-0.00067l1.05664,0.18647l2.24413,0.37402l0.08477,0.03686l0.09224,0.0061l1.66306,0.53456l0.64813,0.10802l2.11317,0.31076l0.03042,0.01254l0.03286,-0.00156l1.25,0.25l0.04363,0.02067l0.04826,0.00135l1.52179,0.4261l2.95861,0.61638l0.03181,0.01538l0.03533,0.00055l1.85605,0.49495l1.83094,0.42722l1.17141,0.22313h0.50701l0.13355,0.03339l0.13761,-0.00362l0.99105,0.22023h0.05028l0.07663,0.01916l0.07841,-0.0095l1.5,0.1875l0.0435,0.01684l0.0466,-0.00222l0.27275,0.05455l0.87136,0.11618l0.66142,0.06013l0.04491,0.01567l0.04742,-0.00379l0.27295,0.04549l0.52155,0l0.14929,0.03732h0.15388l0.25,0.0625l0.04325,0.02306l0.04887,0.00376l0.1875,0.0625l0.05569,0.03544l0.15247,0.02541h0.20905l0.23924,0.05981l0.09222,-0.02515l0.13773,0.08264l0.15582,0.03895l0.04742,0.08299l0.21146,0.12688l0.125,0.125l0.1218,0.203l0.14325,0.18848l0.13014,0.30365l0.00218,0.00125l0.00231,0.00923l0.05287,0.12337l0.04006,0.24835l0.06101,0.24405v0.13423l0.00151,0.00939l-0.00151,0.00201v0.24181l0.0769,0.26917l0.00581,0.17426l0.04229,0.16915v0.63551l0.05818,0.69819l-0.00855,0.05235l0.01286,0.05146v1.3125l-0.02182,0.08728l0.00926,0.08949l-0.0625,0.4375l-0.02476,0.06077v0.06562l-0.125,0.5l-0.01006,0.01886l-0.00071,0.02137l-0.08255,0.28892l0.00015,0.00039l-0.00071,0.00154l-0.0419,0.14664l-0.12314,0.21345l-0.10267,0.22402l-0.09527,0.11909l-0.00085,0.00147l-0.00041,0.0001l-0.07075,0.08843l-0.1834,0.36679l0.00132,0.01912l-0.21752,0.23927l-0.20773,0.24235l-0.22393,0.33589l-0.05026,0.04569l-0.02953,0.06117l-0.3125,0.375l-0.04666,0.0341l-0.02973,0.04956l-0.9375,0.9375l-0.21146,0.12688l-0.04742,0.08299l-0.15582,0.03895l-0.13773,0.08264l-0.00169,-0.00046l-0.40706,0.29604l-0.16265,0.06568l-0.14539,0.09814l-0.6875,0.25l-0.05592,0.00582l-0.04918,0.02723l-0.9375,0.25l-0.16347,0.00255l-0.15861,0.03965h-1.75l-0.17697,-0.04424l-0.18222,-0.00848l-0.61712,-0.18514l-0.42959,-0.12274l-0.06963,-0.04017l-0.07936,-0.0128l-0.42349,-0.1815l-0.61085,-0.24434l-0.15917,-0.11496l-0.17682,-0.08536l-0.27966,-0.23305l-0.01867,-0.00485l-0.6875,-0.375l-0.02788,-0.02568l-0.03605,-0.01169l-0.5,-0.3125l-0.09904,-0.10271l-0.12235,-0.07341l-0.1588,-0.1588l-0.07246,-0.06587l-0.24552,-0.21044l-0.00106,-0.01913l-0.11584,-0.17376l-0.02657,-0.07439l-0.0514,-0.05997l-0.0277,-0.05539l-0.08183,-0.12275l-0.02657,-0.07439l-0.0514,-0.05997l-0.125,-0.25l-0.00815,-0.03669l-0.02274,-0.02993l-0.375,-0.875l-0.00845,-0.05237l-0.02848,-0.04475l-0.1875,-0.5625l-0.00376,-0.04887l-0.02306,-0.04325l-0.11336,-0.45343l-0.10982,-0.32946l-0.0076,-0.09886l-0.03953,-0.09093l-0.0495,-0.29703l-0.16479,-0.54929l-0.00531,-0.11408l-0.03977,-0.10706l-0.06034,-0.54309l-0.05974,-0.41817l0.00926,-0.08949l-0.02182,-0.08728l0,-0.24327l-0.05485,-0.49369l0.00943,-0.06975l-0.01707,-0.06829v-2.375l0.04251,-0.17003l-2.60995,-0.54374l-0.0389,-0.01881l-0.04319,-0.00121l-1.51697,-0.42475l-1.17214,-0.23443l-0.17397,-0.02558c0.00215,1.23993 -1.04264,3.06118 -1.43506,3.75569z" fill="#000000"/><path d="M225.71875,172.73749c0.0332,-0.79037 0.87984,-1.37268 1.60371,-1.19925c0.14224,0.03408 0.27975,0.09734 0.40541,0.19394c0.04987,0.03834 0.09393,0.08272 0.13417,0.13093c0.1139,0.11635 0.20526,0.25486 0.267,0.40847c0.38325,0.60758 5.29815,7.55832 5.22146,7.94175c-0.92389,4.61943 -6.556,-5.2653 -6.79081,-5.68637c-0.08555,-0.15342 -0.17923,-0.30218 -0.27113,-0.45188c-0.04517,-0.07358 -0.08959,-0.1477 -0.13799,-0.21919c-0.12716,-0.18782 -0.23051,-0.39211 -0.31986,-0.60058z" fill="#ffffff"/><path d="M253.29557,181.95777c0.6721,0.52326 2.64409,1.16169 2.90884,1.95595c0.91894,2.75683 -1.52848,1.66415 -2.61066,1.23002c-2.56071,-1.02726 -6.93045,-4.76892 -8.32192,-7.20398c-0.36843,-0.21744 -0.61558,-0.61849 -0.61558,-1.07727c0,-0.69036 0.55964,-1.25 1.25,-1.25c0.47276,0 0.88421,0.26245 1.09663,0.64959c2.18823,1.01147 4.96609,4.66288 6.29269,5.69569z" fill="#ffffff"/></g></g></svg>