<svg version="1.1" xmlns="http://www.w3.org/2000/svg" xmlns:xlink="http://www.w3.org/1999/xlink" width="45.33334" height="53.76558" viewBox="0,0,45.33334,53.76558"><g transform="translate(-221.26591,-142.66408)"><g data-paper-data="{&quot;isPaintingLayer&quot;:true}" fill-rule="nonzero" stroke="none" stroke-width="0.5" stroke-linecap="butt" stroke-linejoin="miter" stroke-miterlimit="10" stroke-dasharray="" stroke-dashoffset="0" style="mix-blend-mode: normal"><path d="M239.42506,183.89265l0.03509,0.03008l0.02182,0.00614zM239.21168,183.75542h-0.04762l0.15475,0.07737zM244.51217,179.3754l0.15062,-0.03012l0.12539,-0.12539v-1.94242l-0.10139,-0.40556l-0.03335,-0.05558l-0.1552,-0.24389l-0.66994,-0.66994l-0.09831,-0.06256l-0.37038,-0.15595l-0.09524,-0.07143h-2.48357l-1.37053,0.22842l-0.86386,0.24682l-0.14383,0.00479l-0.13198,0.05738l-0.25583,0.04264l-0.0525,0.03937l-0.57567,0.46054l-0.15562,0.15562l-0.07948,0.11922l0.0167,0.08348l-0.01184,0.24872l0.06039,0.24157v0.16071l0.20014,0.05003l0.56075,0.12461l0.06231,0.03115l0.06966,0.01742l0.01169,0.02045l0.24317,0.08106l0.06342,0.04036l0.07449,0.01016l0.64607,0.25843l0.78745,0.26248l0.25882,0.1647c0.14884,0.01132 0.29403,0.03567 0.43445,0.07192l0.03622,-0.00988l0.06266,0.0376c0.15815,0.04789 0.30967,0.11102 0.45286,0.18769l0.07157,0.01789l0.01883,0.03296c0.14916,0.08803 0.28838,0.19111 0.41557,0.30715l0.24407,0.09763l0.29823,0.21539l0.17084,0.00949l0.02133,0.02489h0.98765l0.10825,-0.02706l0.55675,-0.2227l0.22916,-0.03125zM256.99924,175.86176l-0.12843,0.51371l-0.08264,0.41321v2.16228l0.3075,0.61499l0.05078,0.22849l0.11697,0.20274l0.28571,1l0.01162,0.34851l0.08457,0.33829v0.71429l-0.11484,0.45934l-0.06397,0.46914l-0.28571,0.71429l-0.22992,0.31835l-0.17072,0.35364l-0.60517,0.72621l-2.04793,3.27668l-1.13095,1.83779l-0.84992,1.41653l-0.31339,0.31339l-0.2686,0.35254l-0.71429,0.57143l-0.00055,0.00025l-0.01439,0.03631l-0.58355,0.23774l-0.57282,0.26254l-0.03632,-0.01438l-0.00056,0.00023l-1,0.14286l-0.3154,-0.03263l-0.31423,0.04246l-1.28571,-0.14286l-0.05519,-0.0205l-0.05864,0.0052l-2.71429,-0.42857l-0.03397,-0.01443l-0.03684,0.0022l-2.28571,-0.42857l-0.1358,-0.06233l-0.14917,-0.00865l-2.27208,-0.71002l-2.84346,-0.85304l-0.06765,-0.04022l-0.07825,-0.00848l-2.71429,-1l-0.00615,-0.00419l-0.00739,-0.00085l-2.28571,-0.85714l-0.26441,-0.18235l-0.29949,-0.11605l-2.35272,-1.66074l-0.63467,-0.3808l-0.34028,-0.34028l-0.37348,-0.30346l-1.71429,-2.28571l-0.06716,-0.15951l-0.11823,-0.12639l-0.71429,-1.28571l-0.06065,-0.22607l-0.12566,-0.19747l-0.85714,-2.57143l-0.03082,-0.40069l-0.09747,-0.38988v-2.42857l0.07464,-0.29857v-0.30776l0.28571,-1.14286l0.04613,-0.08649l0.00752,-0.09774l0.28571,-0.85714l0.13368,-0.21007l0.06742,-0.2397l0.57143,-1l0.13634,-0.14226l0.0821,-0.17913l0.57143,-0.71429l0.20193,-0.15385l0.14978,-0.20496l0.85714,-0.71429l0.08567,-0.04136l0.06169,-0.07242l1,-0.71429l0.26396,-0.10398l0.2276,-0.16937l1.68725,-0.70302l1.25895,-0.55953l0.37879,-0.06629l0.36048,-0.13389l1.28571,-0.14286l0.13951,0.01885l0.13657,-0.03414h4.14286l0.07744,0.01936l0.0785,-0.01449l2.28571,0.14286l0.17958,0.05701l0.1883,-0.00638l1.85262,0.39699l1.30839,0.11894h1.74374l0.12315,0.03079l0.12561,-0.01838l1.42857,0.14286l0.15196,0.05455l0.16143,-0.00294l1.85714,0.42857l0.0504,0.02571l0.05656,0.00147l2.57143,0.71429l0.21153,0.11997l0.23739,0.05275l1.33556,0.66778l0.61774,0.24709l0.086,0.06211l0.10356,0.02301l0.28571,0.14286l0.04606,0.03948l0.97116,0.05395l0.06932,-0.02311l0.03306,0.02879l0.73134,0.04063l0.83853,0.97828l0.14286,0.28571l0.05156,0.232l0.10254,0.08931l0.02255,0.47362l0.10286,0.46286l-0.07543,0.11314l0.0113,0.23739l-0.14286,0.71429l-0.14295,0.30178l-0.07244,0.32597l-0.1176,0.2352l-0.08106,0.48634l-0.04063,0.09345z" fill="#c73900"/><path d="M234.42044,163.58452c0.24903,1.00124 -0.99262,2.91213 0.02276,3.09515c1.95063,0.3516 5.4493,0.06142 7.40605,-0.08334c0.03574,-0.00265 0.12853,-0.9433 0.15797,-1.023c1.08112,-2.92635 2.05742,-3.89401 2.17536,-7.39366c0.00899,-0.26682 0.06112,-0.53219 0.12829,-0.79057c1.27618,-4.9087 5.87535,-7.33214 9.86819,-9.41942c1.18651,-0.62025 1.90616,-2.04846 3.49685,-2.13683c1.82522,-0.1014 2.98535,2.11399 2.42681,3.64022c-1.06369,2.9066 -4.10917,3.80174 -4.5868,7.44563c-0.27874,2.12647 0.01721,13.73441 -1.33333,14.86514c-1.94018,1.62438 -6.08994,-0.11179 -8.22443,-0.27084c-3.30851,-0.24652 -14.76305,2.21297 -16.4283,-2.38196c-0.55647,-1.53546 0.32981,-2.76265 0.0694,-4.18383c-0.12849,-0.70122 -1.2839,-2.03292 -1.25088,-2.51166c-0.15961,-0.32924 -0.24912,-0.69877 -0.24912,-1.08921c0,-1.38071 1.11929,-2.5 2.5,-2.5c1.5445,-1.46104 3.71319,4.30397 3.82119,4.73819z" fill="#c73900"/><path d="M224.11137,160.03183l-0.03296,-0.01884l-0.01789,-0.07156c-0.188,-0.3511 -0.29461,-0.75232 -0.29461,-1.17844v-0.16666l0.00768,-0.03071c0.02219,-0.28407 0.09185,-0.55481 0.20107,-0.80428l0.10375,-0.41501l0.21975,-0.12557c0.15577,-0.19846 0.3409,-0.37278 0.54887,-0.51639l0.16888,-0.29555l1.25,-0.3125h0.19048l0.05952,-0.10416l0.39655,-0.09913l0.12258,-0.14302l0.09857,-0.00547l0.04898,-0.08571l0.40299,-0.10075l0.06231,-0.03115l0.56076,-0.12462l0.55728,-0.13932h0.06966l0.0701,-0.01557l0.02337,0.01557h0.83688l0.33334,-0.08333h0.66666l0.29857,0.07464h0.30777l0.33334,0.08334l0.08649,0.04613l0.09774,0.00752l0.25,0.08333l0.275,0.175l0.07025,0.02342l0.02709,-0.00739l0.06158,0.03695l0.06608,0.02202l0.0259,0.01649l0.07028,0.0251l0.25,0.16666l0.02598,0.02858l0.11246,0.07156l0.20788,0.12473l0.07034,0.02512l0.25,0.16667l0.04233,0.04656l0.03186,0.02027l0.00379,0.01894l0.08952,0.09848l0.21352,0.12811l0.41667,0.41667l0.12811,0.21352l0.18425,0.1675l0.83333,1.25l0.11231,0.31447l0.17927,0.28171l0.02715,0.08145l0.0176,0.0352l0.08034,0.1205l0.1123,0.31447l0.17927,0.28171l0.02715,0.08145l0.00387,0.00776l0.00259,0.01163l0.02595,0.07783l0.03327,0.04377l0.25,0.58334l0.01689,0.10473l0.05695,0.0895l0.08334,0.25l0.01211,0.15751l0.06763,0.14277l0.08333,0.41666l-0.01184,0.24872l0.06039,0.24157v0.08579l0.11812,0.59059l-0.0035,0.07362h1.01181l0.60243,-0.1004l1.05356,-0.35118l0.03715,-0.0223l0.59391,-0.47512l0.35113,-0.35113l0.04226,-0.07043l0.07722,-0.15445l0.0428,-0.107l0.0731,-0.36552v-0.16912l0.05068,-0.20272l-0.01666,-0.20828l0.04932,-0.29591v-0.20976l0.06039,-0.24156l-0.01185,-0.24873l0.11812,-0.59059v-0.16912l0.09747,-0.38987l0.03082,-0.40069l0.26205,-0.78615l0.05146,-0.36017l0.15162,-0.37217l0.08718,-0.3923l0.14609,-0.29218l0.10283,-0.35993l0.11696,-0.20274l0.05078,-0.22849l0.17054,-0.34108l0.11048,-0.33145l0.17927,-0.28171l0.11231,-0.31447l0.24699,-0.37049l0.09706,-0.19412l0.06379,-0.07443l0.02854,-0.09377l0.25,-0.41667l0.07205,-0.07205l0.03734,-0.09481l0.41667,-0.58334l0.02274,-0.01937l0.01159,-0.02754l0.25,-0.33333l0.05092,-0.04137l0.02853,-0.05909l0.41666,-0.5l0.09332,-0.0682l0.05947,-0.09911l0.91667,-0.91666l0.08406,-0.05043l0.05673,-0.07994l0.51044,-0.43752l0.43211,-0.43211l0.1543,-0.09258l0.11347,-0.13966l0.60152,-0.45113l0.5215,-0.447l0.16094,-0.08047l0.12385,-0.13054l0.89423,-0.56906l0.44433,-0.29622l0.55053,-0.39324l0.0385,-0.01517l0.02784,-0.03062l0.75,-0.5l0.05741,-0.0205l0.0431,-0.0431l0.41666,-0.25l0.09378,-0.02854l0.07442,-0.06379l0.66667,-0.33333l0.07339,-0.01631l0.05985,-0.04548l1.16666,-0.5l0.15873,-0.02561l0.13926,-0.08034l0.5311,-0.15175l0.44847,-0.14948l0.05552,-0.00428l0.04824,-0.02783l0.58334,-0.16666l0.14383,-0.0048l0.13198,-0.05738l1,-0.16666l0.20828,0.01666l0.20271,-0.05068h0.41912l0.17392,-0.03478l0.24872,0.01184l0.24157,-0.06039h0.29309l0.29591,-0.04932l0.20828,0.01666l0.20272,-0.05068h0.12642l0.29591,-0.04931l0.02978,0.00238l0.02767,-0.01127l0.58333,-0.08334l0.15707,0.01625l0.23925,-0.07975l0.15751,-0.01211l0.14277,-0.06763l0.26405,-0.0528l0.10234,-0.03412l0.09774,-0.00752l0.08649,-0.04613l0.24019,-0.06005l0.65891,-0.21964l0.40069,-0.03082l0.38988,-0.09747h0.25l0.03278,0.0082l0.10697,-0.02378l0.07138,0.04758l0.03297,-0.00253l0.04895,0.04379l0.95695,0.23924l0.38038,0.66568l0.60568,0.40378l-0.03322,0.59801l0.29715,0.52003l-0.36116,0.63202l-0.04253,0.76551l-0.77402,0.66345l-0.07229,0.12651l-0.10631,0.02658l-0.02565,0.02199l-0.30381,0.1519l-0.04647,0.04646l-0.15429,0.09258l-0.11347,0.13966l-0.33333,0.25l-0.06547,0.02757l-0.04778,0.05256l-0.04403,0.02935l-0.65829,0.65829l-0.09911,0.05947l-0.06819,0.09332l-0.32541,0.27117l-0.27117,0.3254l-0.09332,0.0682l-0.05947,0.09911l-0.31876,0.31876l-0.24684,0.30855l-0.11197,0.08531l-0.07243,0.12071l-0.24162,0.24162l-0.19602,0.29403l-0.08186,0.07442l-0.0461,0.10057l-0.56162,0.70202l-0.16348,0.27248l-0.21762,0.21762l-0.15834,0.2639l-0.12029,0.12029l-0.05929,0.06917l-0.08818,0.20944l-0.17262,0.23016l-0.18365,0.30608l-0.0928,0.0928l-0.05093,0.12096l-0.20837,0.27782l-0.04184,0.06276l-0.01761,0.03521l-0.02715,0.08145l-0.08021,0.12604l-0.00313,0.04063l-0.04972,0.14917l-0.00258,0.01163l-0.00388,0.00776l-0.02715,0.08145l-0.15907,0.24997l-0.03728,0.14914l-0.0752,0.14101l-0.02003,0.05606l-0.04939,0.07408l-0.0885,0.16594l-0.19223,0.45656l-0.05161,0.06881l-0.21053,0.52633l-0.06211,0.086l-0.02301,0.10356l-0.42055,0.84109l-0.25997,0.77991l-0.11284,0.39496l-0.19271,1.15625v2.47079l0.06131,0.49047l0.07612,0.53285l0.07855,0.47133l-0.00238,0.02978l0.01127,0.02767l0.16255,1.13789l0.03413,0.20476l0.0663,0.16575l0.03665,0.26874l0.10815,0.24874l0.0389,0.23343l0.0663,0.16575l0.03125,0.22916l0.09901,0.20903l0.18434,0.9217l0.01695,0.03389l0.05973,0.26876l0.12956,0.24293l0.33334,1.33333v0.06096l0.02609,0.05509l0.08333,0.41666l-0.01184,0.24873l0.06039,0.24156v2.41667l-0.03832,0.15326l0.01901,0.15682l-0.08121,0.64968l-0.08144,0.73299l-0.00614,0.01651l0.00212,0.01749l-0.08121,0.64968l-0.08144,0.73298l-0.00614,0.01652l0.00212,0.01749l-0.08121,0.64968l-0.08145,0.73298l-0.00613,0.01652l0.00212,0.01749l-0.08121,0.64968l-0.24811,2.23299l-0.05935,0.1598v0.17047l-0.12589,0.50353l-0.06476,0.58288l-0.05935,0.1598v0.17046l-0.29672,1.18688l-0.06461,0.51687l-0.07038,0.18184l-0.0065,0.19488l-0.15522,0.54328l-0.15657,0.62626l-0.02012,0.03773l-0.00142,0.04274l-0.16667,0.58333l-0.08035,0.13927l-0.0256,0.15873l-0.25,0.58333l-0.13223,0.17398l-0.12726,0.3818l-0.0966,0.1518l-0.03904,0.17566l-0.53682,1.07366l-0.12805,0.32012l-0.02832,0.03922l-0.00833,0.04765l-0.33334,0.75l-0.03584,0.04586l-0.01262,0.05682l-0.25388,0.50776l-0.02715,0.08145l-0.17927,0.28171l-0.11231,0.31447l-0.08033,0.1205l-0.01761,0.03521l-0.02715,0.08145l-0.17927,0.28172l-0.1123,0.31446l-0.16667,0.25l-0.18425,0.1675l-0.12812,0.21352l-0.07495,0.07495l-0.02935,0.04403l-0.18425,0.1675l-0.12811,0.21352l-0.75,0.75l-0.15429,0.09258l-0.11347,0.13965l-0.30209,0.22657l-0.38618,0.30893l-0.15496,0.07103l-0.12054,0.12054l-0.83333,0.5l-0.19366,0.05894l-0.1641,0.11852l-0.41667,0.16667l-0.26874,0.03664l-0.24874,0.10815l-1,0.16667l-0.20829,-0.01666l-0.20271,0.05068h-1.66667l-0.20271,-0.05068l-0.20828,0.01666l-0.47133,-0.07855l-0.53285,-0.07612l-0.64491,-0.08061l-0.18184,-0.07039l-0.19487,-0.0065l-0.39794,-0.1137l-0.47535,-0.05942l-0.14296,-0.05534h-0.15329l-1.33334,-0.33334l-0.0865,-0.04613l-0.09774,-0.00752l-1.5,-0.5l-0.02927,-0.01863l-0.03451,-0.00359l-0.88492,-0.32179l-1.18203,-0.39401l-0.79706,-0.23912l-0.2252,-0.1339l-0.25356,-0.06593l-0.81294,-0.44342l-0.47473,-0.20345l-0.09583,-0.07283l-0.11649,-0.03029l-0.87749,-0.47863l-0.56104,-0.28052l-0.51581,-0.22106l-0.10361,-0.07874l-0.1257,-0.03373l-0.75,-0.41666l-0.03123,-0.02921l-0.0409,-0.01245l-0.75101,-0.4506l-1.08079,-0.54039l-0.07443,-0.06379l-0.09377,-0.02854l-0.83334,-0.5l-0.0431,-0.0431l-0.05741,-0.0205l-0.5,-0.33333l-0.02784,-0.03063l-0.0385,-0.01517l-0.58334,-0.41667l-0.1355,-0.15906l-0.17917,-0.10751l-0.41981,-0.41981l-0.41288,-0.34407l-0.0682,-0.09332l-0.09911,-0.05947l-0.5,-0.5l-0.09258,-0.15429l-0.13966,-0.11347l-0.47657,-0.63542l-0.30894,-0.38617l-0.04609,-0.10057l-0.08186,-0.07442l-0.24959,-0.37439l-0.40176,-0.46872l-0.03724,-0.07447l-0.06462,-0.0525l-0.25,-0.33334l-0.08819,-0.20943l-0.14788,-0.17254l-0.21897,-0.43793l-0.28571,-0.5l-0.23632,-0.39387l-0.05894,-0.19366l-0.11852,-0.16411l-0.16667,-0.41666l-0.02323,-0.17039l-0.08093,-0.15174l-0.16667,-0.66667v-0.13124l-0.04951,-0.12154l-0.08334,-0.58333l0.00232,-0.02243l-0.00814,-0.02104l-0.08334,-0.66666l0.01901,-0.15683l-0.03832,-0.15326v-0.66666l0.03832,-0.15326l-0.01901,-0.15682l0.06403,-0.51223v-0.34436l0.06039,-0.24157l-0.01185,-0.24872l0.14876,-0.74377l0.072,-0.57603l0.08989,-0.23221l0.01909,-0.24827l0.66667,-2l0.04036,-0.06342l0.01016,-0.07449l0.5,-1.25l0.06211,-0.086l0.02301,-0.10356l0.2035,-0.40699l0.12805,-0.32012l0.06211,-0.086l0.02301,-0.10356l0.33333,-0.66667l0.14789,-0.17253l0.08818,-0.20944l0.45837,-0.61115l0.29484,-0.44226l0.08186,-0.07442l0.0461,-0.10057l0.33333,-0.41667l0.1017,-0.07748l0.16488,-0.32977l0.39215,-0.91502l0.11808,-0.47233l0.04613,-0.08649l0.00752,-0.09774l0.20922,-0.62766l0.11786,-0.53038l0.04463,-0.3124v-1.19876l-0.03832,-0.2299l-0.13598,-0.61189l-0.08236,-0.28823l-0.10315,-0.20631l-0.38425,-0.64041l-0.06602,-0.08803l-0.08248,-0.08247c-0.60524,-0.18335 -1.11343,-0.59004 -1.42866,-1.12416zM231.08639,161.15953l0.00254,0.07625l0.03411,0.06823l0.16667,0.75l-0.0018,0.0685l0.02732,0.06284l0.08333,0.5l-0.01666,0.20828l0.05068,0.20271v1.58334l-0.04364,0.17457l0.01852,0.17899l-0.08333,0.58333l-0.03698,0.09078l0.00258,0.09799l-0.16667,0.75l-0.0587,0.11738l-0.01006,0.13085l-0.21964,0.65892l-0.14338,0.57352l-0.09526,0.17861l-0.03223,0.19984l-0.5,1.16667l-0.04549,0.05985l-0.0163,0.07338l-0.33334,0.66667l-0.26154,0.30513l-0.20676,0.34461l-0.1521,0.15209l-0.17906,0.22383l-0.27316,0.40973l-0.05256,0.04778l-0.02757,0.06547l-0.36474,0.48632l-0.18601,0.37204l-0.12805,0.32011l-0.06211,0.086l-0.02301,0.10356l-0.2035,0.40699l-0.4341,1.08524l-0.56515,1.69546l-0.05263,0.42103l-0.03368,0.08701l0.00444,0.0932l-0.11812,0.59059v0.25245l-0.03831,0.15326l0.01901,0.15682l-0.06403,0.51223v0.35538l0.06131,0.49047l0.06199,0.43395l0.09424,0.37694l0.02926,0.07315l0.14694,0.2449l0.00796,0.02615l0.01891,0.01974l0.33333,0.58334l0.01924,0.06838l0.04622,0.05393l0.14919,0.29837l0.06589,0.08785l0.447,0.5215l0.06856,0.13711l0.11343,0.10312l0.27316,0.40973l0.26555,0.33195l0.01671,0.03645l0.03112,0.02528l0.3934,0.52453l0.29418,0.29418l0.41288,0.34407l0.0682,0.09332l0.09911,0.05946l0.3537,0.3537l0.38216,0.27298l0.41696,0.27797l0.69999,0.42l1.08079,0.5404l0.07443,0.06379l0.09378,0.02854l0.79762,0.47857l0.60181,0.33434l0.4658,0.19963l0.05985,0.04548l0.07339,0.01631l0.66666,0.33333l0.03477,0.0298l0.04432,0.01153l0.81294,0.44342l0.47473,0.20346l0.09583,0.07283l0.1165,0.03029l0.68771,0.37511l0.58353,0.17506l0.03343,0.01988l0.03877,0.00298l1.25,0.41667l0.02928,0.01863l0.03451,0.00359l0.88492,0.32179l1.37688,0.45896l1.09373,0.27343l0.51687,0.06461l0.18184,0.07039l0.19487,0.0065l0.39794,0.1137l0.47535,0.05942l0.02103,0.00815l0.02243,-0.00232l0.58334,0.08333l0.02766,0.01128l0.02978,-0.00239l0.29591,0.04932h1.25285l0.52,-0.08667l0.50647,-0.30388l0.28536,-0.22829l0.03645,-0.01671l0.02528,-0.03113l0.1912,-0.14339l0.44932,-0.44932l0.02935,-0.04403l0.18425,-0.1675l0.12811,-0.21352l0.01211,-0.01211l0.01959,-0.08816l0.16667,-0.33334l0.09303,-0.10853l0.02133,-0.06401l0.01648,-0.0259l0.0251,-0.07028l0.064,-0.09599l0.03006,-0.13529l0.30794,-0.61588l0.29112,-0.65501l0.14915,-0.37288l0.06211,-0.086l0.02301,-0.10356l0.50388,-1.00776l0.11048,-0.33145l0.17927,-0.28171l0.11231,-0.31447l0.03934,-0.05902l0.09716,-0.22672l0.11169,-0.39093l0.15657,-0.62625l0.02012,-0.03772l0.00143,-0.04274l0.1137,-0.39794l0.05942,-0.47534l0.05534,-0.14296v-0.15329l0.29255,-1.1702l0.06476,-0.58287l0.05935,-0.1598v-0.17046l0.12589,-0.50353l0.23143,-2.08288l0.00614,-0.01651l-0.00212,-0.01749l0.08121,-0.64968l0.08144,-0.73298l0.00614,-0.01651l-0.00212,-0.01749l0.08121,-0.64968l0.08145,-0.73298l0.00614,-0.01652l-0.00213,-0.01749l0.08121,-0.64968l0.08145,-0.73299l0.00614,-0.01651l-0.00212,-0.01749l0.06403,-0.51223v-2.01347l-0.02312,-0.11559l-0.25234,-1.00938l-0.04394,-0.08787l-0.07244,-0.32597l-0.14295,-0.30178l-0.20498,-1.02493l-0.08142,-0.20355l-0.03665,-0.26874l-0.10815,-0.24874l-0.0389,-0.23343l-0.0663,-0.16576l-0.03665,-0.26874l-0.10815,-0.24874l-0.08333,-0.5l0.00238,-0.02978l-0.01127,-0.02767l-0.16255,-1.13789l-0.07855,-0.47133l0.00238,-0.02978l-0.01127,-0.02767l-0.08334,-0.58333l0.00232,-0.02244l-0.00814,-0.02103l-0.08334,-0.66667l0.01901,-0.15682l-0.03831,-0.15326v-2.83334l0.05068,-0.20271l-0.01667,-0.20828l0.25,-1.5l0.05739,-0.13198l0.00479,-0.14383l0.16667,-0.58333l0.02783,-0.04824l0.00427,-0.05552l0.33334,-1l0.09661,-0.15181l0.03903,-0.17565l0.4535,-0.907l0.29471,-0.73678l0.19317,-0.26745l0.12802,-0.30407l0.10053,-0.13404l0.00879,-0.01647l0.01863,-0.05216l0.00035,-0.00456l0.08333,-0.25l0.01649,-0.0259l0.0251,-0.07028l0.04107,-0.0616l0.00069,-0.00889l0.04972,-0.14916l0.00259,-0.01163l0.00388,-0.00776l0.02715,-0.08145l0.09661,-0.15181l0.03903,-0.17566l0.16667,-0.33333l0.10281,-0.11995l0.05313,-0.14878l0.16667,-0.25l0.05256,-0.04778l0.02757,-0.06547l0.17262,-0.23016l0.18365,-0.30607l0.0928,-0.09281l0.05093,-0.12096l0.11474,-0.15299l0.06585,-0.13171l0.26154,-0.30513l0.20677,-0.34461l0.11571,-0.11571l0.09166,-0.15276l0.12054,-0.12053l0.07102,-0.15496l0.04495,-0.05618l-0.21887,0.07295l-0.05552,0.00428l-0.04824,0.02783l-0.43098,0.12314l-0.9535,0.40864l-0.51508,0.25754l-0.28332,0.17l-0.66696,0.44464l-0.55053,0.39324l-0.03851,0.01517l-0.02784,0.03062l-0.5,0.33334l-0.02575,0.00919l-0.01881,0.01983l-0.76677,0.48795l-0.44844,0.38437l-0.07448,0.03724l-0.0525,0.06462l-0.52453,0.3934l-0.37437,0.37437l-0.08406,0.05043l-0.05673,0.07994l-0.51044,0.43752l-0.76859,0.76859l-0.30306,0.36366l-0.19412,0.25884l-0.34174,0.47843l-0.14924,0.24873l-0.12373,0.24746l-0.1028,0.11995l-0.05313,0.14877l-0.14763,0.22143l-0.0608,0.18239l-0.0966,0.15181l-0.03904,0.17565l-0.14609,0.29218l-0.10283,0.35992l-0.11696,0.20274l-0.05078,0.22849l-0.06857,0.13714l-0.02596,0.18171l-0.08574,0.21045l-0.01743,0.22657l-0.20504,0.61513v0.01098l-0.06039,0.24157l0.01184,0.24872l-0.11812,0.59059v0.16912l-0.05068,0.20271l0.01667,0.20829l-0.04932,0.29591v0.20976l-0.06039,0.24157l0.01184,0.24872l-0.16667,0.83333l-0.09901,0.20902l-0.03125,0.22916l-0.16666,0.41666l-0.06211,0.086l-0.02302,0.10356l-0.16666,0.33334l-0.06379,0.07443l-0.02854,0.09378l-0.25,0.41666l-0.21762,0.21762l-0.15835,0.2639l-0.66666,0.66667l-0.12071,0.07243l-0.08532,0.11198l-0.83333,0.66666l-0.15497,0.07102l-0.12053,0.12054l-0.41667,0.25l-0.2634,0.08016l-0.23227,0.14781l-1.5,0.5l-0.19772,0.01521l-0.18185,0.07907l-1,0.16667l-0.20829,-0.01667l-0.20271,0.05068h-1.75l-0.29857,-0.07465h-0.30776l-0.66666,-0.16666l-0.0865,-0.04613l-0.09774,-0.00752l-0.25,-0.08333l-0.28171,-0.17927l-0.31447,-0.11231l-0.25,-0.16666l-0.1675,-0.18425l-0.21352,-0.12811l-0.30132,-0.30132l-0.02754,-0.0055l-0.03855,-0.06058l-0.04926,-0.04925l-0.29555,-0.49257l-0.3084,-0.48463l-0.02203,-0.06608l-0.03695,-0.06157l0.00308,-0.01128l-0.05847,-0.11693l-0.05973,-0.26877l-0.12956,-0.24293l-0.08334,-0.33333v-0.30777l-0.07464,-0.29857v-0.08578l-0.11812,-0.59059l0.01184,-0.24872l-0.06039,-0.24157v-0.08578l-0.00426,-0.02131l-0.00123,-0.00369l-0.1801,-0.42023l-0.05048,-0.10095l-0.03007,-0.1353l-0.06399,-0.09598l-0.0251,-0.07028l-0.01648,-0.0259l-0.02134,-0.06401l-0.09302,-0.10853l-0.16666,-0.33334l-0.03007,-0.13529l-0.34699,-0.5205z" fill="#8b0000"/><path d="M238.53378,168.31877c0.93548,0.66187 2.13389,0.92774 3.27411,0.8609c2.26442,-0.13275 14.05326,3.02662 11.02742,6.7847c-0.71795,0.89169 -2.13502,1.60806 -3.3541,1.11803c-2.08352,-0.83749 -4.18447,-2.20606 -6.50622,-2.98607c-1.93873,-0.65133 -3.93436,0.00467 -6.0114,-0.98108c-1.39102,-0.66017 -2.48118,-1.55215 -3.54878,-2.66782c-0.73264,-0.76563 -3.68582,-6.70356 -0.75833,-6.8662c0.39131,-0.25403 0.85814,-0.40157 1.35944,-0.40157c1.38071,0 2.5,1.11929 2.5,2.5c0,0.16952 -0.01687,0.3351 -0.04903,0.49515c0.62699,0.81818 1.28194,1.58858 2.0669,2.14395z" fill="#000000"/><path d="M230.59924,176.34633c0,-1.38071 1.11929,-2.5 2.5,-2.5c1.38071,0 2.5,1.11929 2.5,2.5c0,1.38071 -1.11929,2.5 -2.5,2.5c-1.38071,0 -2.5,-1.11929 -2.5,-2.5z" fill="#000000"/><path d="M245.51591,181.59633c0,-1.38071 1.11929,-2.5 2.5,-2.5c1.38071,0 2.5,1.11929 2.5,2.5c0,1.38071 -1.11929,2.5 -2.5,2.5c-1.38071,0 -2.5,-1.11929 -2.5,-2.5z" fill="#000000"/></g></g></svg>