<svg version="1.1" xmlns="http://www.w3.org/2000/svg" xmlns:xlink="http://www.w3.org/1999/xlink" width="49.87225" height="37.86564" viewBox="0,0,49.87225,37.86564"><defs><radialGradient cx="240" cy="180" r="24.62772" gradientUnits="userSpaceOnUse" id="color-1"><stop offset="0" stop-color="#896600"/><stop offset="1" stop-color="#896600" stop-opacity="0"/></radialGradient><radialGradient cx="240" cy="180" r="24.62772" gradientUnits="userSpaceOnUse" id="color-2"><stop offset="0" stop-color="#896600"/><stop offset="1" stop-color="#896600" stop-opacity="0"/></radialGradient><radialGradient cx="240" cy="180" r="24.62772" gradientUnits="userSpaceOnUse" id="color-3"><stop offset="0" stop-color="#896600"/><stop offset="1" stop-color="#896600" stop-opacity="0"/></radialGradient><radialGradient cx="240" cy="180" r="24.62772" gradientUnits="userSpaceOnUse" id="color-4"><stop offset="0" stop-color="#896600"/><stop offset="1" stop-color="#896600" stop-opacity="0"/></radialGradient><radialGradient cx="240" cy="180" r="24.62772" gradientUnits="userSpaceOnUse" id="color-5"><stop offset="0" stop-color="#896600"/><stop offset="1" stop-color="#896600" stop-opacity="0"/></radialGradient></defs><g transform="translate(-215.06389,-161.06718)"><g data-paper-data="{&quot;isPaintingLayer&quot;:true}" fill-rule="nonzero" stroke="none" stroke-width="0.5" stroke-linecap="butt" stroke-linejoin="miter" stroke-miterlimit="10" stroke-dasharray="" stroke-dashoffset="0" style="mix-blend-mode: normal"><path d="M238.76481,184.7641l0.04977,0.04266l0.03095,0.00871zM238.46219,184.56947h-0.06754l0.21947,0.10973zM245.97957,178.35754l0.21362,-0.04272l0.17783,-0.17783v-2.75482l-0.1438,-0.57518l-0.0473,-0.07883l-0.22011,-0.3459l-0.95014,-0.95014l-0.13943,-0.08873l-0.52529,-0.22118l-0.13507,-0.10131h-3.52231l-1.94375,0.32396l-1.22516,0.35005l-0.20399,0.00679l-0.18718,0.08138l-0.36283,0.06047l-0.07446,0.05584l-0.81644,0.65316l-0.22071,0.22071l-0.11272,0.16908l0.02368,0.11839l-0.01679,0.35275l0.08565,0.34261v0.22793l0.28385,0.07095l0.79528,0.17673l0.08837,0.04418l0.09879,0.02471l0.01658,0.029l0.34487,0.11496l0.08994,0.05724l0.10564,0.01441l0.91628,0.36652l1.1168,0.37226l0.36707,0.23358c0.21109,0.01605 0.41701,0.05059 0.61616,0.102l0.05137,-0.01401l0.08887,0.05333c0.2243,0.06792 0.43919,0.15745 0.64227,0.26619l0.1015,0.02537l0.02671,0.04675c0.21155,0.12485 0.40899,0.27104 0.58938,0.43561l0.34615,0.13846l0.42296,0.30548l0.24229,0.01346l0.03025,0.0353h1.40073l0.15352,-0.03838l0.78961,-0.31584l0.325,-0.04432zM263.68928,173.37434l-0.18214,0.72857l-0.1172,0.58603v3.06664l0.43611,0.87221l0.07202,0.32405l0.16589,0.28753l0.40521,1.41824l0.01648,0.49427l0.11994,0.47978v1.01304l-0.16287,0.65146l-0.09073,0.66535l-0.40521,1.01304l-0.32608,0.4515l-0.24212,0.50155l-0.85828,1.02994l-2.90446,4.64713l-1.60396,2.60643l-1.20539,2.00898l-0.44446,0.44446l-0.38094,0.49999l-1.01304,0.81043l-0.00078,0.00035l-0.02041,0.0515l-0.82762,0.33717l-0.8124,0.37235l-0.05151,-0.02039l-0.00079,0.00033l-1.41824,0.20261l-0.44731,-0.04628l-0.44565,0.06022l-1.82345,-0.20261l-0.07827,-0.02907l-0.08317,0.00737l-3.84952,-0.60782l-0.04818,-0.02047l-0.05225,0.00312l-3.24169,-0.60782l-0.1926,-0.0884l-0.21156,-0.01227l-3.22236,-1.00698l-4.03272,-1.20982l-0.09594,-0.05704l-0.11098,-0.01203l-3.84952,-1.41824l-0.00872,-0.00594l-0.01048,-0.00121l-3.24169,-1.21563l-0.375,-0.25862l-0.42475,-0.16459l-3.33673,-2.35533l-0.90012,-0.54007l-0.4826,-0.4826l-0.52969,-0.43038l-2.43128,-3.24169l-0.09525,-0.22622l-0.16768,-0.17925l-1.01304,-1.82345l-0.08602,-0.32062l-0.17822,-0.28006l-1.21563,-3.64691l-0.04371,-0.56828l-0.13824,-0.55294v-3.4443l0.10586,-0.42344v-0.43648l0.40521,-1.62085l0.06542,-0.12266l0.01067,-0.13862l0.40521,-1.21563l0.18959,-0.29793l0.09562,-0.33995l0.81043,-1.41824l0.19336,-0.20176l0.11644,-0.25405l0.81043,-1.01304l0.28639,-0.2182l0.21242,-0.29068l1.21563,-1.01304l0.1215,-0.05866l0.08749,-0.10271l1.41824,-1.01304l0.37436,-0.14747l0.32279,-0.24021l2.39293,-0.99705l1.7855,-0.79355l0.53722,-0.09402l0.51125,-0.18989l1.82345,-0.20261l0.19786,0.02673l0.19369,-0.04842h5.87558l0.10983,0.02746l0.11133,-0.02055l3.24169,0.20261l0.25469,0.08085l0.26706,-0.00905l2.62747,0.56303l1.85562,0.16869h2.47305l0.17466,0.04367l0.17815,-0.02607l2.02606,0.20261l0.21552,0.07737l0.22895,-0.00417l2.63388,0.60782l0.07148,0.03646l0.08022,0.00208l3.64691,1.01304l0.3,0.17015l0.33668,0.07481l1.89415,0.94707l0.87611,0.35043l0.12197,0.08809l0.14687,0.03263l0.40521,0.20261l0.06532,0.05599l1.37734,0.07651l0.09831,-0.03278l0.04689,0.04083l1.03722,0.05762l1.18924,1.38744l0.20261,0.40521l0.07312,0.32903l0.14543,0.12666l0.03198,0.67171l0.14588,0.65645l-0.10698,0.16046l0.01603,0.33668l-0.20261,1.01304l-0.20274,0.428l-0.10274,0.4623l-0.16679,0.33357l-0.11496,0.68975l-0.05762,0.13253z" fill="url(#color-1)"/><path d="M238.76481,184.7641l0.04977,0.04266l0.03095,0.00871zM238.46219,184.56947h-0.06754l0.21947,0.10973zM245.97957,178.35754l0.21362,-0.04272l0.17783,-0.17783v-2.75482l-0.1438,-0.57518l-0.0473,-0.07883l-0.22011,-0.3459l-0.95014,-0.95014l-0.13943,-0.08873l-0.52529,-0.22118l-0.13507,-0.10131h-3.52231l-1.94375,0.32396l-1.22516,0.35005l-0.20399,0.00679l-0.18718,0.08138l-0.36283,0.06047l-0.07446,0.05584l-0.81644,0.65316l-0.22071,0.22071l-0.11272,0.16908l0.02368,0.11839l-0.01679,0.35275l0.08565,0.34261v0.22793l0.28385,0.07095l0.79528,0.17673l0.08837,0.04418l0.09879,0.02471l0.01658,0.029l0.34487,0.11496l0.08994,0.05724l0.10564,0.01441l0.91628,0.36652l1.1168,0.37226l0.36707,0.23358c0.21109,0.01605 0.41701,0.05059 0.61616,0.102l0.05137,-0.01401l0.08887,0.05333c0.2243,0.06792 0.43919,0.15745 0.64227,0.26619l0.1015,0.02537l0.02671,0.04675c0.21155,0.12485 0.40899,0.27104 0.58938,0.43561l0.34615,0.13846l0.42296,0.30548l0.24229,0.01346l0.03025,0.0353h1.40073l0.15352,-0.03838l0.78961,-0.31584l0.325,-0.04432zM263.68928,173.37434l-0.18214,0.72857l-0.1172,0.58603v3.06664l0.43611,0.87221l0.07202,0.32405l0.16589,0.28753l0.40521,1.41824l0.01648,0.49427l0.11994,0.47978v1.01304l-0.16287,0.65146l-0.09073,0.66535l-0.40521,1.01304l-0.32608,0.4515l-0.24212,0.50155l-0.85828,1.02994l-2.90446,4.64713l-1.60396,2.60643l-1.20539,2.00898l-0.44446,0.44446l-0.38094,0.49999l-1.01304,0.81043l-0.00078,0.00035l-0.02041,0.0515l-0.82762,0.33717l-0.8124,0.37235l-0.05151,-0.02039l-0.00079,0.00033l-1.41824,0.20261l-0.44731,-0.04628l-0.44565,0.06022l-1.82345,-0.20261l-0.07827,-0.02907l-0.08317,0.00737l-3.84952,-0.60782l-0.04818,-0.02047l-0.05225,0.00312l-3.24169,-0.60782l-0.1926,-0.0884l-0.21156,-0.01227l-3.22236,-1.00698l-4.03272,-1.20982l-0.09594,-0.05704l-0.11098,-0.01203l-3.84952,-1.41824l-0.00872,-0.00594l-0.01048,-0.00121l-3.24169,-1.21563l-0.375,-0.25862l-0.42475,-0.16459l-3.33673,-2.35533l-0.90012,-0.54007l-0.4826,-0.4826l-0.52969,-0.43038l-2.43128,-3.24169l-0.09525,-0.22622l-0.16768,-0.17925l-1.01304,-1.82345l-0.08602,-0.32062l-0.17822,-0.28006l-1.21563,-3.64691l-0.04371,-0.56828l-0.13824,-0.55294v-3.4443l0.10586,-0.42344v-0.43648l0.40521,-1.62085l0.06542,-0.12266l0.01067,-0.13862l0.40521,-1.21563l0.18959,-0.29793l0.09562,-0.33995l0.81043,-1.41824l0.19336,-0.20176l0.11644,-0.25405l0.81043,-1.01304l0.28639,-0.2182l0.21242,-0.29068l1.21563,-1.01304l0.1215,-0.05866l0.08749,-0.10271l1.41824,-1.01304l0.37436,-0.14747l0.32279,-0.24021l2.39293,-0.99705l1.7855,-0.79355l0.53722,-0.09402l0.51125,-0.18989l1.82345,-0.20261l0.19786,0.02673l0.19369,-0.04842h5.87558l0.10983,0.02746l0.11133,-0.02055l3.24169,0.20261l0.25469,0.08085l0.26706,-0.00905l2.62747,0.56303l1.85562,0.16869h2.47305l0.17466,0.04367l0.17815,-0.02607l2.02606,0.20261l0.21552,0.07737l0.22895,-0.00417l2.63388,0.60782l0.07148,0.03646l0.08022,0.00208l3.64691,1.01304l0.3,0.17015l0.33668,0.07481l1.89415,0.94707l0.87611,0.35043l0.12197,0.08809l0.14687,0.03263l0.40521,0.20261l0.06532,0.05599l1.37734,0.07651l0.09831,-0.03278l0.04689,0.04083l1.03722,0.05762l1.18924,1.38744l0.20261,0.40521l0.07312,0.32903l0.14543,0.12666l0.03198,0.67171l0.14588,0.65645l-0.10698,0.16046l0.01603,0.33668l-0.20261,1.01304l-0.20274,0.428l-0.10274,0.4623l-0.16679,0.33357l-0.11496,0.68975l-0.05762,0.13253z" fill="url(#color-2)"/><path d="M238.76481,184.7641l0.04977,0.04266l0.03095,0.00871zM238.46219,184.56947h-0.06754l0.21947,0.10973zM245.97957,178.35754l0.21362,-0.04272l0.17783,-0.17783v-2.75482l-0.1438,-0.57518l-0.0473,-0.07883l-0.22011,-0.3459l-0.95014,-0.95014l-0.13943,-0.08873l-0.52529,-0.22118l-0.13507,-0.10131h-3.52231l-1.94375,0.32396l-1.22516,0.35005l-0.20399,0.00679l-0.18718,0.08138l-0.36283,0.06047l-0.07446,0.05584l-0.81644,0.65316l-0.22071,0.22071l-0.11272,0.16908l0.02368,0.11839l-0.01679,0.35275l0.08565,0.34261v0.22793l0.28385,0.07095l0.79528,0.17673l0.08837,0.04418l0.09879,0.02471l0.01658,0.029l0.34487,0.11496l0.08994,0.05724l0.10564,0.01441l0.91628,0.36652l1.1168,0.37226l0.36707,0.23358c0.21109,0.01605 0.41701,0.05059 0.61616,0.102l0.05137,-0.01401l0.08887,0.05333c0.2243,0.06792 0.43919,0.15745 0.64227,0.26619l0.1015,0.02537l0.02671,0.04675c0.21155,0.12485 0.40899,0.27104 0.58938,0.43561l0.34615,0.13846l0.42296,0.30548l0.24229,0.01346l0.03025,0.0353h1.40073l0.15352,-0.03838l0.78961,-0.31584l0.325,-0.04432zM263.68928,173.37434l-0.18214,0.72857l-0.1172,0.58603v3.06664l0.43611,0.87221l0.07202,0.32405l0.16589,0.28753l0.40521,1.41824l0.01648,0.49427l0.11994,0.47978v1.01304l-0.16287,0.65146l-0.09073,0.66535l-0.40521,1.01304l-0.32608,0.4515l-0.24212,0.50155l-0.85828,1.02994l-2.90446,4.64713l-1.60396,2.60643l-1.20539,2.00898l-0.44446,0.44446l-0.38094,0.49999l-1.01304,0.81043l-0.00078,0.00035l-0.02041,0.0515l-0.82762,0.33717l-0.8124,0.37235l-0.05151,-0.02039l-0.00079,0.00033l-1.41824,0.20261l-0.44731,-0.04628l-0.44565,0.06022l-1.82345,-0.20261l-0.07827,-0.02907l-0.08317,0.00737l-3.84952,-0.60782l-0.04818,-0.02047l-0.05225,0.00312l-3.24169,-0.60782l-0.1926,-0.0884l-0.21156,-0.01227l-3.22236,-1.00698l-4.03272,-1.20982l-0.09594,-0.05704l-0.11098,-0.01203l-3.84952,-1.41824l-0.00872,-0.00594l-0.01048,-0.00121l-3.24169,-1.21563l-0.375,-0.25862l-0.42475,-0.16459l-3.33673,-2.35533l-0.90012,-0.54007l-0.4826,-0.4826l-0.52969,-0.43038l-2.43128,-3.24169l-0.09525,-0.22622l-0.16768,-0.17925l-1.01304,-1.82345l-0.08602,-0.32062l-0.17822,-0.28006l-1.21563,-3.64691l-0.04371,-0.56828l-0.13824,-0.55294v-3.4443l0.10586,-0.42344v-0.43648l0.40521,-1.62085l0.06542,-0.12266l0.01067,-0.13862l0.40521,-1.21563l0.18959,-0.29793l0.09562,-0.33995l0.81043,-1.41824l0.19336,-0.20176l0.11644,-0.25405l0.81043,-1.01304l0.28639,-0.2182l0.21242,-0.29068l1.21563,-1.01304l0.1215,-0.05866l0.08749,-0.10271l1.41824,-1.01304l0.37436,-0.14747l0.32279,-0.24021l2.39293,-0.99705l1.7855,-0.79355l0.53722,-0.09402l0.51125,-0.18989l1.82345,-0.20261l0.19786,0.02673l0.19369,-0.04842h5.87558l0.10983,0.02746l0.11133,-0.02055l3.24169,0.20261l0.25469,0.08085l0.26706,-0.00905l2.62747,0.56303l1.85562,0.16869h2.47305l0.17466,0.04367l0.17815,-0.02607l2.02606,0.20261l0.21552,0.07737l0.22895,-0.00417l2.63388,0.60782l0.07148,0.03646l0.08022,0.00208l3.64691,1.01304l0.3,0.17015l0.33668,0.07481l1.89415,0.94707l0.87611,0.35043l0.12197,0.08809l0.14687,0.03263l0.40521,0.20261l0.06532,0.05599l1.37734,0.07651l0.09831,-0.03278l0.04689,0.04083l1.03722,0.05762l1.18924,1.38744l0.20261,0.40521l0.07312,0.32903l0.14543,0.12666l0.03198,0.67171l0.14588,0.65645l-0.10698,0.16046l0.01603,0.33668l-0.20261,1.01304l-0.20274,0.428l-0.10274,0.4623l-0.16679,0.33357l-0.11496,0.68975l-0.05762,0.13253z" fill="url(#color-3)"/><path d="M238.76481,184.7641l0.04977,0.04266l0.03095,0.00871zM238.46219,184.56947h-0.06754l0.21947,0.10973zM245.97957,178.35754l0.21362,-0.04272l0.17783,-0.17783v-2.75482l-0.1438,-0.57518l-0.0473,-0.07883l-0.22011,-0.3459l-0.95014,-0.95014l-0.13943,-0.08873l-0.52529,-0.22118l-0.13507,-0.10131h-3.52231l-1.94375,0.32396l-1.22516,0.35005l-0.20399,0.00679l-0.18718,0.08138l-0.36283,0.06047l-0.07446,0.05584l-0.81644,0.65316l-0.22071,0.22071l-0.11272,0.16908l0.02368,0.11839l-0.01679,0.35275l0.08565,0.34261v0.22793l0.28385,0.07095l0.79528,0.17673l0.08837,0.04418l0.09879,0.02471l0.01658,0.029l0.34487,0.11496l0.08994,0.05724l0.10564,0.01441l0.91628,0.36652l1.1168,0.37226l0.36707,0.23358c0.21109,0.01605 0.41701,0.05059 0.61616,0.102l0.05137,-0.01401l0.08887,0.05333c0.2243,0.06792 0.43919,0.15745 0.64227,0.26619l0.1015,0.02537l0.02671,0.04675c0.21155,0.12485 0.40899,0.27104 0.58938,0.43561l0.34615,0.13846l0.42296,0.30548l0.24229,0.01346l0.03025,0.0353h1.40073l0.15352,-0.03838l0.78961,-0.31584l0.325,-0.04432zM263.68928,173.37434l-0.18214,0.72857l-0.1172,0.58603v3.06664l0.43611,0.87221l0.07202,0.32405l0.16589,0.28753l0.40521,1.41824l0.01648,0.49427l0.11994,0.47978v1.01304l-0.16287,0.65146l-0.09073,0.66535l-0.40521,1.01304l-0.32608,0.4515l-0.24212,0.50155l-0.85828,1.02994l-2.90446,4.64713l-1.60396,2.60643l-1.20539,2.00898l-0.44446,0.44446l-0.38094,0.49999l-1.01304,0.81043l-0.00078,0.00035l-0.02041,0.0515l-0.82762,0.33717l-0.8124,0.37235l-0.05151,-0.02039l-0.00079,0.00033l-1.41824,0.20261l-0.44731,-0.04628l-0.44565,0.06022l-1.82345,-0.20261l-0.07827,-0.02907l-0.08317,0.00737l-3.84952,-0.60782l-0.04818,-0.02047l-0.05225,0.00312l-3.24169,-0.60782l-0.1926,-0.0884l-0.21156,-0.01227l-3.22236,-1.00698l-4.03272,-1.20982l-0.09594,-0.05704l-0.11098,-0.01203l-3.84952,-1.41824l-0.00872,-0.00594l-0.01048,-0.00121l-3.24169,-1.21563l-0.375,-0.25862l-0.42475,-0.16459l-3.33673,-2.35533l-0.90012,-0.54007l-0.4826,-0.4826l-0.52969,-0.43038l-2.43128,-3.24169l-0.09525,-0.22622l-0.16768,-0.17925l-1.01304,-1.82345l-0.08602,-0.32062l-0.17822,-0.28006l-1.21563,-3.64691l-0.04371,-0.56828l-0.13824,-0.55294v-3.4443l0.10586,-0.42344v-0.43648l0.40521,-1.62085l0.06542,-0.12266l0.01067,-0.13862l0.40521,-1.21563l0.18959,-0.29793l0.09562,-0.33995l0.81043,-1.41824l0.19336,-0.20176l0.11644,-0.25405l0.81043,-1.01304l0.28639,-0.2182l0.21242,-0.29068l1.21563,-1.01304l0.1215,-0.05866l0.08749,-0.10271l1.41824,-1.01304l0.37436,-0.14747l0.32279,-0.24021l2.39293,-0.99705l1.7855,-0.79355l0.53722,-0.09402l0.51125,-0.18989l1.82345,-0.20261l0.19786,0.02673l0.19369,-0.04842h5.87558l0.10983,0.02746l0.11133,-0.02055l3.24169,0.20261l0.25469,0.08085l0.26706,-0.00905l2.62747,0.56303l1.85562,0.16869h2.47305l0.17466,0.04367l0.17815,-0.02607l2.02606,0.20261l0.21552,0.07737l0.22895,-0.00417l2.63388,0.60782l0.07148,0.03646l0.08022,0.00208l3.64691,1.01304l0.3,0.17015l0.33668,0.07481l1.89415,0.94707l0.87611,0.35043l0.12197,0.08809l0.14687,0.03263l0.40521,0.20261l0.06532,0.05599l1.37734,0.07651l0.09831,-0.03278l0.04689,0.04083l1.03722,0.05762l1.18924,1.38744l0.20261,0.40521l0.07312,0.32903l0.14543,0.12666l0.03198,0.67171l0.14588,0.65645l-0.10698,0.16046l0.01603,0.33668l-0.20261,1.01304l-0.20274,0.428l-0.10274,0.4623l-0.16679,0.33357l-0.11496,0.68975l-0.05762,0.13253z" fill="url(#color-4)"/><path d="M238.76481,184.7641l0.04977,0.04266l0.03095,0.00871zM238.46219,184.56947h-0.06754l0.21947,0.10973zM245.97957,178.35754l0.21362,-0.04272l0.17783,-0.17783v-2.75482l-0.1438,-0.57518l-0.0473,-0.07883l-0.22011,-0.3459l-0.95014,-0.95014l-0.13943,-0.08873l-0.52529,-0.22118l-0.13507,-0.10131h-3.52231l-1.94375,0.32396l-1.22516,0.35005l-0.20399,0.00679l-0.18718,0.08138l-0.36283,0.06047l-0.07446,0.05584l-0.81644,0.65316l-0.22071,0.22071l-0.11272,0.16908l0.02368,0.11839l-0.01679,0.35275l0.08565,0.34261v0.22793l0.28385,0.07095l0.79528,0.17673l0.08837,0.04418l0.09879,0.02471l0.01658,0.029l0.34487,0.11496l0.08994,0.05724l0.10564,0.01441l0.91628,0.36652l1.1168,0.37226l0.36707,0.23358c0.21109,0.01605 0.41701,0.05059 0.61616,0.102l0.05137,-0.01401l0.08887,0.05333c0.2243,0.06792 0.43919,0.15745 0.64227,0.26619l0.1015,0.02537l0.02671,0.04675c0.21155,0.12485 0.40899,0.27104 0.58938,0.43561l0.34615,0.13846l0.42296,0.30548l0.24229,0.01346l0.03025,0.0353h1.40073l0.15352,-0.03838l0.78961,-0.31584l0.325,-0.04432zM263.68928,173.37434l-0.18214,0.72857l-0.1172,0.58603v3.06664l0.43611,0.87221l0.07202,0.32405l0.16589,0.28753l0.40521,1.41824l0.01648,0.49427l0.11994,0.47978v1.01304l-0.16287,0.65146l-0.09073,0.66535l-0.40521,1.01304l-0.32608,0.4515l-0.24212,0.50155l-0.85828,1.02994l-2.90446,4.64713l-1.60396,2.60643l-1.20539,2.00898l-0.44446,0.44446l-0.38094,0.49999l-1.01304,0.81043l-0.00078,0.00035l-0.02041,0.0515l-0.82762,0.33717l-0.8124,0.37235l-0.05151,-0.02039l-0.00079,0.00033l-1.41824,0.20261l-0.44731,-0.04628l-0.44565,0.06022l-1.82345,-0.20261l-0.07827,-0.02907l-0.08317,0.00737l-3.84952,-0.60782l-0.04818,-0.02047l-0.05225,0.00312l-3.24169,-0.60782l-0.1926,-0.0884l-0.21156,-0.01227l-3.22236,-1.00698l-4.03272,-1.20982l-0.09594,-0.05704l-0.11098,-0.01203l-3.84952,-1.41824l-0.00872,-0.00594l-0.01048,-0.00121l-3.24169,-1.21563l-0.375,-0.25862l-0.42475,-0.16459l-3.33673,-2.35533l-0.90012,-0.54007l-0.4826,-0.4826l-0.52969,-0.43038l-2.43128,-3.24169l-0.09525,-0.22622l-0.16768,-0.17925l-1.01304,-1.82345l-0.08602,-0.32062l-0.17822,-0.28006l-1.21563,-3.64691l-0.04371,-0.56828l-0.13824,-0.55294v-3.4443l0.10586,-0.42344v-0.43648l0.40521,-1.62085l0.06542,-0.12266l0.01067,-0.13862l0.40521,-1.21563l0.18959,-0.29793l0.09562,-0.33995l0.81043,-1.41824l0.19336,-0.20176l0.11644,-0.25405l0.81043,-1.01304l0.28639,-0.2182l0.21242,-0.29068l1.21563,-1.01304l0.1215,-0.05866l0.08749,-0.10271l1.41824,-1.01304l0.37436,-0.14747l0.32279,-0.24021l2.39293,-0.99705l1.7855,-0.79355l0.53722,-0.09402l0.51125,-0.18989l1.82345,-0.20261l0.19786,0.02673l0.19369,-0.04842h5.87558l0.10983,0.02746l0.11133,-0.02055l3.24169,0.20261l0.25469,0.08085l0.26706,-0.00905l2.62747,0.56303l1.85562,0.16869h2.47305l0.17466,0.04367l0.17815,-0.02607l2.02606,0.20261l0.21552,0.07737l0.22895,-0.00417l2.63388,0.60782l0.07148,0.03646l0.08022,0.00208l3.64691,1.01304l0.3,0.17015l0.33668,0.07481l1.89415,0.94707l0.87611,0.35043l0.12197,0.08809l0.14687,0.03263l0.40521,0.20261l0.06532,0.05599l1.37734,0.07651l0.09831,-0.03278l0.04689,0.04083l1.03722,0.05762l1.18924,1.38744l0.20261,0.40521l0.07312,0.32903l0.14543,0.12666l0.03198,0.67171l0.14588,0.65645l-0.10698,0.16046l0.01603,0.33668l-0.20261,1.01304l-0.20274,0.428l-0.10274,0.4623l-0.16679,0.33357l-0.11496,0.68975l-0.05762,0.13253z" fill="url(#color-5)"/><path d="M221.98211,172.5116c0,-1.15465 0.93603,-2.09068 2.09068,-2.09068c1.15465,0 2.09068,0.93603 2.09068,2.09068c0,1.15465 -0.93603,2.09068 -2.09068,2.09068c-1.15465,0 -2.09068,-0.93603 -2.09068,-2.09068z" fill="#000000"/><path d="M247.60248,166.42961c0,-1.15465 0.93603,-2.09068 2.09068,-2.09068c1.15465,0 2.09068,0.93603 2.09068,2.09068c0,1.15465 -0.93603,2.09068 -2.09068,2.09068c-1.15465,0 -2.09068,-0.93603 -2.09068,-2.09068z" fill="#000000"/><path d="M219.44539,183.23193l-0.00005,-0.19908l-0.05582,-0.22355l-0.02512,-0.15082l0.51551,0.04595l0.58787,0.13025l0.13589,-0.0036l0.12834,0.04465l0.59459,0.05379l0.45397,0.15088l0.33507,0.02562l0.326,0.08122l0.38358,-0.00013l0.38505,0.05475l0.14968,-0.0155l0.14596,0.03635l7.98136,-0.00554l0.10298,-0.02577l0.10498,0.01517l0.76002,-0.07676l0.08056,-0.0289l0.08535,0.00541l0.83605,-0.1527l0.08398,-0.03794l0.09208,-0.00212l0.63894,-0.17458l0.85979,-0.06315l0.0401,-0.01315l0.04175,0.0055l1.36674,-0.15567l0.13354,-0.04981l0.14219,-0.00066l0.91038,-0.23117l0.0439,-0.0235l0.04952,-0.00264l1.46341,-0.45267l0.46822,-0.12568l0.35865,-0.06391l0.1173,-0.05265l0.12841,-0.00458l0.61432,-0.17543l0.32219,-0.04844l0.22912,-0.09586l0.24792,-0.03749l0.45105,-0.18815l0.37336,-0.12175l0.12688,-0.07941l0.14688,-0.03209l0.60828,-0.30027l0.04513,-0.03824l0.0572,-0.01595l0.48205,-0.27292l1.4693,-0.73049l0.04515,-0.03847l0.05719,-0.01607l0.42859,-0.24389l0.37805,-0.16162l0.52689,-0.19726l0.41946,-0.1397l0.12702,-0.08057l0.14688,-0.03269l0.28244,-0.1409l0.34534,-0.09868l0.28054,-0.16146l0.30493,-0.10883l0.25937,-0.17247l0.04172,-0.00572l0.38016,-0.15193l0.07195,-0.05183l0.08659,-0.01928l0.45624,-0.22779l0.07687,-0.06571l0.09625,-0.03122l0.59227,-0.36949l0.34485,-0.20659l1.04527,-0.59653l0.05316,-0.05083l0.0693,-0.02475l0.45628,-0.30375l0.14018,-0.15382l0.1786,-0.10704l0.09711,-0.0969l0.42833,-0.23776l0.14782,-0.13802l0.03024,-0.01009l0.34805,-0.22126l0.15957,-0.009l0.17495,-0.20367l0.22668,-0.14412l0.01518,-0.07541l0.00281,-0.00211l0.07151,-0.04762l0.18769,-0.09381l0.25527,-0.21849l0.28823,-0.17282l0.45052,-0.4498l0.28979,-0.23158l0.0714,-0.09353l0.10096,-0.06054l0.30424,-0.3038l0.0775,-0.12887l0.11682,-0.09482l0.13903,-0.18503l0.19912,-0.19886l0.0775,-0.12888l0.11682,-0.09483l0.45647,-0.60759l0.07386,-0.17493l0.12374,-0.14416l0.07644,-0.15252l0.06422,-0.06415l0.17307,-0.28789l0.21883,-0.25497l0.06208,-0.12389l0.0051,-0.00102l0.03226,-0.05061l0.08692,-0.05573l0.10506,0.15014l0.07884,0.06855l0.04674,0.09346l0.45676,0.53333l0.06691,0.04757l0.04225,0.07043l0.14038,0.14054l0.07181,0.14362l0.17671,0.58846l0.06175,0.10391l0.0193,0.11931l0.11938,0.27855l0.11349,0.79199l0.0547,0.1343l0.00491,0.1449l0.108,0.37785l0.05308,0.42336l0.06343,0.63197l0.00122,3.0292l-0.07035,1.13186l-0.05332,0.64224l-0.13654,0.41057l-0.21446,0.57313l-0.01687,0.14795l-0.06646,0.13319l-0.12384,0.55833l-0.30704,0.86126l-0.3441,0.75834l-0.01312,0.07149l-0.04119,0.05984l-0.10367,0.27684l-0.15322,0.18422l-0.16894,0.35049l-0.20861,0.32838l-0.03418,0.10264l-0.07121,0.08918l-0.04794,0.10473l-0.08343,0.07932l-0.48951,0.77041l-0.39735,0.53064l-0.33976,0.43752l-0.59764,0.43565l-0.01016,0.01216l-0.01459,0.00616l-0.91317,0.6864l-0.05081,0.06261l-0.07165,0.03685l-0.49258,0.43181l-0.84065,0.54171l-0.8317,0.41709l-0.54391,0.1821l-0.08686,0.0554l-0.10136,0.01788l-0.51909,0.23147l-0.73717,0.18538l-0.16192,0.08658l-0.18068,0.03189l-0.60743,0.2708l-1.33418,0.46877l-0.87819,0.20388l-0.11577,0.05916l-0.12919,0.01365l-0.75719,0.27611l-0.66764,0.18279l-0.6574,0.12027l-0.74549,0.06868l-0.02036,0.00711l-0.02136,-0.00285l-0.5709,0.06403l-2.21188,0.00234l-0.65312,-0.11789l-0.0595,0.0039l-0.0556,-0.02141l-0.61051,-0.07575l-0.06163,0.00746l-0.05908,-0.01894l-0.9853,-0.06529l-0.53084,-0.11757l-0.08228,0.00213l-0.07623,-0.03095l-0.98884,-0.1412l-0.6083,-0.13514l-0.11534,0.00292l-0.1082,-0.04014l-0.57408,-0.06418l-0.44855,-0.09989l-0.94541,-0.33789l-0.0691,-0.00689l-0.06019,-0.0347l-0.34657,-0.0993l-0.28343,-0.14178l-0.14738,-0.03293l-0.12746,-0.08109l-0.39919,-0.13347l-0.24315,-0.09749l-0.37966,-0.19013l-0.14731,-0.03296l-0.1274,-0.08114l-0.13468,-0.04508l-0.0328,-0.02461l-0.10146,-0.04284l-0.07792,-0.07788l-0.76262,-0.45835l-0.07861,-0.02406l-0.06245,-0.05357l-0.76218,-0.38226l-0.10919,-0.02446l-0.09215,-0.06368l-0.60939,-0.22961l-0.14785,-0.01715l-0.13318,-0.06682l-0.21977,-0.04923l-0.02512,-0.04392l-0.26099,-0.06571l-0.23079,-0.13888l-0.10882,0.02957l-0.08875,-0.05663l-0.08724,-0.02923l-0.32376,-0.16247l-0.14706,-0.03292l-0.12716,-0.08115l-0.25431,-0.08521l-0.19484,-0.06992l-0.06039,-0.03854l-0.01921,-0.03363l-0.05527,-0.01391l-0.10106,-0.0645l-0.2283,-0.07648l-0.16307,-0.01276l-0.35919,-0.15456l-0.13283,-0.02161l-0.11659,-0.06748l-0.3456,-0.09926l-0.28261,-0.14179l-0.27276,-0.06098l-0.25256,-0.12006l-0.192,-0.03864l-0.20203,-0.08112l-0.19172,-0.02635l-0.17491,-0.08313l-0.2526,-0.05081l-0.87634,-0.29327l-0.04922,-0.02469l-0.01167,-0.02044l-0.05828,-0.01463l-0.05213,-0.02614l-0.46909,-0.10474l-0.08718,-0.02189l-0.05213,-0.02614l-0.06139,-0.0137l-0.05008,-0.03815l-0.53238,-0.22886l-0.0876,-0.0142l-0.07488,-0.04777l-0.01036,-0.00346l-0.18341,-0.11033l-0.01137,-0.00347l-0.01896,-0.03322l-0.3049,-0.07651l-0.08537,-0.03059l-0.10035,-0.0862l-0.13553,-0.06794l-0.15335,-0.11527l-0.25434,-0.10739l-0.22375,-0.16196l-0.22463,-0.0901l-0.01578,-0.00949l-0.0461,-0.04619l-0.28826,-0.17336l-0.25525,-0.21923l-0.00065,-0.00032l-0.14027,-0.14054l-0.07129,-0.04287z" data-paper-data="{&quot;noHover&quot;:false,&quot;origItem&quot;:[&quot;Path&quot;,{&quot;applyMatrix&quot;:true,&quot;segments&quot;:[[433.81962,385.23492],[433.99008,385.33719],[434.32543,385.67255],[434.32698,385.67332],[434.93723,386.19639],[435.62644,386.60992],[435.73665,386.72013],[435.77439,386.74277],[436.3115,386.95762],[436.84642,387.34395],[437.45455,387.6],[437.82114,387.87495],[438.14516,388.03696],[438.38505,388.24257],[438.58917,388.31547],[439.31818,388.49773],[439.36347,388.57699],[439.39066,388.58526],[439.82911,388.84833],[439.85387,388.85658],[440.03286,388.97049],[440.24232,389.00428],[441.51505,389.54973],[441.63475,389.6407],[441.78152,389.67332],[441.90613,389.73563],[442.11456,389.78773],[443.23607,390.03696],[443.36068,390.09926],[443.5,390.13409],[443.52786,390.18285],[443.64552,390.24168],[445.74037,390.93996],[446.34422,391.06073],[446.76226,391.25875],[447.22059,391.32125],[447.70345,391.5144],[448.1624,391.60619],[448.76595,391.89208],[449.41789,392.03696],[450.09315,392.37459],[450.91906,392.61056],[451.19759,392.77125],[451.51505,392.82246],[452.37321,393.19024],[452.76296,393.22022],[453.30841,393.40204],[453.54976,393.55562],[453.68182,393.58864],[453.72764,393.66882],[453.87184,393.76059],[454.33728,393.92681],[454.94478,394.12931],[455.24839,394.32252],[455.5997,394.40059],[456.37279,394.78713],[456.58114,394.85658],[456.79299,394.9914],[457.0531,394.92046],[457.604,395.251],[458.22727,395.40682],[458.28711,395.51153],[458.81193,395.62816],[459.1298,395.78709],[459.48289,395.82745],[460.93744,396.3729],[461.15724,396.52449],[461.41789,396.58241],[463.23607,397.4915],[463.38492,397.61909],[463.57248,397.67617],[465.39066,398.76708],[465.57627,398.95269],[465.81818,399.05455],[465.89634,399.11317],[466.2175,399.22022],[466.52112,399.41343],[466.87243,399.4915],[467.77732,399.94395],[468.35689,400.17578],[469.30841,400.49295],[469.61203,400.68616],[469.96334,400.76423],[470.63861,401.10186],[471.46451,401.33784],[471.60788,401.42054],[471.77259,401.43675],[474.02489,402.24114],[475.09352,402.47861],[476.46125,402.63058],[476.71894,402.7263],[476.99374,402.71907],[478.44266,403.04105],[480.79802,403.37753],[480.97958,403.4515],[481.17556,403.44634],[482.44001,403.72733],[484.78714,403.8838],[484.92791,403.92913],[485.07472,403.91134],[486.52926,404.09316],[486.66175,404.14444],[486.80352,404.1352],[488.35994,404.41818],[493.63217,404.41818],[494.9933,404.26695],[495.04424,404.27383],[495.09278,404.2569],[496.87056,404.09528],[498.43838,403.81022],[500.03073,403.37595],[501.83674,402.71922],[502.14504,402.6871],[502.42116,402.54623],[504.51687,402.0626],[507.70117,400.9481],[509.15113,400.30367],[509.58262,400.22816],[509.96914,400.02202],[511.72972,399.58187],[512.96931,399.03094],[513.21146,398.98857],[513.41886,398.85658],[514.71812,398.4235],[516.70472,397.4302],[518.71275,396.13932],[519.8893,395.10984],[520.06049,395.02205],[520.18182,394.87273],[522.36364,393.23636],[522.3985,393.22169],[522.42278,393.19268],[523.85096,392.154],[524.66268,391.11037],[525.61206,389.84453],[526.78169,388.00653],[526.98112,387.81733],[527.09566,387.56743],[527.26585,387.35469],[527.34749,387.10977],[527.84607,386.3263],[528.2498,385.48999],[528.61608,385.05046],[528.86381,384.38984],[528.96229,384.24704],[528.99362,384.07644],[529.81617,382.26683],[530.55023,380.21147],[530.84634,378.87898],[531.00527,378.56111],[531.04563,378.20802],[531.55858,376.84014],[531.88523,375.8602],[532.01297,374.32731],[532.18182,371.62572],[532.18182,364.39483],[532.03096,362.8862],[531.90462,361.87555],[531.64693,360.97361],[531.63539,360.62766],[531.5048,360.30711],[531.23468,358.41631],[530.94973,357.75142],[530.90379,357.46656],[530.75632,357.21856],[530.33487,355.81372],[530.16346,355.47089],[529.8281,355.13553],[529.72723,354.96742],[529.56735,354.85396],[528.47644,353.58123],[528.3649,353.35813],[528.17657,353.19459],[527.92573,352.83625],[527.89157,352.87041],[527.81447,352.99157],[527.80226,352.99401],[527.65395,353.29061],[527.13088,353.90087],[526.71735,354.59008],[526.56382,354.74361],[526.38123,355.1088],[526.08546,355.45386],[525.90909,355.87273],[524.81818,357.32727],[524.53887,357.55421],[524.35372,357.86281],[523.87771,358.33882],[523.54545,358.78182],[523.26615,359.00876],[523.08099,359.31735],[522.35372,360.04463],[522.11229,360.18948],[521.94166,360.41344],[521.24881,360.96771],[520.1719,362.04463],[519.48269,362.45815],[518.87243,362.98123],[518.42358,363.20565],[518.25261,363.31963],[518.24589,363.32467],[518.20975,363.50538],[517.66774,363.85029],[517.24963,364.33808],[516.86788,364.35929],[516.03568,364.88887],[515.96336,364.91298],[515.61003,365.24351],[514.58582,365.81252],[514.35372,366.04463],[513.92668,366.30085],[513.59168,366.66934],[512.50077,367.39662],[512.33503,367.45581],[512.20797,367.57758],[509.70869,369.00574],[508.88418,369.50044],[507.46818,370.38545],[507.23799,370.4601],[507.05425,370.61759],[505.96334,371.16305],[505.75623,371.20907],[505.58423,371.33329],[504.67514,371.69693],[504.57535,371.71054],[503.95532,372.12389],[503.22612,372.38432],[502.55542,372.77126],[501.72952,373.00723],[501.05425,373.34486],[500.70294,373.42293],[500.39932,373.61614],[499.39622,373.95051],[498.13632,374.42297],[497.23242,374.81036],[496.20797,375.39576],[496.07121,375.43423],[495.96334,375.52668],[492.45111,377.2828],[491.29888,377.94122],[491.16212,377.97968],[491.05425,378.07214],[489.5997,378.79941],[489.24839,378.87748],[488.94478,379.07069],[488.05117,379.36856],[486.9696,379.83209],[486.37465,379.92805],[485.82199,380.16833],[485.04297,380.29817],[483.52765,380.75277],[483.20715,380.76768],[482.9129,380.89561],[482.01896,381.0446],[480.87088,381.33162],[477.34583,382.38913],[477.22686,382.39467],[477.12177,382.45071],[474.93995,382.99617],[474.59902,382.99617],[474.27943,383.11487],[471.0067,383.47851],[470.90669,383.465],[470.81078,383.49638],[468.75299,383.64337],[467.22468,384.06018],[467.00433,384.06487],[466.80352,384.15571],[464.80352,384.51935],[464.59926,384.50603],[464.40661,384.57519],[462.58843,384.757],[462.33722,384.72024],[462.09091,384.78182],[443,384.78182],[442.65086,384.69453],[442.29289,384.73157],[441.37193,384.6],[440.45455,384.6],[439.67479,384.40506],[438.87341,384.34342],[437.78757,383.98147],[436.3655,383.85219],[436.05853,383.74511],[435.73353,383.75366],[434.32751,383.44121],[433.29369,383.31199],[433.35369,383.67195],[433.48708,384.2055],[433.48708,384.68067]],&quot;closed&quot;:true}]}" fill="#ffffff"/><path d="M230.93605,185.06842c0.09858,0.21425 0.70157,2.10391 0.92923,2.15213c0.68676,0.14546 0.66886,-1.23519 1.03578,-1.83367c0.26215,-0.42759 0.85101,-1.5152 1.51695,-2.60701l-0.18513,0.01322l-0.63905,0.17429l-0.09214,0.00196l-0.08397,0.03798l-0.83627,0.15205l-0.08541,-0.00557l-0.08056,0.02892l-0.76025,0.07602l-0.10504,-0.01537l-0.10299,0.02575h-1.46389c0.38582,0.61369 0.70298,1.25651 0.95274,1.7993zM243.80316,186.99988c0.21141,0.16522 0.0644,-0.5329 0.10783,-0.79767c0.14693,-0.89559 0.27505,-1.76686 0.3464,-2.667c0.07357,-0.92818 -0.0189,-2.23906 0.07585,-3.49737l-0.19133,0.09566l-0.48179,0.27531l-0.05718,0.01608l-0.0451,0.03866l-0.6082,0.3041l-0.1469,0.03264l-0.12695,0.08079l-0.37365,0.12455l-0.45224,0.19382l-0.24877,0.04012l-0.23109,0.10047l-0.32574,0.05429l-0.57472,0.17242c1.11911,1.71704 1.80937,4.24192 3.33357,5.43312zM251.53718,180.87577c0.3576,0.67384 0.89352,1.25468 1.22622,1.93135c0.16252,0.33055 0.41292,1.36712 0.46492,1.00247c0.25893,-1.81558 -0.72635,-5.03509 -0.98976,-7.64024l-0.88062,0.50321l-0.34476,0.20685l-0.59208,0.37005l-0.09625,0.03122l-0.07683,0.06585l-0.45615,0.22807l-0.0866,0.01924l-0.07192,0.05194l-0.25538,0.10215c0.93624,0.99673 1.71599,2.29267 2.15921,3.12782zM259.53698,174.08753c0.71774,-0.65818 0.53242,-1.87139 0.38066,-3.06074l-0.00682,-0.01365l-0.14022,-0.14022l-0.04218,-0.07029l-0.06685,-0.04744l-0.45615,-0.53217l-0.04664,-0.09329l-0.07875,-0.06839l-0.10488,-0.14983l-0.01429,0.01429l-0.03224,0.05066l-0.00511,0.00102l-0.06201,0.12402l-0.21872,0.25517l-0.17291,0.28818l-0.0642,0.0642l-0.07635,0.1527l-0.12367,0.14429l-0.07374,0.17514l-0.45615,0.6082l-0.11679,0.09489l-0.07742,0.12904l-0.19904,0.19904l-0.13893,0.18524l-0.11679,0.09489l-0.07742,0.12904l-0.16569,0.16569c1.37831,0.63964 2.56999,1.46844 2.75329,1.30035zM263.83854,168.80539c0.43096,0.43096 0.5905,1.33615 0.56339,2.43421l0.05706,0.14006l0.13185,0.92297l0.11282,0.39486l0.00543,0.16297l0.05886,0.15207l0.07602,0.6082l-0.00319,0.02633l0.00896,0.02496l0.07602,0.76025l-0.01537,0.10504l0.02575,0.10299v3.19304l-0.01619,0.06476l0.01212,0.06565l-0.07602,1.2164l-0.00674,0.02123l0.00359,0.02198l-0.07602,0.9123l-0.08083,0.23743l-0.01924,0.25008l-0.22807,0.68422l-0.02132,0.0335l-0.00451,0.03945l-0.17657,0.47084l-0.12023,0.54102l-0.05908,0.11816l-0.01293,0.13148l-0.38012,1.06435l-0.04948,0.07422l-0.01611,0.08774l-0.35076,0.77167l-0.20316,0.54176l-0.19904,0.28861l-0.15242,0.31572l-0.12758,0.1531l-0.0273,0.08191l-0.19754,0.31042l-0.15331,0.33449l-0.2335,0.29187l-0.4715,0.74092l-0.05947,0.05642l-0.03181,0.07555l-0.45615,0.6082l-0.01464,0.01189l-0.00762,0.01725l-0.53217,0.68422l-0.23166,0.18157l-0.18895,0.22568l-0.82384,0.59916l-0.83698,0.62773l-0.54891,0.4803l-0.1391,0.07133l-0.10707,0.1139l-1.06435,0.68422l-0.10856,0.03674l-0.08701,0.07458l-1.06435,0.53217l-0.1469,0.03264l-0.12695,0.08079l-0.58848,0.19616l-0.592,0.26311l-0.18042,0.03157l-0.16162,0.0862l-0.73616,0.18404l-0.51832,0.23036l-0.08573,0.015l-0.07272,0.04782l-1.5205,0.53217l-0.11641,0.0107l-0.10413,0.05313l-0.86393,0.19937l-0.7163,0.26047l-0.08758,0.00912l-0.0768,0.04308l-0.83627,0.22807l-0.09214,0.00196l-0.08397,0.03798l-0.83627,0.15205l-0.09491,-0.00619l-0.0898,0.03133l-0.81545,0.07413l-0.66345,0.07372l-0.11667,-0.01577l-0.11421,0.02855h-2.50882l-0.18436,-0.04609l-0.18963,0.01237l-0.77918,-0.14167l-0.49066,-0.06133l-1.08008,-0.07201l-0.15338,-0.04939l-0.16108,0.00424l-0.60584,-0.13463l-0.98486,-0.14069l-0.07592,-0.03093l-0.08195,0.00216l-0.5739,-0.12753l-0.5719,-0.06354l-0.10775,-0.04002l-0.1149,0.00302l-0.68422,-0.15205l-0.11816,-0.05908l-0.13148,-0.01293l-1.00061,-0.35736l-0.4671,-0.13346l-0.16955,-0.09782l-0.19108,-0.04246l-0.32325,-0.16163l-0.31519,-0.10506l-0.05304,-0.03375l-0.06229,-0.00849l-0.38012,-0.15205l-0.07192,-0.05194l-0.0866,-0.01924l-0.32325,-0.16163l-0.31519,-0.10506l-0.00062,-0.0004c-0.16834,-0.00342 -0.33892,-0.02582 -0.5117,-0.06901c-0.64076,-0.16019 -1.12261,-0.55289 -1.50672,-1.06633l-0.34935,-0.13101l-0.54102,-0.12023l-0.04618,-0.02309l-0.05466,0.01491l-0.42236,-0.25342l-0.0111,-0.00555l-0.05828,-0.01295l-0.07117,-0.00547l-0.09307,-0.03102l-0.02873,-0.00639l-0.01916,-0.00958l-0.08712,-0.02904l-0.00253,-0.00161l-0.00156,-0.00039l-0.00054,-0.00094l-0.12233,-0.07785l-0.1469,-0.03264l-0.32325,-0.16163l-0.31519,-0.10506l-0.23559,-0.14992l-0.19462,-0.06951l-0.02594,-0.00865l-0.00221,-0.00141l-0.04021,-0.01436l-0.00417,-0.00278l-0.26789,-0.04321l-0.20635,-0.08844l-0.01543,-0.00386l-0.00209,-0.00365l-0.18651,-0.07993l-0.40476,-0.11565l-0.16955,-0.09782l-0.19108,-0.04246l-0.20573,-0.10286l-0.10558,-0.02112l-0.1748,-0.0828l-0.19164,-0.02613l-0.2019,-0.08076l-0.1919,-0.03838l-0.11939,-0.05655l-0.13172,-0.01013l-1.14037,-0.38012l-0.12695,-0.08079l-0.1469,-0.03264l-0.0521,-0.02605l-0.08715,-0.02179l-0.46894,-0.10421l-0.0521,-0.02605l-0.05825,-0.01456l-0.01165,-0.02039l-0.12714,-0.06357l-0.39577,-0.16962l-0.14558,-0.04853l-0.19425,-0.12361l-0.22027,-0.06704l-0.18859,-0.11315l-0.31328,-0.07832l-0.03514,-0.0615l-0.07922,-0.02829l-0.11977,-0.07985l-0.18768,-0.09384l-0.14429,-0.12367l-0.17514,-0.07374l-0.08289,-0.06217l-0.12339,-0.04935l-0.13724,-0.09912l-0.16195,-0.04929l-0.38012,-0.22807l-0.18199,-0.18199l-0.16157,-0.09694l-0.2,-0.1l-0.1296,-0.11109l-0.10414,-0.00579l-0.26971,-0.31466l-0.27247,-0.23354l-0.07413,-0.01483l-0.14422,-0.22664l-0.20396,-0.17482l-0.00689,-0.12409l-0.02245,-0.02245l-0.22807,-0.38012l-0.07602,-0.07602l-0.21221,-0.35368l-0.13881,-0.07932l-0.06515,-0.26061l-0.13821,-0.23035l0.04206,-0.15424l-0.10004,-0.40014v-0.19877l-0.0136,-0.05441v-0.05326l-0.02916,-0.01666l-0.06515,-0.26061l-0.13821,-0.23035l0.04206,-0.15424l-0.10004,-0.40014v-1.74857l0.09041,-0.36164c-0.0095,-0.08086 -0.01439,-0.16314 -0.01439,-0.24656c0,-1.00488 0.70895,-1.84417 1.65397,-2.045l0.02351,-0.02104l0.06183,0.00476c0.11424,-0.01933 0.23164,-0.0294 0.35138,-0.0294c0.23355,0 0.45815,0.03829 0.66787,0.10895l0.05596,-0.00448l0.28547,0.04758h0.20709l0.14599,0.0365l0.14968,-0.01548l0.51402,0.07343l1.1982,0.14978l0.09374,0.03628l0.10048,-0.00264l0.55342,0.12298l0.70283,0.06389l0.2295,0.08006l0.24235,0.01864l0.36236,0.12079h0.1929l0.14599,0.0365l0.14968,-0.01548l0.38509,0.05501h7.72976l0.57304,-0.0573l0.66485,-0.12088l0.74909,-0.2043l0.20565,-0.00438l0.19549,-0.06398l1.02331,-0.07309l1.1878,-0.13198l0.72873,-0.18218l1.47395,-0.44219l0.04975,-0.00231l0.04394,-0.02344l0.6082,-0.15205h0.08521l0.07815,-0.03398l0.32574,-0.05429l0.63361,-0.19008l0.13401,-0.00623l0.12303,-0.05349l0.20775,-0.03463l0.30071,-0.12888l0.08758,-0.01413l0.07485,-0.04763l0.31519,-0.10506l0.4234,-0.2117l0.48179,-0.27531l0.05718,-0.01608l0.0451,-0.03866l1.46859,-0.7343l0.48179,-0.27531l0.11697,-0.0329l0.09674,-0.07352l0.53217,-0.22807l0.04879,-0.00787l0.04068,-0.02806l0.6082,-0.22807l0.03945,-0.00451l0.0335,-0.02132l0.31519,-0.10506l0.32325,-0.16163l0.19108,-0.04246l0.16955,-0.09782l0.21837,-0.06239l0.1846,-0.12307l0.26298,-0.09392l0.23559,-0.14992l0.16979,-0.0566l0.24234,-0.09694l0.28952,-0.14476l0.52397,-0.32748l0.01859,-0.00603l0.01382,-0.01382l0.38012,-0.22807l0.02187,-0.00666l0.01651,-0.01582l1.00183,-0.57247l0.22399,-0.14932l0.15772,-0.15772l0.25006,-0.15003l0.21296,-0.19922l0.68422,-0.38012l0.00809,-0.00217l0.2243,-0.19226l0.08428,-0.04214l0.05244,-0.06454l0.0466,-0.03495l0.03908,-0.04559l0.02345,-0.0013l0.19497,-0.14623l0.05475,-0.02305l0.03996,-0.04396l0.22807,-0.15205l0.12441,-0.04443l0.10031,-0.08598l0.00065,-0.00032l0.29227,-0.29227l0.10095,-0.06057l0.07135,-0.09364l0.28971,-0.23176l0.11716,-0.11716l0.13893,-0.18524l0.11679,-0.09489l0.07742,-0.12904l0.19904,-0.19904l0.25389,-0.33852l0.14377,-0.28753l0.21872,-0.25517l0.17291,-0.28818l0.0642,-0.0642l0.00032,-0.00065l0.12367,-0.14429l0.07374,-0.17514l0.22807,-0.3041l0.08331,-0.06769l0.07776,-0.21773l0.15205,-0.22807l0.01918,-0.01744l0.04308,-0.1723l0.13881,-0.07932l0.08948,-0.14914l0.01355,-0.03795l0.04743,-0.07114l0.01283,-0.03849l0.19865,-0.31217l-0.00436,-0.03123l0.04899,-0.0389l0.00876,-0.01376l0.05405,-0.21621l0.13127,-0.07501l0.14112,-0.22176l0.23876,-0.04775l0.1208,-0.21141l0.43039,-0.1076l0.47583,-0.37787l0.2295,0.0313l0.06167,-0.03524l0.10033,0.05733l0.67613,0.0922l0.32308,0.12923l0.04038,0.01346l0.02266,-0.00618l0.05149,0.03089l0.05527,0.01842l0.40528,0.25791l0.41192,0.24715l0.04119,0.04119l0.05066,0.03224l0.00461,0.02303l0.35969,0.35969l0.13242,0.2207l0.18199,0.18199l0.04585,0.07641l0.18405,0.15338l0.1642,0.2247l0.21013,0.18248l0.47344,0.67634l0.33155,0.38681c0.3948,0.20487 0.75307,0.53191 1.06018,0.83901zM258.6342,178.2869c-0.50194,-0.20708 -1.24916,-1.18304 -1.47577,-0.68961c-0.65889,1.43472 0.28067,5.02549 0.56538,8.16727l0.28391,-0.37854l0.48907,-0.76853l0.08339,-0.07911l0.04789,-0.10449l0.07117,-0.08896l0.03414,-0.10241l0.20847,-0.3276l0.16882,-0.34969l0.15315,-0.18378l0.10359,-0.27623l0.04118,-0.05971l0.0131,-0.07134l0.34394,-0.75667l0.30694,-0.85942l0.12381,-0.55716l0.06646,-0.13291l0.01687,-0.14764l0.21449,-0.57196l0.13658,-0.40975l0.05311,-0.63732c-0.7484,-0.0948 -1.54926,-0.40799 -2.04967,-0.61444zM250.03943,186.53404c-0.47026,-0.56459 -0.7043,-1.19677 -1.02245,-1.84679c-0.152,-0.31055 -0.412,-1.16433 -0.57822,-0.86115c-0.90302,1.64708 -0.34581,4.87873 -0.89802,7.13445l0.52565,-0.19115l0.12891,-0.01343l0.11545,-0.0589l0.87629,-0.20222l1.33147,-0.46602l0.60628,-0.26946l0.18042,-0.03157l0.16162,-0.0862l0.73616,-0.18404l0.20073,-0.08921c-0.95041,-1.01755 -1.82991,-2.19272 -2.36431,-2.83431zM239.89534,188.82987c-0.432,-0.69068 -0.86683,-1.35761 -1.31186,-2.03541c-0.25198,-0.38377 -0.48327,-1.53918 -0.7423,-1.16014c-0.64108,0.9381 -1.53195,2.85339 -2.63418,4.51186l0.15965,0.04562l0.05994,0.03458l0.06887,0.00677l0.94177,0.33635l0.44683,0.0993l0.5719,0.06354l0.10775,0.04002l0.1149,-0.00302l0.60584,0.13463l0.98486,0.14069l0.07592,0.03093l0.08195,-0.00216l0.52871,0.11749l0.98142,0.06543l0.05886,0.01895l0.06139,-0.00744l0.53264,0.06658c-0.70125,-0.87229 -1.27784,-1.83782 -1.69488,-2.50459zM226.70178,186.03052c-0.17632,-0.01489 -0.33544,0.1111 -0.48257,0.30777l0.21129,0.10564l0.34534,0.09867l0.11646,0.06719l0.13274,0.02141l0.13007,0.05574c-0.15555,-0.36437 -0.31637,-0.64487 -0.45333,-0.65643zM219.62594,183.45858l0.07127,0.04276l0.14022,0.14022l0.00065,0.00032l0.25517,0.21872l0.28818,0.17291l0.04608,0.04608l0.01578,0.00947l0.22458,0.08983l0.22367,0.16154l0.25428,0.10707l0.15329,0.11496l0.13548,0.06774l0.10031,0.08598l0.08535,0.03048l0.30483,0.07621l0.01894,0.03314l0.01137,0.00346l0.14023,0.08414c0.26551,-0.59505 0.65395,-1.17472 1.1083,-1.69913l-0.035,0.00362l-0.38509,-0.05501h-0.38359l-0.32604,-0.08151l-0.33509,-0.02578l-0.45403,-0.15134l-0.59462,-0.05406l-0.12836,-0.04478l-0.13589,0.00358l-0.58791,-0.13065l-0.43228,-0.05403l0.02509,0.15051l0.05577,0.2231v0.19869z" fill="#000000"/></g></g></svg>