<svg version="1.1" xmlns="http://www.w3.org/2000/svg" xmlns:xlink="http://www.w3.org/1999/xlink" width="43.4528" height="30.79132" viewBox="0,0,43.4528,30.79132"><g transform="translate(-218.2736,-165.09301)"><g data-paper-data="{&quot;isPaintingLayer&quot;:true}" fill-rule="nonzero" stroke="none" stroke-width="0.5" stroke-linecap="butt" stroke-linejoin="miter" stroke-miterlimit="10" stroke-dasharray="" stroke-dashoffset="0" style="mix-blend-mode: normal"><path d="M254.90489,188.78991l0.01297,0.01112l0.00806,0.00227zM254.82604,188.7392h-0.0176l0.05718,0.02859zM256.78469,187.12068l0.05566,-0.01113l0.04633,-0.04633v-0.71777l-0.03747,-0.14986l-0.01232,-0.02054l-0.05735,-0.09012l-0.24756,-0.24756l-0.03633,-0.02312l-0.13686,-0.05763l-0.03519,-0.0264h-0.91774l-0.50644,0.08441l-0.31922,0.09121l-0.05315,0.00177l-0.04877,0.0212l-0.09454,0.01576l-0.0194,0.01455l-0.21272,0.17018l-0.05751,0.05751l-0.02937,0.04405l0.00617,0.03085l-0.00438,0.09191l0.02232,0.08927v0.05939l0.07396,0.01849l0.20721,0.04605l0.02303,0.01151l0.02574,0.00644l0.00432,0.00756l0.08986,0.02995l0.02344,0.01491l0.02753,0.00375l0.23874,0.0955l0.29098,0.09699l0.09564,0.06086c0.055,0.00418 0.10865,0.01318 0.16054,0.02658l0.01338,-0.00365l0.02315,0.01389c0.05844,0.0177 0.11443,0.04102 0.16734,0.06936l0.02645,0.00661l0.00696,0.01218c0.05512,0.03253 0.10656,0.07062 0.15356,0.1135l0.09019,0.03608l0.1102,0.07959l0.06313,0.00351l0.00788,0.0092h0.36496l0.04,-0.01l0.20573,-0.08229l0.08468,-0.01155zM261.39896,185.82231l-0.04746,0.18983l-0.03054,0.15269v0.79901l0.11363,0.22725l0.01876,0.08443l0.04322,0.07492l0.10558,0.36952l0.00429,0.12878l0.03125,0.12501v0.26395l-0.04244,0.16974l-0.02364,0.17336l-0.10558,0.26395l-0.08496,0.11764l-0.06309,0.13068l-0.22362,0.26835l-0.75676,1.21081l-0.41791,0.67911l-0.31407,0.52344l-0.1158,0.1158l-0.09925,0.13027l-0.26395,0.21116l-0.0002,0.00009l-0.00532,0.01342l-0.21564,0.08785l-0.21167,0.09701l-0.01342,-0.00531l-0.00021,0.00008l-0.36952,0.05279l-0.11655,-0.01206l-0.11612,0.01569l-0.4751,-0.05279l-0.02039,-0.00758l-0.02167,0.00192l-1.00299,-0.15837l-0.01255,-0.00533l-0.01361,0.00081l-0.84462,-0.15837l-0.05018,-0.02303l-0.05512,-0.0032l-0.83959,-0.26237l-1.05073,-0.31522l-0.025,-0.01486l-0.02892,-0.00313l-1.00299,-0.36952l-0.00227,-0.00155l-0.00273,-0.00031l-0.84462,-0.31673l-0.09771,-0.06738l-0.11067,-0.04288l-0.86939,-0.61368l-0.23453,-0.14071l-0.12574,-0.12574l-0.13801,-0.11214l-0.63347,-0.84462l-0.02482,-0.05894l-0.04369,-0.0467l-0.26395,-0.4751l-0.02241,-0.08354l-0.04643,-0.07297l-0.31673,-0.9502l-0.01139,-0.14806l-0.03602,-0.14407v-0.89741l0.02758,-0.11033v-0.11372l0.10558,-0.42231l0.01705,-0.03196l0.00278,-0.03612l0.10558,-0.31673l0.0494,-0.07763l0.02491,-0.08857l0.21116,-0.36952l0.05038,-0.05257l0.03034,-0.06619l0.21116,-0.26395l0.07462,-0.05685l0.05535,-0.07574l0.31673,-0.26395l0.03166,-0.01528l0.0228,-0.02676l0.36952,-0.26395l0.09754,-0.03842l0.0841,-0.06259l0.62348,-0.25978l0.46521,-0.20676l0.13997,-0.0245l0.13321,-0.04948l0.4751,-0.05279l0.05155,0.00697l0.05047,-0.01262h1.53088l0.02862,0.00715l0.02901,-0.00535l0.84462,0.05279l0.06636,0.02107l0.06958,-0.00236l0.68459,0.1467l0.48348,0.04395h0.64435l0.04551,0.01138l0.04642,-0.00679l0.52789,0.05279l0.05615,0.02016l0.05965,-0.00109l0.68626,0.15837l0.01862,0.0095l0.0209,0.00054l0.9502,0.26395l0.07817,0.04433l0.08772,0.01949l0.49352,0.24676l0.22827,0.09131l0.03178,0.02295l0.03827,0.0085l0.10558,0.05279l0.01702,0.01459l0.35887,0.01994l0.02562,-0.00854l0.01222,0.01064l0.27025,0.01501l0.30986,0.3615l0.05279,0.10558l0.01905,0.08573l0.03789,0.033l0.00833,0.17501l0.03801,0.17104l-0.02787,0.04181l0.00418,0.08772l-0.05279,0.26395l-0.05282,0.11151l-0.02677,0.12045l-0.04346,0.08691l-0.02995,0.17971l-0.01501,0.03453z" fill="#4e0000"/><path d="M250.59656,186.15534c0,-0.33163 0.26884,-0.60048 0.60048,-0.60048c0.33163,0 0.60048,0.26884 0.60048,0.60048c0,0.33163 -0.26884,0.60048 -0.60048,0.60048c-0.33163,0 -0.60048,-0.26884 -0.60048,-0.60048z" fill="#000000"/><path d="M249.73434,186.15534c0.56016,0.32009 0.792,0.67984 0.90662,1.10209c0.12112,0.44618 0.11137,0.96216 0.21983,1.57489c0.02525,0.14261 0.15221,1.22531 0.27033,1.25675c0.76753,0.20434 1.70351,-0.56057 1.99627,0.75684c0.24757,1.11404 -1.0736,0.68126 -1.39219,0.99247c-0.354,0.34579 0.10135,0.93505 -0.54074,1.30196c-0.09366,0.05352 -0.84639,-0.00479 -0.92957,-0.05164c-0.67121,-0.37812 -1.293,-4.08737 -1.38625,-4.88203c-0.03893,-0.33177 -0.24683,-1.42132 0.05954,-1.59639z" fill="#4e0000"/><path d="M259.71147,188.61882c0.09725,-1.16223 1.378,-1.07087 1.80695,-0.27192c0.57864,1.07777 -0.06281,6.50965 -1.76621,6.55958c-0.72753,0.02133 -0.69655,-0.62857 -1.04214,-1.02065c-0.78539,-0.89102 -2.69315,-0.80512 -2.28836,-2.35444c0.20768,-0.79489 1.83184,-0.8942 2.42755,-0.75702c0.31366,0.07223 0.71733,0.55173 0.91783,0.29993c0.20275,-0.25462 0.12502,-0.8853 0.10131,-1.18075c-0.02458,-0.30617 -0.00421,-0.6667 -0.10269,-0.96215c-0.0351,-0.09763 -0.05423,-0.20288 -0.05423,-0.31259c0,-0.5102 0.4136,-0.92381 0.92381,-0.92381c0.5102,0 0.92381,0.4136 0.92381,0.92381c0,0.5102 -0.4136,0.92381 -0.92381,0.92381c-0.40049,0 -0.74146,-0.25485 -0.86958,-0.61122z" fill="#4e0000"/><path d="M258.26417,187.69501c0,-0.33164 0.26884,-0.60048 0.60048,-0.60048c0.33164,0 0.60048,0.26884 0.60048,0.60048c0,0.33164 -0.26884,0.60048 -0.60048,0.60048c-0.33164,0 -0.60048,-0.26884 -0.60048,-0.60048z" fill="#000000"/><path d="M252.32155,173.87324l0.01297,0.01111l0.00806,0.00227zM252.2427,173.82253h-0.0176l0.05719,0.02859zM254.20136,172.20401l0.05566,-0.01113l0.04633,-0.04633v-0.71777l-0.03746,-0.14987l-0.01232,-0.02053l-0.05735,-0.09013l-0.24756,-0.24756l-0.03633,-0.02311l-0.13687,-0.05763l-0.03519,-0.02639h-0.91774l-0.50644,0.08441l-0.31922,0.09121l-0.05315,0.00177l-0.04877,0.0212l-0.09453,0.01576l-0.0194,0.01454l-0.21272,0.17018l-0.05751,0.0575l-0.02937,0.04405l0.00618,0.03085l-0.00438,0.09191l0.02232,0.08927v0.05938l0.07395,0.01848l0.20721,0.04605l0.02302,0.01151l0.02574,0.00643l0.00432,0.00756l0.08986,0.02995l0.02344,0.01492l0.02752,0.00376l0.23873,0.09549l0.29099,0.09699l0.09564,0.06086c0.055,0.00419 0.10865,0.01318 0.16054,0.02658l0.01338,-0.00365l0.02315,0.01389c0.05844,0.0177 0.11444,0.04102 0.16735,0.06936l0.02644,0.00661l0.00696,0.01218c0.05512,0.03253 0.10656,0.07062 0.15356,0.1135l0.09019,0.03607l0.11021,0.07959l0.06313,0.00351l0.00788,0.0092h0.36496l0.04,-0.01l0.20574,-0.08229l0.08468,-0.01155zM258.81563,170.90564l-0.04746,0.18983l-0.03054,0.15269v0.79901l0.11363,0.22725l0.01877,0.08443l0.04323,0.07492l0.10557,0.36953l0.0043,0.12878l0.03125,0.125v0.26395l-0.04244,0.16974l-0.02364,0.17336l-0.10557,0.26395l-0.08496,0.11764l-0.06309,0.13068l-0.22363,0.26835l-0.75676,1.21081l-0.41791,0.6791l-0.31406,0.52345l-0.11581,0.1158l-0.09925,0.13027l-0.26395,0.21116l-0.0002,0.00009l-0.00532,0.01342l-0.21564,0.08785l-0.21167,0.09701l-0.01342,-0.00531l-0.00021,0.00009l-0.36952,0.05279l-0.11655,-0.01206l-0.11612,0.01569l-0.4751,-0.05279l-0.0204,-0.00758l-0.02167,0.00192l-1.00299,-0.15837l-0.01256,-0.00533l-0.01361,0.00081l-0.84462,-0.15837l-0.05019,-0.02303l-0.05512,-0.0032l-0.83958,-0.26237l-1.05072,-0.31521l-0.025,-0.01486l-0.02891,-0.00314l-1.00299,-0.36952l-0.00227,-0.00155l-0.00273,-0.00032l-0.84462,-0.31673l-0.09771,-0.06739l-0.11067,-0.04289l-0.86938,-0.61368l-0.23452,-0.14072l-0.12574,-0.12574l-0.13801,-0.11213l-0.63347,-0.84463l-0.02482,-0.05894l-0.04369,-0.0467l-0.26395,-0.4751l-0.02241,-0.08354l-0.04644,-0.07297l-0.31674,-0.9502l-0.01139,-0.14807l-0.03602,-0.14407v-0.89741l0.02758,-0.11033v-0.11372l0.10558,-0.42231l0.01705,-0.03196l0.00278,-0.03612l0.10558,-0.31673l0.0494,-0.07762l0.02491,-0.08858l0.21115,-0.36952l0.05038,-0.05257l0.03034,-0.06619l0.21115,-0.26395l0.07462,-0.05685l0.05534,-0.07574l0.31673,-0.26395l0.03166,-0.01529l0.0228,-0.02676l0.36952,-0.26395l0.09754,-0.03842l0.0841,-0.06259l0.62348,-0.25978l0.46521,-0.20676l0.13997,-0.02449l0.13321,-0.04948l0.4751,-0.05279l0.05155,0.00697l0.05047,-0.01262h1.53088l0.02862,0.00716l0.02901,-0.00536l0.84462,0.05279l0.06636,0.02106l0.06958,-0.00235l0.68459,0.14669l0.48348,0.04395h0.64435l0.04551,0.01138l0.04641,-0.0068l0.52789,0.05279l0.05615,0.02016l0.05965,-0.00109l0.68625,0.15837l0.01863,0.0095l0.0209,0.00054l0.9502,0.26395l0.07817,0.04433l0.08772,0.0195l0.49352,0.24676l0.22827,0.09131l0.03178,0.02295l0.03827,0.0085l0.10558,0.05279l0.01702,0.01459l0.35886,0.01993l0.02562,-0.00854l0.01222,0.01064l0.27024,0.01501l0.30986,0.3615l0.05279,0.10558l0.01905,0.08573l0.03789,0.033l0.00833,0.17502l0.03801,0.17104l-0.02787,0.04181l0.00418,0.08773l-0.05279,0.26395l-0.05282,0.11151l-0.02677,0.12045l-0.04345,0.08691l-0.02995,0.17972l-0.01502,0.03453z" fill="#4e0000"/><path d="M248.01322,171.23867c0,-0.33164 0.26884,-0.60047 0.60047,-0.60047c0.33164,0 0.60047,0.26884 0.60047,0.60047c0,0.33164 -0.26884,0.60048 -0.60047,0.60048c-0.33164,0 -0.60047,-0.26884 -0.60047,-0.60048z" fill="#000000"/><path d="M247.151,171.23867c0.56017,0.32009 0.792,0.67985 0.90662,1.1021c0.12112,0.44619 0.11137,0.96216 0.21983,1.57489c0.02525,0.14262 0.15221,1.22531 0.27033,1.25675c0.76753,0.20434 1.70351,-0.56058 1.99627,0.75683c0.24757,1.11405 -1.0736,0.68127 -1.39219,0.99248c-0.354,0.34579 0.10135,0.93505 -0.54075,1.30196c-0.09366,0.05352 -0.84639,-0.00479 -0.92956,-0.05165c-0.6712,-0.37812 -1.293,-4.08737 -1.38626,-4.88203c-0.03894,-0.33176 -0.24682,-1.42132 0.05955,-1.59639z" fill="#4e0000"/><path d="M257.12814,173.70216c0.09725,-1.16224 1.37801,-1.07087 1.80695,-0.27193c0.57864,1.07778 -0.06282,6.50965 -1.76621,6.55958c-0.72753,0.02132 -0.69655,-0.62857 -1.04215,-1.02065c-0.78539,-0.89103 -2.69315,-0.80512 -2.28836,-2.35444c0.20768,-0.79489 1.83184,-0.89419 2.42755,-0.75701c0.31366,0.07223 0.71733,0.55173 0.91782,0.29994c0.20275,-0.25463 0.12503,-0.8853 0.10131,-1.18076c-0.02458,-0.30617 -0.0042,-0.6667 -0.10269,-0.96214c-0.0351,-0.09763 -0.05423,-0.20288 -0.05423,-0.31259c0,-0.51021 0.4136,-0.92381 0.92381,-0.92381c0.51021,0 0.92381,0.4136 0.92381,0.92381c0,0.51021 -0.4136,0.92381 -0.92381,0.92381c-0.40049,0 -0.74146,-0.25485 -0.86958,-0.61122z" fill="#4e0000"/><path d="M255.68084,172.77835c0,-0.33164 0.26884,-0.60047 0.60047,-0.60047c0.33164,0 0.60048,0.26884 0.60048,0.60047c0,0.33164 -0.26884,0.60048 -0.60048,0.60048c-0.33163,0 -0.60047,-0.26884 -0.60047,-0.60048z" fill="#000000"/><path d="M239.65489,189.76724l0.01297,0.01111l0.00806,0.00227zM239.57604,189.71653h-0.0176l0.05719,0.02859zM241.53469,188.09801l0.05566,-0.01113l0.04633,-0.04633v-0.71777l-0.03746,-0.14987l-0.01232,-0.02053l-0.05735,-0.09013l-0.24756,-0.24756l-0.03633,-0.02311l-0.13687,-0.05763l-0.03519,-0.02639h-0.91774l-0.50644,0.08441l-0.31922,0.09121l-0.05315,0.00177l-0.04877,0.0212l-0.09453,0.01576l-0.0194,0.01454l-0.21272,0.17018l-0.05751,0.0575l-0.02937,0.04405l0.00618,0.03085l-0.00438,0.09191l0.02232,0.08927v0.05938l0.07395,0.01848l0.20721,0.04605l0.02302,0.01151l0.02574,0.00643l0.00432,0.00756l0.08986,0.02995l0.02344,0.01492l0.02752,0.00376l0.23873,0.09549l0.29099,0.09699l0.09564,0.06086c0.055,0.00419 0.10865,0.01318 0.16054,0.02658l0.01338,-0.00365l0.02315,0.01389c0.05844,0.0177 0.11444,0.04102 0.16735,0.06936l0.02644,0.00661l0.00696,0.01218c0.05512,0.03253 0.10656,0.07062 0.15356,0.1135l0.09019,0.03607l0.11021,0.07959l0.06313,0.00351l0.00788,0.0092h0.36496l0.04,-0.01l0.20574,-0.08229l0.08468,-0.01155zM246.14896,186.79964l-0.04746,0.18983l-0.03054,0.15269v0.79901l0.11362,0.22725l0.01877,0.08443l0.04323,0.07492l0.10557,0.36953l0.0043,0.12878l0.03125,0.125v0.26395l-0.04244,0.16974l-0.02364,0.17336l-0.10557,0.26395l-0.08496,0.11764l-0.06309,0.13068l-0.22362,0.26835l-0.75676,1.21081l-0.41791,0.6791l-0.31406,0.52345l-0.11581,0.1158l-0.09925,0.13027l-0.26395,0.21116l-0.0002,0.00009l-0.00532,0.01342l-0.21563,0.08785l-0.21167,0.09701l-0.01342,-0.00531l-0.00021,0.00009l-0.36952,0.05279l-0.11655,-0.01206l-0.11612,0.01569l-0.4751,-0.05279l-0.0204,-0.00758l-0.02167,0.00192l-1.00299,-0.15837l-0.01256,-0.00533l-0.01361,0.00081l-0.84462,-0.15837l-0.05019,-0.02303l-0.05512,-0.0032l-0.83958,-0.26237l-1.05072,-0.31521l-0.025,-0.01486l-0.02891,-0.00314l-1.00299,-0.36952l-0.00227,-0.00155l-0.00273,-0.00032l-0.84462,-0.31673l-0.09771,-0.06739l-0.11067,-0.04289l-0.86938,-0.61368l-0.23452,-0.14072l-0.12574,-0.12574l-0.13801,-0.11213l-0.63347,-0.84463l-0.02482,-0.05894l-0.04369,-0.0467l-0.26395,-0.4751l-0.02241,-0.08354l-0.04644,-0.07297l-0.31674,-0.9502l-0.01139,-0.14807l-0.03602,-0.14407v-0.89741l0.02758,-0.11033v-0.11372l0.10558,-0.42231l0.01705,-0.03196l0.00278,-0.03612l0.10558,-0.31673l0.0494,-0.07762l0.02491,-0.08858l0.21115,-0.36952l0.05038,-0.05257l0.03034,-0.06619l0.21115,-0.26395l0.07462,-0.05685l0.05534,-0.07574l0.31673,-0.26395l0.03166,-0.01529l0.0228,-0.02676l0.36952,-0.26395l0.09754,-0.03842l0.0841,-0.06259l0.62348,-0.25978l0.46521,-0.20676l0.13997,-0.02449l0.13321,-0.04948l0.4751,-0.05279l0.05155,0.00697l0.05047,-0.01262h1.53088l0.02862,0.00716l0.02901,-0.00536l0.84462,0.05279l0.06636,0.02106l0.06958,-0.00235l0.68459,0.14669l0.48348,0.04395h0.64435l0.04551,0.01138l0.04641,-0.0068l0.52789,0.05279l0.05615,0.02016l0.05965,-0.00109l0.68625,0.15837l0.01863,0.0095l0.0209,0.00054l0.95021,0.26395l0.07816,0.04433l0.08772,0.0195l0.49352,0.24676l0.22827,0.09131l0.03178,0.02295l0.03827,0.0085l0.10557,0.05279l0.01702,0.01459l0.35887,0.01993l0.02561,-0.00854l0.01222,0.01064l0.27024,0.01501l0.30986,0.3615l0.05279,0.10558l0.01905,0.08573l0.03789,0.033l0.00833,0.17502l0.03801,0.17104l-0.02787,0.04181l0.00418,0.08773l-0.05279,0.26395l-0.05282,0.11151l-0.02677,0.12045l-0.04345,0.08691l-0.02996,0.17972l-0.01502,0.03453z" fill="#4e0000"/><path d="M235.34656,187.13267c0,-0.33164 0.26884,-0.60047 0.60047,-0.60047c0.33164,0 0.60047,0.26884 0.60047,0.60047c0,0.33164 -0.26884,0.60048 -0.60047,0.60048c-0.33164,0 -0.60047,-0.26884 -0.60047,-0.60048z" fill="#000000"/><path d="M234.48434,187.13267c0.56017,0.32009 0.792,0.67985 0.90662,1.1021c0.12112,0.44619 0.11137,0.96216 0.21983,1.57489c0.02525,0.14262 0.15221,1.22531 0.27033,1.25675c0.76753,0.20434 1.70351,-0.56058 1.99627,0.75683c0.24757,1.11405 -1.0736,0.68127 -1.39219,0.99248c-0.354,0.34579 0.10135,0.93505 -0.54075,1.30196c-0.09366,0.05352 -0.84639,-0.00479 -0.92956,-0.05165c-0.6712,-0.37812 -1.293,-4.08737 -1.38626,-4.88203c-0.03894,-0.33176 -0.24682,-1.42132 0.05955,-1.59639z" fill="#4e0000"/><path d="M244.46147,189.59616c0.09724,-1.16224 1.37801,-1.07087 1.80695,-0.27193c0.57864,1.07778 -0.06282,6.50965 -1.76621,6.55958c-0.72753,0.02132 -0.69655,-0.62857 -1.04215,-1.02065c-0.78539,-0.89103 -2.69315,-0.80512 -2.28836,-2.35444c0.20768,-0.79489 1.83184,-0.89419 2.42755,-0.75701c0.31366,0.07223 0.71733,0.55173 0.91782,0.29994c0.20275,-0.25463 0.12503,-0.8853 0.10131,-1.18076c-0.02457,-0.30617 -0.0042,-0.6667 -0.10269,-0.96214c-0.0351,-0.09763 -0.05423,-0.20288 -0.05423,-0.31259c0,-0.51021 0.4136,-0.92381 0.92381,-0.92381c0.51021,0 0.92381,0.4136 0.92381,0.92381c0,0.51021 -0.4136,0.92381 -0.92381,0.92381c-0.40049,0 -0.74146,-0.25485 -0.86958,-0.61122z" fill="#4e0000"/><path d="M243.01417,188.67235c0,-0.33164 0.26884,-0.60047 0.60048,-0.60047c0.33164,0 0.60047,0.26884 0.60047,0.60047c0,0.33164 -0.26884,0.60048 -0.60047,0.60048c-0.33164,0 -0.60048,-0.26884 -0.60048,-0.60048z" fill="#000000"/><path d="M235.07155,171.26724l0.01297,0.01111l0.00806,0.00227zM234.9927,171.21653h-0.0176l0.05719,0.02859zM236.95136,169.59801l0.05566,-0.01113l0.04633,-0.04633v-0.71777l-0.03746,-0.14987l-0.01232,-0.02053l-0.05735,-0.09013l-0.24756,-0.24756l-0.03633,-0.02311l-0.13687,-0.05763l-0.03519,-0.02639h-0.91774l-0.50644,0.08441l-0.31922,0.09121l-0.05315,0.00177l-0.04877,0.0212l-0.09453,0.01576l-0.0194,0.01454l-0.21272,0.17018l-0.05751,0.0575l-0.02937,0.04405l0.00618,0.03085l-0.00438,0.09191l0.02232,0.08927v0.05938l0.07395,0.01848l0.20721,0.04605l0.02302,0.01151l0.02574,0.00643l0.00432,0.00756l0.08986,0.02995l0.02344,0.01492l0.02752,0.00376l0.23873,0.09549l0.29099,0.09699l0.09564,0.06086c0.055,0.00419 0.10865,0.01318 0.16054,0.02658l0.01338,-0.00365l0.02315,0.01389c0.05844,0.0177 0.11444,0.04102 0.16735,0.06936l0.02644,0.00661l0.00696,0.01218c0.05512,0.03253 0.10656,0.07062 0.15356,0.1135l0.09019,0.03607l0.11021,0.07959l0.06313,0.00351l0.00788,0.0092h0.36496l0.04,-0.01l0.20574,-0.08229l0.08468,-0.01155zM241.56563,168.29964l-0.04746,0.18983l-0.03054,0.15269v0.79901l0.11362,0.22725l0.01877,0.08443l0.04323,0.07492l0.10557,0.36953l0.0043,0.12878l0.03125,0.125v0.26395l-0.04244,0.16974l-0.02364,0.17336l-0.10557,0.26395l-0.08496,0.11764l-0.06309,0.13068l-0.22362,0.26835l-0.75676,1.21081l-0.41791,0.6791l-0.31406,0.52345l-0.11581,0.1158l-0.09925,0.13027l-0.26395,0.21116l-0.0002,0.00009l-0.00532,0.01342l-0.21563,0.08785l-0.21167,0.09701l-0.01342,-0.00531l-0.00021,0.00009l-0.36952,0.05279l-0.11655,-0.01206l-0.11612,0.01569l-0.4751,-0.05279l-0.0204,-0.00758l-0.02167,0.00192l-1.00299,-0.15837l-0.01256,-0.00533l-0.01361,0.00081l-0.84462,-0.15837l-0.05019,-0.02303l-0.05512,-0.0032l-0.83958,-0.26237l-1.05072,-0.31521l-0.025,-0.01486l-0.02891,-0.00314l-1.00299,-0.36952l-0.00227,-0.00155l-0.00273,-0.00032l-0.84462,-0.31673l-0.09771,-0.06739l-0.11067,-0.04289l-0.86938,-0.61368l-0.23452,-0.14072l-0.12574,-0.12574l-0.13801,-0.11213l-0.63347,-0.84463l-0.02482,-0.05894l-0.04369,-0.0467l-0.26395,-0.4751l-0.02241,-0.08354l-0.04644,-0.07297l-0.31674,-0.9502l-0.01139,-0.14807l-0.03602,-0.14407v-0.89741l0.02758,-0.11033v-0.11372l0.10558,-0.42231l0.01705,-0.03196l0.00278,-0.03612l0.10558,-0.31673l0.0494,-0.07762l0.02491,-0.08858l0.21115,-0.36952l0.05038,-0.05257l0.03034,-0.06619l0.21115,-0.26395l0.07462,-0.05685l0.05534,-0.07574l0.31673,-0.26395l0.03166,-0.01529l0.0228,-0.02676l0.36952,-0.26395l0.09754,-0.03842l0.0841,-0.06259l0.62348,-0.25978l0.46521,-0.20676l0.13997,-0.02449l0.13321,-0.04948l0.4751,-0.05279l0.05155,0.00697l0.05047,-0.01262h1.53088l0.02862,0.00716l0.02901,-0.00536l0.84462,0.05279l0.06636,0.02106l0.06958,-0.00235l0.68459,0.14669l0.48348,0.04395h0.64435l0.04551,0.01138l0.04641,-0.0068l0.52789,0.05279l0.05615,0.02016l0.05965,-0.00109l0.68625,0.15837l0.01863,0.0095l0.0209,0.00054l0.95021,0.26395l0.07816,0.04433l0.08772,0.0195l0.49352,0.24676l0.22827,0.09131l0.03178,0.02295l0.03827,0.0085l0.10557,0.05279l0.01702,0.01459l0.35887,0.01993l0.02561,-0.00854l0.01222,0.01064l0.27024,0.01501l0.30986,0.3615l0.05279,0.10558l0.01905,0.08573l0.03789,0.033l0.00833,0.17502l0.03801,0.17104l-0.02787,0.04181l0.00418,0.08773l-0.05279,0.26395l-0.05282,0.11151l-0.02677,0.12045l-0.04345,0.08691l-0.02996,0.17972l-0.01502,0.03453z" fill="#4e0000"/><path d="M230.76322,168.63267c0,-0.33164 0.26884,-0.60047 0.60047,-0.60047c0.33164,0 0.60047,0.26884 0.60047,0.60047c0,0.33164 -0.26884,0.60048 -0.60047,0.60048c-0.33164,0 -0.60047,-0.26884 -0.60047,-0.60048z" fill="#000000"/><path d="M229.901,168.63267c0.56017,0.32009 0.792,0.67985 0.90662,1.1021c0.12112,0.44619 0.11137,0.96216 0.21983,1.57489c0.02525,0.14262 0.15221,1.22531 0.27033,1.25675c0.76753,0.20434 1.70351,-0.56058 1.99627,0.75683c0.24757,1.11405 -1.0736,0.68127 -1.39219,0.99248c-0.354,0.34579 0.10135,0.93505 -0.54075,1.30196c-0.09366,0.05352 -0.84639,-0.00479 -0.92956,-0.05165c-0.6712,-0.37812 -1.293,-4.08737 -1.38626,-4.88203c-0.03894,-0.33176 -0.24682,-1.42132 0.05955,-1.59639z" fill="#4e0000"/><path d="M239.87814,171.09616c0.09724,-1.16224 1.37801,-1.07087 1.80695,-0.27193c0.57864,1.07778 -0.06282,6.50965 -1.76621,6.55958c-0.72753,0.02132 -0.69655,-0.62857 -1.04215,-1.02065c-0.78539,-0.89103 -2.69315,-0.80512 -2.28836,-2.35444c0.20768,-0.79489 1.83184,-0.89419 2.42755,-0.75701c0.31366,0.07223 0.71733,0.55173 0.91782,0.29994c0.20275,-0.25463 0.12503,-0.8853 0.10131,-1.18076c-0.02457,-0.30617 -0.0042,-0.6667 -0.10269,-0.96214c-0.0351,-0.09763 -0.05423,-0.20288 -0.05423,-0.31259c0,-0.51021 0.4136,-0.92381 0.92381,-0.92381c0.51021,0 0.92381,0.4136 0.92381,0.92381c0,0.51021 -0.4136,0.92381 -0.92381,0.92381c-0.40049,0 -0.74146,-0.25485 -0.86958,-0.61122z" fill="#4e0000"/><path d="M238.43084,170.17235c0,-0.33164 0.26884,-0.60047 0.60048,-0.60047c0.33164,0 0.60047,0.26884 0.60047,0.60047c0,0.33164 -0.26884,0.60048 -0.60047,0.60048c-0.33164,0 -0.60048,-0.26884 -0.60048,-0.60048z" fill="#000000"/><path d="M224.40489,182.37324l0.01297,0.01111l0.00806,0.00227zM224.32604,182.32253h-0.0176l0.05719,0.02859zM226.28469,180.70401l0.05566,-0.01113l0.04633,-0.04633v-0.71777l-0.03746,-0.14987l-0.01232,-0.02053l-0.05735,-0.09013l-0.24756,-0.24756l-0.03633,-0.02311l-0.13687,-0.05763l-0.03519,-0.02639h-0.91774l-0.50644,0.08441l-0.31922,0.09121l-0.05315,0.00177l-0.04877,0.0212l-0.09453,0.01576l-0.0194,0.01454l-0.21272,0.17018l-0.05751,0.0575l-0.02937,0.04405l0.00618,0.03085l-0.00438,0.09191l0.02232,0.08927v0.05938l0.07395,0.01848l0.20721,0.04605l0.02302,0.01151l0.02574,0.00643l0.00432,0.00756l0.08986,0.02995l0.02344,0.01492l0.02752,0.00376l0.23873,0.09549l0.29099,0.09699l0.09564,0.06086c0.055,0.00419 0.10865,0.01318 0.16054,0.02658l0.01338,-0.00365l0.02315,0.01389c0.05844,0.0177 0.11444,0.04102 0.16735,0.06936l0.02644,0.00661l0.00696,0.01218c0.05512,0.03253 0.10656,0.07062 0.15356,0.1135l0.09019,0.03607l0.11021,0.07959l0.06313,0.00351l0.00788,0.0092h0.36496l0.04,-0.01l0.20574,-0.08229l0.08468,-0.01155zM230.89896,179.40564l-0.04746,0.18983l-0.03054,0.15269v0.79901l0.11362,0.22725l0.01877,0.08443l0.04323,0.07492l0.10557,0.36953l0.0043,0.12878l0.03125,0.125v0.26395l-0.04244,0.16974l-0.02364,0.17336l-0.10557,0.26395l-0.08496,0.11764l-0.06309,0.13068l-0.22362,0.26835l-0.75676,1.21081l-0.41791,0.6791l-0.31406,0.52345l-0.11581,0.1158l-0.09925,0.13027l-0.26395,0.21116l-0.0002,0.00009l-0.00532,0.01342l-0.21563,0.08785l-0.21167,0.09701l-0.01342,-0.00531l-0.00021,0.00009l-0.36952,0.05279l-0.11655,-0.01206l-0.11612,0.01569l-0.4751,-0.05279l-0.0204,-0.00758l-0.02167,0.00192l-1.00299,-0.15837l-0.01256,-0.00533l-0.01361,0.00081l-0.84462,-0.15837l-0.05019,-0.02303l-0.05512,-0.0032l-0.83958,-0.26237l-1.05072,-0.31521l-0.025,-0.01486l-0.02891,-0.00314l-1.00299,-0.36952l-0.00227,-0.00155l-0.00273,-0.00032l-0.84462,-0.31673l-0.09771,-0.06739l-0.11067,-0.04289l-0.86938,-0.61368l-0.23452,-0.14072l-0.12574,-0.12574l-0.13801,-0.11213l-0.63347,-0.84463l-0.02482,-0.05894l-0.04369,-0.0467l-0.26395,-0.4751l-0.02241,-0.08354l-0.04644,-0.07297l-0.31674,-0.9502l-0.01139,-0.14807l-0.03602,-0.14407v-0.89741l0.02758,-0.11033v-0.11372l0.10558,-0.42231l0.01705,-0.03196l0.00278,-0.03612l0.10558,-0.31673l0.0494,-0.07762l0.02491,-0.08858l0.21115,-0.36952l0.05038,-0.05257l0.03034,-0.06619l0.21115,-0.26395l0.07462,-0.05685l0.05534,-0.07574l0.31673,-0.26395l0.03166,-0.01529l0.0228,-0.02676l0.36952,-0.26395l0.09754,-0.03842l0.0841,-0.06259l0.62348,-0.25978l0.46521,-0.20676l0.13997,-0.02449l0.13321,-0.04948l0.4751,-0.05279l0.05155,0.00697l0.05047,-0.01262h1.53088l0.02862,0.00716l0.02901,-0.00536l0.84462,0.05279l0.06636,0.02106l0.06958,-0.00235l0.68459,0.14669l0.48348,0.04395h0.64435l0.04551,0.01138l0.04641,-0.0068l0.52789,0.05279l0.05615,0.02016l0.05965,-0.00109l0.68625,0.15837l0.01863,0.0095l0.0209,0.00054l0.95021,0.26395l0.07816,0.04433l0.08772,0.0195l0.49352,0.24676l0.22827,0.09131l0.03178,0.02295l0.03827,0.0085l0.10557,0.05279l0.01702,0.01459l0.35887,0.01993l0.02561,-0.00854l0.01222,0.01064l0.27024,0.01501l0.30986,0.3615l0.05279,0.10558l0.01905,0.08573l0.03789,0.033l0.00833,0.17502l0.03801,0.17104l-0.02787,0.04181l0.00418,0.08773l-0.05279,0.26395l-0.05282,0.11151l-0.02677,0.12045l-0.04345,0.08691l-0.02996,0.17972l-0.01502,0.03453z" fill="#4e0000"/><path d="M220.09656,179.73867c0,-0.33164 0.26884,-0.60047 0.60047,-0.60047c0.33164,0 0.60047,0.26884 0.60047,0.60047c0,0.33164 -0.26884,0.60048 -0.60047,0.60048c-0.33164,0 -0.60047,-0.26884 -0.60047,-0.60048z" fill="#000000"/><path d="M219.23434,179.73867c0.56017,0.32009 0.792,0.67985 0.90662,1.1021c0.12112,0.44619 0.11137,0.96216 0.21983,1.57489c0.02525,0.14262 0.15221,1.22531 0.27033,1.25675c0.76753,0.20434 1.70351,-0.56058 1.99627,0.75683c0.24757,1.11405 -1.0736,0.68127 -1.39219,0.99248c-0.354,0.34579 0.10135,0.93505 -0.54075,1.30196c-0.09366,0.05352 -0.84639,-0.00479 -0.92956,-0.05165c-0.6712,-0.37812 -1.293,-4.08737 -1.38626,-4.88203c-0.03894,-0.33176 -0.24682,-1.42132 0.05955,-1.59639z" fill="#4e0000"/><path d="M229.21147,182.20216c0.09724,-1.16224 1.37801,-1.07087 1.80695,-0.27193c0.57864,1.07778 -0.06282,6.50965 -1.76621,6.55958c-0.72753,0.02132 -0.69655,-0.62857 -1.04215,-1.02065c-0.78539,-0.89103 -2.69315,-0.80512 -2.28836,-2.35444c0.20768,-0.79489 1.83184,-0.89419 2.42755,-0.75701c0.31366,0.07223 0.71733,0.55173 0.91782,0.29994c0.20275,-0.25463 0.12503,-0.8853 0.10131,-1.18076c-0.02457,-0.30617 -0.0042,-0.6667 -0.10269,-0.96214c-0.0351,-0.09763 -0.05423,-0.20288 -0.05423,-0.31259c0,-0.51021 0.4136,-0.92381 0.92381,-0.92381c0.51021,0 0.92381,0.4136 0.92381,0.92381c0,0.51021 -0.4136,0.92381 -0.92381,0.92381c-0.40049,0 -0.74146,-0.25485 -0.86958,-0.61122z" fill="#4e0000"/><path d="M227.76417,181.27835c0,-0.33164 0.26884,-0.60047 0.60048,-0.60047c0.33164,0 0.60047,0.26884 0.60047,0.60047c0,0.33164 -0.26884,0.60048 -0.60047,0.60048c-0.33164,0 -0.60048,-0.26884 -0.60048,-0.60048z" fill="#000000"/></g></g></svg>