<svg version="1.1" xmlns="http://www.w3.org/2000/svg" xmlns:xlink="http://www.w3.org/1999/xlink" width="46.53107" height="35.35261" viewBox="0,0,46.53107,35.35261"><g transform="translate(-216.73446,-162.32369)"><g stroke="none" stroke-width="0.5" stroke-miterlimit="10"><path d="M220.62858,183.21033c-0.03291,-1.34415 -0.82194,-3.35175 0.34546,-4.01883c0.05502,-0.09323 0.11593,-0.18258 0.1822,-0.26754c-0.641,-3.06766 -0.9364,-5.93683 -0.70302,-7.44497c0.94178,-6.08587 7.32446,-1.54189 10.5862,-2.62894c3.37996,-1.12645 6.81832,-2.90906 10.46416,-2.76472c1.39738,0.05532 2.69902,2.05928 3.75245,1.875c4.85341,-0.84902 5.96748,-4.44594 9.68505,1.75c1.5106,2.51766 0.16877,6.05009 0.86712,8.84349c0.62559,0.17632 1.15169,0.59 1.47492,1.13768c1.17573,0.67185 2.08345,5.95387 1.69177,6.54138c-1.00821,1.51232 -3.58539,1.74633 -5.15,2.2877c-0.91597,0.31693 -0.56539,3.27207 -2.05956,4.01988c-3.65806,1.8308 -4.57047,-0.87156 -7.60606,-0.83013c-2.57476,0.03514 -3.11288,2.74995 -8.94169,2.09098c-1.73344,-0.19597 -4.55781,-0.82646 -5.84711,-2.18856c-0.01185,-0.01252 -0.70142,-0.89462 -0.73132,-0.89248c-1.00104,0.0717 -1.52723,0.21939 -2.24588,-0.14979c-2.16977,0.03317 -5.69672,-4.58401 -5.76469,-7.36016z" fill="#9e4529"/><path d="M256.94539,169.11231c1.66698,1.34711 2.98628,5.08689 3.4332,7.09801c0.21719,0.97735 -1.50353,2.34479 -0.68688,2.92397c2.59355,1.8394 4.30713,5.35566 3.26333,8.69132c-1.04181,3.3293 -3.28055,3.51914 -6.14705,3.75971c-1.20313,0.10097 -1.57281,4.35226 -3.17767,4.75347c-2.84972,0.71243 -5.15845,-0.21317 -7.85807,-0.95311c-0.05827,-0.01597 -0.27138,-0.14642 -0.33585,-0.10868c-3.16975,1.85555 -5.98601,3.05846 -9.7981,2.00977c-1.29241,-0.35553 -2.81036,-1.97099 -4.05828,-2.0261c-5.08714,-0.22465 -6.11433,-1.20878 -8.92927,-4.89137c-0.43029,-0.56292 -1.91133,-1.8436 -2.08465,-2.40899c-0.8773,-2.8618 -4.52819,-8.37299 0.0625,-9.625c0.53125,-0.14489 2.92808,1.43674 3.11107,1.75697c1.39756,2.44573 1.0509,8.42073 4.72305,9.80251c1.32767,0.49959 11.42349,2.80146 12.09805,2.5613c1.58219,-0.56331 2.52741,-2.19024 4.19283,-2.37077c0.87015,-0.09433 5.97473,1.97291 6.32204,1.5c0.93875,-1.27827 1.3898,-2.89439 2.55036,-4.05496c1.09554,-1.09554 3.98087,0.30546 4.5026,-1.15337c0.94375,-2.63883 -2.84547,-3.80594 -3.74671,-5.7511c-0.60754,-1.31126 -0.03267,-3.0127 0.97294,-3.96719c0.24148,-0.22921 -1.72013,-3.49305 -2.19156,-4.4137c-0.01561,-0.02975 -0.03063,-0.05986 -0.04506,-0.0903c-0.15366,-0.32421 -0.23961,-0.68676 -0.23961,-1.06938c0,-1.38071 1.11929,-2.5 2.5,-2.5c0.23984,0 0.47179,0.03377 0.69135,0.09682c0.30689,0.07137 0.60436,0.21109 0.87545,0.43016z" fill="#752d16"/><path d="M249.82324,167.33533c-0.64123,-0.07176 -1.9465,2.77114 -3.31966,3c-2.53153,0.42192 -4.38238,-2.31808 -6.65706,-2.31388c-1.37322,0.00253 -5.10751,3.13836 -7.9916,3.30362c-0.14442,0.00828 -0.28962,0.01126 -0.43395,0.00163c-0.66433,-0.04432 -8.16237,-0.44188 -8.50886,0.64275c-0.58926,1.84457 0.79141,4.08318 0.37028,6.05269c-0.18178,0.85012 -1.7617,2.84338 -1.65077,3.64652c0.16908,1.22421 2.16854,2.63145 1.23303,4.03472c-2.06492,3.09739 -5.35525,0.09256 -5.97214,-2.375c-0.72648,-2.9059 1.27523,-3.8934 1.48607,-6.34317c0.2551,-2.96405 -1.90166,-6.64136 0.73825,-9.10499c3.55518,-3.31778 10.44451,-0.23303 14.19338,-1.71933c2.18589,-0.86663 3.74748,-2.90935 6.19337,-3.20055c1.80293,-0.21465 4.37978,2.39165 5.66886,2.01243c1.63303,-0.4804 1.90519,-2.48617 4.20614,-2.63743c2.64686,-0.174 4.39602,1.6389 6.54448,2.98336c0.11486,0.07188 0.68428,0.31213 1.2438,0.55064c0.43472,0.07232 0.83151,0.2568 1.15962,0.52271c0.56557,0.45834 0.92709,1.1586 0.92709,1.94329c0,1.38071 -1.11929,2.5 -2.5,2.5c-0.0142,0 -0.02837,-0.00012 -0.04252,-0.00035c-2.23097,0.83502 -3.41508,-3.11102 -6.88782,-3.49965z" fill="#b9705a"/><path d="M218.7603,183.63082c0,-1.65686 1.34314,-3 3,-3c1.65686,0 3,1.34314 3,3c0,1.65686 -1.34314,3 -3,3c-1.65686,0 -3,-1.34314 -3,-3z" fill="#ffc96c"/><path d="M222.33173,182.41653c0.82843,0 1.5,0.67157 1.5,1.5c0,0.0541 -0.00286,0.10753 -0.00845,0.16015c0.00845,0.07807 0.00845,0.12556 0.00845,0.12556l-0.03149,0.02152c-0.14176,0.68106 -0.74538,1.19276 -1.46851,1.19276c-0.08414,0 -0.16667,-0.00693 -0.24704,-0.02025l-0.74072,0.50625c-0.38095,-0.33333 -0.7619,-0.66667 -1.14286,-1c0,0 -1.12887,-0.98776 -0.14111,-2.11662c0.70247,-0.80282 1.4763,-0.53512 1.86471,-0.31351c0.12943,-0.0364 0.26595,-0.05588 0.40701,-0.05588z" fill="#ffd184"/></g></g></svg>