<svg version="1.1" xmlns="http://www.w3.org/2000/svg" xmlns:xlink="http://www.w3.org/1999/xlink" width="17.95096" height="19.45915" viewBox="0,0,17.95096,19.45915"><defs><radialGradient cx="240.00001" cy="180" r="8.3379" gradientUnits="userSpaceOnUse" id="color-1"><stop offset="0" stop-color="#ffffff"/><stop offset="1" stop-color="#b37046"/></radialGradient></defs><g transform="translate(-230.59524,-170.50075)"><g stroke="none" stroke-width="0.5" stroke-miterlimit="10"><path d="M240.86018,186.85071c0.0964,0.92886 -0.86444,1.24915 -0.86444,1.24915c-10.35139,2.86377 -10.46812,-21.16573 0.86251,-15.59722c1.63014,0.80114 2.57023,1.38591 3.79098,2.69294c1.8973,2.0314 2.48807,3.41655 3.05696,6.06347c-0.62748,1.96124 -1.1967,3.07655 -3.098,4.04841c-0.11997,0.06132 -3.25674,1.42556 -3.748,1.54326zM243.17885,177.29494c0.15524,0.18738 0.31204,0.37494 0.47112,0.56315c-0.14409,-0.18317 -0.30049,-0.36963 -0.47112,-0.56315z" fill="url(#color-1)"/><path d="M232.07626,182.92807c-1.24235,-0.13804 -1.10432,-1.38039 -1.10432,-1.38039l0.16431,-1.41583c0.88468,-2.69178 2.12681,-8.57104 5.16201,-9.50484c1.87054,-0.57548 4.74688,0.96703 6.48607,1.59825c0,0 1.17474,0.42718 0.74756,1.60192c-0.42718,1.17474 -1.60192,0.74756 -1.60192,0.74756c-1.12378,-0.40948 -3.7539,-1.8465 -4.9425,-1.54461c-0.72792,0.18488 -0.6516,0.672 -0.91662,1.30611c-0.87822,2.1013 -1.75972,4.17168 -2.49279,6.33191l-0.1214,1.1556c0,0 -0.13804,1.24235 -1.38039,1.10432z" fill="#d3a689"/><path d="M234.03138,186.56377c0.69338,-1.04006 1.73344,-0.34669 1.73344,-0.34669l0.82627,0.55149c3.22664,2.08849 7.03351,-1.59435 9.25033,-3.759c0.73238,-0.71514 -0.01906,-3.95009 -0.01997,-4.89528c0,0 0,-1.25 1.25,-1.25c1.25,0 1.25,1.25 1.25,1.25c-0.00213,2.03707 0.79153,4.75265 -0.5914,6.53329c-0.31853,0.41013 -0.94006,0.45595 -1.35629,0.76648c-3.59123,2.67927 -6.296,6.40507 -11.10767,3.47452l-0.88802,-0.59136c0,0 -1.04006,-0.69338 -0.34669,-1.73344z" fill="#985933"/><path d="M230.59524,184.04762c0,-1.65686 1.34314,-3 3,-3c1.65686,0 3,1.34314 3,3c0,1.65686 -1.34314,3 -3,3c-1.65686,0 -3,-1.34314 -3,-3z" fill="#501604"/><path d="M234.16667,182.83333c0.82843,0 1.5,0.67157 1.5,1.5c0,0.0541 -0.00286,0.10753 -0.00845,0.16015c0.00845,0.07807 0.00845,0.12556 0.00845,0.12556l-0.03149,0.02152c-0.14176,0.68106 -0.74538,1.19276 -1.46851,1.19276c-0.08414,0 -0.16667,-0.00693 -0.24704,-0.02025l-0.74072,0.50625c-0.38095,-0.33333 -0.7619,-0.66667 -1.14286,-1c0,0 -1.12887,-0.98776 -0.14111,-2.11662c0.70247,-0.80282 1.4763,-0.53512 1.86471,-0.31351c0.12943,-0.0364 0.26595,-0.05588 0.40701,-0.05588z" fill="#8b2f12"/></g></g></svg>