<svg version="1.1" xmlns="http://www.w3.org/2000/svg" xmlns:xlink="http://www.w3.org/1999/xlink" width="35.3218" height="41.49028" viewBox="0,0,35.3218,41.49028"><g transform="translate(-222.3391,-152.3927)"><g data-paper-data="{&quot;isPaintingLayer&quot;:true}" fill-rule="nonzero" stroke="none" stroke-width="0.5" stroke-linecap="butt" stroke-linejoin="miter" stroke-miterlimit="10" stroke-dasharray="" stroke-dashoffset="0" style="mix-blend-mode: normal"><path d="M239.42506,183.89265l0.03509,0.03008l0.02182,0.00614zM239.21168,183.75542h-0.04762l0.15475,0.07737zM244.51217,179.3754l0.15062,-0.03012l0.12539,-0.12539v-1.94242l-0.10139,-0.40556l-0.03335,-0.05558l-0.1552,-0.24389l-0.66994,-0.66994l-0.09831,-0.06256l-0.37038,-0.15595l-0.09524,-0.07143h-2.48357l-1.37053,0.22842l-0.86386,0.24682l-0.14383,0.00479l-0.13198,0.05738l-0.25583,0.04264l-0.0525,0.03937l-0.57567,0.46054l-0.15562,0.15562l-0.07948,0.11922l0.0167,0.08348l-0.01184,0.24872l0.06039,0.24157v0.16071l0.20014,0.05003l0.56075,0.12461l0.06231,0.03115l0.06966,0.01742l0.01169,0.02045l0.24317,0.08106l0.06342,0.04036l0.07449,0.01016l0.64607,0.25843l0.78745,0.26248l0.25882,0.1647c0.14884,0.01132 0.29403,0.03567 0.43445,0.07192l0.03622,-0.00988l0.06266,0.0376c0.15815,0.04789 0.30967,0.11102 0.45286,0.18769l0.07157,0.01789l0.01883,0.03296c0.14916,0.08803 0.28838,0.19111 0.41557,0.30715l0.24407,0.09763l0.29823,0.21539l0.17084,0.00949l0.02133,0.02489h0.98765l0.10825,-0.02706l0.55675,-0.2227l0.22916,-0.03125zM256.99925,175.86176l-0.12843,0.51371l-0.08264,0.41321v2.16228l0.3075,0.61499l0.05078,0.22849l0.11697,0.20274l0.28571,1l0.01162,0.34851l0.08457,0.33829v0.71429l-0.11484,0.45934l-0.06397,0.46914l-0.28571,0.71429l-0.22992,0.31835l-0.17072,0.35364l-0.60517,0.72621l-2.04793,3.27668l-1.13095,1.83779l-0.84992,1.41653l-0.31339,0.31339l-0.2686,0.35254l-0.71429,0.57143l-0.00055,0.00025l-0.01439,0.03631l-0.58355,0.23774l-0.57282,0.26254l-0.03632,-0.01438l-0.00056,0.00023l-1,0.14286l-0.3154,-0.03263l-0.31423,0.04246l-1.28571,-0.14286l-0.05519,-0.0205l-0.05864,0.0052l-2.71429,-0.42857l-0.03397,-0.01443l-0.03684,0.0022l-2.28571,-0.42857l-0.1358,-0.06233l-0.14917,-0.00865l-2.27208,-0.71002l-2.84346,-0.85304l-0.06765,-0.04022l-0.07825,-0.00848l-2.71429,-1l-0.00615,-0.00419l-0.00739,-0.00085l-2.28571,-0.85714l-0.26441,-0.18235l-0.29949,-0.11605l-2.35272,-1.66074l-0.63467,-0.3808l-0.34028,-0.34028l-0.37348,-0.30346l-1.71429,-2.28571l-0.06716,-0.15951l-0.11823,-0.12639l-0.71429,-1.28571l-0.06065,-0.22607l-0.12566,-0.19747l-0.85714,-2.57143l-0.03082,-0.40069l-0.09747,-0.38988v-2.42857l0.07464,-0.29857v-0.30776l0.28571,-1.14286l0.04613,-0.08649l0.00752,-0.09774l0.28571,-0.85714l0.13368,-0.21007l0.06742,-0.2397l0.57143,-1l0.13634,-0.14226l0.0821,-0.17913l0.57143,-0.71429l0.20193,-0.15385l0.14978,-0.20496l0.85714,-0.71429l0.08567,-0.04136l0.06169,-0.07242l1,-0.71429l0.26396,-0.10398l0.2276,-0.16937l1.68725,-0.70302l1.25895,-0.55953l0.37879,-0.06629l0.36048,-0.13389l1.28571,-0.14286l0.13951,0.01885l0.13657,-0.03414h4.14286l0.07744,0.01936l0.0785,-0.01449l2.28571,0.14286l0.17958,0.05701l0.1883,-0.00638l1.85262,0.39699l1.30839,0.11894h1.74374l0.12315,0.03079l0.12561,-0.01838l1.42857,0.14286l0.15196,0.05455l0.16143,-0.00294l1.85714,0.42857l0.0504,0.02571l0.05656,0.00147l2.57143,0.71429l0.21153,0.11997l0.23739,0.05275l1.33556,0.66778l0.61774,0.24709l0.086,0.06211l0.10356,0.02301l0.28571,0.14286l0.04606,0.03948l0.97116,0.05395l0.06932,-0.02311l0.03306,0.02879l0.73134,0.04063l0.83853,0.97828l0.14286,0.28571l0.05156,0.232l0.10254,0.08931l0.02255,0.47362l0.10286,0.46286l-0.07543,0.11314l0.0113,0.23739l-0.14286,0.71429l-0.14295,0.30178l-0.07244,0.32597l-0.1176,0.2352l-0.08106,0.48634l-0.04063,0.09345z" fill="#b37046"/><path d="M235.64532,176.62554c0.14899,-0.50438 0.3767,-0.93463 0.6655,-1.2967c2.0603,-2.58308 7.22972,-1.6966 9.10731,0.49584c0.76317,0.89115 0.80248,4.32019 -1.06453,3.94679c-2.47911,-0.49582 -0.69834,-2.846 -3.40177,-2.82677c-0.84228,0.00599 -3.36239,1.57826 -3.82043,1.2729z" fill="#985933"/><path d="M255.14532,179.18399c1.44204,0.82402 2.17477,1.94008 2.40505,3.18478c0.67422,3.64424 -2.95858,8.39119 -5.70689,10.14012c-5.08283,3.23453 -13.87813,-0.30472 -19.11886,-2.24339c-2.03263,-0.75192 -10.60154,-3.23766 -6.63278,-7.20642c1.44067,-1.44067 2.42875,-0.75504 3.53553,0c2.59524,1.77044 8.24258,5.09674 11.6608,5.12491c0.38213,0.00315 5.60547,0.2428 7.625,-0.14286c0.16979,-0.03242 3.71156,-3.85753 3.73214,-4.04815c0.12863,-1.19123 -0.69483,-2.98337 0.34546,-3.57783z" fill="#985933"/><path d="M255.82858,171.30197c0.1591,0.18561 0.30524,0.36573 0.43674,0.54107c0.49706,0.45693 0.80857,1.11257 0.80857,1.84096c0,1.38071 -1.11929,2.5 -2.5,2.5c-0.26357,0 -0.51761,-0.04079 -0.75616,-0.11639c-0.21516,-0.06819 -0.41771,-0.16471 -0.60328,-0.28518c-1.76299,-0.50925 -4.09003,-1.5292 -5.87476,-2.30317c-4.29364,-1.86199 -10.4239,-2.58792 -15.15172,-2.29526c-4.44241,0.27499 -4.18076,7.21846 -5.14087,8.17857c-1.75336,1.75336 -4.47319,1.46869 -4.6875,-1.25c-0.34734,-4.40624 3.76645,-11.60325 8.78571,-11.92857c6.77777,-0.4393 12.66963,1.3631 18.75935,3.04147c1.99157,0.54889 4.21636,0.71271 5.79938,2.06959z" fill="#d3a689"/><path d="M241.91064,179.21973c1.24055,0.03791 3.19735,-0.68494 3.94331,0.80697c0.81574,1.63149 -0.83033,2.83151 -2.17182,2.87363c-1.74577,0.05482 -6.47832,-0.25582 -7.5591,-2.14718c-0.54241,-0.32012 -0.90629,-0.91057 -0.90629,-1.586c0,-1.01637 0.82393,-1.8403 1.8403,-1.8403c0.386,0 0.74423,0.11884 1.04013,0.32192c1.06911,0.44705 2.2341,1.5227 3.81347,1.57096z" fill="#d3a689"/><path d="M233.45987,152.66611c2.88383,-1.6479 4.80212,4.65756 7.06425,5.48398c0.56362,0.20591 2.97226,-1.71092 3.95396,-1.87528c1.39311,-0.23324 2.30353,1.59719 3.13247,2.44078c0.05798,0.059 0.66106,-0.31226 0.79786,-0.3587c2.10408,-0.71435 8.58025,-5.65032 8.62284,-0.8069c0.01008,1.14622 0.08566,2.80086 -0.06763,4.11317c-0.13398,1.14704 -1.07796,5.54119 -2.43481,7.10693c0.04241,0.10747 0.06494,0.22145 0.06494,0.3424c0,2.29522 -4.1994,0.67068 -5.13318,0.47312c-4.41843,-0.93482 -8.92365,-1.64748 -13.39248,-2.1715c-0.86128,-0.101 -4.86042,-0.14985 -5.13301,-1.00656c-0.24827,-0.22845 -0.40383,-0.55609 -0.40383,-0.92006c0,-0.22401 0.05893,-0.43426 0.16212,-0.61609c0.01085,-0.04349 0.02398,-0.08607 0.03925,-0.12762c0.40478,-2.17852 2.29569,-11.83107 2.72725,-12.07767zM254.53125,158.30281c-0.02579,-0.31985 -0.59063,0.25187 -0.89208,0.36186c-0.66975,0.24438 -1.31241,0.56419 -1.93409,0.91318c-0.82316,0.4621 -3.06349,1.91638 -4.08715,1.91638c-1.66481,0 -1.92834,-1.98022 -3.18657,-2.60625c-0.73562,-0.36601 -3.12914,1.9778 -4.21475,1.9778c-1.84302,0 -3.62054,-3.68432 -5.06654,-4.63716c-0.77371,-0.50984 -0.49399,1.78618 -0.72942,2.68236c-0.35927,1.36763 -0.43425,4.05833 -0.96442,5.8308c4.57363,-0.07561 12.87785,1.67201 14.94517,2.08249c0.67923,0.13486 2.69893,0.27704 4.24888,0.73839c0.44433,-3.21626 2.17066,-5.66764 1.88098,-9.25985z" fill="#000000"/><path d="M252.692,167.5902c-1.54995,-0.46135 -3.57825,-0.59362 -4.25748,-0.72848c-2.06732,-0.41047 -10.45289,-2.18237 -15.02653,-2.10677c0.53017,-1.77247 0.60559,-4.49104 0.96486,-5.85867c0.23542,-0.89618 -0.0387,-3.20432 0.73501,-2.69448c1.446,0.95285 3.21735,4.65132 5.06037,4.65132c1.08561,0 3.53452,-2.38064 4.27014,-2.01464c1.25822,0.62603 1.56449,2.65072 3.2293,2.65072c1.02366,0 3.16631,-1.43505 3.98947,-1.89714c0.62169,-0.349 1.26482,-0.66727 1.93457,-0.91165c0.30145,-0.10999 0.96111,-0.71347 0.9869,-0.39362c0.28968,3.5922 -1.44228,6.08715 -1.88662,9.30341z" data-paper-data="{&quot;noHover&quot;:false,&quot;origItem&quot;:[&quot;Path&quot;,{&quot;applyMatrix&quot;:true,&quot;segments&quot;:[[[254.53125,158.30281],[0.28968,3.5922],[-0.02579,-0.31985]],[[253.63917,158.66467],[0.30145,-0.10999],[-0.66975,0.24438]],[[251.70508,159.57785],[0.62169,-0.349],[-0.82316,0.4621]],[[247.61792,161.49424],[1.02366,0],[-1.66481,0]],[[244.43135,158.88799],[1.25822,0.62603],[-0.73562,-0.36601]],[[240.2166,160.86579],[1.08561,0],[-1.84302,0]],[[235.15006,156.22862],[1.446,0.95285],[-0.77371,-0.50984]],[[234.42065,158.91098],[0.23542,-0.89618],[-0.35927,1.36763]],[[233.45623,164.74178],[0.53017,-1.77247],[4.57363,-0.07561]],[[248.40139,166.82427],[-2.06732,-0.41047],[0.67923,0.13486]],[[252.65027,167.56266],[-1.54995,-0.46135],[0.44433,-3.21626]]],&quot;closed&quot;:true}]}" fill="#ffd200"/><path d="M242.40625,161.29999c0,-0.69036 0.55964,-1.25 1.25,-1.25c0.69036,0 1.25,0.55964 1.25,1.25c0,0.69036 -0.55964,1.25 -1.25,1.25c-0.69036,0 -1.25,-0.55964 -1.25,-1.25z" fill="#ff0000"/><path d="M234.34375,159.48749c0,-0.69036 0.55964,-1.25 1.25,-1.25c0.69036,0 1.25,0.55964 1.25,1.25c0,0.69036 -0.55964,1.25 -1.25,1.25c-0.69036,0 -1.25,-0.55964 -1.25,-1.25z" fill="#00ff1e"/><path d="M250.59375,162.11249c0,-0.69036 0.55964,-1.25 1.25,-1.25c0.69036,0 1.25,0.55964 1.25,1.25c0,0.69036 -0.55964,1.25 -1.25,1.25c-0.69036,0 -1.25,-0.55964 -1.25,-1.25z" fill="#0017ff"/></g></g></svg>