<svg version="1.1" xmlns="http://www.w3.org/2000/svg" xmlns:xlink="http://www.w3.org/1999/xlink" width="35.32181" height="27.38564" viewBox="0,0,35.32181,27.38564"><defs><radialGradient cx="240.29598" cy="180.5335" r="17.36493" gradientUnits="userSpaceOnUse" id="color-1"><stop offset="0" stop-color="#ffabf8"/><stop offset="1" stop-color="#ff6ad5"/></radialGradient><radialGradient cx="240.29598" cy="180.5335" r="17.36493" gradientUnits="userSpaceOnUse" id="color-2"><stop offset="0" stop-color="#c786c2"/><stop offset="1" stop-color="#ff6ad5"/></radialGradient><radialGradient cx="240.29598" cy="180.5335" r="17.36493" gradientUnits="userSpaceOnUse" id="color-3"><stop offset="0" stop-color="#c786c2"/><stop offset="1" stop-color="#ff6ad5"/></radialGradient></defs><g transform="translate(-222.33911,-166.43254)"><g data-paper-data="{&quot;isPaintingLayer&quot;:true}" fill-rule="nonzero" stroke-linejoin="miter" stroke-miterlimit="10" stroke-dasharray="" stroke-dashoffset="0" style="mix-blend-mode: normal"><path d="M235.64533,176.62554c0.14899,-0.50438 0.3767,-0.93463 0.6655,-1.2967c2.0603,-2.58308 7.22972,-1.6966 9.10731,0.49584c0.76317,0.89115 0.80248,4.32019 -1.06453,3.94679c-2.47911,-0.49582 -0.69834,-2.846 -3.40177,-2.82677c-0.84228,0.00599 -3.36239,1.57826 -3.82043,1.2729z" fill="#985933" stroke="none" stroke-width="0.5" stroke-linecap="butt"/><path d="M255.14533,179.18399c1.35982,0.77704 2.08891,1.81376 2.36072,2.97316c-0.27746,0.24129 -0.55485,0.4864 -0.8333,0.73433c-1.08269,0.964 -2.41287,1.48483 -3.52236,2.38745c-2.64682,2.1533 -4.56333,5.41006 -6.17315,8.53541c-1.68469,0.03859 -3.48246,-0.21713 -5.27089,-0.62607c-5.16623,-3.27904 -10.25181,-7.57454 -15.96704,-9.74124c0.10432,-0.12769 0.22161,-0.25701 0.35254,-0.38794c1.44067,-1.44067 2.42875,-0.75504 3.53553,0c2.59524,1.77044 8.24258,5.09674 11.6608,5.12491c0.38213,0.00315 5.60547,0.2428 7.625,-0.14286c0.16979,-0.03242 3.71156,-3.85753 3.73214,-4.04815c0.12863,-1.19123 -0.69483,-2.98337 0.34546,-3.57783z" fill="#985933" stroke="none" stroke-width="0.5" stroke-linecap="butt"/><path d="M252.47007,192.06996c0.09395,-0.12078 0.18972,-0.24052 0.28721,-0.3592c0.00056,0.00056 0.00112,0.00113 0.00169,0.00169c0.02442,0.02442 0.04884,0.04749 0.07324,0.06927c-0.12134,0.10064 -0.24218,0.19682 -0.36215,0.28824z" fill="#985933" stroke="none" stroke-width="0.5" stroke-linecap="butt"/><path d="M232.18798,171.184c-4.44241,0.27499 -4.18076,7.21846 -5.14087,8.17857c-1.75336,1.75336 -4.47319,1.46869 -4.6875,-1.25c-0.31602,-4.00892 3.06083,-10.32801 7.45262,-11.68003c2.15859,0.42123 3.80591,1.44004 6.05279,2.75845c0.59875,0.35133 1.92681,1.54828 2.93633,2.18916c-2.29208,-0.25961 -4.58216,-0.32188 -6.61337,-0.19615z" fill="#d3a689" stroke="none" stroke-width="0.5" stroke-linecap="butt"/><path d="M255.82859,171.30197c0.1591,0.18561 0.30524,0.36573 0.43674,0.54107c0.49706,0.45693 0.80857,1.11257 0.80857,1.84096c0,1.38071 -1.11929,2.5 -2.5,2.5c-0.26357,0 -0.51761,-0.04079 -0.75616,-0.11639c-0.21516,-0.06819 -0.41771,-0.16471 -0.60328,-0.28518c-1.76299,-0.50925 -4.09003,-1.5292 -5.87476,-2.30317c-1.95501,-0.84781 -4.29079,-1.4601 -6.70157,-1.84794c0.98774,-0.40097 1.03249,-1.45068 1.82633,-2.1464c0.77842,-0.68222 1.82275,-1.12792 2.86704,-1.51136c1.52337,0.40008 3.04201,0.82991 4.57317,1.25191c1.99157,0.54889 4.21636,0.71271 5.79938,2.06959z" fill="#d3a689" stroke="none" stroke-width="0.5" stroke-linecap="butt"/><path d="" fill="#d3a689" stroke="none" stroke-width="0.5" stroke-linecap="butt"/><path d="M241.91065,179.21973c1.24055,0.03791 3.19735,-0.68494 3.94331,0.80697c0.81574,1.63149 -0.83033,2.83151 -2.17182,2.87363c-1.74577,0.05482 -6.47832,-0.25582 -7.5591,-2.14718c-0.54241,-0.32012 -0.90629,-0.91057 -0.90629,-1.586c0,-1.01637 0.82393,-1.8403 1.8403,-1.8403c0.386,0 0.74423,0.11884 1.04013,0.32192c1.06911,0.44705 2.2341,1.5227 3.81347,1.57096z" fill="#d3a689" stroke="none" stroke-width="0.5" stroke-linecap="butt"/><path d="M256.99926,175.86176l-0.12843,0.51371l-0.08264,0.41321v2.16228l0.3075,0.61499l0.05078,0.22849l0.11697,0.20274l0.28571,1l0.01162,0.34851l0.08457,0.33829v0.35237c-0.32396,0.28014 -0.64754,0.56571 -0.97259,0.85512c-1.08269,0.964 -2.41287,1.48483 -3.52236,2.38745c-2.63445,2.14323 -4.5454,5.37964 -6.15056,8.49158l-0.27343,-0.03038l-0.05519,-0.0205l-0.05864,0.0052l-2.71429,-0.42857l-0.03397,-0.01443l-0.03684,0.0022l-2.28571,-0.42857l-0.1358,-0.06233l-0.14917,-0.00865l-0.34308,-0.10721c-5.2995,-3.46619 -10.55227,-7.83482 -16.52786,-9.69823l-0.28306,-0.5095l-0.06065,-0.22607l-0.12566,-0.19747l-0.85714,-2.57143l-0.03082,-0.40069l-0.09747,-0.38988v-2.42857l0.07464,-0.29857v-0.30776l0.28571,-1.14286l0.04613,-0.08649l0.00752,-0.09774l0.28571,-0.85714l0.13368,-0.21007l0.06742,-0.2397l0.57143,-1l0.13634,-0.14226l0.0821,-0.17913l0.57143,-0.71429l0.20193,-0.15385l0.14978,-0.20496l0.85714,-0.71429l0.08567,-0.04136l0.06169,-0.07242l1,-0.71429l0.26396,-0.10398l0.2276,-0.16937l1.68725,-0.70302l1.25895,-0.55953l0.37879,-0.06629l0.36048,-0.13389l0.64591,-0.07177c1.10679,0.50335 2.20062,1.16244 3.49271,1.9206c0.83585,0.49045 3.09296,2.62885 3.9207,2.60187c1.85923,-0.0606 1.70221,-1.4521 2.67874,-2.30794c0.81539,-0.71462 1.92255,-1.16972 3.01581,-1.56559l1.3424,0.13424l0.15196,0.05455l0.16143,-0.00294l1.85714,0.42857l0.0504,0.02571l0.05656,0.00147l2.57143,0.71429l0.21153,0.11997l0.23739,0.05275l1.33556,0.66778l0.61774,0.24709l0.086,0.06211l0.10356,0.02301l0.28571,0.14286l0.04606,0.03948l0.97116,0.05395l0.06932,-0.02311l0.03306,0.02879l0.73134,0.04063l0.83853,0.97828l0.14286,0.28571l0.05156,0.232l0.10254,0.08931l0.02255,0.47362l0.10286,0.46286l-0.07543,0.11314l0.0113,0.23739l-0.14286,0.71429l-0.14295,0.30178l-0.07244,0.32597l-0.1176,0.2352l-0.08106,0.48634l-0.04063,0.09345zM244.51218,179.3754l0.15062,-0.03012l0.12539,-0.12539v-1.94242l-0.10139,-0.40556l-0.03335,-0.05558l-0.1552,-0.24389l-0.66994,-0.66994l-0.09831,-0.06256l-0.37038,-0.15595l-0.09524,-0.07143h-2.48357l-1.37053,0.22842l-0.86386,0.24682l-0.14383,0.00479l-0.13198,0.05738l-0.25583,0.04264l-0.0525,0.03937l-0.57567,0.46054l-0.15562,0.15562l-0.07948,0.11922l0.0167,0.08348l-0.01184,0.24872l0.06039,0.24157v0.16071l0.20014,0.05003l0.56075,0.12461l0.06231,0.03115l0.06966,0.01742l0.01169,0.02045l0.24317,0.08106l0.06342,0.04036l0.07449,0.01016l0.64607,0.25843l0.78745,0.26248l0.25882,0.1647c0.14884,0.01132 0.29403,0.03567 0.43445,0.07192l0.03622,-0.00988l0.06266,0.0376c0.15815,0.04789 0.30967,0.11102 0.45286,0.18769l0.07157,0.01789l0.01883,0.03296c0.14916,0.08803 0.28838,0.19111 0.41557,0.30715l0.24407,0.09763l0.29823,0.21539l0.17084,0.00949l0.02133,0.02489h0.98765l0.10825,-0.02706l0.55675,-0.2227l0.22916,-0.03125zM239.21169,183.75542h-0.04762l0.15475,0.07737zM239.42507,183.89265l0.03509,0.03008l0.02182,0.00614z" fill="url(#color-1)" stroke="none" stroke-width="0.5" stroke-linecap="butt"/><path d="" fill="url(#color-2)" stroke="none" stroke-width="0.5" stroke-linecap="butt"/><path d="" fill="url(#color-3)" stroke="none" stroke-width="0.5" stroke-linecap="butt"/><path d="M232.07143,171.82857l-4.57143,2.71429" fill="none" stroke="#ff0000" stroke-width="2.5" stroke-linecap="round"/><path d="M246.78572,174.82858l-3.28572,-3.57143" fill="none" stroke="#ff0000" stroke-width="2.5" stroke-linecap="round"/><path d="M247.78572,188.25715l3.14285,-6.42857" fill="none" stroke="#ff0000" stroke-width="2.5" stroke-linecap="round"/><path d="M231.78572,181.68572l5.14285,4" fill="none" stroke="#ff0000" stroke-width="2.5" stroke-linecap="round"/><path d="M233.92858,176.11428l-5.57143,4.71429" fill="none" stroke="#1dff00" stroke-width="2.5" stroke-linecap="round"/><path d="M238.5,172.82857l-1.14285,-2.85714" fill="none" stroke="#1dff00" stroke-width="2.5" stroke-linecap="round"/><path d="M251.92857,178.25715l2.57143,-4.14286" fill="none" stroke="#1dff00" stroke-width="2.5" stroke-linecap="round"/><path d="M243.64286,182.68572l0.28572,4.42857" fill="none" stroke="#1dff00" stroke-width="2.5" stroke-linecap="round"/><path d="M240.07143,181.54286l-6.71428,5.14285" fill="none" stroke="#0067ff" stroke-width="2.5" stroke-linecap="round"/><path d="M233.64286,172.54286l-4.57143,-3" fill="none" stroke="#0067ff" stroke-width="2.5" stroke-linecap="round"/><path d="M248.5,171.82857l-6.57143,1.28571" fill="none" stroke="#0067ff" stroke-width="2.5" stroke-linecap="round"/><path d="M251.35714,185.4l-2,-9.28571" fill="none" stroke="#0067ff" stroke-width="2.5" stroke-linecap="round"/></g></g></svg>