<svg version="1.1" xmlns="http://www.w3.org/2000/svg" xmlns:xlink="http://www.w3.org/1999/xlink" width="72.51721" height="64.53383" viewBox="0,0,72.51721,64.53383"><defs><radialGradient cx="239.99073" cy="181.86716" r="40.85818" gradientUnits="userSpaceOnUse" id="color-1"><stop offset="0" stop-color="#f0bf83"/><stop offset="1" stop-color="#ca6e3a"/></radialGradient></defs><g transform="translate(-204.32232,-147.19687)"><g stroke-miterlimit="10"><path d="M216.28377,160.24674c1.45754,2.16814 -1.47679,1.89188 -2.17615,2.87128c-0.11192,0.15672 3.43298,8.68466 3.72171,8.99743c3.4342,3.72006 13.29,12.55436 13.99971,13.20982c6.34852,5.86316 19.41803,13.46264 25.61445,16.80108c2.64256,1.42372 5.01082,2.6874 6.54346,6.08292c4.22211,9.354 -13.59309,-3.807 -17.94674,-6.82565c-11.225,-7.78299 -30.28826,-20.66304 -37.15005,-31.46656c-3.71021,-5.8415 -6.69816,-15.11274 -2.58255,-16.27191c1.40569,-0.39593 3.64007,0.15449 6.95741,2.11113z" fill="#985933" stroke="none" stroke-width="0.5" stroke-linecap="butt"/><path d="M218.43904,149.7745c3.99759,1.8601 8.24408,5.58362 12.36196,8.66083c12.59145,9.40933 24.9143,18.3993 37.11271,30.34011c9.03349,8.84273 10.98361,20.50071 6.87334,22.70723c-2.53608,1.36145 -7.79386,-3.1369 -9.65916,-7.26941c-1.02141,-2.26289 4.9269,-6.23151 -3.07859,-14.04974c-8.51981,-8.32053 -20.43678,-18.40574 -29.84859,-24.60803c-3.91218,-2.5781 -9.02164,-5.93271 -12.68528,-8.64187c-0.43824,-0.2426 -0.88907,-0.52967 -1.34095,-0.85646c-0.501,-0.36231 -1.00327,-0.77343 -1.49107,-1.22691c-2.55538,-2.37552 -3.74613,-5.0136 -2.6596,-5.89227c0.5732,-0.46355 1.66567,-0.34483 2.9452,0.21957c0.38136,0.11466 0.79358,0.25147 1.23409,0.40708z" fill="#d3a689" stroke="none" stroke-width="0.5" stroke-linecap="butt"/><path d="M212.62349,150.30641l-0.00128,-0.12938l0.23396,-0.4483l-0.03157,-0.35211l0.12338,-0.33173l-0.02585,-0.43807l0.29968,-0.69952l0.2081,-0.13104l-0.05,-0.20192l0.55495,-0.11602l0.41518,-0.26144l0.25971,0.12032l0.27816,-0.05814l0.48905,0.06536l2.31943,0.82671l1.38202,1.23635l0.08374,0.0388l0.10973,0.13428l1.8352,1.64176l0.11616,0.05445l0.64007,0.40248l0.20931,0.16412l0.20773,0.10903l1.33518,0.90937l2.99199,1.88136l0.4798,0.37622l0.48509,0.28897l5.30996,3.98467l0.10556,0.09668l0.11331,0.07067l3.76609,2.93318l0.29567,0.28045l0.32352,0.22766l2.74966,2.37476l0.21736,0.22843l0.25161,0.193l3.21875,3.00926l2.50895,2.18253l3.73285,2.9454l0.34255,0.329l0.37645,0.27376l4.33184,3.85396l0.13347,0.14466l0.15822,0.12137l7.64725,7.14954l0.22517,0.25734l0.27239,0.22881l2.2606,2.30941l0.5598,0.70701l0.64693,0.69574l1.88256,2.52747l2.55998,3.35759l0.28653,0.5002l0.40523,0.52147l1.28251,2.17872l0.05675,0.15239l0.12551,0.17407l1.01879,1.93218l0.11482,0.38847l0.25139,0.44604l0.49142,1.43913l0.01026,0.25528l0.13946,0.32551l0.26606,1.62031l-0.0646,0.26835l0.08107,0.36392l-0.14867,1.03664l-0.06321,0.07496l0.01694,0.13446l-0.37402,1.21783l-0.24274,0.19518l-0.09772,0.31815l-1.9155,1.54012l-0.48744,0.07903l-0.37293,0.20092l-3.61035,0.1515l-0.3877,-0.09163l-0.29026,0.0387l-2.33259,-0.41734l-0.31793,-0.12388l-0.24978,-0.01475l-4.96721,-1.50891l-0.92876,-0.4521l-0.89651,-0.37144l-1.47188,-0.8538l-5.65275,-3.00703l-0.64436,-0.44325l-0.6319,-0.34067l-4.89523,-3.401l-0.01431,-0.01222l-0.01465,-0.00795l-5.79901,-4.05002l-0.15114,-0.12967l-0.15659,-0.09124l-5.92153,-4.36614l-4.75402,-3.47077l-0.28217,-0.25194l-0.29984,-0.19484l-4.5572,-3.67278l-0.06627,-0.06497l-0.07409,-0.04948l-5.34831,-4.41239l-0.10414,-0.1045l-0.11805,-0.08224l-2.48596,-2.12822l-0.54654,-0.56921l-0.60792,-0.52361l-1.73321,-1.81635l-0.00086,-0.00111l-0.07838,-0.05357l-0.85029,-1.15503l-0.88966,-1.15783l0.00207,-0.04786l-0.00082,-0.00111l-0.8678,-1.59506l-0.21774,-0.6871l-0.3313,-0.73957l-0.45159,-2.36506l-0.63808,-3.1172l-1.19582,-5.61218l-0.54428,-1.50491l-0.03621,-0.51889l-0.17331,-0.59867l0.036,-0.94604l0.25195,-0.40791l0.15031,-0.48948l0.56338,-0.45297l0.42292,-0.06859l0.29633,-0.20096l1.31612,-0.14109l0.37582,0.0733l0.27395,-0.05727l1.05267,0.14067l1.70547,-1.37124l0.17337,-0.40465l0.16811,-0.54742z" fill="url(#color-1)" stroke="none" stroke-width="0.5" stroke-linecap="butt"/><g fill="none" stroke-width="2.5" stroke-linecap="round"><g><path d="M269.60284,199.77922l0.13366,5.31483" stroke="#ff0000"/><path d="M259.23465,188.91592l4.77208,0.88219" stroke="#ff0000"/><path d="M251.10345,189.13195l-3.77139,6.08117" stroke="#ff0000"/><path d="M261.40832,205.2651l-6.12296,-2.22671" stroke="#ff0000"/><path d="M263.95809,207.71223l1.02784,-7.22557" stroke="#1dff00"/><path d="M268.36339,194.31557l-3.02726,0.55228" stroke="#1dff00"/><path d="M255.7355,182.00388l-2.13996,4.38134" stroke="#1dff00"/><path d="M254.25363,195.7571l-3.90188,2.11405" stroke="#1dff00"/><path d="M257.12133,198.1732l-0.78273,8.42126" stroke="#0067ff"/><path d="M273.13424,201.10347l-4.97222,-2.27485" stroke="#0067ff"/><path d="M260.86291,185.86837l2.4073,6.24833" stroke="#0067ff"/><path d="M247.85135,190.66904l8.92664,-3.24647" stroke="#0067ff"/></g><g><path d="M238.0905,184.81028l-0.13366,-5.31483" stroke="#ff0000"/><path d="M243.6866,194.79138l4.77209,0.88219" stroke="#ff0000"/><path d="M260.36128,189.37638l-3.77139,6.08117" stroke="#ff0000"/><path d="M246.28502,179.3244l6.12297,2.22671" stroke="#ff0000"/><path d="M243.73525,176.87728l-1.02784,7.22557" stroke="#1dff00"/><path d="M242.35721,189.72166l-3.02726,0.55228" stroke="#1dff00"/><path d="M251.95783,202.58561l2.13997,-4.38132" stroke="#1dff00"/><path d="M253.43971,188.83241l3.90188,-2.11405" stroke="#1dff00"/><path d="M250.57201,186.4163l0.78273,-8.42126" stroke="#0067ff"/><path d="M234.55909,183.48603l4.97223,2.27486" stroke="#0067ff"/><path d="M246.83042,198.72113l-2.4073,-6.24833" stroke="#0067ff"/><path d="M250.91535,197.16693l8.92664,-3.24647" stroke="#0067ff"/></g></g><g fill="none" stroke-width="2.5" stroke-linecap="round"><g><path d="M211.19662,158.71839l0.13366,5.31483" stroke="#ff0000"/><path d="M221.69846,174.89651l-4.77209,-0.88219" stroke="#ff0000"/><path d="M229.82967,174.68051l3.77139,-6.08118" stroke="#ff0000"/><path d="M225.64776,160.77406l-6.12297,-2.22671" stroke="#ff0000"/><path d="M216.97502,156.10021l-1.02784,7.22557" stroke="#1dff00"/><path d="M212.56973,169.49688l3.02726,-0.55228" stroke="#1dff00"/><path d="M227.33757,177.42722l-2.13996,4.38134" stroke="#1dff00"/><path d="M226.67949,168.05535l3.90188,-2.11405" stroke="#1dff00"/><path d="M224.59452,157.21798l-0.78273,8.42126" stroke="#0067ff"/><path d="M212.7711,164.98383l-4.97223,-2.27486" stroke="#0067ff"/><path d="M217.6629,171.69574l2.4073,6.24833" stroke="#0067ff"/><path d="M233.08176,173.1434l-8.92664,3.24647" stroke="#0067ff"/></g><g><path d="M242.84261,179.00216l0.13366,5.31483" stroke="#ff0000"/><path d="M232.47442,168.13887l4.77209,0.88219" stroke="#ff0000"/><path d="M224.34321,168.35488l-3.77139,6.08118" stroke="#ff0000"/><path d="M228.52513,182.26133l6.12297,2.22671" stroke="#ff0000"/><path d="M237.19787,186.93517l1.02784,-7.22557" stroke="#1dff00"/><path d="M238.57589,174.09078l3.02726,-0.55228" stroke="#1dff00"/><path d="M226.83532,165.60815l2.13997,-4.38132" stroke="#1dff00"/><path d="M223.59152,177.09409l3.90188,-2.11404" stroke="#1dff00"/><path d="M230.3611,177.39614l-0.78272,8.42127" stroke="#0067ff"/><path d="M241.40179,178.05155l4.97223,2.27486" stroke="#0067ff"/><path d="M236.50998,171.33964l-2.4073,-6.24833" stroke="#0067ff"/><path d="M221.09113,169.89198l8.92664,-3.24647" stroke="#0067ff"/></g></g></g></g></svg>