<svg version="1.1" xmlns="http://www.w3.org/2000/svg" xmlns:xlink="http://www.w3.org/1999/xlink" width="72.37695" height="64.62598" viewBox="0,0,72.37695,64.62598"><defs><radialGradient cx="239.99073" cy="181.86715" r="40.85818" gradientUnits="userSpaceOnUse" id="color-1"><stop offset="0" stop-color="#f0bf83"/><stop offset="1" stop-color="#ca6e3a"/></radialGradient></defs><g transform="translate(-204.39791,-147.19687)"><g stroke="none" stroke-width="0.5" stroke-miterlimit="10"><path d="M216.35079,160.17628c1.45139,2.17227 -1.48215,1.88769 -2.18428,2.86511c-0.11236,0.1564 3.40836,8.69436 3.6962,9.00794c3.42365,3.72978 13.25437,12.59197 13.96222,13.24944c6.33187,5.88113 19.3798,13.51762 25.56673,16.8736c2.63852,1.43119 5.00319,2.70158 6.5262,6.10143c4.19559,9.36593 -13.58224,-3.8455 -17.92732,-6.87647c-11.2029,-7.81476 -30.22958,-20.74878 -37.06073,-31.5717c-3.69364,-5.85199 -6.65531,-15.13165 -2.53643,-16.27916c1.4068,-0.39194 3.63962,0.1648 6.9514,2.13084z" fill="#985933"/><path d="M218.53573,149.7102c3.99231,1.87142 8.22823,5.60697 12.33737,8.69583c12.56474,9.44498 24.86206,18.46983 37.02659,30.44516c9.0084,8.8683 10.92548,20.53176 6.80897,22.72662c-2.53992,1.35426 -7.78494,-3.15897 -9.63852,-7.29675c-1.01499,-2.26577 4.94454,-6.21753 -3.03876,-14.05841c-8.4962,-8.34464 -20.38454,-18.46357 -29.77874,-24.69251c-3.90487,-2.58917 -9.0048,-5.95825 -12.66075,-8.67778c-0.43756,-0.24385 -0.88757,-0.5322 -1.33852,-0.86026c-0.49997,-0.36373 -1.00108,-0.77627 -1.48759,-1.23113c-2.54864,-2.38275 -3.73191,-5.02419 -2.64289,-5.89978c0.5745,-0.46193 1.66664,-0.34012 2.94456,0.22791c0.38103,0.11574 0.79286,0.25372 1.23293,0.41058z" fill="#d3a689"/><path d="M212.62349,150.3064l-0.00128,-0.12938l0.23396,-0.4483l-0.03157,-0.35211l0.12338,-0.33173l-0.02585,-0.43807l0.29968,-0.69952l0.2081,-0.13104l-0.05,-0.20192l0.55495,-0.11602l0.41518,-0.26144l0.25971,0.12032l0.27816,-0.05814l0.48905,0.06536l2.31943,0.82671l1.38202,1.23635l0.08374,0.0388l0.10973,0.13428l1.8352,1.64176l0.11616,0.05445l0.64007,0.40248l0.20931,0.16412l0.20773,0.10903l1.33518,0.90937l2.99199,1.88136l0.4798,0.37622l0.48509,0.28897l5.30996,3.98467l0.10556,0.09668l0.11331,0.07067l3.76609,2.93318l0.29567,0.28045l0.32352,0.22766l2.74966,2.37476l0.21736,0.22843l0.25161,0.193l3.21875,3.00926l2.50895,2.18253l3.73285,2.9454l0.34255,0.329l0.37645,0.27376l4.33184,3.85396l0.13347,0.14466l0.15822,0.12137l7.64725,7.14954l0.22517,0.25734l0.27239,0.22881l2.2606,2.30941l0.5598,0.70701l0.64693,0.69574l1.88256,2.52747l2.55998,3.35759l0.28653,0.5002l0.40523,0.52147l1.28251,2.17872l0.05675,0.15239l0.12551,0.17407l1.01879,1.93218l0.11482,0.38847l0.25139,0.44604l0.49142,1.43913l0.01026,0.25528l0.13946,0.32551l0.26606,1.62031l-0.0646,0.26835l0.08107,0.36392l-0.14867,1.03664l-0.06321,0.07496l0.01694,0.13446l-0.37402,1.21783l-0.24274,0.19518l-0.09772,0.31815l-1.9155,1.54012l-0.48744,0.07903l-0.37293,0.20092l-3.61035,0.1515l-0.3877,-0.09163l-0.29026,0.0387l-2.33259,-0.41734l-0.31793,-0.12388l-0.24978,-0.01475l-4.96721,-1.50891l-0.92876,-0.4521l-0.89651,-0.37144l-1.47188,-0.8538l-5.65275,-3.00703l-0.64436,-0.44325l-0.6319,-0.34067l-4.89523,-3.401l-0.01431,-0.01222l-0.01465,-0.00795l-5.79901,-4.05002l-0.15114,-0.12967l-0.15659,-0.09124l-5.92153,-4.36614l-4.75402,-3.47077l-0.28217,-0.25194l-0.29984,-0.19484l-4.5572,-3.67278l-0.06627,-0.06497l-0.07409,-0.04948l-5.34831,-4.41239l-0.10414,-0.1045l-0.11805,-0.08224l-2.48596,-2.12822l-0.54654,-0.56921l-0.60792,-0.52361l-1.73321,-1.81635l-0.00086,-0.00111l-0.07838,-0.05357l-0.85029,-1.15503l-0.88966,-1.15783l0.00207,-0.04786l-0.00082,-0.00111l-0.8678,-1.59506l-0.21774,-0.6871l-0.3313,-0.73957l-0.45159,-2.36506l-0.63808,-3.1172l-1.19582,-5.61218l-0.54428,-1.50491l-0.03621,-0.51889l-0.17331,-0.59867l0.036,-0.94604l0.25195,-0.40791l0.15031,-0.48948l0.56338,-0.45297l0.42292,-0.06859l0.29633,-0.20096l1.31612,-0.14109l0.37582,0.0733l0.27395,-0.05727l1.05267,0.14067l1.70547,-1.37124l0.17337,-0.40465l0.16811,-0.54742z" fill="url(#color-1)"/></g></g></svg>