<svg version="1.1" xmlns="http://www.w3.org/2000/svg" xmlns:xlink="http://www.w3.org/1999/xlink" width="35.32179" height="28.32879" viewBox="0,0,35.32179,28.32879"><defs><radialGradient cx="240.92857" cy="178.82857" r="17.36493" gradientUnits="userSpaceOnUse" id="color-1"><stop offset="0" stop-color="#f0bf83"/><stop offset="1" stop-color="#ca6e3a"/></radialGradient></defs><g transform="translate(-222.3391,-165.5542)"><g stroke="none" stroke-width="0.5" stroke-miterlimit="10"><path d="M255.14532,179.18399c1.44204,0.82402 2.17477,1.94008 2.40505,3.18478c0.67422,3.64424 -2.95858,8.39119 -5.70689,10.14012c-5.08283,3.23453 -13.87813,-0.30472 -19.11886,-2.24339c-2.03263,-0.75192 -10.60154,-3.23766 -6.63278,-7.20642c1.44067,-1.44067 2.42875,-0.75504 3.53553,0c2.59524,1.77044 8.24258,5.09674 11.6608,5.12491c0.38213,0.00315 5.60547,0.2428 7.625,-0.14286c0.16979,-0.03242 3.71156,-3.85753 3.73214,-4.04815c0.12863,-1.19123 -0.69483,-2.98337 0.34546,-3.57783z" fill="#985933"/><path d="M255.82858,171.30197c0.1591,0.18561 0.30524,0.36573 0.43674,0.54107c0.49706,0.45693 0.80857,1.11257 0.80857,1.84096c0,1.38071 -1.11929,2.5 -2.5,2.5c-0.26357,0 -0.51761,-0.04079 -0.75616,-0.11639c-0.21516,-0.06819 -0.41771,-0.16471 -0.60328,-0.28518c-1.76299,-0.50925 -4.09003,-1.5292 -5.87476,-2.30317c-4.29364,-1.86199 -10.4239,-2.58792 -15.15172,-2.29526c-4.44241,0.27499 -4.18076,7.21846 -5.14087,8.17857c-1.75336,1.75336 -4.47319,1.46869 -4.6875,-1.25c-0.34734,-4.40624 3.76645,-11.60325 8.78571,-11.92857c6.77777,-0.4393 12.66963,1.3631 18.75935,3.04147c1.99157,0.54889 4.21636,0.71271 5.79938,2.06959z" fill="#d3a689"/><path d="M256.99924,175.86176l-0.12843,0.51371l-0.08264,0.41321v2.16228l0.3075,0.61499l0.05078,0.22849l0.11697,0.20274l0.28571,1l0.01162,0.34851l0.08457,0.33829v0.71429l-0.11484,0.45934l-0.06397,0.46914l-0.28571,0.71429l-0.22992,0.31835l-0.17072,0.35364l-0.60517,0.72621l-2.04793,3.27668l-1.13095,1.83779l-0.84992,1.41653l-0.31339,0.31339l-0.2686,0.35254l-0.71429,0.57143l-0.00055,0.00025l-0.01439,0.03631l-0.58355,0.23774l-0.57282,0.26254l-0.03632,-0.01438l-0.00056,0.00023l-1,0.14286l-0.3154,-0.03263l-0.31423,0.04246l-1.28571,-0.14286l-0.05519,-0.0205l-0.05864,0.0052l-2.71429,-0.42857l-0.03397,-0.01443l-0.03684,0.0022l-2.28571,-0.42857l-0.1358,-0.06233l-0.14917,-0.00865l-2.27208,-0.71002l-2.84346,-0.85304l-0.06765,-0.04022l-0.07825,-0.00848l-2.71429,-1l-0.00615,-0.00419l-0.00739,-0.00085l-2.28571,-0.85714l-0.26441,-0.18235l-0.29949,-0.11605l-2.35272,-1.66074l-0.63467,-0.3808l-0.34028,-0.34028l-0.37348,-0.30346l-1.71429,-2.28571l-0.06716,-0.15951l-0.11823,-0.12639l-0.71429,-1.28571l-0.06065,-0.22607l-0.12566,-0.19747l-0.85714,-2.57143l-0.03082,-0.40069l-0.09747,-0.38988v-2.42857l0.07464,-0.29857v-0.30776l0.28571,-1.14286l0.04613,-0.08649l0.00752,-0.09774l0.28571,-0.85714l0.13368,-0.21007l0.06742,-0.2397l0.57143,-1l0.13634,-0.14226l0.0821,-0.17913l0.57143,-0.71429l0.20193,-0.15385l0.14978,-0.20496l0.85714,-0.71429l0.08567,-0.04136l0.06169,-0.07242l1,-0.71429l0.26396,-0.10398l0.2276,-0.16937l1.68725,-0.70302l1.25895,-0.55953l0.37879,-0.06629l0.36048,-0.13389l1.28571,-0.14286l0.13951,0.01885l0.13657,-0.03414h4.14286l0.07744,0.01936l0.0785,-0.01449l2.28571,0.14286l0.17958,0.05701l0.1883,-0.00638l1.85262,0.39699l1.30839,0.11894h1.74374l0.12315,0.03079l0.12561,-0.01838l1.42857,0.14286l0.15196,0.05455l0.16143,-0.00294l1.85714,0.42857l0.0504,0.02571l0.05656,0.00147l2.57143,0.71429l0.21153,0.11997l0.23739,0.05275l1.33556,0.66778l0.61774,0.24709l0.086,0.06211l0.10356,0.02301l0.28571,0.14286l0.04606,0.03948l0.97116,0.05395l0.06932,-0.02311l0.03306,0.02879l0.73134,0.04063l0.83853,0.97828l0.14286,0.28571l0.05156,0.232l0.10254,0.08931l0.02255,0.47362l0.10286,0.46286l-0.07543,0.11314l0.0113,0.23739l-0.14286,0.71429l-0.14295,0.30178l-0.07244,0.32597l-0.1176,0.2352l-0.08106,0.48634l-0.04063,0.09345z" fill="url(#color-1)"/><g><path d="M234.40453,170.94322c0.10612,-0.09064 0.21506,-0.17803 0.32679,-0.26194c-1.00316,-2.9299 3.43985,-2.55572 4.15931,-2.07952c0.11234,0.07435 0.21291,0.1601 0.3042,0.25482l0.02066,-0.02066l0.58354,0.58354c0.48884,0.05194 0.92252,0.14866 1.17935,0.23576c0.92284,0.31296 1.57958,1.14255 2.34471,1.74599c1.60999,1.26976 3.74217,1.46568 4.95174,3.31379c3.61767,5.52747 -2.10364,8.71724 -6.79052,9.03189c-3.14466,0.00147 -7.50409,0.18579 -9.68225,-2.68804c-2.19199,-2.89209 -0.82178,-8.16222 2.14345,-9.87549c0.15465,-0.08935 0.30762,-0.16922 0.459,-0.24013z" fill="#ffffff"/><path d="M241.72797,182.22877c0.47719,-1.0352 0.9738,-2.05106 1.02106,-3.21908c0.11789,-2.91336 -2.29528,-4.3998 -3.61384,-6.66972c-0.87572,-1.50757 -1.14801,-3.03132 -1.16469,-4.73129c0,0 0,-1.25 1.25,-1.25c0.36138,0 0.61829,0.10448 0.80092,0.25302c0.13784,-0.24704 0.38993,-0.4715 0.84283,-0.56207c1.22573,-0.24515 1.47087,0.98058 1.47087,0.98058l0.18235,0.96097c0.81816,2.59536 2.593,1.80211 4.69046,3.10786c1.56322,0.97317 2.27381,2.25064 3.06914,3.84131c1.63507,6.07171 -3.06045,10.61687 -8.97378,11.02671c-4.79997,0.33268 -8.76478,-1.7721 -11.62912,-5.48512c0,0 -0.76214,-0.99078 0.22864,-1.75292c0.99078,-0.76214 1.75292,0.22864 1.75292,0.22864c2.35263,3.06799 5.50387,4.78753 9.48199,4.51488c0.10515,-0.0072 0.21022,-0.01619 0.31512,-0.02692c-0.20693,-0.56171 0.13736,-1.05151 0.27514,-1.21685zM244.06794,174.62857c1.61147,2.71114 1.26332,5.39501 0.1633,8.09504c2.70306,-1.17698 4.6168,-3.63327 3.71048,-6.89103c-1.55929,-3.11858 -4.71798,-3.03358 -6.65337,-5.10979c0.7527,1.31304 1.88438,2.39965 2.7796,3.90578z" fill="#f5d0c1"/><path d="M231.98102,181.11676c-1.17474,0.42718 -1.60192,-0.74756 -1.60192,-0.74756l-0.49067,-1.38155c-0.59158,-6.74232 4.07454,-8.8728 8.22597,-13.04062c0,0 0.88388,-0.88388 1.76777,0c0.33018,0.33018 0.41368,0.66036 0.38872,0.94447c0.85824,0.71002 0.19588,1.65624 0.19588,1.65624c-2.82542,3.96018 -1.03606,9.04494 -2.50485,13.45623l-0.64871,1.21177c0,0 -0.60705,1.0927 -1.69975,0.48564c-1.0927,-0.60705 -0.48564,-1.69975 -0.48564,-1.69975l0.4624,-0.78823c1.22507,-3.6709 0.42168,-7.41607 1.39052,-10.97521c-2.59947,2.13909 -4.95515,4.2427 -4.65036,8.21375l0.39822,1.0629c0,0 0.42718,1.17474 -0.74756,1.60192z" fill="#f5d0c1"/></g></g></g></svg>