<svg version="1.1" xmlns="http://www.w3.org/2000/svg" xmlns:xlink="http://www.w3.org/1999/xlink" width="35.60147" height="44.10605" viewBox="0,0,35.60147,44.10605"><g transform="translate(-222.33911,-149.77693)"><g data-paper-data="{&quot;isPaintingLayer&quot;:true}" fill-rule="nonzero" stroke="none" stroke-width="0.5" stroke-linecap="butt" stroke-linejoin="miter" stroke-miterlimit="10" stroke-dasharray="" stroke-dashoffset="0" style="mix-blend-mode: normal"><path d="M239.42507,183.89265l0.03509,0.03008l0.02182,0.00614zM239.21169,183.75542h-0.04762l0.15475,0.07737zM244.51218,179.3754l0.15062,-0.03012l0.12539,-0.12539v-1.94242l-0.10139,-0.40556l-0.03335,-0.05558l-0.1552,-0.24389l-0.66994,-0.66994l-0.09831,-0.06256l-0.37038,-0.15595l-0.09524,-0.07143h-2.48357l-1.37053,0.22842l-0.86386,0.24682l-0.14383,0.00479l-0.13198,0.05738l-0.25583,0.04264l-0.0525,0.03937l-0.57567,0.46054l-0.15562,0.15562l-0.07948,0.11922l0.0167,0.08348l-0.01184,0.24872l0.06039,0.24157v0.16071l0.20014,0.05003l0.56075,0.12461l0.06231,0.03115l0.06966,0.01742l0.01169,0.02045l0.24317,0.08106l0.06342,0.04036l0.07449,0.01016l0.64607,0.25843l0.78745,0.26248l0.25882,0.1647c0.14884,0.01132 0.29403,0.03567 0.43445,0.07192l0.03622,-0.00988l0.06266,0.0376c0.15815,0.04789 0.30967,0.11102 0.45286,0.18769l0.07157,0.01789l0.01883,0.03296c0.14916,0.08803 0.28838,0.19111 0.41557,0.30715l0.24407,0.09763l0.29823,0.21539l0.17084,0.00949l0.02133,0.02489h0.98765l0.10825,-0.02706l0.55675,-0.2227l0.22916,-0.03125zM256.99924,175.86176l-0.12843,0.51371l-0.08264,0.41321v2.16228l0.3075,0.61499l0.05078,0.22849l0.11697,0.20274l0.28571,1l0.01162,0.34851l0.08457,0.33829v0.71429l-0.11484,0.45934l-0.06397,0.46914l-0.28571,0.71429l-0.22992,0.31835l-0.17072,0.35364l-0.60517,0.72621l-2.04793,3.27668l-1.13095,1.83779l-0.84992,1.41653l-0.31339,0.31339l-0.2686,0.35254l-0.71429,0.57143l-0.00055,0.00025l-0.01439,0.03631l-0.58355,0.23774l-0.57282,0.26254l-0.03632,-0.01438l-0.00056,0.00023l-1,0.14286l-0.3154,-0.03263l-0.31423,0.04246l-1.28571,-0.14286l-0.05519,-0.0205l-0.05864,0.0052l-2.71429,-0.42857l-0.03397,-0.01443l-0.03684,0.0022l-2.28571,-0.42857l-0.1358,-0.06233l-0.14917,-0.00865l-2.27208,-0.71002l-2.84346,-0.85304l-0.06765,-0.04022l-0.07825,-0.00848l-2.71429,-1l-0.00615,-0.00419l-0.00739,-0.00085l-2.28571,-0.85714l-0.26441,-0.18235l-0.29949,-0.11605l-2.35272,-1.66074l-0.63467,-0.3808l-0.34028,-0.34028l-0.37348,-0.30346l-1.71429,-2.28571l-0.06716,-0.15951l-0.11823,-0.12639l-0.71429,-1.28571l-0.06065,-0.22607l-0.12566,-0.19747l-0.85714,-2.57143l-0.03082,-0.40069l-0.09747,-0.38988v-2.42857l0.07464,-0.29857v-0.30776l0.28571,-1.14286l0.04613,-0.08649l0.00752,-0.09774l0.28571,-0.85714l0.13368,-0.21007l0.06742,-0.2397l0.57143,-1l0.13634,-0.14226l0.0821,-0.17913l0.57143,-0.71429l0.20193,-0.15385l0.14978,-0.20496l0.85714,-0.71429l0.08567,-0.04136l0.06169,-0.07242l1,-0.71429l0.26396,-0.10398l0.2276,-0.16937l1.68725,-0.70302l1.25895,-0.55953l0.37879,-0.06629l0.36048,-0.13389l1.28571,-0.14286l0.13951,0.01885l0.13657,-0.03414h4.14286l0.07744,0.01936l0.0785,-0.01449l2.28571,0.14286l0.17958,0.05701l0.1883,-0.00638l1.85262,0.39699l1.30839,0.11894h1.74374l0.12315,0.03079l0.12561,-0.01838l1.42857,0.14286l0.15196,0.05455l0.16143,-0.00294l1.85714,0.42857l0.0504,0.02571l0.05656,0.00147l2.57143,0.71429l0.21153,0.11997l0.23739,0.05275l1.33556,0.66778l0.61774,0.24709l0.086,0.06211l0.10356,0.02301l0.28571,0.14286l0.04606,0.03948l0.97116,0.05395l0.06932,-0.02311l0.03306,0.02879l0.73134,0.04063l0.83853,0.97828l0.14286,0.28571l0.05156,0.232l0.10254,0.08931l0.02255,0.47362l0.10286,0.46286l-0.07543,0.11314l0.0113,0.23739l-0.14286,0.71429l-0.14295,0.30178l-0.07244,0.32597l-0.1176,0.2352l-0.08106,0.48634l-0.04063,0.09345z" fill="#b37046"/><path d="M235.64533,176.62554c0.14899,-0.50438 0.3767,-0.93463 0.6655,-1.2967c2.0603,-2.58308 7.22972,-1.6966 9.10731,0.49584c0.76317,0.89115 0.80248,4.32019 -1.06453,3.94679c-2.47911,-0.49582 -0.69834,-2.846 -3.40177,-2.82677c-0.84228,0.00599 -3.36239,1.57826 -3.82043,1.2729z" fill="#985933"/><path d="M255.14533,179.18399c1.44204,0.82402 2.17477,1.94008 2.40505,3.18478c0.67422,3.64424 -2.95858,8.39119 -5.70689,10.14012c-5.08283,3.23453 -13.87813,-0.30472 -19.11886,-2.24339c-2.03263,-0.75192 -10.60154,-3.23766 -6.63278,-7.20642c1.44067,-1.44067 2.42875,-0.75504 3.53553,0c2.59524,1.77044 8.24258,5.09674 11.6608,5.12491c0.38213,0.00315 5.60547,0.2428 7.625,-0.14286c0.16979,-0.03242 3.71156,-3.85753 3.73214,-4.04815c0.12863,-1.19123 -0.69483,-2.98337 0.34546,-3.57783z" fill="#985933"/><path d="M255.82859,171.30197c0.1591,0.18561 0.30524,0.36573 0.43674,0.54107c0.49706,0.45693 0.80857,1.11257 0.80857,1.84096c0,1.38071 -1.11929,2.5 -2.5,2.5c-0.26357,0 -0.51761,-0.04079 -0.75616,-0.11639c-0.21516,-0.06819 -0.41771,-0.16471 -0.60328,-0.28518c-1.76299,-0.50925 -4.09003,-1.5292 -5.87476,-2.30317c-4.29364,-1.86199 -10.4239,-2.58792 -15.15172,-2.29526c-4.44241,0.27499 -4.18076,7.21846 -5.14087,8.17857c-1.75336,1.75336 -4.47319,1.46869 -4.6875,-1.25c-0.34734,-4.40624 3.76645,-11.60325 8.78571,-11.92857c6.77777,-0.4393 12.66963,1.3631 18.75935,3.04147c1.99157,0.54889 4.21636,0.71271 5.79938,2.06959z" fill="#d3a689"/><path d="M241.91065,179.21973c1.24055,0.03791 3.19735,-0.68494 3.94331,0.80697c0.81574,1.63149 -0.83033,2.83151 -2.17182,2.87363c-1.74577,0.05482 -6.47832,-0.25582 -7.5591,-2.14718c-0.54241,-0.32012 -0.90629,-0.91057 -0.90629,-1.586c0,-1.01637 0.82393,-1.8403 1.8403,-1.8403c0.386,0 0.74423,0.11884 1.04013,0.32192c1.06911,0.44705 2.2341,1.5227 3.81347,1.57096z" fill="#d3a689"/><path d="M229.09245,166.15347c0.48116,-1.32388 0.75053,-2.7885 0.99137,-4.11486c0.57066,-3.14275 0.03487,-6.55616 -0.16908,-9.70557c-0.00041,-0.00639 1.99351,0.28358 2.08908,0.29707c0.99955,0.14112 2.02839,0.30111 3.02133,0.48931c6.83956,1.29639 13.75753,4.44218 18.062,10.07255c0.52859,0.69141 2.5439,2.37684 2.5534,3.20588c0.01066,0.92945 -0.80542,2.76534 -1.09334,4.08673c-1.20829,-0.36851 -2.60065,-0.55195 -3.1558,-0.68679c-5.75909,-1.39882 -11.75443,-2.58117 -17.6764,-3.07129c-2.09376,-0.17328 -3.53044,-0.52865 -4.62255,-0.57304z" data-paper-data="{&quot;noHover&quot;:false,&quot;origItem&quot;:[&quot;Path&quot;,{&quot;applyMatrix&quot;:true,&quot;selected&quot;:true,&quot;segments&quot;:[[[233.7576,166.70033],[-2.09376,-0.17328],[5.92197,0.49012]],[[251.35479,169.76376],[-5.75909,-1.39882],[0.55515,0.13484]],[[254.50711,170.45471],[-1.20829,-0.36851],[0.28793,-1.32139]],[[255.59375,166.38026],[0.01066,0.92945],[-0.00951,-0.82905]],[[253.03783,163.18376],[0.52859,0.69141],[-4.30447,-5.63037]],[[235.0583,153.15685],[6.83956,1.29639],[-0.99294,-0.1882]],[[232.04197,152.66243],[0.99955,0.14112],[-0.09557,-0.01349]],[[229.95515,152.36249],[-0.00041,-0.00639],[0.20394,3.14941]],[[230.13376,162.03605],[0.57066,-3.14275],[-0.24084,1.32636]],[[229.13954,166.13664],[0.48116,-1.32388],[1.09211,0.04439]]],&quot;closed&quot;:true}]}" fill="#79a000"/><path d="M231.90687,156.73129c-1.35795,-0.1358 -1.51515,-4.50335 -0.64039,-5.00321c0.21744,-0.36843 0.61849,-0.61558 1.07727,-0.61558c0.69036,0 1.25,0.55964 1.25,1.25c0,0.23633 -0.06559,0.45734 -0.17955,0.64583c0.37779,1.71523 0.01642,3.87534 -1.50733,3.72297z" fill="#496100"/><path d="M235.15625,154.47217c0.04382,-0.93628 -0.64108,-2.34156 0.17273,-2.8066c0.21744,-0.36843 0.61849,-0.61558 1.07727,-0.61558c0.69036,0 1.25,0.55964 1.25,1.25c0,0.04596 -0.00248,0.09133 -0.00731,0.136c1.41782,3.29416 -2.81816,8.99075 -2.49269,2.03617z" fill="#496100"/><path d="M240.40625,153.04999c0.44423,0.25385 0.86816,0.91054 1.1669,1.69909c0.67526,1.78239 0.71089,4.23841 -1.1044,4.23841c-1.45026,0 -1.9628,-4.85161 -1.13977,-5.32192z" fill="#496100"/><path d="M244.59375,160.29999c-1.82954,0 -1.38951,-4.73278 -0.57727,-5.19692c0.21744,-0.36843 0.61849,-0.61558 1.07727,-0.61558c0.69036,0 1.25,0.55964 1.25,1.25c0,0.23366 -0.06411,0.45235 -0.1757,0.63943c0.37597,1.72357 -0.00907,3.92307 -1.5743,3.92307z" fill="#496100"/><path d="M249.59375,157.11249c0.55531,0.31732 0.90584,1.04124 1.07146,1.89416c-0.21872,0.36304 -0.61674,0.60584 -1.07146,0.60584c-0.69036,0 -1.25,-0.55964 -1.25,-1.25c0,-0.69036 0.55964,-1.25 1.25,-1.25c0.69036,0 1.25,0.55964 1.25,1.25c0,0.23563 -0.0652,0.45604 -0.17854,0.64416c0.42713,2.19972 -0.37572,5.25751 -2.06798,4.41138c-0.93847,-0.46923 -0.6087,-5.38826 -0.08075,-5.68995z" fill="#496100"/><path d="M253.70619,162.18572c0.13966,1.3824 -0.90357,6.09781 -2.58119,3.30178c-0.50256,-0.83761 0.2048,-2.25881 0.07182,-3.18965c-0.06631,-0.15255 -0.10307,-0.3209 -0.10307,-0.49785c0,-0.01625 0.00031,-0.03242 0.00092,-0.04852c0.03134,-1.23873 0.63961,-1.45313 1.26175,-1.20142c0.67658,0.00672 1.22449,0.55097 1.2371,1.22612c0.05975,0.13763 0.09917,0.27599 0.11266,0.40954z" fill="#496100"/><path d="M254.3486,168.40072c-1.47077,-0.29415 -0.8258,-3.85483 0.16788,-4.42264c0.21744,-0.36843 0.61849,-0.61558 1.07727,-0.61558c0.69036,0 1.25,0.55964 1.25,1.25c0,0.30329 -0.10801,0.58134 -0.28767,0.79781c0.0202,1.54239 -0.86353,3.25921 -2.20748,2.99042z" fill="#496100"/><path d="M233.7576,166.70033c5.92197,0.49012 11.83809,1.66461 17.59719,3.06343c0.55515,0.13484 1.94404,0.32244 3.15232,0.69095c0.28793,-1.32139 1.09729,-3.145 1.08664,-4.07445c-0.00951,-0.82905 -2.02733,-2.50509 -2.55592,-3.1965c-4.30447,-5.63037 -11.13997,-8.73052 -17.97953,-10.02691c-0.99294,-0.1882 -2.01678,-0.3533 -3.01633,-0.49442c-0.09557,-0.01349 -2.08724,-0.30633 -2.08682,-0.29994c0.20394,3.14941 0.74927,6.53081 0.17861,9.67356c-0.24084,1.32636 -0.51306,2.77671 -0.99422,4.10059c1.09211,0.04439 2.52431,0.39041 4.61807,0.56369zM245.99104,171.16403c-2.36763,-0.35694 -4.67228,-1.00377 -7.05709,-1.31128c-1.7456,-0.22509 -3.6293,-0.64965 -5.38116,-0.67775c-2.23994,-0.03593 -5.607,1.77233 -6.71846,-0.17273c-0.18502,-0.1092 -0.33946,-0.2647 -0.44737,-0.45057c-0.33391,-0.12292 -0.53673,-0.46648 -0.41504,-1.16189c-0.00211,-0.02966 -0.00318,-0.05961 -0.00318,-0.08981c0,-0.19554 0.0449,-0.38058 0.12494,-0.5454c0.80624,-3.43251 1.74306,-5.89736 1.68756,-9.7949c-0.02359,-1.65648 -1.29869,-5.55932 -0.0625,-6.94095c0.8056,-0.90037 9.17088,0.97763 10.45668,1.33378c7.69717,2.13199 23.95104,10.19454 18.76207,20.57247c-0.13835,0.27669 -0.31571,0.4823 -0.51282,0.6197c-1.29669,1.56025 -9.63527,-1.2603 -10.43363,-1.38066z" fill="#000000"/></g></g></svg>