<svg version="1.1" xmlns="http://www.w3.org/2000/svg" xmlns:xlink="http://www.w3.org/1999/xlink" width="59.34913" height="43" viewBox="0,0,59.34913,43"><g transform="translate(-207.74462,-152.54687)"><g data-paper-data="{&quot;isPaintingLayer&quot;:true}" fill-rule="nonzero" stroke="none" stroke-width="0.5" stroke-linecap="butt" stroke-linejoin="miter" stroke-miterlimit="10" stroke-dasharray="" stroke-dashoffset="0" style="mix-blend-mode: normal"><path d="M239.42506,183.89265l0.03509,0.03008l0.02182,0.00614zM239.21168,183.75542h-0.04762l0.15475,0.07737zM244.51217,179.3754l0.15062,-0.03012l0.12539,-0.12539v-1.94242l-0.10139,-0.40556l-0.03335,-0.05558l-0.1552,-0.24389l-0.66994,-0.66994l-0.09831,-0.06256l-0.37038,-0.15595l-0.09524,-0.07143h-2.48357l-1.37053,0.22842l-0.86386,0.24682l-0.14383,0.00479l-0.13198,0.05738l-0.25583,0.04264l-0.0525,0.03937l-0.57567,0.46054l-0.15562,0.15562l-0.07948,0.11922l0.0167,0.08348l-0.01184,0.24872l0.06039,0.24157v0.16071l0.20014,0.05003l0.56075,0.12461l0.06231,0.03115l0.06966,0.01742l0.01169,0.02045l0.24317,0.08106l0.06342,0.04036l0.07449,0.01016l0.64607,0.25843l0.78745,0.26248l0.25882,0.1647c0.14884,0.01132 0.29403,0.03567 0.43445,0.07192l0.03622,-0.00988l0.06266,0.0376c0.15815,0.04789 0.30967,0.11102 0.45286,0.18769l0.07157,0.01789l0.01883,0.03296c0.14916,0.08803 0.28838,0.19111 0.41557,0.30715l0.24407,0.09763l0.29823,0.21539l0.17084,0.00949l0.02133,0.02489h0.98765l0.10825,-0.02706l0.55675,-0.2227l0.22916,-0.03125zM256.99924,175.86176l-0.12843,0.51371l-0.08264,0.41321v2.16228l0.3075,0.61499l0.05078,0.22849l0.11697,0.20274l0.28571,1l0.01162,0.34851l0.08457,0.33829v0.71429l-0.11484,0.45934l-0.06397,0.46914l-0.28571,0.71429l-0.22992,0.31835l-0.17072,0.35364l-0.60517,0.72621l-2.04793,3.27668l-1.13095,1.83779l-0.84992,1.41653l-0.31339,0.31339l-0.2686,0.35254l-0.71429,0.57143l-0.00055,0.00025l-0.01439,0.03631l-0.58355,0.23774l-0.57282,0.26254l-0.03632,-0.01438l-0.00056,0.00023l-1,0.14286l-0.3154,-0.03263l-0.31423,0.04246l-1.28571,-0.14286l-0.05519,-0.0205l-0.05864,0.0052l-2.71429,-0.42857l-0.03397,-0.01443l-0.03684,0.0022l-2.28571,-0.42857l-0.1358,-0.06233l-0.14917,-0.00865l-2.27208,-0.71002l-2.84346,-0.85304l-0.06765,-0.04022l-0.07825,-0.00848l-2.71429,-1l-0.00615,-0.00419l-0.00739,-0.00085l-2.28571,-0.85714l-0.26441,-0.18235l-0.29949,-0.11605l-2.35272,-1.66074l-0.63467,-0.3808l-0.34028,-0.34028l-0.37348,-0.30346l-1.71429,-2.28571l-0.06716,-0.15951l-0.11823,-0.12639l-0.71429,-1.28571l-0.06065,-0.22607l-0.12566,-0.19747l-0.85714,-2.57143l-0.03082,-0.40069l-0.09747,-0.38988v-2.42857l0.07464,-0.29857v-0.30776l0.28571,-1.14286l0.04613,-0.08649l0.00752,-0.09774l0.28571,-0.85714l0.13368,-0.21007l0.06742,-0.2397l0.57143,-1l0.13634,-0.14226l0.0821,-0.17913l0.57143,-0.71429l0.20193,-0.15385l0.14978,-0.20496l0.85714,-0.71429l0.08567,-0.04136l0.06169,-0.07242l1,-0.71429l0.26396,-0.10398l0.2276,-0.16937l1.68725,-0.70302l1.25895,-0.55953l0.37879,-0.06629l0.36048,-0.13389l1.28571,-0.14286l0.13951,0.01885l0.13657,-0.03414h4.14286l0.07744,0.01936l0.0785,-0.01449l2.28571,0.14286l0.17958,0.05701l0.1883,-0.00638l1.85262,0.39699l1.30839,0.11894h1.74374l0.12315,0.03079l0.12561,-0.01838l1.42857,0.14286l0.15196,0.05455l0.16143,-0.00294l1.85714,0.42857l0.0504,0.02571l0.05656,0.00147l2.57143,0.71429l0.21153,0.11997l0.23739,0.05275l1.33556,0.66778l0.61774,0.24709l0.086,0.06211l0.10356,0.02301l0.28571,0.14286l0.04606,0.03948l0.97116,0.05395l0.06932,-0.02311l0.03306,0.02879l0.73134,0.04063l0.83853,0.97828l0.14286,0.28571l0.05156,0.232l0.10254,0.08931l0.02255,0.47362l0.10286,0.46286l-0.07543,0.11314l0.0113,0.23739l-0.14286,0.71429l-0.14295,0.30178l-0.07244,0.32597l-0.1176,0.2352l-0.08106,0.48634l-0.04063,0.09345z" fill="#b37046"/><path d="M235.64532,176.62554c0.14899,-0.50438 0.3767,-0.93463 0.6655,-1.2967c2.0603,-2.58308 7.22972,-1.6966 9.10731,0.49584c0.76317,0.89115 0.80248,4.32019 -1.06453,3.94679c-2.47911,-0.49582 -0.69834,-2.846 -3.40177,-2.82677c-0.84228,0.00599 -3.36239,1.57826 -3.82043,1.2729z" fill="#985933"/><path d="M255.14532,179.18399c1.44204,0.82402 2.17477,1.94008 2.40505,3.18478c0.67422,3.64424 -2.95858,8.39119 -5.70689,10.14012c-5.08283,3.23453 -13.87813,-0.30472 -19.11886,-2.24339c-2.03263,-0.75192 -10.60154,-3.23766 -6.63278,-7.20642c1.44067,-1.44067 2.42875,-0.75504 3.53553,0c2.59524,1.77044 8.24258,5.09674 11.6608,5.12491c0.38213,0.00315 5.60547,0.2428 7.625,-0.14286c0.16979,-0.03242 3.71156,-3.85753 3.73214,-4.04815c0.12863,-1.19123 -0.69483,-2.98337 0.34546,-3.57783z" fill="#985933"/><path d="M255.82858,171.30197c0.1591,0.18561 0.30524,0.36573 0.43674,0.54107c0.49706,0.45693 0.80857,1.11257 0.80857,1.84096c0,1.38071 -1.11929,2.5 -2.5,2.5c-0.26357,0 -0.51761,-0.04079 -0.75616,-0.11639c-0.21516,-0.06819 -0.41771,-0.16471 -0.60328,-0.28518c-1.76299,-0.50925 -4.09003,-1.5292 -5.87476,-2.30317c-4.29364,-1.86199 -10.4239,-2.58792 -15.15172,-2.29526c-4.44241,0.27499 -4.18076,7.21846 -5.14087,8.17857c-1.75336,1.75336 -4.47319,1.46869 -4.6875,-1.25c-0.34734,-4.40624 3.76645,-11.60325 8.78571,-11.92857c6.77777,-0.4393 12.66963,1.3631 18.75935,3.04147c1.99157,0.54889 4.21636,0.71271 5.79938,2.06959z" fill="#d3a689"/><path d="M241.91064,179.21973c1.24055,0.03791 3.19735,-0.68494 3.94331,0.80697c0.81574,1.63149 -0.83033,2.83151 -2.17182,2.87363c-1.74577,0.05482 -6.47832,-0.25582 -7.5591,-2.14718c-0.54241,-0.32012 -0.90629,-0.91057 -0.90629,-1.586c0,-1.01637 0.82393,-1.8403 1.8403,-1.8403c0.386,0 0.74423,0.11884 1.04013,0.32192c1.06911,0.44705 2.2341,1.5227 3.81347,1.57096z" fill="#d3a689"/><path d="M234.46875,168.92188c0.91756,0 1.71966,0.49431 2.15454,1.23117l0.03296,0.01883l0.01789,0.07157c0.04492,0.08389 0.08519,0.17063 0.12047,0.2599l0.06401,0.016l0.40069,0.03082l0.375,0.125l0.15181,0.09661l0.17566,0.03903l0.09109,0.04554l0.57157,0.19052h6.43119l0.02336,-0.01558l0.07009,0.01558h0.06966l0.5,0.125h0.25l0.29857,0.07464h0.30776l0.20143,0.05036h0.06724l0.29857,0.07464h0.30776l0.5,0.125l0.08649,0.04613l0.09774,0.00752l0.65891,0.21964l0.40685,0.10171l0.08649,0.04613l0.09774,0.00752l0.45721,0.1524l0.2671,0.06678l0.40069,0.03082l0.36512,0.12171h0.09431l0.38988,0.09747l0.3579,0.02753h0.12722l0.29857,0.07464h0.30776l0.20143,0.05036h0.31724l0.38988,0.09747l0.40069,0.03082l0.75,0.25l0.28172,0.17927l0.31447,0.11231l0.375,0.25l0.1675,0.18425l0.08152,0.04891l0.01178,0.00065l0.01132,0.0132l0.10891,0.06535l0.25,0.25l0.08176,0.13627l0.24552,0.28644l0.37626,0.32251l0.00692,0.12453l0.13284,0.15498l0.14231,0.28461l0.09616,0.16026l0.26154,0.30513l0.05205,0.1041l0.02438,0.01393l0.01742,0.06966l0.03115,0.06231l0.03145,0.14152l0.03816,0.06361l-0.01324,0.04855l0.04363,0.19633l0.025,0.05l0.12461,0.56075l0.13932,0.55728v0.06966l0.01558,0.07009l-0.01558,0.02336v0.02912l0.05036,0.20143v0.30776l0.07464,0.29857v2.83688l0.01558,0.02336l-0.01558,0.07009v0.06966l-0.13932,0.55728l-0.12461,0.56075l-0.025,0.05l-0.1,0.45l-0.03115,0.06231l-0.01742,0.06966l-0.0131,0.00748l-0.0527,0.15809l-0.09661,0.15181l-0.03903,0.17566l-0.25,0.5l-0.26154,0.30513l-0.20676,0.34461l-0.4375,0.4375l-0.1083,0.1805l-0.00065,0.01178l-0.0132,0.01132l-0.06535,0.10891l-0.25,0.25l-0.10891,0.06535l-0.01132,0.0132l-0.01178,0.00065l-0.2126,0.12756l-0.30513,0.26154l-0.28461,0.14231l-0.30823,0.18494l-0.48463,0.3084l-0.06609,0.02203l-0.06157,0.03694l-0.02709,-0.00739l-0.0517,0.01723l-0.09109,0.04554l-0.26876,0.05973l-0.24293,0.12956l-0.40685,0.10171l-0.11536,0.03845l-0.09109,0.04554l-0.10356,0.02301l-0.086,0.06211l-0.14856,0.05942l-0.02426,0.02426l-0.00566,0.02546l0,0.23775l0.07019,0.42114l0.22302,0.81772l0.19286,0.22501l0.11025,0.22049l0.01666,0.01428l0.14877,0.05313l0.15841,0.10561l0.3151,0.12604l0.25377,0.08459l0.4861,0.13889h0.02486l0.17457,0.04364l0.17899,-0.01852l0.69912,0.09987h0.19733l0.29857,0.07464h0.30776l0.12129,0.03032l0.28208,-0.05642l0.24872,0.01184l0.24157,-0.06039h0.44466l0.04086,-0.00908l0.086,-0.06211l0.625,-0.25l0.07449,-0.01016l0.06342,-0.04036l0.375,-0.125l0.09774,-0.00752l0.08649,-0.04613l1.37402,-0.34351l0.86435,-0.31431l0.79113,-0.93497l0.07684,-0.84526v-0.54059l-0.11764,-1.52927l0.01641,-0.09664l-0.02377,-0.0951l0,-4.84436l-0.23069,-1.84556l0.01901,-0.15683l-0.03831,-0.15326v-0.75245l-0.06478,-0.32392l-0.08729,-0.34914l-0.09464,-0.28391l-0.00752,-0.09774l-0.04613,-0.08649l-0.125,-0.5l0,-0.22671l-0.00972,-0.02917l-0.33269,-0.33269l-0.00731,-0.01218l-0.04394,-0.01236l-0.2922,-0.54787l-0.31946,-0.53244l0.01201,-0.04404l-0.00669,-0.01254l-0.01997,-0.07989l-0.0098,-0.01469l-0.03383,-0.09473l-0.07354,-0.04202l-0.13658,-0.54632l-0.1894,-0.53033l0.03788,-0.07576l-0.0244,-0.09758v-0.08641l-0.17996,-0.03599l-0.17246,-0.27101l-0.24389,-0.20905l-0.0106,-0.19087l-0.26479,-0.4161l-0.06882,-0.20645l-0.22259,-0.44519l-0.02438,-0.01393l-0.01742,-0.06966l-0.03115,-0.06231l-0.09027,-0.40622l-0.07018,-0.11697l-0.16598,-0.09485l-0.07791,-0.31164l-0.16527,-0.27545l0.03249,-0.11912l-0.01493,-0.02986l-0.02438,-0.01393l-0.01742,-0.06966l-0.03115,-0.06231l-0.1,-0.45l-0.05712,-0.11424l-0.32813,-0.28125l-0.00692,-0.12453l-0.13284,-0.15498l-0.25446,-0.50893l-0.02023,-0.01214l-0.01178,-0.00065l-0.01132,-0.0132l-0.10891,-0.06535l-0.25,-0.25l-0.08176,-0.13627l-0.24552,-0.28644l-0.22242,-0.19064l-0.18031,-0.0601l-0.4345,-0.10863l-0.56075,-0.12461l-0.06231,-0.03115l-0.06966,-0.01742l-0.00748,-0.0131l-0.08309,-0.0277l-0.325,-0.025l-0.375,-0.125l-0.09861,-0.06275l-0.23582,-0.05895h-0.125l-0.38988,-0.09747l-0.3579,-0.02753h-0.00222l-0.00099,-0.00025l-0.03958,-0.00304l-0.08221,-0.0274l-0.2671,-0.06678l-0.3579,-0.02753l-1.50445,0l-0.3579,0.02753l-0.2671,0.06678l-0.08221,0.0274l-0.03958,0.00304l-0.00099,0.00025l-0.00222,0l-0.3579,0.02753l-0.2671,0.06678l-0.08221,0.0274l-0.03958,0.00304l-0.00099,0.00025l-0.00222,0l-0.3579,0.02753l-0.38988,0.09747h-0.25222l-0.3579,0.02753l-0.38988,0.09747h-0.25222l-0.16072,0.01236l-0.09295,0.08317l-0.49411,-0.03801l-0.49411,0.03801l-0.09295,-0.08317l-0.16072,-0.01236h-0.75222l-0.38988,-0.09747l-0.40069,-0.03082l-0.3,-0.1l-0.25002,-0.01923l-0.01965,0.0131l-0.07009,-0.01558h-0.06966l-0.55728,-0.13932l-0.56075,-0.12461l-0.06231,-0.03115l-0.06966,-0.01742l-0.00748,-0.0131l-0.53309,-0.1777l-0.4161,-0.26479l-0.19087,-0.0106l-0.20905,-0.24389l-0.27101,-0.17246l-0.03749,-0.18746l-0.32097,-0.37447l-0.125,-0.25l-0.03903,-0.17566l-0.09661,-0.15181l-0.25,-0.75l-0.03082,-0.40069l-0.09747,-0.38988v-1.12722l-0.02264,-0.29431l-0.08804,-0.39618l-0.08581,-0.34324l-0.07128,-0.07128l-0.1875,-0.3125l-0.33269,-0.33269l-0.00262,-0.00087l-0.15181,-0.09661l-0.17566,-0.03903l-0.25,-0.125l-0.11994,-0.10281l-0.14877,-0.05313l-0.22143,-0.14762l-0.0913,-0.03043l-1.31,-0.3275l-0.65152,-0.10859l-0.18186,-0.07907l-0.19772,-0.01521l-0.28391,-0.09464l-0.28174,-0.07043l-0.57145,-0.08164h-0.32233l-0.20271,-0.05068l-0.20829,0.01666l-0.54591,-0.09098h-1.17054l-0.78219,0.15644l-0.94034,0.37614l-1.07112,0.53556l-1.05708,0.63425l-0.86558,0.64919l-0.5945,0.4756l-0.10057,0.04609l-0.07442,0.08186l-0.05205,0.0347l-0.25753,0.32191l-0.11198,0.08532l-0.07243,0.12071l-0.41981,0.41981l-0.36665,0.43998l-0.44873,0.89747l-0.03257,0.08143v0.01854l-0.07464,0.29857v0.30776l-0.05036,0.20143l0,0.56969l0.07645,0.38226l-0.01184,0.24872l0.06039,0.24157l0,0.37722l0.01192,0.15492l0.07907,0.18186l0.11837,0.71024l0.10543,0.52714l0.06942,0.27768l0.18699,0.46747l0.02324,0.1704l0.08093,0.15174l0.02021,0.08084l0.25062,0.34702l0.0997,0.24925l0.00979,0.01631l-0.00132,0.00485l0.01903,0.04758l0.17661,0.23548l0.02757,0.06547l0.05256,0.04778l0.01246,0.01869l0.15741,0.11806l0.10936,0.13459l0.09976,0.04988l0.49036,0.16345l0.10828,0.02707h0.31724l0.20271,0.05068l0.20829,-0.01666l2.04591,0.34098h2.85559l0.03296,-0.01883c0.43488,-0.73685 1.23698,-1.23117 2.15454,-1.23117zM234.25932,175.04358l-0.40069,0.03082l-0.38988,0.09747h-4.25l-0.20271,-0.05068l-0.20829,0.01666l-2.04591,-0.34098h-0.41809l-0.29857,-0.07464h-0.30776l-0.5,-0.125l-0.08649,-0.04613l-0.09774,-0.00752l-0.75,-0.25l-0.15181,-0.09661l-0.17566,-0.03903l-0.5,-0.25l-0.30513,-0.26154l-0.34461,-0.20676l-0.12437,-0.12437l-0.35786,-0.2684l-0.26692,-0.32852l-0.31321,-0.28473l-0.21151,-0.31726l-0.33337,-0.44449l-0.12803,-0.30406l-0.19316,-0.26746l-0.10293,-0.25732l-0.1871,-0.35081l-0.31946,-0.53244l0.01201,-0.04404l-0.00669,-0.01254l-0.08385,-0.3354l-0.18699,-0.46747l-0.02324,-0.1704l-0.08093,-0.15174l-0.125,-0.5v-0.06096l-0.0261,-0.05509l-0.125,-0.625l0.00197,-0.04134l-0.0165,-0.03795l-0.09275,-0.55652l-0.06297,-0.18891l-0.03082,-0.40069l-0.09747,-0.38988l0,-0.50245l-0.07645,-0.38226l0.01184,-0.24872l-0.06039,-0.24157v-1.125l0.07464,-0.29857l0,-0.30776l0.05036,-0.20143v-0.19224l0.11484,-0.45934l0.06397,-0.46914l0.25,-0.625l0.06211,-0.086l0.02301,-0.10356l0.625,-1.25l0.18915,-0.22068l0.12636,-0.26175l0.625,-0.75l0.09332,-0.0682l0.05947,-0.09911l0.40209,-0.40209l0.4135,-0.51688l0.30635,-0.23341l0.25907,-0.28498l0.28473,-0.18982l0.54028,-0.43223l0.03645,-0.01671l0.02529,-0.03112l1,-0.75l0.12096,-0.05093l0.0928,-0.0928l1.25,-0.75l0.09378,-0.02854l0.07443,-0.06379l1.25,-0.625l0.10356,-0.02301l0.086,-0.06211l1.25,-0.5l0.22916,-0.03125l0.20902,-0.09901l1.25,-0.25l0.24872,0.01184l0.24157,-0.06039h1.625l0.20271,0.05068l0.20829,-0.01666l0.54591,0.09098h0.29309l0.17457,0.04364l0.17899,-0.01852l0.875,0.125l0.12154,0.04952h0.13124l0.5,0.125l0.08649,0.04613l0.09774,0.00752l0.18891,0.06297l0.55652,0.09275l0.09345,0.04063h0.1019l1.5,0.375l0.08649,0.04613l0.09774,0.00752l0.375,0.125l0.15181,0.09661l0.17566,0.03903l0.25,0.125l0.11994,0.10281l0.14877,0.05313l0.22143,0.14762l0.02764,0.00921l0.02709,-0.00739l0.06157,0.03694l0.06609,0.02203l0.48463,0.3084l0.30823,0.18494l0.03461,0.01731l0.01346,0.01154l0.13627,0.08176l0.04926,0.04926l0.06058,0.03855l0.00551,0.02754l0.07216,0.07216l0.3125,0.1875l0.5,0.5l0.1875,0.3125l0.1875,0.1875l0.08176,0.13627l0.01154,0.01346l0.01731,0.03461l0.0175,0.02917l0.18425,0.1675l0.25,0.375l0.05313,0.14877l0.10281,0.11994l0.17705,0.3541l0.02438,0.01393l0.01742,0.06966l0.03115,0.06231l0.12461,0.56075l0.13932,0.55728v0.06966l0.01558,0.07009l-0.01558,0.02336l0,0.05619l0.12171,0.36512l0.03082,0.40069l0.09747,0.38988l0,0.49056l0.16557,0.01274l0.3,0.1l0.28221,0.02171h0.75222l0.375,0.09375l0.375,-0.09375h0.25222l0.3579,-0.02753l0.38988,-0.09747l0.25222,0l0.3579,-0.02753l0.2671,-0.06678l0.08221,-0.0274l0.03958,-0.00304l0.00099,-0.00025l0.00222,0l0.3579,-0.02753l0.2671,-0.06678l0.08221,-0.0274l0.03958,-0.00304l0.00099,-0.00025l0.00222,0l0.3579,-0.02753l0.38988,-0.09747h2.25l0.38988,0.09747l0.3579,0.02753h0.00222l0.00099,0.00025l0.03958,0.00304l0.08221,0.0274l0.2671,0.06678l0.21365,0.01643l0.00672,-0.00448l0.03439,0.00764l0.10314,0.00793h0.00222l0.00099,0.00025l0.03958,0.00304l0.08221,0.0274l0.3495,0.08738l0.01297,-0.00865l0.07009,0.01558h0.06966l0.55728,0.13932l0.56075,0.12461l0.06231,0.03115l0.06966,0.01742l0.00748,0.0131l0.08309,0.0277l0.325,0.025l0.375,0.125l0.09861,0.06275l0.12569,0.03142l0.40069,0.03082l0.75,0.25l0.15181,0.09661l0.17566,0.03903l0.5,0.25l0.30513,0.26154l0.2126,0.12756l0.01178,0.00065l0.01132,0.0132l0.10891,0.06535l0.25,0.25l0.06535,0.10891l0.0132,0.01132l0.00065,0.01178l0.00256,0.00427l0.24552,0.28644l0.37626,0.32251l0.00233,0.04202l0.01063,0.00709l0.03826,0.00213l0.42089,0.49104l0.43504,0.47854l-0.00264,0.03823l0.26736,0.53471l0.32813,0.28125l0.00692,0.12453l0.13284,0.15498l0.30205,0.6041l0.02438,0.01393l0.01742,0.06966l0.03115,0.06231l0.1,0.45l0.07705,0.1541l0.02438,0.01393l0.01742,0.06966l0.03115,0.06231l0.0625,0.28125l0.1875,0.21875l0.05205,0.1041l0.02438,0.01393l0.01742,0.06966l0.03115,0.06231l0.03145,0.14152l0.03816,0.06361l-0.01324,0.04855l0.04363,0.19633l0.16559,0.33118l0.01009,0.00673l0.08536,0.0939l0.09469,0.01321l0.31954,0.44244l0.36712,0.40384l-0.00658,0.09538l0.0743,0.10288l0.25,0.625l0.02324,0.1704l0.08093,0.15174l0.125,0.5v0.30776l0.04456,0.17823l0.00411,0.0115l0.05409,0.10142l0.24931,0.24931l0.02754,0.00551l0.03855,0.06058l0.04926,0.04926l0.29554,0.49257l0.3084,0.48463l0.02203,0.06609l0.03694,0.06157l-0.00739,0.02709l0.19842,0.59525l0.02999,0.38987l0.02366,0.04436l0.10171,0.40685l0.09464,0.28391l0.00752,0.09774l0.04613,0.08649l0.125,0.5v0.06096l0.0261,0.05509l0.125,0.625l-0.01184,0.24872l0.06039,0.24157l0,0.84436l0.23069,1.84556l-0.01901,0.15683l0.03831,0.15326v4.90399l0.11764,1.52927l-0.01641,0.09664l0.02377,0.0951v0.75l-0.02803,0.11213l0.01777,0.11421l-0.125,1.375l-0.11951,0.34261l-0.04903,0.35953l-0.25,0.625l-0.23529,0.32579l-0.17743,0.36059l-1.375,1.625l-0.28531,0.20522l-0.23641,0.26005l-0.375,0.25l-0.28317,0.10113l-0.24922,0.16823l-1.375,0.5l-0.13143,0.01369l-0.11659,0.06218l-1.40685,0.35171l-0.21422,0.07141l-0.46024,0.1841l-0.15699,0.0785l-0.17566,0.03903l-0.15181,0.09661l-0.375,0.125l-0.40069,0.03082l-0.38988,0.09747h-0.62745l-0.38226,0.07645l-0.24872,-0.01184l-0.24157,0.06039h-0.375l-0.29857,-0.07464h-0.30776l-0.20143,-0.05036h-0.06724l-0.17457,-0.04364l-0.17899,0.01852l-0.69912,-0.09987h-0.19733l-0.33829,-0.08457l-0.34851,-0.01162l-0.875,-0.25l-0.04824,-0.02783l-0.05553,-0.00427l-0.375,-0.125l-0.06342,-0.04036l-0.07449,-0.01016l-0.625,-0.25l-0.212,-0.15311l-0.24627,-0.08795l-0.2455,-0.16366l-0.36079,-0.18039l-0.30513,-0.26154l-0.2126,-0.12756l-0.01178,-0.00065l-0.01132,-0.0132l-0.10891,-0.06535l-0.25,-0.25l-0.06535,-0.10891l-0.0132,-0.01132l-0.00065,-0.01178l-0.12756,-0.2126l-0.26154,-0.30513l-0.16793,-0.33586l-0.00253,-0.00065l-0.31641,-0.56404l-0.33274,-0.55457l0.01008,-0.03697l-0.36631,-1.34315l-0.00274,-0.12872l-0.05134,-0.11807l-0.125,-0.75l0.01666,-0.20829l-0.05068,-0.20271v-0.83688l-0.01558,-0.02336l0.01558,-0.07009v-0.06966l0.13932,-0.55728l0.12461,-0.56075l0.03115,-0.06231l0.01742,-0.06966l0.02438,-0.01393l0.09759,-0.19519l0.01723,-0.0517l-0.00739,-0.02709l0.03694,-0.06157l0.02203,-0.06609l0.3084,-0.48463l0.29554,-0.49257l0.04926,-0.04926l0.03855,-0.06058l0.02754,-0.00551l0.42872,-0.42872l0.00069,-0.00498l0.01542,-0.01114l0.18983,-0.18983l0.43142,-0.25885l0.40787,-0.29457l0.24925,-0.0997l0.01631,-0.00979l0.00485,0.00132l0.25804,-0.10322l0.15699,-0.0785l0.17566,-0.03903l0.15181,-0.09661l0.375,-0.125l0.09774,-0.00752l0.08649,-0.04613l0.23376,-0.05844l0.00454,-0.00227l0.04088,-0.00908l0.14447,-0.03612l0.14212,-0.09044l0.02992,-0.00997l0.26762,-0.22939l0.08035,-0.04018l0.14491,-0.24152l0.20769,-0.20769l0.06337,-0.19012l0.09661,-0.15181l0.0251,-0.11296v-2.3869l-0.05036,-0.20143l0,-0.30776l-0.07464,-0.29857l0,-0.10655l-0.23607,-0.27541l-0.03212,-0.06424l-0.20859,-0.17879h-0.14822l-0.29857,-0.07464h-0.30776l-0.20143,-0.05036h-0.19224l-0.38988,-0.09747l-0.3579,-0.02753h-0.12722l-0.38988,-0.09747l-0.40069,-0.03082l-0.45721,-0.1524l-0.2671,-0.06678l-0.40069,-0.03082l-0.65891,-0.21964l-0.40685,-0.10171l-0.08649,-0.04613l-0.09774,-0.00752l-0.65891,-0.21964l-0.10828,-0.02707h-0.06724l-0.29857,-0.07464h-0.30776l-0.20143,-0.05036l-0.02912,0l-0.02336,0.01558l-0.07009,-0.01558h-0.06966l-0.5,-0.125h-6.75l-0.38988,-0.09747l-0.40069,-0.03082l-1.125,-0.375l-0.15181,-0.09661l-0.17566,-0.03903l-0.06231,-0.03115l-0.37694,-0.09424l-0.56075,-0.12461l-0.06231,-0.03115l-0.06966,-0.01742l-0.00748,-0.0131l-0.00334,-0.00111l-0.02709,0.00739l-0.06157,-0.03694l-0.06609,-0.02203l-0.14398,-0.09163z" fill="#000000"/><path d="M232.36128,170.1699l-0.03292,0.01872l-2.85458,-0.0032l-2.04573,-0.34165l-0.20823,0.01646l-0.20271,-0.05068l-0.31718,-0.00023l-0.20514,-0.05195l-0.49034,-0.16355l-0.09975,-0.04995l-0.10928,-0.13487l-0.15736,-0.11826l-0.01245,-0.01873l-0.05254,-0.04787l-0.02752,-0.06561l-0.17648,-0.23595l-0.019,-0.04769l0.00133,-0.00486l-0.00978,-0.01634l-0.09954,-0.2498l-0.25042,-0.34767l-0.02015,-0.08102l-0.08083,-0.15204l-0.02311,-0.17078l-0.18666,-0.46839l-0.06921,-0.27825l-0.10502,-0.5282l-0.11779,-0.71163l-0.07894,-0.18216l-0.01178,-0.15523l0.00035,-0.37797l-0.06019,-0.24198l0.01208,-0.24921l-0.07613,-0.3829l0.00055,-0.57073l0.05058,-0.20183l0.0003,-0.3083l0.07498,-0.29916l0.00002,-0.01858l0.03267,-0.0816l0.44995,-0.8994l0.36738,-0.44105l0.42059,-0.4209l0.07262,-0.12097l0.11216,-0.08556l0.25811,-0.32266l0.05213,-0.03481l0.07458,-0.08206l0.10071,-0.04627l0.59561,-0.47693l0.86725,-0.65102l1.05909,-0.63623l1.07319,-0.53739l0.94218,-0.3776l0.78363,-0.15749l1.17259,-0.00136l0.54683,0.09042l0.20871,-0.01691l0.20305,0.05048l0.32298,-0.00037l0.57255,0.08104l0.28227,0.07016l0.28444,0.09438l0.19814,0.015l0.18218,0.07891l0.65294,0.10794l1.31299,0.3263l0.09152,0.03036l0.22189,0.14746l0.14913,0.05301l0.12018,0.10273l0.25059,0.12481l0.17613,0.03889l0.15217,0.0965l0.00262,0.00087l0.33339,0.33248l0.18781,0.31241l0.07144,0.07123l0.11209,0.43972l0.08811,0.39616l0.02284,0.29426l0.00115,1.12689l0.09755,0.38985l0.03118,0.40058l0.22008,0.65458l0.09681,0.15175l0.03897,0.17568l0.12521,0.24994l0.32192,0.37419l0.03742,0.18748l0.27208,0.17217l0.20979,0.24371l0.19184,0.01038l0.41802,0.2644l0.53591,0.17726l0.00752,0.01309l0.07005,0.01737l0.06264,0.03111l0.56399,0.12436l0.56062,0.13928l0.07008,0.00001l0.07052,0.01559l0.01977,-0.0131l0.25154,0.01932l0.30187,0.10017l0.40312,0.03115l0.39229,0.09792l0.75649,0.0011l0.16161,0.01265l0.0936,0.08338l0.4966,-0.03708l0.4966,0.03909l0.0932,-0.08305l0.16143,-0.01202l0.25334,0.00057l0.3913,-0.0967l0.35925,-0.02674l0.25317,0.00059l0.39104,-0.0967l0.35903,-0.02674l0.00223,0.00001l0.00099,-0.00025l0.0397,-0.00296l0.08241,-0.02726l0.26777,-0.06627l0.35889,-0.02676l0.00223,0.00001l0.00099,-0.00025l0.03969,-0.00296l0.08238,-0.02727l0.26768,-0.0663l0.35876,-0.02679l1.50776,0.00318l0.35862,0.02831l0.2677,0.06745l0.0824,0.02762l0.03965,0.00313l0.00099,0.00025l0.00223,0l0.35853,0.02828l0.39064,0.09842l0.12518,0.00023l0.23625,0.05951l0.09886,0.06308l0.37569,0.12595l0.32542,0.02561l0.08323,0.0279l0.00751,0.01314l0.06977,0.01757l0.06242,0.03133l0.56152,0.1258l0.43507,0.10955l0.18055,0.06051l0.22287,0.19144l0.2461,0.28751l0.082,0.13673l0.25049,0.25098l0.10906,0.06566l0.01134,0.01325l0.01179,0.00067l0.02026,0.0122l0.25522,0.5106l0.13308,0.15555l0.00706,0.12488l0.32857,0.28239l0.05726,0.11462l0.10049,0.45138l0.03122,0.06251l0.01749,0.06988l0.0244,0.014l0.01496,0.02996l-0.03239,0.11944l0.16556,0.2764l0.07819,0.31262l0.16609,0.09526l0.07028,0.11737l0.09058,0.4075l0.0312,0.06251l0.01746,0.06988l0.02439,0.01399l0.22289,0.44667l0.06893,0.20711l0.26501,0.41748l0.01068,0.19146l0.24398,0.20977l0.17255,0.27187l0.17998,0.03615l0.00002,0.08666l0.02442,0.09788l-0.03786,0.07598l0.1895,0.53194l0.13663,0.54795l0.07355,0.04215l0.03383,0.095l0.0098,0.01474l0.01997,0.08013l0.00669,0.01257l-0.01201,0.04416l0.31944,0.53396l0.29213,0.54939l0.04394,0.01238l0.00731,0.01222l0.33262,0.33354l0.00972,0.02925l-0.00006,0.22733l0.12486,0.50131l0.0461,0.08671l0.00748,0.09799l0.09454,0.28463l0.08715,0.35002l0.06464,0.32473l-0.00039,0.75436l0.03823,0.15362l-0.0191,0.15723l0.22949,1.84978l-0.00439,4.85397l0.02369,0.09524l-0.01652,0.09682l0.11616,1.53157l-0.00055,0.54138l-0.07776,0.84652l-0.79274,0.93699l-0.86548,0.31561l-1.37583,0.34541l-0.08664,0.04628l-0.09786,0.00764l-0.37558,0.12556l-0.06354,0.04047l-0.07459,0.01025l-0.62606,0.25097l-0.08618,0.06227l-0.04093,0.00914l-0.44525,0.00051l-0.24197,0.06073l-0.24905,-0.01157l-0.28255,0.0568l-0.12143,-0.03021l-0.30822,0.00036l-0.29894,-0.07436l-0.19764,0.00023l-0.70013,-0.09914l-0.17931,0.01874l-0.17481,-0.04347l-0.02491,0.00003l-0.48679,-0.13842l-0.25413,-0.08435l-0.31554,-0.12576l-0.15859,-0.1055l-0.149,-0.05299l-0.06948,-0.0992l-0.0574,-0.1356l-0.24566,-0.30993l-0.22361,-0.81735l-0.07061,-0.42087l-0.00033,-0.23754l0.00561,-0.02543l0.02418,-0.0242l0.14817,-0.05916l0.08574,-0.06193l0.10332,-0.02284l0.09084,-0.04537l0.11508,-0.03825l0.40593,-0.10103l0.24229,-0.12907l0.26819,-0.05927l0.09086,-0.04536l0.05158,-0.01714l0.02705,0.00742l0.06141,-0.03681l0.06594,-0.02191l0.48337,-0.30732l0.30747,-0.18425l0.28397,-0.1417l0.30431,-0.26073l0.21212,-0.12707l0.01176,-0.00064l0.01128,-0.01317l0.10867,-0.06509l0.24931,-0.24926l0.06511,-0.10864l0.01317,-0.01128l0.00064,-0.01176l0.10791,-0.18005l0.43636,-0.43615l0.20605,-0.34371l0.26084,-0.30421l0.24908,-0.49871l0.03876,-0.17526l0.09632,-0.15138l0.05244,-0.1577l0.01308,-0.00745l0.01731,-0.06949l0.03104,-0.06214l0.09933,-0.44892l0.02492,-0.04986l0.12381,-0.55936l0.13854,-0.55582l-0.00008,-0.0695l0.01548,-0.06991l-0.0156,-0.02333l-0.00304,-2.82933l-0.07489,-0.29776l-0.00026,-0.30684l-0.05051,-0.20085l-0.00002,-0.02903l0.01556,-0.02328l-0.01563,-0.06989l-0.00005,-0.06945l-0.1397,-0.55563l-0.12494,-0.55901l-0.02503,-0.04985l-0.04373,-0.1957l0.01321,-0.04838l-0.03819,-0.06341l-0.03151,-0.14106l-0.03118,-0.06211l-0.01745,-0.06943l-0.02439,-0.0139l-0.05209,-0.10377l-0.26165,-0.30417l-0.09621,-0.15973l-0.14239,-0.28364l-0.13287,-0.15445l-0.00694,-0.12408l-0.37631,-0.32138l-0.24554,-0.28537l-0.08177,-0.13575l-0.24999,-0.24902l-0.1089,-0.06508l-0.01131,-0.01315l-0.01178,-0.00065l-0.08151,-0.04871l-0.16747,-0.18348l-0.37494,-0.24889l-0.31442,-0.11174l-0.28164,-0.17839l-0.74983,-0.2485l-0.40064,-0.03043l-0.38977,-0.09672l-0.3172,0.00024l-0.20136,-0.04993l-0.30772,0.00027l-0.29845,-0.07395l-0.1272,0.00013l-0.35779,-0.02698l-0.38965,-0.09642l-0.09428,0.00013l-0.36482,-0.12043l-0.40047,-0.02996l-0.26684,-0.06585l-0.45658,-0.15041l-0.09764,-0.00724l-0.08631,-0.0456l-0.40617,-0.09992l-0.65726,-0.21595l-0.09753,-0.00711l-0.08615,-0.04547l-0.4983,-0.12204l-0.30685,0.00142l-0.29714,-0.07262l-0.06697,0.00035l-0.20029,-0.04892l-0.30625,0.00177l-0.29638,-0.07235l-0.24831,0.00159l-0.49506,-0.12111l-0.069,0.00045l-0.06931,-0.01506l-0.02323,0.01566l-6.36264,-0.01467l-0.57087,-0.19161l-0.09105,-0.04561l-0.17541,-0.03944l-0.15182,-0.09658l-0.37467,-0.12555l-0.40008,-0.03189l-0.15138,-0.06466c-0.03528,-0.08926 -0.075,-0.17699 -0.11991,-0.26087l-0.01772,-0.07187l-0.03296,-0.01883c-0.43488,-0.73685 -1.15092,-1.18025 -2.06847,-1.18025c-0.91756,0 -1.71568,0.48581 -2.15055,1.22266z" data-paper-data="{&quot;noHover&quot;:false,&quot;origItem&quot;:[&quot;Path&quot;,{&quot;applyMatrix&quot;:true,&quot;segments&quot;:[[[234.46875,168.92188],[-0.91756,0],[0.91756,0]],[[236.62329,170.15304],[-0.43488,-0.73685],[0,0]],[236.65625,170.17188],[[236.67414,170.24344],[0,0],[0.04492,0.08389]],[[236.79461,170.50334],[-0.03528,-0.08926],[0,0]],[236.85863,170.51934],[237.25932,170.55017],[237.63432,170.67517],[237.78613,170.77177],[237.96178,170.81081],[238.05287,170.85635],[238.62444,171.04688],[245.05563,171.04688],[245.079,171.0313],[245.14909,171.04688],[245.21875,171.04688],[245.71875,171.17188],[245.96875,171.17188],[246.26732,171.24652],[246.57509,171.24652],[246.77651,171.29688],[246.84375,171.29688],[247.14232,171.37152],[247.45009,171.37152],[247.95009,171.49652],[248.03658,171.54265],[248.13432,171.55017],[248.79323,171.76981],[249.20009,171.87152],[249.28658,171.91765],[249.38432,171.92517],[249.84153,172.07757],[250.10863,172.14434],[250.50932,172.17517],[250.87444,172.29688],[250.96875,172.29688],[251.35863,172.39434],[251.71653,172.42188],[251.84375,172.42188],[252.14232,172.49652],[252.45009,172.49652],[252.65151,172.54688],[252.96875,172.54688],[253.35863,172.64434],[253.75932,172.67517],[254.50932,172.92517],[254.79103,173.10444],[255.1055,173.21675],[255.4805,173.46675],[255.648,173.651],[255.72952,173.69991],[255.74129,173.70056],[255.75261,173.71376],[255.86152,173.77911],[256.11152,174.02911],[256.19328,174.16538],[256.4388,174.45182],[256.81506,174.77433],[256.82198,174.89887],[256.95482,175.05384],[257.09712,175.33845],[257.19328,175.49871],[257.45482,175.80384],[257.50687,175.90794],[257.53125,175.92188],[257.54867,175.99154],[257.57982,176.05384],[257.61127,176.19536],[257.64943,176.25896],[257.63619,176.30751],[257.67982,176.50384],[257.70482,176.55384],[257.82943,177.11459],[257.96875,177.67188],[257.96875,177.74154],[257.98433,177.81163],[257.96875,177.83499],[257.96875,177.86411],[258.01911,178.06554],[258.01911,178.3733],[258.09375,178.67188],[258.09375,181.50876],[258.10933,181.53212],[258.09375,181.60221],[258.09375,181.67188],[257.95443,182.22916],[257.82982,182.78991],[257.80482,182.83991],[257.70482,183.28991],[257.67367,183.35221],[257.65625,183.42188],[257.64315,183.42936],[257.59046,183.58744],[257.49385,183.73925],[257.45482,183.91491],[257.20482,184.41491],[256.94328,184.72004],[256.73652,185.06464],[256.29902,185.50214],[256.19072,185.68264],[256.19006,185.69442],[256.17686,185.70573],[256.11152,185.81464],[255.86152,186.06464],[255.75261,186.12999],[255.74129,186.14319],[255.72952,186.14384],[255.51691,186.27141],[255.21178,186.53294],[254.92717,186.67525],[254.61895,186.86018],[254.13432,187.16858],[254.06823,187.19061],[254.00666,187.22755],[253.97957,187.22017],[253.92787,187.2374],[253.83678,187.28294],[253.56802,187.34267],[253.32509,187.47223],[252.91823,187.57394],[252.80287,187.6124],[252.71178,187.65794],[252.60823,187.68096],[252.52223,187.74307],[252.37367,187.80249],[252.34941,187.82675],[252.34375,187.85221],[252.34375,188.08997],[252.41394,188.51111],[252.63696,189.32884],[252.82982,189.55384],[252.94006,189.77433],[252.95673,189.78862],[253.1055,189.84175],[253.26391,189.94736],[253.57902,190.0734],[253.83278,190.15799],[254.31889,190.29688],[254.34375,190.29688],[254.51832,190.34052],[254.6973,190.322],[255.39642,190.42188],[255.59375,190.42188],[255.89232,190.49652],[256.20009,190.49652],[256.32138,190.52684],[256.60346,190.47042],[256.85218,190.48227],[257.09375,190.42188],[257.53841,190.42188],[257.57927,190.41279],[257.66527,190.35068],[258.29027,190.10068],[258.36476,190.09053],[258.42818,190.05017],[258.80318,189.92517],[258.90092,189.91765],[258.98741,189.87152],[260.36143,189.52801],[261.22578,189.2137],[262.01691,188.27874],[262.09375,187.43347],[262.09375,186.89289],[261.97611,185.36362],[261.99252,185.26697],[261.96875,185.17188],[261.96875,180.32752],[261.73806,178.48196],[261.75706,178.32513],[261.71875,178.17188],[261.71875,177.41942],[261.65397,177.0955],[261.56668,176.74636],[261.47204,176.46244],[261.46452,176.36471],[261.41839,176.27821],[261.29339,175.77821],[261.29339,175.5515],[261.28367,175.52233],[260.95098,175.18964],[260.94367,175.17746],[260.89973,175.1651],[260.60753,174.61723],[260.28807,174.08479],[260.30008,174.04075],[260.29339,174.02821],[260.27342,173.94832],[260.26362,173.93363],[260.22979,173.8389],[260.15625,173.79688],[260.01967,173.25055],[259.83026,172.72022],[259.86815,172.64446],[259.84375,172.54688],[259.84375,172.46047],[259.66379,172.42448],[259.49133,172.15347],[259.24744,171.94442],[259.23683,171.75354],[258.97204,171.33744],[258.90323,171.131],[258.68063,170.68581],[258.65625,170.67188],[258.63883,170.60221],[258.60768,170.53991],[258.51741,170.13369],[258.44723,170.01672],[258.28125,169.92188],[258.20334,169.61024],[258.03807,169.33479],[258.07056,169.21566],[258.05563,169.18581],[258.03125,169.17188],[258.01383,169.10221],[257.98268,169.03991],[257.88268,168.58991],[257.82556,168.47567],[257.49744,168.19442],[257.49052,168.06988],[257.35768,167.91491],[257.10322,167.40598],[257.08298,167.39384],[257.07121,167.39319],[257.05989,167.37999],[256.95098,167.31464],[256.70098,167.06464],[256.61922,166.92837],[256.3737,166.64193],[256.15128,166.45128],[255.97097,166.39118],[255.53647,166.28255],[254.97572,166.15794],[254.91341,166.12679],[254.84375,166.10938],[254.83627,166.09628],[254.75318,166.06858],[254.42818,166.04358],[254.05318,165.91858],[253.95457,165.85583],[253.71875,165.79688],[253.59375,165.79688],[253.20387,165.69941],[252.84597,165.67188],[252.84375,165.67188],[252.84276,165.67163],[252.80318,165.66858],[252.72097,165.64118],[252.45387,165.57441],[252.09597,165.54688],[250.59153,165.54687],[250.23363,165.57441],[249.96653,165.64118],[249.88432,165.66858],[249.84474,165.67163],[249.84375,165.67188],[249.84153,165.67187],[249.48363,165.69941],[249.21653,165.76618],[249.13432,165.79358],[249.09474,165.79663],[249.09375,165.79688],[249.09153,165.79688],[248.73363,165.82441],[248.34375,165.92188],[248.09153,165.92188],[247.73363,165.94941],[247.34375,166.04688],[247.09153,166.04688],[246.93081,166.05924],[246.83786,166.1424],[246.34375,166.1044],[245.84964,166.1424],[245.75669,166.05924],[245.59597,166.04688],[244.84375,166.04688],[244.45387,165.94941],[244.05318,165.91858],[243.75318,165.81858],[243.50316,165.79935],[243.4835,165.81245],[243.41341,165.79688],[243.34375,165.79688],[242.78647,165.65755],[242.22572,165.53294],[242.16341,165.50179],[242.09375,165.48438],[242.08627,165.47128],[241.55318,165.29358],[241.13708,165.02879],[240.94621,165.01819],[240.73716,164.77429],[240.46615,164.60184],[240.42866,164.41438],[240.10768,164.03991],[239.98268,163.78991],[239.94365,163.61425],[239.84704,163.46244],[239.59704,162.71244],[239.56622,162.31175],[239.46875,161.92188],[239.46875,160.79465],[239.44611,160.50034],[239.35807,160.10416],[239.27226,159.76092],[239.20098,159.68964],[239.01348,159.37714],[238.6808,159.04446],[238.67818,159.04358],[238.52637,158.94698],[238.35072,158.90794],[238.10072,158.78294],[237.98077,158.68013],[237.832,158.627],[237.61057,158.47938],[237.51927,158.44894],[236.20927,158.12145],[235.55775,158.01286],[235.3759,157.93379],[235.17818,157.91858],[234.89427,157.82394],[234.61253,157.75351],[234.04108,157.67188],[233.71875,157.67188],[233.51604,157.6212],[233.30775,157.63786],[232.76184,157.54688],[231.5913,157.54688],[230.80911,157.70331],[229.86878,158.07945],[228.79766,158.61501],[227.74058,159.24925],[226.87499,159.89844],[226.28049,160.37405],[226.17992,160.42014],[226.1055,160.502],[226.05345,160.5367],[225.79592,160.85861],[225.68395,160.94393],[225.61152,161.06464],[225.1917,161.48445],[224.82506,161.92443],[224.37632,162.8219],[224.34375,162.90333],[224.34375,162.92188],[224.26911,163.22045],[224.26911,163.52821],[224.21875,163.72964],[224.21875,164.29933],[224.2952,164.68158],[224.28336,164.93031],[224.34375,165.17188],[224.34375,165.5491],[224.35567,165.70402],[224.43473,165.88588],[224.55311,166.59611],[224.65853,167.12325],[224.72796,167.40093],[224.91494,167.8684],[224.93818,168.03879],[225.01911,168.19054],[225.03932,168.27138],[225.28994,168.6184],[225.38964,168.86765],[225.39943,168.88396],[225.39811,168.88881],[225.41714,168.9364],[225.59375,169.17188],[225.62132,169.23734],[225.67388,169.28512],[225.68634,169.30381],[225.84375,169.42188],[225.95311,169.55647],[226.05287,169.60635],[226.54323,169.76981],[226.65151,169.79688],[226.96875,169.79688],[227.17146,169.84755],[227.37975,169.83089],[229.42566,170.17188],[232.28125,170.17188],[[232.31421,170.15304],[0,0],[0.43488,-0.73685]]],&quot;closed&quot;:true}]}" fill="#c5baa0"/><path d="M211.30836,181.36124c-1.55273,-1.06207 -5.1948,-3.11972 -2.73238,-5.58214c1.13697,-1.13697 5.45011,1.02267 8.0231,2.81128c0.19143,-0.2022 0.39779,-0.40431 0.61967,-0.60601c1.55519,-1.41381 10.92304,4.29707 10.98607,5.19447c0.08719,1.2415 -1.11248,5.49253 -3.34199,4.88449l-0.69949,0.49384c-3.72475,1.86237 -9.05815,-0.8855 -9.56278,-4.89489c-0.83285,-0.43867 -1.80488,-1.28371 -3.29219,-2.30103z" fill="#000000"/></g></g></svg>