<svg version="1.1" xmlns="http://www.w3.org/2000/svg" xmlns:xlink="http://www.w3.org/1999/xlink" width="34.79334" height="26.42631" viewBox="0,0,34.79334,26.42631"><g transform="translate(-222.33911,-167.45219)"><g data-paper-data="{&quot;isPaintingLayer&quot;:true}" fill-rule="nonzero" stroke="none" stroke-width="0.5" stroke-linecap="butt" stroke-linejoin="miter" stroke-miterlimit="10" stroke-dasharray="" stroke-dashoffset="0" style="mix-blend-mode: normal"><path d="M256.99925,175.86176l-0.12843,0.51371l-0.08264,0.41321v2.16228l0.3075,0.61499l0.03677,0.16544c-0.61532,0.36324 -1.18337,0.78135 -1.53646,1.38442c-1.01492,1.73342 -0.74779,4.27124 -0.65484,6.29759l-0.81407,1.30252l-0.79696,1.29506c-0.73889,0.42796 -1.63532,0.61556 -2.82307,1.2192c-0.70075,0.35614 -1.60457,1.57553 -2.53527,2.64831l-1.24538,-0.13838l-0.05519,-0.0205l-0.05864,0.0052l-2.71429,-0.42857l-0.03397,-0.01443l-0.03684,0.0022l-1.79655,-0.33685c-0.22059,-0.20076 -0.44499,-0.38191 -0.67695,-0.52968c-2.5512,-1.62528 -5.28193,-2.28428 -8.2598,-2.31482l-2.11236,-0.79213l-0.26441,-0.18235l-0.29949,-0.11605l-2.31987,-1.63755c-0.50738,-1.28673 -0.92269,-2.84638 -2.04339,-4.28495c-0.60037,-0.77065 -1.46512,-1.2235 -2.32752,-1.6117l-0.66779,-2.00337l-0.03082,-0.40069l-0.09747,-0.38988v-2.42857l0.07464,-0.29857v-0.30776l0.19576,-0.78306c1.00145,-0.73162 2.0584,-1.4367 2.68242,-2.4038c0.01468,-0.47219 -0.05251,-1.25127 -0.07948,-2.05789l0.59762,-0.49802l0.08567,-0.04136l0.06169,-0.07242l1,-0.71429l0.26396,-0.10398l0.2276,-0.16937l1.25569,-0.5232c1.94683,1.29865 3.45216,3.0689 6.4862,2.81467c3.54611,-0.29714 6.82821,-4.0353 10.43495,-2.14691c2.68565,1.56346 3.9662,4.47595 6.91479,5.57428c1.28104,0.47718 2.58725,0.81565 3.89712,1.16615l-0.03043,0.07z" fill="#1ea1ff"/><path d="" fill="#1ea1ff"/><path d="M255.14532,179.18399c0.52326,0.299 0.95312,0.63646 1.29948,1.00456c-0.33761,0.25989 -0.63326,0.55911 -0.84881,0.92726c-1.11203,1.89928 -0.68494,4.76423 -0.63422,6.86404c-1.05193,2.4421 -2.25265,2.13118 -4.45473,3.25034c-0.67135,0.3412 -1.52908,1.47471 -2.41826,2.51257c-1.76762,0.19242 -3.70081,0.00073 -5.64287,-0.39453c-0.3547,-0.35927 -0.71325,-0.68948 -1.09195,-0.93074c-2.61359,-1.66503 -5.41561,-2.31594 -8.47873,-2.31594c-0.17404,0.0174 -0.34121,0.03011 -0.50186,0.03829c-0.83499,-0.29262 -2.22929,-0.75768 -3.57813,-1.38721c-0.98544,-1.40721 -1.175,-3.65077 -2.73757,-5.6591c0.01128,-0.01147 0.02267,-0.02295 0.03417,-0.03445c1.44067,-1.44067 2.42875,-0.75504 3.53553,0c2.59524,1.77044 8.24258,5.09674 11.6608,5.12491c0.38213,0.00315 5.60547,0.2428 7.625,-0.14286c0.16979,-0.03242 3.71156,-3.85753 3.73214,-4.04815c0.12863,-1.19123 -0.69483,-2.98337 0.34546,-3.57783z" fill="#0080dc"/><path d="" fill="#0080dc"/><path d="M254.57389,176.184c-0.26357,0 -0.51761,-0.04079 -0.75616,-0.11639c-0.21516,-0.06819 -0.41771,-0.16471 -0.60328,-0.28518c-1.76299,-0.50925 -4.09003,-1.5292 -5.87476,-2.30317c-4.29364,-1.86199 -10.4239,-2.58792 -15.15172,-2.29526c-4.44241,0.27499 -4.18076,7.21846 -5.14087,8.17857c-1.75336,1.75336 -4.47319,1.46869 -4.6875,-1.25c-0.06772,-0.85904 0.03413,-1.82415 0.27919,-2.82374c1.14589,-0.89542 2.50224,-1.67536 3.24507,-2.82661c0.02191,-0.70452 -0.13846,-2.09222 -0.07552,-3.23524c0.59786,-0.68233 1.25513,-1.28713 1.95725,-1.7748c2.83478,1.14476 4.24356,3.96037 8.01721,3.64417c3.54611,-0.29714 6.82821,-4.0353 10.43495,-2.14691c2.68565,1.56346 3.9662,4.47595 6.91479,5.57428c1.04239,0.38828 2.10144,0.68473 3.16557,0.97054c-0.44856,0.42737 -1.05576,0.68974 -1.72423,0.68974z" fill="#5ab9ff"/><path d="M228.4375,181.09999c0,-0.69036 0.55964,-1.25 1.25,-1.25c0.69036,0 1.25,0.55964 1.25,1.25c0,0.69036 -0.55964,1.25 -1.25,1.25c-0.69036,0 -1.25,-0.55964 -1.25,-1.25z" fill="#ff0000"/><path d="M232.8125,173.47499c0,-0.69036 0.55964,-1.25 1.25,-1.25c0.69036,0 1.25,0.55964 1.25,1.25c0,0.69036 -0.55964,1.25 -1.25,1.25c-0.69036,0 -1.25,-0.55964 -1.25,-1.25z" fill="#ff0000"/><path d="M234.9375,178.47499c0,-0.69036 0.55964,-1.25 1.25,-1.25c0.69036,0 1.25,0.55964 1.25,1.25c0,0.69036 -0.55964,1.25 -1.25,1.25c-0.69036,0 -1.25,-0.55964 -1.25,-1.25z" fill="#ff0000"/><path d="M240.6875,174.34999c0,-0.69036 0.55964,-1.25 1.25,-1.25c0.69036,0 1.25,0.55964 1.25,1.25c0,0.69036 -0.55964,1.25 -1.25,1.25c-0.69036,0 -1.25,-0.55964 -1.25,-1.25z" fill="#ff0000"/><path d="M237.4375,183.59999c0,-0.69036 0.55964,-1.25 1.25,-1.25c0.69036,0 1.25,0.55964 1.25,1.25c0,0.69036 -0.55964,1.25 -1.25,1.25c-0.69036,0 -1.25,-0.55964 -1.25,-1.25z" fill="#ff0000"/><path d="M242.9375,180.97499c0,-0.69036 0.55964,-1.25 1.25,-1.25c0.69036,0 1.25,0.55964 1.25,1.25c0,0.69036 -0.55964,1.25 -1.25,1.25c-0.69036,0 -1.25,-0.55964 -1.25,-1.25z" fill="#ff0000"/><path d="M246.9375,176.34999c0,-0.69036 0.55964,-1.25 1.25,-1.25c0.69036,0 1.25,0.55964 1.25,1.25c0,0.69036 -0.55964,1.25 -1.25,1.25c-0.69036,0 -1.25,-0.55964 -1.25,-1.25z" fill="#ff0000"/><path d="M248.1875,185.34999c0,-0.69036 0.55964,-1.25 1.25,-1.25c0.69036,0 1.25,0.55964 1.25,1.25c0,0.69036 -0.55964,1.25 -1.25,1.25c-0.69036,0 -1.25,-0.55964 -1.25,-1.25z" fill="#ff0000"/></g></g></svg>