<svg version="1.1" xmlns="http://www.w3.org/2000/svg" xmlns:xlink="http://www.w3.org/1999/xlink" width="67.77408" height="54.54097" viewBox="0,0,67.77408,54.54097"><defs><radialGradient cx="222.88399" cy="169.97493" r="17.36493" gradientUnits="userSpaceOnUse" id="color-1"><stop offset="0" stop-color="#c7c7c7"/><stop offset="1" stop-color="#ffffff"/></radialGradient><radialGradient cx="251.63756" cy="171.0782" r="17.36493" gradientUnits="userSpaceOnUse" id="color-2"><stop offset="0" stop-color="#923214"/><stop offset="1" stop-color="#4e1503"/></radialGradient><radialGradient cx="227.57868" cy="192.1167" r="17.36493" gradientUnits="userSpaceOnUse" id="color-3"><stop offset="0" stop-color="#ff91cd"/><stop offset="1" stop-color="#ff5264"/></radialGradient><radialGradient cx="255.13979" cy="191.5329" r="17.36493" gradientUnits="userSpaceOnUse" id="color-4"><stop offset="0" stop-color="#f0bf83"/><stop offset="1" stop-color="#ca6e3a"/></radialGradient></defs><g transform="translate(-206.11296,-152.72951)"><g stroke-miterlimit="10"><g><path d="M219.39558,165.00183c0.27377,-0.44905 0.60452,-0.80622 0.97676,-1.08178c2.65561,-1.96592 7.42283,0.22094 8.67302,2.82271c0.50816,1.05752 -0.33625,4.38121 -2.0443,3.53994c-2.26804,-1.11706 0.05753,-2.92986 -2.55981,-3.60694c-0.81546,-0.21095 -3.65529,0.65987 -4.01932,0.24693z" fill="#985933" stroke="none" stroke-width="0.5" stroke-linecap="butt"/><path d="M237.58054,172.49202c1.18144,1.16735 1.6023,2.43437 1.50452,3.69642c-0.28625,3.69502 -5.01823,7.34728 -8.12404,8.33011c-5.744,1.81765 -13.33236,-3.86569 -17.89773,-7.08766c-1.77069,-1.24965 -9.41139,-5.8567 -4.555,-8.67053c1.76288,-1.02143 2.54125,-0.10463 3.41646,0.90979c2.05226,2.37865 6.65347,7.04615 9.94932,7.95297c0.36845,0.10138 5.35422,1.67707 7.40498,1.82408c0.17241,0.01236 4.57922,-2.77253 4.64816,-2.95144c0.43083,-1.11801 0.09627,-3.06171 1.2545,-3.36845z" fill="#985933" stroke="none" stroke-width="0.5" stroke-linecap="butt"/><path d="M240.26906,165.05125c0.10597,0.2203 0.20085,0.43196 0.2828,0.63524c0.36274,0.56945 0.49505,1.28317 0.30761,1.98703c-0.35529,1.33421 -1.72492,2.12778 -3.05913,1.77249c-0.25469,-0.06783 -0.48968,-0.17261 -0.70075,-0.30705c-0.19037,-0.12126 -0.36126,-0.26666 -0.50958,-0.43082c-1.57257,-0.94577 -3.55879,-2.53018 -5.08426,-3.73735c-3.6699,-2.90415 -9.40692,-5.18313 -14.05084,-6.11692c-4.36357,-0.87742 -5.89748,5.89955 -7.07232,6.58026c-2.1455,1.24313 -4.70049,0.26816 -4.20799,-2.41413c0.7982,-4.34724 6.62545,-10.24329 11.5594,-9.26605c6.66257,1.3196 11.8922,4.57744 17.34496,7.76635c1.78326,1.0429 3.89097,1.7737 5.07152,3.49224z" fill="#d3a689" stroke="none" stroke-width="0.5" stroke-linecap="butt"/><path d="M224.78236,169.12091c1.18902,0.35586 3.26593,0.1609 3.60286,1.79452c0.36844,1.78646 -1.53099,2.52249 -2.83815,2.21798c-1.70109,-0.39626 -6.19433,-1.91426 -6.75201,-4.02003c-0.44177,-0.44892 -0.64145,-1.11312 -0.46765,-1.7658c0.26154,-0.98214 1.26974,-1.56631 2.25188,-1.30477c0.373,0.09933 0.68859,0.30635 0.92226,0.57873c0.91807,0.70711 1.76704,2.04632 3.2808,2.49937z" fill="#d3a689" stroke="none" stroke-width="0.5" stroke-linecap="butt"/><path d="M221.17801,172.99685l0.02617,0.03809l0.0195,0.01155zM221.00712,172.80933l-0.04601,-0.01226l0.12963,0.11459zM227.25622,169.94078l0.1533,0.00966l0.15344,-0.0889l0.49984,-1.87701l0.00639,-0.41799l-0.01793,-0.06229l-0.08721,-0.27561l-0.47498,-0.81977l-0.0789,-0.08575l-0.31777,-0.24601l-0.07365,-0.09353l-2.39994,-0.63909l-1.38316,-0.13195l-0.89828,0.01621l-0.14022,-0.03239l-0.1423,0.02148l-0.25819,-0.02463l-0.06086,0.02454l-0.67479,0.29689l-0.19042,0.11033l-0.10748,0.09475l-0.00535,0.08497l-0.07544,0.2373l-0.00381,0.24897l-0.04135,0.1553l0.18052,0.09985l0.5098,0.26471l0.0522,0.04614l0.06283,0.03476l0.00603,0.02278l0.21412,0.1409l0.0509,0.05532l0.06937,0.02898l0.55781,0.41598l0.69339,0.45628l0.20773,0.22576c0.14092,0.04924 0.27495,0.11013 0.40131,0.1813l0.03754,-0.00023l0.05088,0.05246c0.1405,0.08697 0.27068,0.18697 0.38931,0.2979l0.06456,0.03571l0.00972,0.0367c0.12149,0.12345 0.22949,0.25888 0.32254,0.40374l0.21072,0.15715l0.23276,0.28487l0.16265,0.05313l0.0142,0.02954l0.95439,0.25415l0.11157,0.0017l0.59531,-0.07194l0.22949,0.02878zM240.22694,169.75874l-0.2563,0.46336l-0.18619,0.37803l-0.55641,2.08946l0.13889,0.67341l-0.00973,0.23386l0.06086,0.22601l0.01877,1.03984l-0.07845,0.33977l-0.00533,0.34867l-0.1838,0.69023l-0.22917,0.41432l-0.18254,0.43688l-0.4599,0.61671l-0.3041,0.24846l-0.25597,0.2978l-0.77167,0.54603l-2.82214,2.63934l-1.56578,1.48488l-1.18581,1.15012l-0.38348,0.22219l-0.35028,0.27154l-0.83728,0.36838l-0.0006,0.0001l-0.02325,0.03139l-0.62507,0.07957l-0.62108,0.1063l-0.03139,-0.02324l-0.0006,0.00008l-1.00309,-0.11928l-0.29638,-0.11269l-0.31457,-0.03983l-1.20565,-0.4689l-0.04806,-0.03401l-0.05801,-0.01007l-2.5126,-1.1126l-0.02911,-0.02268l-0.03616,-0.00736l-2.09845,-1.00231l-0.11519,-0.09517l-0.14192,-0.04674l-2.01285,-1.27078l-2.52819,-1.55602l-0.05502,-0.05628l-0.07343,-0.02833l-2.36555,-1.66478l-0.00487,-0.00563l-0.00692,-0.00272l-1.98817,-1.41645l-0.20858,-0.24425l-0.25954,-0.18921l-1.84613,-2.21023l-0.5153,-0.53129l-0.24125,-0.41639l-0.28281,-0.38934l-1.06838,-2.64987l-0.02385,-0.17142l-0.08172,-0.15256l-0.35938,-1.42622l-0.00043,-0.23407l-0.07061,-0.22316l-0.16658,-2.7054l0.07333,-0.39512l0.00614,-0.40183l0.62494,-2.34679l0.14896,-0.26931l0.07919,-0.2974l0.57018,-1.03085l0.06684,-0.07171l0.03242,-0.09251l0.49666,-0.75475l0.18323,-0.1686l0.12683,-0.21428l0.80952,-0.81928l0.16835,-0.10239l0.12543,-0.15197l0.73599,-0.54319l0.23472,-0.09671l0.19748,-0.15951l1.01208,-0.46967l0.09343,-0.01793l0.07825,-0.0541l1.15013,-0.43291l0.28183,-0.03255l0.26352,-0.1051l1.81134,-0.24517l1.36053,-0.21672l0.38309,0.03342l0.38279,-0.03662l1.27917,0.1928l0.12997,0.05411l0.14075,0.00215l4.00334,1.06607l0.06985,0.03863l0.07958,0.00619l2.17198,0.72623l0.15886,0.10131l0.1836,0.04229l1.68807,0.86035l1.23372,0.45162l1.68502,0.44872l0.11107,0.06144l0.12611,0.01457l1.34369,0.50566l0.13281,0.09182l0.15675,0.0387l1.68432,0.89203l0.04208,0.03781l0.05428,0.01597l2.30103,1.35194l0.17353,0.17036l0.21582,0.11206l1.11875,0.98897l0.53335,0.39773l0.06712,0.08215l0.09415,0.04888l0.23933,0.21157l0.03435,0.05l0.92457,0.30204l0.07293,-0.0045l0.02453,0.03633l0.69626,0.22746l0.55855,1.16111l0.06453,0.31285l-0.00988,0.23745l0.07611,0.11269l-0.10008,0.46347l-0.01971,0.47374l-0.102,0.08992l-0.05016,0.2323l-0.32186,0.65348l-0.21579,0.25484l-0.15388,0.29636l-0.17416,0.19702l-0.20348,0.44911l-0.06331,0.07985z" fill="url(#color-1)" stroke="none" stroke-width="0.5" stroke-linecap="butt"/><path d="M212.06049,160.89327l5.11595,-1.44652" fill="none" stroke="#ff0000" stroke-width="2.5" stroke-linecap="round"/><path d="M228.36719,161.83546l2.25605,4.29666" fill="none" stroke="#ff0000" stroke-width="2.5" stroke-linecap="round"/><path d="M228.13401,179.3658l4.69126,-5.40334" fill="none" stroke="#ff0000" stroke-width="2.5" stroke-linecap="round"/><path d="M218.30419,174.08712l-3.94035,-5.1887" fill="none" stroke="#ff0000" stroke-width="2.5" stroke-linecap="round"/><path d="M217.86822,164.06603l-6.59692,3.12185" fill="none" stroke="#1dff00" stroke-width="2.5" stroke-linecap="round"/><path d="M223.1312,162.06733l-0.36914,-3.05501" fill="none" stroke="#1dff00" stroke-width="2.5" stroke-linecap="round"/><path d="M234.71062,170.76863l3.55091,-3.34164" fill="none" stroke="#1dff00" stroke-width="2.5" stroke-linecap="round"/><path d="M224.70085,177.26888l0.86349,-4.35296" fill="none" stroke="#1dff00" stroke-width="2.5" stroke-linecap="round"/><path d="M222.40728,170.89252l-7.81157,3.24189" fill="none" stroke="#0067ff" stroke-width="2.5" stroke-linecap="round"/><path d="M214.86565,156.46602l3.6455,4.07533" fill="none" stroke="#0067ff" stroke-width="2.5" stroke-linecap="round"/><path d="M226.37079,163.22567l6.68098,0.4486" fill="none" stroke="#0067ff" stroke-width="2.5" stroke-linecap="round"/><path d="M232.77721,168.03623l-0.45682,9.48766" fill="none" stroke="#0067ff" stroke-width="2.5" stroke-linecap="round"/></g><g><path d="M245.5894,171.64423c-0.25441,-0.46029 -0.40077,-0.92456 -0.45569,-1.38444c-0.39184,-3.28079 3.86978,-6.33815 6.74916,-6.13496c1.17037,0.08259 3.639,2.46287 2.06195,3.52969c-2.09407,1.41658 -2.51643,-1.50166 -4.4014,0.43633c-0.58728,0.6038 -1.23794,3.502 -1.777,3.61362z" fill="#985933" stroke="none" stroke-width="0.5" stroke-linecap="butt"/><path d="M261.10579,159.55966c1.59935,-0.44783 2.90845,-0.18561 3.95623,0.52464c3.06773,2.07944 3.89556,7.99937 3.2104,11.18409c-1.26718,5.88997 -9.96371,9.66538 -15.02443,12.03454c-1.96281,0.91888 -9.75039,5.27304 -9.7883,-0.33951c-0.01377,-2.03737 1.16826,-2.25923 2.48306,-2.51683c3.08299,-0.60406 9.41708,-2.28811 11.83779,-4.70165c0.27061,-0.26981 4.10964,-3.81983 5.25345,-5.52833c0.09617,-0.14364 -0.13937,-5.35133 -0.26062,-5.49986c-0.75765,-0.92819 -2.61175,-1.60063 -2.30431,-2.75868z" fill="#985933" stroke="none" stroke-width="0.5" stroke-linecap="butt"/><path d="M255.9747,153.53761c0.24387,0.0171 0.47472,0.03957 0.6919,0.0691c0.67437,-0.03293 1.35988,0.20578 1.87839,0.71734c0.98289,0.96969 0.99358,2.55258 0.02388,3.53545c-0.18511,0.18763 -0.39256,0.33982 -0.61391,0.45654c-0.19965,0.10528 -0.41062,0.18167 -0.6267,0.22916c-1.60069,0.89736 -3.96107,1.83758 -5.76547,2.5645c-4.34098,1.74881 -9.16311,5.60291 -12.27517,9.17403c-2.92421,3.35553 2.20238,8.04577 2.21155,9.40354c0.01675,2.47957 -2.09608,4.21579 -4.18193,2.45899c-3.38061,-2.8473 -5.61475,-10.83034 -2.32123,-14.63185c4.4474,-5.1334 9.8684,-8.06178 15.34007,-11.2181c1.78944,-1.03224 3.46857,-2.50094 5.54627,-2.67489z" fill="#d3a689" stroke="none" stroke-width="0.5" stroke-linecap="butt"/><path d="M251.83634,169.00609c0.89824,-0.85648 1.75796,-2.75713 3.34389,-2.24037c1.7343,0.56512 1.4325,2.5797 0.52035,3.56425c-1.18705,1.28126 -4.73192,4.43204 -6.83737,3.87309c-0.60883,0.1613 -1.2847,0.00566 -1.76552,-0.46871c-0.72352,-0.71381 -0.73139,-1.87901 -0.01759,-2.60252c0.2711,-0.27479 0.60728,-0.44633 0.95966,-0.51434c1.06909,-0.4471 2.65301,-0.52097 3.79657,-1.61137z" fill="#d3a689" stroke="none" stroke-width="0.5" stroke-linecap="butt"/><path d="M253.41718,174.05735l0.04606,-0.00385l0.01969,-0.01123zM253.16964,174.11287l-0.03345,0.0339l0.16376,-0.05582zM253.77424,167.26348l0.08434,-0.12837l-0.0012,-0.17733l-1.38274,-1.3642l-0.35991,-0.21265l-0.06299,-0.0153l-0.28262,-0.06081l-0.94741,0.0064l-0.11358,0.02604l-0.37114,0.15414l-0.11774,0.01763l-1.74425,1.76798l-0.79994,1.13606l-0.43099,0.7883l-0.09761,0.10575l-0.05184,0.13425l-0.14932,0.21206l-0.00885,0.06502l-0.07645,0.73325l0.00149,0.22008l0.02905,0.1403l0.07115,0.04675l0.16874,0.18311l0.21437,0.12668l0.11441,0.11286l0.17618,-0.10734l0.48253,-0.31167l0.06594,-0.02248l0.06132,-0.03735l0.02276,0.00604l0.22848,-0.11618l0.07327,-0.0168l0.05954,-0.04589l0.63771,-0.27842l0.73989,-0.37622l0.29901,-0.06858c0.11259,-0.098 0.23189,-0.18425 0.35632,-0.25876l0.0184,-0.03272l0.07077,-0.01819c0.14516,-0.07895 0.29652,-0.14248 0.45167,-0.19056l0.06299,-0.03838l0.03669,0.00974c0.16742,-0.04436 0.33857,-0.07106 0.51052,-0.08011l0.24092,-0.10517l0.36278,-0.06102l0.12674,-0.11495l0.0327,0.0023l0.69364,-0.70308l0.05676,-0.09606l0.23248,-0.55274l0.13869,-0.18508zM260.04284,155.90665l0.27549,0.45221l0.23612,0.34904l1.53926,1.5186l0.65375,0.21302l0.19832,0.12432l0.22648,0.05911l0.91253,0.49893l0.25625,0.23649l0.30022,0.17739l0.50848,0.50166l0.24633,0.40436l0.28905,0.37502l0.30782,0.70504l0.06514,0.38726l0.13184,0.3699l0.09194,0.94083l0.89427,3.75911l0.51398,2.09579l0.41148,1.59988l0.00299,0.44319l0.06232,0.4388l-0.09488,0.9098l-0.00021,0.00057l0.01574,0.03574l-0.24059,0.58237l-0.21541,0.59216l-0.03574,0.01575l-0.00022,0.00056l-0.60062,0.8122l-0.24475,0.20161l-0.19046,0.25351l-1.00466,0.81493l-0.05335,0.02489l-0.03748,0.04539l-2.21136,1.63123l-0.03413,0.01405l-0.02431,0.02777l-1.91037,1.32613l-0.13975,0.0529l-0.11092,0.10012l-2.10115,1.11876l-2.60426,1.42507l-0.07614,0.0199l-0.06099,0.04975l-2.61815,1.2299l-0.0073,0.00144l-0.0058,0.00466l-2.21545,1.02514l-0.31551,0.06016l-0.29295,0.13169l-2.83457,0.50847l-0.71682,0.18436l-0.48123,0.00325l-0.47833,0.05275l-2.83109,-0.38494l-0.16072,-0.06421l-0.17302,-0.0046l-1.41692,-0.39449l-0.20353,-0.11559l-0.22882,-0.04923l-2.4325,-1.19578l-0.30689,-0.25947l-0.346,-0.20444l-1.72881,-1.70562l-0.16012,-0.26283l-0.21909,-0.21614l-0.6129,-1.00603l-0.02917,-0.09358l-0.0643,-0.074l-0.4095,-0.80538l-0.05566,-0.24269l-0.12328,-0.21634l-0.31054,-1.1091l-0.00552,-0.19697l-0.06986,-0.18425l-0.10716,-0.90844l0.0323,-0.2518l-0.04072,-0.25057l0.09351,-1.11183l0.03072,-0.09003l-0.00823,-0.09477l0.19384,-1.21352l0.11136,-0.26093l0.03927,-0.28097l0.68452,-1.69484l0.48587,-1.28918l0.21883,-0.31621l0.15786,-0.35065l0.80128,-1.01559l0.1114,-0.08607l0.0716,-0.12119l2.90959,-2.94916l0.06817,-0.04154l0.04481,-0.06606l1.70697,-1.5268l0.1667,-0.0878l0.1277,-0.13852l1.58373,-1.04001l1.00358,-0.84787l1.22466,-1.24131l0.10841,-0.06604l0.07513,-0.10233l1.105,-0.91662l0.14555,-0.06987l0.11128,-0.11699l1.60938,-1.02106l0.0537,-0.01782l0.04077,-0.03923l2.31443,-1.32887l0.23396,-0.06632l0.20427,-0.13194l1.41335,-0.48175l0.60974,-0.26621l0.10461,-0.0176l0.08911,-0.05756l0.30235,-0.10305l0.06045,-0.00506l0.72046,-0.65345l0.03223,-0.06557l0.04372,-0.00332l0.54256,-0.49208l1.28531,0.09013l0.30372,0.09896l0.20136,0.12624l0.13559,-0.01027l0.35299,0.31657l0.40173,0.25185l0.02756,0.13316l0.17692,0.15867l0.40814,0.60335l0.11443,0.3137l0.18117,0.28051l0.08484,0.2489l0.28928,0.39926l0.03799,0.09455z" fill="url(#color-2)" stroke="none" stroke-width="0.5" stroke-linecap="butt"/><path d="M239.66461,170.81939l-1.27836,5.16055" fill="none" stroke="#ff0000" stroke-width="2.5" stroke-linecap="round"/><path d="M252.13426,162.45171l-4.84999,-0.16926" fill="none" stroke="#ff0000" stroke-width="2.5" stroke-linecap="round"/><path d="M262.39593,171.17091l-2.36902,-6.75216" fill="none" stroke="#ff0000" stroke-width="2.5" stroke-linecap="round"/><path d="M246.48092,177.94559l6.45936,-0.85177" fill="none" stroke="#ff0000" stroke-width="2.5" stroke-linecap="round"/><path d="M244.01976,172.50727l-0.55695,7.27703" fill="none" stroke="#1dff00" stroke-width="2.5" stroke-linecap="round"/><path d="M242.05479,165.75236l2.83654,1.19305" fill="none" stroke="#1dff00" stroke-width="2.5" stroke-linecap="round"/><path d="M258.18684,161.19861l-1.14322,-4.74011" fill="none" stroke="#1dff00" stroke-width="2.5" stroke-linecap="round"/><path d="M255.52023,170.20719l3.35322,2.90685" fill="none" stroke="#1dff00" stroke-width="2.5" stroke-linecap="round"/><path d="M252.19839,171.94693l-1.0545,8.39157" fill="none" stroke="#0067ff" stroke-width="2.5" stroke-linecap="round"/><path d="M241.27671,170.20239l-5.34618,1.14732" fill="none" stroke="#0067ff" stroke-width="2.5" stroke-linecap="round"/><path d="M247.50266,164.70538l3.69995,-5.58096" fill="none" stroke="#0067ff" stroke-width="2.5" stroke-linecap="round"/><path d="M254.85546,161.52418l8.01482,5.09775" fill="none" stroke="#0067ff" stroke-width="2.5" stroke-linecap="round"/></g><g><path d="M221.60458,193.21714c-0.29425,-0.43591 -0.48122,-0.88537 -0.57673,-1.33855c-0.68138,-3.23309 3.29216,-6.6565 6.17822,-6.70958c1.17308,-0.02157 3.84316,2.13028 2.367,3.33282c-1.96013,1.59679 -2.63974,-1.27247 -4.34533,0.82512c-0.53139,0.65353 -0.92234,3.59803 -1.44938,3.75703z" fill="#985933" stroke="none" stroke-width="0.5" stroke-linecap="butt"/><path d="M227.59281,190.03514c0.81871,-0.93281 1.5064,-2.90223 3.13193,-2.52822c1.77762,0.40901 1.65574,2.44242 0.83453,3.50401c-1.06869,1.38153 -4.32003,4.8344 -6.46676,4.46445c-0.59211,0.21468 -1.27913,0.11961 -1.80015,-0.31022c-0.784,-0.6468 -0.89522,-1.80669 -0.24842,-2.5907c0.24564,-0.29775 0.56528,-0.49845 0.91024,-0.59746c1.0252,-0.54019 2.59632,-0.7543 3.63862,-1.94187z" fill="#d3a689" stroke="none" stroke-width="0.5" stroke-linecap="butt"/><path d="M235.98757,179.80352c1.55331,-0.58796 2.88051,-0.44292 3.98719,0.17155c3.24013,1.79906 4.58994,7.62218 4.19004,10.85514c-0.7396,5.97916 -9.06687,10.51129 -13.89742,13.32011c-1.87354,1.08941 -9.24409,6.11735 -9.77982,0.5303c-0.19448,-2.02811 0.9632,-2.35397 2.24996,-2.72722c3.01723,-0.87522 9.17692,-3.11462 11.37396,-5.73341c0.24561,-0.29276 3.75452,-4.16939 4.74222,-5.97264c0.08304,-0.15161 -0.61361,-5.31787 -0.74756,-5.45505c-0.83703,-0.8573 -2.74347,-1.3626 -2.54,-2.54336z" fill="#985933" stroke="none" stroke-width="0.5" stroke-linecap="butt"/><path d="M230.34242,174.26049c0.24442,-0.0046 0.47636,-0.00271 0.6953,0.00744c0.66878,-0.09264 1.37277,0.08432 1.93463,0.54784c1.06504,0.87867 1.21613,2.45435 0.33747,3.51939c-0.16773,0.20331 -0.36086,0.37331 -0.57099,0.50921c-0.18953,0.12258 -0.39288,0.21739 -0.6039,0.28387c-1.51476,1.03585 -3.78241,2.18178 -5.5152,3.06593c-4.16869,2.12706 -8.62986,6.3938 -11.41281,10.22696c-2.61496,3.60176 2.90756,7.81864 3.03716,9.17024c0.23669,2.46831 -1.71375,4.38515 -3.94727,2.82033c-3.6199,-2.53614 -6.55353,-10.28945 -3.61029,-14.36821c3.9744,-5.50775 9.11421,-8.90555 14.28425,-12.53491c1.6908,-1.18694 3.23298,-2.79883 5.28705,-3.15643z" fill="#d3a689" stroke="none" stroke-width="0.5" stroke-linecap="butt"/><path d="M229.61559,194.92621l0.04554,-0.00793l0.01862,-0.01292zM229.37395,195.00347l-0.03031,0.03673l0.15817,-0.07013zM229.36847,188.12744l0.07262,-0.13535l-0.01692,-0.17652l-1.49832,-1.23612l-0.37736,-0.17988l-0.0641,-0.00964l-0.28689,-0.03549l-0.94311,0.09044l-0.11082,0.03602l-0.356,0.18646l-0.11571,0.02801l-1.5805,1.91575l-0.69598,1.20255l-0.35936,0.82343l-0.08783,0.11399l-0.03973,0.13833l-0.12991,0.22448l-0.00304,0.06556l-0.0111,0.73714l0.02101,0.21907l0.04139,0.13718l0.07502,0.04025l0.18432,0.16741l0.22477,0.10714l0.12397,0.10227l0.16596,-0.12255l0.45297,-0.35325l0.06368,-0.02824l0.05777,-0.04265l0.02322,0.00399l0.21728,-0.13599l0.07149,-0.02324l0.05524,-0.05099l0.61049,-0.3339l0.70359,-0.44038l0.29175,-0.09483c0.10345,-0.10761 0.21463,-0.20411 0.33196,-0.28935l0.01543,-0.03422l0.06888,-0.02441c0.13758,-0.09152 0.28271,-0.16822 0.43297,-0.22988l0.05935,-0.04383l0.03741,0.00645c0.16283,-0.05904 0.33094,-0.10083 0.50139,-0.1251l0.23063,-0.12614l0.35594,-0.09297l0.11604,-0.12574l0.03278,-0.00061l0.62852,-0.76185l0.04801,-0.10072l0.18252,-0.57119l0.12173,-0.19665zM234.60472,176.25923l0.31453,0.42598l0.26615,0.32671l1.66793,1.37604l0.67007,0.15418l0.20857,0.10624l0.23082,0.03879l0.95319,0.416l0.27623,0.21282l0.31476,0.15004l0.55098,0.45456l0.28124,0.3809l0.32118,0.3479l0.36916,0.67495l0.09925,0.37995l0.16415,0.35674l0.17506,0.92896l1.22427,3.66494l0.69791,2.04192l0.5518,1.55707l0.04231,0.44118l0.101,0.43154l-0.01378,0.91463l-0.00016,0.00058l0.01885,0.03421l-0.18797,0.60143l-0.16202,0.60893l-0.03421,0.01886l-0.00018,0.00058l-0.52618,0.86229l-0.22589,0.22252l-0.16722,0.26941l-0.9284,0.90085l-0.05093,0.02953l-0.0333,0.04855l-2.05791,1.821l-0.03275,0.01702l-0.02175,0.02982l-1.78517,1.4904l-0.1345,0.06508l-0.1016,0.10956l-1.99361,1.30078l-2.46754,1.6505l-0.07407,0.02659l-0.05634,0.05496l-2.4987,1.45734l-0.00715,0.00207l-0.00536,0.00516l-2.11576,1.21766l-0.30892,0.08791l-0.28011,0.15716l-2.77828,0.75796l-0.69764,0.24723l-0.47904,0.04593l-0.47176,0.09498l-2.85409,-0.13223l-0.16578,-0.04971l-0.17273,0.01076l-1.44632,-0.26722l-0.21298,-0.09708l-0.23229,-0.02874l-2.529,-0.97524l-0.32869,-0.23122l-0.36277,-0.17293l-1.87333,-1.54551l-0.18281,-0.24758l-0.2374,-0.19585l-0.69975,-0.94769l-0.03736,-0.09063l-0.07061,-0.068l-0.47935,-0.76585l-0.07697,-0.2368l-0.142,-0.20455l-0.40773,-1.07717l-0.02297,-0.1957l-0.08593,-0.17733l-0.18733,-0.89535l0.00983,-0.25367l-0.06279,-0.24597l-0.00552,-1.11573l0.02262,-0.0924l-0.01661,-0.09368l0.0854,-1.22593l0.08777,-0.26979l0.01419,-0.28335l0.53144,-1.74889l0.36957,-1.32719l0.18992,-0.33437l0.12613,-0.36327l0.70801,-1.08268l0.10333,-0.09562l0.06058,-0.12707l2.63645,-3.19569l0.06421,-0.04741l0.03878,-0.06978l1.56479,-1.67222l0.15825,-0.10224l0.11491,-0.14931l1.48521,-1.17642l0.92439,-0.93357l1.10969,-1.34507l0.10212,-0.0754l0.06576,-0.10858l1.01932,-1.01105l0.13879,-0.0825l0.10046,-0.12639l1.51245,-1.15981l0.0519,-0.02251l0.03712,-0.04269l2.18741,-1.52897l0.22716,-0.08682l0.19176,-0.14955l1.36504,-0.60525l0.58372,-0.31926l0.10264,-0.02681l0.08365,-0.06524l0.29202,-0.12947l0.05977,-0.0104l0.65965,-0.71479l0.02629,-0.06818l0.04324,-0.00718l0.49675,-0.53828l1.28825,-0.02426l0.3113,0.07162l0.21177,0.10787l0.13414,-0.02227l0.37969,0.284l0.4225,0.21521l0.03927,0.13019l0.19031,0.14236l0.46007,0.56476l0.14182,0.30231l0.20534,0.26332l0.10659,0.2404l0.32356,0.37203l0.04623,0.09081z" fill="url(#color-3)" stroke="none" stroke-width="0.5" stroke-linecap="butt"/><path d="M215.62996,192.92122l-0.81545,5.25361" fill="none" stroke="#ff0000" stroke-width="2.5" stroke-linecap="round"/><path d="M222.46214,183.7419l4.84588,-0.26172" fill="none" stroke="#ff0000" stroke-width="2.5" stroke-linecap="round"/><path d="M235.34407,184.73918l2.95877,6.51534" fill="none" stroke="#ff0000" stroke-width="2.5" stroke-linecap="round"/><path d="M223.05167,199.41454l6.35832,-1.42152" fill="none" stroke="#ff0000" stroke-width="2.5" stroke-linecap="round"/><path d="M220.1177,194.21602l0.09091,7.29775" fill="none" stroke="#1dff00" stroke-width="2.5" stroke-linecap="round"/><path d="M220.49237,188.59878l-2.93121,-0.93667" fill="none" stroke="#1dff00" stroke-width="2.5" stroke-linecap="round"/><path d="M233.22555,181.69501l-1.55927,-4.61998" fill="none" stroke="#1dff00" stroke-width="2.5" stroke-linecap="round"/><path d="M231.36874,190.90465l3.59791,2.59787" fill="none" stroke="#1dff00" stroke-width="2.5" stroke-linecap="round"/><path d="M228.21436,192.93226l-0.3058,8.45204" fill="none" stroke="#0067ff" stroke-width="2.5" stroke-linecap="round"/><path d="M217.18097,192.16363l-5.2233,1.61713" fill="none" stroke="#0067ff" stroke-width="2.5" stroke-linecap="round"/><path d="M226.08483,180.24868l-3.19019,5.88723" fill="none" stroke="#0067ff" stroke-width="2.5" stroke-linecap="round"/><path d="M238.3717,186.68139l-8.43551,-4.36653" fill="none" stroke="#0067ff" stroke-width="2.5" stroke-linecap="round"/></g><g><path d="M251.6148,186.58565c0.27045,-0.45106 0.59856,-0.81065 0.96876,-1.08895c2.64105,-1.98544 7.42426,0.16622 8.69359,2.75869c0.51593,1.05375 -0.30394,4.38356 -2.01815,3.55492c-2.27621,-1.10032 0.03593,-2.93021 -2.58633,-3.58798c-0.81699,-0.20494 -3.65033,0.6868 -4.0174,0.27655z" fill="#985933" stroke="none" stroke-width="0.5" stroke-linecap="butt"/><path d="M257.03179,190.6649c1.19161,0.34709 3.26703,0.13681 3.61599,1.76791c0.3816,1.7837 -1.51236,2.53371 -2.82172,2.23885c-1.70396,-0.38371 -6.20827,-1.86854 -6.78146,-3.97016c-0.44507,-0.44565 -0.64964,-1.10836 -0.48065,-1.76231c0.25429,-0.98404 1.25816,-1.57562 2.24221,-1.32133c0.37372,0.09658 0.69083,0.30126 0.92651,0.57192c0.92326,0.70032 1.78207,2.03324 3.29913,2.47512z" fill="#d3a689" stroke="none" stroke-width="0.5" stroke-linecap="butt"/><path d="M269.85449,193.94157c1.19001,1.15861 1.6202,2.4225 1.53173,3.68522c-0.259,3.69702 -4.96394,7.38408 -8.06241,8.38976c-5.73044,1.85994 -13.36049,-3.7673 -17.94949,-6.95553c-1.77985,-1.23656 -9.4543,-5.78716 -4.6188,-8.63672c1.7553,-1.0344 2.54041,-0.12336 3.42308,0.88458c2.06974,2.36345 6.70523,6.99691 10.00769,7.87941c0.36919,0.09866 5.36644,1.63755 7.41823,1.76944c0.1725,0.01109 4.55866,-2.80622 4.62628,-2.98563c0.42258,-1.12116 0.0737,-3.06233 1.22964,-3.3776z" fill="#985933" stroke="none" stroke-width="0.5" stroke-linecap="butt"/><path d="M272.48807,186.48119c0.1076,0.21951 0.20403,0.43047 0.28748,0.63313c0.36693,0.56676 0.50449,1.27949 0.32225,1.98471c-0.34545,1.3368 -1.70918,2.14044 -3.04598,1.79499c-0.25519,-0.06594 -0.49094,-0.169 -0.70299,-0.30188c-0.19126,-0.11985 -0.36321,-0.26398 -0.51274,-0.42705c-1.5795,-0.93415 -3.57734,-2.50388 -5.11167,-3.69977c-3.69122,-2.87703 -9.44488,-5.11364 -14.09555,-6.01318c-4.36992,-0.84524 -5.85383,5.94286 -7.02362,6.63222c-2.13628,1.25891 -4.69838,0.3028 -4.22567,-2.38304c0.76614,-4.353 6.54976,-10.29185 11.49078,-9.35102c6.67211,1.27045 11.92563,4.48965 17.40174,7.63827c1.7909,1.02972 3.90394,1.74496 5.09712,3.45476z" fill="#d3a689" stroke="none" stroke-width="0.5" stroke-linecap="butt"/><path d="M253.45613,194.56731l0.02645,0.0379l0.01959,0.0114zM253.28387,194.38106l-0.04611,-0.01191l0.13047,0.11363zM259.51164,191.46651l0.15337,0.00852l0.15277,-0.09003l0.48599,-1.88064l0.0033,-0.41803l-0.01838,-0.06216l-0.08924,-0.27496l-0.48102,-0.81625l-0.07953,-0.08517l-0.31958,-0.24366l-0.07434,-0.09299l-2.40458,-0.62138l-1.38409,-0.12175l-0.89814,0.02283l-0.14045,-0.03135l-0.14214,0.02253l-0.25836,-0.02272l-0.06068,0.02498l-0.67259,0.30186l-0.18961,0.11173l-0.10678,0.09554l-0.00472,0.085l-0.07369,0.23785l-0.00197,0.249l-0.04021,0.1556l0.18126,0.09851l0.51174,0.26094l0.05253,0.04575l0.06309,0.03429l0.0062,0.02272l0.21515,0.13932l0.0513,0.05494l0.06958,0.02847l0.56086,0.41186l0.69673,0.45115l0.20938,0.22422c0.14127,0.0482 0.27575,0.1081 0.40264,0.17833l0.03754,-0.0005l0.05126,0.05208c0.14114,0.08594 0.27204,0.18497 0.3915,0.29502l0.06482,0.03523l0.00998,0.03662c0.12239,0.12255 0.23139,0.25718 0.3255,0.40136l0.21188,0.15559l0.23485,0.28316l0.16303,0.05193l0.01442,0.02944l0.95624,0.24711l0.11158,0.00088l0.59476,-0.07632l0.22969,0.02708zM272.48067,191.18886l-0.25287,0.46524l-0.1834,0.37939l-0.541,2.09351l0.14385,0.67237l-0.008,0.23393l0.06252,0.22556l0.02643,1.03968l-0.07595,0.34033l-0.00276,0.34869l-0.17871,0.69157l-0.22611,0.416l-0.17931,0.43821l-0.45534,0.62009l-0.30226,0.2507l-0.25377,0.29968l-0.76762,0.5517l-2.80261,2.66008l-1.55479,1.49638l-1.1773,1.15883l-0.38183,0.22501l-0.34826,0.27412l-0.83454,0.37454l-0.0006,0.0001l-0.02302,0.03155l-0.62447,0.08418l-0.62029,0.11087l-0.03157,-0.02301l-0.0006,0.00008l-1.00394,-0.11188l-0.2972,-0.1105l-0.31486,-0.03751l-1.20907,-0.46l-0.04831,-0.03366l-0.05808,-0.00964l-2.52073,-1.09405l-0.02928,-0.02247l-0.03622,-0.00709l-2.10579,-0.98682l-0.11589,-0.09432l-0.14226,-0.0457l-2.02217,-1.25591l-2.5396,-1.53734l-0.05544,-0.05587l-0.07364,-0.02779l-2.37776,-1.6473l-0.00491,-0.0056l-0.00694,-0.00267l-1.99856,-1.40176l-0.21038,-0.24271l-0.26093,-0.18729l-1.86238,-2.19656l-0.51921,-0.52748l-0.24432,-0.41459l-0.28568,-0.38725l-1.08789,-2.64192l-0.02511,-0.17124l-0.08285,-0.15195l-0.36989,-1.42353l-0.00216,-0.23405l-0.07226,-0.22263l-0.18651,-2.7041l0.07041,-0.39566l0.00318,-0.40187l0.60762,-2.35133l0.14697,-0.2704l0.077,-0.29797l0.56256,-1.03503l0.0663,-0.0722l0.03174,-0.09275l0.49108,-0.75839l0.18199,-0.16994l0.12525,-0.21521l0.80345,-0.82522l0.1676,-0.10362l0.12431,-0.15289l0.73197,-0.5486l0.234,-0.09843l0.1963,-0.16097l1.00859,-0.47712l0.09329,-0.01861l0.07785,-0.05468l1.14691,-0.44137l0.28158,-0.03463l0.26274,-0.10704l1.80948,-0.25851l1.3589,-0.22675l0.38333,0.03059l0.38251,-0.03944l1.28056,0.18336l0.13036,0.05316l0.14077,0.00112l4.0111,1.03653l0.07013,0.03812l0.07963,0.00561l2.17727,0.71019l0.1596,0.10013l0.18391,0.04094l1.69437,0.84788l1.23702,0.44251l1.68828,0.43628l0.11153,0.06062l0.12621,0.01363l1.34739,0.49574l0.13348,0.09084l0.15703,0.03754l1.69085,0.87959l0.04236,0.0375l0.05439,0.01557l2.31093,1.33494l0.17479,0.16908l0.21664,0.11047l1.12601,0.98069l0.53627,0.39379l0.06773,0.08165l0.09451,0.04819l0.24088,0.2098l0.03472,0.04975l0.92677,0.29522l0.0729,-0.00503l0.02481,0.03615l0.69791,0.22232l0.5671,1.15696l0.06683,0.31237l-0.00813,0.23752l0.07693,0.11212l-0.09667,0.4642l-0.01622,0.47387l-0.10134,0.09067l-0.04845,0.23267l-0.31703,0.65583l-0.21391,0.25642l-0.15169,0.29748l-0.17271,0.1983l-0.20016,0.45059l-0.06272,0.08031z" fill="url(#color-4)" stroke="none" stroke-width="0.5" stroke-linecap="butt"/><path d="M244.24963,182.53127l5.10514,-1.4842" fill="none" stroke="#ff0000" stroke-width="2.5" stroke-linecap="round"/><path d="M262.85048,187.63314l-2.28765,-4.27992" fill="none" stroke="#ff0000" stroke-width="2.5" stroke-linecap="round"/><path d="M265.11018,195.44703l-4.6513,5.43778" fill="none" stroke="#ff0000" stroke-width="2.5" stroke-linecap="round"/><path d="M246.61191,190.51923l3.97849,5.15951" fill="none" stroke="#ff0000" stroke-width="2.5" stroke-linecap="round"/><path d="M250.08058,185.66112l-6.57373,3.17039" fill="none" stroke="#1dff00" stroke-width="2.5" stroke-linecap="round"/><path d="M254.93703,180.57147l0.39165,3.05221" fill="none" stroke="#1dff00" stroke-width="2.5" stroke-linecap="round"/><path d="M266.97194,192.23939l3.52618,-3.36773" fill="none" stroke="#1dff00" stroke-width="2.5" stroke-linecap="round"/><path d="M257.01036,198.81325l0.83138,-4.35921" fill="none" stroke="#1dff00" stroke-width="2.5" stroke-linecap="round"/><path d="M246.88238,195.75336l7.78746,-3.29939" fill="none" stroke="#0067ff" stroke-width="2.5" stroke-linecap="round"/><path d="M250.69751,182.13181l-3.67544,-4.04834" fill="none" stroke="#0067ff" stroke-width="2.5" stroke-linecap="round"/><path d="M265.26083,185.15745l-6.68411,-0.39934" fill="none" stroke="#0067ff" stroke-width="2.5" stroke-linecap="round"/><path d="M265.01843,189.52132l-0.38687,9.49077" fill="none" stroke="#0067ff" stroke-width="2.5" stroke-linecap="round"/></g></g></g></svg>