<svg version="1.1" xmlns="http://www.w3.org/2000/svg" xmlns:xlink="http://www.w3.org/1999/xlink" width="72.37695" height="64.62598" viewBox="0,0,72.37695,64.62598"><defs><radialGradient cx="241.18205" cy="181.86715" r="40.85818" gradientUnits="userSpaceOnUse" id="color-1"><stop offset="0" stop-color="#ff91cd"/><stop offset="1" stop-color="#ff5264"/></radialGradient></defs><g transform="translate(-204.39792,-147.19687)"><g stroke="none" stroke-width="0.5" stroke-miterlimit="10"><path d="M267.828,155.67731c3.31178,-1.96604 5.5446,-2.52278 6.9514,-2.13084c4.11888,1.14751 1.15721,10.42717 -2.53643,16.27916c-6.83115,10.82292 -25.85783,23.75694 -37.06073,31.5717c-4.34508,3.03097 -22.12291,16.2424 -17.92732,6.87647c1.52301,-3.39985 3.88768,-4.67024 6.5262,-6.10143c6.18693,-3.35598 19.23486,-10.99247 25.56673,-16.8736c0.70785,-0.65747 10.53857,-9.51966 13.96222,-13.24944c0.28784,-0.31358 3.80856,-8.85154 3.6962,-9.00794c-0.70213,-0.97742 -3.63567,-0.69284 -2.18428,-2.86511z" fill="#985933"/><path d="M262.8724,149.49968c0.44007,-0.15686 0.8519,-0.29484 1.23293,-0.41058c1.27792,-0.56803 2.37006,-0.68984 2.94456,-0.22791c1.08902,0.87559 -0.09425,3.51703 -2.64289,5.89978c-0.48651,0.45486 -0.98762,0.8674 -1.48759,1.23113c-0.45095,0.32806 -0.90096,0.61641 -1.33852,0.86026c-3.65595,2.71953 -8.75588,6.08861 -12.66075,8.67778c-9.3942,6.22894 -21.28254,16.34787 -29.77874,24.69251c-7.9833,7.84088 -2.02377,11.79264 -3.03876,14.05841c-1.85358,4.13778 -7.0986,8.65101 -9.63852,7.29675c-4.11651,-2.19486 -2.19943,-13.85832 6.80897,-22.72662c12.16453,-11.97533 24.46185,-21.00018 37.02659,-30.44516c4.10914,-3.08886 8.34506,-6.82441 12.33737,-8.69583z" fill="#d3a689"/><path d="M268.62979,150.37105l0.16811,0.54742l0.17337,0.40465l1.70547,1.37124l1.05267,-0.14067l0.27395,0.05727l0.37582,-0.0733l1.31612,0.14109l0.29633,0.20096l0.42292,0.06859l0.56338,0.45297l0.15031,0.48948l0.25195,0.40791l0.036,0.94604l-0.17331,0.59867l-0.03621,0.51889l-0.54428,1.50491l-1.19582,5.61218l-0.63808,3.1172l-0.45159,2.36506l-0.3313,0.73957l-0.21774,0.6871l-0.8678,1.59506l-0.00082,0.00111l0.00207,0.04786l-0.88966,1.15783l-0.85029,1.15503l-0.07838,0.05357l-0.00086,0.00111l-1.73321,1.81635l-0.60792,0.52361l-0.54654,0.56921l-2.48596,2.12822l-0.11805,0.08224l-0.10414,0.1045l-5.34831,4.41239l-0.07409,0.04948l-0.06627,0.06497l-4.5572,3.67278l-0.29984,0.19484l-0.28217,0.25194l-4.75402,3.47077l-5.92153,4.36614l-0.15659,0.09124l-0.15114,0.12967l-5.79901,4.05002l-0.01465,0.00795l-0.01431,0.01222l-4.89523,3.401l-0.6319,0.34067l-0.64436,0.44325l-5.65275,3.00703l-1.47188,0.8538l-0.89651,0.37144l-0.92876,0.4521l-4.96721,1.50891l-0.24978,0.01475l-0.31793,0.12388l-2.33259,0.41734l-0.29026,-0.0387l-0.3877,0.09163l-3.61035,-0.1515l-0.37293,-0.20092l-0.48744,-0.07903l-1.9155,-1.54012l-0.09772,-0.31815l-0.24274,-0.19518l-0.37402,-1.21783l0.01694,-0.13446l-0.06321,-0.07496l-0.14867,-1.03664l0.08107,-0.36392l-0.0646,-0.26835l0.26606,-1.62031l0.13946,-0.32551l0.01026,-0.25528l0.49142,-1.43913l0.25139,-0.44604l0.11482,-0.38847l1.01879,-1.93218l0.12551,-0.17407l0.05675,-0.15239l1.28251,-2.17872l0.40523,-0.52147l0.28653,-0.5002l2.55998,-3.35759l1.88256,-2.52747l0.64693,-0.69574l0.5598,-0.70701l2.2606,-2.30941l0.27239,-0.22881l0.22517,-0.25734l7.64725,-7.14954l0.15822,-0.12137l0.13347,-0.14466l4.33184,-3.85396l0.37645,-0.27376l0.34255,-0.329l3.73285,-2.9454l2.50895,-2.18253l3.21875,-3.00926l0.25161,-0.193l0.21736,-0.22843l2.74966,-2.37476l0.32352,-0.22766l0.29567,-0.28045l3.76609,-2.93318l0.11331,-0.07067l0.10556,-0.09668l5.30996,-3.98467l0.48509,-0.28897l0.4798,-0.37622l2.99199,-1.88136l1.33518,-0.90937l0.20773,-0.10903l0.20931,-0.16412l0.64007,-0.40248l0.11616,-0.05445l1.8352,-1.64176l0.10973,-0.13428l0.08374,-0.0388l1.38202,-1.23635l2.31943,-0.82671l0.48905,-0.06536l0.27816,0.05814l0.25971,-0.12032l0.41518,0.26144l0.55495,0.11602l-0.05,0.20192l0.2081,0.13104l0.29968,0.69952l-0.02585,0.43807l0.12338,0.33173l-0.03157,0.35211l0.23396,0.4483l-0.00128,0.12938z" fill="url(#color-1)"/></g></g></svg>