<svg version="1.1" xmlns="http://www.w3.org/2000/svg" xmlns:xlink="http://www.w3.org/1999/xlink" width="72.51721" height="64.53383" viewBox="0,0,72.51721,64.53383"><defs><radialGradient cx="241.18205" cy="181.86716" r="40.85818" gradientUnits="userSpaceOnUse" id="color-1"><stop offset="0" stop-color="#ff91cd"/><stop offset="1" stop-color="#ff5264"/></radialGradient></defs><g transform="translate(-204.32232,-147.19687)"><g stroke-miterlimit="10"><path d="M267.89682,155.75628c3.31734,-1.95664 5.55172,-2.50706 6.95741,-2.11113c4.11561,1.15917 1.12766,10.43041 -2.58255,16.27191c-6.86179,10.80352 -25.92505,23.68357 -37.15005,31.46656c-4.35365,3.01865 -22.16885,16.17965 -17.94674,6.82565c1.53264,-3.39552 3.9009,-4.6592 6.54346,-6.08292c6.19642,-3.33844 19.26593,-10.93792 25.61445,-16.80108c0.70971,-0.65546 10.56551,-9.48976 13.99971,-13.20982c0.28873,-0.31277 3.83363,-8.84071 3.72171,-8.99743c-0.69936,-0.9794 -3.63369,-0.70314 -2.17615,-2.87128z" fill="#985933" stroke="none" stroke-width="0.5" stroke-linecap="butt"/><path d="M262.95874,149.56463c0.44051,-0.15561 0.85273,-0.29242 1.23409,-0.40708c1.27953,-0.5644 2.372,-0.68312 2.9452,-0.21957c1.08653,0.87867 -0.10422,3.51675 -2.6596,5.89227c-0.4878,0.45348 -0.99007,0.8646 -1.49107,1.22691c-0.45188,0.32679 -0.90271,0.61386 -1.34095,0.85646c-3.66364,2.70916 -8.7731,6.06377 -12.68528,8.64187c-9.41181,6.20229 -21.32878,16.2875 -29.84859,24.60803c-8.00549,7.81823 -2.05718,11.78685 -3.07859,14.04974c-1.8653,4.13251 -7.12308,8.63086 -9.65916,7.26941c-4.11027,-2.20652 -2.16015,-13.8645 6.87334,-22.70723c12.19841,-11.94081 24.52126,-20.93078 37.11271,-30.34011c4.11788,-3.07721 8.36437,-6.80073 12.36196,-8.66083z" fill="#d3a689" stroke="none" stroke-width="0.5" stroke-linecap="butt"/><path d="M268.62979,150.37106l0.16811,0.54742l0.17337,0.40465l1.70547,1.37124l1.05267,-0.14067l0.27395,0.05727l0.37582,-0.0733l1.31612,0.14109l0.29633,0.20096l0.42292,0.06859l0.56338,0.45297l0.15031,0.48948l0.25195,0.40791l0.036,0.94604l-0.17331,0.59867l-0.03621,0.51889l-0.54428,1.50491l-1.19582,5.61218l-0.63808,3.1172l-0.45159,2.36506l-0.3313,0.73957l-0.21774,0.6871l-0.8678,1.59506l-0.00082,0.00111l0.00207,0.04786l-0.88966,1.15783l-0.85029,1.15503l-0.07838,0.05357l-0.00086,0.00111l-1.73321,1.81635l-0.60792,0.52361l-0.54654,0.56921l-2.48596,2.12822l-0.11805,0.08224l-0.10414,0.1045l-5.34831,4.41239l-0.07409,0.04948l-0.06627,0.06497l-4.5572,3.67278l-0.29984,0.19484l-0.28217,0.25194l-4.75402,3.47077l-5.92153,4.36614l-0.15659,0.09124l-0.15114,0.12967l-5.79901,4.05002l-0.01465,0.00795l-0.01431,0.01222l-4.89523,3.401l-0.6319,0.34067l-0.64436,0.44325l-5.65275,3.00703l-1.47188,0.8538l-0.89651,0.37144l-0.92876,0.4521l-4.96721,1.50891l-0.24978,0.01475l-0.31793,0.12388l-2.33259,0.41734l-0.29026,-0.0387l-0.3877,0.09163l-3.61035,-0.1515l-0.37293,-0.20092l-0.48744,-0.07903l-1.9155,-1.54012l-0.09772,-0.31815l-0.24274,-0.19518l-0.37402,-1.21783l0.01694,-0.13446l-0.06321,-0.07496l-0.14867,-1.03664l0.08107,-0.36392l-0.0646,-0.26835l0.26606,-1.62031l0.13946,-0.32551l0.01026,-0.25528l0.49142,-1.43913l0.25139,-0.44604l0.11482,-0.38847l1.01879,-1.93218l0.12551,-0.17407l0.05675,-0.15239l1.28251,-2.17872l0.40523,-0.52147l0.28653,-0.5002l2.55998,-3.35759l1.88256,-2.52747l0.64693,-0.69574l0.5598,-0.70701l2.2606,-2.30941l0.27239,-0.22881l0.22517,-0.25734l7.64725,-7.14954l0.15822,-0.12137l0.13347,-0.14466l4.33184,-3.85396l0.37645,-0.27376l0.34255,-0.329l3.73285,-2.9454l2.50895,-2.18253l3.21875,-3.00926l0.25161,-0.193l0.21736,-0.22843l2.74966,-2.37476l0.32352,-0.22766l0.29567,-0.28045l3.76609,-2.93318l0.11331,-0.07067l0.10556,-0.09668l5.30996,-3.98467l0.48509,-0.28897l0.4798,-0.37622l2.99199,-1.88136l1.33518,-0.90937l0.20773,-0.10903l0.20931,-0.16412l0.64007,-0.40248l0.11616,-0.05445l1.8352,-1.64176l0.10973,-0.13428l0.08374,-0.0388l1.38202,-1.23635l2.31943,-0.82671l0.48905,-0.06536l0.27816,0.05814l0.25971,-0.12032l0.41518,0.26144l0.55495,0.11602l-0.05,0.20192l0.2081,0.13104l0.29968,0.69952l-0.02585,0.43807l0.12338,0.33173l-0.03157,0.35211l0.23396,0.4483l-0.00128,0.12938z" fill="url(#color-1)" stroke="none" stroke-width="0.5" stroke-linecap="butt"/><g fill="none" stroke-width="2.5" stroke-linecap="round"><g><path d="M211.42534,205.09404l0.13366,-5.31483" stroke="#ff0000"/><path d="M221.92719,188.91591l-4.77208,0.88219" stroke="#ff0000"/><path d="M233.82978,195.21311l-3.77139,-6.08117" stroke="#ff0000"/><path d="M225.87648,203.03838l-6.12296,2.22671" stroke="#ff0000"/><path d="M217.20375,207.71222l-1.02784,-7.22557" stroke="#1dff00"/><path d="M212.79845,194.31556l3.02726,0.55228" stroke="#1dff00"/><path d="M225.42634,182.00387l2.13996,4.38134" stroke="#1dff00"/><path d="M230.81009,197.87114l-3.90188,-2.11405" stroke="#1dff00"/><path d="M224.04051,198.17319l0.78273,8.42126" stroke="#0067ff"/><path d="M212.99982,198.82861l-4.97222,2.27485" stroke="#0067ff"/><path d="M217.89163,192.11669l2.4073,-6.24833" stroke="#0067ff"/><path d="M224.38385,187.42256l8.92664,3.24647" stroke="#0067ff"/></g><g><path d="M243.205,179.49544l-0.13366,5.31483" stroke="#ff0000"/><path d="M237.47524,194.79137l-4.77209,0.88219" stroke="#ff0000"/><path d="M224.57195,195.45754l-3.77139,-6.08117" stroke="#ff0000"/><path d="M234.87682,179.32439l-6.12297,2.22671" stroke="#ff0000"/><path d="M237.42659,176.87727l1.02784,7.22557" stroke="#1dff00"/><path d="M238.80463,189.72165l3.02726,0.55228" stroke="#1dff00"/><path d="M227.06404,198.20428l2.13997,4.38132" stroke="#1dff00"/><path d="M227.72213,188.8324l-3.90188,-2.11405" stroke="#1dff00"/><path d="M230.58983,186.41629l-0.78273,-8.42126" stroke="#0067ff"/><path d="M241.63052,185.76088l4.97223,-2.27486" stroke="#0067ff"/><path d="M236.73872,192.47279l-2.4073,6.24833" stroke="#0067ff"/><path d="M230.24649,197.16692l-8.92664,-3.24647" stroke="#0067ff"/></g></g><g fill="none" stroke-width="2.5" stroke-linecap="round"><g><path d="M269.96522,158.71838l-0.13366,5.31483" stroke="#ff0000"/><path d="M259.46338,174.8965l4.77209,-0.88219" stroke="#ff0000"/><path d="M247.56078,168.59932l3.77139,6.08118" stroke="#ff0000"/><path d="M261.63705,158.54734l-6.12297,2.22671" stroke="#ff0000"/><path d="M264.18682,156.1002l1.02784,7.22557" stroke="#1dff00"/><path d="M268.59211,169.49687l-3.02726,-0.55228" stroke="#1dff00"/><path d="M253.82427,177.42721l2.13996,4.38134" stroke="#1dff00"/><path d="M254.48235,168.05534l-3.90188,-2.11405" stroke="#1dff00"/><path d="M256.56732,157.21797l0.78273,8.42126" stroke="#0067ff"/><path d="M273.36297,162.70896l-4.97223,2.27486" stroke="#0067ff"/><path d="M261.09164,177.94406l2.4073,-6.24833" stroke="#0067ff"/><path d="M248.08008,173.14339l8.92664,3.24647" stroke="#0067ff"/></g><g><path d="M238.18557,184.31698l0.13366,-5.31483" stroke="#ff0000"/><path d="M243.91533,169.02105l4.77209,-0.88219" stroke="#ff0000"/><path d="M260.59002,174.43605l-3.77139,-6.08118" stroke="#ff0000"/><path d="M252.63671,182.26132l-6.12297,2.22671" stroke="#ff0000"/><path d="M243.96397,186.93516l-1.02784,-7.22557" stroke="#1dff00"/><path d="M239.55869,173.53849l3.02726,0.55228" stroke="#1dff00"/><path d="M252.18655,161.22682l2.13997,4.38132" stroke="#1dff00"/><path d="M253.66844,174.98004l3.90188,2.11404" stroke="#1dff00"/><path d="M250.80074,177.39613l0.78272,8.42127" stroke="#0067ff"/><path d="M239.76005,178.05154l-4.97223,2.27486" stroke="#0067ff"/><path d="M247.05916,165.0913l-2.4073,6.24833" stroke="#0067ff"/><path d="M260.07071,169.89197l-8.92664,-3.24647" stroke="#0067ff"/></g></g></g></g></svg>