<svg version="1.1" xmlns="http://www.w3.org/2000/svg" xmlns:xlink="http://www.w3.org/1999/xlink" width="35.3218" height="27.76596" viewBox="0,0,35.3218,27.76596"><defs><radialGradient cx="240.29597" cy="180.5335" r="17.36493" gradientUnits="userSpaceOnUse" id="color-1"><stop offset="0" stop-color="#ff91cd"/><stop offset="1" stop-color="#ff5264"/></radialGradient></defs><g transform="translate(-222.3391,-166.11702)"><g stroke="none" stroke-width="0.5" stroke-miterlimit="10"><path d="M235.64532,176.62554c0.14899,-0.50438 0.3767,-0.93463 0.6655,-1.2967c2.0603,-2.58308 7.22972,-1.6966 9.10731,0.49584c0.76317,0.89115 0.80248,4.32019 -1.06453,3.94679c-2.47911,-0.49582 -0.69834,-2.846 -3.40177,-2.82677c-0.84228,0.00599 -3.36239,1.57826 -3.82043,1.2729z" fill="#985933"/><path d="M255.14532,179.18399c1.44204,0.82402 2.17477,1.94008 2.40505,3.18478c0.67422,3.64424 -2.95858,8.39119 -5.70689,10.14012c-5.08283,3.23453 -13.87813,-0.30472 -19.11886,-2.24339c-2.03263,-0.75192 -10.60154,-3.23766 -6.63278,-7.20642c1.44067,-1.44067 2.42875,-0.75504 3.53553,0c2.59524,1.77044 8.24258,5.09674 11.6608,5.12491c0.38213,0.00315 5.60547,0.2428 7.625,-0.14286c0.16979,-0.03242 3.71156,-3.85753 3.73214,-4.04815c0.12863,-1.19123 -0.69483,-2.98337 0.34546,-3.57783z" fill="#985933"/><path d="M255.82858,171.30197c0.1591,0.18561 0.30524,0.36573 0.43674,0.54107c0.49706,0.45693 0.80857,1.11257 0.80857,1.84096c0,1.38071 -1.11929,2.5 -2.5,2.5c-0.26357,0 -0.51761,-0.04079 -0.75616,-0.11639c-0.21516,-0.06819 -0.41771,-0.16471 -0.60328,-0.28518c-1.76299,-0.50925 -4.09003,-1.5292 -5.87476,-2.30317c-4.29364,-1.86199 -10.4239,-2.58792 -15.15172,-2.29526c-4.44241,0.27499 -4.18076,7.21846 -5.14087,8.17857c-1.75336,1.75336 -4.47319,1.46869 -4.6875,-1.25c-0.34734,-4.40624 3.76645,-11.60325 8.78571,-11.92857c6.77777,-0.4393 12.66963,1.3631 18.75935,3.04147c1.99157,0.54889 4.21636,0.71271 5.79938,2.06959z" fill="#d3a689"/><path d="M241.91064,179.21973c1.24055,0.03791 3.19735,-0.68494 3.94331,0.80697c0.81574,1.63149 -0.83033,2.83151 -2.17182,2.87363c-1.74577,0.05482 -6.47832,-0.25582 -7.5591,-2.14718c-0.54241,-0.32012 -0.90629,-0.91057 -0.90629,-1.586c0,-1.01637 0.82393,-1.8403 1.8403,-1.8403c0.386,0 0.74423,0.11884 1.04013,0.32192c1.06911,0.44705 2.2341,1.5227 3.81347,1.57096z" fill="#d3a689"/><path d="M239.42506,183.89265l0.03509,0.03008l0.02182,0.00614zM239.21168,183.75542h-0.04762l0.15475,0.07737zM244.51217,179.3754l0.15062,-0.03012l0.12539,-0.12539v-1.94242l-0.10139,-0.40556l-0.03335,-0.05558l-0.1552,-0.24389l-0.66994,-0.66994l-0.09831,-0.06256l-0.37038,-0.15595l-0.09524,-0.07143h-2.48357l-1.37053,0.22842l-0.86386,0.24682l-0.14383,0.00479l-0.13198,0.05738l-0.25583,0.04264l-0.0525,0.03937l-0.57567,0.46054l-0.15562,0.15562l-0.07948,0.11922l0.0167,0.08348l-0.01184,0.24872l0.06039,0.24157v0.16071l0.20014,0.05003l0.56075,0.12461l0.06231,0.03115l0.06966,0.01742l0.01169,0.02045l0.24317,0.08106l0.06342,0.04036l0.07449,0.01016l0.64607,0.25843l0.78745,0.26248l0.25882,0.1647c0.14884,0.01132 0.29403,0.03567 0.43445,0.07192l0.03622,-0.00988l0.06266,0.0376c0.15815,0.04789 0.30967,0.11102 0.45286,0.18769l0.07157,0.01789l0.01883,0.03296c0.14916,0.08803 0.28838,0.19111 0.41557,0.30715l0.24407,0.09763l0.29823,0.21539l0.17084,0.00949l0.02133,0.02489h0.98765l0.10825,-0.02706l0.55675,-0.2227l0.22916,-0.03125zM256.99925,175.86176l-0.12843,0.51371l-0.08264,0.41321v2.16228l0.3075,0.61499l0.05078,0.22849l0.11697,0.20274l0.28571,1l0.01162,0.34851l0.08457,0.33829v0.71429l-0.11484,0.45934l-0.06397,0.46914l-0.28571,0.71429l-0.22992,0.31835l-0.17072,0.35364l-0.60517,0.72621l-2.04793,3.27668l-1.13095,1.83779l-0.84992,1.41653l-0.31339,0.31339l-0.2686,0.35254l-0.71429,0.57143l-0.00055,0.00025l-0.01439,0.03631l-0.58355,0.23774l-0.57282,0.26254l-0.03632,-0.01438l-0.00056,0.00023l-1,0.14286l-0.3154,-0.03263l-0.31423,0.04246l-1.28571,-0.14286l-0.05519,-0.0205l-0.05864,0.0052l-2.71429,-0.42857l-0.03397,-0.01443l-0.03684,0.0022l-2.28571,-0.42857l-0.1358,-0.06233l-0.14917,-0.00865l-2.27208,-0.71002l-2.84346,-0.85304l-0.06765,-0.04022l-0.07825,-0.00848l-2.71429,-1l-0.00615,-0.00419l-0.00739,-0.00085l-2.28571,-0.85714l-0.26441,-0.18235l-0.29949,-0.11605l-2.35272,-1.66074l-0.63467,-0.3808l-0.34028,-0.34028l-0.37348,-0.30346l-1.71429,-2.28571l-0.06716,-0.15951l-0.11823,-0.12639l-0.71429,-1.28571l-0.06065,-0.22607l-0.12566,-0.19747l-0.85714,-2.57143l-0.03082,-0.40069l-0.09747,-0.38988v-2.42857l0.07464,-0.29857v-0.30776l0.28571,-1.14286l0.04613,-0.08649l0.00752,-0.09774l0.28571,-0.85714l0.13368,-0.21007l0.06742,-0.2397l0.57143,-1l0.13634,-0.14226l0.0821,-0.17913l0.57143,-0.71429l0.20193,-0.15385l0.14978,-0.20496l0.85714,-0.71429l0.08567,-0.04136l0.06169,-0.07242l1,-0.71429l0.26396,-0.10398l0.2276,-0.16937l1.68725,-0.70302l1.25895,-0.55953l0.37879,-0.06629l0.36048,-0.13389l1.28571,-0.14286l0.13951,0.01885l0.13657,-0.03414h4.14286l0.07744,0.01936l0.0785,-0.01449l2.28571,0.14286l0.17958,0.05701l0.1883,-0.00638l1.85262,0.39699l1.30839,0.11894h1.74374l0.12315,0.03079l0.12561,-0.01838l1.42857,0.14286l0.15196,0.05455l0.16143,-0.00294l1.85714,0.42857l0.0504,0.02571l0.05656,0.00147l2.57143,0.71429l0.21153,0.11997l0.23739,0.05275l1.33556,0.66778l0.61774,0.24709l0.086,0.06211l0.10356,0.02301l0.28571,0.14286l0.04606,0.03948l0.97116,0.05395l0.06932,-0.02311l0.03306,0.02879l0.73134,0.04063l0.83853,0.97828l0.14286,0.28571l0.05156,0.232l0.10254,0.08931l0.02255,0.47362l0.10286,0.46286l-0.07543,0.11314l0.0113,0.23739l-0.14286,0.71429l-0.14295,0.30178l-0.07244,0.32597l-0.1176,0.2352l-0.08106,0.48634l-0.04063,0.09345z" fill="url(#color-1)"/><path d="M230.90382,187.23238c-0.12127,-0.48507 0.3638,-0.60634 0.3638,-0.60634l0.4076,-0.10038c3.02787,-1.00486 6.51986,0.12473 9.57106,0.54748c1.19475,0.16554 2.71752,0.06767 3.96944,0.28647c-2.22501,-1.72052 -6.49914,-2.28522 -9.04845,-3.16655c-2.47867,-0.83829 -5.05805,-1.36737 -7.51702,-2.21844c-0.97294,-0.33675 -2.35548,-0.72993 -2.83441,-1.78328c-0.46391,-1.02033 0.20313,-2.014 1.19045,-2.13335c2.2519,-0.2722 4.68589,0.1152 6.90698,0.44844c4.27615,0.74343 8.54057,1.47819 12.79577,2.33658c0.56021,0.11301 1.29364,0.17252 2.03729,0.25879c-1,-0.43061 -2.01224,-0.83332 -3.03985,-1.14782c-5.20407,-2.07989 -11.86792,-1.75352 -16.92138,-4.0538l-0.02649,0.0883l-0.94707,-0.28412c-0.21162,-0.05821 -0.36709,-0.25203 -0.36709,-0.48215c0,-0.24401 0.17479,-0.44719 0.406,-0.49117l0.57662,-0.12183c1.19896,-0.40047 2.4416,-0.73891 3.60943,-1.20309c4.57731,-0.68968 9.39847,-0.35057 14.01906,-0.35057c0.33568,0 0.94884,-0.04228 1.62674,-0.0641c-4.83728,-1.14932 -9.48879,-3.05836 -14.21823,-4.51357c0,0 -0.47789,-0.14704 -0.33085,-0.62493c0.14704,-0.47789 0.62493,-0.33084 0.62493,-0.33084c4.93595,1.51875 9.78455,3.5302 14.85067,4.65717c0.77088,0.25367 1.55308,0.44049 2.32233,0.69979l0.03816,0.04243l0.01015,-0.01692l0.5477,0.32862c0.14979,0.08637 0.25061,0.24814 0.25061,0.43346c0,0.27614 -0.22386,0.5 -0.5,0.5h-0.66666v-0.10859c-1.49331,0.21018 -3.0197,-0.00252 -4.55555,-0.00252c-4.53542,0 -9.26174,-0.32846 -13.75872,0.31609c-0.73468,0.29581 -1.50279,0.53901 -2.27065,0.77825c1.16964,0.15504 2.48113,0.63864 3.44746,0.80178c4.24743,0.71708 8.54982,1.45162 12.56573,3.05935c1.87135,0.57786 3.69299,1.4339 5.48311,2.22965l0.71221,0.29238c0.18766,0.07203 0.32086,0.25394 0.32086,0.46695c0,0.27614 -0.22386,0.5 -0.5,0.5h-1v-0.14796c-2.17891,0.17129 -4.3094,-0.48042 -6.50419,-0.93228c-3.58342,-0.73776 -7.19445,-1.29927 -10.79797,-1.92619c-0.98068,-0.14707 -1.94239,-0.29218 -2.93172,-0.36446c-0.65253,-0.04767 -1.30719,-0.07205 -1.96145,-0.07266c-2.93686,-0.00274 -2.37176,1.11381 0.11675,1.97306c2.45817,0.84878 5.03628,1.37941 7.51385,2.21734c2.77412,0.95904 7.65893,1.5761 9.73191,3.66661l0.60229,0.30115c0.16913,0.08017 0.28608,0.25245 0.28608,0.45206c0,0.24578 -0.17733,0.45013 -0.41102,0.49211l-0.9715,0.1943l-0.03153,-0.15763c-4.42481,0.95908 -9.26904,-2.20705 -13.70561,-0.7211l-0.48129,0.12184c0,0 -0.48507,0.12127 -0.60634,-0.3638z" fill="#ab0000"/><path d="M229.09087,186.22726c0.10607,-0.74246 0.84853,-0.63639 0.84853,-0.63639l0.82813,0.12006c1.90438,0.53994 4.72962,1.22885 7.01136,2.26943c-1.10238,-0.89079 -2.27535,-1.64992 -3.67544,-2.2868c-2.73426,-1.01138 -9.89656,-2.68156 -10.45156,-6.11006c-0.68976,-4.26102 6.50904,-2.49594 8.62084,-1.58776c1.08845,0.46808 1.73157,0.90876 2.7363,1.52178c3.47124,2.40213 6.72203,5.12993 10.57568,6.94095c0.46991,0.22083 4.13329,2.01493 4.61934,1.4668c0.21416,-0.2415 -0.3567,-0.54055 -0.49555,-0.83193c-0.68472,-1.43682 -1.38392,-2.54814 -2.51662,-3.67412c-4.88541,-4.89103 -11.80569,-5.39675 -17.37283,-8.99243c-1.18833,-0.76752 -4.74266,-2.9644 -2.847,-4.9595c0.20353,-0.21421 2.35774,-0.39233 2.82391,-0.43857c5.93689,0.01816 12.04836,5.61975 16.49539,9.04406c1.25298,0.96483 2.99421,1.8638 4.11749,3.05438l0.03714,-0.06603c-0.10742,-0.92193 -0.22158,-1.98071 -0.51085,-2.73623c-0.85885,-2.24311 -5.34478,-3.85835 -7.17119,-4.99715c-1.08256,-0.6757 -6.71987,-3.52863 -3.22986,-5.05375c0.66976,-0.29269 3.25597,0.71433 3.88094,0.89977c3.9967,1.18583 7.55531,3.42584 11.51323,4.54955c0,0 0.72115,0.20604 0.51511,0.92718c-0.20604,0.72115 -0.92719,0.5151 -0.92719,0.5151c-3.49348,-1.00378 -6.62896,-2.99285 -10.11214,-4.11184c-0.75824,-0.24359 -2.04898,-0.64721 -2.82499,-0.83957c-0.37611,-0.09323 -0.76455,-0.13513 -1.13961,-0.23118c1.03071,0.69645 2.05548,1.40861 3.11875,2.07227c2.26944,1.41811 6.51488,2.95384 7.7289,5.61984c0.46377,1.01845 0.57374,2.77246 0.73315,3.88549l0.10928,0.76501c0.00616,0.0387 0.00937,0.0784 0.00937,0.11884c0,0.41422 -0.33578,0.75 -0.75,0.75c-0.13843,0 -0.2681,-0.0375 -0.3794,-0.1029l-1.29566,-0.72881l0.0737,-0.13103c-4.68747,-2.26389 -8.61165,-6.43574 -13.10977,-9.03782c-2.04968,-1.1857 -4.36483,-2.677 -6.80706,-2.66703c-0.61115,0.06164 -1.29547,-0.27301 -1.84276,0.00587c-0.32166,0.16391 0.15379,0.74128 0.39781,1.00734c0.76477,0.83383 1.95885,1.62894 2.97436,2.12711c5.75674,2.82398 12.15782,4.0019 16.85245,8.6914c0.95678,0.96192 4.29856,4.73477 3.21005,6.38284c-0.94567,1.43181 -4.05737,0.14189 -5.11061,-0.26759c-4.50195,-1.75028 -8.2442,-4.98616 -12.16094,-7.69896c-2.34889,-1.43434 -4.26392,-1.54573 -6.78598,-2.27593c-0.72503,-0.20991 -2.63369,-0.60163 -2.27918,0.80647c0.665,2.64138 7.31498,4.17521 9.54844,5.00105c2.56564,1.16539 4.45363,2.71259 6.43641,4.68919l0.64278,0.53565c0.16745,0.13755 0.27426,0.34622 0.27426,0.57983c0,0.41422 -0.33578,0.75 -0.75,0.75c-0.03784,0 -0.07502,-0.0028 -0.11136,-0.00821l-1.4746,-0.19661l0.04126,-0.30944c-3.16323,-0.45183 -6.15447,-2.26868 -9.27838,-3.1689l-0.72743,-0.10215c0,0 -0.74246,-0.10607 -0.63639,-0.84853z" fill="#d90034"/></g></g></svg>