<svg version="1.1" xmlns="http://www.w3.org/2000/svg" xmlns:xlink="http://www.w3.org/1999/xlink" width="51.21398" height="67.16164" viewBox="0,0,51.21398,67.16164"><g transform="translate(-217.9686,-136.34633)"><g data-paper-data="{&quot;isPaintingLayer&quot;:true}" fill-rule="nonzero" stroke="none" stroke-width="0.5" stroke-linecap="butt" stroke-linejoin="miter" stroke-miterlimit="10" stroke-dasharray="" stroke-dashoffset="0" style="mix-blend-mode: normal"><path d="M239.42507,193.51765l0.03509,0.03008l0.02182,0.00614zM239.21169,193.38042h-0.04762l0.15475,0.07737zM256.99926,185.48676l-0.12843,0.51371l-0.08264,0.41321v2.16228l0.3075,0.61499l0.05078,0.22849l0.11697,0.20274l0.28571,1l0.01162,0.34851l0.08457,0.33829v0.71429l-0.11484,0.45934l-0.06397,0.46914l-0.28571,0.71429l-0.22992,0.31835l-0.17072,0.35364l-0.60517,0.72621l-2.04793,3.27668l-1.13095,1.83779l-0.84992,1.41653l-0.31339,0.31339l-0.2686,0.35254l-0.71429,0.57143l-0.00055,0.00025l-0.01439,0.03631l-0.58355,0.23774l-0.57282,0.26254l-0.03632,-0.01438l-0.00056,0.00023l-1,0.14286l-0.3154,-0.03263l-0.31423,0.04246l-1.28571,-0.14286l-0.05519,-0.0205l-0.05864,0.0052l-2.71429,-0.42857l-0.03397,-0.01443l-0.03684,0.0022l-2.28571,-0.42857l-0.1358,-0.06233l-0.14917,-0.00865l-2.27208,-0.71002l-2.84346,-0.85304l-0.06765,-0.04022l-0.07825,-0.00848l-2.71429,-1l-0.00615,-0.00419l-0.00739,-0.00085l-2.28571,-0.85714l-0.26441,-0.18235l-0.29949,-0.11605l-2.35272,-1.66074l-0.63467,-0.3808l-0.34028,-0.34028l-0.37348,-0.30346l-1.71429,-2.28571l-0.06716,-0.15951l-0.11823,-0.12639l-0.71429,-1.28571l-0.06065,-0.22607l-0.12566,-0.19747l-0.85714,-2.57143l-0.03082,-0.40069l-0.09747,-0.38988v-2.42857l0.07464,-0.29857v-0.30776l0.28571,-1.14286l0.04613,-0.08649l0.00752,-0.09774l0.28571,-0.85714l0.13368,-0.21007l0.06742,-0.2397l0.57143,-1l0.13634,-0.14226l0.0821,-0.17913l0.57143,-0.71429l0.20193,-0.15385l0.14978,-0.20496l0.85714,-0.71429l0.08567,-0.04136l0.06169,-0.07242l1,-0.71429l0.26396,-0.10398l0.2276,-0.16937l1.68725,-0.70302l1.25895,-0.55953l0.37879,-0.06629l0.36048,-0.13389l1.28571,-0.14286l0.13951,0.01885l0.13657,-0.03414h4.14286l0.07744,0.01936l0.0785,-0.01449l2.28571,0.14286l0.17958,0.05701l0.1883,-0.00638l1.85262,0.39699l1.30839,0.11894h1.74374l0.12315,0.03079l0.12561,-0.01838l1.42857,0.14286l0.15196,0.05455l0.16143,-0.00294l1.85714,0.42857l0.0504,0.02571l0.05656,0.00147l2.57143,0.71429l0.21153,0.11997l0.23739,0.05275l1.33556,0.66778l0.61774,0.24709l0.086,0.06211l0.10356,0.02301l0.28571,0.14286l0.04606,0.03948l0.97116,0.05395l0.06932,-0.02311l0.03306,0.02879l0.73134,0.04063l0.83853,0.97828l0.14286,0.28571l0.05156,0.232l0.10254,0.08931l0.02255,0.47362l0.10286,0.46286l-0.07543,0.11314l0.0113,0.23739l-0.14286,0.71429l-0.14295,0.30178l-0.07244,0.32597l-0.1176,0.2352l-0.08106,0.48634l-0.04063,0.09345z" fill="#fff47d"/><path d="M255.82859,180.92697c0.1591,0.18561 0.30524,0.36573 0.43674,0.54107c0.49706,0.45693 0.80857,1.11257 0.80857,1.84096c0,1.38071 -1.11929,2.5 -2.5,2.5c-0.26357,0 -0.51761,-0.04079 -0.75616,-0.11639c-0.21516,-0.06819 -0.41771,-0.16471 -0.60328,-0.28518c-1.76299,-0.50925 -4.09003,-1.5292 -5.87476,-2.30317c-4.29364,-1.86199 -10.4239,-2.58792 -15.15172,-2.29526c-4.44241,0.27499 -4.18076,7.21846 -5.14087,8.17857c-1.75336,1.75336 -4.47319,1.46869 -4.6875,-1.25c-0.34734,-4.40624 3.76645,-11.60325 8.78571,-11.92857c6.77777,-0.4393 12.66963,1.3631 18.75935,3.04147c1.99157,0.54889 4.21636,0.71271 5.79938,2.06959z" fill="#fffac6"/><path d="M255.14533,188.80899c1.44204,0.82402 2.17477,1.94008 2.40505,3.18478c0.67422,3.64424 -2.95858,8.39119 -5.70689,10.14012c-5.08283,3.23453 -13.87813,-0.30472 -19.11886,-2.24339c-2.03263,-0.75192 -10.60154,-3.23766 -6.63278,-7.20642c1.44067,-1.44067 2.42875,-0.75504 3.53553,0c2.59524,1.77044 8.24258,5.09674 11.6608,5.12491c0.38213,0.00315 5.60547,0.2428 7.625,-0.14286c0.16979,-0.03242 3.71156,-3.85753 3.73214,-4.04815c0.12863,-1.19123 -0.69483,-2.98337 0.34546,-3.57783z" fill="#ddd25b"/><path d="M235.64376,180.55029c-3.40304,-0.55688 -7.65701,-1.73098 -10.6203,-0.95015c-2.65025,0.69835 -4.98384,3.79374 -3.95778,6.62042c0.58275,1.6054 3.19766,2.74386 4.52152,3.59611c2.84774,1.00282 6.49251,1.96659 9.47157,0.79711c5.46834,-2.14669 5.4425,-6.10778 1.2107,-9.27676l-0.29261,-0.27254c0,0 -0.20157,-0.20157 -0.3331,-0.51419zM238.7789,179.6842c1.09869,0.82611 2.23109,1.74127 2.93108,2.88805c2.6884,4.40437 -1.64879,9.19336 -5.64269,10.68118c-3.79074,1.41215 -8.09604,0.41166 -11.7216,-0.89834c-2.09594,-1.32103 -4.9694,-2.69434 -5.93379,-5.16374c-1.7021,-4.35837 1.75846,-9.2522 5.93237,-10.33412c3.88687,-1.00751 9.20119,0.73267 13.18341,1.09468c0,0 1.40708,0.12792 1.27916,1.535c-0.0063,0.06943 -0.01575,0.13513 -0.02796,0.1973z" fill="#000000"/><path d="M236.023,181.03184l0.2943,0.27505c4.23179,3.16897 4.24832,7.2016 -1.22002,9.34827c-2.97907,1.16949 -6.70188,0.2047 -9.54961,-0.79812c-1.32386,-0.85224 -3.95541,-2.02498 -4.53816,-3.63039c-1.02606,-2.82668 1.32606,-5.97031 3.9763,-6.66866c2.9633,-0.78084 7.29815,0.39902 10.7012,0.95589c0.13152,0.31261 0.336,0.51795 0.336,0.51795z" data-paper-data="{&quot;noHover&quot;:false,&quot;origItem&quot;:[&quot;Path&quot;,{&quot;applyMatrix&quot;:true,&quot;segments&quot;:[[[236.65617,179.82955],[0.11636,0.27657],[-3.01074,-0.49268]],[[227.26019,178.98894],[2.62169,-0.69082],[-2.34472,0.61784]],[[223.75867,184.84615],[-0.90777,-2.50082],[0.51557,1.42033]],[[227.75894,188.02769],[-1.17124,-0.75399],[2.51945,0.88722]],[[236.13863,188.73291],[-2.63564,1.03467],[4.83795,-1.89922]],[[237.20975,180.52558],[3.74395,2.80365],[0,0]],[236.95087,180.28447]],&quot;closed&quot;:true}]}" fill="#a8a8a8"/><path d="M222.28986,183.66434c-0.63186,-1.26371 0.63186,-1.89557 0.63186,-1.89557l0.06671,-0.00788c3.36642,-2.37572 6.76167,-0.66064 10.4553,-0.70643c0,0 1.41288,0 1.41288,1.41288c0,1.41288 -1.41288,1.41288 -1.41288,1.41288c-2.61319,-0.02418 -6.51884,-1.72225 -8.75985,0.14129l-0.49844,0.2747c0,0 -1.26371,0.63186 -1.89557,-0.63186z" fill="#ffffff"/><path d="M252.95252,179.24002c-0.57743,0.76379 -1.15848,2.83751 -2.10328,3.12715c-2.75544,0.8447 -8.54087,-1.48174 -10.35417,-3.10417c-1.63203,-1.46024 -0.01061,-4.36358 -0.29939,-6.56313c-0.43578,-0.14216 -0.83484,-0.30534 -1.17977,-0.49937c-0.01103,-0.0062 -0.01256,-0.02197 -0.01883,-0.03296c-0.73685,-0.43488 -1.23117,-1.23698 -1.23117,-2.15454c0,-0.49859 0.14596,-0.96309 0.39747,-1.3531c0.30892,-1.65415 0.22707,-3.45262 1.53832,-4.57655c2.19897,-1.88483 14.02255,3.27616 15.82869,4.08723c1.33108,0.59774 3.02636,1.20137 3.75636,2.50908c0.87361,1.56497 0.01101,6.79103 -1.73613,7.23607c-1.21956,0.31065 -2.14715,0.01837 -3.14108,-0.42644c-0.43354,0.61524 -1.01163,1.16161 -1.457,1.75073z" fill="#7a5536"/><path d="M247.01591,157.513c0.29378,-4.19286 8.38075,-8.35346 8.08333,-3c-0.17545,3.15801 -3.56935,1.82236 -2.80915,5.62339c0.01156,0.00817 0.02306,0.01644 0.03447,0.0248c0.29346,-0.27779 0.59563,-0.55386 0.91833,-0.65688c2.15094,-0.68665 5.13854,0.75668 5.84241,2.97399c1.2319,3.88071 -3.94683,7.10907 -7.39189,6.63929c-0.16712,0.18249 -0.36097,0.3401 -0.57535,0.46662c-0.4619,0.80832 -2.72816,0.26851 -3.4203,-0.02334c-2.61895,-1.10433 -8.49953,-6.87631 -4.82155,-9.86467c1.46934,-1.19384 2.81492,-1.28561 4.13274,-0.89147c-0.02478,-0.42932 -0.02327,-0.86058 0.00694,-1.29172z" fill="#5fbe71"/><path d="M256.1863,157.46137l-0.01049,0.03731l-0.0668,0.03563c-0.31216,0.28234 -0.69594,0.48697 -1.12082,0.58339l-0.52279,0.1307l-0.40891,0.1363l-0.24827,0.0191l-0.23221,0.08989l-0.66667,0.08333l-0.15683,-0.01901l-0.15326,0.03831h-0.83333l-0.2671,-0.06678l-0.27523,0.00724l-0.75,-0.16667l-0.22511,-0.11255l-0.24791,-0.04338l-0.75,-0.33333l-0.22339,-0.17452l-0.26126,-0.11001l-0.66667,-0.5l-0.22414,-0.27586l-0.27586,-0.22414l-0.5,-0.66667l-0.06716,-0.15951l-0.11823,-0.12639l-0.41667,-0.75l-0.04871,-0.18155l-0.10672,-0.15474l-0.25,-0.66667l-0.03347,-0.29285l-0.1064,-0.27488l-0.08333,-0.66667l0.01901,-0.15683l-0.03831,-0.15326v-0.58333l0.05068,-0.20271l-0.01666,-0.20829l0.07855,-0.47133l0.05062,-0.35433l-0.01001,-0.02002l0.02145,-0.06005l0.01717,-0.12016l0.15479,-0.37994l-0.13111,-0.16782l-0.33333,-0.75l-0.03319,-0.18964l-0.09419,-0.16791l-0.25,-0.91667l-0.00234,-0.11018l-0.04542,-0.1004l-0.16667,-0.91667l0.01479,-0.22676l-0.05511,-0.22046v-0.83333l0.03414,-0.13657l-0.01885,-0.13951l0.08333,-0.75l0.07953,-0.21412l0.01061,-0.22817l0.25,-0.83333l0.05803,-0.0976l0.01534,-0.11251l0.33333,-0.83333l0.02832,-0.03922l0.00834,-0.04765l0.33333,-0.75l0.13219,-0.1692l0.07222,-0.2022l0.5,-0.75l0.18425,-0.1675l0.12811,-0.21352l0.58333,-0.58333l0.17917,-0.1075l0.1355,-0.15906l0.58333,-0.41667l0.39684,-0.15633l0.36945,-0.21314l0.58333,-0.16667l0.34851,-0.01162l0.33829,-0.08457h0.41667l0.42677,0.10669l0.12013,-0.14103l0.58333,-0.41667l0.1845,-0.07268l0.15056,-0.12905l0.66667,-0.33333l0.26876,-0.05973l0.24293,-0.12956l0.66667,-0.16667l0.30776,0l0.29857,-0.07464h0.66667l0.29857,0.07464l0.30776,0l1.33333,0.33333l0.17861,0.09526l0.19985,0.03223l0.58333,0.25l0.37696,0.28649l0.406,0.2436l0.41667,0.41667l0.15834,0.26391l0.07202,0.07202l0.47579,-0.05287l0.13951,0.01885l0.13657,-0.03414h0.75l0.2671,0.06678l0.27523,-0.00724l0.75,0.16667l0.43605,0.21803l0.45528,0.17436l0.65829,0.46081h0.02049l0.04176,0.04358l0.11278,0.07895l0.35857,0.4129l0.37838,0.39483l0.0683,0.11953l0.03958,0.04557l-0.00187,0.02041l0.22733,0.39782l0.04762,0.1693l0.10297,0.14257l0.83333,2.08333l0.03125,0.22916l0.09901,0.20902l0.02115,0.10576l0.28389,0.24334l0.34461,0.20676l0.29406,0.29406l0.00498,0.00069l0.01114,0.01542l0.18983,0.18983l0.25885,0.43142l0.29457,0.40787l0.0997,0.24925l0.00979,0.01631l-0.00132,0.00485l0.0585,0.14625l0.01016,0.07449l0.04036,0.06342l0.25,0.75l0.03082,0.40069l0.09747,0.38988v1l-0.05068,0.20271l0.01666,0.20829l-0.08333,0.5l-0.09742,0.22406l-0.02774,0.24275l-0.25,0.66667l-0.13028,0.1889l-0.06681,0.21953l-0.5,0.83333l-0.15044,0.15044l-0.09515,0.1903l-0.46128,0.53817l-0.54681,0.70304l-0.01387,0.01087l-0.00734,0.01602l-0.66667,0.83333l-0.04285,0.03264l-0.03762,0.11285l-0.2005,0.31507l-0.13688,0.34746l-0.83333,1.16667l-0.15906,0.1355l-0.1075,0.17917l-1,1l-0.1543,0.09258l-0.11347,0.13965l-0.0896,0.0672l-0.00051,0.00182l-0.00663,0.00353l-0.2366,0.17745l-0.45656,0.19224l-0.4371,0.23312l-0.28692,0.07173l-0.00692,0.00291l-0.00173,-0.00075l-0.03776,0.00944h-0.33125l-0.13533,0.09022l-0.40599,-0.09022h-0.41589l-0.11254,-0.11743l-0.32337,-0.07186l-0.33333,-0.16667l-0.08096,-0.0694l-0.20292,0.00676l-0.58838,0.02802l-0.03602,-0.0072l-0.07464,0.00249l-0.02244,-0.0219l-0.28357,-0.05671l-0.30178,-0.14295l-0.01114,-0.00248l-0.00467,0.00167l-0.00973,-0.00486l-0.30044,-0.06676l-0.33333,-0.16667l-0.19089,-0.16362l-0.01248,-0.00591l-0.00223,-0.0067l-0.02808,-0.02407l-0.27527,-0.13764l-0.45944,-0.3938c-0.07422,0.09837 -0.15554,0.19108 -0.2432,0.27737z" fill="#c882ff"/><path d="M260.28368,150.94743c-4.52264,4.52264 -13.04748,-1.95493 -8.34789,-6.65452c4.89201,-4.89201 12.40078,1.09811 8.94102,5.71111z" fill="#fff000"/></g></g></svg>