<svg version="1.1" xmlns="http://www.w3.org/2000/svg" xmlns:xlink="http://www.w3.org/1999/xlink" width="45.34237" height="40.6046" viewBox="0,0,45.34237,40.6046"><g transform="translate(-217.9686,-162.90338)"><g data-paper-data="{&quot;isPaintingLayer&quot;:true}" fill-rule="nonzero" stroke="none" stroke-width="0.5" stroke-linecap="butt" stroke-linejoin="miter" stroke-miterlimit="10" stroke-dasharray="" stroke-dashoffset="0" style="mix-blend-mode: normal"><path d="M239.42507,193.51765l0.03509,0.03008l0.02182,0.00614zM239.21169,193.38042h-0.04762l0.15475,0.07737zM256.99926,185.48676l-0.12843,0.51371l-0.08264,0.41321v2.16228l0.3075,0.61499l0.05078,0.22849l0.11697,0.20274l0.28571,1l0.01162,0.34851l0.08457,0.33829v0.71429l-0.11484,0.45934l-0.06397,0.46914l-0.28571,0.71429l-0.22992,0.31835l-0.17072,0.35364l-0.60517,0.72621l-2.04793,3.27668l-1.13095,1.83779l-0.84992,1.41653l-0.31339,0.31339l-0.2686,0.35254l-0.71429,0.57143l-0.00055,0.00025l-0.01439,0.03631l-0.58355,0.23774l-0.57282,0.26254l-0.03632,-0.01438l-0.00056,0.00023l-1,0.14286l-0.3154,-0.03263l-0.31423,0.04246l-1.28571,-0.14286l-0.05519,-0.0205l-0.05864,0.0052l-2.71429,-0.42857l-0.03397,-0.01443l-0.03684,0.0022l-2.28571,-0.42857l-0.1358,-0.06233l-0.14917,-0.00865l-2.27208,-0.71002l-2.84346,-0.85304l-0.06765,-0.04022l-0.07825,-0.00848l-2.71429,-1l-0.00615,-0.00419l-0.00739,-0.00085l-2.28571,-0.85714l-0.26441,-0.18235l-0.29949,-0.11605l-2.35272,-1.66074l-0.63467,-0.3808l-0.34028,-0.34028l-0.37348,-0.30346l-1.71429,-2.28571l-0.06716,-0.15951l-0.11823,-0.12639l-0.71429,-1.28571l-0.06065,-0.22607l-0.12566,-0.19747l-0.85714,-2.57143l-0.03082,-0.40069l-0.09747,-0.38988v-2.42857l0.07464,-0.29857v-0.30776l0.28571,-1.14286l0.04613,-0.08649l0.00752,-0.09774l0.28571,-0.85714l0.13368,-0.21007l0.06742,-0.2397l0.57143,-1l0.13634,-0.14226l0.0821,-0.17913l0.57143,-0.71429l0.20193,-0.15385l0.14978,-0.20496l0.85714,-0.71429l0.08567,-0.04136l0.06169,-0.07242l1,-0.71429l0.26396,-0.10398l0.2276,-0.16937l1.68725,-0.70302l1.25895,-0.55953l0.37879,-0.06629l0.36048,-0.13389l1.28571,-0.14286l0.13951,0.01885l0.13657,-0.03414h4.14286l0.07744,0.01936l0.0785,-0.01449l2.28571,0.14286l0.17958,0.05701l0.1883,-0.00638l1.85262,0.39699l1.30839,0.11894h1.74374l0.12315,0.03079l0.12561,-0.01838l1.42857,0.14286l0.15196,0.05455l0.16143,-0.00294l1.85714,0.42857l0.0504,0.02571l0.05656,0.00147l2.57143,0.71429l0.21153,0.11997l0.23739,0.05275l1.33556,0.66778l0.61774,0.24709l0.086,0.06211l0.10356,0.02301l0.28571,0.14286l0.04606,0.03948l0.97116,0.05395l0.06932,-0.02311l0.03306,0.02879l0.73134,0.04063l0.83853,0.97828l0.14286,0.28571l0.05156,0.232l0.10254,0.08931l0.02255,0.47362l0.10286,0.46286l-0.07543,0.11314l0.0113,0.23739l-0.14286,0.71429l-0.14295,0.30178l-0.07244,0.32597l-0.1176,0.2352l-0.08106,0.48634l-0.04063,0.09345z" fill="#404040"/><path d="M255.82859,180.92697c0.1591,0.18561 0.30524,0.36573 0.43674,0.54107c0.49706,0.45693 0.80857,1.11257 0.80857,1.84096c0,1.38071 -1.11929,2.5 -2.5,2.5c-0.26357,0 -0.51761,-0.04079 -0.75616,-0.11639c-0.21516,-0.06819 -0.41771,-0.16471 -0.60328,-0.28518c-1.76299,-0.50925 -4.09003,-1.5292 -5.87476,-2.30317c-4.29364,-1.86199 -10.4239,-2.58792 -15.15172,-2.29526c-4.44241,0.27499 -4.18076,7.21846 -5.14087,8.17857c-1.75336,1.75336 -4.47319,1.46869 -4.6875,-1.25c-0.34734,-4.40624 3.76645,-11.60325 8.78571,-11.92857c6.77777,-0.4393 12.66963,1.3631 18.75935,3.04147c1.99157,0.54889 4.21636,0.71271 5.79938,2.06959z" fill="#535353"/><path d="M255.14533,188.80899c1.44204,0.82402 2.17477,1.94008 2.40505,3.18478c0.67422,3.64424 -2.95858,8.39119 -5.70689,10.14012c-5.08283,3.23453 -13.87813,-0.30472 -19.11886,-2.24339c-2.03263,-0.75192 -10.60154,-3.23766 -6.63278,-7.20642c1.44067,-1.44067 2.42875,-0.75504 3.53553,0c2.59524,1.77044 8.24258,5.09674 11.6608,5.12491c0.38213,0.00315 5.60547,0.2428 7.625,-0.14286c0.16979,-0.03242 3.71156,-3.85753 3.73214,-4.04815c0.12863,-1.19123 -0.69483,-2.98337 0.34546,-3.57783z" fill="#272727"/><path d="M235.64376,180.55029c-3.40304,-0.55688 -7.65701,-1.73098 -10.6203,-0.95015c-2.65025,0.69835 -4.98384,3.79374 -3.95778,6.62042c0.58275,1.6054 3.19766,2.74386 4.52152,3.59611c2.84774,1.00282 6.49251,1.96659 9.47157,0.79711c5.46834,-2.14669 5.4425,-6.10778 1.2107,-9.27676l-0.29261,-0.27254c0,0 -0.20157,-0.20157 -0.3331,-0.51419zM238.7789,179.6842c1.09869,0.82611 2.23109,1.74127 2.93108,2.88805c2.6884,4.40437 -1.64879,9.19336 -5.64269,10.68118c-3.79074,1.41215 -8.09604,0.41166 -11.7216,-0.89834c-2.09594,-1.32103 -4.9694,-2.69434 -5.93379,-5.16374c-1.7021,-4.35837 1.75846,-9.2522 5.93237,-10.33412c3.88687,-1.00751 9.20119,0.73267 13.18341,1.09468c0,0 1.40708,0.12792 1.27916,1.535c-0.0063,0.06943 -0.01575,0.13513 -0.02796,0.1973z" fill="#000000"/><path d="M236.023,181.03184l0.2943,0.27505c4.23179,3.16897 4.24832,7.2016 -1.22002,9.34827c-2.97907,1.16949 -6.70188,0.2047 -9.54961,-0.79812c-1.32386,-0.85224 -3.95541,-2.02498 -4.53816,-3.63039c-1.02606,-2.82668 1.32606,-5.97031 3.9763,-6.66866c2.9633,-0.78084 7.29815,0.39902 10.7012,0.95589c0.13152,0.31261 0.336,0.51795 0.336,0.51795z" data-paper-data="{&quot;noHover&quot;:false,&quot;origItem&quot;:[&quot;Path&quot;,{&quot;applyMatrix&quot;:true,&quot;segments&quot;:[[[236.65617,179.82955],[0.11636,0.27657],[-3.01074,-0.49268]],[[227.26019,178.98894],[2.62169,-0.69082],[-2.34472,0.61784]],[[223.75867,184.84615],[-0.90777,-2.50082],[0.51557,1.42033]],[[227.75894,188.02769],[-1.17124,-0.75399],[2.51945,0.88722]],[[236.13863,188.73291],[-2.63564,1.03467],[4.83795,-1.89922]],[[237.20975,180.52558],[3.74395,2.80365],[0,0]],[236.95087,180.28447]],&quot;closed&quot;:true}]}" fill="#a8a8a8"/><path d="M222.28986,183.66434c-0.63186,-1.26371 0.63186,-1.89557 0.63186,-1.89557l0.06671,-0.00788c3.36642,-2.37572 6.76167,-0.66064 10.4553,-0.70643c0,0 1.41288,0 1.41288,1.41288c0,1.41288 -1.41288,1.41288 -1.41288,1.41288c-2.61319,-0.02418 -6.51884,-1.72225 -8.75985,0.14129l-0.49844,0.2747c0,0 -1.26371,0.63186 -1.89557,-0.63186z" fill="#ffffff"/><path d="M248.54675,165.21477c1.39891,-1.03532 2.44608,-1.93237 4.19225,-2.30068c1.6092,-0.33942 9.86138,7.49386 10.19358,9.26558c0.25804,1.37624 -0.39118,3.81223 -1.55245,5.59869c2.00171,2.0383 3.17429,4.41285 -0.20819,6.21684c-0.02116,0.2298 -0.07343,0.4506 -0.15255,0.65814c0.42236,2.69255 -6.25838,1.94248 -7.52956,1.76104c-6.49029,-0.92639 -21.74084,-10.26116 -15.70713,-18.30611c1.66252,-2.2167 4.59364,-2.0959 7.82755,-0.89653c1.01542,-0.76123 2.13958,-1.40718 2.9365,-1.99697z" fill="#000000"/></g></g></svg>