<svg version="1.1" xmlns="http://www.w3.org/2000/svg" xmlns:xlink="http://www.w3.org/1999/xlink" width="54.13064" height="46.99499" viewBox="0,0,54.13064,46.99499"><g transform="translate(-217.9686,-156.513)"><g data-paper-data="{&quot;isPaintingLayer&quot;:true}" fill-rule="nonzero" stroke="none" stroke-width="0.5" stroke-linecap="butt" stroke-linejoin="miter" stroke-miterlimit="10" stroke-dasharray="" stroke-dashoffset="0" style="mix-blend-mode: normal"><path d="M239.42507,193.51766l0.03509,0.03008l0.02182,0.00614zM239.21169,193.38043h-0.04762l0.15475,0.07737zM256.99926,185.48677l-0.12843,0.51371l-0.08264,0.41321v2.16228l0.3075,0.61499l0.05078,0.22849l0.11697,0.20274l0.28571,1l0.01162,0.34851l0.08457,0.33829v0.71429l-0.11484,0.45934l-0.06397,0.46914l-0.28571,0.71429l-0.22992,0.31835l-0.17072,0.35364l-0.60517,0.72621l-2.04793,3.27668l-1.13095,1.83779l-0.84992,1.41653l-0.31339,0.31339l-0.2686,0.35254l-0.71429,0.57143l-0.00055,0.00025l-0.01439,0.03631l-0.58355,0.23774l-0.57282,0.26254l-0.03632,-0.01438l-0.00056,0.00023l-1,0.14286l-0.3154,-0.03263l-0.31423,0.04246l-1.28571,-0.14286l-0.05519,-0.0205l-0.05864,0.0052l-2.71429,-0.42857l-0.03397,-0.01443l-0.03684,0.0022l-2.28571,-0.42857l-0.1358,-0.06233l-0.14917,-0.00865l-2.27208,-0.71002l-2.84346,-0.85304l-0.06765,-0.04022l-0.07825,-0.00848l-2.71429,-1l-0.00615,-0.00419l-0.00739,-0.00085l-2.28571,-0.85714l-0.26441,-0.18235l-0.29949,-0.11605l-2.35272,-1.66074l-0.63467,-0.3808l-0.34028,-0.34028l-0.37348,-0.30346l-1.71429,-2.28571l-0.06716,-0.15951l-0.11823,-0.12639l-0.71429,-1.28571l-0.06065,-0.22607l-0.12566,-0.19747l-0.85714,-2.57143l-0.03082,-0.40069l-0.09747,-0.38988v-2.42857l0.07464,-0.29857v-0.30776l0.28571,-1.14286l0.04613,-0.08649l0.00752,-0.09774l0.28571,-0.85714l0.13368,-0.21007l0.06742,-0.2397l0.57143,-1l0.13634,-0.14226l0.0821,-0.17913l0.57143,-0.71429l0.20193,-0.15385l0.14978,-0.20496l0.85714,-0.71429l0.08567,-0.04136l0.06169,-0.07242l1,-0.71429l0.26396,-0.10398l0.2276,-0.16937l1.68725,-0.70302l1.25895,-0.55953l0.37879,-0.06629l0.36048,-0.13389l1.28571,-0.14286l0.13951,0.01885l0.13657,-0.03414h4.14286l0.07744,0.01936l0.0785,-0.01449l2.28571,0.14286l0.17958,0.05701l0.1883,-0.00638l1.85262,0.39699l1.30839,0.11894h1.74374l0.12315,0.03079l0.12561,-0.01838l1.42857,0.14286l0.15196,0.05455l0.16143,-0.00294l1.85714,0.42857l0.0504,0.02571l0.05656,0.00147l2.57143,0.71429l0.21153,0.11997l0.23739,0.05275l1.33556,0.66778l0.61774,0.24709l0.086,0.06211l0.10356,0.02301l0.28571,0.14286l0.04606,0.03948l0.97116,0.05395l0.06932,-0.02311l0.03306,0.02879l0.73134,0.04063l0.83853,0.97828l0.14286,0.28571l0.05156,0.232l0.10254,0.08931l0.02255,0.47362l0.10286,0.46286l-0.07543,0.11314l0.0113,0.23739l-0.14286,0.71429l-0.14295,0.30178l-0.07244,0.32597l-0.1176,0.2352l-0.08106,0.48634l-0.04063,0.09345z" fill="#ff0000"/><path d="M255.82859,180.92698c0.1591,0.18561 0.30524,0.36573 0.43674,0.54107c0.49706,0.45693 0.80857,1.11257 0.80857,1.84096c0,1.38071 -1.11929,2.5 -2.5,2.5c-0.26357,0 -0.51761,-0.04079 -0.75616,-0.11639c-0.21516,-0.06819 -0.41771,-0.16471 -0.60328,-0.28518c-1.76299,-0.50925 -4.09003,-1.5292 -5.87476,-2.30317c-4.29364,-1.86199 -10.4239,-2.58792 -15.15172,-2.29526c-4.44241,0.27499 -4.18076,7.21846 -5.14087,8.17857c-1.75336,1.75336 -4.47319,1.46869 -4.6875,-1.25c-0.34734,-4.40624 3.76645,-11.60325 8.78571,-11.92857c6.77777,-0.4393 12.66963,1.3631 18.75935,3.04147c1.99157,0.54889 4.21636,0.71271 5.79938,2.06959z" fill="#ff5b5b"/><path d="M255.14533,188.809c1.44204,0.82402 2.17477,1.94008 2.40505,3.18478c0.67422,3.64424 -2.95858,8.39119 -5.70689,10.14012c-5.08283,3.23453 -13.87813,-0.30472 -19.11886,-2.24339c-2.03263,-0.75192 -10.60154,-3.23766 -6.63278,-7.20642c1.44067,-1.44067 2.42875,-0.75504 3.53553,0c2.59524,1.77044 8.24258,5.09674 11.6608,5.12491c0.38213,0.00315 5.60547,0.2428 7.625,-0.14286c0.16979,-0.03242 3.71156,-3.85753 3.73214,-4.04815c0.12863,-1.19123 -0.69483,-2.98337 0.34546,-3.57783z" fill="#d80000"/><path d="M235.64376,180.5503c-3.40304,-0.55688 -7.65701,-1.73098 -10.6203,-0.95015c-2.65025,0.69835 -4.98384,3.79374 -3.95778,6.62042c0.58275,1.6054 3.19766,2.74386 4.52152,3.59611c2.84774,1.00282 6.49251,1.96659 9.47157,0.79711c5.46834,-2.14669 5.4425,-6.10778 1.2107,-9.27676l-0.29261,-0.27254c0,0 -0.20157,-0.20157 -0.3331,-0.51419zM238.7789,179.68421c1.09869,0.82611 2.23109,1.74127 2.93108,2.88805c2.6884,4.40437 -1.64879,9.19336 -5.64269,10.68118c-3.79074,1.41215 -8.09604,0.41166 -11.7216,-0.89834c-2.09594,-1.32103 -4.9694,-2.69434 -5.93379,-5.16374c-1.7021,-4.35837 1.75846,-9.2522 5.93237,-10.33412c3.88687,-1.00751 9.20119,0.73267 13.18341,1.09468c0,0 1.40708,0.12792 1.27916,1.535c-0.0063,0.06943 -0.01575,0.13513 -0.02796,0.1973z" fill="#000000"/><path d="M236.023,181.03185l0.2943,0.27505c4.23179,3.16897 4.24832,7.2016 -1.22002,9.34827c-2.97907,1.16949 -6.70188,0.2047 -9.54961,-0.79812c-1.32386,-0.85224 -3.95541,-2.02498 -4.53816,-3.63039c-1.02606,-2.82668 1.32606,-5.97031 3.9763,-6.66866c2.9633,-0.78084 7.29815,0.39902 10.7012,0.95589c0.13152,0.31261 0.336,0.51795 0.336,0.51795z" data-paper-data="{&quot;noHover&quot;:false,&quot;origItem&quot;:[&quot;Path&quot;,{&quot;applyMatrix&quot;:true,&quot;segments&quot;:[[[236.65617,179.82955],[0.11636,0.27657],[-3.01074,-0.49268]],[[227.26019,178.98894],[2.62169,-0.69082],[-2.34472,0.61784]],[[223.75867,184.84615],[-0.90777,-2.50082],[0.51557,1.42033]],[[227.75894,188.02769],[-1.17124,-0.75399],[2.51945,0.88722]],[[236.13863,188.73291],[-2.63564,1.03467],[4.83795,-1.89922]],[[237.20975,180.52558],[3.74395,2.80365],[0,0]],[236.95087,180.28447]],&quot;closed&quot;:true}]}" fill="#a8a8a8"/><path d="M222.28986,183.66435c-0.63186,-1.26371 0.63186,-1.89557 0.63186,-1.89557l0.06671,-0.00788c3.36642,-2.37572 6.76167,-0.66064 10.4553,-0.70643c0,0 1.41288,0 1.41288,1.41288c0,1.41288 -1.41288,1.41288 -1.41288,1.41288c-2.61319,-0.02418 -6.51884,-1.72225 -8.75985,0.14129l-0.49844,0.2747c0,0 -1.26371,0.63186 -1.89557,-0.63186z" fill="#ffffff"/><path d="M267.17155,165.59633l-0.49047,0.06131l-0.43396,0.06199l-0.40341,0.10085l-0.5079,0.19046l-0.80811,0.32324l-0.07449,0.01016l-0.06342,0.04036l-0.33145,0.11048l-0.40152,0.20076l-0.50057,0.31286l-0.42025,0.30018l-0.51121,0.44731l-0.79483,0.79483l-0.2964,0.41497l-0.07242,0.06169l-0.04136,0.08567l-0.23091,0.2771l-0.06156,0.12311l-0.16859,0.44957l-0.11853,0.41487l-0.1249,0.56204l-0.0687,0.5496l-0.04339,0.11209l0.00316,0.12015l-0.16667,0.75l-0.04158,0.08316l-0.00432,0.09288l-0.25,0.83333l-0.01987,0.03343l-0.00298,0.03877l-0.22806,0.68417l-0.23174,0.84972l-0.01584,0.02824l-0.0015,0.03234l-0.25,0.83333l-0.05803,0.0976l-0.01534,0.11251l-0.66667,1.66667l-0.02832,0.03922l-0.00834,0.04765l-0.66667,1.5l-0.10961,0.1403l-0.05493,0.16935l-0.83333,1.33333l-0.05676,0.05473l-0.0289,0.07336l-0.41667,0.58333l-0.15906,0.1355l-0.1075,0.17917l-0.58333,0.58333l-0.09911,0.05947l-0.0682,0.09332l-0.5,0.41667l-0.26175,0.12636l-0.22068,0.18915l-0.6046,0.3023l-0.52309,0.29891l-0.13987,0.03934l-0.11568,0.08792l-0.58333,0.25l-0.34696,0.05596l-0.32775,0.12687l-1.33333,0.16667l-0.15683,-0.01901l-0.15326,0.03831h-1.58333l-0.12315,-0.03079l-0.12561,0.01838l-0.83333,-0.08333l-0.19834,-0.0712l-0.21069,-0.00448l-0.91667,-0.25l-0.06195,-0.03475l-0.07082,-0.00545l-1,-0.33333l-0.11263,-0.07167l-0.13131,-0.02412l-0.91667,-0.41667l-0.28631,-0.22758l-0.32544,-0.16689l-0.59577,-0.5213l-0.5913,-0.44348l-0.11347,-0.13965l-0.1543,-0.09258l-0.58333,-0.58333l-0.1075,-0.17917l-0.15906,-0.1355l-0.35241,-0.49338l-0.42806,-0.4994l-0.10697,-0.21394l-0.1655,-0.17269l-0.29061,-0.50857l-0.28557,-0.42836l-0.05313,-0.14877l-0.10281,-0.11994l-0.25,-0.5l-0.08101,-0.36456l-0.1489,-0.34248l-0.06006,-0.36034l-0.12777,-0.44719l-0.01162,-0.34851l-0.08457,-0.33829v-3.33333l0.02803,-0.11213l-0.01777,-0.11421l0.08333,-0.91667l0.03133,-0.08983l-0.00759,-0.09483l0.1641,-0.98459l0.16429,-1.06789l0.04557,-0.10851v-0.11769l0.25,-1l0.06218,-0.11659l0.01369,-0.13143l0.33333,-0.91667l0.10674,-0.15813l0.04801,-0.18464l1,-1.83333l0.09599,-0.10421l0.05067,-0.13231l0.58333,-0.83333l0.0618,-0.05367l0.03411,-0.07441l0.64227,-0.80284l0.47657,-0.63542l0.13965,-0.11347l0.09258,-0.1543l0.5,-0.5l0.09911,-0.05947l0.0682,-0.09332l0.41288,-0.34407l0.83648,-0.83648l0.34461,-0.20676l0.06208,-0.05321l0.1302,-0.1519l0.05028,-0.00279l0.06257,-0.05363l0.16667,-0.08333l0.16357,-0.03635l0.12488,-0.07493l0.09532,0.026l0.87402,-0.19423l0.46226,0.30818l0.51602,-0.02867l0.34213,0.5132l0.14093,0.03844l0.0477,0.17489l0.58727,0.39151l-0.02867,0.51602l0.30818,0.46226l-0.10009,0.45042l0.01467,0.02934l-0.05609,0.15705l-0.13799,0.62097l-0.08333,0.16667l-0.05363,0.06257l-0.00279,0.05028l-0.0632,0.05417l-0.03632,0.1017l-0.18894,0.28341l-0.06999,0.17498l-0.06211,0.086l-0.02301,0.10356l-0.024,0.04799l0.00452,0.01266l0.10281,0.11994l0.12373,0.24746l0.14923,0.24872l0.34174,0.47844l0.06358,0.08477l0.19196,-0.12797l0.33195,-0.26556l0.03645,-0.01671l0.02529,-0.03112l0.28208,-0.21156l0.36367,-0.30306l1.08962,-1.08962l0.34407,-0.41288l0.09332,-0.0682l0.05947,-0.09911l0.33333,-0.33333l0.08406,-0.05043l0.05673,-0.07994l0.42406,-0.36348l0.28237,-0.33884l0.23613,-0.17256l0.18442,-0.22698l0.1912,-0.1434l0.54104,-0.54104l0.09911,-0.05947l0.0682,-0.09332l0.41288,-0.34407l0.33648,-0.33648l0.21352,-0.12811l0.1675,-0.18425l0.71646,-0.47764l0.55053,-0.39324l0.23701,-0.09337l0.20074,-0.15683l0.75,-0.33333l0.12108,-0.02119l0.1037,-0.06599l0.75,-0.25l0.03877,-0.00298l0.03343,-0.01987l0.83333,-0.25l0.11974,-0.00557l0.10833,-0.05132l0.83333,-0.16667l0.12436,0.00592l0.11718,-0.04206l0.83333,-0.08333l0.12561,0.01838l0.12315,-0.03079h1.66667l0.13657,0.03414l0.13951,-0.01885l0.75,0.08333l0.1598,0.05935h0.17046l1.33333,0.33333l0.30321,0.16171l0.3308,0.09304l0.52309,0.29891l0.43793,0.21897l0.11994,0.10281l0.14877,0.05313l0.4505,0.30033l1.19899,0.71939l0.34028,0.34028l0.37348,0.30346l0.5,0.66667l0.08818,0.20943l0.14789,0.17253l0.26373,0.52745l0.08033,0.1205l0.11231,0.31447l0.02749,0.04319l0.05091,0.02909l0.02096,0.08386l0.07991,0.12557l0.08333,0.25l0.01996,0.25947l0.03848,0.10776l-0.02399,0.04798l0.04949,0.19796l0.01488,0.01663l-0.00252,0.0328l0.03199,0.12797v0.33333l-0.03199,0.12797l0.00252,0.0328l-0.01488,0.01663l-0.05312,0.21247l-0.03082,0.40069l-0.03175,0.09525l0.00739,0.02709l-0.03694,0.06157l-0.02203,0.06609l-0.07991,0.12557l-0.02096,0.08386l-0.05091,0.02909l-0.15661,0.2461l-0.29554,0.49257l-0.04926,0.04926l-0.03855,0.06058l-0.02754,0.00551l-0.30132,0.30132l-1.10485,0.66291l-2.43068,-0.66291l-0.02757,-0.1011z" fill="#ff7200"/><path d="M244.43258,168.263c0.69709,0.33325 1.19712,0.50256 1.6448,0.61723c0.68091,0.17441 1.2407,0.22242 2.18854,0.5286c0.25659,0.08289 0.62081,0.94545 0.76424,0.80439c2.13649,-2.10121 6.43132,-5.62101 9.24874,-2.6811c0.29615,0.30903 0.26557,2.51796 0,2.79508c-2.17577,2.27037 -8.36329,11.44782 -10.92965,10.93579c-3.76976,-0.75213 -4.90226,-4.54582 -5.34202,-8.11809c-0.05147,-0.41813 -0.46599,-3.22971 0.27082,-3.65074z" fill="#ffb000"/></g></g></svg>