<svg version="1.1" xmlns="http://www.w3.org/2000/svg" xmlns:xlink="http://www.w3.org/1999/xlink" width="58.65951" height="35.66162" viewBox="0,0,58.65951,35.66162"><g transform="translate(-210.42971,-159.70858)"><g data-paper-data="{&quot;isPaintingLayer&quot;:true}" fill-rule="nonzero" stroke="none" stroke-width="0.5" stroke-linecap="butt" stroke-linejoin="miter" stroke-miterlimit="10" stroke-dasharray="" stroke-dashoffset="0" style="mix-blend-mode: normal"><path d="M239.42506,183.89265l0.03509,0.03008l0.02182,0.00614zM239.21168,183.75542h-0.04762l0.15475,0.07737zM244.51217,179.3754l0.15062,-0.03012l0.12539,-0.12539v-1.94242l-0.10139,-0.40556l-0.03335,-0.05558l-0.1552,-0.24389l-0.66994,-0.66994l-0.09831,-0.06256l-0.37038,-0.15595l-0.09524,-0.07143h-2.48357l-1.37053,0.22842l-0.86386,0.24682l-0.14383,0.00479l-0.13198,0.05738l-0.25583,0.04264l-0.0525,0.03937l-0.57567,0.46054l-0.15562,0.15562l-0.07948,0.11922l0.0167,0.08348l-0.01184,0.24872l0.06039,0.24157v0.16071l0.20014,0.05003l0.56075,0.12461l0.06231,0.03115l0.06966,0.01742l0.01169,0.02045l0.24317,0.08106l0.06342,0.04036l0.07449,0.01016l0.64607,0.25843l0.78745,0.26248l0.25882,0.1647c0.14884,0.01132 0.29403,0.03567 0.43445,0.07192l0.03622,-0.00988l0.06266,0.0376c0.15815,0.04789 0.30967,0.11102 0.45286,0.18769l0.07157,0.01789l0.01883,0.03296c0.14916,0.08803 0.28838,0.19111 0.41557,0.30715l0.24407,0.09763l0.29823,0.21539l0.17084,0.00949l0.02133,0.02489h0.98765l0.10825,-0.02706l0.55675,-0.2227l0.22916,-0.03125zM256.99925,175.86176l-0.12843,0.51371l-0.08264,0.41321v2.16228l0.3075,0.61499l0.05078,0.22849l0.11697,0.20274l0.28571,1l0.01162,0.34851l0.08457,0.33829v0.71429l-0.11484,0.45934l-0.06397,0.46914l-0.28571,0.71429l-0.22992,0.31835l-0.17072,0.35364l-0.60517,0.72621l-2.04793,3.27668l-1.13095,1.83779l-0.84992,1.41653l-0.31339,0.31339l-0.2686,0.35254l-0.71429,0.57143l-0.00055,0.00025l-0.01439,0.03631l-0.58355,0.23774l-0.57282,0.26254l-0.03632,-0.01438l-0.00056,0.00023l-1,0.14286l-0.3154,-0.03263l-0.31423,0.04246l-1.28571,-0.14286l-0.05519,-0.0205l-0.05864,0.0052l-2.71429,-0.42857l-0.03397,-0.01443l-0.03684,0.0022l-2.28571,-0.42857l-0.1358,-0.06233l-0.14917,-0.00865l-2.27208,-0.71002l-2.84346,-0.85304l-0.06765,-0.04022l-0.07825,-0.00848l-2.71429,-1l-0.00615,-0.00419l-0.00739,-0.00085l-2.28571,-0.85714l-0.26441,-0.18235l-0.29949,-0.11605l-2.35272,-1.66074l-0.63467,-0.3808l-0.34028,-0.34028l-0.37348,-0.30346l-1.71429,-2.28571l-0.06716,-0.15951l-0.11823,-0.12639l-0.71429,-1.28571l-0.06065,-0.22607l-0.12566,-0.19747l-0.85714,-2.57143l-0.03082,-0.40069l-0.09747,-0.38988v-2.42857l0.07464,-0.29857v-0.30776l0.28571,-1.14286l0.04613,-0.08649l0.00752,-0.09774l0.28571,-0.85714l0.13368,-0.21007l0.06742,-0.2397l0.57143,-1l0.13634,-0.14226l0.0821,-0.17913l0.57143,-0.71429l0.20193,-0.15385l0.14978,-0.20496l0.85714,-0.71429l0.08567,-0.04136l0.06169,-0.07242l1,-0.71429l0.26396,-0.10398l0.2276,-0.16937l1.68725,-0.70302l1.25895,-0.55953l0.37879,-0.06629l0.36048,-0.13389l1.28571,-0.14286l0.13951,0.01885l0.13657,-0.03414h4.14286l0.07744,0.01936l0.0785,-0.01449l2.28571,0.14286l0.17958,0.05701l0.1883,-0.00638l1.85262,0.39699l1.30839,0.11894h1.74374l0.12315,0.03079l0.12561,-0.01838l1.42857,0.14286l0.15196,0.05455l0.16143,-0.00294l1.85714,0.42857l0.0504,0.02571l0.05656,0.00147l2.57143,0.71429l0.21153,0.11997l0.23739,0.05275l1.33556,0.66778l0.61774,0.24709l0.086,0.06211l0.10356,0.02301l0.28571,0.14286l0.04606,0.03948l0.97116,0.05395l0.06932,-0.02311l0.03306,0.02879l0.73134,0.04063l0.83853,0.97828l0.14286,0.28571l0.05156,0.232l0.10254,0.08931l0.02255,0.47362l0.10286,0.46286l-0.07543,0.11314l0.0113,0.23739l-0.14286,0.71429l-0.14295,0.30178l-0.07244,0.32597l-0.1176,0.2352l-0.08106,0.48634l-0.04063,0.09345z" fill="#622ab6"/><path d="M235.64532,176.62554c0.14899,-0.50438 0.3767,-0.93463 0.6655,-1.2967c2.0603,-2.58308 7.22972,-1.6966 9.10731,0.49584c0.76317,0.89115 0.80248,4.32019 -1.06453,3.94679c-2.47911,-0.49582 -0.69834,-2.846 -3.40177,-2.82677c-0.84228,0.00599 -3.36239,1.57826 -3.82043,1.2729z" fill="#3a196d"/><path d="M255.14532,179.18399c1.44204,0.82402 2.17477,1.94008 2.40505,3.18478c0.67422,3.64424 -2.95858,8.39119 -5.70689,10.14012c-5.08283,3.23453 -13.87813,-0.30472 -19.11886,-2.24339c-2.03263,-0.75192 -10.60154,-3.23766 -6.63278,-7.20642c1.44067,-1.44067 2.42875,-0.75504 3.53553,0c2.59524,1.77044 8.24258,5.09674 11.6608,5.12491c0.38213,0.00315 5.60547,0.2428 7.625,-0.14286c0.16979,-0.03242 3.71156,-3.85753 3.73214,-4.04815c0.12863,-1.19123 -0.69483,-2.98337 0.34546,-3.57783z" fill="#3a196d"/><path d="M255.82858,171.30197c0.1591,0.18561 0.30524,0.36573 0.43674,0.54107c0.49706,0.45693 0.80857,1.11257 0.80857,1.84096c0,1.38071 -1.11929,2.5 -2.5,2.5c-0.26357,0 -0.51761,-0.04079 -0.75616,-0.11639c-0.21516,-0.06819 -0.41771,-0.16471 -0.60328,-0.28518c-1.76299,-0.50925 -4.09003,-1.5292 -5.87476,-2.30317c-4.29364,-1.86199 -10.4239,-2.58792 -15.15172,-2.29526c-4.44241,0.27499 -4.18076,7.21846 -5.14087,8.17857c-1.75336,1.75336 -4.47319,1.46869 -4.6875,-1.25c-0.34734,-4.40624 3.76645,-11.60325 8.78571,-11.92857c6.77777,-0.4393 12.66963,1.3631 18.75935,3.04147c1.99157,0.54889 4.21636,0.71271 5.79938,2.06959z" fill="#893bff"/><path d="M241.91064,179.21973c1.24055,0.03791 3.19735,-0.68494 3.94331,0.80697c0.81574,1.63149 -0.83033,2.83151 -2.17182,2.87363c-1.74577,0.05482 -6.47832,-0.25582 -7.5591,-2.14718c-0.54241,-0.32012 -0.90629,-0.91057 -0.90629,-1.586c0,-1.01637 0.82393,-1.8403 1.8403,-1.8403c0.386,0 0.74423,0.11884 1.04013,0.32192c1.06911,0.44705 2.2341,1.5227 3.81347,1.57096z" fill="#893bff"/><path d="M211.12848,187.71803c-1.11803,-0.55902 -0.55902,-1.67705 -0.55902,-1.67705l0.2304,-0.42384c1.1245,-1.55366 2.25159,-3.06292 3.22883,-4.66976c-0.0912,-0.25412 -0.0912,-0.47238 -0.0912,-0.47238l0.02016,-1.09861c0.80395,-4.41529 0.19253,-9.48222 1.76032,-13.70188c0.42845,-1.15317 0.53363,-2.82765 1.674,-3.28908c0.91003,-0.36823 1.71527,0.97875 2.46267,1.61525c2.6419,2.24992 4.43841,5.2546 7.31806,7.33839c0,0 1.01092,0.73521 0.27571,1.74613c-0.73521,1.01092 -1.74613,0.27571 -1.74613,0.27571c-2.31852,-1.69376 -4.3567,-3.76847 -6.21644,-5.95046c-0.4595,-0.53913 -1.0213,-1.00541 -1.39935,-1.60205c0.01423,1.42608 -0.50743,2.73599 -0.65814,4.19255c-0.15172,1.46627 -0.25124,2.92782 -0.36743,4.38667c0.31188,-0.70495 0.58339,-1.26365 0.70707,-1.37765c1.36148,-1.25483 3.12186,-0.23899 4.34347,0.34201c2.43847,1.15974 4.71565,2.67063 7.13505,3.87997c0,0 1.11803,0.55902 0.55902,1.67705c-0.55902,1.11803 -1.67705,0.55902 -1.67705,0.55902c-2.41824,-1.20947 -4.71876,-2.62095 -7.11495,-3.87003c-0.52686,-0.27464 -1.38142,-1.1846 -1.65653,-0.65799c-1.03762,1.98625 -1.41115,4.37474 -2.51411,6.37282c-1.11071,2.0121 -2.66959,3.90702 -4.01776,5.77002l-0.0196,0.07616c0,0 -0.55902,1.11803 -1.67705,0.55902z" fill="#18003c"/><path d="M216.79157,194.32028c-1.22029,-0.27093 -0.94935,-1.49122 -0.94935,-1.49122l0.37783,-1.6967c0.74018,-2.37679 1.58595,-4.75289 2.22766,-7.15801c0.40202,-1.50678 0.40751,-3.91125 2.31292,-4.6742c1.37641,-0.55114 2.91881,0.77199 3.98341,1.30558c1.55962,0.7817 3.48512,1.57048 5.18861,1.89354c0,0 1.22573,0.24515 0.98058,1.47087c-0.24515,1.22573 -1.47087,0.98058 -1.47087,0.98058c-1.92628,-0.40066 -4.03979,-1.22276 -5.81139,-2.10646c-0.69911,-0.34872 -1.29073,-1.48336 -2.01659,-1.19442c-0.94612,0.37663 -0.49284,1.97616 -0.74923,2.96168c-0.62661,2.40859 -1.4872,4.78866 -2.22938,7.16451l-0.35298,1.59489c0,0 -0.27093,1.22029 -1.49122,0.94935z" fill="#18003c"/><path d="M263.1875,173.84999c-0.94747,0 -1.17678,-0.71816 -1.23228,-1.06578c-1.27291,-2.76972 -3.60609,-6.38914 -4.08533,-9.52791c-0.26812,0.48956 -0.72353,0.8705 -1.06709,1.31621c-1.6833,2.18374 -3.67582,4.05054 -5.20024,6.34586c0,0 -0.69338,1.04006 -1.73344,0.34669c-1.04006,-0.69338 -0.34669,-1.73344 -0.34669,-1.73344c1.83795,-2.74745 4.16929,-5.45513 6.3917,-7.89942c0.60809,-0.6688 1.04374,-2.09387 1.9281,-1.90686c1.18089,0.24971 1.58063,1.82786 2.29591,2.80008c1.92073,2.61069 2.86297,6.47109 4.19046,9.4393l0.10889,0.63527c0,0 0,1.25 -1.25,1.25z" fill="#18003c"/><path d="M268.69638,186.23388c-0.88388,0.88388 -1.76777,0 -1.76777,0l-0.60281,-0.61646c-1.20023,-1.54317 -2.36247,-3.05507 -3.39794,-4.71863c-0.61018,-0.9803 -0.72384,-2.67398 -1.85009,-2.92862c-0.2774,-0.06272 -0.32347,0.47941 -0.54805,0.6539c-0.65446,0.50849 -1.379,0.91972 -2.06873,1.37924c-1.39382,0.92861 -2.83396,1.79183 -4.31364,2.57642c0,0 -1.10473,0.58486 -1.68959,-0.51988c-0.58486,-1.10473 0.51988,-1.68959 0.51988,-1.68959c2.17481,-1.14947 4.06865,-2.61503 6.18814,-3.84134c0.68542,-0.39658 1.35119,-1.18429 2.13145,-1.0491c2.76426,0.47894 5.34714,6.47513 7.00197,8.60275l0.39719,0.38354c0,0 0.88388,0.88388 0,1.76777z" fill="#18003c"/><path d="M265.27674,195.26059c-1.1606,0.46424 -1.62483,-0.69636 -1.62483,-0.69636l-0.1821,-0.48218c-0.95546,-1.72026 -2.46365,-6.16516 -4.62161,-6.65399c-2.16688,-0.49084 -5.553,0.79506 -7.70519,1.15493c0,0 -1.23299,0.2055 -1.43849,-1.02749c-0.2055,-1.23299 1.02749,-1.43849 1.02749,-1.43849c2.56391,-0.42586 6.23425,-1.81907 8.79481,-1.09507c3.11289,0.88017 4.72265,5.31635 6.12839,7.84601l0.3179,0.76782c0,0 0.46424,1.1606 -0.69636,1.62483z" fill="#18003c"/></g></g></svg>