<svg version="1.1" xmlns="http://www.w3.org/2000/svg" xmlns:xlink="http://www.w3.org/1999/xlink" width="67.50136" height="65.20497" viewBox="0,0,67.50136,65.20497"><g transform="translate(-205.28706,-143.36288)"><g data-paper-data="{&quot;isPaintingLayer&quot;:true}" fill-rule="nonzero" stroke="none" stroke-width="0.5" stroke-linecap="butt" stroke-linejoin="miter" stroke-miterlimit="10" stroke-dasharray="" stroke-dashoffset="0" style="mix-blend-mode: normal"><path d="M221.09677,184.13936l-0.04614,-0.00264l-0.02107,0.00835zM221.34966,184.11909l0.03787,-0.02888l-0.16997,0.03231zM219.79074,190.81607l-0.10151,0.11528l-0.02367,0.17574l1.17783,1.54457l0.32654,0.26101l0.06022,0.02397l0.2713,0.09983l0.93896,0.12649l0.11611,-0.00987l0.38908,-0.10058l0.11905,-0.00095l1.97489,-1.50597l0.95131,-1.01269l0.53726,-0.72009l0.11147,-0.09102l0.07015,-0.12566l0.17758,-0.18903l0.01787,-0.06314l0.1785,-0.71528l0.02938,-0.21811l-0.00909,-0.143l-0.0639,-0.05626l-0.1414,-0.20496l-0.1945,-0.15547l-0.09745,-0.12779l-0.18948,0.08158l-0.52146,0.24094l-0.06844,0.01301l-0.06596,0.02839l-0.0217,-0.00917l-0.24252,0.08299l-0.0749,0.00636l-0.06539,0.03709l-0.67045,0.18626l-0.78533,0.26877l-0.30568,0.02598c-0.12522,0.08125 -0.25544,0.14993 -0.38908,0.20625l-0.02281,0.02982l-0.07263,0.0081c-0.1548,0.05782 -0.31356,0.09949 -0.47392,0.12535l-0.06776,0.02917l-0.03496,-0.01479c-0.17199,0.02045 -0.3452,0.0229 -0.5167,0.00775l-0.25328,0.07036l-0.36775,0.00956l-0.1416,0.09605l-0.03205,-0.00686l-0.78536,0.59888l-0.06967,0.08716l-0.30768,0.51468l-0.16327,0.16381zM211.99185,201.18187l-0.20938,-0.48637l-0.18485,-0.37869l-1.31115,-1.7194l-0.61743,-0.30257l-0.17893,-0.1509l-0.21595,-0.09029l-0.83356,-0.62193l-0.22057,-0.27008l-0.27238,-0.21772l-0.43313,-0.56799l-0.18721,-0.43489l-0.23361,-0.41184l-0.20594,-0.74124l-0.01021,-0.39256l-0.07868,-0.38473l0.04086,-0.94443l-0.35842,-3.84736l-0.21508,-2.14715l-0.18311,-1.64177l0.05917,-0.43923l-0.00019,-0.4432l0.22149,-0.88752l0.00029,-0.00053l-0.01057,-0.0376l0.31987,-0.5429l0.2963,-0.55611l0.0376,-0.01059l0.00031,-0.00052l0.70855,-0.71997l0.27059,-0.1653l0.22412,-0.2243l1.109,-0.66602l0.05632,-0.01716l0.04348,-0.03969l2.41822,-1.30508l0.03576,-0.00912l0.02796,-0.02409l2.07742,-1.0452l0.14578,-0.03278l0.12386,-0.08357l2.23725,-0.81313l2.77832,-1.04588l0.07818,-0.00904l0.06736,-0.04071l2.76472,-0.85069l0.00743,-0.0004l0.00639,-0.00381l2.3373,-0.70441l0.32083,-0.01533l0.30852,-0.08932l2.87786,-0.10604l0.73558,-0.08204l0.47692,0.06425l0.48099,0.01484l2.74916,0.77805l0.15013,0.08612l0.17065,0.02881l1.34761,0.58924l0.18531,0.14299l0.21966,0.08083l2.24083,1.525l0.26748,0.29993l0.31392,0.25092l1.47262,1.93115l0.12169,0.28268l0.18662,0.24472l0.46581,1.08203l0.01576,0.09675l0.05329,0.08228l0.29256,0.85483l0.02108,0.2481l0.09174,0.23149l0.15198,1.14168l-0.02215,0.1958l0.04334,0.19222l-0.02126,0.91449l-0.06728,0.24478l0.00518,0.2538l-0.24845,1.08774l-0.04304,0.08484l-0.00514,0.09499l-0.36205,1.17436l-0.14685,0.24274l-0.07828,0.27269l-0.91538,1.58213l-0.66181,1.20832l-0.26101,0.2824l-0.20546,0.32505l-0.93574,0.89322l-0.12237,0.06961l-0.0879,0.10996l-3.29432,2.51212l-0.07332,0.03156l-0.05364,0.05912l-1.90418,1.27239l-0.17737,0.06356l-0.14586,0.11925l-1.71389,0.8077l-1.11253,0.69879l-1.38659,1.05736l-0.1166,0.05019l-0.08874,0.09078l-1.2226,0.75265l-0.15391,0.04877l-0.12658,0.10022l-1.73663,0.78533l-0.05567,0.01012l-0.04587,0.03313l-2.47788,0.99126l-0.24095,0.03287l-0.22075,0.102l-1.46693,0.27884l-0.64104,0.1781l-0.10605,0.00276l-0.0963,0.0445l-0.31382,0.05965l-0.06057,-0.00346l-0.80496,0.54599l-0.04111,0.06041l-0.04375,-0.00285l-0.60618,0.41116l-1.25999,-0.26945l-0.28685,-0.14056l-0.18168,-0.15322l-0.13569,-0.00884l-0.30512,-0.36294l-0.36246,-0.30569l-0.00862,-0.13571l-0.15293,-0.18192l-0.31953,-0.65462l-0.06932,-0.32665l-0.14006,-0.30313l-0.04911,-0.25834l-0.23045,-0.43588l-0.02436,-0.09895z" fill="#ff0000"/><path d="M228.50892,187.62608c0.18737,0.49142 0.26719,0.97162 0.25709,1.43465c-0.072,3.30332 -4.72016,5.73301 -7.54262,5.12815c-1.14723,-0.24586 -3.25776,-2.94873 -1.54674,-3.78391c2.27199,-1.109 2.28104,1.83963 4.4191,0.18505c0.66613,-0.5155 1.71669,-3.29386 2.26608,-3.32879z" fill="#000000"/><path d="M211.45154,197.41593c-1.64635,0.21917 -2.90575,-0.22399 -3.84361,-1.07412c-2.7459,-2.489 -2.73559,-8.46651 -1.61069,-11.52373c2.08043,-5.65413 11.22039,-8.17302 16.56327,-9.80927c2.07225,-0.63462 10.39336,-3.85397 9.64404,1.70846c-0.27201,2.01918 -1.47346,2.07312 -2.81138,2.14385c-3.13723,0.16587 -9.64486,0.94525 -12.38004,2.99557c-0.30577,0.22921 -4.60459,3.20594 -5.97662,4.7372c-0.11536,0.12874 -0.61226,5.31802 -0.51303,5.48208c0.62005,1.02524 2.36155,1.95099 1.8948,3.0545z" fill="#000000"/><path d="M215.68767,204.09787c-0.23906,-0.05112 -0.46449,-0.10573 -0.67538,-0.16542c-0.67232,-0.06194 -1.31759,-0.3944 -1.75927,-0.9736c-0.83723,-1.09791 -0.6259,-2.66666 0.47202,-3.50388c0.20959,-0.15982 0.43633,-0.28143 0.67186,-0.36596c0.21244,-0.07624 0.43203,-0.12231 0.65264,-0.13904c1.71069,-0.66408 4.17958,-1.2641 6.06807,-1.73086c4.54328,-1.12293 9.85812,-4.26291 13.44013,-7.36245c3.36577,-2.91243 -1.05262,-8.27508 -0.87135,-9.62072c0.33105,-2.45743 2.66642,-3.8803 4.48537,-1.8484c2.94802,3.29314 4.04089,11.51055 0.24694,14.81278c-5.12317,4.45918 -10.90119,6.59862 -16.76133,8.95665c-1.91649,0.77117 -3.78493,1.98996 -5.8665,1.87089z" fill="#ff6e6e"/><path d="M221.95382,189.36236c-1.00945,0.72209 -2.12714,2.48344 -3.62497,1.74943c-1.63795,-0.80269 -1.05669,-2.75505 -0.0155,-3.60199c1.35496,-1.10218 5.30655,-3.72486 7.31284,-2.87624c0.62543,-0.07435 1.27281,0.17452 1.68237,0.71161c0.6163,0.8082 0.46074,1.96298 -0.34746,2.57928c-0.30694,0.23406 -0.66386,0.35678 -1.02229,0.37472c-1.12121,0.29279 -2.69984,0.14388 -3.98498,1.06319z" fill="#ff6e6e"/><path d="M245.6798,161.21694l0.02262,-0.04031l0.00174,-0.0226zM245.58709,161.45308l0.00934,0.04669l0.04551,-0.16692zM240.25251,157.11466l-0.05908,-0.14179l-0.14755,-0.09836l-1.90469,0.38099l-0.37779,0.17897l-0.04796,0.04361l-0.20871,0.20002l-0.52552,0.78833l-0.04206,0.10867l-0.08028,0.39378l-0.05137,0.1074l0.48713,2.43533l0.4928,1.2991l0.41146,0.79867l0.03291,0.1401l0.08215,0.11817l0.09199,0.24249l0.04891,0.04376l0.5645,0.47415l0.18312,0.12207l0.1325,0.05455l0.07858,-0.03275l0.24622,-0.03717l0.22503,-0.1066l0.15759,-0.03152l0.0098,-0.20606l0.0122,-0.5743l0.01833,-0.06721l0.00342,-0.07172l0.01776,-0.01547l0.03179,-0.25435l0.02713,-0.0701l-0.00465,-0.07504l0.12669,-0.6842l0.10294,-0.82364l0.11074,-0.28609c-0.01809,-0.14817 -0.02269,-0.29532 -0.01469,-0.44012l-0.0168,-0.03358l0.02458,-0.06882c0.01594,-0.16447 0.04812,-0.32543 0.09522,-0.48088l0.00351,-0.07369l0.02863,-0.02493c0.05706,-0.16353 0.13083,-0.32026 0.21967,-0.46774l0.04786,-0.25848l0.15271,-0.33469l-0.0242,-0.16939l0.02022,-0.02579l-0.19372,-0.96847l-0.04776,-0.10084l-0.32757,-0.50225l-0.07559,-0.21858zM234.35791,145.5593l0.52892,0.02517l0.4214,-0.00001l2.12028,-0.42411l0.54273,-0.42215l0.21409,-0.09461l0.17586,-0.15446l0.92454,-0.4763l0.33946,-0.07975l0.31513,-0.14928l0.70041,-0.1401l0.47295,0.02251l0.47257,-0.02929l0.75645,0.14006l0.35727,0.16302l0.38026,0.09804l0.8308,0.45097l3.61471,1.36547l2.02392,0.74852l1.55572,0.55557l0.36877,0.24583l0.39837,0.19423l0.70043,0.58834l0.00035,0.00049l0.03843,0.00699l0.34758,0.52559l0.3698,0.5102l-0.00698,0.03844l0.00033,0.0005l0.33623,0.95256l0.02987,0.31567l0.10327,0.2998l0.11209,1.28876l-0.00928,0.05814l0.0166,0.05648l0.11213,2.74563l-0.00749,0.03614l0.00938,0.03569l0.02808,2.32538l-0.03448,0.14539l0.02078,0.14797l-0.25059,2.36721l-0.27875,2.95555l-0.02617,0.07423l0.00704,0.0784l-0.44819,2.85771l-0.0029,0.00685l0.00062,0.00742l-0.39218,2.40943l-0.12695,0.29504l-0.05505,0.31644l-1.16702,2.63276l-0.24892,0.69703l-0.26693,0.40041l-0.22431,0.42575l-1.90507,2.12931l-0.14324,0.09715l-0.10074,0.14072l-1.12064,0.9526l-0.20978,0.10381l-0.16899,0.16195l-2.35336,1.34485l-0.38687,0.10881l-0.36318,0.17205l-2.3814,0.47634l-0.30741,-0.01463l-0.30178,0.06036l-1.1767,-0.056l-0.09386,-0.02827l-0.09731,0.0118l-0.89653,-0.11204l-0.23221,-0.08988l-0.24827,-0.01909l-1.09266,-0.36419l-0.16624,-0.10579l-0.19175,-0.04537l-0.8125,-0.42023l-0.19046,-0.16783l-0.23036,-0.10667l-0.86854,-0.70039l-0.05736,-0.07589l-0.08311,-0.04629l-0.89656,-0.84047l-0.15374,-0.23844l-0.21072,-0.18996l-1.02031,-1.51659l-0.79559,-1.12475l-0.1393,-0.35843l-0.20199,-0.32722l-0.39227,-1.23272l-0.00888,-0.14049l-0.06026,-0.12723l-0.81258,-4.06239l0.00379,-0.07973l-0.02961,-0.07413l-0.30823,-2.26933l0.02068,-0.18727l-0.04319,-0.18339l0.0259,-1.8945l-0.13999,-1.30631l-0.34202,-1.70987l0.00604,-0.1268l-0.04266,-0.11956l-0.14012,-1.42884l0.02369,-0.15971l-0.03455,-0.15772l0.05599,-1.90512l0.01532,-0.05446l-0.00966,-0.05575l0.19606,-2.66158l0.07615,-0.23095l0.00517,-0.24312l0.39285,-1.4406l0.12113,-0.6542l0.04403,-0.09652l0.00225,-0.10606l0.08405,-0.30818l0.02967,-0.05291l-0.13758,-0.96287l-0.03625,-0.06345l0.02174,-0.03806l-0.1036,-0.72511l0.79481,-1.01412l0.25214,-0.19612l0.21738,-0.09607l0.06746,-0.11807l0.46,-0.11501l0.4337,-0.19164l0.12573,0.05177l0.23057,-0.05764l0.72843,-0.00001l0.32396,0.08098l0.33385,0.0071l0.2537,0.06918l0.49279,-0.01591l0.0996,0.02151z" fill="#ff0000"/><path d="M239.29521,166.34863c-0.52381,-0.04717 -0.99037,-0.18607 -1.40205,-0.39824c-2.93702,-1.51363 -3.08168,-6.75652 -1.30009,-9.02766c0.72415,-0.92314 4.07887,-1.63425 4.07892,0.26973c0.00007,2.52821 -2.65375,1.24299 -2.10464,3.89013c0.17108,0.82475 2.20711,2.98752 1.99752,3.49656z" fill="#000000"/><path d="M237.97923,146.72559c0.52517,-1.57566 1.47583,-2.51305 2.65119,-2.98299c3.44121,-1.3759 8.8085,1.25527 11.06251,3.60716c4.16865,4.34968 2.42326,13.66833 1.55016,19.18751c-0.33864,2.14063 -1.09538,11.03065 -5.76549,7.91741c-1.69526,-1.13011 -1.21675,-2.23348 -0.69346,-3.46685c1.22702,-2.89209 3.38104,-9.08215 2.73821,-12.4395c-0.07186,-0.37533 -0.86138,-5.54421 -1.63566,-7.44887c-0.0651,-0.16013 -4.51058,-2.88286 -4.70154,-2.86565c-1.19332,0.10752 -2.78913,1.26649 -3.57609,0.363z" fill="#000000"/><path d="M230.1163,147.60158c0.1508,-0.19242 0.29876,-0.37105 0.4449,-0.53439c0.35056,-0.57702 0.93237,-1.01109 1.64661,-1.15395c1.35389,-0.27081 2.67097,0.6072 2.94178,1.96109c0.05169,0.25845 0.06153,0.51555 0.03419,0.7643c-0.02466,0.22436 -0.07958,0.44191 -0.16131,0.6475c-0.15356,1.82863 -0.69728,4.31052 -1.10616,6.21239c-0.98367,4.57545 -0.49311,10.72902 0.72118,15.3076c1.14099,4.30219 7.89827,2.68372 9.02804,3.43687c2.06321,1.3754 2.31753,4.09823 -0.30631,4.84162c-4.25252,1.20484 -12.11662,-1.41743 -13.4201,-6.27538c-1.76016,-6.55996 -1.14839,-12.69089 -0.69706,-18.99152c0.1476,-2.06054 -0.12813,-4.27425 0.8919,-6.09266z" fill="#ff6e6e"/><path d="M240.61013,159.69619c-0.20615,-1.22389 -1.29877,-3.0009 0.01785,-4.025c1.4398,-1.1199 2.93938,0.25883 3.2438,1.566c0.39617,1.70111 1.0198,6.40266 -0.62284,7.83342c-0.20752,0.59466 -0.71512,1.06728 -1.37743,1.19976c-0.99663,0.19935 -1.96616,-0.44697 -2.16551,-1.4436c-0.07571,-0.3785 -0.02944,-0.75308 0.11166,-1.08307c0.22867,-1.13603 1.05492,-2.48936 0.79247,-4.04752z" fill="#ff6e6e"/><path d="M251.37392,195.03126l0.01744,0.04281l0.01659,0.01544zM251.24701,194.81158l-0.04234,-0.02179l0.10218,0.13962zM257.96439,193.34308l0.14771,0.04216l0.16888,-0.0541l0.88898,-1.72705l0.09546,-0.40699l-0.00421,-0.06468l-0.02637,-0.28788l-0.28904,-0.90227l-0.05878,-0.10062l-0.25794,-0.30818l-0.05199,-0.10709l-2.2082,-1.13666l-1.32311,-0.42415l-0.88104,-0.17591l-0.13008,-0.06157l-0.1436,-0.00939l-0.24698,-0.07917l-0.0647,0.01098l-0.72262,0.14601l-0.20959,0.06714l-0.12523,0.06963l-0.02336,0.08187l-0.12436,0.21572l-0.05686,0.24242l-0.07355,0.14289l0.15505,0.13608l0.44154,0.36743l0.04115,0.05622l0.05397,0.04737l0.00104,0.02353l0.1791,0.18336l0.03792,0.06491l0.06158,0.04312l0.45616,0.52547l0.58001,0.59377l0.15474,0.26489c0.12716,0.07818 0.24511,0.16628 0.35336,0.26278l0.03672,0.0078l0.0385,0.06211c0.1187,0.11496 0.22453,0.24043 0.31675,0.37414l0.05545,0.04866l0.00166,0.03792c0.09233,0.14654 0.16894,0.30191 0.22892,0.46329l0.17233,0.1985l0.16658,0.328l0.14756,0.08662l0.00757,0.0319l0.87814,0.45201l0.10863,0.02549l0.59695,0.0568l0.21805,0.07709zM270.67501,195.93398l-0.34929,0.39797l-0.26259,0.32958l-0.98961,1.92253l-0.00806,0.68753l-0.05942,0.22639l0.01121,0.2338l-0.20364,1.01988l-0.14917,0.31519l-0.07963,0.33948l-0.32691,0.63509l-0.31233,0.35585l-0.27159,0.38785l-0.58094,0.50433l-0.35012,0.17783l-0.31364,0.23629l-0.87043,0.36872l-3.3205,1.97609l-1.84665,1.11642l-1.40398,0.87049l-0.42208,0.13521l-0.40017,0.19052l-0.89661,0.18117l-0.00061,-0.00003l-0.02941,0.0257l-0.62766,-0.05569l-0.62946,-0.02874l-0.02571,-0.0294l-0.00061,-0.00006l-0.9545,-0.33065l-0.2655,-0.17336l-0.29882,-0.10606l-1.07777,-0.71545l-0.03969,-0.04348l-0.05452,-0.02222l-2.21719,-1.6233l-0.0236,-0.02837l-0.03376,-0.01491l-1.83614,-1.42715l-0.09222,-0.11757l-0.12867,-0.07596l-1.6952,-1.67116l-2.13778,-2.05982l-0.04174,-0.06672l-0.06569,-0.04335l-1.95567,-2.13137l-0.00355,-0.00654l-0.00619,-0.00413l-1.63998,-1.80821l-0.15164,-0.28314l-0.21317,-0.24025l-1.33178,-2.55337l-0.39002,-0.62905l-0.14682,-0.45829l-0.19318,-0.44074l-0.47812,-2.81686l0.01329,-0.17256l-0.04728,-0.16648l-0.04666,-1.47007l0.04954,-0.22876l-0.02135,-0.23308l0.41476,-2.67861l0.15598,-0.37037l0.09178,-0.39126l1.11148,-2.15929l0.20301,-0.23131l0.14085,-0.27364l0.77708,-0.88538l0.0806,-0.05579l0.05142,-0.08346l0.64632,-0.63134l0.215,-0.1256l0.16965,-0.18227l0.96574,-0.6276l0.18633,-0.06409l0.15498,-0.12169l0.83498,-0.37356l0.24995,-0.04438l0.22697,-0.11369l1.08901,-0.24281l0.0951,0.00243l0.088,-0.03616l1.21604,-0.17742l0.28228,0.02835l0.27988,-0.04642l1.82192,0.14713l1.37544,0.0787l0.36713,0.11442l0.38179,0.04594l1.20853,0.46141l0.11542,0.08061l0.13705,0.03215l3.68351,1.89606l0.06,0.05265l0.07643,0.02305l1.96689,1.17312l0.13358,0.13288l0.17034,0.0805l1.46551,1.20086l1.10888,0.70457l1.5504,0.79806l0.0954,0.08374l0.12009,0.04115l1.20479,0.78083l0.11015,0.11805l0.14487,0.07127l1.45508,1.231l0.03305,0.04593l0.04962,0.0272l1.95941,1.81195l0.13317,0.20348l0.18692,0.15554l0.88185,1.20499l0.43616,0.50241l0.04804,0.09458l0.08155,0.06786l0.18865,0.25778l0.02288,0.05618l0.83879,0.49244l0.07221,0.01118l0.01621,0.04073l0.63166,0.37084l0.29783,1.25358l-0.00374,0.31941l-0.06034,0.22987l0.0503,0.12634l-0.19671,0.43143l-0.12038,0.45862l-0.11884,0.06607l-0.0986,0.21624l-0.45393,0.5697l-0.26521,0.2029l-0.21359,0.25668l-0.21221,0.1553l-0.29465,0.39532l-0.07889,0.06449z" fill="#ff0000"/><path d="M251.33921,186.84003c0.36331,-0.38027 0.76269,-0.65859 1.18517,-0.84834c3.01406,-1.35374 7.20458,1.80034 7.87058,4.609c0.2707,1.14162 -1.26371,4.20844 -2.75282,3.02197c-1.97731,-1.57546 0.68162,-2.85005 -1.73086,-4.07023c-0.75163,-0.38016 -3.71189,-0.13559 -3.9794,-0.61673z" fill="#000000"/><path d="M267.50617,198.03936c0.90502,1.39263 1.04572,2.72029 0.68081,3.93238c-1.0684,3.54874 -6.47093,6.10675 -9.71494,6.40394c-5.99961,0.54964 -12.1999,-6.62253 -15.97228,-10.74476c-1.46312,-1.59882 -7.94429,-7.73068 -2.5992,-9.44301c1.94028,-0.62158 2.50501,0.44025 3.14352,1.61811c1.49721,2.7619 4.99604,8.304 8.02237,9.89346c0.33832,0.17769 4.87282,2.78133 6.84494,3.36271c0.1658,0.04888 5.0655,-1.73114 5.17104,-1.89121c0.65956,-1.00028 0.74761,-2.97058 1.94462,-3.02302z" fill="#000000"/><path d="M271.72103,191.34399c0.05651,0.23784 0.10401,0.46488 0.14068,0.68096c0.23282,0.63376 0.20973,1.35926 -0.12363,2.00689c-0.63191,1.22762 -2.13936,1.71055 -3.36698,1.07864c-0.23435,-0.12063 -0.44155,-0.27316 -0.61905,-0.44956c-0.1601,-0.1591 -0.29601,-0.33763 -0.40587,-0.52966c-1.33445,-1.25965 -2.93667,-3.23153 -4.16929,-4.7365c-2.9654,-3.62061 -8.08372,-7.07167 -12.42127,-8.97525c-4.0757,-1.78866 -7.02087,4.50469 -8.31394,4.91893c-2.36141,0.7565 -4.64939,-0.7414 -3.59567,-3.25673c1.70777,-4.07665 8.65929,-8.59292 13.27091,-6.58501c6.22732,2.71139 10.64101,7.01047 15.28737,11.28982c1.51954,1.39951 3.42267,2.56339 4.20917,4.49432z" fill="#ff6e6e"/><path d="M255.72256,192.01403c1.08565,0.60147 3.15631,0.85433 3.13676,2.52223c-0.02139,1.82394 -2.03417,2.13754 -3.24619,1.56103c-1.57729,-0.75025 -5.64294,-3.19239 -5.73827,-5.36867c-0.33576,-0.53287 -0.38906,-1.22439 -0.07994,-1.82493c0.46516,-0.90367 1.57483,-1.25916 2.4785,-0.794c0.3432,0.17666 0.60732,0.44628 0.77747,0.76226c0.74597,0.88678 1.2895,2.37634 2.67166,3.14208z" fill="#ff6e6e"/><path d="M239.72359,181.87152l0.01687,0.01446l0.01049,0.00295zM239.621,181.80554h-0.0229l0.0744,0.03719zM242.16936,179.69972l0.07241,-0.01448l0.06029,-0.06028v-0.93388l-0.04875,-0.19499l-0.01603,-0.02672l-0.07462,-0.11726l-0.32209,-0.32209l-0.04727,-0.03008l-0.17808,-0.07497l-0.04578,-0.03435h-1.19405l-0.65893,0.10982l-0.41532,0.11866l-0.06915,0.00231l-0.06346,0.02759l-0.123,0.0205l-0.02524,0.01893l-0.27677,0.22142l-0.07482,0.07482l-0.03821,0.05732l0.00803,0.04014l-0.00569,0.11958l0.02904,0.11614v0.07727l0.09622,0.02405l0.2696,0.05991l0.02996,0.01498l0.03349,0.00838l0.00562,0.00983l0.11692,0.03897l0.03049,0.01941l0.03581,0.00489l0.31062,0.12425l0.37859,0.12619l0.12443,0.07919c0.07156,0.00544 0.14137,0.01714 0.20888,0.03457l0.01741,-0.00475l0.03013,0.01808c0.07603,0.02302 0.14888,0.05338 0.21773,0.09024l0.03441,0.0086l0.00905,0.01585c0.07172,0.04233 0.13865,0.09188 0.1998,0.14767l0.11734,0.04694l0.14338,0.10356l0.08213,0.00456l0.01026,0.01197h0.47485l0.05204,-0.01301l0.26767,-0.10707l0.11017,-0.01503zM248.17289,178.01043l-0.06175,0.24698l-0.03973,0.19866v1.03958l0.14784,0.29568l0.02442,0.10985l0.05623,0.09748l0.13737,0.48078l0.00558,0.16756l0.04066,0.16264v0.34341l-0.05522,0.22084l-0.03075,0.22555l-0.13736,0.34341l-0.11055,0.15305l-0.08208,0.17003l-0.29095,0.34914l-0.9846,1.57536l-0.54374,0.88357l-0.40863,0.68104l-0.15067,0.15067l-0.12913,0.1695l-0.34341,0.27473l-0.00027,0.00012l-0.00692,0.01746l-0.28056,0.1143l-0.2754,0.12622l-0.01746,-0.00691l-0.00027,0.00011l-0.48078,0.06869l-0.15163,-0.01569l-0.15108,0.02042l-0.61814,-0.06869l-0.02653,-0.00985l-0.02819,0.0025l-1.30498,-0.20605l-0.01633,-0.00693l-0.01771,0.00106l-1.09892,-0.20605l-0.06529,-0.02997l-0.07172,-0.00415l-1.09237,-0.34136l-1.36707,-0.41013l-0.03253,-0.01933l-0.03762,-0.00408l-1.30497,-0.48078l-0.00296,-0.00202l-0.00355,-0.00041l-1.09892,-0.41209l-0.12712,-0.08767l-0.14399,-0.0558l-1.13114,-0.79845l-0.30514,-0.18308l-0.1636,-0.1636l-0.17956,-0.14589l-0.8242,-1.09893l-0.03229,-0.07668l-0.05685,-0.06077l-0.34341,-0.61814l-0.02916,-0.10869l-0.06042,-0.09494l-0.41209,-1.23629l-0.01481,-0.19264l-0.04686,-0.18744v-1.16761l0.03588,-0.14354v-0.14796l0.13737,-0.54946l0.02218,-0.04158l0.00361,-0.04699l0.13736,-0.4121l0.06428,-0.10099l0.03241,-0.11525l0.27473,-0.48077l0.06555,-0.0684l0.03947,-0.08612l0.27473,-0.34341l0.09708,-0.07397l0.07201,-0.09854l0.41209,-0.34341l0.04119,-0.01988l0.02966,-0.03482l0.48078,-0.34341l0.1269,-0.04999l0.10942,-0.08143l0.8112,-0.338l0.60527,-0.26901l0.18212,-0.03187l0.17331,-0.06437l0.61814,-0.06869l0.06708,0.00907l0.06566,-0.01642h1.9918l0.03723,0.00931l0.03774,-0.00697l1.09893,0.06869l0.08633,0.02741l0.09053,-0.00307l0.8907,0.19087l0.62904,0.05719h0.83836l0.05921,0.0148l0.06039,-0.00884l0.68682,0.06868l0.07306,0.02623l0.07761,-0.00142l0.89288,0.20605l0.02423,0.01236l0.0272,0.00071l1.23629,0.34341l0.1017,0.05768l0.11413,0.02536l0.64211,0.32106l0.297,0.11879l0.04135,0.02986l0.04979,0.01107l0.13736,0.06868l0.02214,0.01898l0.46692,0.02594l0.03333,-0.01112l0.0159,0.01385l0.35161,0.01953l0.40315,0.47034l0.06868,0.13737l0.02479,0.11154l0.0493,0.04293l0.01084,0.22771l0.04946,0.22253l-0.03627,0.0544l0.00544,0.11413l-0.06868,0.34341l-0.06873,0.14509l-0.03482,0.15672l-0.05654,0.11308l-0.03897,0.23382l-0.01953,0.04493z" fill="#ff0000"/><path d="M237.90636,178.37764c0.07163,-0.24249 0.18111,-0.44935 0.31996,-0.62342c0.99055,-1.24189 3.4759,-0.81569 4.37861,0.23839c0.36692,0.42845 0.38581,2.07706 -0.51181,1.89754c-1.1919,-0.23838 -0.33575,-1.3683 -1.6355,-1.35906c-0.40495,0.00288 -1.61657,0.75879 -1.83678,0.61199z" fill="#000000"/><path d="M247.28156,179.60769c0.69331,0.39617 1.04559,0.93275 1.1563,1.53118c0.32415,1.75207 -1.42243,4.03431 -2.74376,4.87516c-2.44372,1.55509 -6.67231,-0.1465 -9.19195,-1.07858c-0.97725,-0.3615 -5.09699,-1.5566 -3.1889,-3.4647c0.69264,-0.69264 1.16769,-0.36301 1.6998,0c1.24774,0.85119 3.96286,2.45041 5.60627,2.46395c0.18372,0.00152 2.695,0.11673 3.66594,-0.06869c0.08163,-0.01558 1.78444,-1.85462 1.79433,-1.94626c0.06185,-0.57272 -0.33406,-1.43435 0.16609,-1.72015z" fill="#000000"/><path d="M247.61006,175.81818c0.07649,0.08924 0.14676,0.17583 0.20998,0.26013c0.23898,0.21968 0.38875,0.5349 0.38875,0.8851c0,0.66381 -0.53814,1.20195 -1.20195,1.20195c-0.12672,0 -0.24885,-0.01961 -0.36354,-0.05596c-0.10344,-0.03278 -0.20082,-0.07919 -0.29004,-0.13711c-0.84761,-0.24483 -1.96641,-0.73521 -2.82447,-1.10731c-2.06429,-0.89521 -5.0116,-1.24422 -7.28463,-1.10352c-2.13582,0.13221 -2.01002,3.47049 -2.47162,3.93209c-0.84298,0.84298 -2.15061,0.70611 -2.25365,-0.60098c-0.16699,-2.11843 1.81083,-5.57861 4.22398,-5.73501c3.25861,-0.21121 6.0913,0.65535 9.0191,1.46228c0.9575,0.26389 2.02713,0.34266 2.78822,0.99501z" fill="#000000"/><path d="M240.9186,179.62488c0.59643,0.01823 1.53722,-0.3293 1.89586,0.38798c0.39219,0.78438 -0.3992,1.36133 -1.04416,1.38158c-0.83933,0.02635 -3.11465,-0.123 -3.63426,-1.03232c-0.26078,-0.15391 -0.43572,-0.43778 -0.43572,-0.76252c0,-0.48865 0.39613,-0.88478 0.88478,-0.88478c0.18558,0 0.3578,0.05714 0.50007,0.15478c0.514,0.21493 1.07411,0.73208 1.83344,0.75528z" fill="#000000"/></g></g></svg>