<svg version="1.1" xmlns="http://www.w3.org/2000/svg" xmlns:xlink="http://www.w3.org/1999/xlink" width="36.46848" height="28.19702" viewBox="0,0,36.46848,28.19702"><g transform="translate(-221.80255,-165.68596)"><g data-paper-data="{&quot;isPaintingLayer&quot;:true}" fill-rule="nonzero" stroke="none" stroke-width="0.5" stroke-linecap="butt" stroke-linejoin="miter" stroke-miterlimit="10" stroke-dasharray="" stroke-dashoffset="0" style="mix-blend-mode: normal"><path d="M239.42506,183.89265l0.03509,0.03008l0.02182,0.00614zM239.21168,183.75542h-0.04762l0.15475,0.07737zM244.51217,179.3754l0.15062,-0.03012l0.12539,-0.12539v-1.94242l-0.10139,-0.40556l-0.03335,-0.05558l-0.1552,-0.24389l-0.66994,-0.66994l-0.09831,-0.06256l-0.37038,-0.15595l-0.09524,-0.07143h-2.48357l-1.37053,0.22842l-0.86386,0.24682l-0.14383,0.00479l-0.13198,0.05738l-0.25583,0.04264l-0.0525,0.03937l-0.57567,0.46054l-0.15562,0.15562l-0.07948,0.11922l0.0167,0.08348l-0.01184,0.24872l0.06039,0.24157v0.16071l0.20014,0.05003l0.56075,0.12461l0.06231,0.03115l0.06966,0.01742l0.01169,0.02045l0.24317,0.08106l0.06342,0.04036l0.07449,0.01016l0.64607,0.25843l0.78745,0.26248l0.25882,0.1647c0.14884,0.01132 0.29403,0.03567 0.43445,0.07192l0.03622,-0.00988l0.06266,0.0376c0.15815,0.04789 0.30967,0.11102 0.45286,0.18769l0.07157,0.01789l0.01883,0.03296c0.14916,0.08803 0.28838,0.19111 0.41557,0.30715l0.24407,0.09763l0.29823,0.21539l0.17084,0.00949l0.02133,0.02489h0.98765l0.10825,-0.02706l0.55675,-0.2227l0.22916,-0.03125zM256.99924,175.86176l-0.12843,0.51371l-0.08264,0.41321v2.16228l0.3075,0.61499l0.05078,0.22849l0.11697,0.20274l0.28571,1l0.01162,0.34851l0.08457,0.33829v0.71429l-0.11484,0.45934l-0.06397,0.46914l-0.28571,0.71429l-0.22992,0.31835l-0.17072,0.35364l-0.60517,0.72621l-2.04793,3.27668l-1.13095,1.83779l-0.84992,1.41653l-0.31339,0.31339l-0.2686,0.35254l-0.71429,0.57143l-0.00055,0.00025l-0.01439,0.03631l-0.58355,0.23774l-0.57282,0.26254l-0.03632,-0.01438l-0.00056,0.00023l-1,0.14286l-0.3154,-0.03263l-0.31423,0.04246l-1.28571,-0.14286l-0.05519,-0.0205l-0.05864,0.0052l-2.71429,-0.42857l-0.03397,-0.01443l-0.03684,0.0022l-2.28571,-0.42857l-0.1358,-0.06233l-0.14917,-0.00865l-2.27208,-0.71002l-2.84346,-0.85304l-0.06765,-0.04022l-0.07825,-0.00848l-2.71429,-1l-0.00615,-0.00419l-0.00739,-0.00085l-2.28571,-0.85714l-0.26441,-0.18235l-0.29949,-0.11605l-2.35272,-1.66074l-0.63467,-0.3808l-0.34028,-0.34028l-0.37348,-0.30346l-1.71429,-2.28571l-0.06716,-0.15951l-0.11823,-0.12639l-0.71429,-1.28571l-0.06065,-0.22607l-0.12566,-0.19747l-0.85714,-2.57143l-0.03082,-0.40069l-0.09747,-0.38988v-2.42857l0.07464,-0.29857v-0.30776l0.28571,-1.14286l0.04613,-0.08649l0.00752,-0.09774l0.28571,-0.85714l0.13368,-0.21007l0.06742,-0.2397l0.57143,-1l0.13634,-0.14226l0.0821,-0.17913l0.57143,-0.71429l0.20193,-0.15385l0.14978,-0.20496l0.85714,-0.71429l0.08567,-0.04136l0.06169,-0.07242l1,-0.71429l0.26396,-0.10398l0.2276,-0.16937l1.68725,-0.70302l1.25895,-0.55953l0.37879,-0.06629l0.36048,-0.13389l1.28571,-0.14286l0.13951,0.01885l0.13657,-0.03414h4.14286l0.07744,0.01936l0.0785,-0.01449l2.28571,0.14286l0.17958,0.05701l0.1883,-0.00638l1.85262,0.39699l1.30839,0.11894h1.74374l0.12315,0.03079l0.12561,-0.01838l1.42857,0.14286l0.15196,0.05455l0.16143,-0.00294l1.85714,0.42857l0.0504,0.02571l0.05656,0.00147l2.57143,0.71429l0.21153,0.11997l0.23739,0.05275l1.33556,0.66778l0.61774,0.24709l0.086,0.06211l0.10356,0.02301l0.28571,0.14286l0.04606,0.03948l0.97116,0.05395l0.06932,-0.02311l0.03306,0.02879l0.73134,0.04063l0.83853,0.97828l0.14286,0.28571l0.05156,0.232l0.10254,0.08931l0.02255,0.47362l0.10286,0.46286l-0.07543,0.11314l0.0113,0.23739l-0.14286,0.71429l-0.14295,0.30178l-0.07244,0.32597l-0.1176,0.2352l-0.08106,0.48634l-0.04063,0.09345z" fill="#b37046"/><path d="M235.64532,176.62554c0.14899,-0.50438 0.3767,-0.93463 0.6655,-1.2967c2.0603,-2.58308 7.22972,-1.6966 9.10731,0.49584c0.76317,0.89115 0.80248,4.32019 -1.06453,3.94679c-2.47911,-0.49582 -0.69834,-2.846 -3.40177,-2.82677c-0.84228,0.00599 -3.36239,1.57826 -3.82043,1.2729z" fill="#985933"/><path d="M255.14532,179.18399c1.44204,0.82402 2.17477,1.94008 2.40505,3.18478c0.67422,3.64424 -2.95858,8.39119 -5.70689,10.14012c-5.08283,3.23453 -13.87813,-0.30472 -19.11886,-2.24339c-2.03263,-0.75192 -10.60154,-3.23766 -6.63278,-7.20642c1.44067,-1.44067 2.42875,-0.75504 3.53553,0c2.59524,1.77044 8.24258,5.09674 11.6608,5.12491c0.38213,0.00315 5.60547,0.2428 7.625,-0.14286c0.16979,-0.03242 3.71156,-3.85753 3.73214,-4.04815c0.12863,-1.19123 -0.69483,-2.98337 0.34546,-3.57783z" fill="#985933"/><path d="M255.82858,171.30197c0.1591,0.18561 0.30524,0.36573 0.43674,0.54107c0.49706,0.45693 0.80857,1.11257 0.80857,1.84096c0,1.38071 -1.11929,2.5 -2.5,2.5c-0.26357,0 -0.51761,-0.04079 -0.75616,-0.11639c-0.21516,-0.06819 -0.41771,-0.16471 -0.60328,-0.28518c-1.76299,-0.50925 -4.09003,-1.5292 -5.87476,-2.30317c-4.29364,-1.86199 -10.4239,-2.58792 -15.15172,-2.29526c-4.44241,0.27499 -4.18076,7.21846 -5.14087,8.17857c-1.75336,1.75336 -4.47319,1.46869 -4.6875,-1.25c-0.34734,-4.40624 3.76645,-11.60325 8.78571,-11.92857c6.77777,-0.4393 12.66963,1.3631 18.75935,3.04147c1.99157,0.54889 4.21636,0.71271 5.79938,2.06959z" fill="#d3a689"/><path d="M241.91064,179.21973c1.24055,0.03791 3.19735,-0.68494 3.94331,0.80697c0.81574,1.63149 -0.83033,2.83151 -2.17182,2.87363c-1.74577,0.05482 -6.47832,-0.25582 -7.5591,-2.14718c-0.54241,-0.32012 -0.90629,-0.91057 -0.90629,-1.586c0,-1.01637 0.82393,-1.8403 1.8403,-1.8403c0.386,0 0.74423,0.11884 1.04013,0.32192c1.06911,0.44705 2.2341,1.5227 3.81347,1.57096z" fill="#d3a689"/><g><path d="M229.03425,177.5615c-0.83338,0.05398 -1.30175,-1.09939 -1.54717,-2.67108c-0.28392,0.25172 -0.55046,0.5083 -0.79014,0.7727c-0.00637,0.00702 -0.0128,0.0142 -0.01932,0.0215c-0.45831,0.49853 -1.23332,0.54198 -1.74475,0.09278c-0.34413,-0.30226 -0.48247,-0.75164 -0.40355,-1.17136c0.00775,-0.15821 0.07451,-0.32245 0.23402,-0.52527c0.01751,-0.02294 0.03592,-0.04543 0.05525,-0.06744c0.19669,-0.23114 0.39373,-0.46198 0.59114,-0.69252c-0.71622,0.04966 -2.90995,0.24654 -3.12868,-0.29101c-0.01809,-0.01422 -0.0359,-0.02901 -0.05339,-0.04437c-0.51869,-0.45558 -0.56985,-1.24538 -0.11427,-1.76407c0.00056,-0.00064 0.00112,-0.00127 0.00168,-0.0019c0.08358,-0.13327 0.22813,-0.2469 0.46272,-0.34003c0.38416,-0.15251 1.45454,-0.26143 2.82341,-0.3232c-1.15566,-0.66238 -2.18325,-1.37153 -1.95818,-2.47299c-0.13332,-0.4065 -0.05436,-0.87093 0.2484,-1.21563c0.45558,-0.51869 1.24538,-0.56985 1.76407,-0.11427c0.25518,0.22413 0.3972,0.52916 0.4214,0.843c0.45529,0.26662 0.94874,0.59195 1.45884,0.95789c0.06686,-1.01945 0.1581,-1.72584 0.21624,-1.79994c0.03369,-0.23082 0.1323,-0.45488 0.2977,-0.6432c0.45558,-0.51869 1.24538,-0.56985 1.76407,-0.11427c0.24747,0.21736 0.38851,0.51079 0.41888,0.81456c0.15383,0.27705 0.21437,0.62013 0.21611,1.0062c0.12832,-0.14195 0.25679,-0.28375 0.38542,-0.4254c0.9372,-1.03206 2.09772,-0.09118 2.17339,1.0771c0.05126,0.79141 -0.17731,1.49281 -0.58174,2.13663c1.69948,0.10536 2.98601,0.28828 3.16233,0.55517c0.75642,1.14495 -1.03113,1.65983 -3.0591,1.89254c1.05506,1.23389 1.63714,2.28881 1.24082,2.74003c-0.87899,1.00075 -2.27423,0.0123 -3.55293,-1.24898c0.28792,1.35188 0.40817,2.92674 -0.98267,3.01684z" fill="#634c00"/><path d="M225.57497,171.65302c-0.312,-3.49728 6.31185,-3.25493 5.79511,-0.72609c0.37688,0.44599 0.51864,1.03104 0.41406,1.58213c0.6235,1.81474 -5.78221,3.92979 -6.20916,-0.85604z" fill="#a47e00"/><path d="M226.60815,171.52407c-0.20509,-2.29889 4.14901,-2.13959 3.80934,-0.47729c0.24774,0.29316 0.34092,0.67774 0.27217,1.03999c0.40985,1.1929 -3.80086,2.5832 -4.08151,-0.5627z" fill="#ca9b00"/></g><g><path d="M246.26081,172.7399c0.21615,-0.80667 1.45881,-0.88039 3.02619,-0.60877c-0.14736,-0.34966 -0.3049,-0.6844 -0.47847,-0.99622c-0.00461,-0.00828 -0.00934,-0.01669 -0.01416,-0.02519c-0.3252,-0.59399 -0.1178,-1.34199 0.4717,-1.68234c0.39666,-0.22901 0.86668,-0.21591 1.23891,-0.00655c0.14737,0.05808 0.28152,0.17399 0.42247,0.39013c0.01611,0.02394 0.03151,0.04859 0.04615,0.07396c0.15585,0.26043 0.3113,0.5211 0.46635,0.78202c0.18267,-0.69431 0.69977,-2.8353 1.27908,-2.87007c0.01927,-0.01258 0.03898,-0.0247 0.05915,-0.03634c0.59787,-0.34518 1.36235,-0.14033 1.70753,0.45754c0.00042,0.00073 0.00085,0.00146 0.00127,0.0022c0.09943,0.12191 0.16069,0.29526 0.17366,0.54733c0.02124,0.41278 -0.21888,1.46155 -0.5994,2.77792c0.99803,-0.88217 1.99929,-1.62804 2.97038,-1.0616c0.42778,0.0041 0.84236,0.22784 1.07175,0.62516c0.34518,0.59787 0.14033,1.36235 -0.45754,1.70753c-0.29414,0.16981 -0.6286,0.20651 -0.93362,0.12877c-0.39856,0.34573 -0.86496,0.70877 -1.37517,1.07455c0.94415,0.39029 1.58396,0.70327 1.6355,0.78209c0.20783,0.10594 0.38841,0.2712 0.51374,0.48826c0.34518,0.59787 0.14033,1.36235 -0.45754,1.70753c-0.28524,0.16468 -0.60841,0.20417 -0.90587,0.1355c-0.31175,0.05685 -0.65613,0.00416 -1.02236,-0.11802c0.09329,0.16706 0.1864,0.33423 0.27931,0.5015c0.67696,1.21869 -0.58641,2.01614 -1.71725,1.71313c-0.76604,-0.20527 -1.35708,-0.64671 -1.83718,-1.23627c-0.64485,1.57591 -1.23073,2.73581 -1.54007,2.81722c-1.32707,0.34925 -1.24144,-1.509 -0.81144,-3.50447c-1.50709,0.60359 -2.69297,0.81659 -2.99324,0.29649c-0.66598,-1.15352 0.71774,-2.15803 2.3225,-2.96467c-1.3728,-0.16086 -2.90304,-0.55205 -2.54231,-1.89832z" fill="#634c00"/><path d="M252.96664,171.35833c3.4126,0.82613 1.05864,7.02235 -1.17088,5.72185c-0.5433,0.21394 -1.14291,0.16057 -1.63135,-0.11524c-1.91884,0.00854 -1.86772,-6.73713 2.80223,-5.60661z" fill="#a47e00"/><path d="M252.75742,172.37829c2.24323,0.54305 0.69588,4.61605 -0.76966,3.76118c-0.35713,0.14063 -0.75128,0.10554 -1.07234,-0.07575c-1.26133,0.00561 -1.22772,-4.42856 1.84201,-3.68543z" fill="#ca9b00"/></g><g><path d="M231.79362,187.61059c-0.23254,-0.8021 0.79259,-1.50831 2.2743,-2.0871c-0.30705,-0.22292 -0.6151,-0.42781 -0.925,-0.60479c-0.00823,-0.0047 -0.01663,-0.00944 -0.02516,-0.01422c-0.58568,-0.33994 -0.79534,-1.08731 -0.46708,-1.68363c0.22088,-0.40125 0.62983,-0.63329 1.05669,-0.6468c0.15616,-0.02658 0.33094,0.00318 0.5634,0.11517c0.02617,0.01215 0.05211,0.02528 0.07777,0.0394c0.26813,0.14218 0.53606,0.28477 0.80377,0.42778c-0.20303,-0.68863 -0.86865,-2.7882 -0.39096,-3.11777c0.00998,-0.02073 0.02057,-0.04131 0.0318,-0.06171c0.33292,-0.60478 1.09308,-0.82516 1.69785,-0.49224c0.00074,0.00041 0.00149,0.00081 0.00223,0.00123c0.14817,0.05286 0.29031,0.16947 0.43186,0.37844c0.23182,0.34221 0.56913,1.36386 0.92483,2.68715c0.3974,-1.27136 0.86811,-2.42777 1.99219,-2.44568c0.36815,-0.2179 0.83869,-0.24101 1.24059,-0.01977c0.60478,0.33292 0.82516,1.09308 0.49224,1.69785c-0.16379,0.29753 -0.43099,0.50204 -0.73221,0.59338c-0.16209,0.5021 -0.37328,1.05413 -0.62053,1.63117c1.00986,-0.15469 1.7193,-0.21803 1.8042,-0.17726c0.23266,-0.01691 0.47271,0.03103 0.69228,0.1519c0.60478,0.33292 0.82516,1.09308 0.49223,1.69786c-0.15884,0.28853 -0.41492,0.48958 -0.70498,0.58477c-0.23732,0.20999 -0.55926,0.34314 -0.93586,0.42814c0.16629,0.09466 0.33247,0.18951 0.49854,0.28455c1.20997,0.69242 0.54169,2.02861 -0.58274,2.35461c-0.7617,0.22083 -1.4959,0.14899 -2.21182,-0.10698c0.26384,1.68218 0.36283,2.97787 0.14028,3.20763c-0.95475,0.98566 -1.84322,-0.64867 -2.50805,-2.57866c-0.97716,1.29645 -1.88162,2.09246 -2.40773,1.80284c-1.16685,-0.64234 -0.50275,-2.21799 0.45289,-3.73873c-1.2579,0.57285 -2.76971,1.0301 -3.15781,-0.30853z" fill="#634c00"/><path d="M236.81646,182.95785c3.34756,-1.0593 4.54024,5.46079 1.95947,5.5019c-0.35415,0.46424 -0.89484,0.7289 -1.45551,0.7457c-1.63745,1.0004 -5.08491,-4.79801 -0.50396,-6.2476z" fill="#a47e00"/><path d="M237.16531,183.93886c2.20048,-0.69632 2.98447,3.58959 1.28803,3.61661c-0.2328,0.30516 -0.58821,0.47913 -0.95676,0.49017c-1.07635,0.6576 -3.34251,-3.15391 -0.33127,-4.10678z" fill="#ca9b00"/></g></g></g></svg>