<svg version="1.1" xmlns="http://www.w3.org/2000/svg" xmlns:xlink="http://www.w3.org/1999/xlink" width="36.63279" height="29.22994" viewBox="0,0,36.63279,29.22994"><g transform="translate(-221.59375,-165.36249)"><g data-paper-data="{&quot;isPaintingLayer&quot;:true}" fill-rule="nonzero" stroke="none" stroke-width="0.5" stroke-linecap="butt" stroke-linejoin="miter" stroke-miterlimit="10" stroke-dasharray="" stroke-dashoffset="0" style="mix-blend-mode: normal"><path d="M239.42507,183.89265l0.03509,0.03008l0.02182,0.00614zM239.21169,183.75542h-0.04762l0.15475,0.07737zM244.51218,179.3754l0.15062,-0.03012l0.12539,-0.12539v-1.94242l-0.10139,-0.40556l-0.03335,-0.05558l-0.1552,-0.24389l-0.66994,-0.66994l-0.09831,-0.06256l-0.37038,-0.15595l-0.09524,-0.07143h-2.48357l-1.37053,0.22842l-0.86386,0.24682l-0.14383,0.00479l-0.13198,0.05738l-0.25583,0.04264l-0.0525,0.03937l-0.57567,0.46054l-0.15562,0.15562l-0.07948,0.11922l0.0167,0.08348l-0.01184,0.24872l0.06039,0.24157v0.16071l0.20014,0.05003l0.56075,0.12461l0.06231,0.03115l0.06966,0.01742l0.01169,0.02045l0.24317,0.08106l0.06342,0.04036l0.07449,0.01016l0.64607,0.25843l0.78745,0.26248l0.25882,0.1647c0.14884,0.01132 0.29403,0.03567 0.43445,0.07192l0.03622,-0.00988l0.06266,0.0376c0.15815,0.04789 0.30967,0.11102 0.45286,0.18769l0.07157,0.01789l0.01883,0.03296c0.14916,0.08803 0.28838,0.19111 0.41557,0.30715l0.24407,0.09763l0.29823,0.21539l0.17084,0.00949l0.02133,0.02489h0.98765l0.10825,-0.02706l0.55675,-0.2227l0.22916,-0.03125zM256.99926,175.86176l-0.12843,0.51371l-0.08264,0.41321v2.16228l0.3075,0.61499l0.05078,0.22849l0.11697,0.20274l0.28571,1l0.01162,0.34851l0.08457,0.33829v0.71429l-0.11484,0.45934l-0.06397,0.46914l-0.28571,0.71429l-0.22992,0.31835l-0.17072,0.35364l-0.60517,0.72621l-2.04793,3.27668l-1.13095,1.83779l-0.84992,1.41653l-0.31339,0.31339l-0.2686,0.35254l-0.71429,0.57143l-0.00055,0.00025l-0.01439,0.03631l-0.58355,0.23774l-0.57282,0.26254l-0.03632,-0.01438l-0.00056,0.00023l-1,0.14286l-0.3154,-0.03263l-0.31423,0.04246l-1.28571,-0.14286l-0.05519,-0.0205l-0.05864,0.0052l-2.71429,-0.42857l-0.03397,-0.01443l-0.03684,0.0022l-2.28571,-0.42857l-0.1358,-0.06233l-0.14917,-0.00865l-2.27208,-0.71002l-2.84346,-0.85304l-0.06765,-0.04022l-0.07825,-0.00848l-2.71429,-1l-0.00615,-0.00419l-0.00739,-0.00085l-2.28571,-0.85714l-0.26441,-0.18235l-0.29949,-0.11605l-2.35272,-1.66074l-0.63467,-0.3808l-0.34028,-0.34028l-0.37348,-0.30346l-1.71429,-2.28571l-0.06716,-0.15951l-0.11823,-0.12639l-0.71429,-1.28571l-0.06065,-0.22607l-0.12566,-0.19747l-0.85714,-2.57143l-0.03082,-0.40069l-0.09747,-0.38988v-2.42857l0.07464,-0.29857v-0.30776l0.28571,-1.14286l0.04613,-0.08649l0.00752,-0.09774l0.28571,-0.85714l0.13368,-0.21007l0.06742,-0.2397l0.57143,-1l0.13634,-0.14226l0.0821,-0.17913l0.57143,-0.71429l0.20193,-0.15385l0.14978,-0.20496l0.85714,-0.71429l0.08567,-0.04136l0.06169,-0.07242l1,-0.71429l0.26396,-0.10398l0.2276,-0.16937l1.68725,-0.70302l1.25895,-0.55953l0.37879,-0.06629l0.36048,-0.13389l1.28571,-0.14286l0.13951,0.01885l0.13657,-0.03414h4.14286l0.07744,0.01936l0.0785,-0.01449l2.28571,0.14286l0.17958,0.05701l0.1883,-0.00638l1.85262,0.39699l1.30839,0.11894h1.74374l0.12315,0.03079l0.12561,-0.01838l1.42857,0.14286l0.15196,0.05455l0.16143,-0.00294l1.85714,0.42857l0.0504,0.02571l0.05656,0.00147l2.57143,0.71429l0.21153,0.11997l0.23739,0.05275l1.33556,0.66778l0.61774,0.24709l0.086,0.06211l0.10356,0.02301l0.28571,0.14286l0.04606,0.03948l0.97116,0.05395l0.06932,-0.02311l0.03306,0.02879l0.73134,0.04063l0.83853,0.97828l0.14286,0.28571l0.05156,0.232l0.10254,0.08931l0.02255,0.47362l0.10286,0.46286l-0.07543,0.11314l0.0113,0.23739l-0.14286,0.71429l-0.14295,0.30178l-0.07244,0.32597l-0.1176,0.2352l-0.08106,0.48634l-0.04063,0.09345z" fill="#bd7fff"/><path d="M235.64533,176.62554c0.14899,-0.50438 0.3767,-0.93463 0.6655,-1.2967c2.0603,-2.58308 7.22972,-1.6966 9.10731,0.49584c0.76317,0.89115 0.80248,4.32019 -1.06453,3.94679c-2.47911,-0.49582 -0.69834,-2.846 -3.40177,-2.82677c-0.84228,0.00599 -3.36239,1.57826 -3.82043,1.2729z" fill="#9866c9"/><path d="M241.91065,179.21973c1.24055,0.03791 3.19735,-0.68494 3.94331,0.80697c0.81574,1.63149 -0.83033,2.83151 -2.17182,2.87363c-1.74577,0.05482 -6.47832,-0.25582 -7.5591,-2.14718c-0.54241,-0.32012 -0.90629,-0.91057 -0.90629,-1.586c0,-1.01637 0.82393,-1.8403 1.8403,-1.8403c0.386,0 0.74423,0.11884 1.04013,0.32192c1.06911,0.44705 2.2341,1.5227 3.81347,1.57096z" fill="#d1a6ff"/><path d="M255.82859,171.30197c0.1591,0.18561 0.30524,0.36573 0.43674,0.54107c0.49706,0.45693 0.80857,1.11257 0.80857,1.84096c0,1.38071 -1.11929,2.5 -2.5,2.5c-0.26357,0 -0.51761,-0.04079 -0.75616,-0.11639c-0.21516,-0.06819 -0.41771,-0.16471 -0.60328,-0.28518c-1.76299,-0.50925 -4.09003,-1.5292 -5.87476,-2.30317c-4.29364,-1.86199 -10.4239,-2.58792 -15.15172,-2.29526c-4.44241,0.27499 -4.18076,7.21846 -5.14087,8.17857c-1.75336,1.75336 -4.47319,1.46869 -4.6875,-1.25c-0.34734,-4.40624 3.76645,-11.60325 8.78571,-11.92857c6.77777,-0.4393 12.66963,1.3631 18.75935,3.04147c1.99157,0.54889 4.21636,0.71271 5.79938,2.06959z" fill="#d1a6ff"/><path d="M255.14533,179.18399c1.44204,0.82402 2.17477,1.94008 2.40505,3.18478c0.67422,3.64424 -2.95858,8.39119 -5.70689,10.14012c-5.08283,3.23453 -13.87813,-0.30472 -19.11886,-2.24339c-2.03263,-0.75192 -10.60154,-3.23766 -6.63278,-7.20642c1.44067,-1.44067 2.42875,-0.75504 3.53553,0c2.59524,1.77044 8.24258,5.09674 11.6608,5.12491c0.38213,0.00315 5.60547,0.2428 7.625,-0.14286c0.16979,-0.03242 3.71156,-3.85753 3.73214,-4.04815c0.12863,-1.19123 -0.69483,-2.98337 0.34546,-3.57783z" fill="#9866c9"/><path d="M227.32916,169.30408c0.18325,0.35719 0.34444,0.75229 0.49341,1.16744c0.07104,0.11671 0.1147,0.24777 0.135,0.3904c0.4939,1.47748 0.87733,3.12978 1.56149,4.2109c1.18159,1.86714 2.18654,3.80173 2.97853,5.8714c0.69386,1.81325 1.91644,5.36494 1.91644,7.36315c0,0.20867 -0.04363,0.39472 -0.1196,0.55599c0.18662,0.21839 0.29931,0.50185 0.29931,0.81163c0,0.69036 -0.55964,1.25 -1.25,1.25c-0.35272,0 -0.67132,-0.14609 -0.89858,-0.38106c-2.41824,-0.14042 -5.95271,-2.09437 -7.23769,-3.19578c-1.29009,-1.1058 -2.00972,-3.56553 -2.2985,-6.05785c-0.00466,-0.00154 -0.00932,-0.00309 -0.014,-0.00465c-2.44802,-0.81601 -0.25157,-9.17176 0.88114,-11.02049c0.3214,-0.52457 0.99225,-2.69834 1.64802,-2.65311c0.16462,-0.07981 0.34939,-0.12456 0.54461,-0.12456c0.69036,0 1.25,0.55964 1.25,1.25c0,0.10281 -0.01241,0.20272 -0.03582,0.29831c0.05032,0.0867 0.09901,0.17623 0.14623,0.26827z" fill="#5700ff"/><path d="M257.89191,180.53872c0.38977,0.90614 -0.69178,2.63719 -1.73653,1.76301c-3.6608,-3.06312 -7.16266,-8.09621 -9.29342,-12.35773c-0.09145,-0.17371 -0.14321,-0.37156 -0.14321,-0.5815c0,-0.69036 0.55964,-1.25 1.25,-1.25c0.11112,0 0.21885,0.0145 0.3214,0.04171c0.03083,0.00663 0.06138,0.01455 0.09157,0.02378c0.02875,-0.00197 0.05777,-0.00298 0.08703,-0.00298c0.42685,0 0.80374,0.21395 1.02926,0.54048c1.41393,0.07513 3.20937,0.57903 4.7085,1.25212c0.02929,-0.00786 0.05901,-0.01468 0.08911,-0.02042c1.85336,-1.31949 3.49055,2.24261 3.36064,4.16532c-0.01979,0.2928 -0.11263,0.53169 -0.25175,0.71673c-0.00236,1.25278 -0.12857,2.67733 -0.40099,3.81007c0.17066,0.21093 0.27409,0.47851 0.27765,0.77012c0.24754,0.38969 0.45535,0.76804 0.61075,1.12931z" fill="#ff0000"/><path d="M247.00326,169.05338l0.1461,0.27394l0.15973,0.26622l-0.006,0.02202l0.00334,0.00627l0.00999,0.03994l0.1299,0.19485l0.02657,0.07439l0.0514,0.05997l0.09678,0.19357l0.10657,0.10656l0.00366,0.00609l0.02197,0.00618l0.1461,0.27394l0.15973,0.26622l-0.006,0.02202l0.00334,0.00627l0.02922,0.11688l0.12375,0.24751l0.53213,0.63855l0.01426,0.02954l0.02546,0.02069l0.1342,0.17893l0.06218,0.06218l0.05375,0.08958l0.07953,0.06775l0.3125,0.4375l0.00759,0.01926l0.01531,0.01392l0.09967,0.1495l0.40946,0.52644l0.01886,0.04268l0.03451,0.03138l0.08313,0.1247l0.32588,0.38019l0.004,0.00799l0.00721,0.00527l0.2762,0.33144l0.4599,0.4599l0.02973,0.04955l0.04666,0.0341l0.3125,0.375l0.05917,0.12257l0.00333,0.00243l0.2762,0.33144l0.1474,0.1474l0.05375,0.08958l0.07953,0.06775l0.3125,0.4375l0.00759,0.01926l0.01531,0.01392l0.08313,0.1247l0.32588,0.38019l0.004,0.00799l0.00721,0.00527l0.3125,0.375l0.06318,0.13087l0.09458,0.11034l0.16603,0.33207l0.14749,0.24582l0.03985,0.05976l0.22498,0.22498l0.0219,0.03648l0.03494,0.02426l0.41009,0.46868l0.1946,0.19459l0.5108,0.45404l0.39976,0.31981l0.16904,0.04226l0.03857,0.0675l0.13666,0.06597l0.35039,0.29199l0.44662,0.33497l0.34614,0.23075l0.16509,0.1816l0.18159,0.16509l0.03637,0.05455l0.22172,0.19005l0.00009,0.00162l0.04174,0.00834l0.08623,0.1355l0.12194,0.10453l0.0053,0.09544l0.1324,0.20805l0.0625,0.1875l0.01297,0.16855l0.04402,0.19809l0.06966,0.27864v0.03483l0.00779,0.03504l-0.00779,0.01168v0.29344l-0.03733,0.14928v0.15389l-0.0625,0.25l-0.02306,0.04325l-0.00211,0.02747v0.12611l-0.0122,0.04879l0.01894,0.03788l-0.0947,0.26516l-0.06829,0.27317l-0.00743,0.00424l0.00402,0.01471l-0.08264,0.13772l-0.03895,0.15582l-0.08299,0.04742l-0.0014,0.00232l-0.01101,0.03304l-0.04831,0.0759l-0.01951,0.08783l-0.10933,0.21865l-0.10246,0.40983l-0.04285,0.02448l-0.00274,0.04928l-0.05568,0.04773l-0.0298,0.11917l-0.15911,0.29835l-0.0054,0.09725l-0.06488,0.05561l-0.01453,0.05812l-0.03987,0.02277l-0.01938,0.03634l-0.08705,0.02448l-0.01353,0.00773l-0.18277,0.15667l-0.12615,0.22075l-0.625,0.15625h-0.29344l-0.01168,0.00779l-0.03504,-0.00779h-0.03483l-0.27864,-0.06966l-0.28038,-0.06231l-0.03115,-0.01558l-0.03483,-0.0087l-0.00697,-0.01219l-0.22259,-0.1113l-0.29073,-0.09691l-0.14086,-0.08964l-0.15723,-0.05615l-0.15168,-0.10112l-0.36999,-0.21142l-0.06112,-0.03055l-0.40374,-0.17303l-0.02992,-0.02275l-0.0367,-0.00815l-0.5,-0.25l-0.10097,-0.08654l-0.12088,-0.0554l-0.23641,-0.18913l-0.22946,-0.13111l-0.00326,0.00041l-0.00944,-0.00767l-0.11073,-0.06328l-0.18305,-0.17543l-0.19678,-0.15987l-0.05903,-0.07871l-0.18311,-0.12207l-0.01914,-0.00106l-0.21044,-0.24552l-0.02902,-0.03192l-0.37526,-0.32164l-0.02837,-0.03997l-0.04203,-0.02522l-0.33491,-0.3349l-0.70644,-0.5887l-0.1064,-0.1456l-0.13343,-0.1213l-0.625,-0.9375l-0.01479,-0.04144l-0.03045,-0.03177l-0.24181,-0.42316l-0.01664,-0.00951l-0.05005,-0.20021l-0.09923,-0.11577l-0.1875,-0.375l-0.01448,-0.06516l-0.0379,-0.05495l-0.15489,-0.41304l-0.2674,-0.48131l-0.01686,-0.06285l-0.03938,-0.05181l-0.17303,-0.40374l-0.04607,-0.09214l-0.0115,-0.05178l-0.03106,-0.043l-0.08781,-0.2195l-0.13596,-0.22661l-0.01427,-0.04689l-0.03189,-0.03721l-0.09019,-0.1804l-0.01318,-0.01976l-0.03748,-0.03748l-0.0859,-0.14317l-0.11552,-0.12054l-0.25,-0.4375l-0.00561,-0.01992l-0.01382,-0.01539l-0.5625,-1.0625l-0.00358,-0.0145l-0.00972,-0.01134l-0.29103,-0.58206l-0.34184,-0.56974l-0.40784,-0.64089l-0.47717,-0.65611l-0.02612,-0.06468l-0.04827,-0.05036l-0.25,-0.4375l-0.03371,-0.11985l-0.06684,-0.10504l-0.08586,-0.25758l-0.18859,-0.33004l-0.00961,-0.03419l-0.02311,-0.02696l-0.25,-0.5l-0.00816,-0.03669l-0.02274,-0.02993l-0.17303,-0.40374l-0.23357,-0.46714l-0.0115,-0.05178l-0.03106,-0.043l-0.25,-0.625l-0.01162,-0.08519l-0.04047,-0.07587l-0.10442,-0.4177l-0.09349,-0.23373l-0.00508,-0.03724l-0.02018,-0.03171l-0.0625,-0.1875l-0.00376,-0.04887l-0.02307,-0.04325l-0.125,-0.5v-0.15389l-0.03732,-0.14928v-0.25l0.15625,-0.625l0.29829,-0.17046l0.17046,-0.29829l0.625,-0.15625h2.1875l0.19493,0.04873l0.10683,0.00822l0.00336,-0.00224l0.0172,0.00382l0.05157,0.00397h0.00111l0.0005,0.00012l0.01979,0.00152l0.0411,0.0137l0.18861,0.04716h0.0625l0.625,0.15625l0.21615,0.37825l0.01951,0.01672l0.00107,0.0193l0.38827,0.67947l-0.28632,0.50105z" fill="#ff7b00"/><path d="M242.34375,167.425c-0.01111,0.19996 -0.23764,0.52145 -0.55471,0.8183l0.0377,0.2262l-0.00833,0.10414l0.02534,0.10136v0.00908l0.06086,0.09563l0.03169,0.09506l0.04134,0.04135l0.12688,0.21146l0.08299,0.04743l0.02533,0.10131l0.0148,0.0148l0.14777,0.24629l0.14267,0.22421l0.07567,0.10089l0.04409,0.10471l0.07394,0.08626l0.03366,0.06733l0.37711,0.5926l0.1587,0.21159l0.03358,0.07975l0.05911,0.06319l0.27104,0.48786l0.13627,0.18169l0.05819,0.1382l0.09074,0.11939l0.32539,0.75925l0.00171,0.00285l0.12134,0.13174l0.34845,0.63882l0.09424,0.14137l0.00635,0.01778l0.01358,0.0131l0.3125,0.5l0.01867,0.05755l0.03937,0.04593l0.19078,0.38156l0.16728,0.20909l0.0554,0.12088l0.08655,0.10097l0.09019,0.1804l0.20683,0.31025l0.02657,0.07439l0.0514,0.05997l0.09019,0.1804l0.20683,0.31025l0.02657,0.07439l0.0514,0.05997l0.21519,0.4304l0.33183,0.49775l0.05615,0.15723l0.08964,0.14086l0.01547,0.0464l0.23367,0.37388l0.01867,0.05755l0.03937,0.04593l0.02769,0.0554l0.33183,0.49775l0.02254,0.06311l0.27681,0.31635l0.00057,0.00011l0.00126,0.00198l0.09948,0.11369l0.11263,0.21962l0.13251,0.20823l0.01547,0.0464l0.22393,0.3583l0.11481,0.17221l0.00635,0.01778l0.01358,0.0131l0.3125,0.5l0.00533,0.01641l0.01209,0.01231l0.58954,1.00222l0.32133,0.42843l0.4878,0.60976l0.00835,0.01823l0.01556,0.01264l0.1342,0.17893l0.24968,0.24968l0.03621,0.06035l0.05599,0.04266l0.18062,0.22578l0.37001,0.32376l0.38732,0.27666l0.02715,0.03187l0.03786,0.01785l0.6875,0.5625l0.00346,0.00465l0.00522,0.00252l0.35039,0.29199l0.22438,0.16828l0.05674,0.06983l0.07715,0.04629l0.03748,0.03748l0.08452,0.05634l0.08375,0.09213l0.10675,0.06405l0.18718,0.18718l0.08876,0.06657l0.02418,0.0121l0.05644,0.04837l0.00955,0.00716l0.00274,0.00337l0.08384,0.07186l0.1723,0.10338l0.28748,0.28748l0.08452,0.05634l0.03721,0.04093l0.05029,0.02304l0.3125,0.25l0.02887,0.0379l0.12776,0.03194l0.04742,0.08299l0.21146,0.12688l0.01481,0.0148l0.10131,0.02533l0.02448,0.04286l0.04928,0.00274l0.03857,0.04499l0.13766,0.03442l0.17046,0.29829l0.29829,0.17046l0.11962,0.47848l0.0219,0.02447l-0.00371,0.04826l0.01845,0.07379v0.125l-0.04874,0.19494l-0.01541,0.20035l-0.0625,0.1875l-0.08964,0.14086l-0.05615,0.15723l-0.08183,0.12275l-0.02032,0.04063l0.00132,0.01911l-0.21752,0.23927l-0.21045,0.24552l-0.01913,0.00106l-0.04082,0.02721l-0.19005,0.22172l-0.01913,0.00106l-0.04082,0.02721l-0.19005,0.22172l-0.01913,0.00106l-0.07078,0.04719l-0.13883,0.13882l-0.03253,0.07727l-0.16669,0.22224l-0.10575,0.15864l-0.02628,0.02389l-0.01378,0.03274l-0.13856,0.18475l-0.00078,0.01402l-0.02726,0.02337l-0.02089,0.02786l-0.21617,0.17563l-0.08745,0.14575l-0.5625,0.5625l-0.09027,0.05416l-0.00355,0.00534l-0.1816,0.16509l-0.16509,0.1816l-0.05455,0.03637l-0.19005,0.22172l-0.04411,0.00245l-0.01168,0.01169l-0.01798,0.03146l-0.01798,0.00449l-0.03564,0.03564l-0.05445,0.03268l-0.00566,0.0066l-0.00589,0.00033l-0.1063,0.06378l-0.15257,0.13076l-0.05205,0.02603l-0.00697,0.01219l-0.03483,0.0087l-0.03116,0.01558l-0.07075,0.01573l-0.0318,0.01908l-0.02428,-0.00662l-0.15354,0.03412l-0.27864,0.06966h-0.03483l-0.03505,0.00779l-0.01168,-0.00779h-0.08688l-0.01168,0.00779l-0.03504,-0.00779h-0.03483l-0.27864,-0.06966l-0.28038,-0.06231l-0.03115,-0.01558l-0.03483,-0.0087l-0.00697,-0.01219l-0.30205,-0.15103l-0.13381,-0.11469l-0.01496,-0.00499l-0.15753,-0.10025l-0.17373,-0.06844l-0.35769,-0.25549l-0.16228,-0.08114l-0.15256,-0.13076l-0.1723,-0.10339l-0.06218,-0.06218l-0.15117,-0.11338l-0.34613,-0.23075l-0.11558,-0.12714l-0.14012,-0.09944l-0.3166,-0.36936l-0.38605,-0.3378l-0.38733,-0.27666l-0.09449,-0.11093l-0.11968,-0.08311l-0.3942,-0.45051l-0.01144,-0.00981l-0.22706,-0.19009l-0.00874,-0.01202l-0.0285,-0.02443l-0.00089,-0.01598l-0.45647,-0.62765l-0.36948,-0.49265l-0.01379,-0.03274l-0.02628,-0.02389l-0.10575,-0.15864l-0.14747,-0.19662l-0.292,-0.35039l-0.06318,-0.13088l-0.09457,-0.11034l-0.25,-0.5l-0.0115,-0.05178l-0.03106,-0.043l-0.10569,-0.26423l-0.36384,-0.72768l-0.11987,-0.15983l-0.06402,-0.15203l-0.09658,-0.13373l-0.25,-0.625l-0.02661,-0.1951l-0.17071,-0.45523l-0.0027,-0.02359l-0.01274,-0.02003l-0.125,-0.375l-0.00881,-0.11453l-0.04837,-0.09674l-0.03622,-0.16299l-0.07147,-0.15088l-0.0625,-0.3125l0.00592,-0.12437l-0.03019,-0.12078v-0.28362l-0.02518,-0.10071v-0.05844l-0.05638,-0.11276l-0.01219,-0.00697l-0.00871,-0.03483l-0.01557,-0.03115l-0.05249,-0.2362l-0.09024,-0.15039l-0.08299,-0.04742l-0.03895,-0.15582l-0.08264,-0.13772l0.02515,-0.09222l-0.05981,-0.23924v-0.12623l-0.03823,-0.19112l0.00592,-0.12437l-0.03019,-0.12078v-0.1875l0.02475,-0.09901l-0.02475,-0.05724l0.09616,-0.22836l0.06009,-0.24039l0.05415,-0.03095l0.0396,-0.09405l0.09982,-0.1331v-0.04507l0.02518,-0.10072v-0.11766l-0.04549,-0.27295l0.00494,-0.0618l-0.04666,-0.13996l-0.00654,-0.00374l-0.00871,-0.03483l-0.01557,-0.03115l-0.06231,-0.28038l-0.06966,-0.27864v-0.03483l-0.00779,-0.03505l0.00432,-0.00648l-0.05903,-0.23614v-0.03483l-0.00779,-0.03505l0.00779,-0.01168v-0.16956l-0.0035,-0.04553l-0.02775,-0.01586l-0.00467,-0.01867l-0.2106,0.0117l-0.043,-0.0645l-0.09676,-0.00537l-0.14062,-0.16406l-0.03212,-0.01606l-0.07748,-0.06642l-0.06227,-0.00346l-0.15937,-0.18594l-0.02813,-0.00156l-0.07471,-0.08717l-0.08717,-0.07471l-0.00156,-0.02812l-0.18594,-0.15938l-0.00346,-0.06226l-0.06642,-0.07749l-0.02769,-0.0554l-0.01318,-0.01976l-0.03748,-0.03748l-0.33146,-0.55242l0.01298,-0.04762l-0.03291,-0.03679l0.01743,-0.22659l-0.00973,-0.01459l-0.05615,-0.15723l-0.08964,-0.14086l-0.00044,-0.00131l-0.01009,-0.0101l-0.12688,-0.21146l-0.08299,-0.04742l-0.01453,-0.05812l-0.06488,-0.05561l-0.00274,-0.04928l-0.04286,-0.02448l-0.03442,-0.13766l-0.04499,-0.03857l-0.00274,-0.04928l-0.04286,-0.02448l-0.15625,-0.625v-0.00909l-0.06086,-0.09563l-0.01101,-0.03304l-0.01847,-0.03079l0.00369,-0.01354l-0.06466,-0.194l-0.0082,-0.00231l-0.1461,-0.27393l-0.15973,-0.26622l0.006,-0.02202l-0.00334,-0.00627l-0.04523,-0.18093l-0.1625,-0.43334l-0.00073,-0.00639l-0.0036,-0.00534l-0.24786,-0.68162l-0.18054,-0.48143l-0.11995,-0.29989l-0.01836,-0.13464l-0.0193,-0.03217l-0.08299,-0.04742l-0.03895,-0.15582l-0.08264,-0.13772l0.02379,-0.08724l-0.04546,-0.1273l-0.10067,-0.18875l-0.02922,-0.11688l-0.00114,-0.00227l-0.00454,-0.02044l-0.0276,-0.11041v-0.00781l-0.0625,-0.11719l-0.00999,-0.03995l-0.0049,-0.00735l-0.01692,-0.04736l-0.03677,-0.02101l-0.06829,-0.27317l-0.09471,-0.26516l0.01894,-0.03788l-0.01219,-0.04879v-0.03362l-0.02518,-0.10071v-0.10182l-0.03567,-0.05606l-0.03441,-0.10323l-0.02277,-0.04554l-0.01952,-0.08783l-0.0483,-0.0759l-0.0625,-0.1875l-0.01541,-0.20035l-0.04873,-0.19494v-0.125l0.01845,-0.07379l-0.00371,-0.04826l0.0219,-0.02447l0.11962,-0.47848l0.63122,-0.3607l0.06724,-0.07515l0.04762,0.00952l0.34767,-0.19867l0.54766,0.31295c0.22042,-0.19476 0.51008,-0.31295 0.82734,-0.31295c0.11852,0 0.23318,0.01649 0.34183,0.04731c0.8134,-0.31957 1.60559,-0.22586 1.53318,1.07769z" fill="#ffd200"/><path d="M246.57598,191.675c0.36675,-0.07445 -0.52686,-0.53508 -0.7494,-0.83595c-0.56737,-0.76709 -1.144,-1.47337 -1.53836,-2.35503c-0.55775,-1.24696 -3.04753,-9.68402 -0.44447,-9.68402c1.59014,0 2.08588,7.24571 2.72026,8.64543c0.77985,1.72072 6.23391,4.66133 5.12349,6.60457c-0.66234,1.15911 -8.16061,0.13147 -8.49324,-0.07411c-0.11832,-0.07313 -0.32292,-0.27065 -0.4219,-0.41701c-0.05335,-0.05335 -0.1019,-0.1115 -0.14495,-0.17375c-0.00736,-0.00817 -0.0147,-0.01637 -0.02199,-0.02457c-1.31447,-1.1167 -2.31239,-4.50334 -2.66061,-5.38066c-2.33336,-5.87878 -7.52634,-12.5793 -7.66357,-19.1174c-0.05931,-2.8262 4.9511,-4.47619 6.07191,-2.51477c0.36843,0.21744 0.61559,0.61849 0.61559,1.07727c0,0.69036 -0.55964,1.25 -1.25,1.25c-0.40017,0 -0.75643,-0.18805 -0.98522,-0.48059c-0.73444,0.03669 -1.47163,0.09081 -1.95228,0.52738c-0.49491,0.44953 0.9536,3.18575 1.13437,3.5601c1.50779,3.12253 2.7245,6.63652 4.07813,9.82775c0.25303,0.59653 3.24857,6.19825 4.05392,9.37788c0.22421,0.07387 0.42039,0.20946 0.56841,0.38667c0.65983,-0.06115 1.34439,-0.07422 1.95991,-0.19917z" fill="#00ff1f"/><path d="M236.28125,167.05c0.42038,0.05155 0.67535,0.20267 0.81851,0.42148c0.0406,-0.20995 0.1129,-0.36444 0.22922,-0.4309l1.07727,-0.61558c0.79629,0.45502 1.08485,0.99341 1.20208,1.59396c0.15865,0.81268 0.00356,1.73917 0.36834,2.72695c0.93311,2.52676 3.17938,4.24544 4.02768,6.71486c0.34934,1.01693 0.82348,3.40174 -0.9106,3.40174c-0.41991,0 -0.79683,-0.32808 -1.09375,-0.625c-0.27785,-0.27785 -0.37344,-2.03884 -0.62781,-2.52304c-1.23929,-2.359 -3.6675,-4.31448 -4.02844,-7.16446c-0.0371,-0.29295 -0.1473,-0.90148 -0.21985,-1.53298c-0.01975,0.08583 -0.0407,0.17244 -0.06211,0.25939c-0.17576,0.71396 -0.38204,1.45045 -0.20534,1.96333c0.37195,1.07961 3.87662,6.51312 1.30718,6.69306c-1.80047,0.12609 -6.51666,-9.76269 -2.21274,-10.83867z" fill="#00ff1f"/><path d="" fill="#00ff1f"/><path d="M242.36726,182.60669c1.68472,2.92986 4.52587,8.51341 4.48428,8.63818c-0.37268,1.11803 -0.83853,1.35096 -1.95656,0.97828c-1.59005,-0.53001 -3.82474,-6.5099 -4.40368,-8.08299c-0.08273,-0.22477 -0.35618,-0.84217 -0.50253,-1.43296c-0.38952,0.02892 -0.72915,-0.02319 -0.90443,-0.32994c-0.36843,-0.21744 -0.61558,-0.61849 -0.61558,-1.07727c0,-0.09836 0.01136,-0.19406 0.03284,-0.28588c-1.19238,-0.35386 -2.17544,-0.90287 -2.20705,-1.47191c-0.12702,-0.19565 -0.20078,-0.42907 -0.20078,-0.67972c0,-0.69036 0.55964,-1.25 1.25,-1.25c0.428,0 0.80575,0.2151 1.03106,0.54309c2.02856,0.06537 4.43709,1.22071 4.44255,2.31571c1.0709,0.72584 1.38466,1.8582 -0.49589,2.05591c0.01516,0.02626 0.03044,0.05276 0.04579,0.07948z" fill="#00ff1f"/><path d="M236.16322,168.55348c2.12776,-4.25551 3.6618,4.91227 4.06441,5.55014c0.05864,0.05864 0.11147,0.12307 0.15758,0.19237c0.09112,0.10187 0.17729,0.20548 0.17698,0.31928c0.4608,0.16477 0.78156,0.56958 0.78156,1.30974c0,0.81036 -2.15965,1.94794 -2.83592,1.49709l-1.16408,-1.24709c0.09755,-0.33024 0.35661,-0.65057 0.69888,-0.91967c-1.64624,-1.31991 -2.60744,-5.2458 -1.87941,-6.70185z" fill="#00ff1f"/><path d="M241.59375,183.36249c0,-0.69036 0.55964,-1.25 1.25,-1.25c0.69036,0 1.25,0.55964 1.25,1.25c0,0.69036 -0.55964,1.25 -1.25,1.25c-0.69036,0 -1.25,-0.55964 -1.25,-1.25z" fill="#00ff1f"/><path d="M238.15625,177.79999c0.69036,0 1.25,0.55964 1.25,1.25c0,0.66076 -0.51268,1.20177 -1.16196,1.24695c-0.12574,0.04251 -0.26045,0.06555 -0.40054,0.06555c-0.69036,0 -1.25,-0.55964 -1.25,-1.25c0,-0.66076 0.51268,-1.20177 1.16196,-1.24695c0.12574,-0.04251 0.26045,-0.06555 0.40054,-0.06555z" fill="#00ff1f"/><path d="M233.84375,166.61249c0,0.45878 -0.24716,0.85983 -0.61558,1.07727l-0.00942,0.01648l-0.03578,0.00895c-0.09807,0.05251 -0.20397,0.09233 -0.31548,0.11724l0.03877,0.15506l0,0.03362l0.0046,0.01841l0.09349,0.23373l0.03199,0.23457l0.03338,0.13352l0.05766,0.13693l0.11656,0.21855l0.01739,0.06955l0.0918,0.153l0.02504,0.08226l0.05203,0.06846l0.1875,0.4375l0.02082,0.12909l0.05597,0.11817l0.08522,0.42609l0.14936,0.26138l0.04652,0.1654l0.08086,0.1516l0.10442,0.4177l0.09349,0.23373l0.01384,0.10147l0.0458,0.0916l0.125,0.5625l-0.00036,0.01366l0.00585,0.01235l0.10641,0.53205l0.19304,0.53087l0.28036,0.56071l0.01952,0.08783l0.0483,0.0759l0.23838,0.71515l0.11136,0.27839l0.01162,0.0852l0.04046,0.07587l0.00052,0.00209l0.01292,0.00477l0.01497,0.03442l0.00892,0.01189l0.11492,0.27293l0.11808,0.27157l0.00244,0.01466l0.01456,0.03459l-0.00635,0.01469l0.04853,0.29118l0.04701,0.23505l0.17059,0.56865l0.00061,0.01317l0.0065,0.01146l0.3125,1.125l0.00122,0.04696l0.02011,0.04245l0.05258,0.26289l0.1111,0.38885l0.00449,0.13474l0.10446,0.31337l0.00214,0.02776l0.01392,0.02412l0.125,0.4375l0.00288,0.08649l0.03265,0.08014l0.04656,0.32592l0.08936,0.26807l0.00606,0.07876l0.03381,0.07138l0.02967,0.14835l0.05014,0.10028l0.04051,0.18228l0.07445,0.17124l0.04029,0.24172l0.19416,0.48539l0.16703,0.38973l0.57377,1.14754l0.05174,0.07761l0.21611,0.27014l0.04105,0.08956l0.06817,0.07113l0.25,0.4375l0.00962,0.03419l0.02311,0.02697l0.13709,0.27419l0.11987,0.15983l0.0396,0.09406l0.05415,0.03094l0.0601,0.24038l0.09615,0.22837l-0.00842,0.01947l0.04402,0.11004l0.00879,0.06447l0.03252,0.05636l0.07139,0.24988l0.14176,0.21264l0.08169,0.22873l0.10397,0.2195l0.02967,0.14835l0.11264,0.22528l0.02986,0.13438l0.06478,0.12147l0.04412,0.17647l0.04881,0.09152l0.15973,0.26622l-0.006,0.02202l0.00334,0.00627l0.04749,0.18995l0.0299,0.04485l0.02657,0.07439l0.0514,0.05997l0.125,0.25l0.01151,0.05178l0.03106,0.043l0.125,0.3125l0.01162,0.0852l0.04046,0.07587l0.09172,0.36688l0.00114,0.00227l0.00454,0.02044l0.0083,0.03318l0.02972,0.04116l0.07666,0.19166l0.10915,0.16372l0.03748,0.03748l0.06406,0.10676l0.09212,0.08375l0.04392,0.06587l0.006,0.0012l0.01927,0.03029l0.02463,0.02463l0.14777,0.24629l0.1542,0.24231l0.00956,0.02869l0.03214,0.04822l0.04398,0.12314l0.07656,0.106l0.0878,0.2195l0.13597,0.22661l0.06228,0.20465l0.09158,0.19333l0.02967,0.14835l0.05014,0.10028l0.13975,0.62889l-0.15409,0.23113l0.01433,0.25801l-0.33541,0.22361l-0.22361,0.33541l-0.25801,-0.01433l-0.23113,0.15409l-0.48425,-0.10761h-0.0138l-0.11041,-0.0276l-0.02044,-0.00454l-0.00227,-0.00114l-0.36688,-0.09172l-0.12147,-0.06478l-0.10304,-0.0229h-0.03483l-0.00689,-0.00172l-0.0199,0.01117l-0.29701,-0.09039l-0.30119,-0.0753l-0.01132,-0.01982l-0.0068,-0.00207l-0.153,-0.0918l-0.04069,-0.01017l-0.28333,-0.05667l-0.02755,-0.01305h-0.03048l-0.25,-0.0625l-0.12147,-0.06478l-0.13438,-0.02986l-0.17054,-0.08527l-0.44531,-0.14844l-0.65403,-0.17837l-0.13199,-0.07404l-0.14617,-0.03922l-0.5625,-0.3125l-0.02408,-0.02253l-0.03137,-0.01017l-0.5,-0.3125l-0.05125,-0.05315l-0.06712,-0.03076l-0.3125,-0.25l-0.04266,-0.05599l-0.06036,-0.03621l-0.16248,-0.16248l-0.08451,-0.05634l-0.08375,-0.09212l-0.10676,-0.06406l-0.3125,-0.3125l-0.10338,-0.1723l-0.13077,-0.15256l-0.10353,-0.20706l-0.1628,-0.27134l-0.01427,-0.04689l-0.0319,-0.03721l-0.0625,-0.125l-0.01952,-0.08783l-0.00475,-0.00747l-0.14628,-0.18286l-0.04105,-0.08956l-0.06817,-0.07113l-0.25,-0.4375l-0.01967,-0.06993l-0.04396,-0.05784l-0.1875,-0.4375l-0.0047,-0.02917l-0.01678,-0.02432l-0.1875,-0.5l-0.0027,-0.02359l-0.01275,-0.02003l-0.07206,-0.21619l-0.15714,-0.23572l-0.06511,-0.1823l-0.09673,-0.16767l-0.11118,-0.38911l-0.14679,-0.39145l-0.49668,-0.99337l-0.01219,-0.00697l-0.00871,-0.03483l-0.01558,-0.03115l-0.06231,-0.28038l-0.03781,-0.15122l-0.26104,-0.6787l-0.00589,-0.04798l-0.02471,-0.04155l-0.18206,-0.60686l-0.49401,-1.48204l-0.00149,-0.01939l-0.00994,-0.01671l-0.18206,-0.60686l-0.43151,-1.29454l-0.00606,-0.07876l-0.03381,-0.07138l-0.10974,-0.54869l-0.16289,-0.48867l-0.00272,-0.03541l-0.01738,-0.03098l-0.17837,-0.65403l-0.03709,-0.11126l-0.29493,-0.70784l-0.01858,-0.12311l-0.0533,-0.11252l-0.09782,-0.48911l-0.19372,-0.43586l-0.01388,-0.0793l-0.04114,-0.06919l-0.1715,-0.57166l-0.22932,-0.57329l-0.00982,-0.07198l-0.03554,-0.06336l-0.15493,-0.56809l-0.19465,-0.38929l-0.01584,-0.0713l-0.04086,-0.06054l-0.25,-0.6875l-0.0018,-0.01726l-0.00931,-0.01464l-0.02576,-0.07729l-0.25608,-0.46094l-0.05893,-0.21966l-0.08581,-0.21062l-0.03381,-0.23669l-0.15928,-0.31857l-0.01952,-0.08783l-0.0483,-0.0759l-0.375,-1.125l-0.00871,-0.11329l-0.04287,-0.10522l-0.06044,-0.42311l-0.06011,-0.36066l0.00833,-0.10414l-0.02534,-0.10136v-0.375l0.03732,-0.14929v-0.15388l0.02518,-0.10071v-0.03362l0.15625,-0.625l0.1264,-0.07223l0.02855,-0.14275l0.24349,-0.15495l0.00651,-0.03255l0.1355,-0.08623l0.10453,-0.12195l0.09544,-0.0053l0.20805,-0.1324l0.0141,-0.0047l0.00489,-0.02443l0.04075,-0.02593l0.02305,-0.04034l0.06644,-0.01661l0.06977,-0.0444l0.17542,-0.15947l0.06783,0.00468l0.10025,-0.0638l0.01496,-0.00499l0.06509,-0.05579l0.00274,-0.00337l0.00955,-0.00716l0.05644,-0.04837l0.02419,-0.01209l0.15983,-0.11987l0.06048,-0.02546l0.0464,-0.0464l0.3125,-0.1875l0.1317,-0.04008l0.11614,-0.07391l0.1875,-0.0625l0.20035,-0.01541l0.19494,-0.04873l0.06373,0l0.19113,-0.03823l0.12436,0.00592l0.12078,-0.0302h0.09612l0.10071,-0.02518l0.15388,0l0.14929,-0.03732h0.07992l0.03812,-0.01906l0.00697,-0.01219l0.03483,-0.00871l0.03115,-0.01558l0.28038,-0.06231l0.27864,-0.06966h0.03483l0.03505,-0.00779l0.01168,0.00779h0.35705l0.17895,-0.01377l0.19494,-0.04873h0.4375c0.21306,0 0.41367,0.0533 0.58922,0.1473l0.03578,0.00895l0.00942,0.01648c0.36843,0.21744 0.61558,0.61849 0.61558,1.07727z" fill="#0062ff"/><path d="M223.71875,172.11249c0.45878,0 0.85983,0.24716 1.07727,0.61558l0.01648,0.00942l0.00895,0.03578c0.094,0.17555 0.1473,0.37616 0.1473,0.58922l0,0.10965l0.18239,0.54716l0.37135,1.05216l0.00202,0.02134l0.01122,0.01827l0.375,1.1875l0.0042,0.06889l0.02955,0.06238l0.10394,0.51971l0.03257,0.04826l0.25,0.6875l0.0038,0.03647l0.01874,0.03152l0.1875,0.625l0.00491,0.10558l0.03815,0.09856l0.05148,0.41185l0.16413,0.6018l0.00065,0.03047l0.01363,0.02726l0.12143,0.54645l0.12101,0.48405v0.12094l0.15536,0.31071l0.02986,0.13438l0.06478,0.12147l0.09172,0.36688l0.00114,0.00227l0.00454,0.02044l0.01806,0.07223l0.04522,0.07106l0.1875,0.5625l0.00376,0.04887l0.02306,0.04325l0.09172,0.36688l0.12614,0.25227l0.00954,0.04295l0.02627,0.0353l0.3125,0.75l0.03663,0.24267l0.05952,0.2381v0.03362l0.00243,0.00971l0.27642,0.66341l0.0317,0.21l0.00031,0.00049l0.11338,0.34015l0.21705,0.54262l0.3396,0.6792l0.29931,0.53876l0.00722,0.02689l0.01812,0.02114l0.375,0.75l0.00799,0.03594l0.04528,0.05943l-0.01327,0.08461l0.09976,0.44891l-0.22254,0.3338l-0.05917,0.37719l-0.26123,0.1034l-0.15584,0.23376l-0.38121,-0.02118l-0.37302,0.14765l-0.41804,-0.1916l-0.08551,-0.00475l-0.04863,-0.05673l-0.03347,-0.01534l-0.3125,-0.25l-0.02887,-0.0379l-0.12776,-0.03194l-0.00951,-0.01664l-0.42317,-0.24181l-0.04648,-0.04454l-0.0599,-0.0236l-0.4375,-0.3125l-0.06775,-0.07953l-0.08959,-0.05375l-0.16907,-0.16907l-0.31857,-0.15928l-0.05997,-0.0514l-0.07439,-0.02657l-0.1875,-0.125l-0.16509,-0.1816l-0.1816,-0.16509l-0.10575,-0.15863l-0.05954,-0.07939l-0.10714,-0.08036l-0.15173,-0.18674l-0.17014,-0.17014l-0.10833,-0.18055l-0.14119,-0.14119l-0.03621,-0.06036l-0.05599,-0.04266l-0.25,-0.3125l-0.09166,-0.19999l-0.11811,-0.1856l-0.01911,-0.05733l-0.07365,-0.12274l-0.19748,-0.24685l-0.02305,-0.05028l-0.04093,-0.03721l-0.125,-0.1875l-0.02657,-0.07439l-0.0514,-0.05997l-0.4375,-0.875l-0.00631,-0.02841l-0.01792,-0.02293l-0.19662,-0.44239l-0.00487,-0.00278l-0.00467,-0.01867l-0.04385,-0.09865l-0.04476,-0.25577l-0.04043,-0.16173l-0.07808,-0.15615l-0.01952,-0.08783l-0.0483,-0.0759l-0.0625,-0.1875l-0.01272,-0.16542l-0.1552,-0.51734l-0.01425,-0.0285l-0.01629,-0.0733l-0.00046,-0.00154l-0.00003,-0.00068l-0.02913,-0.13109l-0.0764,-0.19737l-0.0597,-0.47757l-0.0053,-0.02383l-0.06966,-0.27864l0,-0.03483l-0.00779,-0.03505l0.00779,-0.01168l0,-0.01711l-0.04947,-0.34626l-0.00587,-0.02643l-0.06966,-0.27864v-0.03483l-0.00779,-0.03505l0.00779,-0.01168v-0.59062l-0.05285,-0.42278l0.0095,-0.07841l-0.01916,-0.07663l0,-0.58405l-0.04218,-0.25307l-0.05855,-0.29274l0.00592,-0.12436l-0.0302,-0.12078l0,-0.14655l-0.04549,-0.27295l0.00833,-0.10414l-0.02534,-0.10136v-2l0.04873,-0.19494l0.01377,-0.17895l0,-0.41955l-0.00779,-0.01168l0.00779,-0.03505v-0.03483l0.06966,-0.27864l0.03016,-0.13573v-0.0138l0.0276,-0.11041l0.00454,-0.02044l0.00114,-0.00227l0.02922,-0.11688l0.06478,-0.12147l0.02986,-0.13438l0.1875,-0.375l0.06642,-0.07749l0.00346,-0.06227l0.18813,-0.16125l0.16125,-0.18813l0.06227,-0.00346l0.07749,-0.06642l0.125,-0.0625l0.62889,-0.13975l0.2051,0.13673c0.033,-0.00261 0.06636,-0.00394 0.10002,-0.00394z" fill="#ab00ff"/></g></g></svg>