<svg version="1.1" xmlns="http://www.w3.org/2000/svg" xmlns:xlink="http://www.w3.org/1999/xlink" width="35.32179" height="40.68264" viewBox="0,0,35.32179,40.68264"><g transform="translate(-222.3391,-160.86701)"><g data-paper-data="{&quot;isPaintingLayer&quot;:true}" fill-rule="nonzero" stroke="none" stroke-width="0.5" stroke-linecap="butt" stroke-linejoin="miter" stroke-miterlimit="10" stroke-dasharray="" stroke-dashoffset="0" style="mix-blend-mode: normal"><path d="M239.73297,191.55932l0.0163,0.03008l0.01013,0.00614zM239.63387,191.42209h-0.02212l0.07187,0.07737zM242.09567,187.04207l0.06996,-0.03012l0.05824,-0.12539v-1.94242l-0.04709,-0.40556l-0.01549,-0.05558l-0.07208,-0.24389l-0.31115,-0.66994l-0.04566,-0.06256l-0.17202,-0.15595l-0.04423,-0.07143h-1.15349l-0.63654,0.22842l-0.40122,0.24682l-0.0668,0.00479l-0.0613,0.05738l-0.11882,0.04264l-0.02438,0.03937l-0.26737,0.46054l-0.07228,0.15562l-0.03691,0.11922l0.00776,0.08348l-0.0055,0.24872l0.02805,0.24157v0.16071l0.09295,0.05003l0.26044,0.12461l0.02894,0.03115l0.03235,0.01742l0.00543,0.02045l0.11294,0.08106l0.02946,0.04036l0.0346,0.01016l0.30007,0.25843l0.36573,0.26248l0.12021,0.1647c0.06913,0.01132 0.13656,0.03567 0.20178,0.07192l0.01682,-0.00988l0.0291,0.0376c0.07345,0.04789 0.14383,0.11102 0.21033,0.18769l0.03324,0.01789l0.00875,0.03296c0.06928,0.08803 0.13394,0.19111 0.19301,0.30715l0.11336,0.09763l0.13851,0.21539l0.07935,0.00949l0.00991,0.02489h0.45871l0.05028,-0.02706l0.25858,-0.2227l0.10643,-0.03125zM247.89526,183.52843l-0.05965,0.51371l-0.03838,0.41321v2.16228l0.14282,0.61499l0.02358,0.22849l0.05433,0.20274l0.1327,1l0.0054,0.34851l0.03928,0.33829v0.71429l-0.05334,0.45934l-0.02971,0.46914l-0.1327,0.71429l-0.10679,0.31835l-0.07929,0.35364l-0.28107,0.72621l-0.95116,3.27668l-0.52527,1.83779l-0.39474,1.41653l-0.14555,0.31339l-0.12475,0.35254l-0.33175,0.57143l-0.00026,0.00025l-0.00668,0.03631l-0.27103,0.23774l-0.26604,0.26254l-0.01687,-0.01438l-0.00026,0.00023l-0.46445,0.14286l-0.14649,-0.03263l-0.14594,0.04246l-0.59714,-0.14286l-0.02563,-0.0205l-0.02724,0.0052l-1.26065,-0.42857l-0.01578,-0.01443l-0.01711,0.0022l-1.06159,-0.42857l-0.06307,-0.06233l-0.06928,-0.00865l-1.05526,-0.71002l-1.32064,-0.85304l-0.03142,-0.04022l-0.03634,-0.00848l-1.26065,-1l-0.00286,-0.00419l-0.00343,-0.00085l-1.06159,-0.85714l-0.1228,-0.18235l-0.1391,-0.11605l-1.09272,-1.66074l-0.29477,-0.3808l-0.15804,-0.34028l-0.17346,-0.30346l-0.7962,-2.28571l-0.03119,-0.15951l-0.05491,-0.12639l-0.33175,-1.28571l-0.02817,-0.22607l-0.05836,-0.19747l-0.3981,-2.57143l-0.01431,-0.40069l-0.04527,-0.38988v-2.42857l0.03467,-0.29857v-0.30776l0.1327,-1.14286l0.02142,-0.08649l0.00349,-0.09774l0.1327,-0.85714l0.06209,-0.21007l0.03131,-0.2397l0.2654,-1l0.06332,-0.14226l0.03813,-0.17913l0.2654,-0.71429l0.09379,-0.15385l0.06956,-0.20496l0.3981,-0.71429l0.03979,-0.04136l0.02865,-0.07242l0.46445,-0.71429l0.1226,-0.10398l0.10571,-0.16937l0.78364,-0.70302l0.58472,-0.55953l0.17593,-0.06629l0.16742,-0.13389l0.59714,-0.14286l0.0648,0.01885l0.06343,-0.03414h1.92414l0.03597,0.01936l0.03646,-0.01449l1.06159,0.14286l0.08341,0.05701l0.08746,-0.00638l0.86044,0.39699l0.60768,0.11894h0.80988l0.0572,0.03079l0.05834,-0.01838l0.6635,0.14286l0.07058,0.05455l0.07498,-0.00294l0.86254,0.42857l0.02341,0.02571l0.02627,0.00147l1.19429,0.71429l0.09824,0.11997l0.11026,0.05275l0.6203,0.66778l0.28691,0.24709l0.03994,0.06211l0.0481,0.02301l0.1327,0.14286l0.02139,0.03948l0.45105,0.05395l0.0322,-0.02311l0.01535,0.02879l0.33967,0.04063l0.38945,0.97828l0.06635,0.28571l0.02395,0.232l0.04762,0.08931l0.01047,0.47362l0.04777,0.46286l-0.03503,0.11314l0.00525,0.23739l-0.06635,0.71429l-0.06639,0.30178l-0.03364,0.32597l-0.05462,0.2352l-0.03765,0.48634l-0.01887,0.09345z" fill="#b37046"/><path d="M237.97748,184.29221c0.0692,-0.50438 0.17496,-0.93463 0.30909,-1.2967c0.9569,-2.58308 3.35783,-1.6966 4.22987,0.49584c0.35445,0.89115 0.37271,4.32019 -0.49442,3.94679c-1.15142,-0.49582 -0.32434,-2.846 -1.57994,-2.82677c-0.39119,0.00599 -1.56165,1.57826 -1.77439,1.2729z" fill="#985933"/><path d="M247.03421,186.85066c0.66975,0.82402 1.01007,1.94008 1.11702,3.18478c0.31314,3.64424 -1.37411,8.39119 -2.65055,10.14012c-2.36071,3.23453 -6.44566,-0.30472 -8.87971,-2.24339c-0.94405,-0.75192 -4.92386,-3.23766 -3.08058,-7.20642c0.66912,-1.44067 1.12803,-0.75504 1.64207,0c1.20535,1.77044 3.82825,5.09674 5.41583,5.12491c0.17748,0.00315 2.60345,0.2428 3.54141,-0.14286c0.07886,-0.03242 1.72383,-3.85753 1.73338,-4.04815c0.05974,-1.19123 -0.32271,-2.98337 0.16045,-3.57783z" fill="#985933"/><path d="M247.35155,178.96864c0.07389,0.18561 0.14177,0.36573 0.20284,0.54107c0.23086,0.45693 0.37554,1.11257 0.37554,1.84096c0,1.38071 -0.51985,2.5 -1.16112,2.5c-0.12241,0 -0.2404,-0.04079 -0.3512,-0.11639c-0.09993,-0.06819 -0.194,-0.16471 -0.28019,-0.28518c-0.81882,-0.50925 -1.8996,-1.5292 -2.72852,-2.30317c-1.99417,-1.86199 -4.84136,-2.58792 -7.03718,-2.29526c-2.06327,0.27499 -1.94174,7.21846 -2.38766,8.17857c-0.81434,1.75336 -2.07756,1.46869 -2.1771,-1.25c-0.16132,-4.40624 1.74932,-11.60325 4.0805,-11.92857c3.14792,-0.4393 5.88438,1.3631 8.71274,3.04147c0.92498,0.54889 1.95828,0.71271 2.69351,2.06959z" fill="#d3a689"/><path d="M240.88739,186.8864c0.57617,0.03791 1.485,-0.68494 1.83146,0.80697c0.37887,1.63149 -0.38564,2.83151 -1.0087,2.87363c-0.81082,0.05482 -3.00884,-0.25582 -3.51081,-2.14718c-0.25192,-0.32012 -0.42092,-0.91057 -0.42092,-1.586c0,-1.01637 0.38267,-1.8403 0.85472,-1.8403c0.17928,0 0.34566,0.11884 0.48309,0.32192c0.49655,0.44705 1.03762,1.5227 1.77116,1.57096z" fill="#d3a689"/><path d="M239.42506,178.64265l0.03509,0.03008l0.02182,0.00614zM239.21168,178.50542h-0.04762l0.15475,0.07737zM244.51217,174.1254l0.15062,-0.03012l0.12539,-0.12539v-1.94242l-0.10139,-0.40556l-0.03335,-0.05558l-0.1552,-0.24389l-0.66994,-0.66994l-0.09831,-0.06256l-0.37038,-0.15595l-0.09524,-0.07143h-2.48357l-1.37053,0.22842l-0.86386,0.24682l-0.14383,0.00479l-0.13198,0.05738l-0.25583,0.04264l-0.0525,0.03937l-0.57567,0.46054l-0.15562,0.15562l-0.07948,0.11922l0.0167,0.08348l-0.01184,0.24872l0.06039,0.24157v0.16071l0.20014,0.05003l0.56075,0.12461l0.06231,0.03115l0.06966,0.01742l0.01169,0.02045l0.24317,0.08106l0.06342,0.04036l0.07449,0.01016l0.64607,0.25843l0.78745,0.26248l0.25882,0.1647c0.14884,0.01132 0.29403,0.03567 0.43445,0.07192l0.03622,-0.00988l0.06266,0.0376c0.15815,0.04789 0.30967,0.11102 0.45286,0.18769l0.07157,0.01789l0.01883,0.03296c0.14916,0.08803 0.28838,0.19111 0.41557,0.30715l0.24407,0.09763l0.29823,0.21539l0.17084,0.00949l0.02133,0.02489h0.98765l0.10825,-0.02706l0.55675,-0.2227l0.22916,-0.03125zM256.99924,170.61176l-0.12843,0.51371l-0.08264,0.41321v2.16228l0.3075,0.61499l0.05078,0.22849l0.11697,0.20274l0.28571,1l0.01162,0.34851l0.08457,0.33829v0.71429l-0.11484,0.45934l-0.06397,0.46914l-0.28571,0.71429l-0.22992,0.31835l-0.17072,0.35364l-0.60517,0.72621l-2.04793,3.27668l-1.13095,1.83779l-0.84992,1.41653l-0.31339,0.31339l-0.2686,0.35254l-0.71429,0.57143l-0.00055,0.00025l-0.01439,0.03631l-0.58355,0.23774l-0.57282,0.26254l-0.03632,-0.01438l-0.00056,0.00023l-1,0.14286l-0.3154,-0.03263l-0.31423,0.04246l-1.28571,-0.14286l-0.05519,-0.0205l-0.05864,0.0052l-2.71429,-0.42857l-0.03397,-0.01443l-0.03684,0.0022l-2.28571,-0.42857l-0.1358,-0.06233l-0.14917,-0.00865l-2.27208,-0.71002l-2.84346,-0.85304l-0.06765,-0.04022l-0.07825,-0.00848l-2.71429,-1l-0.00615,-0.00419l-0.00739,-0.00085l-2.28571,-0.85714l-0.26441,-0.18235l-0.29949,-0.11605l-2.35272,-1.66074l-0.63467,-0.3808l-0.34028,-0.34028l-0.37348,-0.30346l-1.71429,-2.28571l-0.06716,-0.15951l-0.11823,-0.12639l-0.71429,-1.28571l-0.06065,-0.22607l-0.12566,-0.19747l-0.85714,-2.57143l-0.03082,-0.40069l-0.09747,-0.38988v-2.42857l0.07464,-0.29857v-0.30776l0.28571,-1.14286l0.04613,-0.08649l0.00752,-0.09774l0.28571,-0.85714l0.13368,-0.21007l0.06742,-0.2397l0.57143,-1l0.13634,-0.14226l0.0821,-0.17913l0.57143,-0.71429l0.20193,-0.15385l0.14978,-0.20496l0.85714,-0.71429l0.08567,-0.04136l0.06169,-0.07242l1,-0.71429l0.26396,-0.10398l0.2276,-0.16937l1.68725,-0.70302l1.25895,-0.55953l0.37879,-0.06629l0.36048,-0.13389l1.28571,-0.14286l0.13951,0.01885l0.13657,-0.03414h4.14286l0.07744,0.01936l0.0785,-0.01449l2.28571,0.14286l0.17958,0.05701l0.1883,-0.00638l1.85262,0.39699l1.30839,0.11894h1.74374l0.12315,0.03079l0.12561,-0.01838l1.42857,0.14286l0.15196,0.05455l0.16143,-0.00294l1.85714,0.42857l0.0504,0.02571l0.05656,0.00147l2.57143,0.71429l0.21153,0.11997l0.23739,0.05275l1.33556,0.66778l0.61774,0.24709l0.086,0.06211l0.10356,0.02301l0.28571,0.14286l0.04606,0.03948l0.97116,0.05395l0.06932,-0.02311l0.03306,0.02879l0.73134,0.04063l0.83853,0.97828l0.14286,0.28571l0.05156,0.232l0.10254,0.08931l0.02255,0.47362l0.10286,0.46286l-0.07543,0.11314l0.0113,0.23739l-0.14286,0.71429l-0.14295,0.30178l-0.07244,0.32597l-0.1176,0.2352l-0.08106,0.48634l-0.04063,0.09345z" fill="#46b351"/><path d="M235.64532,171.37554c0.14899,-0.50438 0.3767,-0.93463 0.6655,-1.2967c2.0603,-2.58308 7.22972,-1.6966 9.10731,0.49584c0.76317,0.89115 0.80248,4.32019 -1.06453,3.94679c-2.47911,-0.49582 -0.69834,-2.846 -3.40177,-2.82677c-0.84228,0.00599 -3.36239,1.57826 -3.82043,1.2729z" fill="#34993e"/><path d="M255.14532,173.93398c1.44204,0.82402 2.17477,1.94008 2.40505,3.18478c0.67422,3.64424 -2.95858,8.39119 -5.70689,10.14012c-5.08283,3.23453 -13.87813,-0.30472 -19.11886,-2.24339c-2.03263,-0.75192 -10.60154,-3.23766 -6.63278,-7.20642c1.44067,-1.44067 2.42875,-0.75504 3.53553,0c2.59524,1.77044 8.24258,5.09674 11.6608,5.12491c0.38213,0.00315 5.60547,0.2428 7.625,-0.14286c0.16979,-0.03242 3.71156,-3.85753 3.73214,-4.04815c0.12863,-1.19123 -0.69483,-2.98337 0.34546,-3.57783z" fill="#34993e"/><path d="M255.82858,166.05197c0.1591,0.18561 0.30524,0.36573 0.43674,0.54107c0.49706,0.45693 0.80857,1.11257 0.80857,1.84096c0,1.38071 -1.11929,2.5 -2.5,2.5c-0.26357,0 -0.51761,-0.04079 -0.75616,-0.11639c-0.21516,-0.06819 -0.41771,-0.16471 -0.60328,-0.28518c-1.76299,-0.50925 -4.09003,-1.5292 -5.87476,-2.30317c-4.29364,-1.86199 -10.4239,-2.58792 -15.15172,-2.29526c-4.44241,0.27499 -4.18076,7.21846 -5.14087,8.17857c-1.75336,1.75336 -4.47319,1.46869 -4.6875,-1.25c-0.34734,-4.40624 3.76645,-11.60325 8.78571,-11.92857c6.77777,-0.4393 12.66963,1.3631 18.75935,3.04147c1.99157,0.54889 4.21636,0.71271 5.79938,2.06959z" fill="#8ad491"/><path d="M241.91064,173.96973c1.24055,0.03791 3.19735,-0.68494 3.94331,0.80697c0.81574,1.63149 -0.83033,2.83151 -2.17182,2.87363c-1.74577,0.05482 -6.47832,-0.25582 -7.5591,-2.14718c-0.54241,-0.32012 -0.90629,-0.91057 -0.90629,-1.586c0,-1.01637 0.82393,-1.8403 1.8403,-1.8403c0.386,0 0.74423,0.11884 1.04013,0.32192c1.06911,0.44705 2.2341,1.5227 3.81347,1.57096z" fill="#8ad491"/></g></g></svg>