<svg version="1.1" xmlns="http://www.w3.org/2000/svg" xmlns:xlink="http://www.w3.org/1999/xlink" width="57.05407" height="43.39837" viewBox="0,0,57.05407,43.39837"><defs><radialGradient cx="237.83407" cy="171.86583" r="17.36493" gradientUnits="userSpaceOnUse" id="color-1"><stop offset="0" stop-color="#c7c7c7"/><stop offset="1" stop-color="#ffffff"/></radialGradient><radialGradient cx="251.41342" cy="181.71474" r="17.36493" gradientUnits="userSpaceOnUse" id="color-2"><stop offset="0" stop-color="#923214"/><stop offset="1" stop-color="#4e1503"/></radialGradient><radialGradient cx="228.54515" cy="186.82413" r="17.36493" gradientUnits="userSpaceOnUse" id="color-3"><stop offset="0" stop-color="#ff91cd"/><stop offset="1" stop-color="#ff5264"/></radialGradient></defs><g transform="translate(-211.47296,-158.30082)"><g stroke="none" stroke-width="0.5" stroke-miterlimit="10"><g><path d="M232.48214,168.99223c0.04263,-0.52419 0.17747,-0.99194 0.38607,-1.40544c1.48812,-2.95002 6.72955,-3.14013 9.01606,-1.37829c0.92938,0.71612 1.66955,4.06456 -0.23437,4.08111c-2.52811,0.02198 -1.26594,-2.64287 -3.90823,-2.07084c-0.82323,0.17822 -2.96828,2.23291 -3.47911,2.02774z" fill="#985933"/><path d="M252.09304,167.50623c1.58015,0.5115 2.52575,1.454 3.00586,2.62524c1.40568,3.42916 -1.17887,8.81904 -3.51114,11.09336c-4.31339,4.20619 -13.64681,2.54163 -19.17336,1.7164c-2.14348,-0.32007 -11.03973,-0.99974 -7.96708,-5.69665c1.11538,-1.70499 2.22285,-1.23606 3.46071,-0.72348c2.90261,1.20191 9.11111,3.3022 12.46276,2.6303c0.37469,-0.07511 5.53654,-0.90939 7.43441,-1.70015c0.15956,-0.06648 2.84365,-4.5354 2.82479,-4.7262c-0.11786,-1.19234 -1.29062,-2.77806 -0.39399,-3.57281z" fill="#985933"/><path d="M251.14894,159.65118c0.19371,0.14913 0.37362,0.29553 0.53822,0.44025c0.58004,0.34555 1.01913,0.92357 1.16818,1.63654c0.28254,1.35149 -0.58403,2.67614 -1.93552,2.95868c-0.25799,0.05393 -0.515,0.06599 -0.76398,0.04081c-0.22456,-0.02272 -0.44258,-0.07575 -0.64887,-0.1557c-1.82989,-0.13771 -4.3164,-0.65989 -6.22175,-1.05227c-4.5838,-0.94397 -10.73289,-0.4001 -15.30078,0.85383c-4.29213,1.17823 -2.61517,7.92123 -3.35849,9.05749c-1.35746,2.07505 -4.07799,2.35297 -4.8441,-0.26434c-1.24165,-4.24192 1.31236,-12.12845 6.15884,-13.47398c6.54445,-1.81695 12.68046,-1.25835 18.98477,-0.86164c2.06175,0.12974 4.27298,-0.16517 6.10016,0.83906z" fill="#d3a689"/><path d="M239.14574,170.24945c1.22206,-0.21675 2.98953,-1.32472 4.025,-0.01703c1.13233,1.43004 -0.23334,2.9415 -1.53783,3.25724c-1.69761,0.4109 -6.39358,1.07526 -7.83852,-0.55491c-0.59644,-0.20235 -1.07344,-0.70585 -1.21166,-1.36698c-0.20798,-0.99486 0.42991,-1.96996 1.42477,-2.17794c0.37783,-0.07899 0.7528,-0.03597 1.08399,0.10226c1.13797,0.21882 2.49842,1.03331 4.05424,0.75736z" fill="#d3a689"/><path d="M237.66898,175.33211l0.0405,0.02226l0.02261,0.00155zM237.43203,175.24145l-0.04661,0.00974l0.16731,0.04407zM241.72407,169.86947l0.14127,-0.0603l0.09708,-0.1484l-0.39748,-1.90132l-0.18223,-0.37623l-0.04402,-0.04758l-0.20182,-0.20697l-0.79285,-0.51867l-0.10903,-0.04112l-0.39445,-0.07686l-0.10784,-0.05043l-2.43102,0.50822l-1.29479,0.50404l-0.79507,0.41837l-0.13981,0.03412l-0.11745,0.08317l-0.24169,0.09409l-0.04333,0.04928l-0.46925,0.56859l-0.12048,0.18417l-0.0534,0.13296l0.03343,0.0783l0.03931,0.24588l0.10854,0.2241l0.03289,0.15731l0.20614,0.00802l0.57438,0.00723l0.06737,0.01774l0.07175,0.0028l0.01563,0.01763l0.25461,0.02958l0.07034,0.02653l0.07499,-0.0053l0.68528,0.12076l0.8245,0.09579l0.28705,0.10825c0.14801,-0.01938 0.29511,-0.02525 0.43997,-0.0185l0.03343,-0.01708l0.06903,0.02398c0.1646,0.01451 0.32584,0.0453 0.48168,0.09105l0.07372,0.00287l0.02518,0.02841c0.16402,0.05564 0.32138,0.12805 0.46963,0.21561l0.25888,0.04562l0.33599,0.1498l0.16917,-0.02567l0.02597,0.02l0.96675,-0.2021l0.10042,-0.04864l0.4994,-0.33192l0.21792,-0.07748zM253.22791,163.87493l-0.02059,0.52912l0.00366,0.42138l0.44247,2.11652l0.42684,0.53905l0.09646,0.21326l0.15598,0.17451l0.4843,0.92037l0.08269,0.33876l0.15201,0.31383l0.14617,0.69917l-0.01841,0.47312l0.03338,0.4723l-0.1335,0.75764l-0.15991,0.35866l-0.09474,0.38109l-0.44376,0.83468l-1.33408,3.62641l-0.73095,2.03033l-0.54207,1.56048l-0.24263,0.37089l-0.19078,0.40004l-0.58224,0.7055l-0.00049,0.00036l-0.00666,0.03849l-0.52255,0.35212l-0.50697,0.3742l-0.03849,-0.00664l-0.0005,0.00034l-0.94961,0.34447l-0.3154,0.0326l-0.29889,0.10586l-1.28774,0.12326l-0.05822,-0.00877l-0.05634,0.01709l-2.74455,0.13593l-0.0362,-0.00717l-0.03561,0.00969l-2.32504,0.04823l-0.14568,-0.03322l-0.14778,0.02206l-2.36929,-0.23006l-2.95785,-0.25313l-0.07445,-0.02553l-0.07833,0.00771l-2.86148,-0.42341l-0.00688,-0.00284l-0.00741,0.00068l-2.41274,-0.37127l-0.29613,-0.12438l-0.3169,-0.05231l-2.64277,-1.14416l-0.69916,-0.24287l-0.40271,-0.26345l-0.42767,-0.22061l-2.14574,-1.88654l-0.09838,-0.14239l-0.14159,-0.09952l-0.96227,-1.11234l-0.10563,-0.20888l-0.16341,-0.16758l-1.3652,-2.34162l-0.11216,-0.3859l-0.17519,-0.36168l-0.49696,-2.37718l0.01196,-0.30753l-0.06298,-0.30125l0.0458,-1.17714l0.02746,-0.0941l-0.01264,-0.09721l0.10427,-0.89747l0.08786,-0.23298l0.01694,-0.24842l0.35471,-1.09577l0.10434,-0.16715l0.04371,-0.19214l0.41317,-0.81611l0.16617,-0.19192l0.10467,-0.23127l0.69284,-0.87457l0.07539,-0.05802l0.04557,-0.08351l0.83267,-0.90381l0.2371,-0.15579l0.18813,-0.21236l1.50769,-1.03341l1.11781,-0.80531l0.35721,-0.1424l0.32545,-0.20482l1.22927,-0.40293l0.14042,-0.0101l0.12669,-0.06136l4.05519,-0.84776l0.07976,0.0031l0.07387,-0.03025l2.26658,-0.32789l0.18745,0.01906l0.18301,-0.04478l1.89465,0.00949l1.30504,-0.15131l1.70684,-0.35682l0.12684,0.00494l0.11919,-0.04369l1.42757,-0.15249l0.15991,0.0223l0.15741,-0.03591l1.90554,0.03947l0.05459,0.01485l0.05566,-0.01014l2.66318,0.17298l0.2316,0.07415l0.24316,0.00306l1.44395,0.38035l0.65523,0.11545l0.09689,0.0432l0.10608,0.00133l0.3089,0.08137l0.05316,0.02922l0.96165,-0.14592l0.06312,-0.03681l0.03825,0.02142l0.72418,-0.10988l1.02097,0.78599l0.1983,0.25043l0.09794,0.21654l0.11865,0.06644l0.11899,0.45898l0.1954,0.43202l-0.05068,0.12618l0.05964,0.23005l0.00633,0.72841l-0.07817,0.32465l-0.0042,0.3339l-0.06698,0.25429l0.02018,0.49264l-0.02065,0.09979z" fill="url(#color-1)"/></g><g><path d="M245.34113,181.54768c-0.19708,-0.4876 -0.28642,-0.96612 -0.28551,-1.42927c0.00644,-3.3041 4.60548,-5.82554 7.43938,-5.27679c1.15188,0.22305 3.31563,2.88351 1.6215,3.75248c-2.24954,1.15386 -2.3171,-1.79401 -4.4219,-0.09733c-0.65577,0.52862 -1.651,3.32727 -2.19958,3.3731z" fill="#985933"/><path d="M262.20091,171.42133c1.64167,-0.2518 2.90962,0.16629 3.86416,0.99765c2.79474,2.43402 2.90303,8.41057 1.83902,11.4895c-1.96784,5.6943 -11.05601,8.39403 -16.36538,10.13597c-2.05925,0.67561 -10.31485,4.05942 -9.67603,-1.51678c0.23189,-2.02418 1.43204,-2.10195 2.7683,-2.19921c3.13332,-0.22808 9.62421,-1.13643 12.31817,-3.24061c0.30116,-0.23523 4.54007,-3.29666 5.88146,-4.85485c0.11278,-0.131 0.50662,-5.32912 0.40416,-5.49118c-0.64026,-1.01274 -2.39979,-1.90375 -1.95502,-3.0163z" fill="#985933"/><path d="M257.83304,164.82475c0.24003,0.04637 0.46649,0.0965 0.67853,0.15199c0.67342,0.04859 1.32516,0.36818 1.77824,0.93851c0.85885,1.08108 0.67868,2.65372 -0.40241,3.51256c-0.20637,0.16395 -0.43066,0.29003 -0.66446,0.37922c-0.21088,0.08045 -0.42952,0.13086 -0.64975,0.15196c-1.69718,0.69789 -4.15367,1.34677 -6.03253,1.85092c-4.52011,1.21286 -9.77161,4.45767 -13.2914,7.62767c-3.30732,2.97863 1.2166,8.25256 1.06206,9.60154c-0.28222,2.46351 -2.58891,3.93243 -4.44782,1.93703c-3.01279,-3.234 -4.26848,-11.42811 -0.54079,-14.80496c5.03369,-4.55995 10.76812,-6.81361 16.58032,-9.28744c1.90081,-0.80904 3.74471,-2.06466 5.82823,-1.98692z" fill="#d3a689"/><path d="M251.86049,179.68169c0.99492,-0.74197 2.07745,-2.52515 3.58954,-1.82101c1.65355,0.77003 1.11114,2.73355 0.08697,3.60098c-1.33282,1.12885 -5.2316,3.82941 -7.25433,3.02077c-0.62383,0.08674 -1.27602,-0.14922 -1.69616,-0.67808c-0.63221,-0.79581 -0.49959,-1.95346 0.29621,-2.58567c0.30224,-0.24011 0.65665,-0.36988 1.01466,-0.39493c1.11518,-0.31499 2.69646,-0.19742 3.96311,-1.14204z" fill="#d3a689"/><path d="M252.821,184.88666l0.04619,0.00173l0.0209,-0.00877zM252.56857,184.91194l-0.03729,0.02962l0.16929,-0.03568zM253.9943,178.18535l0.0992,-0.11727l0.02018,-0.17618l-1.20824,-1.52091l-0.33166,-0.25448l-0.06069,-0.02278l-0.27323,-0.09443l-0.94128,-0.10783l-0.11589,0.01216l-0.38701,0.10828l-0.11901,0.00331l-1.94462,1.54486l-0.93103,1.03137l-0.52286,0.73061l-0.10964,0.09322l-0.06764,0.12702l-0.17379,0.19252l-0.01662,0.06348l-0.16427,0.71869l-0.02505,0.21865l0.01193,0.14278l0.065,0.05498l0.14544,0.20211l0.19754,0.15159l0.09997,0.12583l0.18783,-0.08532l0.51658,-0.25124l0.06817,-0.01437l0.06538,-0.02969l0.02187,0.00874l0.24082,-0.08779l0.07476,-0.00785l0.06464,-0.03838l0.66662,-0.19953l0.77984,-0.2843l0.3051,-0.03204c0.12358,-0.08372 0.25241,-0.15496 0.38491,-0.21393l0.02221,-0.03026l0.07245,-0.00953c0.15362,-0.06088 0.31153,-0.1057 0.47134,-0.13473l0.06716,-0.03051l0.03525,0.01409c0.17155,-0.02386 0.34467,-0.02974 0.51645,-0.018l0.25184,-0.07537l0.36749,-0.01685l0.13967,-0.09884l0.03218,0.00622l0.77332,-0.61435l0.06792,-0.08852l0.2974,-0.52069l0.15999,-0.16701zM261.58599,167.66684l0.21898,0.48212l0.19233,0.37495l1.34501,1.69305l0.62331,0.29026l0.18189,0.14732l0.2177,0.08598l0.84574,0.60528l0.22588,0.26565l0.27665,0.21228l0.44431,0.55929l0.1958,0.4311l0.24174,0.40712l0.2206,0.737l0.01799,0.39229l0.0863,0.38309l-0.02212,0.94505l0.43468,3.83949l0.25764,2.14246l0.21565,1.63781l-0.05045,0.44032l0.00898,0.44311l-0.20384,0.89173l-0.00028,0.00054l0.01132,0.03738l-0.30903,0.54913l-0.28521,0.56188l-0.03738,0.01133l-0.00029,0.00053l-0.69413,0.73389l-0.26726,0.17064l-0.21963,0.22871l-1.09556,0.6879l-0.05596,0.01828l-0.04268,0.04054l-2.39185,1.35281l-0.03557,0.00983l-0.02748,0.02464l-2.05628,1.08621l-0.14511,0.03567l-0.12218,0.08602l-2.22067,0.85736l-2.75703,1.1008l-0.07798,0.01058l-0.06654,0.04204l-2.7473,0.90538l-0.00742,0.00055l-0.00632,0.00393l-2.32286,0.75065l-0.32046,0.02169l-0.30669,0.09542l-2.87519,0.16312l-0.73381,0.09662l-0.47811,-0.05477l-0.4812,-0.00529l-2.76406,-0.72335l-0.15181,-0.08311l-0.1712,-0.02542l-1.35904,-0.56239l-0.18811,-0.13928l-0.22122,-0.07645l-2.27065,-1.48024l-0.27338,-0.29457l-0.31884,-0.24465l-1.51064,-1.90155l-0.12728,-0.28021l-0.19144,-0.24097l-0.48718,-1.07257l-0.01768,-0.09641l-0.05491,-0.08121l-0.30945,-0.84886l-0.026,-0.24763l-0.09631,-0.22962l-0.1746,-1.13844l0.01826,-0.1962l-0.04714,-0.19133l0.00311,-0.91473l0.06241,-0.24607l-0.01022,-0.25365l0.22683,-1.09245l0.04135,-0.08567l0.00325,-0.09507l0.33869,-1.18131l0.142,-0.24561l0.07285,-0.27419l0.8838,-1.59998l0.63771,-1.22122l0.25535,-0.28753l0.19897,-0.32907l0.91784,-0.91161l0.12096,-0.07202l0.08569,-0.11168l3.24383,-2.57698l0.07268,-0.03302l0.05245,-0.06018l1.87855,-1.30993l0.17607,-0.06707l0.14346,-0.12212l1.69753,-0.84155l1.09845,-0.72073l1.36534,-1.08466l0.11558,-0.05249l0.08692,-0.09253l1.20742,-0.77676l0.15291,-0.05182l0.12457,-0.10272l1.72071,-0.81964l0.05546,-0.01122l0.0452,-0.03403l2.45772,-1.04023l0.24025,-0.03764l0.21868,-0.10636l1.46111,-0.30789l0.63738,-0.19078l0.10597,-0.00486l0.0954,-0.0464l0.31257,-0.06586l0.06062,0.00226l0.79397,-0.56185l0.0399,-0.06121l0.0438,0.00197l0.59791,-0.4231l1.26508,0.24439l0.28958,0.13485l0.18468,0.14959l0.13584,0.00615l0.31226,0.35681l0.36845,0.29843l0.01131,0.13551l0.15651,0.17884l0.33245,0.64814l0.07579,0.32521l0.14604,0.3003l0.05422,0.25731l0.23905,0.43122l0.02632,0.09844z" fill="url(#color-2)"/></g><g><path d="M224.81015,182.03345c0.25075,-0.4623 0.56306,-0.83571 0.92092,-1.12971c2.553,-2.09746 7.42453,-0.15402 8.80444,2.38133c0.56088,1.03053 -0.11467,4.39259 -1.86301,3.63862c-2.32153,-1.00116 -0.09043,-2.92903 -2.73861,-3.47314c-0.82507,-0.16952 -3.61732,0.84354 -4.00174,0.4495z" fill="#985933"/><path d="M230.39797,185.87536c1.20547,0.29539 3.26989,-0.00416 3.68885,1.61037c0.45815,1.76559 -1.40172,2.59655 -2.72257,2.35842c-1.71892,-0.30989 -6.28306,-1.59915 -6.94632,-3.6741c-0.46386,-0.42605 -0.69682,-1.07932 -0.55618,-1.73995c0.21163,-0.99409 1.18906,-1.6284 2.18316,-1.41677c0.37754,0.08037 0.70317,0.2712 0.9503,0.53144c0.95259,0.65986 1.86807,1.95452 3.40277,2.33058z" fill="#d3a689"/><path d="M243.35001,188.59617c1.23885,1.10622 1.72313,2.35039 1.68919,3.61576c-0.09937,3.70475 -4.64097,7.59122 -7.69321,8.72955c-5.64493,2.10527 -13.51049,-3.18779 -18.23267,-6.17521c-1.83151,-1.15868 -9.69501,-5.37418 -4.98685,-8.42956c1.70907,-1.10911 2.53273,-0.23277 3.45804,0.73618c2.16971,2.27202 7.00065,6.70132 10.33808,7.44063c0.3731,0.08265 5.43205,1.40467 7.48762,1.44797c0.17282,0.00364 4.43344,-3.00014 4.49326,-3.1823c0.37385,-1.13834 -0.05839,-3.06266 1.08288,-3.42748z" fill="#985933"/><path d="M245.65951,181.02919c0.11696,0.21467 0.2224,0.42127 0.3145,0.62015c0.39102,0.55041 0.55918,1.25655 0.40752,1.96897c-0.2875,1.35045 -1.61532,2.21214 -2.96576,1.92464c-0.25779,-0.05488 -0.49777,-0.14767 -0.71535,-0.27129c-0.19625,-0.1115 -0.37426,-0.24808 -0.53068,-0.40455c-1.61831,-0.86518 -3.68197,-2.34732 -5.26642,-3.47595c-3.81182,-2.71521 -9.65656,-4.7017 -14.34169,-5.39989c-4.4023,-0.65605 -5.59218,6.18971 -6.73116,6.92886c-2.08002,1.34984 -4.68096,0.50508 -4.32448,-2.19865c0.57776,-4.38199 6.09996,-10.56466 11.07695,-9.83772c6.72068,0.98162 12.1081,3.97134 17.71486,6.88094c1.83363,0.95155 3.97554,1.57503 5.24133,3.23179z" fill="#d3a689"/><path d="M226.99387,189.9283l0.02806,0.03673l0.02006,0.01055zM226.81374,189.74965l-0.04658,-0.00992l0.13525,0.1079zM232.91008,186.56932l0.15359,0.0019l0.14875,-0.09653l0.40446,-1.89984l-0.01472,-0.41778l-0.02105,-0.06131l-0.10101,-0.27086l-0.51576,-0.79475l-0.08313,-0.08166l-0.32979,-0.22965l-0.07828,-0.0897l-2.42913,-0.51714l-1.38805,-0.06196l-0.89632,0.06153l-0.14167,-0.02526l-0.14104,0.02864l-0.2591,-0.01156l-0.05955,0.02758l-0.65895,0.33058l-0.18461,0.11981l-0.10256,0.10006l-0.00105,0.08513l-0.06337,0.2408l0.00877,0.24885l-0.03346,0.15719l0.18534,0.09061l0.52251,0.23864l0.05446,0.04344l0.06451,0.03154l0.00718,0.02244l0.22096,0.12992l0.05363,0.05268l0.07074,0.02545l0.5781,0.38729l0.71554,0.42069l0.21885,0.21498c0.14322,0.04206 0.28016,0.09611 0.40995,0.16081l0.03748,-0.00212l0.05346,0.04982c0.14471,0.07977 0.27977,0.17307 0.40385,0.27787l0.06628,0.0324l0.01155,0.03616c0.12756,0.11716 0.24227,0.24697 0.34251,0.38695l0.21839,0.14631l0.24684,0.27277l0.16512,0.04485l0.01568,0.02879l0.966,0.20565l0.11151,-0.00393l0.59092,-0.10189l0.23064,0.01715zM245.85508,185.7328l-0.23258,0.47571l-0.16687,0.38695l-0.45024,2.11489l0.1727,0.66554l0.00209,0.23406l0.07219,0.22265l0.07122,1.03757l-0.0612,0.34329l0.01228,0.34848l-0.14873,0.69863l-0.20797,0.42536l-0.16025,0.44554l-0.42818,0.63914l-0.29117,0.2635l-0.24061,0.31034l-0.74312,0.58428l-2.68532,2.77843l-1.48883,1.56202l-1.12625,1.20851l-0.37178,0.24127l-0.33612,0.28888l-0.81762,0.41017l-0.00059,0.00013l-0.02164,0.03252l-0.62026,0.11102l-0.61493,0.13751l-0.03253,-0.02163l-0.0006,0.00011l-1.00783,-0.06849l-0.30169,-0.09759l-0.31618,-0.0239l-1.22778,-0.40744l-0.04971,-0.03154l-0.05844,-0.00712l-2.56556,-0.98435l-0.03022,-0.02119l-0.03649,-0.00552l-2.14637,-0.89511l-0.11984,-0.08924l-0.1441,-0.03952l-2.07444,-1.16756l-2.60351,-1.42642l-0.05779,-0.05342l-0.07477,-0.02459l-2.44657,-1.54326l-0.00514,-0.00538l-0.00705,-0.00237l-2.05713,-1.31429l-0.22064,-0.23341l-0.26876,-0.17587l-1.95535,-2.11423l-0.54147,-0.50461l-0.26197,-0.40368l-0.30211,-0.37458l-1.20078,-2.59257l-0.03247,-0.17l-0.08932,-0.14824l-0.43092,-1.40626l-0.01225,-0.23374l-0.08179,-0.21931l-0.30292,-2.69354l0.05329,-0.39832l-0.01415,-0.40163l0.50569,-2.37534l0.13517,-0.27648l0.06408,-0.30101l0.51742,-1.05832l0.06313,-0.07499l0.02771,-0.09403l0.45792,-0.77886l0.17449,-0.17763l0.11585,-0.22041l0.76713,-0.8591l0.16297,-0.11075l0.1176,-0.15811l0.70764,-0.57965l0.22954,-0.10843l0.18917,-0.16928l0.98708,-0.52016l0.0924,-0.02261l0.07542,-0.05799l1.12681,-0.49041l0.27983,-0.04674l0.25788,-0.11827l1.79665,-0.33629l1.34786,-0.28512l0.38429,0.01404l0.38046,-0.05589l1.28728,0.12799l0.13253,0.04749l0.14069,-0.00495l4.05205,0.86264l0.07171,0.03506l0.0798,0.00217l2.20586,0.61567l0.16377,0.09315l0.1855,0.03297l1.72935,0.77405l1.25495,0.38877l1.70552,0.36309l0.11404,0.05576l0.12668,0.00818l1.36751,0.43719l0.13727,0.085l0.1585,0.03074l1.7272,0.80588l0.04394,0.03564l0.05501,0.01321l2.36634,1.23407l0.18191,0.16139l0.2212,0.10102l1.16724,0.93124l0.55275,0.3703l0.07118,0.07866l0.0965,0.04407l0.2497,0.19922l0.03683,0.04821l0.93864,0.25499l0.07261,-0.00817l0.02634,0.03504l0.70685,0.19202l0.61645,1.13144l0.08024,0.30919l0.00212,0.23765l0.0817,0.1087l-0.07656,0.46793l0.00423,0.47413l-0.09734,0.09495l-0.03838,0.23454l-0.28846,0.66889l-0.20265,0.2654l-0.13873,0.30374l-0.164,0.20556l-0.18055,0.4588l-0.0592,0.08294z" fill="url(#color-3)"/></g></g></g></svg>