<svg version="1.1" xmlns="http://www.w3.org/2000/svg" xmlns:xlink="http://www.w3.org/1999/xlink" width="83.55409" height="49.27542" viewBox="0,0,83.55409,49.27542"><defs><radialGradient cx="237.7857" cy="182.4" r="40.85818" gradientUnits="userSpaceOnUse" id="color-1"><stop offset="0" stop-color="#c7c7c7"/><stop offset="1" stop-color="#ffffff"/></radialGradient></defs><g transform="translate(-198.22295,-155.36227)"><g data-paper-data="{&quot;isPaintingLayer&quot;:true}" fill-rule="nonzero" stroke="none" stroke-width="0.5" stroke-linecap="butt" stroke-linejoin="miter" stroke-miterlimit="10" stroke-dasharray="" stroke-dashoffset="0" style="mix-blend-mode: normal"><path d="M210.79954,167.49221c1.97687,1.708 -0.92669,2.2139 -1.34357,3.34286c-0.06671,0.18065 5.59803,7.47468 5.95891,7.70041c4.29234,2.68485 16.12605,8.61317 16.98327,9.05869c7.66801,3.98521 22.27704,7.87629 29.13372,9.46586c2.92414,0.67788 5.54152,1.27358 7.91393,4.1459c6.53552,7.91268 -14.11582,-0.09453 -19.11054,-1.86067c-12.87788,-4.55366 -34.6593,-11.96129 -44.12297,-20.57751c-5.11705,-4.65882 -10.44015,-12.81653 -6.77483,-15.0182c1.25189,-0.75199 3.55236,-0.80916 7.26776,0.20523z" data-paper-data="{&quot;index&quot;:null}" fill="#985933"/><path d="M210.12214,156.82197c4.34625,0.74218 9.42314,3.21655 14.20582,5.10125c14.62425,5.76294 28.87898,11.19202 43.79043,19.50062c11.04263,6.15291 15.99278,16.88639 12.60831,20.09706c-2.08825,1.98102 -8.34473,-0.97463 -11.23207,-4.47038c-1.58106,-1.91421 3.11277,-7.30868 -6.66842,-12.74383c-10.4096,-5.78434 -24.56107,-12.37687 -35.27361,-15.88288c-4.45286,-1.45734 -10.26517,-3.34864 -14.51275,-4.99785c-0.48665,-0.11869 -0.99715,-0.27696 -1.51911,-0.47327c-0.5787,-0.21765 -1.17148,-0.48205 -1.76145,-0.79113c-3.09058,-1.61907 -4.93377,-3.85065 -4.11686,-4.98435c0.43095,-0.59809 1.51615,-0.77114 2.89912,-0.56346c0.39809,0.01023 0.83178,0.03371 1.29772,0.06787z" data-paper-data="{&quot;index&quot;:null}" fill="#d3a689"/><path d="M204.58137,158.96921l-0.03565,-0.12438l0.1063,-0.49438l-0.12408,-0.33103l0.03071,-0.3526l-0.14143,-0.41542l0.10284,-0.75403l0.16575,-0.18167l-0.1019,-0.18135l0.5041,-0.25944l0.33069,-0.36245l0.28236,0.04691l0.25268,-0.13003l0.48882,-0.06707l2.45577,0.18003l1.66107,0.82424l0.09104,0.01513l0.14149,0.10026l2.20576,1.09452l0.12646,0.02159l0.72406,0.21774l0.24542,0.10254l0.22925,0.04985l1.52895,0.5215l3.38461,1.01782l0.56258,0.23506l0.54447,0.14954l6.1785,2.42886l0.12747,0.06512l0.12803,0.03799l4.41058,1.82586l0.35961,0.19171l0.37242,0.13341l3.28224,1.5579l0.27029,0.16239l0.29388,0.11913l3.90319,2.04478l2.99907,1.43661l4.38179,1.84649l0.41772,0.22604l0.4357,0.16378l5.20085,2.56301l0.16714,0.10395l0.1848,0.07492l9.27337,4.85809l0.2855,0.18818l0.32343,0.14812l2.79341,1.62498l0.72768,0.53265l0.80867,0.49862l2.48698,1.93573l3.36079,2.55578l0.40925,0.40597l0.52933,0.39491l1.81579,1.75914l0.09524,0.13181l0.16729,0.13442l1.496,1.59162l0.21401,0.34394l0.36097,0.36311l0.85648,1.25659l0.07779,0.24336l0.22101,0.27669l0.68743,1.49119l0.0091,0.27587l0.17494,0.32925l0.1324,1.03884l-0.041,0.08907l0.05209,0.12511l-0.03664,1.27344l-0.18209,0.25271l-0.00958,0.33268l-1.43688,1.99411l-0.44886,0.20583l-0.30606,0.29287l-3.44002,1.10629l-0.39811,0.01479l-0.26951,0.11451l-2.35957,0.21809l-0.33943,-0.03486l-0.24471,0.05222l-5.18962,-0.13344l-1.01555,-0.18879l-0.96301,-0.11962l-1.64595,-0.43157l-6.24892,-1.39526l-0.73904,-0.25591l-0.69975,-0.16033l-5.62347,-1.97652l-0.01704,-0.00797l-0.01624,-0.00377l-6.66732,-2.36178l-0.18018,-0.0848l-0.17522,-0.0463l-6.86951,-2.63393l-5.50591,-2.08133l-0.33902,-0.16782l-0.34086,-0.10807l-5.3699,-2.32842l-0.08116,-0.04501l-0.08458,-0.02799l-6.32923,-2.83098l-0.12818,-0.07304l-0.13567,-0.04788l-2.96246,-1.39038l-0.67825,-0.40334l-0.72529,-0.34306l-2.15388,-1.28995l-0.00112,-0.00084l-0.0898,-0.03079l-1.12687,-0.88728l-1.16556,-0.87951l-0.01073,-0.04669l-0.00108,-0.00085l-1.26078,-1.3068l-0.39265,-0.60444l-0.51607,-0.62482l-1.06436,-2.15976l-1.44418,-2.83521l-2.64542,-5.09198l-0.92494,-1.30594l-0.17291,-0.49057l-0.3263,-0.53101l-0.21691,-0.92154l0.13438,-0.46023l0.01471,-0.51183l0.42261,-0.5865l0.38945,-0.1786l0.23221,-0.27254l1.23119,-0.48606l0.38178,-0.0293l0.24885,-0.12807l1.05217,-0.14438l1.27933,-1.77545l0.0595,-0.43619l0.01646,-0.57242z" data-paper-data="{&quot;index&quot;:null}" fill="url(#color-1)"/></g></g></svg>