<svg version="1.1" xmlns="http://www.w3.org/2000/svg" xmlns:xlink="http://www.w3.org/1999/xlink" width="34.72986" height="26.69897" viewBox="0,0,34.72986,26.69897"><g transform="translate(-222.93103,-167.18401)"><g data-paper-data="{&quot;isPaintingLayer&quot;:true}" fill-rule="nonzero" stroke="none" stroke-width="0.5" stroke-linecap="butt" stroke-linejoin="miter" stroke-miterlimit="10" stroke-dasharray="" stroke-dashoffset="0" style="mix-blend-mode: normal"><path d="M239.42506,183.89265l0.03509,0.03008l0.02182,0.00614zM239.21168,183.75542h-0.04762l0.15475,0.07737zM244.51217,179.3754l0.15062,-0.03012l0.12539,-0.12539v-1.94242l-0.10139,-0.40556l-0.03335,-0.05558l-0.1552,-0.24389l-0.66994,-0.66994l-0.09831,-0.06256l-0.37038,-0.15595l-0.09524,-0.07143h-2.48357l-1.37053,0.22842l-0.86386,0.24682l-0.14383,0.00479l-0.13198,0.05738l-0.25583,0.04264l-0.0525,0.03937l-0.57567,0.46054l-0.15562,0.15562l-0.07948,0.11922l0.0167,0.08348l-0.01184,0.24872l0.06039,0.24157v0.16071l0.20014,0.05003l0.56075,0.12461l0.06231,0.03115l0.06966,0.01742l0.01169,0.02045l0.24317,0.08106l0.06342,0.04036l0.07449,0.01016l0.64607,0.25843l0.78745,0.26248l0.25882,0.1647c0.14884,0.01132 0.29403,0.03567 0.43445,0.07192l0.03622,-0.00988l0.06266,0.0376c0.15815,0.04789 0.30967,0.11102 0.45286,0.18769l0.07157,0.01789l0.01883,0.03296c0.14916,0.08803 0.28838,0.19111 0.41557,0.30715l0.24407,0.09763l0.29823,0.21539l0.17084,0.00949l0.02133,0.02489h0.98765l0.10825,-0.02706l0.55675,-0.2227l0.22916,-0.03125zM256.99924,175.86176l-0.12843,0.51371l-0.08264,0.41321v2.16228l0.3075,0.61499l0.05078,0.22849l0.11697,0.20274l0.28571,1l0.01162,0.34851l0.08457,0.33829v0.71429l-0.11484,0.45934l-0.06397,0.46914l-0.28571,0.71429l-0.22992,0.31835l-0.17072,0.35364l-0.60517,0.72621l-2.04793,3.27668l-1.13095,1.83779l-0.84992,1.41653l-0.31339,0.31339l-0.2686,0.35254l-0.71429,0.57143l-0.00055,0.00025l-0.01439,0.03631l-0.58355,0.23774l-0.57282,0.26254l-0.03632,-0.01438l-0.00056,0.00023l-1,0.14286l-0.3154,-0.03263l-0.31423,0.04246l-1.28571,-0.14286l-0.05519,-0.0205l-0.05864,0.0052l-2.71429,-0.42857l-0.03397,-0.01443l-0.03684,0.0022l-2.28571,-0.42857l-0.1358,-0.06233l-0.14917,-0.00865l-2.27208,-0.71002l-2.84346,-0.85304l-0.06765,-0.04022l-0.07825,-0.00848l-2.71429,-1l-0.00615,-0.00419l-0.00739,-0.00085l-2.28571,-0.85714l-0.26441,-0.18235l-0.29949,-0.11605l-2.35272,-1.66074l-0.63467,-0.3808l-0.34028,-0.34028l-0.37348,-0.30346l-1.71429,-2.28571l-0.06716,-0.15951l-0.11823,-0.12639l-0.71429,-1.28571l-0.06065,-0.22607l-0.12566,-0.19747l-0.85714,-2.57143l-0.03082,-0.40069l-0.09747,-0.38988v-2.42857l0.07464,-0.29857v-0.30776l0.28571,-1.14286l0.04613,-0.08649l0.00752,-0.09774l0.28571,-0.85714l0.13368,-0.21007l0.06742,-0.2397l0.57143,-1l0.13634,-0.14226l0.0821,-0.17913l0.57143,-0.71429l0.20193,-0.15385l0.14978,-0.20496l0.85714,-0.71429l0.08567,-0.04136l0.06169,-0.07242l1,-0.71429l0.26396,-0.10398l0.2276,-0.16937l1.68725,-0.70302l1.25895,-0.55953l0.37879,-0.06629l0.36048,-0.13389l1.28571,-0.14286l0.13951,0.01885l0.13657,-0.03414h4.14286l0.07744,0.01936l0.0785,-0.01449l2.28571,0.14286l0.17958,0.05701l0.1883,-0.00638l1.85262,0.39699l1.30839,0.11894h1.74374l0.12315,0.03079l0.12561,-0.01838l1.42857,0.14286l0.15196,0.05455l0.16143,-0.00294l1.85714,0.42857l0.0504,0.02571l0.05656,0.00147l2.57143,0.71429l0.21153,0.11997l0.23739,0.05275l1.33556,0.66778l0.61774,0.24709l0.086,0.06211l0.10356,0.02301l0.28571,0.14286l0.04606,0.03948l0.97116,0.05395l0.06932,-0.02311l0.03306,0.02879l0.73134,0.04063l0.83853,0.97828l0.14286,0.28571l0.05156,0.232l0.10254,0.08931l0.02255,0.47362l0.10286,0.46286l-0.07543,0.11314l0.0113,0.23739l-0.14286,0.71429l-0.14295,0.30178l-0.07244,0.32597l-0.1176,0.2352l-0.08106,0.48634l-0.04063,0.09345z" fill="#ff0000"/><path d="M232.88567,175.01665l0.04608,-0.09215l-0.00264,-0.03823l0.10363,-0.11399c0.12455,-0.18252 0.27264,-0.34769 0.43991,-0.49114l0.31239,-0.36445l0.03826,-0.00213l0.01656,-0.01104l0.15829,-0.15829l0.34461,-0.20676l0.14188,-0.12161l0.0612,-0.06732l0.07803,-0.05202l0.02402,-0.02059l0.02745,-0.01373l0.1205,-0.08033l0.31447,-0.11231l0.28172,-0.17927l0.75,-0.25l0.09774,-0.00752l0.08649,-0.04613l0.24019,-0.06005l0.15891,-0.05297l0.40069,-0.03082l0.38988,-0.09747h1.25l0.33333,-0.08333h0.50245l0.59059,-0.11812l0.24872,0.01184l0.24157,-0.06039h0.1089l0.03476,-0.00869l0.30776,0l0.29857,-0.07464l2.25355,0l0.02336,-0.01558l0.07009,0.01558h0.06966l0.55728,0.13932l0.56075,0.12461l0.06231,0.03115l0.06966,0.01742l0.01393,0.02438l0.08307,0.04154l0.40299,0.10075l0.04898,0.08571l0.09857,0.00548l0.65608,0.76543l0.0154,0.00433l0.01924,0.03608l0.00788,0.00919l0.06732,0.0612l0.05202,0.07803l0.02059,0.02402l0.01373,0.02745l0.08033,0.1205l0.1439,0.40291l0.03101,0.05814l0.0158,0.00903l0.00969,0.03877l0.14483,0.27156l0.08333,0.33333v0.08623l0.0048,0.01343l-0.0048,0.00959v0.10911l0.10943,0.23102l0.08333,0.41667l-0.01184,0.24872l0.06039,0.24157v0.27557l0.00869,0.03476l0,0.25l0.08333,0.33333l0,0.29844l0.01866,0.08396l0.13932,0.55728v0.06966l0.01558,0.07009l-0.00107,0.0016l0.06883,0.27531l0,0.06966l0.01558,0.07009l-0.00689,0.01033l0,0.30134l0.07464,0.29857l0,0.79403l0.00869,0.01629l0.08333,0.33333v0.30776l0.07464,0.29857v1.25l-0.11962,0.47848l0.0503,0.18443l-0.16527,0.27545l-0.07791,0.31164l-0.16598,0.09485l-0.25375,0.42292l-0.05132,0.05132l-0.00551,0.02754l-0.06058,0.03855l-0.04926,0.04926l-0.49257,0.29554l-0.2461,0.15661l-0.02909,0.05091l-0.08386,0.02096l-0.12557,0.07991l-0.06609,0.02203l-0.06157,0.03694l-0.02709,-0.00739l-0.09525,0.03175l-0.40069,0.03082l-0.38988,0.09747h-0.66667l-0.33333,-0.08333h-0.08333l-0.09358,-0.0234l-0.28032,-0.02156l-0.08906,-0.02969h-0.14338l-0.03476,-0.00869l-0.02912,0l-0.02336,0.01558l-0.07009,-0.01558h-0.06966l-0.55728,-0.13932l-0.28589,-0.06353l-0.11407,-0.00877l-0.14917,-0.04972l-0.01163,-0.00258l-0.00775,-0.00388l-0.08145,-0.02715l-0.01773,-0.01128l-0.02503,-0.00626l-0.00868,-0.0152l-0.10036,-0.06387l-0.17566,-0.03903l-0.83333,-0.41667l-0.23333,-0.2l-0.02121,-0.0106l-0.0671,-0.01677l-0.24293,-0.12956l-0.26876,-0.05973l-0.03333,-0.01667l-0.3,-0.06667l-0.06231,-0.03115l-0.06966,-0.01742l-0.01389,-0.02431l-0.21006,-0.05251l-0.56075,-0.12461l-0.03388,-0.01694l-0.08837,-0.01767l-0.14277,-0.06763l-0.15751,-0.01212l-0.5,-0.16667l-0.15181,-0.09661l-0.17566,-0.03903l-0.17442,-0.08721l-0.08145,-0.02715l-0.15181,-0.09661l-0.17566,-0.03903l-0.83333,-0.41667l-0.23333,-0.2l-0.26667,-0.13333l-0.24031,-0.20598l-0.01278,-0.00767l-0.16357,-0.03635l-0.16667,-0.08333l-0.23333,-0.2l-0.1,-0.05l-0.11068,-0.09487l-0.01907,-0.01144l-0.13897,-0.04963l-0.25,-0.16667l-0.1675,-0.18425l-0.21352,-0.12811l-0.08567,-0.08567l-0.04411,-0.00245l-0.32251,-0.37626l-0.37626,-0.32251l-0.00576,-0.10361l-0.01764,-0.0294l-0.02783,-0.00155l-0.20713,-0.24165l-0.24165,-0.20713l-0.00208,-0.0375l-0.24792,-0.2125l-0.00576,-0.10361l-0.03913,-0.06521l-0.09487,-0.11068l-0.08333,-0.16667l-0.00694,-0.03122l-0.35434,-0.59057l0.12293,-0.45076l-0.04116,-0.18524l0.15516,-0.23274l0.42598,-1.56194l0.61539,-0.16783c0.03143,-0.07783 0.06666,-0.15371 0.10547,-0.22742zM238.8917,177.94747l0.08145,0.02715l0.15181,0.09661l0.17566,0.03903l0.17442,0.08721l0.18379,0.06126l0.26404,0.05281l0.30178,0.14295l0.32597,0.07244l0.13333,0.06667l0.45,0.1l0.03333,0.01667l0.3,0.06667l0.06231,0.03115l0.06966,0.01742l0.00694,0.01214h0.01607l0.33333,0.08333l0.1245,0.0664l0.01916,0.00479l0.00446,0.00781l0.09481,0.05056l0.1452,0.03227l0.00178,-0.00049l0.00233,0.0014l0.11946,0.02655l0.28994,0.14497v-0.11033l-0.07464,-0.29857v-0.25l-0.06484,-0.25936l-0.02718,-0.05097l-0.08333,-0.33333l0,-0.2151l-0.00689,-0.03099l0.00572,-0.00858l-0.08217,-0.32866v-0.30776l-0.01214,-0.04857l-0.6714,0l-0.03476,0.00869h-0.30776l-0.29857,0.07464h-0.16912l-0.59059,0.11812l-0.24872,-0.01184l-0.24157,0.06039l-0.66667,0l-0.33333,0.08333l-0.9607,0l-0.01571,0.00838l0.17778,0.08889l0.23333,0.2z" fill="#ffffff"/></g></g></svg>